M48
; DRILL file {KiCad 9.0.6} date 2026-03-23T13:27:28-0400
; FORMAT={-:-/ absolute / inch / decimal}
; #@! TF.CreationDate,2026-03-23T13:27:28-04:00
; #@! TF.GenerationSoftware,Kicad,Pcbnew,9.0.6
; #@! TF.FileFunction,Plated,1,2,PTH
FMAT,2
INCH
; #@! TA.AperFunction,Plated,PTH,ViaDrill
T1C0.0118
; #@! TA.AperFunction,Plated,PTH,ComponentDrill
T2C0.0118
; #@! TA.AperFunction,Plated,PTH,ComponentDrill
T3C0.0394
; #@! TA.AperFunction,Plated,PTH,ComponentDrill
T4C0.0398
; #@! TA.AperFunction,Plated,PTH,ComponentDrill
T5C0.0630
; #@! TA.AperFunction,Plated,PTH,ComponentDrill
T6C0.0866
%
G90
G05
T1
X5.4677Y-4.6936
X5.5677Y-4.4936
X5.5827Y-3.4921
X5.5906Y-4.2087
X5.6062Y-4.6941
X5.6677Y-3.3936
X5.6677Y-3.7936
X5.6677Y-4.4936
X5.7649Y-2.9134
X5.7677Y-4.9936
X5.7677Y-5.0936
X5.7677Y-5.1936
X5.7776Y-3.622
X5.7776Y-4.3307
X5.7933Y-4.7536
X5.8677Y-3.0936
X5.8677Y-3.7936
X5.8677Y-3.9936
X5.8677Y-4.4936
X5.8677Y-4.9936
X5.8677Y-5.0936
X5.8677Y-5.1936
X5.9389Y-4.9023
X5.9677Y-3.2936
X5.9677Y-3.9936
X5.9677Y-4.9936
X6.0677Y-3.2936
X6.0677Y-3.9936
X6.1677Y-5.1936
X6.1683Y-3.1793
X6.1683Y-3.312
X6.1809Y-3.888
X6.1809Y-4.0207
X6.1809Y-4.5967
X6.1809Y-4.7293
X6.249Y-3.0551
X6.249Y-3.1063
X6.249Y-3.1575
X6.2616Y-3.7638
X6.2616Y-3.815
X6.2616Y-3.8661
X6.2616Y-4.4724
X6.2616Y-4.5236
X6.2616Y-4.5748
X6.2677Y-2.7936
X6.3001Y-3.0551
X6.3001Y-3.1063
X6.3001Y-3.1575
X6.3128Y-3.7638
X6.3128Y-3.815
X6.3128Y-3.8661
X6.3128Y-4.4724
X6.3128Y-4.5236
X6.3128Y-4.5748
X6.3677Y-4.9936
X6.4291Y-4.0945
X6.4498Y-3.3868
X6.4624Y-4.8041
X6.4677Y-5.1936
X6.5059Y-3.1575
X6.5185Y-3.8661
X6.5185Y-4.5748
X6.5677Y-4.6936
X6.5677Y-4.7936
X6.5954Y-3.1083
X6.5954Y-3.2067
X6.6063Y-3.815
X6.6063Y-3.9134
X6.6063Y-4.5276
X6.6063Y-4.626
X6.6151Y-3.1575
X6.626Y-3.8642
X6.626Y-4.5768
X6.6677Y-2.8936
X6.6677Y-4.0936
X6.6677Y-4.1936
X6.6677Y-4.2936
X6.6677Y-4.3936
X6.6677Y-4.4936
X6.6677Y-4.6936
X6.6677Y-4.7936
X6.6677Y-4.8936
X6.6677Y-4.9936
X6.6677Y-5.1936
T2
X6.249Y-3.0276
X6.249Y-3.0787
X6.249Y-3.1299
X6.249Y-3.1811
X6.2616Y-3.7362
X6.2616Y-3.7874
X6.2616Y-3.8386
X6.2616Y-3.8898
X6.2616Y-4.4449
X6.2616Y-4.4961
X6.2616Y-4.5472
X6.2616Y-4.5984
X6.3001Y-3.0276
X6.3001Y-3.0787
X6.3001Y-3.1299
X6.3001Y-3.1811
X6.3128Y-3.7362
X6.3128Y-3.7874
X6.3128Y-3.8386
X6.3128Y-3.8898
X6.3128Y-4.4449
X6.3128Y-4.4961
X6.3128Y-4.5472
X6.3128Y-4.5984
T3
X5.37Y-2.8353
X5.37Y-2.9353
X5.37Y-3.0353
X5.37Y-3.1353
X5.37Y-3.2353
X5.37Y-3.3353
X5.37Y-3.4353
X5.37Y-3.5353
X5.37Y-3.6353
X5.37Y-3.7353
X5.37Y-3.8353
X5.37Y-3.9353
X5.37Y-4.0353
X5.37Y-4.1353
X5.37Y-4.2353
X5.37Y-4.3353
X5.37Y-4.4353
X5.37Y-4.5353
X5.37Y-4.6353
X5.37Y-4.7353
X5.37Y-4.8353
X5.37Y-4.9353
X5.37Y-5.0353
X5.37Y-5.1353
X6.748Y-2.8353
X6.748Y-2.9353
X6.748Y-3.0353
X6.748Y-3.1353
X6.748Y-3.2353
X6.748Y-3.3353
X6.748Y-3.4353
X6.748Y-3.5353
X6.748Y-3.6353
X6.748Y-3.7353
X6.748Y-3.8353
X6.748Y-3.9353
X6.748Y-4.0353
X6.748Y-4.1353
X6.748Y-4.2353
X6.748Y-4.3353
X6.748Y-4.4353
X6.748Y-4.5353
X6.748Y-4.6353
X6.748Y-4.7353
X6.748Y-4.8353
X6.748Y-4.9353
X6.748Y-5.0353
X6.748Y-5.1353
T4
X6.3129Y-4.8983
X6.5137Y-4.9456
T5
X5.5334Y-5.1286
X6.0334Y-5.1286
T6
X6.2854Y-5.0991
X6.561Y-5.0991
M30
