%TF.GenerationSoftware,KiCad,Pcbnew,9.0.6*%
%TF.CreationDate,2026-03-23T19:00:04-04:00*%
%TF.ProjectId,TX,54582e6b-6963-4616-945f-706362585858,rev?*%
%TF.SameCoordinates,Original*%
%TF.FileFunction,Legend,Bot*%
%TF.FilePolarity,Positive*%
%FSLAX46Y46*%
G04 Gerber Fmt 4.6, Leading zero omitted, Abs format (unit mm)*
G04 Created by KiCad (PCBNEW 9.0.6) date 2026-03-23 19:00:04*
%MOMM*%
%LPD*%
G01*
G04 APERTURE LIST*
%ADD10C,0.200000*%
%ADD11C,0.150000*%
%ADD12C,0.120000*%
G04 APERTURE END LIST*
D10*
X65208898Y-127447331D02*
X65542231Y-126971140D01*
X65780326Y-127447331D02*
X65780326Y-126447331D01*
X65780326Y-126447331D02*
X65399374Y-126447331D01*
X65399374Y-126447331D02*
X65304136Y-126494950D01*
X65304136Y-126494950D02*
X65256517Y-126542569D01*
X65256517Y-126542569D02*
X65208898Y-126637807D01*
X65208898Y-126637807D02*
X65208898Y-126780664D01*
X65208898Y-126780664D02*
X65256517Y-126875902D01*
X65256517Y-126875902D02*
X65304136Y-126923521D01*
X65304136Y-126923521D02*
X65399374Y-126971140D01*
X65399374Y-126971140D02*
X65780326Y-126971140D01*
X64875564Y-126447331D02*
X64208898Y-127447331D01*
X64208898Y-126447331D02*
X64875564Y-127447331D01*
X62732707Y-126923521D02*
X62589850Y-126971140D01*
X62589850Y-126971140D02*
X62542231Y-127018759D01*
X62542231Y-127018759D02*
X62494612Y-127113997D01*
X62494612Y-127113997D02*
X62494612Y-127256854D01*
X62494612Y-127256854D02*
X62542231Y-127352092D01*
X62542231Y-127352092D02*
X62589850Y-127399712D01*
X62589850Y-127399712D02*
X62685088Y-127447331D01*
X62685088Y-127447331D02*
X63066040Y-127447331D01*
X63066040Y-127447331D02*
X63066040Y-126447331D01*
X63066040Y-126447331D02*
X62732707Y-126447331D01*
X62732707Y-126447331D02*
X62637469Y-126494950D01*
X62637469Y-126494950D02*
X62589850Y-126542569D01*
X62589850Y-126542569D02*
X62542231Y-126637807D01*
X62542231Y-126637807D02*
X62542231Y-126733045D01*
X62542231Y-126733045D02*
X62589850Y-126828283D01*
X62589850Y-126828283D02*
X62637469Y-126875902D01*
X62637469Y-126875902D02*
X62732707Y-126923521D01*
X62732707Y-126923521D02*
X63066040Y-126923521D01*
X61875564Y-126447331D02*
X61685088Y-126447331D01*
X61685088Y-126447331D02*
X61589850Y-126494950D01*
X61589850Y-126494950D02*
X61494612Y-126590188D01*
X61494612Y-126590188D02*
X61446993Y-126780664D01*
X61446993Y-126780664D02*
X61446993Y-127113997D01*
X61446993Y-127113997D02*
X61494612Y-127304473D01*
X61494612Y-127304473D02*
X61589850Y-127399712D01*
X61589850Y-127399712D02*
X61685088Y-127447331D01*
X61685088Y-127447331D02*
X61875564Y-127447331D01*
X61875564Y-127447331D02*
X61970802Y-127399712D01*
X61970802Y-127399712D02*
X62066040Y-127304473D01*
X62066040Y-127304473D02*
X62113659Y-127113997D01*
X62113659Y-127113997D02*
X62113659Y-126780664D01*
X62113659Y-126780664D02*
X62066040Y-126590188D01*
X62066040Y-126590188D02*
X61970802Y-126494950D01*
X61970802Y-126494950D02*
X61875564Y-126447331D01*
X61066040Y-127161616D02*
X60589850Y-127161616D01*
X61161278Y-127447331D02*
X60827945Y-126447331D01*
X60827945Y-126447331D02*
X60494612Y-127447331D01*
X59589850Y-127447331D02*
X59923183Y-126971140D01*
X60161278Y-127447331D02*
X60161278Y-126447331D01*
X60161278Y-126447331D02*
X59780326Y-126447331D01*
X59780326Y-126447331D02*
X59685088Y-126494950D01*
X59685088Y-126494950D02*
X59637469Y-126542569D01*
X59637469Y-126542569D02*
X59589850Y-126637807D01*
X59589850Y-126637807D02*
X59589850Y-126780664D01*
X59589850Y-126780664D02*
X59637469Y-126875902D01*
X59637469Y-126875902D02*
X59685088Y-126923521D01*
X59685088Y-126923521D02*
X59780326Y-126971140D01*
X59780326Y-126971140D02*
X60161278Y-126971140D01*
X59161278Y-127447331D02*
X59161278Y-126447331D01*
X59161278Y-126447331D02*
X58923183Y-126447331D01*
X58923183Y-126447331D02*
X58780326Y-126494950D01*
X58780326Y-126494950D02*
X58685088Y-126590188D01*
X58685088Y-126590188D02*
X58637469Y-126685426D01*
X58637469Y-126685426D02*
X58589850Y-126875902D01*
X58589850Y-126875902D02*
X58589850Y-127018759D01*
X58589850Y-127018759D02*
X58637469Y-127209235D01*
X58637469Y-127209235D02*
X58685088Y-127304473D01*
X58685088Y-127304473D02*
X58780326Y-127399712D01*
X58780326Y-127399712D02*
X58923183Y-127447331D01*
X58923183Y-127447331D02*
X59161278Y-127447331D01*
X65208898Y-129057275D02*
X65542231Y-128581084D01*
X65780326Y-129057275D02*
X65780326Y-128057275D01*
X65780326Y-128057275D02*
X65399374Y-128057275D01*
X65399374Y-128057275D02*
X65304136Y-128104894D01*
X65304136Y-128104894D02*
X65256517Y-128152513D01*
X65256517Y-128152513D02*
X65208898Y-128247751D01*
X65208898Y-128247751D02*
X65208898Y-128390608D01*
X65208898Y-128390608D02*
X65256517Y-128485846D01*
X65256517Y-128485846D02*
X65304136Y-128533465D01*
X65304136Y-128533465D02*
X65399374Y-128581084D01*
X65399374Y-128581084D02*
X65780326Y-128581084D01*
X64780326Y-128533465D02*
X64446993Y-128533465D01*
X64304136Y-129057275D02*
X64780326Y-129057275D01*
X64780326Y-129057275D02*
X64780326Y-128057275D01*
X64780326Y-128057275D02*
X64304136Y-128057275D01*
X64018421Y-128057275D02*
X63685088Y-129057275D01*
X63685088Y-129057275D02*
X63351755Y-128057275D01*
X63066040Y-128152513D02*
X63018421Y-128104894D01*
X63018421Y-128104894D02*
X62923183Y-128057275D01*
X62923183Y-128057275D02*
X62685088Y-128057275D01*
X62685088Y-128057275D02*
X62589850Y-128104894D01*
X62589850Y-128104894D02*
X62542231Y-128152513D01*
X62542231Y-128152513D02*
X62494612Y-128247751D01*
X62494612Y-128247751D02*
X62494612Y-128342989D01*
X62494612Y-128342989D02*
X62542231Y-128485846D01*
X62542231Y-128485846D02*
X63113659Y-129057275D01*
X63113659Y-129057275D02*
X62494612Y-129057275D01*
X62066040Y-128962036D02*
X62018421Y-129009656D01*
X62018421Y-129009656D02*
X62066040Y-129057275D01*
X62066040Y-129057275D02*
X62113659Y-129009656D01*
X62113659Y-129009656D02*
X62066040Y-128962036D01*
X62066040Y-128962036D02*
X62066040Y-129057275D01*
X61066041Y-129057275D02*
X61637469Y-129057275D01*
X61351755Y-129057275D02*
X61351755Y-128057275D01*
X61351755Y-128057275D02*
X61446993Y-128200132D01*
X61446993Y-128200132D02*
X61542231Y-128295370D01*
X61542231Y-128295370D02*
X61637469Y-128342989D01*
X59685088Y-128057275D02*
X59589850Y-128057275D01*
X59589850Y-128057275D02*
X59494612Y-128104894D01*
X59494612Y-128104894D02*
X59446993Y-128152513D01*
X59446993Y-128152513D02*
X59399374Y-128247751D01*
X59399374Y-128247751D02*
X59351755Y-128438227D01*
X59351755Y-128438227D02*
X59351755Y-128676322D01*
X59351755Y-128676322D02*
X59399374Y-128866798D01*
X59399374Y-128866798D02*
X59446993Y-128962036D01*
X59446993Y-128962036D02*
X59494612Y-129009656D01*
X59494612Y-129009656D02*
X59589850Y-129057275D01*
X59589850Y-129057275D02*
X59685088Y-129057275D01*
X59685088Y-129057275D02*
X59780326Y-129009656D01*
X59780326Y-129009656D02*
X59827945Y-128962036D01*
X59827945Y-128962036D02*
X59875564Y-128866798D01*
X59875564Y-128866798D02*
X59923183Y-128676322D01*
X59923183Y-128676322D02*
X59923183Y-128438227D01*
X59923183Y-128438227D02*
X59875564Y-128247751D01*
X59875564Y-128247751D02*
X59827945Y-128152513D01*
X59827945Y-128152513D02*
X59780326Y-128104894D01*
X59780326Y-128104894D02*
X59685088Y-128057275D01*
X59018421Y-128057275D02*
X58399374Y-128057275D01*
X58399374Y-128057275D02*
X58732707Y-128438227D01*
X58732707Y-128438227D02*
X58589850Y-128438227D01*
X58589850Y-128438227D02*
X58494612Y-128485846D01*
X58494612Y-128485846D02*
X58446993Y-128533465D01*
X58446993Y-128533465D02*
X58399374Y-128628703D01*
X58399374Y-128628703D02*
X58399374Y-128866798D01*
X58399374Y-128866798D02*
X58446993Y-128962036D01*
X58446993Y-128962036D02*
X58494612Y-129009656D01*
X58494612Y-129009656D02*
X58589850Y-129057275D01*
X58589850Y-129057275D02*
X58875564Y-129057275D01*
X58875564Y-129057275D02*
X58970802Y-129009656D01*
X58970802Y-129009656D02*
X59018421Y-128962036D01*
X57256517Y-128009656D02*
X58113659Y-129295370D01*
X56970802Y-128152513D02*
X56923183Y-128104894D01*
X56923183Y-128104894D02*
X56827945Y-128057275D01*
X56827945Y-128057275D02*
X56589850Y-128057275D01*
X56589850Y-128057275D02*
X56494612Y-128104894D01*
X56494612Y-128104894D02*
X56446993Y-128152513D01*
X56446993Y-128152513D02*
X56399374Y-128247751D01*
X56399374Y-128247751D02*
X56399374Y-128342989D01*
X56399374Y-128342989D02*
X56446993Y-128485846D01*
X56446993Y-128485846D02*
X57018421Y-129057275D01*
X57018421Y-129057275D02*
X56399374Y-129057275D01*
X55780326Y-128057275D02*
X55685088Y-128057275D01*
X55685088Y-128057275D02*
X55589850Y-128104894D01*
X55589850Y-128104894D02*
X55542231Y-128152513D01*
X55542231Y-128152513D02*
X55494612Y-128247751D01*
X55494612Y-128247751D02*
X55446993Y-128438227D01*
X55446993Y-128438227D02*
X55446993Y-128676322D01*
X55446993Y-128676322D02*
X55494612Y-128866798D01*
X55494612Y-128866798D02*
X55542231Y-128962036D01*
X55542231Y-128962036D02*
X55589850Y-129009656D01*
X55589850Y-129009656D02*
X55685088Y-129057275D01*
X55685088Y-129057275D02*
X55780326Y-129057275D01*
X55780326Y-129057275D02*
X55875564Y-129009656D01*
X55875564Y-129009656D02*
X55923183Y-128962036D01*
X55923183Y-128962036D02*
X55970802Y-128866798D01*
X55970802Y-128866798D02*
X56018421Y-128676322D01*
X56018421Y-128676322D02*
X56018421Y-128438227D01*
X56018421Y-128438227D02*
X55970802Y-128247751D01*
X55970802Y-128247751D02*
X55923183Y-128152513D01*
X55923183Y-128152513D02*
X55875564Y-128104894D01*
X55875564Y-128104894D02*
X55780326Y-128057275D01*
X55066040Y-128152513D02*
X55018421Y-128104894D01*
X55018421Y-128104894D02*
X54923183Y-128057275D01*
X54923183Y-128057275D02*
X54685088Y-128057275D01*
X54685088Y-128057275D02*
X54589850Y-128104894D01*
X54589850Y-128104894D02*
X54542231Y-128152513D01*
X54542231Y-128152513D02*
X54494612Y-128247751D01*
X54494612Y-128247751D02*
X54494612Y-128342989D01*
X54494612Y-128342989D02*
X54542231Y-128485846D01*
X54542231Y-128485846D02*
X55113659Y-129057275D01*
X55113659Y-129057275D02*
X54494612Y-129057275D01*
X53637469Y-128057275D02*
X53827945Y-128057275D01*
X53827945Y-128057275D02*
X53923183Y-128104894D01*
X53923183Y-128104894D02*
X53970802Y-128152513D01*
X53970802Y-128152513D02*
X54066040Y-128295370D01*
X54066040Y-128295370D02*
X54113659Y-128485846D01*
X54113659Y-128485846D02*
X54113659Y-128866798D01*
X54113659Y-128866798D02*
X54066040Y-128962036D01*
X54066040Y-128962036D02*
X54018421Y-129009656D01*
X54018421Y-129009656D02*
X53923183Y-129057275D01*
X53923183Y-129057275D02*
X53732707Y-129057275D01*
X53732707Y-129057275D02*
X53637469Y-129009656D01*
X53637469Y-129009656D02*
X53589850Y-128962036D01*
X53589850Y-128962036D02*
X53542231Y-128866798D01*
X53542231Y-128866798D02*
X53542231Y-128628703D01*
X53542231Y-128628703D02*
X53589850Y-128533465D01*
X53589850Y-128533465D02*
X53637469Y-128485846D01*
X53637469Y-128485846D02*
X53732707Y-128438227D01*
X53732707Y-128438227D02*
X53923183Y-128438227D01*
X53923183Y-128438227D02*
X54018421Y-128485846D01*
X54018421Y-128485846D02*
X54066040Y-128533465D01*
X54066040Y-128533465D02*
X54113659Y-128628703D01*
X65446993Y-130143409D02*
X65304136Y-130191028D01*
X65304136Y-130191028D02*
X65256517Y-130238647D01*
X65256517Y-130238647D02*
X65208898Y-130333885D01*
X65208898Y-130333885D02*
X65208898Y-130476742D01*
X65208898Y-130476742D02*
X65256517Y-130571980D01*
X65256517Y-130571980D02*
X65304136Y-130619600D01*
X65304136Y-130619600D02*
X65399374Y-130667219D01*
X65399374Y-130667219D02*
X65780326Y-130667219D01*
X65780326Y-130667219D02*
X65780326Y-129667219D01*
X65780326Y-129667219D02*
X65446993Y-129667219D01*
X65446993Y-129667219D02*
X65351755Y-129714838D01*
X65351755Y-129714838D02*
X65304136Y-129762457D01*
X65304136Y-129762457D02*
X65256517Y-129857695D01*
X65256517Y-129857695D02*
X65256517Y-129952933D01*
X65256517Y-129952933D02*
X65304136Y-130048171D01*
X65304136Y-130048171D02*
X65351755Y-130095790D01*
X65351755Y-130095790D02*
X65446993Y-130143409D01*
X65446993Y-130143409D02*
X65780326Y-130143409D01*
X64875564Y-130000552D02*
X64637469Y-130667219D01*
X64399374Y-130000552D02*
X64637469Y-130667219D01*
X64637469Y-130667219D02*
X64732707Y-130905314D01*
X64732707Y-130905314D02*
X64780326Y-130952933D01*
X64780326Y-130952933D02*
X64875564Y-131000552D01*
X63304135Y-130619600D02*
X63161278Y-130667219D01*
X63161278Y-130667219D02*
X62923183Y-130667219D01*
X62923183Y-130667219D02*
X62827945Y-130619600D01*
X62827945Y-130619600D02*
X62780326Y-130571980D01*
X62780326Y-130571980D02*
X62732707Y-130476742D01*
X62732707Y-130476742D02*
X62732707Y-130381504D01*
X62732707Y-130381504D02*
X62780326Y-130286266D01*
X62780326Y-130286266D02*
X62827945Y-130238647D01*
X62827945Y-130238647D02*
X62923183Y-130191028D01*
X62923183Y-130191028D02*
X63113659Y-130143409D01*
X63113659Y-130143409D02*
X63208897Y-130095790D01*
X63208897Y-130095790D02*
X63256516Y-130048171D01*
X63256516Y-130048171D02*
X63304135Y-129952933D01*
X63304135Y-129952933D02*
X63304135Y-129857695D01*
X63304135Y-129857695D02*
X63256516Y-129762457D01*
X63256516Y-129762457D02*
X63208897Y-129714838D01*
X63208897Y-129714838D02*
X63113659Y-129667219D01*
X63113659Y-129667219D02*
X62875564Y-129667219D01*
X62875564Y-129667219D02*
X62732707Y-129714838D01*
X61875564Y-130667219D02*
X61875564Y-130143409D01*
X61875564Y-130143409D02*
X61923183Y-130048171D01*
X61923183Y-130048171D02*
X62018421Y-130000552D01*
X62018421Y-130000552D02*
X62208897Y-130000552D01*
X62208897Y-130000552D02*
X62304135Y-130048171D01*
X61875564Y-130619600D02*
X61970802Y-130667219D01*
X61970802Y-130667219D02*
X62208897Y-130667219D01*
X62208897Y-130667219D02*
X62304135Y-130619600D01*
X62304135Y-130619600D02*
X62351754Y-130524361D01*
X62351754Y-130524361D02*
X62351754Y-130429123D01*
X62351754Y-130429123D02*
X62304135Y-130333885D01*
X62304135Y-130333885D02*
X62208897Y-130286266D01*
X62208897Y-130286266D02*
X61970802Y-130286266D01*
X61970802Y-130286266D02*
X61875564Y-130238647D01*
X61399373Y-130667219D02*
X61399373Y-130000552D01*
X61399373Y-130095790D02*
X61351754Y-130048171D01*
X61351754Y-130048171D02*
X61256516Y-130000552D01*
X61256516Y-130000552D02*
X61113659Y-130000552D01*
X61113659Y-130000552D02*
X61018421Y-130048171D01*
X61018421Y-130048171D02*
X60970802Y-130143409D01*
X60970802Y-130143409D02*
X60970802Y-130667219D01*
X60970802Y-130143409D02*
X60923183Y-130048171D01*
X60923183Y-130048171D02*
X60827945Y-130000552D01*
X60827945Y-130000552D02*
X60685088Y-130000552D01*
X60685088Y-130000552D02*
X60589849Y-130048171D01*
X60589849Y-130048171D02*
X60542230Y-130143409D01*
X60542230Y-130143409D02*
X60542230Y-130667219D01*
X59637469Y-130667219D02*
X59637469Y-130143409D01*
X59637469Y-130143409D02*
X59685088Y-130048171D01*
X59685088Y-130048171D02*
X59780326Y-130000552D01*
X59780326Y-130000552D02*
X59970802Y-130000552D01*
X59970802Y-130000552D02*
X60066040Y-130048171D01*
X59637469Y-130619600D02*
X59732707Y-130667219D01*
X59732707Y-130667219D02*
X59970802Y-130667219D01*
X59970802Y-130667219D02*
X60066040Y-130619600D01*
X60066040Y-130619600D02*
X60113659Y-130524361D01*
X60113659Y-130524361D02*
X60113659Y-130429123D01*
X60113659Y-130429123D02*
X60066040Y-130333885D01*
X60066040Y-130333885D02*
X59970802Y-130286266D01*
X59970802Y-130286266D02*
X59732707Y-130286266D01*
X59732707Y-130286266D02*
X59637469Y-130238647D01*
X59161278Y-130000552D02*
X59161278Y-130667219D01*
X59161278Y-130095790D02*
X59113659Y-130048171D01*
X59113659Y-130048171D02*
X59018421Y-130000552D01*
X59018421Y-130000552D02*
X58875564Y-130000552D01*
X58875564Y-130000552D02*
X58780326Y-130048171D01*
X58780326Y-130048171D02*
X58732707Y-130143409D01*
X58732707Y-130143409D02*
X58732707Y-130667219D01*
X58399373Y-130000552D02*
X58018421Y-130000552D01*
X58256516Y-129667219D02*
X58256516Y-130524361D01*
X58256516Y-130524361D02*
X58208897Y-130619600D01*
X58208897Y-130619600D02*
X58113659Y-130667219D01*
X58113659Y-130667219D02*
X58018421Y-130667219D01*
X57685087Y-130667219D02*
X57685087Y-129667219D01*
X57256516Y-130667219D02*
X57256516Y-130143409D01*
X57256516Y-130143409D02*
X57304135Y-130048171D01*
X57304135Y-130048171D02*
X57399373Y-130000552D01*
X57399373Y-130000552D02*
X57542230Y-130000552D01*
X57542230Y-130000552D02*
X57637468Y-130048171D01*
X57637468Y-130048171D02*
X57685087Y-130095790D01*
X56351754Y-130667219D02*
X56351754Y-130143409D01*
X56351754Y-130143409D02*
X56399373Y-130048171D01*
X56399373Y-130048171D02*
X56494611Y-130000552D01*
X56494611Y-130000552D02*
X56685087Y-130000552D01*
X56685087Y-130000552D02*
X56780325Y-130048171D01*
X56351754Y-130619600D02*
X56446992Y-130667219D01*
X56446992Y-130667219D02*
X56685087Y-130667219D01*
X56685087Y-130667219D02*
X56780325Y-130619600D01*
X56780325Y-130619600D02*
X56827944Y-130524361D01*
X56827944Y-130524361D02*
X56827944Y-130429123D01*
X56827944Y-130429123D02*
X56780325Y-130333885D01*
X56780325Y-130333885D02*
X56685087Y-130286266D01*
X56685087Y-130286266D02*
X56446992Y-130286266D01*
X56446992Y-130286266D02*
X56351754Y-130238647D01*
X54542230Y-130571980D02*
X54589849Y-130619600D01*
X54589849Y-130619600D02*
X54732706Y-130667219D01*
X54732706Y-130667219D02*
X54827944Y-130667219D01*
X54827944Y-130667219D02*
X54970801Y-130619600D01*
X54970801Y-130619600D02*
X55066039Y-130524361D01*
X55066039Y-130524361D02*
X55113658Y-130429123D01*
X55113658Y-130429123D02*
X55161277Y-130238647D01*
X55161277Y-130238647D02*
X55161277Y-130095790D01*
X55161277Y-130095790D02*
X55113658Y-129905314D01*
X55113658Y-129905314D02*
X55066039Y-129810076D01*
X55066039Y-129810076D02*
X54970801Y-129714838D01*
X54970801Y-129714838D02*
X54827944Y-129667219D01*
X54827944Y-129667219D02*
X54732706Y-129667219D01*
X54732706Y-129667219D02*
X54589849Y-129714838D01*
X54589849Y-129714838D02*
X54542230Y-129762457D01*
X54113658Y-130667219D02*
X54113658Y-129667219D01*
X53685087Y-130667219D02*
X53685087Y-130143409D01*
X53685087Y-130143409D02*
X53732706Y-130048171D01*
X53732706Y-130048171D02*
X53827944Y-130000552D01*
X53827944Y-130000552D02*
X53970801Y-130000552D01*
X53970801Y-130000552D02*
X54066039Y-130048171D01*
X54066039Y-130048171D02*
X54113658Y-130095790D01*
X53066039Y-130667219D02*
X53161277Y-130619600D01*
X53161277Y-130619600D02*
X53208896Y-130571980D01*
X53208896Y-130571980D02*
X53256515Y-130476742D01*
X53256515Y-130476742D02*
X53256515Y-130191028D01*
X53256515Y-130191028D02*
X53208896Y-130095790D01*
X53208896Y-130095790D02*
X53161277Y-130048171D01*
X53161277Y-130048171D02*
X53066039Y-130000552D01*
X53066039Y-130000552D02*
X52923182Y-130000552D01*
X52923182Y-130000552D02*
X52827944Y-130048171D01*
X52827944Y-130048171D02*
X52780325Y-130095790D01*
X52780325Y-130095790D02*
X52732706Y-130191028D01*
X52732706Y-130191028D02*
X52732706Y-130476742D01*
X52732706Y-130476742D02*
X52780325Y-130571980D01*
X52780325Y-130571980D02*
X52827944Y-130619600D01*
X52827944Y-130619600D02*
X52923182Y-130667219D01*
X52923182Y-130667219D02*
X53066039Y-130667219D01*
X52304134Y-130000552D02*
X52304134Y-130667219D01*
X52304134Y-130095790D02*
X52256515Y-130048171D01*
X52256515Y-130048171D02*
X52161277Y-130000552D01*
X52161277Y-130000552D02*
X52018420Y-130000552D01*
X52018420Y-130000552D02*
X51923182Y-130048171D01*
X51923182Y-130048171D02*
X51875563Y-130143409D01*
X51875563Y-130143409D02*
X51875563Y-130667219D01*
X50970801Y-130000552D02*
X50970801Y-130810076D01*
X50970801Y-130810076D02*
X51018420Y-130905314D01*
X51018420Y-130905314D02*
X51066039Y-130952933D01*
X51066039Y-130952933D02*
X51161277Y-131000552D01*
X51161277Y-131000552D02*
X51304134Y-131000552D01*
X51304134Y-131000552D02*
X51399372Y-130952933D01*
X50970801Y-130619600D02*
X51066039Y-130667219D01*
X51066039Y-130667219D02*
X51256515Y-130667219D01*
X51256515Y-130667219D02*
X51351753Y-130619600D01*
X51351753Y-130619600D02*
X51399372Y-130571980D01*
X51399372Y-130571980D02*
X51446991Y-130476742D01*
X51446991Y-130476742D02*
X51446991Y-130191028D01*
X51446991Y-130191028D02*
X51399372Y-130095790D01*
X51399372Y-130095790D02*
X51351753Y-130048171D01*
X51351753Y-130048171D02*
X51256515Y-130000552D01*
X51256515Y-130000552D02*
X51066039Y-130000552D01*
X51066039Y-130000552D02*
X50970801Y-130048171D01*
D11*
X76136666Y-110779821D02*
X76469999Y-110303630D01*
X76708094Y-110779821D02*
X76708094Y-109779821D01*
X76708094Y-109779821D02*
X76327142Y-109779821D01*
X76327142Y-109779821D02*
X76231904Y-109827440D01*
X76231904Y-109827440D02*
X76184285Y-109875059D01*
X76184285Y-109875059D02*
X76136666Y-109970297D01*
X76136666Y-109970297D02*
X76136666Y-110113154D01*
X76136666Y-110113154D02*
X76184285Y-110208392D01*
X76184285Y-110208392D02*
X76231904Y-110256011D01*
X76231904Y-110256011D02*
X76327142Y-110303630D01*
X76327142Y-110303630D02*
X76708094Y-110303630D01*
X75803332Y-109779821D02*
X75136666Y-109779821D01*
X75136666Y-109779821D02*
X75565237Y-110779821D01*
X56452942Y-113519579D02*
X56500561Y-113567199D01*
X56500561Y-113567199D02*
X56643418Y-113614818D01*
X56643418Y-113614818D02*
X56738656Y-113614818D01*
X56738656Y-113614818D02*
X56881513Y-113567199D01*
X56881513Y-113567199D02*
X56976751Y-113471960D01*
X56976751Y-113471960D02*
X57024370Y-113376722D01*
X57024370Y-113376722D02*
X57071989Y-113186246D01*
X57071989Y-113186246D02*
X57071989Y-113043389D01*
X57071989Y-113043389D02*
X57024370Y-112852913D01*
X57024370Y-112852913D02*
X56976751Y-112757675D01*
X56976751Y-112757675D02*
X56881513Y-112662437D01*
X56881513Y-112662437D02*
X56738656Y-112614818D01*
X56738656Y-112614818D02*
X56643418Y-112614818D01*
X56643418Y-112614818D02*
X56500561Y-112662437D01*
X56500561Y-112662437D02*
X56452942Y-112710056D01*
X55500561Y-113614818D02*
X56071989Y-113614818D01*
X55786275Y-113614818D02*
X55786275Y-112614818D01*
X55786275Y-112614818D02*
X55881513Y-112757675D01*
X55881513Y-112757675D02*
X55976751Y-112852913D01*
X55976751Y-112852913D02*
X56071989Y-112900532D01*
X54548180Y-113614818D02*
X55119608Y-113614818D01*
X54833894Y-113614818D02*
X54833894Y-112614818D01*
X54833894Y-112614818D02*
X54929132Y-112757675D01*
X54929132Y-112757675D02*
X55024370Y-112852913D01*
X55024370Y-112852913D02*
X55119608Y-112900532D01*
X64737858Y-110109580D02*
X64785477Y-110157200D01*
X64785477Y-110157200D02*
X64928334Y-110204819D01*
X64928334Y-110204819D02*
X65023572Y-110204819D01*
X65023572Y-110204819D02*
X65166429Y-110157200D01*
X65166429Y-110157200D02*
X65261667Y-110061961D01*
X65261667Y-110061961D02*
X65309286Y-109966723D01*
X65309286Y-109966723D02*
X65356905Y-109776247D01*
X65356905Y-109776247D02*
X65356905Y-109633390D01*
X65356905Y-109633390D02*
X65309286Y-109442914D01*
X65309286Y-109442914D02*
X65261667Y-109347676D01*
X65261667Y-109347676D02*
X65166429Y-109252438D01*
X65166429Y-109252438D02*
X65023572Y-109204819D01*
X65023572Y-109204819D02*
X64928334Y-109204819D01*
X64928334Y-109204819D02*
X64785477Y-109252438D01*
X64785477Y-109252438D02*
X64737858Y-109300057D01*
X63785477Y-110204819D02*
X64356905Y-110204819D01*
X64071191Y-110204819D02*
X64071191Y-109204819D01*
X64071191Y-109204819D02*
X64166429Y-109347676D01*
X64166429Y-109347676D02*
X64261667Y-109442914D01*
X64261667Y-109442914D02*
X64356905Y-109490533D01*
X63452143Y-109204819D02*
X62833096Y-109204819D01*
X62833096Y-109204819D02*
X63166429Y-109585771D01*
X63166429Y-109585771D02*
X63023572Y-109585771D01*
X63023572Y-109585771D02*
X62928334Y-109633390D01*
X62928334Y-109633390D02*
X62880715Y-109681009D01*
X62880715Y-109681009D02*
X62833096Y-109776247D01*
X62833096Y-109776247D02*
X62833096Y-110014342D01*
X62833096Y-110014342D02*
X62880715Y-110109580D01*
X62880715Y-110109580D02*
X62928334Y-110157200D01*
X62928334Y-110157200D02*
X63023572Y-110204819D01*
X63023572Y-110204819D02*
X63309286Y-110204819D01*
X63309286Y-110204819D02*
X63404524Y-110157200D01*
X63404524Y-110157200D02*
X63452143Y-110109580D01*
X48666666Y-86609580D02*
X48714285Y-86657200D01*
X48714285Y-86657200D02*
X48857142Y-86704819D01*
X48857142Y-86704819D02*
X48952380Y-86704819D01*
X48952380Y-86704819D02*
X49095237Y-86657200D01*
X49095237Y-86657200D02*
X49190475Y-86561961D01*
X49190475Y-86561961D02*
X49238094Y-86466723D01*
X49238094Y-86466723D02*
X49285713Y-86276247D01*
X49285713Y-86276247D02*
X49285713Y-86133390D01*
X49285713Y-86133390D02*
X49238094Y-85942914D01*
X49238094Y-85942914D02*
X49190475Y-85847676D01*
X49190475Y-85847676D02*
X49095237Y-85752438D01*
X49095237Y-85752438D02*
X48952380Y-85704819D01*
X48952380Y-85704819D02*
X48857142Y-85704819D01*
X48857142Y-85704819D02*
X48714285Y-85752438D01*
X48714285Y-85752438D02*
X48666666Y-85800057D01*
X47714285Y-86704819D02*
X48285713Y-86704819D01*
X47999999Y-86704819D02*
X47999999Y-85704819D01*
X47999999Y-85704819D02*
X48095237Y-85847676D01*
X48095237Y-85847676D02*
X48190475Y-85942914D01*
X48190475Y-85942914D02*
X48285713Y-85990533D01*
X51166666Y-86609580D02*
X51214285Y-86657200D01*
X51214285Y-86657200D02*
X51357142Y-86704819D01*
X51357142Y-86704819D02*
X51452380Y-86704819D01*
X51452380Y-86704819D02*
X51595237Y-86657200D01*
X51595237Y-86657200D02*
X51690475Y-86561961D01*
X51690475Y-86561961D02*
X51738094Y-86466723D01*
X51738094Y-86466723D02*
X51785713Y-86276247D01*
X51785713Y-86276247D02*
X51785713Y-86133390D01*
X51785713Y-86133390D02*
X51738094Y-85942914D01*
X51738094Y-85942914D02*
X51690475Y-85847676D01*
X51690475Y-85847676D02*
X51595237Y-85752438D01*
X51595237Y-85752438D02*
X51452380Y-85704819D01*
X51452380Y-85704819D02*
X51357142Y-85704819D01*
X51357142Y-85704819D02*
X51214285Y-85752438D01*
X51214285Y-85752438D02*
X51166666Y-85800057D01*
X50785713Y-85800057D02*
X50738094Y-85752438D01*
X50738094Y-85752438D02*
X50642856Y-85704819D01*
X50642856Y-85704819D02*
X50404761Y-85704819D01*
X50404761Y-85704819D02*
X50309523Y-85752438D01*
X50309523Y-85752438D02*
X50261904Y-85800057D01*
X50261904Y-85800057D02*
X50214285Y-85895295D01*
X50214285Y-85895295D02*
X50214285Y-85990533D01*
X50214285Y-85990533D02*
X50261904Y-86133390D01*
X50261904Y-86133390D02*
X50833332Y-86704819D01*
X50833332Y-86704819D02*
X50214285Y-86704819D01*
X47166666Y-79609580D02*
X47214285Y-79657200D01*
X47214285Y-79657200D02*
X47357142Y-79704819D01*
X47357142Y-79704819D02*
X47452380Y-79704819D01*
X47452380Y-79704819D02*
X47595237Y-79657200D01*
X47595237Y-79657200D02*
X47690475Y-79561961D01*
X47690475Y-79561961D02*
X47738094Y-79466723D01*
X47738094Y-79466723D02*
X47785713Y-79276247D01*
X47785713Y-79276247D02*
X47785713Y-79133390D01*
X47785713Y-79133390D02*
X47738094Y-78942914D01*
X47738094Y-78942914D02*
X47690475Y-78847676D01*
X47690475Y-78847676D02*
X47595237Y-78752438D01*
X47595237Y-78752438D02*
X47452380Y-78704819D01*
X47452380Y-78704819D02*
X47357142Y-78704819D01*
X47357142Y-78704819D02*
X47214285Y-78752438D01*
X47214285Y-78752438D02*
X47166666Y-78800057D01*
X46309523Y-79038152D02*
X46309523Y-79704819D01*
X46547618Y-78657200D02*
X46785713Y-79371485D01*
X46785713Y-79371485D02*
X46166666Y-79371485D01*
X59359580Y-123607142D02*
X59407200Y-123559523D01*
X59407200Y-123559523D02*
X59454819Y-123416666D01*
X59454819Y-123416666D02*
X59454819Y-123321428D01*
X59454819Y-123321428D02*
X59407200Y-123178571D01*
X59407200Y-123178571D02*
X59311961Y-123083333D01*
X59311961Y-123083333D02*
X59216723Y-123035714D01*
X59216723Y-123035714D02*
X59026247Y-122988095D01*
X59026247Y-122988095D02*
X58883390Y-122988095D01*
X58883390Y-122988095D02*
X58692914Y-123035714D01*
X58692914Y-123035714D02*
X58597676Y-123083333D01*
X58597676Y-123083333D02*
X58502438Y-123178571D01*
X58502438Y-123178571D02*
X58454819Y-123321428D01*
X58454819Y-123321428D02*
X58454819Y-123416666D01*
X58454819Y-123416666D02*
X58502438Y-123559523D01*
X58502438Y-123559523D02*
X58550057Y-123607142D01*
X58550057Y-123988095D02*
X58502438Y-124035714D01*
X58502438Y-124035714D02*
X58454819Y-124130952D01*
X58454819Y-124130952D02*
X58454819Y-124369047D01*
X58454819Y-124369047D02*
X58502438Y-124464285D01*
X58502438Y-124464285D02*
X58550057Y-124511904D01*
X58550057Y-124511904D02*
X58645295Y-124559523D01*
X58645295Y-124559523D02*
X58740533Y-124559523D01*
X58740533Y-124559523D02*
X58883390Y-124511904D01*
X58883390Y-124511904D02*
X59454819Y-123940476D01*
X59454819Y-123940476D02*
X59454819Y-124559523D01*
X58550057Y-124940476D02*
X58502438Y-124988095D01*
X58502438Y-124988095D02*
X58454819Y-125083333D01*
X58454819Y-125083333D02*
X58454819Y-125321428D01*
X58454819Y-125321428D02*
X58502438Y-125416666D01*
X58502438Y-125416666D02*
X58550057Y-125464285D01*
X58550057Y-125464285D02*
X58645295Y-125511904D01*
X58645295Y-125511904D02*
X58740533Y-125511904D01*
X58740533Y-125511904D02*
X58883390Y-125464285D01*
X58883390Y-125464285D02*
X59454819Y-124892857D01*
X59454819Y-124892857D02*
X59454819Y-125511904D01*
X68862857Y-114859580D02*
X68910476Y-114907200D01*
X68910476Y-114907200D02*
X69053333Y-114954819D01*
X69053333Y-114954819D02*
X69148571Y-114954819D01*
X69148571Y-114954819D02*
X69291428Y-114907200D01*
X69291428Y-114907200D02*
X69386666Y-114811961D01*
X69386666Y-114811961D02*
X69434285Y-114716723D01*
X69434285Y-114716723D02*
X69481904Y-114526247D01*
X69481904Y-114526247D02*
X69481904Y-114383390D01*
X69481904Y-114383390D02*
X69434285Y-114192914D01*
X69434285Y-114192914D02*
X69386666Y-114097676D01*
X69386666Y-114097676D02*
X69291428Y-114002438D01*
X69291428Y-114002438D02*
X69148571Y-113954819D01*
X69148571Y-113954819D02*
X69053333Y-113954819D01*
X69053333Y-113954819D02*
X68910476Y-114002438D01*
X68910476Y-114002438D02*
X68862857Y-114050057D01*
X67910476Y-114954819D02*
X68481904Y-114954819D01*
X68196190Y-114954819D02*
X68196190Y-113954819D01*
X68196190Y-113954819D02*
X68291428Y-114097676D01*
X68291428Y-114097676D02*
X68386666Y-114192914D01*
X68386666Y-114192914D02*
X68481904Y-114240533D01*
X67529523Y-114050057D02*
X67481904Y-114002438D01*
X67481904Y-114002438D02*
X67386666Y-113954819D01*
X67386666Y-113954819D02*
X67148571Y-113954819D01*
X67148571Y-113954819D02*
X67053333Y-114002438D01*
X67053333Y-114002438D02*
X67005714Y-114050057D01*
X67005714Y-114050057D02*
X66958095Y-114145295D01*
X66958095Y-114145295D02*
X66958095Y-114240533D01*
X66958095Y-114240533D02*
X67005714Y-114383390D01*
X67005714Y-114383390D02*
X67577142Y-114954819D01*
X67577142Y-114954819D02*
X66958095Y-114954819D01*
X76081665Y-115529821D02*
X76414998Y-115053630D01*
X76653093Y-115529821D02*
X76653093Y-114529821D01*
X76653093Y-114529821D02*
X76272141Y-114529821D01*
X76272141Y-114529821D02*
X76176903Y-114577440D01*
X76176903Y-114577440D02*
X76129284Y-114625059D01*
X76129284Y-114625059D02*
X76081665Y-114720297D01*
X76081665Y-114720297D02*
X76081665Y-114863154D01*
X76081665Y-114863154D02*
X76129284Y-114958392D01*
X76129284Y-114958392D02*
X76176903Y-115006011D01*
X76176903Y-115006011D02*
X76272141Y-115053630D01*
X76272141Y-115053630D02*
X76653093Y-115053630D01*
X75605474Y-115529821D02*
X75414998Y-115529821D01*
X75414998Y-115529821D02*
X75319760Y-115482202D01*
X75319760Y-115482202D02*
X75272141Y-115434582D01*
X75272141Y-115434582D02*
X75176903Y-115291725D01*
X75176903Y-115291725D02*
X75129284Y-115101249D01*
X75129284Y-115101249D02*
X75129284Y-114720297D01*
X75129284Y-114720297D02*
X75176903Y-114625059D01*
X75176903Y-114625059D02*
X75224522Y-114577440D01*
X75224522Y-114577440D02*
X75319760Y-114529821D01*
X75319760Y-114529821D02*
X75510236Y-114529821D01*
X75510236Y-114529821D02*
X75605474Y-114577440D01*
X75605474Y-114577440D02*
X75653093Y-114625059D01*
X75653093Y-114625059D02*
X75700712Y-114720297D01*
X75700712Y-114720297D02*
X75700712Y-114958392D01*
X75700712Y-114958392D02*
X75653093Y-115053630D01*
X75653093Y-115053630D02*
X75605474Y-115101249D01*
X75605474Y-115101249D02*
X75510236Y-115148868D01*
X75510236Y-115148868D02*
X75319760Y-115148868D01*
X75319760Y-115148868D02*
X75224522Y-115101249D01*
X75224522Y-115101249D02*
X75176903Y-115053630D01*
X75176903Y-115053630D02*
X75129284Y-114958392D01*
X52666666Y-79609580D02*
X52714285Y-79657200D01*
X52714285Y-79657200D02*
X52857142Y-79704819D01*
X52857142Y-79704819D02*
X52952380Y-79704819D01*
X52952380Y-79704819D02*
X53095237Y-79657200D01*
X53095237Y-79657200D02*
X53190475Y-79561961D01*
X53190475Y-79561961D02*
X53238094Y-79466723D01*
X53238094Y-79466723D02*
X53285713Y-79276247D01*
X53285713Y-79276247D02*
X53285713Y-79133390D01*
X53285713Y-79133390D02*
X53238094Y-78942914D01*
X53238094Y-78942914D02*
X53190475Y-78847676D01*
X53190475Y-78847676D02*
X53095237Y-78752438D01*
X53095237Y-78752438D02*
X52952380Y-78704819D01*
X52952380Y-78704819D02*
X52857142Y-78704819D01*
X52857142Y-78704819D02*
X52714285Y-78752438D01*
X52714285Y-78752438D02*
X52666666Y-78800057D01*
X52333332Y-78704819D02*
X51714285Y-78704819D01*
X51714285Y-78704819D02*
X52047618Y-79085771D01*
X52047618Y-79085771D02*
X51904761Y-79085771D01*
X51904761Y-79085771D02*
X51809523Y-79133390D01*
X51809523Y-79133390D02*
X51761904Y-79181009D01*
X51761904Y-79181009D02*
X51714285Y-79276247D01*
X51714285Y-79276247D02*
X51714285Y-79514342D01*
X51714285Y-79514342D02*
X51761904Y-79609580D01*
X51761904Y-79609580D02*
X51809523Y-79657200D01*
X51809523Y-79657200D02*
X51904761Y-79704819D01*
X51904761Y-79704819D02*
X52190475Y-79704819D01*
X52190475Y-79704819D02*
X52285713Y-79657200D01*
X52285713Y-79657200D02*
X52333332Y-79609580D01*
X48191666Y-71634580D02*
X48239285Y-71682200D01*
X48239285Y-71682200D02*
X48382142Y-71729819D01*
X48382142Y-71729819D02*
X48477380Y-71729819D01*
X48477380Y-71729819D02*
X48620237Y-71682200D01*
X48620237Y-71682200D02*
X48715475Y-71586961D01*
X48715475Y-71586961D02*
X48763094Y-71491723D01*
X48763094Y-71491723D02*
X48810713Y-71301247D01*
X48810713Y-71301247D02*
X48810713Y-71158390D01*
X48810713Y-71158390D02*
X48763094Y-70967914D01*
X48763094Y-70967914D02*
X48715475Y-70872676D01*
X48715475Y-70872676D02*
X48620237Y-70777438D01*
X48620237Y-70777438D02*
X48477380Y-70729819D01*
X48477380Y-70729819D02*
X48382142Y-70729819D01*
X48382142Y-70729819D02*
X48239285Y-70777438D01*
X48239285Y-70777438D02*
X48191666Y-70825057D01*
X47620237Y-71158390D02*
X47715475Y-71110771D01*
X47715475Y-71110771D02*
X47763094Y-71063152D01*
X47763094Y-71063152D02*
X47810713Y-70967914D01*
X47810713Y-70967914D02*
X47810713Y-70920295D01*
X47810713Y-70920295D02*
X47763094Y-70825057D01*
X47763094Y-70825057D02*
X47715475Y-70777438D01*
X47715475Y-70777438D02*
X47620237Y-70729819D01*
X47620237Y-70729819D02*
X47429761Y-70729819D01*
X47429761Y-70729819D02*
X47334523Y-70777438D01*
X47334523Y-70777438D02*
X47286904Y-70825057D01*
X47286904Y-70825057D02*
X47239285Y-70920295D01*
X47239285Y-70920295D02*
X47239285Y-70967914D01*
X47239285Y-70967914D02*
X47286904Y-71063152D01*
X47286904Y-71063152D02*
X47334523Y-71110771D01*
X47334523Y-71110771D02*
X47429761Y-71158390D01*
X47429761Y-71158390D02*
X47620237Y-71158390D01*
X47620237Y-71158390D02*
X47715475Y-71206009D01*
X47715475Y-71206009D02*
X47763094Y-71253628D01*
X47763094Y-71253628D02*
X47810713Y-71348866D01*
X47810713Y-71348866D02*
X47810713Y-71539342D01*
X47810713Y-71539342D02*
X47763094Y-71634580D01*
X47763094Y-71634580D02*
X47715475Y-71682200D01*
X47715475Y-71682200D02*
X47620237Y-71729819D01*
X47620237Y-71729819D02*
X47429761Y-71729819D01*
X47429761Y-71729819D02*
X47334523Y-71682200D01*
X47334523Y-71682200D02*
X47286904Y-71634580D01*
X47286904Y-71634580D02*
X47239285Y-71539342D01*
X47239285Y-71539342D02*
X47239285Y-71348866D01*
X47239285Y-71348866D02*
X47286904Y-71253628D01*
X47286904Y-71253628D02*
X47334523Y-71206009D01*
X47334523Y-71206009D02*
X47429761Y-71158390D01*
X48916666Y-73859580D02*
X48964285Y-73907200D01*
X48964285Y-73907200D02*
X49107142Y-73954819D01*
X49107142Y-73954819D02*
X49202380Y-73954819D01*
X49202380Y-73954819D02*
X49345237Y-73907200D01*
X49345237Y-73907200D02*
X49440475Y-73811961D01*
X49440475Y-73811961D02*
X49488094Y-73716723D01*
X49488094Y-73716723D02*
X49535713Y-73526247D01*
X49535713Y-73526247D02*
X49535713Y-73383390D01*
X49535713Y-73383390D02*
X49488094Y-73192914D01*
X49488094Y-73192914D02*
X49440475Y-73097676D01*
X49440475Y-73097676D02*
X49345237Y-73002438D01*
X49345237Y-73002438D02*
X49202380Y-72954819D01*
X49202380Y-72954819D02*
X49107142Y-72954819D01*
X49107142Y-72954819D02*
X48964285Y-73002438D01*
X48964285Y-73002438D02*
X48916666Y-73050057D01*
X48059523Y-72954819D02*
X48249999Y-72954819D01*
X48249999Y-72954819D02*
X48345237Y-73002438D01*
X48345237Y-73002438D02*
X48392856Y-73050057D01*
X48392856Y-73050057D02*
X48488094Y-73192914D01*
X48488094Y-73192914D02*
X48535713Y-73383390D01*
X48535713Y-73383390D02*
X48535713Y-73764342D01*
X48535713Y-73764342D02*
X48488094Y-73859580D01*
X48488094Y-73859580D02*
X48440475Y-73907200D01*
X48440475Y-73907200D02*
X48345237Y-73954819D01*
X48345237Y-73954819D02*
X48154761Y-73954819D01*
X48154761Y-73954819D02*
X48059523Y-73907200D01*
X48059523Y-73907200D02*
X48011904Y-73859580D01*
X48011904Y-73859580D02*
X47964285Y-73764342D01*
X47964285Y-73764342D02*
X47964285Y-73526247D01*
X47964285Y-73526247D02*
X48011904Y-73431009D01*
X48011904Y-73431009D02*
X48059523Y-73383390D01*
X48059523Y-73383390D02*
X48154761Y-73335771D01*
X48154761Y-73335771D02*
X48345237Y-73335771D01*
X48345237Y-73335771D02*
X48440475Y-73383390D01*
X48440475Y-73383390D02*
X48488094Y-73431009D01*
X48488094Y-73431009D02*
X48535713Y-73526247D01*
X64359580Y-123607142D02*
X64407200Y-123559523D01*
X64407200Y-123559523D02*
X64454819Y-123416666D01*
X64454819Y-123416666D02*
X64454819Y-123321428D01*
X64454819Y-123321428D02*
X64407200Y-123178571D01*
X64407200Y-123178571D02*
X64311961Y-123083333D01*
X64311961Y-123083333D02*
X64216723Y-123035714D01*
X64216723Y-123035714D02*
X64026247Y-122988095D01*
X64026247Y-122988095D02*
X63883390Y-122988095D01*
X63883390Y-122988095D02*
X63692914Y-123035714D01*
X63692914Y-123035714D02*
X63597676Y-123083333D01*
X63597676Y-123083333D02*
X63502438Y-123178571D01*
X63502438Y-123178571D02*
X63454819Y-123321428D01*
X63454819Y-123321428D02*
X63454819Y-123416666D01*
X63454819Y-123416666D02*
X63502438Y-123559523D01*
X63502438Y-123559523D02*
X63550057Y-123607142D01*
X63550057Y-123988095D02*
X63502438Y-124035714D01*
X63502438Y-124035714D02*
X63454819Y-124130952D01*
X63454819Y-124130952D02*
X63454819Y-124369047D01*
X63454819Y-124369047D02*
X63502438Y-124464285D01*
X63502438Y-124464285D02*
X63550057Y-124511904D01*
X63550057Y-124511904D02*
X63645295Y-124559523D01*
X63645295Y-124559523D02*
X63740533Y-124559523D01*
X63740533Y-124559523D02*
X63883390Y-124511904D01*
X63883390Y-124511904D02*
X64454819Y-123940476D01*
X64454819Y-123940476D02*
X64454819Y-124559523D01*
X64454819Y-125511904D02*
X64454819Y-124940476D01*
X64454819Y-125226190D02*
X63454819Y-125226190D01*
X63454819Y-125226190D02*
X63597676Y-125130952D01*
X63597676Y-125130952D02*
X63692914Y-125035714D01*
X63692914Y-125035714D02*
X63740533Y-124940476D01*
X52416666Y-109804819D02*
X52749999Y-109328628D01*
X52988094Y-109804819D02*
X52988094Y-108804819D01*
X52988094Y-108804819D02*
X52607142Y-108804819D01*
X52607142Y-108804819D02*
X52511904Y-108852438D01*
X52511904Y-108852438D02*
X52464285Y-108900057D01*
X52464285Y-108900057D02*
X52416666Y-108995295D01*
X52416666Y-108995295D02*
X52416666Y-109138152D01*
X52416666Y-109138152D02*
X52464285Y-109233390D01*
X52464285Y-109233390D02*
X52511904Y-109281009D01*
X52511904Y-109281009D02*
X52607142Y-109328628D01*
X52607142Y-109328628D02*
X52988094Y-109328628D01*
X51464285Y-109804819D02*
X52035713Y-109804819D01*
X51749999Y-109804819D02*
X51749999Y-108804819D01*
X51749999Y-108804819D02*
X51845237Y-108947676D01*
X51845237Y-108947676D02*
X51940475Y-109042914D01*
X51940475Y-109042914D02*
X52035713Y-109090533D01*
X51441666Y-70884580D02*
X51489285Y-70932200D01*
X51489285Y-70932200D02*
X51632142Y-70979819D01*
X51632142Y-70979819D02*
X51727380Y-70979819D01*
X51727380Y-70979819D02*
X51870237Y-70932200D01*
X51870237Y-70932200D02*
X51965475Y-70836961D01*
X51965475Y-70836961D02*
X52013094Y-70741723D01*
X52013094Y-70741723D02*
X52060713Y-70551247D01*
X52060713Y-70551247D02*
X52060713Y-70408390D01*
X52060713Y-70408390D02*
X52013094Y-70217914D01*
X52013094Y-70217914D02*
X51965475Y-70122676D01*
X51965475Y-70122676D02*
X51870237Y-70027438D01*
X51870237Y-70027438D02*
X51727380Y-69979819D01*
X51727380Y-69979819D02*
X51632142Y-69979819D01*
X51632142Y-69979819D02*
X51489285Y-70027438D01*
X51489285Y-70027438D02*
X51441666Y-70075057D01*
X51108332Y-69979819D02*
X50441666Y-69979819D01*
X50441666Y-69979819D02*
X50870237Y-70979819D01*
X53916666Y-108304819D02*
X54249999Y-107828628D01*
X54488094Y-108304819D02*
X54488094Y-107304819D01*
X54488094Y-107304819D02*
X54107142Y-107304819D01*
X54107142Y-107304819D02*
X54011904Y-107352438D01*
X54011904Y-107352438D02*
X53964285Y-107400057D01*
X53964285Y-107400057D02*
X53916666Y-107495295D01*
X53916666Y-107495295D02*
X53916666Y-107638152D01*
X53916666Y-107638152D02*
X53964285Y-107733390D01*
X53964285Y-107733390D02*
X54011904Y-107781009D01*
X54011904Y-107781009D02*
X54107142Y-107828628D01*
X54107142Y-107828628D02*
X54488094Y-107828628D01*
X53535713Y-107400057D02*
X53488094Y-107352438D01*
X53488094Y-107352438D02*
X53392856Y-107304819D01*
X53392856Y-107304819D02*
X53154761Y-107304819D01*
X53154761Y-107304819D02*
X53059523Y-107352438D01*
X53059523Y-107352438D02*
X53011904Y-107400057D01*
X53011904Y-107400057D02*
X52964285Y-107495295D01*
X52964285Y-107495295D02*
X52964285Y-107590533D01*
X52964285Y-107590533D02*
X53011904Y-107733390D01*
X53011904Y-107733390D02*
X53583332Y-108304819D01*
X53583332Y-108304819D02*
X52964285Y-108304819D01*
X52416666Y-113019818D02*
X52749999Y-112543627D01*
X52988094Y-113019818D02*
X52988094Y-112019818D01*
X52988094Y-112019818D02*
X52607142Y-112019818D01*
X52607142Y-112019818D02*
X52511904Y-112067437D01*
X52511904Y-112067437D02*
X52464285Y-112115056D01*
X52464285Y-112115056D02*
X52416666Y-112210294D01*
X52416666Y-112210294D02*
X52416666Y-112353151D01*
X52416666Y-112353151D02*
X52464285Y-112448389D01*
X52464285Y-112448389D02*
X52511904Y-112496008D01*
X52511904Y-112496008D02*
X52607142Y-112543627D01*
X52607142Y-112543627D02*
X52988094Y-112543627D01*
X51559523Y-112353151D02*
X51559523Y-113019818D01*
X51797618Y-111972199D02*
X52035713Y-112686484D01*
X52035713Y-112686484D02*
X51416666Y-112686484D01*
X51941666Y-74609580D02*
X51989285Y-74657200D01*
X51989285Y-74657200D02*
X52132142Y-74704819D01*
X52132142Y-74704819D02*
X52227380Y-74704819D01*
X52227380Y-74704819D02*
X52370237Y-74657200D01*
X52370237Y-74657200D02*
X52465475Y-74561961D01*
X52465475Y-74561961D02*
X52513094Y-74466723D01*
X52513094Y-74466723D02*
X52560713Y-74276247D01*
X52560713Y-74276247D02*
X52560713Y-74133390D01*
X52560713Y-74133390D02*
X52513094Y-73942914D01*
X52513094Y-73942914D02*
X52465475Y-73847676D01*
X52465475Y-73847676D02*
X52370237Y-73752438D01*
X52370237Y-73752438D02*
X52227380Y-73704819D01*
X52227380Y-73704819D02*
X52132142Y-73704819D01*
X52132142Y-73704819D02*
X51989285Y-73752438D01*
X51989285Y-73752438D02*
X51941666Y-73800057D01*
X51036904Y-73704819D02*
X51513094Y-73704819D01*
X51513094Y-73704819D02*
X51560713Y-74181009D01*
X51560713Y-74181009D02*
X51513094Y-74133390D01*
X51513094Y-74133390D02*
X51417856Y-74085771D01*
X51417856Y-74085771D02*
X51179761Y-74085771D01*
X51179761Y-74085771D02*
X51084523Y-74133390D01*
X51084523Y-74133390D02*
X51036904Y-74181009D01*
X51036904Y-74181009D02*
X50989285Y-74276247D01*
X50989285Y-74276247D02*
X50989285Y-74514342D01*
X50989285Y-74514342D02*
X51036904Y-74609580D01*
X51036904Y-74609580D02*
X51084523Y-74657200D01*
X51084523Y-74657200D02*
X51179761Y-74704819D01*
X51179761Y-74704819D02*
X51417856Y-74704819D01*
X51417856Y-74704819D02*
X51513094Y-74657200D01*
X51513094Y-74657200D02*
X51560713Y-74609580D01*
X72612857Y-110109580D02*
X72660476Y-110157200D01*
X72660476Y-110157200D02*
X72803333Y-110204819D01*
X72803333Y-110204819D02*
X72898571Y-110204819D01*
X72898571Y-110204819D02*
X73041428Y-110157200D01*
X73041428Y-110157200D02*
X73136666Y-110061961D01*
X73136666Y-110061961D02*
X73184285Y-109966723D01*
X73184285Y-109966723D02*
X73231904Y-109776247D01*
X73231904Y-109776247D02*
X73231904Y-109633390D01*
X73231904Y-109633390D02*
X73184285Y-109442914D01*
X73184285Y-109442914D02*
X73136666Y-109347676D01*
X73136666Y-109347676D02*
X73041428Y-109252438D01*
X73041428Y-109252438D02*
X72898571Y-109204819D01*
X72898571Y-109204819D02*
X72803333Y-109204819D01*
X72803333Y-109204819D02*
X72660476Y-109252438D01*
X72660476Y-109252438D02*
X72612857Y-109300057D01*
X71660476Y-110204819D02*
X72231904Y-110204819D01*
X71946190Y-110204819D02*
X71946190Y-109204819D01*
X71946190Y-109204819D02*
X72041428Y-109347676D01*
X72041428Y-109347676D02*
X72136666Y-109442914D01*
X72136666Y-109442914D02*
X72231904Y-109490533D01*
X70803333Y-109538152D02*
X70803333Y-110204819D01*
X71041428Y-109157200D02*
X71279523Y-109871485D01*
X71279523Y-109871485D02*
X70660476Y-109871485D01*
X52416666Y-111519818D02*
X52749999Y-111043627D01*
X52988094Y-111519818D02*
X52988094Y-110519818D01*
X52988094Y-110519818D02*
X52607142Y-110519818D01*
X52607142Y-110519818D02*
X52511904Y-110567437D01*
X52511904Y-110567437D02*
X52464285Y-110615056D01*
X52464285Y-110615056D02*
X52416666Y-110710294D01*
X52416666Y-110710294D02*
X52416666Y-110853151D01*
X52416666Y-110853151D02*
X52464285Y-110948389D01*
X52464285Y-110948389D02*
X52511904Y-110996008D01*
X52511904Y-110996008D02*
X52607142Y-111043627D01*
X52607142Y-111043627D02*
X52988094Y-111043627D01*
X52083332Y-110519818D02*
X51464285Y-110519818D01*
X51464285Y-110519818D02*
X51797618Y-110900770D01*
X51797618Y-110900770D02*
X51654761Y-110900770D01*
X51654761Y-110900770D02*
X51559523Y-110948389D01*
X51559523Y-110948389D02*
X51511904Y-110996008D01*
X51511904Y-110996008D02*
X51464285Y-111091246D01*
X51464285Y-111091246D02*
X51464285Y-111329341D01*
X51464285Y-111329341D02*
X51511904Y-111424579D01*
X51511904Y-111424579D02*
X51559523Y-111472199D01*
X51559523Y-111472199D02*
X51654761Y-111519818D01*
X51654761Y-111519818D02*
X51940475Y-111519818D01*
X51940475Y-111519818D02*
X52035713Y-111472199D01*
X52035713Y-111472199D02*
X52083332Y-111424579D01*
D12*
%TO.C,R7*%
X76207258Y-111227500D02*
X75732742Y-111227500D01*
X76207258Y-112272500D02*
X75732742Y-112272500D01*
%TO.C,C11*%
X55300085Y-111030579D02*
X55300085Y-110749419D01*
X56320085Y-111030579D02*
X56320085Y-110749419D01*
%TO.C,C13*%
X65960000Y-109609420D02*
X65960000Y-109890580D01*
X66980000Y-109609420D02*
X66980000Y-109890580D01*
%TO.C,C1*%
X47610000Y-82538748D02*
X47610000Y-83961252D01*
X49430000Y-82538748D02*
X49430000Y-83961252D01*
%TO.C,C2*%
X50130000Y-82538748D02*
X50130000Y-83961252D01*
X51950000Y-82538748D02*
X51950000Y-83961252D01*
%TO.C,C4*%
X48240000Y-79390580D02*
X48240000Y-79109420D01*
X49260000Y-79390580D02*
X49260000Y-79109420D01*
%TO.C,C22*%
X59990000Y-124390580D02*
X59990000Y-124109420D01*
X61010000Y-124390580D02*
X61010000Y-124109420D01*
%TO.C,C12*%
X67710000Y-112014420D02*
X67710000Y-112295580D01*
X68730000Y-112014420D02*
X68730000Y-112295580D01*
%TO.C,R9*%
X75732742Y-112977500D02*
X76207258Y-112977500D01*
X75732742Y-114022500D02*
X76207258Y-114022500D01*
%TO.C,C3*%
X50240000Y-79390580D02*
X50240000Y-79109420D01*
X51260000Y-79390580D02*
X51260000Y-79109420D01*
%TO.C,C8*%
X47490000Y-69140580D02*
X47490000Y-68859420D01*
X48510000Y-69140580D02*
X48510000Y-68859420D01*
%TO.C,C6*%
X48143250Y-75514420D02*
X48143250Y-75795580D01*
X49163250Y-75514420D02*
X49163250Y-75795580D01*
%TO.C,C21*%
X61990000Y-124390580D02*
X61990000Y-124109420D01*
X63010000Y-124390580D02*
X63010000Y-124109420D01*
%TO.C,R1*%
X49357742Y-108827500D02*
X49832258Y-108827500D01*
X49357742Y-109872500D02*
X49832258Y-109872500D01*
%TO.C,C7*%
X50563748Y-67615000D02*
X51986252Y-67615000D01*
X50563748Y-69435000D02*
X51986252Y-69435000D01*
%TO.C,R2*%
X51012742Y-107327500D02*
X51487258Y-107327500D01*
X51012742Y-108372500D02*
X51487258Y-108372500D01*
%TO.C,R4*%
X49832258Y-112077500D02*
X49357742Y-112077500D01*
X49832258Y-113122500D02*
X49357742Y-113122500D01*
%TO.C,C5*%
X51063748Y-75090000D02*
X52486252Y-75090000D01*
X51063748Y-76910000D02*
X52486252Y-76910000D01*
%TO.C,C14*%
X68954419Y-109240000D02*
X69235579Y-109240000D01*
X68954419Y-110260000D02*
X69235579Y-110260000D01*
%TO.C,R3*%
X49357742Y-110577500D02*
X49832258Y-110577500D01*
X49357742Y-111622500D02*
X49832258Y-111622500D01*
%TD*%
M02*
