%TF.GenerationSoftware,KiCad,Pcbnew,9.0.6*%
%TF.CreationDate,2026-03-23T19:00:04-04:00*%
%TF.ProjectId,TX,54582e6b-6963-4616-945f-706362585858,rev?*%
%TF.SameCoordinates,Original*%
%TF.FileFunction,Legend,Top*%
%TF.FilePolarity,Positive*%
%FSLAX46Y46*%
G04 Gerber Fmt 4.6, Leading zero omitted, Abs format (unit mm)*
G04 Created by KiCad (PCBNEW 9.0.6) date 2026-03-23 19:00:04*
%MOMM*%
%LPD*%
G01*
G04 APERTURE LIST*
%ADD10C,0.200000*%
%ADD11C,0.150000*%
%ADD12C,0.120000*%
%ADD13C,0.152400*%
G04 APERTURE END LIST*
D10*
X47912292Y-72564838D02*
X47817054Y-72517219D01*
X47817054Y-72517219D02*
X47674197Y-72517219D01*
X47674197Y-72517219D02*
X47531340Y-72564838D01*
X47531340Y-72564838D02*
X47436102Y-72660076D01*
X47436102Y-72660076D02*
X47388483Y-72755314D01*
X47388483Y-72755314D02*
X47340864Y-72945790D01*
X47340864Y-72945790D02*
X47340864Y-73088647D01*
X47340864Y-73088647D02*
X47388483Y-73279123D01*
X47388483Y-73279123D02*
X47436102Y-73374361D01*
X47436102Y-73374361D02*
X47531340Y-73469600D01*
X47531340Y-73469600D02*
X47674197Y-73517219D01*
X47674197Y-73517219D02*
X47769435Y-73517219D01*
X47769435Y-73517219D02*
X47912292Y-73469600D01*
X47912292Y-73469600D02*
X47959911Y-73421980D01*
X47959911Y-73421980D02*
X47959911Y-73088647D01*
X47959911Y-73088647D02*
X47769435Y-73088647D01*
X48388483Y-73517219D02*
X48388483Y-72517219D01*
X48388483Y-72517219D02*
X48959911Y-73517219D01*
X48959911Y-73517219D02*
X48959911Y-72517219D01*
X49436102Y-73517219D02*
X49436102Y-72517219D01*
X49436102Y-72517219D02*
X49674197Y-72517219D01*
X49674197Y-72517219D02*
X49817054Y-72564838D01*
X49817054Y-72564838D02*
X49912292Y-72660076D01*
X49912292Y-72660076D02*
X49959911Y-72755314D01*
X49959911Y-72755314D02*
X50007530Y-72945790D01*
X50007530Y-72945790D02*
X50007530Y-73088647D01*
X50007530Y-73088647D02*
X49959911Y-73279123D01*
X49959911Y-73279123D02*
X49912292Y-73374361D01*
X49912292Y-73374361D02*
X49817054Y-73469600D01*
X49817054Y-73469600D02*
X49674197Y-73517219D01*
X49674197Y-73517219D02*
X49436102Y-73517219D01*
D11*
X47774580Y-113665601D02*
X47822200Y-113694173D01*
X47822200Y-113694173D02*
X47869819Y-113779887D01*
X47869819Y-113779887D02*
X47869819Y-113837030D01*
X47869819Y-113837030D02*
X47822200Y-113922744D01*
X47822200Y-113922744D02*
X47726961Y-113979887D01*
X47726961Y-113979887D02*
X47631723Y-114008458D01*
X47631723Y-114008458D02*
X47441247Y-114037030D01*
X47441247Y-114037030D02*
X47298390Y-114037030D01*
X47298390Y-114037030D02*
X47107914Y-114008458D01*
X47107914Y-114008458D02*
X47012676Y-113979887D01*
X47012676Y-113979887D02*
X46917438Y-113922744D01*
X46917438Y-113922744D02*
X46869819Y-113837030D01*
X46869819Y-113837030D02*
X46869819Y-113779887D01*
X46869819Y-113779887D02*
X46917438Y-113694173D01*
X46917438Y-113694173D02*
X46965057Y-113665601D01*
X46869819Y-113408458D02*
X47679342Y-113408458D01*
X47679342Y-113408458D02*
X47774580Y-113379887D01*
X47774580Y-113379887D02*
X47822200Y-113351316D01*
X47822200Y-113351316D02*
X47869819Y-113294173D01*
X47869819Y-113294173D02*
X47869819Y-113179887D01*
X47869819Y-113179887D02*
X47822200Y-113122744D01*
X47822200Y-113122744D02*
X47774580Y-113094173D01*
X47774580Y-113094173D02*
X47679342Y-113065601D01*
X47679342Y-113065601D02*
X46869819Y-113065601D01*
X47869819Y-112437030D02*
X47393628Y-112637030D01*
X47869819Y-112779887D02*
X46869819Y-112779887D01*
X46869819Y-112779887D02*
X46869819Y-112551316D01*
X46869819Y-112551316D02*
X46917438Y-112494173D01*
X46917438Y-112494173D02*
X46965057Y-112465602D01*
X46965057Y-112465602D02*
X47060295Y-112437030D01*
X47060295Y-112437030D02*
X47203152Y-112437030D01*
X47203152Y-112437030D02*
X47298390Y-112465602D01*
X47298390Y-112465602D02*
X47346009Y-112494173D01*
X47346009Y-112494173D02*
X47393628Y-112551316D01*
X47393628Y-112551316D02*
X47393628Y-112779887D01*
X47869819Y-111837030D02*
X47393628Y-112037030D01*
X47869819Y-112179887D02*
X46869819Y-112179887D01*
X46869819Y-112179887D02*
X46869819Y-111951316D01*
X46869819Y-111951316D02*
X46917438Y-111894173D01*
X46917438Y-111894173D02*
X46965057Y-111865602D01*
X46965057Y-111865602D02*
X47060295Y-111837030D01*
X47060295Y-111837030D02*
X47203152Y-111837030D01*
X47203152Y-111837030D02*
X47298390Y-111865602D01*
X47298390Y-111865602D02*
X47346009Y-111894173D01*
X47346009Y-111894173D02*
X47393628Y-111951316D01*
X47393628Y-111951316D02*
X47393628Y-112179887D01*
X47346009Y-111579887D02*
X47346009Y-111379887D01*
X47869819Y-111294173D02*
X47869819Y-111579887D01*
X47869819Y-111579887D02*
X46869819Y-111579887D01*
X46869819Y-111579887D02*
X46869819Y-111294173D01*
X47869819Y-111037030D02*
X46869819Y-111037030D01*
X46869819Y-111037030D02*
X47869819Y-110694173D01*
X47869819Y-110694173D02*
X46869819Y-110694173D01*
X46869819Y-110494174D02*
X46869819Y-110151317D01*
X47869819Y-110322745D02*
X46869819Y-110322745D01*
D10*
X76035088Y-129367219D02*
X75558898Y-129367219D01*
X75558898Y-129367219D02*
X75558898Y-128367219D01*
X76368422Y-129367219D02*
X76368422Y-128367219D01*
X76606517Y-129462457D02*
X77368421Y-129462457D01*
X77939850Y-128843409D02*
X78082707Y-128891028D01*
X78082707Y-128891028D02*
X78130326Y-128938647D01*
X78130326Y-128938647D02*
X78177945Y-129033885D01*
X78177945Y-129033885D02*
X78177945Y-129176742D01*
X78177945Y-129176742D02*
X78130326Y-129271980D01*
X78130326Y-129271980D02*
X78082707Y-129319600D01*
X78082707Y-129319600D02*
X77987469Y-129367219D01*
X77987469Y-129367219D02*
X77606517Y-129367219D01*
X77606517Y-129367219D02*
X77606517Y-128367219D01*
X77606517Y-128367219D02*
X77939850Y-128367219D01*
X77939850Y-128367219D02*
X78035088Y-128414838D01*
X78035088Y-128414838D02*
X78082707Y-128462457D01*
X78082707Y-128462457D02*
X78130326Y-128557695D01*
X78130326Y-128557695D02*
X78130326Y-128652933D01*
X78130326Y-128652933D02*
X78082707Y-128748171D01*
X78082707Y-128748171D02*
X78035088Y-128795790D01*
X78035088Y-128795790D02*
X77939850Y-128843409D01*
X77939850Y-128843409D02*
X77606517Y-128843409D01*
X47369673Y-126867219D02*
X47369673Y-125867219D01*
X47369673Y-126343409D02*
X47941101Y-126343409D01*
X47941101Y-126867219D02*
X47941101Y-125867219D01*
X48417292Y-126867219D02*
X48417292Y-125867219D01*
X75320803Y-126867219D02*
X75320803Y-125867219D01*
X75320803Y-126343409D02*
X75892231Y-126343409D01*
X75892231Y-126867219D02*
X75892231Y-125867219D01*
X76368422Y-126867219D02*
X76368422Y-125867219D01*
X76606517Y-126962457D02*
X77368421Y-126962457D01*
X77939850Y-126343409D02*
X78082707Y-126391028D01*
X78082707Y-126391028D02*
X78130326Y-126438647D01*
X78130326Y-126438647D02*
X78177945Y-126533885D01*
X78177945Y-126533885D02*
X78177945Y-126676742D01*
X78177945Y-126676742D02*
X78130326Y-126771980D01*
X78130326Y-126771980D02*
X78082707Y-126819600D01*
X78082707Y-126819600D02*
X77987469Y-126867219D01*
X77987469Y-126867219D02*
X77606517Y-126867219D01*
X77606517Y-126867219D02*
X77606517Y-125867219D01*
X77606517Y-125867219D02*
X77939850Y-125867219D01*
X77939850Y-125867219D02*
X78035088Y-125914838D01*
X78035088Y-125914838D02*
X78082707Y-125962457D01*
X78082707Y-125962457D02*
X78130326Y-126057695D01*
X78130326Y-126057695D02*
X78130326Y-126152933D01*
X78130326Y-126152933D02*
X78082707Y-126248171D01*
X78082707Y-126248171D02*
X78035088Y-126295790D01*
X78035088Y-126295790D02*
X77939850Y-126343409D01*
X77939850Y-126343409D02*
X77606517Y-126343409D01*
X47293245Y-70017219D02*
X47912292Y-70017219D01*
X47912292Y-70017219D02*
X47578959Y-70398171D01*
X47578959Y-70398171D02*
X47721816Y-70398171D01*
X47721816Y-70398171D02*
X47817054Y-70445790D01*
X47817054Y-70445790D02*
X47864673Y-70493409D01*
X47864673Y-70493409D02*
X47912292Y-70588647D01*
X47912292Y-70588647D02*
X47912292Y-70826742D01*
X47912292Y-70826742D02*
X47864673Y-70921980D01*
X47864673Y-70921980D02*
X47817054Y-70969600D01*
X47817054Y-70969600D02*
X47721816Y-71017219D01*
X47721816Y-71017219D02*
X47436102Y-71017219D01*
X47436102Y-71017219D02*
X47340864Y-70969600D01*
X47340864Y-70969600D02*
X47293245Y-70921980D01*
X48340864Y-70921980D02*
X48388483Y-70969600D01*
X48388483Y-70969600D02*
X48340864Y-71017219D01*
X48340864Y-71017219D02*
X48293245Y-70969600D01*
X48293245Y-70969600D02*
X48340864Y-70921980D01*
X48340864Y-70921980D02*
X48340864Y-71017219D01*
X48721816Y-70017219D02*
X49340863Y-70017219D01*
X49340863Y-70017219D02*
X49007530Y-70398171D01*
X49007530Y-70398171D02*
X49150387Y-70398171D01*
X49150387Y-70398171D02*
X49245625Y-70445790D01*
X49245625Y-70445790D02*
X49293244Y-70493409D01*
X49293244Y-70493409D02*
X49340863Y-70588647D01*
X49340863Y-70588647D02*
X49340863Y-70826742D01*
X49340863Y-70826742D02*
X49293244Y-70921980D01*
X49293244Y-70921980D02*
X49245625Y-70969600D01*
X49245625Y-70969600D02*
X49150387Y-71017219D01*
X49150387Y-71017219D02*
X48864673Y-71017219D01*
X48864673Y-71017219D02*
X48769435Y-70969600D01*
X48769435Y-70969600D02*
X48721816Y-70921980D01*
X49626578Y-70017219D02*
X49959911Y-71017219D01*
X49959911Y-71017219D02*
X50293244Y-70017219D01*
X47684017Y-82897338D02*
X47588779Y-82849719D01*
X47588779Y-82849719D02*
X47445922Y-82849719D01*
X47445922Y-82849719D02*
X47303065Y-82897338D01*
X47303065Y-82897338D02*
X47207827Y-82992576D01*
X47207827Y-82992576D02*
X47160208Y-83087814D01*
X47160208Y-83087814D02*
X47112589Y-83278290D01*
X47112589Y-83278290D02*
X47112589Y-83421147D01*
X47112589Y-83421147D02*
X47160208Y-83611623D01*
X47160208Y-83611623D02*
X47207827Y-83706861D01*
X47207827Y-83706861D02*
X47303065Y-83802100D01*
X47303065Y-83802100D02*
X47445922Y-83849719D01*
X47445922Y-83849719D02*
X47541160Y-83849719D01*
X47541160Y-83849719D02*
X47684017Y-83802100D01*
X47684017Y-83802100D02*
X47731636Y-83754480D01*
X47731636Y-83754480D02*
X47731636Y-83421147D01*
X47731636Y-83421147D02*
X47541160Y-83421147D01*
X48160208Y-83849719D02*
X48160208Y-82849719D01*
X48160208Y-82849719D02*
X48731636Y-83849719D01*
X48731636Y-83849719D02*
X48731636Y-82849719D01*
X49207827Y-83849719D02*
X49207827Y-82849719D01*
X49207827Y-82849719D02*
X49445922Y-82849719D01*
X49445922Y-82849719D02*
X49588779Y-82897338D01*
X49588779Y-82897338D02*
X49684017Y-82992576D01*
X49684017Y-82992576D02*
X49731636Y-83087814D01*
X49731636Y-83087814D02*
X49779255Y-83278290D01*
X49779255Y-83278290D02*
X49779255Y-83421147D01*
X49779255Y-83421147D02*
X49731636Y-83611623D01*
X49731636Y-83611623D02*
X49684017Y-83706861D01*
X49684017Y-83706861D02*
X49588779Y-83802100D01*
X49588779Y-83802100D02*
X49445922Y-83849719D01*
X49445922Y-83849719D02*
X49207827Y-83849719D01*
X47845863Y-129617219D02*
X47369673Y-129617219D01*
X47369673Y-129617219D02*
X47369673Y-128617219D01*
X48179197Y-129617219D02*
X48179197Y-128617219D01*
X48417292Y-129712457D02*
X49179196Y-129712457D01*
X49369673Y-129331504D02*
X49845863Y-129331504D01*
X49274435Y-129617219D02*
X49607768Y-128617219D01*
X49607768Y-128617219D02*
X49941101Y-129617219D01*
X47684017Y-77797338D02*
X47588779Y-77749719D01*
X47588779Y-77749719D02*
X47445922Y-77749719D01*
X47445922Y-77749719D02*
X47303065Y-77797338D01*
X47303065Y-77797338D02*
X47207827Y-77892576D01*
X47207827Y-77892576D02*
X47160208Y-77987814D01*
X47160208Y-77987814D02*
X47112589Y-78178290D01*
X47112589Y-78178290D02*
X47112589Y-78321147D01*
X47112589Y-78321147D02*
X47160208Y-78511623D01*
X47160208Y-78511623D02*
X47207827Y-78606861D01*
X47207827Y-78606861D02*
X47303065Y-78702100D01*
X47303065Y-78702100D02*
X47445922Y-78749719D01*
X47445922Y-78749719D02*
X47541160Y-78749719D01*
X47541160Y-78749719D02*
X47684017Y-78702100D01*
X47684017Y-78702100D02*
X47731636Y-78654480D01*
X47731636Y-78654480D02*
X47731636Y-78321147D01*
X47731636Y-78321147D02*
X47541160Y-78321147D01*
X48160208Y-78749719D02*
X48160208Y-77749719D01*
X48160208Y-77749719D02*
X48731636Y-78749719D01*
X48731636Y-78749719D02*
X48731636Y-77749719D01*
X49207827Y-78749719D02*
X49207827Y-77749719D01*
X49207827Y-77749719D02*
X49445922Y-77749719D01*
X49445922Y-77749719D02*
X49588779Y-77797338D01*
X49588779Y-77797338D02*
X49684017Y-77892576D01*
X49684017Y-77892576D02*
X49731636Y-77987814D01*
X49731636Y-77987814D02*
X49779255Y-78178290D01*
X49779255Y-78178290D02*
X49779255Y-78321147D01*
X49779255Y-78321147D02*
X49731636Y-78511623D01*
X49731636Y-78511623D02*
X49684017Y-78606861D01*
X49684017Y-78606861D02*
X49588779Y-78702100D01*
X49588779Y-78702100D02*
X49445922Y-78749719D01*
X49445922Y-78749719D02*
X49207827Y-78749719D01*
D11*
X60627142Y-101959580D02*
X60579523Y-102007200D01*
X60579523Y-102007200D02*
X60436666Y-102054819D01*
X60436666Y-102054819D02*
X60341428Y-102054819D01*
X60341428Y-102054819D02*
X60198571Y-102007200D01*
X60198571Y-102007200D02*
X60103333Y-101911961D01*
X60103333Y-101911961D02*
X60055714Y-101816723D01*
X60055714Y-101816723D02*
X60008095Y-101626247D01*
X60008095Y-101626247D02*
X60008095Y-101483390D01*
X60008095Y-101483390D02*
X60055714Y-101292914D01*
X60055714Y-101292914D02*
X60103333Y-101197676D01*
X60103333Y-101197676D02*
X60198571Y-101102438D01*
X60198571Y-101102438D02*
X60341428Y-101054819D01*
X60341428Y-101054819D02*
X60436666Y-101054819D01*
X60436666Y-101054819D02*
X60579523Y-101102438D01*
X60579523Y-101102438D02*
X60627142Y-101150057D01*
X61579523Y-102054819D02*
X61008095Y-102054819D01*
X61293809Y-102054819D02*
X61293809Y-101054819D01*
X61293809Y-101054819D02*
X61198571Y-101197676D01*
X61198571Y-101197676D02*
X61103333Y-101292914D01*
X61103333Y-101292914D02*
X61008095Y-101340533D01*
X62484285Y-101054819D02*
X62008095Y-101054819D01*
X62008095Y-101054819D02*
X61960476Y-101531009D01*
X61960476Y-101531009D02*
X62008095Y-101483390D01*
X62008095Y-101483390D02*
X62103333Y-101435771D01*
X62103333Y-101435771D02*
X62341428Y-101435771D01*
X62341428Y-101435771D02*
X62436666Y-101483390D01*
X62436666Y-101483390D02*
X62484285Y-101531009D01*
X62484285Y-101531009D02*
X62531904Y-101626247D01*
X62531904Y-101626247D02*
X62531904Y-101864342D01*
X62531904Y-101864342D02*
X62484285Y-101959580D01*
X62484285Y-101959580D02*
X62436666Y-102007200D01*
X62436666Y-102007200D02*
X62341428Y-102054819D01*
X62341428Y-102054819D02*
X62103333Y-102054819D01*
X62103333Y-102054819D02*
X62008095Y-102007200D01*
X62008095Y-102007200D02*
X61960476Y-101959580D01*
X70083333Y-91204819D02*
X69607143Y-91204819D01*
X69607143Y-91204819D02*
X69607143Y-90204819D01*
X70369048Y-90300057D02*
X70416667Y-90252438D01*
X70416667Y-90252438D02*
X70511905Y-90204819D01*
X70511905Y-90204819D02*
X70750000Y-90204819D01*
X70750000Y-90204819D02*
X70845238Y-90252438D01*
X70845238Y-90252438D02*
X70892857Y-90300057D01*
X70892857Y-90300057D02*
X70940476Y-90395295D01*
X70940476Y-90395295D02*
X70940476Y-90490533D01*
X70940476Y-90490533D02*
X70892857Y-90633390D01*
X70892857Y-90633390D02*
X70321429Y-91204819D01*
X70321429Y-91204819D02*
X70940476Y-91204819D01*
X76833333Y-115954819D02*
X76500000Y-115478628D01*
X76261905Y-115954819D02*
X76261905Y-114954819D01*
X76261905Y-114954819D02*
X76642857Y-114954819D01*
X76642857Y-114954819D02*
X76738095Y-115002438D01*
X76738095Y-115002438D02*
X76785714Y-115050057D01*
X76785714Y-115050057D02*
X76833333Y-115145295D01*
X76833333Y-115145295D02*
X76833333Y-115288152D01*
X76833333Y-115288152D02*
X76785714Y-115383390D01*
X76785714Y-115383390D02*
X76738095Y-115431009D01*
X76738095Y-115431009D02*
X76642857Y-115478628D01*
X76642857Y-115478628D02*
X76261905Y-115478628D01*
X77404762Y-115383390D02*
X77309524Y-115335771D01*
X77309524Y-115335771D02*
X77261905Y-115288152D01*
X77261905Y-115288152D02*
X77214286Y-115192914D01*
X77214286Y-115192914D02*
X77214286Y-115145295D01*
X77214286Y-115145295D02*
X77261905Y-115050057D01*
X77261905Y-115050057D02*
X77309524Y-115002438D01*
X77309524Y-115002438D02*
X77404762Y-114954819D01*
X77404762Y-114954819D02*
X77595238Y-114954819D01*
X77595238Y-114954819D02*
X77690476Y-115002438D01*
X77690476Y-115002438D02*
X77738095Y-115050057D01*
X77738095Y-115050057D02*
X77785714Y-115145295D01*
X77785714Y-115145295D02*
X77785714Y-115192914D01*
X77785714Y-115192914D02*
X77738095Y-115288152D01*
X77738095Y-115288152D02*
X77690476Y-115335771D01*
X77690476Y-115335771D02*
X77595238Y-115383390D01*
X77595238Y-115383390D02*
X77404762Y-115383390D01*
X77404762Y-115383390D02*
X77309524Y-115431009D01*
X77309524Y-115431009D02*
X77261905Y-115478628D01*
X77261905Y-115478628D02*
X77214286Y-115573866D01*
X77214286Y-115573866D02*
X77214286Y-115764342D01*
X77214286Y-115764342D02*
X77261905Y-115859580D01*
X77261905Y-115859580D02*
X77309524Y-115907200D01*
X77309524Y-115907200D02*
X77404762Y-115954819D01*
X77404762Y-115954819D02*
X77595238Y-115954819D01*
X77595238Y-115954819D02*
X77690476Y-115907200D01*
X77690476Y-115907200D02*
X77738095Y-115859580D01*
X77738095Y-115859580D02*
X77785714Y-115764342D01*
X77785714Y-115764342D02*
X77785714Y-115573866D01*
X77785714Y-115573866D02*
X77738095Y-115478628D01*
X77738095Y-115478628D02*
X77690476Y-115431009D01*
X77690476Y-115431009D02*
X77595238Y-115383390D01*
X59932227Y-96204819D02*
X59598894Y-95728628D01*
X59360799Y-96204819D02*
X59360799Y-95204819D01*
X59360799Y-95204819D02*
X59741751Y-95204819D01*
X59741751Y-95204819D02*
X59836989Y-95252438D01*
X59836989Y-95252438D02*
X59884608Y-95300057D01*
X59884608Y-95300057D02*
X59932227Y-95395295D01*
X59932227Y-95395295D02*
X59932227Y-95538152D01*
X59932227Y-95538152D02*
X59884608Y-95633390D01*
X59884608Y-95633390D02*
X59836989Y-95681009D01*
X59836989Y-95681009D02*
X59741751Y-95728628D01*
X59741751Y-95728628D02*
X59360799Y-95728628D01*
X60884608Y-96204819D02*
X60313180Y-96204819D01*
X60598894Y-96204819D02*
X60598894Y-95204819D01*
X60598894Y-95204819D02*
X60503656Y-95347676D01*
X60503656Y-95347676D02*
X60408418Y-95442914D01*
X60408418Y-95442914D02*
X60313180Y-95490533D01*
X61741751Y-95538152D02*
X61741751Y-96204819D01*
X61503656Y-95157200D02*
X61265561Y-95871485D01*
X61265561Y-95871485D02*
X61884608Y-95871485D01*
X52318416Y-115534580D02*
X52270797Y-115582200D01*
X52270797Y-115582200D02*
X52127940Y-115629819D01*
X52127940Y-115629819D02*
X52032702Y-115629819D01*
X52032702Y-115629819D02*
X51889845Y-115582200D01*
X51889845Y-115582200D02*
X51794607Y-115486961D01*
X51794607Y-115486961D02*
X51746988Y-115391723D01*
X51746988Y-115391723D02*
X51699369Y-115201247D01*
X51699369Y-115201247D02*
X51699369Y-115058390D01*
X51699369Y-115058390D02*
X51746988Y-114867914D01*
X51746988Y-114867914D02*
X51794607Y-114772676D01*
X51794607Y-114772676D02*
X51889845Y-114677438D01*
X51889845Y-114677438D02*
X52032702Y-114629819D01*
X52032702Y-114629819D02*
X52127940Y-114629819D01*
X52127940Y-114629819D02*
X52270797Y-114677438D01*
X52270797Y-114677438D02*
X52318416Y-114725057D01*
X52794607Y-115629819D02*
X52985083Y-115629819D01*
X52985083Y-115629819D02*
X53080321Y-115582200D01*
X53080321Y-115582200D02*
X53127940Y-115534580D01*
X53127940Y-115534580D02*
X53223178Y-115391723D01*
X53223178Y-115391723D02*
X53270797Y-115201247D01*
X53270797Y-115201247D02*
X53270797Y-114820295D01*
X53270797Y-114820295D02*
X53223178Y-114725057D01*
X53223178Y-114725057D02*
X53175559Y-114677438D01*
X53175559Y-114677438D02*
X53080321Y-114629819D01*
X53080321Y-114629819D02*
X52889845Y-114629819D01*
X52889845Y-114629819D02*
X52794607Y-114677438D01*
X52794607Y-114677438D02*
X52746988Y-114725057D01*
X52746988Y-114725057D02*
X52699369Y-114820295D01*
X52699369Y-114820295D02*
X52699369Y-115058390D01*
X52699369Y-115058390D02*
X52746988Y-115153628D01*
X52746988Y-115153628D02*
X52794607Y-115201247D01*
X52794607Y-115201247D02*
X52889845Y-115248866D01*
X52889845Y-115248866D02*
X53080321Y-115248866D01*
X53080321Y-115248866D02*
X53175559Y-115201247D01*
X53175559Y-115201247D02*
X53223178Y-115153628D01*
X53223178Y-115153628D02*
X53270797Y-115058390D01*
X49154761Y-94050057D02*
X49059523Y-94002438D01*
X49059523Y-94002438D02*
X48964285Y-93907200D01*
X48964285Y-93907200D02*
X48821428Y-93764342D01*
X48821428Y-93764342D02*
X48726190Y-93716723D01*
X48726190Y-93716723D02*
X48630952Y-93716723D01*
X48678571Y-93954819D02*
X48583333Y-93907200D01*
X48583333Y-93907200D02*
X48488095Y-93811961D01*
X48488095Y-93811961D02*
X48440476Y-93621485D01*
X48440476Y-93621485D02*
X48440476Y-93288152D01*
X48440476Y-93288152D02*
X48488095Y-93097676D01*
X48488095Y-93097676D02*
X48583333Y-93002438D01*
X48583333Y-93002438D02*
X48678571Y-92954819D01*
X48678571Y-92954819D02*
X48869047Y-92954819D01*
X48869047Y-92954819D02*
X48964285Y-93002438D01*
X48964285Y-93002438D02*
X49059523Y-93097676D01*
X49059523Y-93097676D02*
X49107142Y-93288152D01*
X49107142Y-93288152D02*
X49107142Y-93621485D01*
X49107142Y-93621485D02*
X49059523Y-93811961D01*
X49059523Y-93811961D02*
X48964285Y-93907200D01*
X48964285Y-93907200D02*
X48869047Y-93954819D01*
X48869047Y-93954819D02*
X48678571Y-93954819D01*
X49488095Y-93050057D02*
X49535714Y-93002438D01*
X49535714Y-93002438D02*
X49630952Y-92954819D01*
X49630952Y-92954819D02*
X49869047Y-92954819D01*
X49869047Y-92954819D02*
X49964285Y-93002438D01*
X49964285Y-93002438D02*
X50011904Y-93050057D01*
X50011904Y-93050057D02*
X50059523Y-93145295D01*
X50059523Y-93145295D02*
X50059523Y-93240533D01*
X50059523Y-93240533D02*
X50011904Y-93383390D01*
X50011904Y-93383390D02*
X49440476Y-93954819D01*
X49440476Y-93954819D02*
X50059523Y-93954819D01*
X60857142Y-94954819D02*
X60523809Y-94478628D01*
X60285714Y-94954819D02*
X60285714Y-93954819D01*
X60285714Y-93954819D02*
X60666666Y-93954819D01*
X60666666Y-93954819D02*
X60761904Y-94002438D01*
X60761904Y-94002438D02*
X60809523Y-94050057D01*
X60809523Y-94050057D02*
X60857142Y-94145295D01*
X60857142Y-94145295D02*
X60857142Y-94288152D01*
X60857142Y-94288152D02*
X60809523Y-94383390D01*
X60809523Y-94383390D02*
X60761904Y-94431009D01*
X60761904Y-94431009D02*
X60666666Y-94478628D01*
X60666666Y-94478628D02*
X60285714Y-94478628D01*
X61809523Y-94954819D02*
X61238095Y-94954819D01*
X61523809Y-94954819D02*
X61523809Y-93954819D01*
X61523809Y-93954819D02*
X61428571Y-94097676D01*
X61428571Y-94097676D02*
X61333333Y-94192914D01*
X61333333Y-94192914D02*
X61238095Y-94240533D01*
X62666666Y-93954819D02*
X62476190Y-93954819D01*
X62476190Y-93954819D02*
X62380952Y-94002438D01*
X62380952Y-94002438D02*
X62333333Y-94050057D01*
X62333333Y-94050057D02*
X62238095Y-94192914D01*
X62238095Y-94192914D02*
X62190476Y-94383390D01*
X62190476Y-94383390D02*
X62190476Y-94764342D01*
X62190476Y-94764342D02*
X62238095Y-94859580D01*
X62238095Y-94859580D02*
X62285714Y-94907200D01*
X62285714Y-94907200D02*
X62380952Y-94954819D01*
X62380952Y-94954819D02*
X62571428Y-94954819D01*
X62571428Y-94954819D02*
X62666666Y-94907200D01*
X62666666Y-94907200D02*
X62714285Y-94859580D01*
X62714285Y-94859580D02*
X62761904Y-94764342D01*
X62761904Y-94764342D02*
X62761904Y-94526247D01*
X62761904Y-94526247D02*
X62714285Y-94431009D01*
X62714285Y-94431009D02*
X62666666Y-94383390D01*
X62666666Y-94383390D02*
X62571428Y-94335771D01*
X62571428Y-94335771D02*
X62380952Y-94335771D01*
X62380952Y-94335771D02*
X62285714Y-94383390D01*
X62285714Y-94383390D02*
X62238095Y-94431009D01*
X62238095Y-94431009D02*
X62190476Y-94526247D01*
X47988095Y-109054819D02*
X47988095Y-109864342D01*
X47988095Y-109864342D02*
X48035714Y-109959580D01*
X48035714Y-109959580D02*
X48083333Y-110007200D01*
X48083333Y-110007200D02*
X48178571Y-110054819D01*
X48178571Y-110054819D02*
X48369047Y-110054819D01*
X48369047Y-110054819D02*
X48464285Y-110007200D01*
X48464285Y-110007200D02*
X48511904Y-109959580D01*
X48511904Y-109959580D02*
X48559523Y-109864342D01*
X48559523Y-109864342D02*
X48559523Y-109054819D01*
X49559523Y-110054819D02*
X48988095Y-110054819D01*
X49273809Y-110054819D02*
X49273809Y-109054819D01*
X49273809Y-109054819D02*
X49178571Y-109197676D01*
X49178571Y-109197676D02*
X49083333Y-109292914D01*
X49083333Y-109292914D02*
X48988095Y-109340533D01*
X57954819Y-128511904D02*
X58764342Y-128511904D01*
X58764342Y-128511904D02*
X58859580Y-128464285D01*
X58859580Y-128464285D02*
X58907200Y-128416666D01*
X58907200Y-128416666D02*
X58954819Y-128321428D01*
X58954819Y-128321428D02*
X58954819Y-128130952D01*
X58954819Y-128130952D02*
X58907200Y-128035714D01*
X58907200Y-128035714D02*
X58859580Y-127988095D01*
X58859580Y-127988095D02*
X58764342Y-127940476D01*
X58764342Y-127940476D02*
X57954819Y-127940476D01*
X58288152Y-127035714D02*
X58954819Y-127035714D01*
X57907200Y-127273809D02*
X58621485Y-127511904D01*
X58621485Y-127511904D02*
X58621485Y-126892857D01*
X78550057Y-105095238D02*
X78502438Y-105190476D01*
X78502438Y-105190476D02*
X78407200Y-105285714D01*
X78407200Y-105285714D02*
X78264342Y-105428571D01*
X78264342Y-105428571D02*
X78216723Y-105523809D01*
X78216723Y-105523809D02*
X78216723Y-105619047D01*
X78454819Y-105571428D02*
X78407200Y-105666666D01*
X78407200Y-105666666D02*
X78311961Y-105761904D01*
X78311961Y-105761904D02*
X78121485Y-105809523D01*
X78121485Y-105809523D02*
X77788152Y-105809523D01*
X77788152Y-105809523D02*
X77597676Y-105761904D01*
X77597676Y-105761904D02*
X77502438Y-105666666D01*
X77502438Y-105666666D02*
X77454819Y-105571428D01*
X77454819Y-105571428D02*
X77454819Y-105380952D01*
X77454819Y-105380952D02*
X77502438Y-105285714D01*
X77502438Y-105285714D02*
X77597676Y-105190476D01*
X77597676Y-105190476D02*
X77788152Y-105142857D01*
X77788152Y-105142857D02*
X78121485Y-105142857D01*
X78121485Y-105142857D02*
X78311961Y-105190476D01*
X78311961Y-105190476D02*
X78407200Y-105285714D01*
X78407200Y-105285714D02*
X78454819Y-105380952D01*
X78454819Y-105380952D02*
X78454819Y-105571428D01*
X77454819Y-104809523D02*
X77454819Y-104190476D01*
X77454819Y-104190476D02*
X77835771Y-104523809D01*
X77835771Y-104523809D02*
X77835771Y-104380952D01*
X77835771Y-104380952D02*
X77883390Y-104285714D01*
X77883390Y-104285714D02*
X77931009Y-104238095D01*
X77931009Y-104238095D02*
X78026247Y-104190476D01*
X78026247Y-104190476D02*
X78264342Y-104190476D01*
X78264342Y-104190476D02*
X78359580Y-104238095D01*
X78359580Y-104238095D02*
X78407200Y-104285714D01*
X78407200Y-104285714D02*
X78454819Y-104380952D01*
X78454819Y-104380952D02*
X78454819Y-104666666D01*
X78454819Y-104666666D02*
X78407200Y-104761904D01*
X78407200Y-104761904D02*
X78359580Y-104809523D01*
X61954819Y-129142857D02*
X61478628Y-129476190D01*
X61954819Y-129714285D02*
X60954819Y-129714285D01*
X60954819Y-129714285D02*
X60954819Y-129333333D01*
X60954819Y-129333333D02*
X61002438Y-129238095D01*
X61002438Y-129238095D02*
X61050057Y-129190476D01*
X61050057Y-129190476D02*
X61145295Y-129142857D01*
X61145295Y-129142857D02*
X61288152Y-129142857D01*
X61288152Y-129142857D02*
X61383390Y-129190476D01*
X61383390Y-129190476D02*
X61431009Y-129238095D01*
X61431009Y-129238095D02*
X61478628Y-129333333D01*
X61478628Y-129333333D02*
X61478628Y-129714285D01*
X61954819Y-128190476D02*
X61954819Y-128761904D01*
X61954819Y-128476190D02*
X60954819Y-128476190D01*
X60954819Y-128476190D02*
X61097676Y-128571428D01*
X61097676Y-128571428D02*
X61192914Y-128666666D01*
X61192914Y-128666666D02*
X61240533Y-128761904D01*
X61383390Y-127619047D02*
X61335771Y-127714285D01*
X61335771Y-127714285D02*
X61288152Y-127761904D01*
X61288152Y-127761904D02*
X61192914Y-127809523D01*
X61192914Y-127809523D02*
X61145295Y-127809523D01*
X61145295Y-127809523D02*
X61050057Y-127761904D01*
X61050057Y-127761904D02*
X61002438Y-127714285D01*
X61002438Y-127714285D02*
X60954819Y-127619047D01*
X60954819Y-127619047D02*
X60954819Y-127428571D01*
X60954819Y-127428571D02*
X61002438Y-127333333D01*
X61002438Y-127333333D02*
X61050057Y-127285714D01*
X61050057Y-127285714D02*
X61145295Y-127238095D01*
X61145295Y-127238095D02*
X61192914Y-127238095D01*
X61192914Y-127238095D02*
X61288152Y-127285714D01*
X61288152Y-127285714D02*
X61335771Y-127333333D01*
X61335771Y-127333333D02*
X61383390Y-127428571D01*
X61383390Y-127428571D02*
X61383390Y-127619047D01*
X61383390Y-127619047D02*
X61431009Y-127714285D01*
X61431009Y-127714285D02*
X61478628Y-127761904D01*
X61478628Y-127761904D02*
X61573866Y-127809523D01*
X61573866Y-127809523D02*
X61764342Y-127809523D01*
X61764342Y-127809523D02*
X61859580Y-127761904D01*
X61859580Y-127761904D02*
X61907200Y-127714285D01*
X61907200Y-127714285D02*
X61954819Y-127619047D01*
X61954819Y-127619047D02*
X61954819Y-127428571D01*
X61954819Y-127428571D02*
X61907200Y-127333333D01*
X61907200Y-127333333D02*
X61859580Y-127285714D01*
X61859580Y-127285714D02*
X61764342Y-127238095D01*
X61764342Y-127238095D02*
X61573866Y-127238095D01*
X61573866Y-127238095D02*
X61478628Y-127285714D01*
X61478628Y-127285714D02*
X61431009Y-127333333D01*
X61431009Y-127333333D02*
X61383390Y-127428571D01*
X48050057Y-105020238D02*
X48002438Y-105115476D01*
X48002438Y-105115476D02*
X47907200Y-105210714D01*
X47907200Y-105210714D02*
X47764342Y-105353571D01*
X47764342Y-105353571D02*
X47716723Y-105448809D01*
X47716723Y-105448809D02*
X47716723Y-105544047D01*
X47954819Y-105496428D02*
X47907200Y-105591666D01*
X47907200Y-105591666D02*
X47811961Y-105686904D01*
X47811961Y-105686904D02*
X47621485Y-105734523D01*
X47621485Y-105734523D02*
X47288152Y-105734523D01*
X47288152Y-105734523D02*
X47097676Y-105686904D01*
X47097676Y-105686904D02*
X47002438Y-105591666D01*
X47002438Y-105591666D02*
X46954819Y-105496428D01*
X46954819Y-105496428D02*
X46954819Y-105305952D01*
X46954819Y-105305952D02*
X47002438Y-105210714D01*
X47002438Y-105210714D02*
X47097676Y-105115476D01*
X47097676Y-105115476D02*
X47288152Y-105067857D01*
X47288152Y-105067857D02*
X47621485Y-105067857D01*
X47621485Y-105067857D02*
X47811961Y-105115476D01*
X47811961Y-105115476D02*
X47907200Y-105210714D01*
X47907200Y-105210714D02*
X47954819Y-105305952D01*
X47954819Y-105305952D02*
X47954819Y-105496428D01*
X47954819Y-104115476D02*
X47954819Y-104686904D01*
X47954819Y-104401190D02*
X46954819Y-104401190D01*
X46954819Y-104401190D02*
X47097676Y-104496428D01*
X47097676Y-104496428D02*
X47192914Y-104591666D01*
X47192914Y-104591666D02*
X47240533Y-104686904D01*
X59167227Y-114769579D02*
X59119608Y-114817199D01*
X59119608Y-114817199D02*
X58976751Y-114864818D01*
X58976751Y-114864818D02*
X58881513Y-114864818D01*
X58881513Y-114864818D02*
X58738656Y-114817199D01*
X58738656Y-114817199D02*
X58643418Y-114721960D01*
X58643418Y-114721960D02*
X58595799Y-114626722D01*
X58595799Y-114626722D02*
X58548180Y-114436246D01*
X58548180Y-114436246D02*
X58548180Y-114293389D01*
X58548180Y-114293389D02*
X58595799Y-114102913D01*
X58595799Y-114102913D02*
X58643418Y-114007675D01*
X58643418Y-114007675D02*
X58738656Y-113912437D01*
X58738656Y-113912437D02*
X58881513Y-113864818D01*
X58881513Y-113864818D02*
X58976751Y-113864818D01*
X58976751Y-113864818D02*
X59119608Y-113912437D01*
X59119608Y-113912437D02*
X59167227Y-113960056D01*
X60119608Y-114864818D02*
X59548180Y-114864818D01*
X59833894Y-114864818D02*
X59833894Y-113864818D01*
X59833894Y-113864818D02*
X59738656Y-114007675D01*
X59738656Y-114007675D02*
X59643418Y-114102913D01*
X59643418Y-114102913D02*
X59548180Y-114150532D01*
X60738656Y-113864818D02*
X60833894Y-113864818D01*
X60833894Y-113864818D02*
X60929132Y-113912437D01*
X60929132Y-113912437D02*
X60976751Y-113960056D01*
X60976751Y-113960056D02*
X61024370Y-114055294D01*
X61024370Y-114055294D02*
X61071989Y-114245770D01*
X61071989Y-114245770D02*
X61071989Y-114483865D01*
X61071989Y-114483865D02*
X61024370Y-114674341D01*
X61024370Y-114674341D02*
X60976751Y-114769579D01*
X60976751Y-114769579D02*
X60929132Y-114817199D01*
X60929132Y-114817199D02*
X60833894Y-114864818D01*
X60833894Y-114864818D02*
X60738656Y-114864818D01*
X60738656Y-114864818D02*
X60643418Y-114817199D01*
X60643418Y-114817199D02*
X60595799Y-114769579D01*
X60595799Y-114769579D02*
X60548180Y-114674341D01*
X60548180Y-114674341D02*
X60500561Y-114483865D01*
X60500561Y-114483865D02*
X60500561Y-114245770D01*
X60500561Y-114245770D02*
X60548180Y-114055294D01*
X60548180Y-114055294D02*
X60595799Y-113960056D01*
X60595799Y-113960056D02*
X60643418Y-113912437D01*
X60643418Y-113912437D02*
X60738656Y-113864818D01*
X74904761Y-94050057D02*
X74809523Y-94002438D01*
X74809523Y-94002438D02*
X74714285Y-93907200D01*
X74714285Y-93907200D02*
X74571428Y-93764342D01*
X74571428Y-93764342D02*
X74476190Y-93716723D01*
X74476190Y-93716723D02*
X74380952Y-93716723D01*
X74428571Y-93954819D02*
X74333333Y-93907200D01*
X74333333Y-93907200D02*
X74238095Y-93811961D01*
X74238095Y-93811961D02*
X74190476Y-93621485D01*
X74190476Y-93621485D02*
X74190476Y-93288152D01*
X74190476Y-93288152D02*
X74238095Y-93097676D01*
X74238095Y-93097676D02*
X74333333Y-93002438D01*
X74333333Y-93002438D02*
X74428571Y-92954819D01*
X74428571Y-92954819D02*
X74619047Y-92954819D01*
X74619047Y-92954819D02*
X74714285Y-93002438D01*
X74714285Y-93002438D02*
X74809523Y-93097676D01*
X74809523Y-93097676D02*
X74857142Y-93288152D01*
X74857142Y-93288152D02*
X74857142Y-93621485D01*
X74857142Y-93621485D02*
X74809523Y-93811961D01*
X74809523Y-93811961D02*
X74714285Y-93907200D01*
X74714285Y-93907200D02*
X74619047Y-93954819D01*
X74619047Y-93954819D02*
X74428571Y-93954819D01*
X75714285Y-93288152D02*
X75714285Y-93954819D01*
X75476190Y-92907200D02*
X75238095Y-93621485D01*
X75238095Y-93621485D02*
X75857142Y-93621485D01*
X78612295Y-112892857D02*
X78231342Y-113226190D01*
X78612295Y-113464285D02*
X77812295Y-113464285D01*
X77812295Y-113464285D02*
X77812295Y-113083333D01*
X77812295Y-113083333D02*
X77850390Y-112988095D01*
X77850390Y-112988095D02*
X77888485Y-112940476D01*
X77888485Y-112940476D02*
X77964676Y-112892857D01*
X77964676Y-112892857D02*
X78078961Y-112892857D01*
X78078961Y-112892857D02*
X78155152Y-112940476D01*
X78155152Y-112940476D02*
X78193247Y-112988095D01*
X78193247Y-112988095D02*
X78231342Y-113083333D01*
X78231342Y-113083333D02*
X78231342Y-113464285D01*
X78612295Y-111940476D02*
X78612295Y-112511904D01*
X78612295Y-112226190D02*
X77812295Y-112226190D01*
X77812295Y-112226190D02*
X77926580Y-112321428D01*
X77926580Y-112321428D02*
X78002771Y-112416666D01*
X78002771Y-112416666D02*
X78040866Y-112511904D01*
X77812295Y-111321428D02*
X77812295Y-111226190D01*
X77812295Y-111226190D02*
X77850390Y-111130952D01*
X77850390Y-111130952D02*
X77888485Y-111083333D01*
X77888485Y-111083333D02*
X77964676Y-111035714D01*
X77964676Y-111035714D02*
X78117057Y-110988095D01*
X78117057Y-110988095D02*
X78307533Y-110988095D01*
X78307533Y-110988095D02*
X78459914Y-111035714D01*
X78459914Y-111035714D02*
X78536104Y-111083333D01*
X78536104Y-111083333D02*
X78574200Y-111130952D01*
X78574200Y-111130952D02*
X78612295Y-111226190D01*
X78612295Y-111226190D02*
X78612295Y-111321428D01*
X78612295Y-111321428D02*
X78574200Y-111416666D01*
X78574200Y-111416666D02*
X78536104Y-111464285D01*
X78536104Y-111464285D02*
X78459914Y-111511904D01*
X78459914Y-111511904D02*
X78307533Y-111559523D01*
X78307533Y-111559523D02*
X78117057Y-111559523D01*
X78117057Y-111559523D02*
X77964676Y-111511904D01*
X77964676Y-111511904D02*
X77888485Y-111464285D01*
X77888485Y-111464285D02*
X77850390Y-111416666D01*
X77850390Y-111416666D02*
X77812295Y-111321428D01*
X73916666Y-123624819D02*
X73916666Y-124339104D01*
X73916666Y-124339104D02*
X73869047Y-124481961D01*
X73869047Y-124481961D02*
X73773809Y-124577200D01*
X73773809Y-124577200D02*
X73630952Y-124624819D01*
X73630952Y-124624819D02*
X73535714Y-124624819D01*
X74297619Y-123624819D02*
X74916666Y-123624819D01*
X74916666Y-123624819D02*
X74583333Y-124005771D01*
X74583333Y-124005771D02*
X74726190Y-124005771D01*
X74726190Y-124005771D02*
X74821428Y-124053390D01*
X74821428Y-124053390D02*
X74869047Y-124101009D01*
X74869047Y-124101009D02*
X74916666Y-124196247D01*
X74916666Y-124196247D02*
X74916666Y-124434342D01*
X74916666Y-124434342D02*
X74869047Y-124529580D01*
X74869047Y-124529580D02*
X74821428Y-124577200D01*
X74821428Y-124577200D02*
X74726190Y-124624819D01*
X74726190Y-124624819D02*
X74440476Y-124624819D01*
X74440476Y-124624819D02*
X74345238Y-124577200D01*
X74345238Y-124577200D02*
X74297619Y-124529580D01*
X64327142Y-104859580D02*
X64279523Y-104907200D01*
X64279523Y-104907200D02*
X64136666Y-104954819D01*
X64136666Y-104954819D02*
X64041428Y-104954819D01*
X64041428Y-104954819D02*
X63898571Y-104907200D01*
X63898571Y-104907200D02*
X63803333Y-104811961D01*
X63803333Y-104811961D02*
X63755714Y-104716723D01*
X63755714Y-104716723D02*
X63708095Y-104526247D01*
X63708095Y-104526247D02*
X63708095Y-104383390D01*
X63708095Y-104383390D02*
X63755714Y-104192914D01*
X63755714Y-104192914D02*
X63803333Y-104097676D01*
X63803333Y-104097676D02*
X63898571Y-104002438D01*
X63898571Y-104002438D02*
X64041428Y-103954819D01*
X64041428Y-103954819D02*
X64136666Y-103954819D01*
X64136666Y-103954819D02*
X64279523Y-104002438D01*
X64279523Y-104002438D02*
X64327142Y-104050057D01*
X65279523Y-104954819D02*
X64708095Y-104954819D01*
X64993809Y-104954819D02*
X64993809Y-103954819D01*
X64993809Y-103954819D02*
X64898571Y-104097676D01*
X64898571Y-104097676D02*
X64803333Y-104192914D01*
X64803333Y-104192914D02*
X64708095Y-104240533D01*
X65612857Y-103954819D02*
X66279523Y-103954819D01*
X66279523Y-103954819D02*
X65850952Y-104954819D01*
X78612295Y-109892857D02*
X78231342Y-110226190D01*
X78612295Y-110464285D02*
X77812295Y-110464285D01*
X77812295Y-110464285D02*
X77812295Y-110083333D01*
X77812295Y-110083333D02*
X77850390Y-109988095D01*
X77850390Y-109988095D02*
X77888485Y-109940476D01*
X77888485Y-109940476D02*
X77964676Y-109892857D01*
X77964676Y-109892857D02*
X78078961Y-109892857D01*
X78078961Y-109892857D02*
X78155152Y-109940476D01*
X78155152Y-109940476D02*
X78193247Y-109988095D01*
X78193247Y-109988095D02*
X78231342Y-110083333D01*
X78231342Y-110083333D02*
X78231342Y-110464285D01*
X78612295Y-108940476D02*
X78612295Y-109511904D01*
X78612295Y-109226190D02*
X77812295Y-109226190D01*
X77812295Y-109226190D02*
X77926580Y-109321428D01*
X77926580Y-109321428D02*
X78002771Y-109416666D01*
X78002771Y-109416666D02*
X78040866Y-109511904D01*
X77888485Y-108559523D02*
X77850390Y-108511904D01*
X77850390Y-108511904D02*
X77812295Y-108416666D01*
X77812295Y-108416666D02*
X77812295Y-108178571D01*
X77812295Y-108178571D02*
X77850390Y-108083333D01*
X77850390Y-108083333D02*
X77888485Y-108035714D01*
X77888485Y-108035714D02*
X77964676Y-107988095D01*
X77964676Y-107988095D02*
X78040866Y-107988095D01*
X78040866Y-107988095D02*
X78155152Y-108035714D01*
X78155152Y-108035714D02*
X78612295Y-108607142D01*
X78612295Y-108607142D02*
X78612295Y-107988095D01*
X55644642Y-119454819D02*
X55311309Y-118978628D01*
X55073214Y-119454819D02*
X55073214Y-118454819D01*
X55073214Y-118454819D02*
X55454166Y-118454819D01*
X55454166Y-118454819D02*
X55549404Y-118502438D01*
X55549404Y-118502438D02*
X55597023Y-118550057D01*
X55597023Y-118550057D02*
X55644642Y-118645295D01*
X55644642Y-118645295D02*
X55644642Y-118788152D01*
X55644642Y-118788152D02*
X55597023Y-118883390D01*
X55597023Y-118883390D02*
X55549404Y-118931009D01*
X55549404Y-118931009D02*
X55454166Y-118978628D01*
X55454166Y-118978628D02*
X55073214Y-118978628D01*
X56597023Y-119454819D02*
X56025595Y-119454819D01*
X56311309Y-119454819D02*
X56311309Y-118454819D01*
X56311309Y-118454819D02*
X56216071Y-118597676D01*
X56216071Y-118597676D02*
X56120833Y-118692914D01*
X56120833Y-118692914D02*
X56025595Y-118740533D01*
X56930357Y-118454819D02*
X57597023Y-118454819D01*
X57597023Y-118454819D02*
X57168452Y-119454819D01*
X62416666Y-82704819D02*
X62416666Y-83419104D01*
X62416666Y-83419104D02*
X62369047Y-83561961D01*
X62369047Y-83561961D02*
X62273809Y-83657200D01*
X62273809Y-83657200D02*
X62130952Y-83704819D01*
X62130952Y-83704819D02*
X62035714Y-83704819D01*
X63321428Y-83038152D02*
X63321428Y-83704819D01*
X63083333Y-82657200D02*
X62845238Y-83371485D01*
X62845238Y-83371485D02*
X63464285Y-83371485D01*
X60627142Y-100459580D02*
X60579523Y-100507200D01*
X60579523Y-100507200D02*
X60436666Y-100554819D01*
X60436666Y-100554819D02*
X60341428Y-100554819D01*
X60341428Y-100554819D02*
X60198571Y-100507200D01*
X60198571Y-100507200D02*
X60103333Y-100411961D01*
X60103333Y-100411961D02*
X60055714Y-100316723D01*
X60055714Y-100316723D02*
X60008095Y-100126247D01*
X60008095Y-100126247D02*
X60008095Y-99983390D01*
X60008095Y-99983390D02*
X60055714Y-99792914D01*
X60055714Y-99792914D02*
X60103333Y-99697676D01*
X60103333Y-99697676D02*
X60198571Y-99602438D01*
X60198571Y-99602438D02*
X60341428Y-99554819D01*
X60341428Y-99554819D02*
X60436666Y-99554819D01*
X60436666Y-99554819D02*
X60579523Y-99602438D01*
X60579523Y-99602438D02*
X60627142Y-99650057D01*
X61579523Y-100554819D02*
X61008095Y-100554819D01*
X61293809Y-100554819D02*
X61293809Y-99554819D01*
X61293809Y-99554819D02*
X61198571Y-99697676D01*
X61198571Y-99697676D02*
X61103333Y-99792914D01*
X61103333Y-99792914D02*
X61008095Y-99840533D01*
X62436666Y-99554819D02*
X62246190Y-99554819D01*
X62246190Y-99554819D02*
X62150952Y-99602438D01*
X62150952Y-99602438D02*
X62103333Y-99650057D01*
X62103333Y-99650057D02*
X62008095Y-99792914D01*
X62008095Y-99792914D02*
X61960476Y-99983390D01*
X61960476Y-99983390D02*
X61960476Y-100364342D01*
X61960476Y-100364342D02*
X62008095Y-100459580D01*
X62008095Y-100459580D02*
X62055714Y-100507200D01*
X62055714Y-100507200D02*
X62150952Y-100554819D01*
X62150952Y-100554819D02*
X62341428Y-100554819D01*
X62341428Y-100554819D02*
X62436666Y-100507200D01*
X62436666Y-100507200D02*
X62484285Y-100459580D01*
X62484285Y-100459580D02*
X62531904Y-100364342D01*
X62531904Y-100364342D02*
X62531904Y-100126247D01*
X62531904Y-100126247D02*
X62484285Y-100031009D01*
X62484285Y-100031009D02*
X62436666Y-99983390D01*
X62436666Y-99983390D02*
X62341428Y-99935771D01*
X62341428Y-99935771D02*
X62150952Y-99935771D01*
X62150952Y-99935771D02*
X62055714Y-99983390D01*
X62055714Y-99983390D02*
X62008095Y-100031009D01*
X62008095Y-100031009D02*
X61960476Y-100126247D01*
X60127142Y-109209580D02*
X60079523Y-109257200D01*
X60079523Y-109257200D02*
X59936666Y-109304819D01*
X59936666Y-109304819D02*
X59841428Y-109304819D01*
X59841428Y-109304819D02*
X59698571Y-109257200D01*
X59698571Y-109257200D02*
X59603333Y-109161961D01*
X59603333Y-109161961D02*
X59555714Y-109066723D01*
X59555714Y-109066723D02*
X59508095Y-108876247D01*
X59508095Y-108876247D02*
X59508095Y-108733390D01*
X59508095Y-108733390D02*
X59555714Y-108542914D01*
X59555714Y-108542914D02*
X59603333Y-108447676D01*
X59603333Y-108447676D02*
X59698571Y-108352438D01*
X59698571Y-108352438D02*
X59841428Y-108304819D01*
X59841428Y-108304819D02*
X59936666Y-108304819D01*
X59936666Y-108304819D02*
X60079523Y-108352438D01*
X60079523Y-108352438D02*
X60127142Y-108400057D01*
X61079523Y-109304819D02*
X60508095Y-109304819D01*
X60793809Y-109304819D02*
X60793809Y-108304819D01*
X60793809Y-108304819D02*
X60698571Y-108447676D01*
X60698571Y-108447676D02*
X60603333Y-108542914D01*
X60603333Y-108542914D02*
X60508095Y-108590533D01*
X61555714Y-109304819D02*
X61746190Y-109304819D01*
X61746190Y-109304819D02*
X61841428Y-109257200D01*
X61841428Y-109257200D02*
X61889047Y-109209580D01*
X61889047Y-109209580D02*
X61984285Y-109066723D01*
X61984285Y-109066723D02*
X62031904Y-108876247D01*
X62031904Y-108876247D02*
X62031904Y-108495295D01*
X62031904Y-108495295D02*
X61984285Y-108400057D01*
X61984285Y-108400057D02*
X61936666Y-108352438D01*
X61936666Y-108352438D02*
X61841428Y-108304819D01*
X61841428Y-108304819D02*
X61650952Y-108304819D01*
X61650952Y-108304819D02*
X61555714Y-108352438D01*
X61555714Y-108352438D02*
X61508095Y-108400057D01*
X61508095Y-108400057D02*
X61460476Y-108495295D01*
X61460476Y-108495295D02*
X61460476Y-108733390D01*
X61460476Y-108733390D02*
X61508095Y-108828628D01*
X61508095Y-108828628D02*
X61555714Y-108876247D01*
X61555714Y-108876247D02*
X61650952Y-108923866D01*
X61650952Y-108923866D02*
X61841428Y-108923866D01*
X61841428Y-108923866D02*
X61936666Y-108876247D01*
X61936666Y-108876247D02*
X61984285Y-108828628D01*
X61984285Y-108828628D02*
X62031904Y-108733390D01*
X75307142Y-87154819D02*
X74973809Y-86678628D01*
X74735714Y-87154819D02*
X74735714Y-86154819D01*
X74735714Y-86154819D02*
X75116666Y-86154819D01*
X75116666Y-86154819D02*
X75211904Y-86202438D01*
X75211904Y-86202438D02*
X75259523Y-86250057D01*
X75259523Y-86250057D02*
X75307142Y-86345295D01*
X75307142Y-86345295D02*
X75307142Y-86488152D01*
X75307142Y-86488152D02*
X75259523Y-86583390D01*
X75259523Y-86583390D02*
X75211904Y-86631009D01*
X75211904Y-86631009D02*
X75116666Y-86678628D01*
X75116666Y-86678628D02*
X74735714Y-86678628D01*
X76259523Y-87154819D02*
X75688095Y-87154819D01*
X75973809Y-87154819D02*
X75973809Y-86154819D01*
X75973809Y-86154819D02*
X75878571Y-86297676D01*
X75878571Y-86297676D02*
X75783333Y-86392914D01*
X75783333Y-86392914D02*
X75688095Y-86440533D01*
X76735714Y-87154819D02*
X76926190Y-87154819D01*
X76926190Y-87154819D02*
X77021428Y-87107200D01*
X77021428Y-87107200D02*
X77069047Y-87059580D01*
X77069047Y-87059580D02*
X77164285Y-86916723D01*
X77164285Y-86916723D02*
X77211904Y-86726247D01*
X77211904Y-86726247D02*
X77211904Y-86345295D01*
X77211904Y-86345295D02*
X77164285Y-86250057D01*
X77164285Y-86250057D02*
X77116666Y-86202438D01*
X77116666Y-86202438D02*
X77021428Y-86154819D01*
X77021428Y-86154819D02*
X76830952Y-86154819D01*
X76830952Y-86154819D02*
X76735714Y-86202438D01*
X76735714Y-86202438D02*
X76688095Y-86250057D01*
X76688095Y-86250057D02*
X76640476Y-86345295D01*
X76640476Y-86345295D02*
X76640476Y-86583390D01*
X76640476Y-86583390D02*
X76688095Y-86678628D01*
X76688095Y-86678628D02*
X76735714Y-86726247D01*
X76735714Y-86726247D02*
X76830952Y-86773866D01*
X76830952Y-86773866D02*
X77021428Y-86773866D01*
X77021428Y-86773866D02*
X77116666Y-86726247D01*
X77116666Y-86726247D02*
X77164285Y-86678628D01*
X77164285Y-86678628D02*
X77211904Y-86583390D01*
X79916666Y-67454819D02*
X79916666Y-68169104D01*
X79916666Y-68169104D02*
X79869047Y-68311961D01*
X79869047Y-68311961D02*
X79773809Y-68407200D01*
X79773809Y-68407200D02*
X79630952Y-68454819D01*
X79630952Y-68454819D02*
X79535714Y-68454819D01*
X80345238Y-67550057D02*
X80392857Y-67502438D01*
X80392857Y-67502438D02*
X80488095Y-67454819D01*
X80488095Y-67454819D02*
X80726190Y-67454819D01*
X80726190Y-67454819D02*
X80821428Y-67502438D01*
X80821428Y-67502438D02*
X80869047Y-67550057D01*
X80869047Y-67550057D02*
X80916666Y-67645295D01*
X80916666Y-67645295D02*
X80916666Y-67740533D01*
X80916666Y-67740533D02*
X80869047Y-67883390D01*
X80869047Y-67883390D02*
X80297619Y-68454819D01*
X80297619Y-68454819D02*
X80916666Y-68454819D01*
X64327142Y-98859580D02*
X64279523Y-98907200D01*
X64279523Y-98907200D02*
X64136666Y-98954819D01*
X64136666Y-98954819D02*
X64041428Y-98954819D01*
X64041428Y-98954819D02*
X63898571Y-98907200D01*
X63898571Y-98907200D02*
X63803333Y-98811961D01*
X63803333Y-98811961D02*
X63755714Y-98716723D01*
X63755714Y-98716723D02*
X63708095Y-98526247D01*
X63708095Y-98526247D02*
X63708095Y-98383390D01*
X63708095Y-98383390D02*
X63755714Y-98192914D01*
X63755714Y-98192914D02*
X63803333Y-98097676D01*
X63803333Y-98097676D02*
X63898571Y-98002438D01*
X63898571Y-98002438D02*
X64041428Y-97954819D01*
X64041428Y-97954819D02*
X64136666Y-97954819D01*
X64136666Y-97954819D02*
X64279523Y-98002438D01*
X64279523Y-98002438D02*
X64327142Y-98050057D01*
X65279523Y-98954819D02*
X64708095Y-98954819D01*
X64993809Y-98954819D02*
X64993809Y-97954819D01*
X64993809Y-97954819D02*
X64898571Y-98097676D01*
X64898571Y-98097676D02*
X64803333Y-98192914D01*
X64803333Y-98192914D02*
X64708095Y-98240533D01*
X65850952Y-98383390D02*
X65755714Y-98335771D01*
X65755714Y-98335771D02*
X65708095Y-98288152D01*
X65708095Y-98288152D02*
X65660476Y-98192914D01*
X65660476Y-98192914D02*
X65660476Y-98145295D01*
X65660476Y-98145295D02*
X65708095Y-98050057D01*
X65708095Y-98050057D02*
X65755714Y-98002438D01*
X65755714Y-98002438D02*
X65850952Y-97954819D01*
X65850952Y-97954819D02*
X66041428Y-97954819D01*
X66041428Y-97954819D02*
X66136666Y-98002438D01*
X66136666Y-98002438D02*
X66184285Y-98050057D01*
X66184285Y-98050057D02*
X66231904Y-98145295D01*
X66231904Y-98145295D02*
X66231904Y-98192914D01*
X66231904Y-98192914D02*
X66184285Y-98288152D01*
X66184285Y-98288152D02*
X66136666Y-98335771D01*
X66136666Y-98335771D02*
X66041428Y-98383390D01*
X66041428Y-98383390D02*
X65850952Y-98383390D01*
X65850952Y-98383390D02*
X65755714Y-98431009D01*
X65755714Y-98431009D02*
X65708095Y-98478628D01*
X65708095Y-98478628D02*
X65660476Y-98573866D01*
X65660476Y-98573866D02*
X65660476Y-98764342D01*
X65660476Y-98764342D02*
X65708095Y-98859580D01*
X65708095Y-98859580D02*
X65755714Y-98907200D01*
X65755714Y-98907200D02*
X65850952Y-98954819D01*
X65850952Y-98954819D02*
X66041428Y-98954819D01*
X66041428Y-98954819D02*
X66136666Y-98907200D01*
X66136666Y-98907200D02*
X66184285Y-98859580D01*
X66184285Y-98859580D02*
X66231904Y-98764342D01*
X66231904Y-98764342D02*
X66231904Y-98573866D01*
X66231904Y-98573866D02*
X66184285Y-98478628D01*
X66184285Y-98478628D02*
X66136666Y-98431009D01*
X66136666Y-98431009D02*
X66041428Y-98383390D01*
X59917227Y-106379819D02*
X59583894Y-105903628D01*
X59345799Y-106379819D02*
X59345799Y-105379819D01*
X59345799Y-105379819D02*
X59726751Y-105379819D01*
X59726751Y-105379819D02*
X59821989Y-105427438D01*
X59821989Y-105427438D02*
X59869608Y-105475057D01*
X59869608Y-105475057D02*
X59917227Y-105570295D01*
X59917227Y-105570295D02*
X59917227Y-105713152D01*
X59917227Y-105713152D02*
X59869608Y-105808390D01*
X59869608Y-105808390D02*
X59821989Y-105856009D01*
X59821989Y-105856009D02*
X59726751Y-105903628D01*
X59726751Y-105903628D02*
X59345799Y-105903628D01*
X60869608Y-106379819D02*
X60298180Y-106379819D01*
X60583894Y-106379819D02*
X60583894Y-105379819D01*
X60583894Y-105379819D02*
X60488656Y-105522676D01*
X60488656Y-105522676D02*
X60393418Y-105617914D01*
X60393418Y-105617914D02*
X60298180Y-105665533D01*
X61202942Y-105379819D02*
X61821989Y-105379819D01*
X61821989Y-105379819D02*
X61488656Y-105760771D01*
X61488656Y-105760771D02*
X61631513Y-105760771D01*
X61631513Y-105760771D02*
X61726751Y-105808390D01*
X61726751Y-105808390D02*
X61774370Y-105856009D01*
X61774370Y-105856009D02*
X61821989Y-105951247D01*
X61821989Y-105951247D02*
X61821989Y-106189342D01*
X61821989Y-106189342D02*
X61774370Y-106284580D01*
X61774370Y-106284580D02*
X61726751Y-106332200D01*
X61726751Y-106332200D02*
X61631513Y-106379819D01*
X61631513Y-106379819D02*
X61345799Y-106379819D01*
X61345799Y-106379819D02*
X61250561Y-106332200D01*
X61250561Y-106332200D02*
X61202942Y-106284580D01*
X63077142Y-109454819D02*
X62743809Y-108978628D01*
X62505714Y-109454819D02*
X62505714Y-108454819D01*
X62505714Y-108454819D02*
X62886666Y-108454819D01*
X62886666Y-108454819D02*
X62981904Y-108502438D01*
X62981904Y-108502438D02*
X63029523Y-108550057D01*
X63029523Y-108550057D02*
X63077142Y-108645295D01*
X63077142Y-108645295D02*
X63077142Y-108788152D01*
X63077142Y-108788152D02*
X63029523Y-108883390D01*
X63029523Y-108883390D02*
X62981904Y-108931009D01*
X62981904Y-108931009D02*
X62886666Y-108978628D01*
X62886666Y-108978628D02*
X62505714Y-108978628D01*
X64029523Y-109454819D02*
X63458095Y-109454819D01*
X63743809Y-109454819D02*
X63743809Y-108454819D01*
X63743809Y-108454819D02*
X63648571Y-108597676D01*
X63648571Y-108597676D02*
X63553333Y-108692914D01*
X63553333Y-108692914D02*
X63458095Y-108740533D01*
X64934285Y-108454819D02*
X64458095Y-108454819D01*
X64458095Y-108454819D02*
X64410476Y-108931009D01*
X64410476Y-108931009D02*
X64458095Y-108883390D01*
X64458095Y-108883390D02*
X64553333Y-108835771D01*
X64553333Y-108835771D02*
X64791428Y-108835771D01*
X64791428Y-108835771D02*
X64886666Y-108883390D01*
X64886666Y-108883390D02*
X64934285Y-108931009D01*
X64934285Y-108931009D02*
X64981904Y-109026247D01*
X64981904Y-109026247D02*
X64981904Y-109264342D01*
X64981904Y-109264342D02*
X64934285Y-109359580D01*
X64934285Y-109359580D02*
X64886666Y-109407200D01*
X64886666Y-109407200D02*
X64791428Y-109454819D01*
X64791428Y-109454819D02*
X64553333Y-109454819D01*
X64553333Y-109454819D02*
X64458095Y-109407200D01*
X64458095Y-109407200D02*
X64410476Y-109359580D01*
X55083333Y-91204819D02*
X54607143Y-91204819D01*
X54607143Y-91204819D02*
X54607143Y-90204819D01*
X55940476Y-91204819D02*
X55369048Y-91204819D01*
X55654762Y-91204819D02*
X55654762Y-90204819D01*
X55654762Y-90204819D02*
X55559524Y-90347676D01*
X55559524Y-90347676D02*
X55464286Y-90442914D01*
X55464286Y-90442914D02*
X55369048Y-90490533D01*
X68915181Y-114388094D02*
X68105658Y-114388094D01*
X68105658Y-114388094D02*
X68010420Y-114435713D01*
X68010420Y-114435713D02*
X67962801Y-114483332D01*
X67962801Y-114483332D02*
X67915181Y-114578570D01*
X67915181Y-114578570D02*
X67915181Y-114769046D01*
X67915181Y-114769046D02*
X67962801Y-114864284D01*
X67962801Y-114864284D02*
X68010420Y-114911903D01*
X68010420Y-114911903D02*
X68105658Y-114959522D01*
X68105658Y-114959522D02*
X68915181Y-114959522D01*
X68819943Y-115388094D02*
X68867562Y-115435713D01*
X68867562Y-115435713D02*
X68915181Y-115530951D01*
X68915181Y-115530951D02*
X68915181Y-115769046D01*
X68915181Y-115769046D02*
X68867562Y-115864284D01*
X68867562Y-115864284D02*
X68819943Y-115911903D01*
X68819943Y-115911903D02*
X68724705Y-115959522D01*
X68724705Y-115959522D02*
X68629467Y-115959522D01*
X68629467Y-115959522D02*
X68486610Y-115911903D01*
X68486610Y-115911903D02*
X67915181Y-115340475D01*
X67915181Y-115340475D02*
X67915181Y-115959522D01*
X65488095Y-109454819D02*
X65488095Y-110264342D01*
X65488095Y-110264342D02*
X65535714Y-110359580D01*
X65535714Y-110359580D02*
X65583333Y-110407200D01*
X65583333Y-110407200D02*
X65678571Y-110454819D01*
X65678571Y-110454819D02*
X65869047Y-110454819D01*
X65869047Y-110454819D02*
X65964285Y-110407200D01*
X65964285Y-110407200D02*
X66011904Y-110359580D01*
X66011904Y-110359580D02*
X66059523Y-110264342D01*
X66059523Y-110264342D02*
X66059523Y-109454819D01*
X66488095Y-109550057D02*
X66535714Y-109502438D01*
X66535714Y-109502438D02*
X66630952Y-109454819D01*
X66630952Y-109454819D02*
X66869047Y-109454819D01*
X66869047Y-109454819D02*
X66964285Y-109502438D01*
X66964285Y-109502438D02*
X67011904Y-109550057D01*
X67011904Y-109550057D02*
X67059523Y-109645295D01*
X67059523Y-109645295D02*
X67059523Y-109740533D01*
X67059523Y-109740533D02*
X67011904Y-109883390D01*
X67011904Y-109883390D02*
X66440476Y-110454819D01*
X66440476Y-110454819D02*
X67059523Y-110454819D01*
X58143418Y-109879819D02*
X57810085Y-109403628D01*
X57571990Y-109879819D02*
X57571990Y-108879819D01*
X57571990Y-108879819D02*
X57952942Y-108879819D01*
X57952942Y-108879819D02*
X58048180Y-108927438D01*
X58048180Y-108927438D02*
X58095799Y-108975057D01*
X58095799Y-108975057D02*
X58143418Y-109070295D01*
X58143418Y-109070295D02*
X58143418Y-109213152D01*
X58143418Y-109213152D02*
X58095799Y-109308390D01*
X58095799Y-109308390D02*
X58048180Y-109356009D01*
X58048180Y-109356009D02*
X57952942Y-109403628D01*
X57952942Y-109403628D02*
X57571990Y-109403628D01*
X59048180Y-108879819D02*
X58571990Y-108879819D01*
X58571990Y-108879819D02*
X58524371Y-109356009D01*
X58524371Y-109356009D02*
X58571990Y-109308390D01*
X58571990Y-109308390D02*
X58667228Y-109260771D01*
X58667228Y-109260771D02*
X58905323Y-109260771D01*
X58905323Y-109260771D02*
X59000561Y-109308390D01*
X59000561Y-109308390D02*
X59048180Y-109356009D01*
X59048180Y-109356009D02*
X59095799Y-109451247D01*
X59095799Y-109451247D02*
X59095799Y-109689342D01*
X59095799Y-109689342D02*
X59048180Y-109784580D01*
X59048180Y-109784580D02*
X59000561Y-109832200D01*
X59000561Y-109832200D02*
X58905323Y-109879819D01*
X58905323Y-109879819D02*
X58667228Y-109879819D01*
X58667228Y-109879819D02*
X58571990Y-109832200D01*
X58571990Y-109832200D02*
X58524371Y-109784580D01*
X65077142Y-114204819D02*
X64743809Y-113728628D01*
X64505714Y-114204819D02*
X64505714Y-113204819D01*
X64505714Y-113204819D02*
X64886666Y-113204819D01*
X64886666Y-113204819D02*
X64981904Y-113252438D01*
X64981904Y-113252438D02*
X65029523Y-113300057D01*
X65029523Y-113300057D02*
X65077142Y-113395295D01*
X65077142Y-113395295D02*
X65077142Y-113538152D01*
X65077142Y-113538152D02*
X65029523Y-113633390D01*
X65029523Y-113633390D02*
X64981904Y-113681009D01*
X64981904Y-113681009D02*
X64886666Y-113728628D01*
X64886666Y-113728628D02*
X64505714Y-113728628D01*
X66029523Y-114204819D02*
X65458095Y-114204819D01*
X65743809Y-114204819D02*
X65743809Y-113204819D01*
X65743809Y-113204819D02*
X65648571Y-113347676D01*
X65648571Y-113347676D02*
X65553333Y-113442914D01*
X65553333Y-113442914D02*
X65458095Y-113490533D01*
X66981904Y-114204819D02*
X66410476Y-114204819D01*
X66696190Y-114204819D02*
X66696190Y-113204819D01*
X66696190Y-113204819D02*
X66600952Y-113347676D01*
X66600952Y-113347676D02*
X66505714Y-113442914D01*
X66505714Y-113442914D02*
X66410476Y-113490533D01*
X64077142Y-101609580D02*
X64029523Y-101657200D01*
X64029523Y-101657200D02*
X63886666Y-101704819D01*
X63886666Y-101704819D02*
X63791428Y-101704819D01*
X63791428Y-101704819D02*
X63648571Y-101657200D01*
X63648571Y-101657200D02*
X63553333Y-101561961D01*
X63553333Y-101561961D02*
X63505714Y-101466723D01*
X63505714Y-101466723D02*
X63458095Y-101276247D01*
X63458095Y-101276247D02*
X63458095Y-101133390D01*
X63458095Y-101133390D02*
X63505714Y-100942914D01*
X63505714Y-100942914D02*
X63553333Y-100847676D01*
X63553333Y-100847676D02*
X63648571Y-100752438D01*
X63648571Y-100752438D02*
X63791428Y-100704819D01*
X63791428Y-100704819D02*
X63886666Y-100704819D01*
X63886666Y-100704819D02*
X64029523Y-100752438D01*
X64029523Y-100752438D02*
X64077142Y-100800057D01*
X64458095Y-100800057D02*
X64505714Y-100752438D01*
X64505714Y-100752438D02*
X64600952Y-100704819D01*
X64600952Y-100704819D02*
X64839047Y-100704819D01*
X64839047Y-100704819D02*
X64934285Y-100752438D01*
X64934285Y-100752438D02*
X64981904Y-100800057D01*
X64981904Y-100800057D02*
X65029523Y-100895295D01*
X65029523Y-100895295D02*
X65029523Y-100990533D01*
X65029523Y-100990533D02*
X64981904Y-101133390D01*
X64981904Y-101133390D02*
X64410476Y-101704819D01*
X64410476Y-101704819D02*
X65029523Y-101704819D01*
X65648571Y-100704819D02*
X65743809Y-100704819D01*
X65743809Y-100704819D02*
X65839047Y-100752438D01*
X65839047Y-100752438D02*
X65886666Y-100800057D01*
X65886666Y-100800057D02*
X65934285Y-100895295D01*
X65934285Y-100895295D02*
X65981904Y-101085771D01*
X65981904Y-101085771D02*
X65981904Y-101323866D01*
X65981904Y-101323866D02*
X65934285Y-101514342D01*
X65934285Y-101514342D02*
X65886666Y-101609580D01*
X65886666Y-101609580D02*
X65839047Y-101657200D01*
X65839047Y-101657200D02*
X65743809Y-101704819D01*
X65743809Y-101704819D02*
X65648571Y-101704819D01*
X65648571Y-101704819D02*
X65553333Y-101657200D01*
X65553333Y-101657200D02*
X65505714Y-101609580D01*
X65505714Y-101609580D02*
X65458095Y-101514342D01*
X65458095Y-101514342D02*
X65410476Y-101323866D01*
X65410476Y-101323866D02*
X65410476Y-101085771D01*
X65410476Y-101085771D02*
X65458095Y-100895295D01*
X65458095Y-100895295D02*
X65505714Y-100800057D01*
X65505714Y-100800057D02*
X65553333Y-100752438D01*
X65553333Y-100752438D02*
X65648571Y-100704819D01*
X44916666Y-67554819D02*
X44916666Y-68269104D01*
X44916666Y-68269104D02*
X44869047Y-68411961D01*
X44869047Y-68411961D02*
X44773809Y-68507200D01*
X44773809Y-68507200D02*
X44630952Y-68554819D01*
X44630952Y-68554819D02*
X44535714Y-68554819D01*
X45916666Y-68554819D02*
X45345238Y-68554819D01*
X45630952Y-68554819D02*
X45630952Y-67554819D01*
X45630952Y-67554819D02*
X45535714Y-67697676D01*
X45535714Y-67697676D02*
X45440476Y-67792914D01*
X45440476Y-67792914D02*
X45345238Y-67840533D01*
X64142172Y-131749665D02*
X64094553Y-131797285D01*
X64094553Y-131797285D02*
X63951696Y-131844904D01*
X63951696Y-131844904D02*
X63856458Y-131844904D01*
X63856458Y-131844904D02*
X63713601Y-131797285D01*
X63713601Y-131797285D02*
X63618363Y-131702046D01*
X63618363Y-131702046D02*
X63570744Y-131606808D01*
X63570744Y-131606808D02*
X63523125Y-131416332D01*
X63523125Y-131416332D02*
X63523125Y-131273475D01*
X63523125Y-131273475D02*
X63570744Y-131082999D01*
X63570744Y-131082999D02*
X63618363Y-130987761D01*
X63618363Y-130987761D02*
X63713601Y-130892523D01*
X63713601Y-130892523D02*
X63856458Y-130844904D01*
X63856458Y-130844904D02*
X63951696Y-130844904D01*
X63951696Y-130844904D02*
X64094553Y-130892523D01*
X64094553Y-130892523D02*
X64142172Y-130940142D01*
X64523125Y-130940142D02*
X64570744Y-130892523D01*
X64570744Y-130892523D02*
X64665982Y-130844904D01*
X64665982Y-130844904D02*
X64904077Y-130844904D01*
X64904077Y-130844904D02*
X64999315Y-130892523D01*
X64999315Y-130892523D02*
X65046934Y-130940142D01*
X65046934Y-130940142D02*
X65094553Y-131035380D01*
X65094553Y-131035380D02*
X65094553Y-131130618D01*
X65094553Y-131130618D02*
X65046934Y-131273475D01*
X65046934Y-131273475D02*
X64475506Y-131844904D01*
X64475506Y-131844904D02*
X65094553Y-131844904D01*
X65427887Y-130844904D02*
X66046934Y-130844904D01*
X66046934Y-130844904D02*
X65713601Y-131225856D01*
X65713601Y-131225856D02*
X65856458Y-131225856D01*
X65856458Y-131225856D02*
X65951696Y-131273475D01*
X65951696Y-131273475D02*
X65999315Y-131321094D01*
X65999315Y-131321094D02*
X66046934Y-131416332D01*
X66046934Y-131416332D02*
X66046934Y-131654427D01*
X66046934Y-131654427D02*
X65999315Y-131749665D01*
X65999315Y-131749665D02*
X65951696Y-131797285D01*
X65951696Y-131797285D02*
X65856458Y-131844904D01*
X65856458Y-131844904D02*
X65570744Y-131844904D01*
X65570744Y-131844904D02*
X65475506Y-131797285D01*
X65475506Y-131797285D02*
X65427887Y-131749665D01*
X48603333Y-115304819D02*
X48270000Y-114828628D01*
X48031905Y-115304819D02*
X48031905Y-114304819D01*
X48031905Y-114304819D02*
X48412857Y-114304819D01*
X48412857Y-114304819D02*
X48508095Y-114352438D01*
X48508095Y-114352438D02*
X48555714Y-114400057D01*
X48555714Y-114400057D02*
X48603333Y-114495295D01*
X48603333Y-114495295D02*
X48603333Y-114638152D01*
X48603333Y-114638152D02*
X48555714Y-114733390D01*
X48555714Y-114733390D02*
X48508095Y-114781009D01*
X48508095Y-114781009D02*
X48412857Y-114828628D01*
X48412857Y-114828628D02*
X48031905Y-114828628D01*
X49460476Y-114304819D02*
X49270000Y-114304819D01*
X49270000Y-114304819D02*
X49174762Y-114352438D01*
X49174762Y-114352438D02*
X49127143Y-114400057D01*
X49127143Y-114400057D02*
X49031905Y-114542914D01*
X49031905Y-114542914D02*
X48984286Y-114733390D01*
X48984286Y-114733390D02*
X48984286Y-115114342D01*
X48984286Y-115114342D02*
X49031905Y-115209580D01*
X49031905Y-115209580D02*
X49079524Y-115257200D01*
X49079524Y-115257200D02*
X49174762Y-115304819D01*
X49174762Y-115304819D02*
X49365238Y-115304819D01*
X49365238Y-115304819D02*
X49460476Y-115257200D01*
X49460476Y-115257200D02*
X49508095Y-115209580D01*
X49508095Y-115209580D02*
X49555714Y-115114342D01*
X49555714Y-115114342D02*
X49555714Y-114876247D01*
X49555714Y-114876247D02*
X49508095Y-114781009D01*
X49508095Y-114781009D02*
X49460476Y-114733390D01*
X49460476Y-114733390D02*
X49365238Y-114685771D01*
X49365238Y-114685771D02*
X49174762Y-114685771D01*
X49174762Y-114685771D02*
X49079524Y-114733390D01*
X49079524Y-114733390D02*
X49031905Y-114781009D01*
X49031905Y-114781009D02*
X48984286Y-114876247D01*
D12*
%TO.C,C15*%
X61300085Y-103815580D02*
X61300085Y-103534420D01*
X62320085Y-103815580D02*
X62320085Y-103534420D01*
%TO.C,L2*%
X63190000Y-93560000D02*
X63190000Y-87940000D01*
X69310000Y-87940000D02*
X69310000Y-93560000D01*
%TO.C,R8*%
X76332257Y-113382500D02*
X75857741Y-113382500D01*
X76332257Y-114427500D02*
X75857741Y-114427500D01*
%TO.C,R14*%
X59552585Y-98162258D02*
X59552585Y-97687742D01*
X60597585Y-98162258D02*
X60597585Y-97687742D01*
%TO.C,C9*%
X55200665Y-114629999D02*
X54919505Y-114629999D01*
X55200665Y-115649999D02*
X54919505Y-115649999D01*
%TO.C,Q2*%
X49550085Y-94402500D02*
X55970085Y-94402500D01*
X49550085Y-101302500D02*
X55970085Y-101302500D01*
X55970085Y-94402500D02*
X55970085Y-94672500D01*
X55970085Y-101302500D02*
X55970085Y-101032500D01*
X58040085Y-101462500D02*
X57360085Y-101462500D01*
X57700085Y-100992500D01*
X58040085Y-101462500D01*
G36*
X58040085Y-101462500D02*
G01*
X57360085Y-101462500D01*
X57700085Y-100992500D01*
X58040085Y-101462500D01*
G37*
%TO.C,R16*%
X63197500Y-96412258D02*
X63197500Y-95937742D01*
X64242500Y-96412258D02*
X64242500Y-95937742D01*
D13*
%TO.C,U1*%
X54585084Y-109024999D02*
X51785084Y-109024999D01*
X56310084Y-114024999D02*
X51785084Y-114024999D01*
D12*
%TO.C,U4*%
X59440000Y-121690000D02*
X63560000Y-121690000D01*
X59440000Y-121785000D02*
X59440000Y-121690000D01*
X59440000Y-126810000D02*
X59440000Y-126715000D01*
X63560000Y-121690000D02*
X63560000Y-121785000D01*
X63560000Y-126715000D02*
X63560000Y-126810000D01*
X63560000Y-126810000D02*
X59440000Y-126810000D01*
X58900000Y-121780000D02*
X58660000Y-121450000D01*
X59140000Y-121450000D01*
X58900000Y-121780000D01*
G36*
X58900000Y-121780000D02*
G01*
X58660000Y-121450000D01*
X59140000Y-121450000D01*
X58900000Y-121780000D01*
G37*
%TO.C,Q3*%
X69575000Y-101555000D02*
X69575000Y-101825000D01*
X69575000Y-108455000D02*
X69575000Y-108185000D01*
X75995000Y-101555000D02*
X69575000Y-101555000D01*
X75995000Y-108455000D02*
X69575000Y-108455000D01*
X67845000Y-101865000D02*
X67505000Y-101395000D01*
X68185000Y-101395000D01*
X67845000Y-101865000D01*
G36*
X67845000Y-101865000D02*
G01*
X67505000Y-101395000D01*
X68185000Y-101395000D01*
X67845000Y-101865000D01*
G37*
%TO.C,R18*%
X63987258Y-127477500D02*
X63512742Y-127477500D01*
X63987258Y-128522500D02*
X63512742Y-128522500D01*
%TO.C,Q1*%
X49595000Y-101675000D02*
X56015000Y-101675000D01*
X49595000Y-108575000D02*
X56015000Y-108575000D01*
X56015000Y-101675000D02*
X56015000Y-101945000D01*
X56015000Y-108575000D02*
X56015000Y-108305000D01*
X58085000Y-108735000D02*
X57405000Y-108735000D01*
X57745000Y-108265000D01*
X58085000Y-108735000D01*
G36*
X58085000Y-108735000D02*
G01*
X57405000Y-108735000D01*
X57745000Y-108265000D01*
X58085000Y-108735000D01*
G37*
%TO.C,C10*%
X57050085Y-114550579D02*
X57050085Y-114269419D01*
X58070085Y-114550579D02*
X58070085Y-114269419D01*
%TO.C,Q4*%
X69550000Y-94222500D02*
X69550000Y-94492500D01*
X69550000Y-101122500D02*
X69550000Y-100852500D01*
X75970000Y-94222500D02*
X69550000Y-94222500D01*
X75970000Y-101122500D02*
X69550000Y-101122500D01*
X67820000Y-94532500D02*
X67480000Y-94062500D01*
X68160000Y-94062500D01*
X67820000Y-94532500D01*
G36*
X67820000Y-94532500D02*
G01*
X67480000Y-94062500D01*
X68160000Y-94062500D01*
X67820000Y-94532500D01*
G37*
%TO.C,R10*%
X75857741Y-111632500D02*
X76332257Y-111632500D01*
X75857741Y-112677500D02*
X76332257Y-112677500D01*
%TO.C,J3*%
X72870000Y-120520000D02*
X72870000Y-115330000D01*
X75630000Y-115330000D02*
X72870000Y-115330000D01*
X75630000Y-120520000D02*
X72870000Y-120520000D01*
X75630000Y-120520000D02*
X75630000Y-115330000D01*
X75630000Y-121790000D02*
X75630000Y-123170000D01*
X75630000Y-123170000D02*
X74250000Y-123170000D01*
%TO.C,C17*%
X64960000Y-106609420D02*
X64960000Y-106890580D01*
X65980000Y-106609420D02*
X65980000Y-106890580D01*
%TO.C,R12*%
X75857741Y-108977500D02*
X76332257Y-108977500D01*
X75857741Y-110022500D02*
X76332257Y-110022500D01*
%TO.C,R17*%
X63677064Y-117290000D02*
X59322936Y-117290000D01*
X63677064Y-120710000D02*
X59322936Y-120710000D01*
%TO.C,J4*%
X57560000Y-87004999D02*
X57560000Y-85624999D01*
X58940000Y-87004999D02*
X57560000Y-87004999D01*
X60210000Y-84244999D02*
X67940000Y-84244999D01*
X60210000Y-87004999D02*
X60210000Y-84244999D01*
X60210000Y-87004999D02*
X67940000Y-87004999D01*
X67940000Y-87004999D02*
X67940000Y-84244999D01*
%TO.C,C16*%
X61315085Y-98065580D02*
X61315085Y-97784420D01*
X62335085Y-98065580D02*
X62335085Y-97784420D01*
%TO.C,C19*%
X60669505Y-106915000D02*
X60950665Y-106915000D01*
X60669505Y-107935000D02*
X60950665Y-107935000D01*
%TO.C,R19*%
X73227500Y-87262742D02*
X73227500Y-87737258D01*
X74272500Y-87262742D02*
X74272500Y-87737258D01*
%TO.C,J2*%
X78870000Y-69120000D02*
X80250000Y-69120000D01*
X78870000Y-70500000D02*
X78870000Y-69120000D01*
X78870000Y-71770000D02*
X78870000Y-130300000D01*
X78870000Y-71770000D02*
X81630000Y-71770000D01*
X78870000Y-130300000D02*
X81630000Y-130300000D01*
X81630000Y-71770000D02*
X81630000Y-130300000D01*
%TO.C,C18*%
X64990000Y-96345580D02*
X64990000Y-96064420D01*
X66010000Y-96345580D02*
X66010000Y-96064420D01*
%TO.C,R13*%
X59537585Y-103912258D02*
X59537585Y-103437742D01*
X60582585Y-103912258D02*
X60582585Y-103437742D01*
%TO.C,R15*%
X63197500Y-106512742D02*
X63197500Y-106987258D01*
X64242500Y-106512742D02*
X64242500Y-106987258D01*
%TO.C,L1*%
X56190000Y-93560000D02*
X56190000Y-87940000D01*
X62310000Y-87940000D02*
X62310000Y-93560000D01*
D13*
%TO.C,U2*%
X67845000Y-109000000D02*
X72370000Y-109000000D01*
X69570000Y-114000000D02*
X72370000Y-114000000D01*
D12*
%TO.C,R5*%
X58147827Y-110367499D02*
X58622343Y-110367499D01*
X58147827Y-111412499D02*
X58622343Y-111412499D01*
%TO.C,R11*%
X65957258Y-111632500D02*
X65482742Y-111632500D01*
X65957258Y-112677500D02*
X65482742Y-112677500D01*
%TO.C,C20*%
X64860580Y-102240000D02*
X64579420Y-102240000D01*
X64860580Y-103260000D02*
X64579420Y-103260000D01*
%TO.C,J1*%
X43870000Y-69120000D02*
X45250000Y-69120000D01*
X43870000Y-70500000D02*
X43870000Y-69120000D01*
X43870000Y-71770000D02*
X43870000Y-130300000D01*
X43870000Y-71770000D02*
X46630000Y-71770000D01*
X43870000Y-130300000D02*
X46630000Y-130300000D01*
X46630000Y-71770000D02*
X46630000Y-130300000D01*
%TO.C,C23*%
X63609420Y-129240000D02*
X63890580Y-129240000D01*
X63609420Y-130260000D02*
X63890580Y-130260000D01*
%TO.C,R6*%
X48247500Y-112837258D02*
X48247500Y-112362742D01*
X49292500Y-112837258D02*
X49292500Y-112362742D01*
%TD*%
M02*
