%TF.GenerationSoftware,KiCad,Pcbnew,9.0.6*%
%TF.CreationDate,2026-03-23T19:00:04-04:00*%
%TF.ProjectId,TX,54582e6b-6963-4616-945f-706362585858,rev?*%
%TF.SameCoordinates,Original*%
%TF.FileFunction,Soldermask,Top*%
%TF.FilePolarity,Negative*%
%FSLAX46Y46*%
G04 Gerber Fmt 4.6, Leading zero omitted, Abs format (unit mm)*
G04 Created by KiCad (PCBNEW 9.0.6) date 2026-03-23 19:00:04*
%MOMM*%
%LPD*%
G01*
G04 APERTURE LIST*
G04 Aperture macros list*
%AMRoundRect*
0 Rectangle with rounded corners*
0 $1 Rounding radius*
0 $2 $3 $4 $5 $6 $7 $8 $9 X,Y pos of 4 corners*
0 Add a 4 corners polygon primitive as box body*
4,1,4,$2,$3,$4,$5,$6,$7,$8,$9,$2,$3,0*
0 Add four circle primitives for the rounded corners*
1,1,$1+$1,$2,$3*
1,1,$1+$1,$4,$5*
1,1,$1+$1,$6,$7*
1,1,$1+$1,$8,$9*
0 Add four rect primitives between the rounded corners*
20,1,$1+$1,$2,$3,$4,$5,0*
20,1,$1+$1,$4,$5,$6,$7,0*
20,1,$1+$1,$6,$7,$8,$9,0*
20,1,$1+$1,$8,$9,$2,$3,0*%
G04 Aperture macros list end*
%ADD10C,0.000000*%
%ADD11RoundRect,0.225000X0.250000X-0.225000X0.250000X0.225000X-0.250000X0.225000X-0.250000X-0.225000X0*%
%ADD12RoundRect,0.250000X2.550000X-0.600000X2.550000X0.600000X-2.550000X0.600000X-2.550000X-0.600000X0*%
%ADD13RoundRect,0.200000X0.200000X0.275000X-0.200000X0.275000X-0.200000X-0.275000X0.200000X-0.275000X0*%
%ADD14RoundRect,0.200000X0.275000X-0.200000X0.275000X0.200000X-0.275000X0.200000X-0.275000X-0.200000X0*%
%ADD15RoundRect,0.225000X0.225000X0.250000X-0.225000X0.250000X-0.225000X-0.250000X0.225000X-0.250000X0*%
%ADD16RoundRect,0.250000X0.850000X0.350000X-0.850000X0.350000X-0.850000X-0.350000X0.850000X-0.350000X0*%
%ADD17RoundRect,0.249997X2.950003X2.650003X-2.950003X2.650003X-2.950003X-2.650003X2.950003X-2.650003X0*%
%ADD18R,1.250000X0.549999*%
%ADD19C,0.499999*%
%ADD20RoundRect,0.150000X-0.825000X-0.150000X0.825000X-0.150000X0.825000X0.150000X-0.825000X0.150000X0*%
%ADD21RoundRect,0.250000X-0.850000X-0.350000X0.850000X-0.350000X0.850000X0.350000X-0.850000X0.350000X0*%
%ADD22RoundRect,0.249997X-2.950003X-2.650003X2.950003X-2.650003X2.950003X2.650003X-2.950003X2.650003X0*%
%ADD23RoundRect,0.200000X-0.200000X-0.275000X0.200000X-0.275000X0.200000X0.275000X-0.200000X0.275000X0*%
%ADD24R,1.700000X1.700000*%
%ADD25C,1.700000*%
%ADD26RoundRect,0.225000X-0.250000X0.225000X-0.250000X-0.225000X0.250000X-0.225000X0.250000X0.225000X0*%
%ADD27RoundRect,0.250000X0.362500X1.425000X-0.362500X1.425000X-0.362500X-1.425000X0.362500X-1.425000X0*%
%ADD28RoundRect,0.225000X-0.225000X-0.250000X0.225000X-0.250000X0.225000X0.250000X-0.225000X0.250000X0*%
%ADD29RoundRect,0.200000X-0.275000X0.200000X-0.275000X-0.200000X0.275000X-0.200000X0.275000X0.200000X0*%
G04 APERTURE END LIST*
D10*
%TO.C,U1*%
G36*
X54346448Y-109975922D02*
G01*
X54355452Y-109978652D01*
X54363751Y-109983089D01*
X54371025Y-109989058D01*
X54376994Y-109996333D01*
X54381432Y-110004631D01*
X54384162Y-110013636D01*
X54385084Y-110023000D01*
X54385084Y-113026998D01*
X54384162Y-113036362D01*
X54381432Y-113045367D01*
X54376994Y-113053665D01*
X54371025Y-113060940D01*
X54363751Y-113066909D01*
X54355452Y-113071346D01*
X54346448Y-113074076D01*
X54337083Y-113074998D01*
X52033085Y-113074998D01*
X52023720Y-113074076D01*
X52014716Y-113071346D01*
X52006417Y-113066909D01*
X51999143Y-113060940D01*
X51993174Y-113053665D01*
X51988736Y-113045367D01*
X51986006Y-113036362D01*
X51985084Y-113026998D01*
X51985084Y-110023000D01*
X51986006Y-110013636D01*
X51988736Y-110004631D01*
X51993174Y-109996333D01*
X51999143Y-109989058D01*
X52006417Y-109983089D01*
X52014716Y-109978652D01*
X52023720Y-109975922D01*
X52033085Y-109975000D01*
X54337083Y-109975000D01*
X54346448Y-109975922D01*
G37*
%TO.C,U2*%
G36*
X72131364Y-109950923D02*
G01*
X72140368Y-109953653D01*
X72148667Y-109958090D01*
X72155941Y-109964059D01*
X72161910Y-109971334D01*
X72166348Y-109979632D01*
X72169078Y-109988637D01*
X72170000Y-109998001D01*
X72170000Y-113001999D01*
X72169078Y-113011363D01*
X72166348Y-113020368D01*
X72161910Y-113028666D01*
X72155941Y-113035941D01*
X72148667Y-113041910D01*
X72140368Y-113046347D01*
X72131364Y-113049077D01*
X72121999Y-113049999D01*
X69818001Y-113049999D01*
X69808636Y-113049077D01*
X69799632Y-113046347D01*
X69791333Y-113041910D01*
X69784059Y-113035941D01*
X69778090Y-113028666D01*
X69773652Y-113020368D01*
X69770922Y-113011363D01*
X69770000Y-113001999D01*
X69770000Y-109998001D01*
X69770922Y-109988637D01*
X69773652Y-109979632D01*
X69778090Y-109971334D01*
X69784059Y-109964059D01*
X69791333Y-109958090D01*
X69799632Y-109953653D01*
X69808636Y-109950923D01*
X69818001Y-109950001D01*
X72121999Y-109950001D01*
X72131364Y-109950923D01*
G37*
%TD*%
D11*
%TO.C,C15*%
X61810085Y-104450000D03*
X61810085Y-102900000D03*
%TD*%
D12*
%TO.C,L2*%
X66250000Y-92700000D03*
X66250000Y-88800000D03*
%TD*%
D13*
%TO.C,R8*%
X76919999Y-113905000D03*
X75269999Y-113905000D03*
%TD*%
D14*
%TO.C,R14*%
X60075085Y-98750000D03*
X60075085Y-97100000D03*
%TD*%
D15*
%TO.C,C9*%
X55835085Y-115139999D03*
X54285085Y-115139999D03*
%TD*%
D16*
%TO.C,Q2*%
X57700085Y-100132500D03*
X57700085Y-97852500D03*
D17*
X51400085Y-97852500D03*
D16*
X57700085Y-95572500D03*
%TD*%
D14*
%TO.C,R16*%
X63720000Y-97000000D03*
X63720000Y-95350000D03*
%TD*%
D18*
%TO.C,U1*%
X55810085Y-113429999D03*
X55810085Y-112159999D03*
X55810085Y-110889999D03*
X55810085Y-109619999D03*
X50560085Y-109619999D03*
X50560085Y-110889999D03*
X50560085Y-112159999D03*
X50560085Y-113429999D03*
D19*
X53735083Y-113475000D03*
X53735083Y-112175000D03*
X53735083Y-110874998D03*
X53735083Y-109574998D03*
X52635083Y-113475000D03*
X52635083Y-112175000D03*
X52635083Y-110874998D03*
X52635083Y-109574998D03*
%TD*%
D20*
%TO.C,U4*%
X59025000Y-122345000D03*
X59025000Y-123615000D03*
X59025000Y-124885000D03*
X59025000Y-126155000D03*
X63975000Y-126155000D03*
X63975000Y-124885000D03*
X63975000Y-123615000D03*
X63975000Y-122345000D03*
%TD*%
D21*
%TO.C,Q3*%
X67845000Y-102725000D03*
X67845000Y-105005000D03*
D22*
X74145000Y-105005000D03*
D21*
X67845000Y-107285000D03*
%TD*%
D13*
%TO.C,R18*%
X64575000Y-128000000D03*
X62925000Y-128000000D03*
%TD*%
D16*
%TO.C,Q1*%
X57745000Y-107405000D03*
X57745000Y-105125000D03*
D17*
X51445000Y-105125000D03*
D16*
X57745000Y-102845000D03*
%TD*%
D11*
%TO.C,C10*%
X57560085Y-115184999D03*
X57560085Y-113634999D03*
%TD*%
D21*
%TO.C,Q4*%
X67820000Y-95392500D03*
X67820000Y-97672500D03*
D22*
X74120000Y-97672500D03*
D21*
X67820000Y-99952500D03*
%TD*%
D23*
%TO.C,R10*%
X75269999Y-112155000D03*
X76919999Y-112155000D03*
%TD*%
D24*
%TO.C,J3*%
X74250000Y-121790000D03*
D25*
X74250000Y-119250000D03*
X74250000Y-116710000D03*
%TD*%
D26*
%TO.C,C17*%
X65470000Y-105975000D03*
X65470000Y-107525000D03*
%TD*%
D23*
%TO.C,R12*%
X75269999Y-109500000D03*
X76919999Y-109500000D03*
%TD*%
D27*
%TO.C,R17*%
X64462500Y-119000000D03*
X58537500Y-119000000D03*
%TD*%
D24*
%TO.C,J4*%
X58940000Y-85624999D03*
D25*
X61480000Y-85624999D03*
X64020000Y-85624999D03*
X66560000Y-85624999D03*
%TD*%
D11*
%TO.C,C16*%
X61825085Y-98700000D03*
X61825085Y-97150000D03*
%TD*%
D28*
%TO.C,C19*%
X60035085Y-107425000D03*
X61585085Y-107425000D03*
%TD*%
D29*
%TO.C,R19*%
X73750000Y-86675000D03*
X73750000Y-88325000D03*
%TD*%
D24*
%TO.C,J2*%
X80250000Y-70500000D03*
D25*
X80250000Y-73040000D03*
X80250000Y-75580000D03*
X80250000Y-78120000D03*
X80250000Y-80660000D03*
X80250000Y-83200000D03*
X80250000Y-85740000D03*
X80250000Y-88280000D03*
X80250000Y-90820000D03*
X80250000Y-93360000D03*
X80250000Y-95900000D03*
X80250000Y-98440000D03*
X80250000Y-100980000D03*
X80250000Y-103520000D03*
X80250000Y-106060000D03*
X80250000Y-108600000D03*
X80250000Y-111140000D03*
X80250000Y-113680000D03*
X80250000Y-116220000D03*
X80250000Y-118760000D03*
X80250000Y-121300000D03*
X80250000Y-123840000D03*
X80250000Y-126380000D03*
X80250000Y-128920000D03*
%TD*%
D11*
%TO.C,C18*%
X65500000Y-96980000D03*
X65500000Y-95430000D03*
%TD*%
D14*
%TO.C,R13*%
X60060085Y-104500000D03*
X60060085Y-102850000D03*
%TD*%
D29*
%TO.C,R15*%
X63720000Y-105925000D03*
X63720000Y-107575000D03*
%TD*%
D12*
%TO.C,L1*%
X59250000Y-92700000D03*
X59250000Y-88800000D03*
%TD*%
D18*
%TO.C,U2*%
X68344999Y-109595000D03*
X68344999Y-110865000D03*
X68344999Y-112135000D03*
X68344999Y-113405000D03*
X73594999Y-113405000D03*
X73594999Y-112135000D03*
X73594999Y-110865000D03*
X73594999Y-109595000D03*
D19*
X70420001Y-109549999D03*
X70420001Y-110849999D03*
X70420001Y-112150001D03*
X70420001Y-113450001D03*
X71520001Y-109549999D03*
X71520001Y-110849999D03*
X71520001Y-112150001D03*
X71520001Y-113450001D03*
%TD*%
D23*
%TO.C,R5*%
X57560085Y-110889999D03*
X59210085Y-110889999D03*
%TD*%
D13*
%TO.C,R11*%
X66545000Y-112155000D03*
X64895000Y-112155000D03*
%TD*%
D15*
%TO.C,C20*%
X65495000Y-102750000D03*
X63945000Y-102750000D03*
%TD*%
D24*
%TO.C,J1*%
X45250000Y-70500000D03*
D25*
X45250000Y-73040000D03*
X45250000Y-75580000D03*
X45250000Y-78120000D03*
X45250000Y-80660000D03*
X45250000Y-83200000D03*
X45250000Y-85740000D03*
X45250000Y-88280000D03*
X45250000Y-90820000D03*
X45250000Y-93360000D03*
X45250000Y-95900000D03*
X45250000Y-98440000D03*
X45250000Y-100980000D03*
X45250000Y-103520000D03*
X45250000Y-106060000D03*
X45250000Y-108600000D03*
X45250000Y-111140000D03*
X45250000Y-113680000D03*
X45250000Y-116220000D03*
X45250000Y-118760000D03*
X45250000Y-121300000D03*
X45250000Y-123840000D03*
X45250000Y-126380000D03*
X45250000Y-128920000D03*
%TD*%
D28*
%TO.C,C23*%
X62975000Y-129750000D03*
X64525000Y-129750000D03*
%TD*%
D14*
%TO.C,R6*%
X48770000Y-113425000D03*
X48770000Y-111775000D03*
%TD*%
M02*
