%TF.GenerationSoftware,KiCad,Pcbnew,9.0.6*%
%TF.CreationDate,2026-03-18T18:00:47-04:00*%
%TF.ProjectId,SENSOR,53454e53-4f52-42e6-9b69-6361645f7063,rev?*%
%TF.SameCoordinates,Original*%
%TF.FileFunction,Legend,Bot*%
%TF.FilePolarity,Positive*%
%FSLAX46Y46*%
G04 Gerber Fmt 4.6, Leading zero omitted, Abs format (unit mm)*
G04 Created by KiCad (PCBNEW 9.0.6) date 2026-03-18 18:00:47*
%MOMM*%
%LPD*%
G01*
G04 APERTURE LIST*
%ADD10C,0.200000*%
G04 APERTURE END LIST*
D10*
X157927945Y-125099712D02*
X157785088Y-125147331D01*
X157785088Y-125147331D02*
X157546993Y-125147331D01*
X157546993Y-125147331D02*
X157451755Y-125099712D01*
X157451755Y-125099712D02*
X157404136Y-125052092D01*
X157404136Y-125052092D02*
X157356517Y-124956854D01*
X157356517Y-124956854D02*
X157356517Y-124861616D01*
X157356517Y-124861616D02*
X157404136Y-124766378D01*
X157404136Y-124766378D02*
X157451755Y-124718759D01*
X157451755Y-124718759D02*
X157546993Y-124671140D01*
X157546993Y-124671140D02*
X157737469Y-124623521D01*
X157737469Y-124623521D02*
X157832707Y-124575902D01*
X157832707Y-124575902D02*
X157880326Y-124528283D01*
X157880326Y-124528283D02*
X157927945Y-124433045D01*
X157927945Y-124433045D02*
X157927945Y-124337807D01*
X157927945Y-124337807D02*
X157880326Y-124242569D01*
X157880326Y-124242569D02*
X157832707Y-124194950D01*
X157832707Y-124194950D02*
X157737469Y-124147331D01*
X157737469Y-124147331D02*
X157499374Y-124147331D01*
X157499374Y-124147331D02*
X157356517Y-124194950D01*
X156927945Y-124623521D02*
X156594612Y-124623521D01*
X156451755Y-125147331D02*
X156927945Y-125147331D01*
X156927945Y-125147331D02*
X156927945Y-124147331D01*
X156927945Y-124147331D02*
X156451755Y-124147331D01*
X156023183Y-125147331D02*
X156023183Y-124147331D01*
X156023183Y-124147331D02*
X155451755Y-125147331D01*
X155451755Y-125147331D02*
X155451755Y-124147331D01*
X155023183Y-125099712D02*
X154880326Y-125147331D01*
X154880326Y-125147331D02*
X154642231Y-125147331D01*
X154642231Y-125147331D02*
X154546993Y-125099712D01*
X154546993Y-125099712D02*
X154499374Y-125052092D01*
X154499374Y-125052092D02*
X154451755Y-124956854D01*
X154451755Y-124956854D02*
X154451755Y-124861616D01*
X154451755Y-124861616D02*
X154499374Y-124766378D01*
X154499374Y-124766378D02*
X154546993Y-124718759D01*
X154546993Y-124718759D02*
X154642231Y-124671140D01*
X154642231Y-124671140D02*
X154832707Y-124623521D01*
X154832707Y-124623521D02*
X154927945Y-124575902D01*
X154927945Y-124575902D02*
X154975564Y-124528283D01*
X154975564Y-124528283D02*
X155023183Y-124433045D01*
X155023183Y-124433045D02*
X155023183Y-124337807D01*
X155023183Y-124337807D02*
X154975564Y-124242569D01*
X154975564Y-124242569D02*
X154927945Y-124194950D01*
X154927945Y-124194950D02*
X154832707Y-124147331D01*
X154832707Y-124147331D02*
X154594612Y-124147331D01*
X154594612Y-124147331D02*
X154451755Y-124194950D01*
X153832707Y-124147331D02*
X153642231Y-124147331D01*
X153642231Y-124147331D02*
X153546993Y-124194950D01*
X153546993Y-124194950D02*
X153451755Y-124290188D01*
X153451755Y-124290188D02*
X153404136Y-124480664D01*
X153404136Y-124480664D02*
X153404136Y-124813997D01*
X153404136Y-124813997D02*
X153451755Y-125004473D01*
X153451755Y-125004473D02*
X153546993Y-125099712D01*
X153546993Y-125099712D02*
X153642231Y-125147331D01*
X153642231Y-125147331D02*
X153832707Y-125147331D01*
X153832707Y-125147331D02*
X153927945Y-125099712D01*
X153927945Y-125099712D02*
X154023183Y-125004473D01*
X154023183Y-125004473D02*
X154070802Y-124813997D01*
X154070802Y-124813997D02*
X154070802Y-124480664D01*
X154070802Y-124480664D02*
X154023183Y-124290188D01*
X154023183Y-124290188D02*
X153927945Y-124194950D01*
X153927945Y-124194950D02*
X153832707Y-124147331D01*
X152404136Y-125147331D02*
X152737469Y-124671140D01*
X152975564Y-125147331D02*
X152975564Y-124147331D01*
X152975564Y-124147331D02*
X152594612Y-124147331D01*
X152594612Y-124147331D02*
X152499374Y-124194950D01*
X152499374Y-124194950D02*
X152451755Y-124242569D01*
X152451755Y-124242569D02*
X152404136Y-124337807D01*
X152404136Y-124337807D02*
X152404136Y-124480664D01*
X152404136Y-124480664D02*
X152451755Y-124575902D01*
X152451755Y-124575902D02*
X152499374Y-124623521D01*
X152499374Y-124623521D02*
X152594612Y-124671140D01*
X152594612Y-124671140D02*
X152975564Y-124671140D01*
X150880326Y-124623521D02*
X150737469Y-124671140D01*
X150737469Y-124671140D02*
X150689850Y-124718759D01*
X150689850Y-124718759D02*
X150642231Y-124813997D01*
X150642231Y-124813997D02*
X150642231Y-124956854D01*
X150642231Y-124956854D02*
X150689850Y-125052092D01*
X150689850Y-125052092D02*
X150737469Y-125099712D01*
X150737469Y-125099712D02*
X150832707Y-125147331D01*
X150832707Y-125147331D02*
X151213659Y-125147331D01*
X151213659Y-125147331D02*
X151213659Y-124147331D01*
X151213659Y-124147331D02*
X150880326Y-124147331D01*
X150880326Y-124147331D02*
X150785088Y-124194950D01*
X150785088Y-124194950D02*
X150737469Y-124242569D01*
X150737469Y-124242569D02*
X150689850Y-124337807D01*
X150689850Y-124337807D02*
X150689850Y-124433045D01*
X150689850Y-124433045D02*
X150737469Y-124528283D01*
X150737469Y-124528283D02*
X150785088Y-124575902D01*
X150785088Y-124575902D02*
X150880326Y-124623521D01*
X150880326Y-124623521D02*
X151213659Y-124623521D01*
X150023183Y-124147331D02*
X149832707Y-124147331D01*
X149832707Y-124147331D02*
X149737469Y-124194950D01*
X149737469Y-124194950D02*
X149642231Y-124290188D01*
X149642231Y-124290188D02*
X149594612Y-124480664D01*
X149594612Y-124480664D02*
X149594612Y-124813997D01*
X149594612Y-124813997D02*
X149642231Y-125004473D01*
X149642231Y-125004473D02*
X149737469Y-125099712D01*
X149737469Y-125099712D02*
X149832707Y-125147331D01*
X149832707Y-125147331D02*
X150023183Y-125147331D01*
X150023183Y-125147331D02*
X150118421Y-125099712D01*
X150118421Y-125099712D02*
X150213659Y-125004473D01*
X150213659Y-125004473D02*
X150261278Y-124813997D01*
X150261278Y-124813997D02*
X150261278Y-124480664D01*
X150261278Y-124480664D02*
X150213659Y-124290188D01*
X150213659Y-124290188D02*
X150118421Y-124194950D01*
X150118421Y-124194950D02*
X150023183Y-124147331D01*
X149213659Y-124861616D02*
X148737469Y-124861616D01*
X149308897Y-125147331D02*
X148975564Y-124147331D01*
X148975564Y-124147331D02*
X148642231Y-125147331D01*
X147737469Y-125147331D02*
X148070802Y-124671140D01*
X148308897Y-125147331D02*
X148308897Y-124147331D01*
X148308897Y-124147331D02*
X147927945Y-124147331D01*
X147927945Y-124147331D02*
X147832707Y-124194950D01*
X147832707Y-124194950D02*
X147785088Y-124242569D01*
X147785088Y-124242569D02*
X147737469Y-124337807D01*
X147737469Y-124337807D02*
X147737469Y-124480664D01*
X147737469Y-124480664D02*
X147785088Y-124575902D01*
X147785088Y-124575902D02*
X147832707Y-124623521D01*
X147832707Y-124623521D02*
X147927945Y-124671140D01*
X147927945Y-124671140D02*
X148308897Y-124671140D01*
X147308897Y-125147331D02*
X147308897Y-124147331D01*
X147308897Y-124147331D02*
X147070802Y-124147331D01*
X147070802Y-124147331D02*
X146927945Y-124194950D01*
X146927945Y-124194950D02*
X146832707Y-124290188D01*
X146832707Y-124290188D02*
X146785088Y-124385426D01*
X146785088Y-124385426D02*
X146737469Y-124575902D01*
X146737469Y-124575902D02*
X146737469Y-124718759D01*
X146737469Y-124718759D02*
X146785088Y-124909235D01*
X146785088Y-124909235D02*
X146832707Y-125004473D01*
X146832707Y-125004473D02*
X146927945Y-125099712D01*
X146927945Y-125099712D02*
X147070802Y-125147331D01*
X147070802Y-125147331D02*
X147308897Y-125147331D01*
X157308898Y-126757275D02*
X157642231Y-126281084D01*
X157880326Y-126757275D02*
X157880326Y-125757275D01*
X157880326Y-125757275D02*
X157499374Y-125757275D01*
X157499374Y-125757275D02*
X157404136Y-125804894D01*
X157404136Y-125804894D02*
X157356517Y-125852513D01*
X157356517Y-125852513D02*
X157308898Y-125947751D01*
X157308898Y-125947751D02*
X157308898Y-126090608D01*
X157308898Y-126090608D02*
X157356517Y-126185846D01*
X157356517Y-126185846D02*
X157404136Y-126233465D01*
X157404136Y-126233465D02*
X157499374Y-126281084D01*
X157499374Y-126281084D02*
X157880326Y-126281084D01*
X156880326Y-126233465D02*
X156546993Y-126233465D01*
X156404136Y-126757275D02*
X156880326Y-126757275D01*
X156880326Y-126757275D02*
X156880326Y-125757275D01*
X156880326Y-125757275D02*
X156404136Y-125757275D01*
X156118421Y-125757275D02*
X155785088Y-126757275D01*
X155785088Y-126757275D02*
X155451755Y-125757275D01*
X154594612Y-126757275D02*
X155166040Y-126757275D01*
X154880326Y-126757275D02*
X154880326Y-125757275D01*
X154880326Y-125757275D02*
X154975564Y-125900132D01*
X154975564Y-125900132D02*
X155070802Y-125995370D01*
X155070802Y-125995370D02*
X155166040Y-126042989D01*
X153213659Y-125757275D02*
X153118421Y-125757275D01*
X153118421Y-125757275D02*
X153023183Y-125804894D01*
X153023183Y-125804894D02*
X152975564Y-125852513D01*
X152975564Y-125852513D02*
X152927945Y-125947751D01*
X152927945Y-125947751D02*
X152880326Y-126138227D01*
X152880326Y-126138227D02*
X152880326Y-126376322D01*
X152880326Y-126376322D02*
X152927945Y-126566798D01*
X152927945Y-126566798D02*
X152975564Y-126662036D01*
X152975564Y-126662036D02*
X153023183Y-126709656D01*
X153023183Y-126709656D02*
X153118421Y-126757275D01*
X153118421Y-126757275D02*
X153213659Y-126757275D01*
X153213659Y-126757275D02*
X153308897Y-126709656D01*
X153308897Y-126709656D02*
X153356516Y-126662036D01*
X153356516Y-126662036D02*
X153404135Y-126566798D01*
X153404135Y-126566798D02*
X153451754Y-126376322D01*
X153451754Y-126376322D02*
X153451754Y-126138227D01*
X153451754Y-126138227D02*
X153404135Y-125947751D01*
X153404135Y-125947751D02*
X153356516Y-125852513D01*
X153356516Y-125852513D02*
X153308897Y-125804894D01*
X153308897Y-125804894D02*
X153213659Y-125757275D01*
X152546992Y-125757275D02*
X151927945Y-125757275D01*
X151927945Y-125757275D02*
X152261278Y-126138227D01*
X152261278Y-126138227D02*
X152118421Y-126138227D01*
X152118421Y-126138227D02*
X152023183Y-126185846D01*
X152023183Y-126185846D02*
X151975564Y-126233465D01*
X151975564Y-126233465D02*
X151927945Y-126328703D01*
X151927945Y-126328703D02*
X151927945Y-126566798D01*
X151927945Y-126566798D02*
X151975564Y-126662036D01*
X151975564Y-126662036D02*
X152023183Y-126709656D01*
X152023183Y-126709656D02*
X152118421Y-126757275D01*
X152118421Y-126757275D02*
X152404135Y-126757275D01*
X152404135Y-126757275D02*
X152499373Y-126709656D01*
X152499373Y-126709656D02*
X152546992Y-126662036D01*
X150785088Y-125709656D02*
X151642230Y-126995370D01*
X150499373Y-125852513D02*
X150451754Y-125804894D01*
X150451754Y-125804894D02*
X150356516Y-125757275D01*
X150356516Y-125757275D02*
X150118421Y-125757275D01*
X150118421Y-125757275D02*
X150023183Y-125804894D01*
X150023183Y-125804894D02*
X149975564Y-125852513D01*
X149975564Y-125852513D02*
X149927945Y-125947751D01*
X149927945Y-125947751D02*
X149927945Y-126042989D01*
X149927945Y-126042989D02*
X149975564Y-126185846D01*
X149975564Y-126185846D02*
X150546992Y-126757275D01*
X150546992Y-126757275D02*
X149927945Y-126757275D01*
X149308897Y-125757275D02*
X149213659Y-125757275D01*
X149213659Y-125757275D02*
X149118421Y-125804894D01*
X149118421Y-125804894D02*
X149070802Y-125852513D01*
X149070802Y-125852513D02*
X149023183Y-125947751D01*
X149023183Y-125947751D02*
X148975564Y-126138227D01*
X148975564Y-126138227D02*
X148975564Y-126376322D01*
X148975564Y-126376322D02*
X149023183Y-126566798D01*
X149023183Y-126566798D02*
X149070802Y-126662036D01*
X149070802Y-126662036D02*
X149118421Y-126709656D01*
X149118421Y-126709656D02*
X149213659Y-126757275D01*
X149213659Y-126757275D02*
X149308897Y-126757275D01*
X149308897Y-126757275D02*
X149404135Y-126709656D01*
X149404135Y-126709656D02*
X149451754Y-126662036D01*
X149451754Y-126662036D02*
X149499373Y-126566798D01*
X149499373Y-126566798D02*
X149546992Y-126376322D01*
X149546992Y-126376322D02*
X149546992Y-126138227D01*
X149546992Y-126138227D02*
X149499373Y-125947751D01*
X149499373Y-125947751D02*
X149451754Y-125852513D01*
X149451754Y-125852513D02*
X149404135Y-125804894D01*
X149404135Y-125804894D02*
X149308897Y-125757275D01*
X148594611Y-125852513D02*
X148546992Y-125804894D01*
X148546992Y-125804894D02*
X148451754Y-125757275D01*
X148451754Y-125757275D02*
X148213659Y-125757275D01*
X148213659Y-125757275D02*
X148118421Y-125804894D01*
X148118421Y-125804894D02*
X148070802Y-125852513D01*
X148070802Y-125852513D02*
X148023183Y-125947751D01*
X148023183Y-125947751D02*
X148023183Y-126042989D01*
X148023183Y-126042989D02*
X148070802Y-126185846D01*
X148070802Y-126185846D02*
X148642230Y-126757275D01*
X148642230Y-126757275D02*
X148023183Y-126757275D01*
X147166040Y-125757275D02*
X147356516Y-125757275D01*
X147356516Y-125757275D02*
X147451754Y-125804894D01*
X147451754Y-125804894D02*
X147499373Y-125852513D01*
X147499373Y-125852513D02*
X147594611Y-125995370D01*
X147594611Y-125995370D02*
X147642230Y-126185846D01*
X147642230Y-126185846D02*
X147642230Y-126566798D01*
X147642230Y-126566798D02*
X147594611Y-126662036D01*
X147594611Y-126662036D02*
X147546992Y-126709656D01*
X147546992Y-126709656D02*
X147451754Y-126757275D01*
X147451754Y-126757275D02*
X147261278Y-126757275D01*
X147261278Y-126757275D02*
X147166040Y-126709656D01*
X147166040Y-126709656D02*
X147118421Y-126662036D01*
X147118421Y-126662036D02*
X147070802Y-126566798D01*
X147070802Y-126566798D02*
X147070802Y-126328703D01*
X147070802Y-126328703D02*
X147118421Y-126233465D01*
X147118421Y-126233465D02*
X147166040Y-126185846D01*
X147166040Y-126185846D02*
X147261278Y-126138227D01*
X147261278Y-126138227D02*
X147451754Y-126138227D01*
X147451754Y-126138227D02*
X147546992Y-126185846D01*
X147546992Y-126185846D02*
X147594611Y-126233465D01*
X147594611Y-126233465D02*
X147642230Y-126328703D01*
X157546993Y-127843409D02*
X157404136Y-127891028D01*
X157404136Y-127891028D02*
X157356517Y-127938647D01*
X157356517Y-127938647D02*
X157308898Y-128033885D01*
X157308898Y-128033885D02*
X157308898Y-128176742D01*
X157308898Y-128176742D02*
X157356517Y-128271980D01*
X157356517Y-128271980D02*
X157404136Y-128319600D01*
X157404136Y-128319600D02*
X157499374Y-128367219D01*
X157499374Y-128367219D02*
X157880326Y-128367219D01*
X157880326Y-128367219D02*
X157880326Y-127367219D01*
X157880326Y-127367219D02*
X157546993Y-127367219D01*
X157546993Y-127367219D02*
X157451755Y-127414838D01*
X157451755Y-127414838D02*
X157404136Y-127462457D01*
X157404136Y-127462457D02*
X157356517Y-127557695D01*
X157356517Y-127557695D02*
X157356517Y-127652933D01*
X157356517Y-127652933D02*
X157404136Y-127748171D01*
X157404136Y-127748171D02*
X157451755Y-127795790D01*
X157451755Y-127795790D02*
X157546993Y-127843409D01*
X157546993Y-127843409D02*
X157880326Y-127843409D01*
X156975564Y-127700552D02*
X156737469Y-128367219D01*
X156499374Y-127700552D02*
X156737469Y-128367219D01*
X156737469Y-128367219D02*
X156832707Y-128605314D01*
X156832707Y-128605314D02*
X156880326Y-128652933D01*
X156880326Y-128652933D02*
X156975564Y-128700552D01*
X155404135Y-128319600D02*
X155261278Y-128367219D01*
X155261278Y-128367219D02*
X155023183Y-128367219D01*
X155023183Y-128367219D02*
X154927945Y-128319600D01*
X154927945Y-128319600D02*
X154880326Y-128271980D01*
X154880326Y-128271980D02*
X154832707Y-128176742D01*
X154832707Y-128176742D02*
X154832707Y-128081504D01*
X154832707Y-128081504D02*
X154880326Y-127986266D01*
X154880326Y-127986266D02*
X154927945Y-127938647D01*
X154927945Y-127938647D02*
X155023183Y-127891028D01*
X155023183Y-127891028D02*
X155213659Y-127843409D01*
X155213659Y-127843409D02*
X155308897Y-127795790D01*
X155308897Y-127795790D02*
X155356516Y-127748171D01*
X155356516Y-127748171D02*
X155404135Y-127652933D01*
X155404135Y-127652933D02*
X155404135Y-127557695D01*
X155404135Y-127557695D02*
X155356516Y-127462457D01*
X155356516Y-127462457D02*
X155308897Y-127414838D01*
X155308897Y-127414838D02*
X155213659Y-127367219D01*
X155213659Y-127367219D02*
X154975564Y-127367219D01*
X154975564Y-127367219D02*
X154832707Y-127414838D01*
X153975564Y-128367219D02*
X153975564Y-127843409D01*
X153975564Y-127843409D02*
X154023183Y-127748171D01*
X154023183Y-127748171D02*
X154118421Y-127700552D01*
X154118421Y-127700552D02*
X154308897Y-127700552D01*
X154308897Y-127700552D02*
X154404135Y-127748171D01*
X153975564Y-128319600D02*
X154070802Y-128367219D01*
X154070802Y-128367219D02*
X154308897Y-128367219D01*
X154308897Y-128367219D02*
X154404135Y-128319600D01*
X154404135Y-128319600D02*
X154451754Y-128224361D01*
X154451754Y-128224361D02*
X154451754Y-128129123D01*
X154451754Y-128129123D02*
X154404135Y-128033885D01*
X154404135Y-128033885D02*
X154308897Y-127986266D01*
X154308897Y-127986266D02*
X154070802Y-127986266D01*
X154070802Y-127986266D02*
X153975564Y-127938647D01*
X153499373Y-128367219D02*
X153499373Y-127700552D01*
X153499373Y-127795790D02*
X153451754Y-127748171D01*
X153451754Y-127748171D02*
X153356516Y-127700552D01*
X153356516Y-127700552D02*
X153213659Y-127700552D01*
X153213659Y-127700552D02*
X153118421Y-127748171D01*
X153118421Y-127748171D02*
X153070802Y-127843409D01*
X153070802Y-127843409D02*
X153070802Y-128367219D01*
X153070802Y-127843409D02*
X153023183Y-127748171D01*
X153023183Y-127748171D02*
X152927945Y-127700552D01*
X152927945Y-127700552D02*
X152785088Y-127700552D01*
X152785088Y-127700552D02*
X152689849Y-127748171D01*
X152689849Y-127748171D02*
X152642230Y-127843409D01*
X152642230Y-127843409D02*
X152642230Y-128367219D01*
X151737469Y-128367219D02*
X151737469Y-127843409D01*
X151737469Y-127843409D02*
X151785088Y-127748171D01*
X151785088Y-127748171D02*
X151880326Y-127700552D01*
X151880326Y-127700552D02*
X152070802Y-127700552D01*
X152070802Y-127700552D02*
X152166040Y-127748171D01*
X151737469Y-128319600D02*
X151832707Y-128367219D01*
X151832707Y-128367219D02*
X152070802Y-128367219D01*
X152070802Y-128367219D02*
X152166040Y-128319600D01*
X152166040Y-128319600D02*
X152213659Y-128224361D01*
X152213659Y-128224361D02*
X152213659Y-128129123D01*
X152213659Y-128129123D02*
X152166040Y-128033885D01*
X152166040Y-128033885D02*
X152070802Y-127986266D01*
X152070802Y-127986266D02*
X151832707Y-127986266D01*
X151832707Y-127986266D02*
X151737469Y-127938647D01*
X151261278Y-127700552D02*
X151261278Y-128367219D01*
X151261278Y-127795790D02*
X151213659Y-127748171D01*
X151213659Y-127748171D02*
X151118421Y-127700552D01*
X151118421Y-127700552D02*
X150975564Y-127700552D01*
X150975564Y-127700552D02*
X150880326Y-127748171D01*
X150880326Y-127748171D02*
X150832707Y-127843409D01*
X150832707Y-127843409D02*
X150832707Y-128367219D01*
X150499373Y-127700552D02*
X150118421Y-127700552D01*
X150356516Y-127367219D02*
X150356516Y-128224361D01*
X150356516Y-128224361D02*
X150308897Y-128319600D01*
X150308897Y-128319600D02*
X150213659Y-128367219D01*
X150213659Y-128367219D02*
X150118421Y-128367219D01*
X149785087Y-128367219D02*
X149785087Y-127367219D01*
X149356516Y-128367219D02*
X149356516Y-127843409D01*
X149356516Y-127843409D02*
X149404135Y-127748171D01*
X149404135Y-127748171D02*
X149499373Y-127700552D01*
X149499373Y-127700552D02*
X149642230Y-127700552D01*
X149642230Y-127700552D02*
X149737468Y-127748171D01*
X149737468Y-127748171D02*
X149785087Y-127795790D01*
X148451754Y-128367219D02*
X148451754Y-127843409D01*
X148451754Y-127843409D02*
X148499373Y-127748171D01*
X148499373Y-127748171D02*
X148594611Y-127700552D01*
X148594611Y-127700552D02*
X148785087Y-127700552D01*
X148785087Y-127700552D02*
X148880325Y-127748171D01*
X148451754Y-128319600D02*
X148546992Y-128367219D01*
X148546992Y-128367219D02*
X148785087Y-128367219D01*
X148785087Y-128367219D02*
X148880325Y-128319600D01*
X148880325Y-128319600D02*
X148927944Y-128224361D01*
X148927944Y-128224361D02*
X148927944Y-128129123D01*
X148927944Y-128129123D02*
X148880325Y-128033885D01*
X148880325Y-128033885D02*
X148785087Y-127986266D01*
X148785087Y-127986266D02*
X148546992Y-127986266D01*
X148546992Y-127986266D02*
X148451754Y-127938647D01*
X146642230Y-128271980D02*
X146689849Y-128319600D01*
X146689849Y-128319600D02*
X146832706Y-128367219D01*
X146832706Y-128367219D02*
X146927944Y-128367219D01*
X146927944Y-128367219D02*
X147070801Y-128319600D01*
X147070801Y-128319600D02*
X147166039Y-128224361D01*
X147166039Y-128224361D02*
X147213658Y-128129123D01*
X147213658Y-128129123D02*
X147261277Y-127938647D01*
X147261277Y-127938647D02*
X147261277Y-127795790D01*
X147261277Y-127795790D02*
X147213658Y-127605314D01*
X147213658Y-127605314D02*
X147166039Y-127510076D01*
X147166039Y-127510076D02*
X147070801Y-127414838D01*
X147070801Y-127414838D02*
X146927944Y-127367219D01*
X146927944Y-127367219D02*
X146832706Y-127367219D01*
X146832706Y-127367219D02*
X146689849Y-127414838D01*
X146689849Y-127414838D02*
X146642230Y-127462457D01*
X146213658Y-128367219D02*
X146213658Y-127367219D01*
X145785087Y-128367219D02*
X145785087Y-127843409D01*
X145785087Y-127843409D02*
X145832706Y-127748171D01*
X145832706Y-127748171D02*
X145927944Y-127700552D01*
X145927944Y-127700552D02*
X146070801Y-127700552D01*
X146070801Y-127700552D02*
X146166039Y-127748171D01*
X146166039Y-127748171D02*
X146213658Y-127795790D01*
X145166039Y-128367219D02*
X145261277Y-128319600D01*
X145261277Y-128319600D02*
X145308896Y-128271980D01*
X145308896Y-128271980D02*
X145356515Y-128176742D01*
X145356515Y-128176742D02*
X145356515Y-127891028D01*
X145356515Y-127891028D02*
X145308896Y-127795790D01*
X145308896Y-127795790D02*
X145261277Y-127748171D01*
X145261277Y-127748171D02*
X145166039Y-127700552D01*
X145166039Y-127700552D02*
X145023182Y-127700552D01*
X145023182Y-127700552D02*
X144927944Y-127748171D01*
X144927944Y-127748171D02*
X144880325Y-127795790D01*
X144880325Y-127795790D02*
X144832706Y-127891028D01*
X144832706Y-127891028D02*
X144832706Y-128176742D01*
X144832706Y-128176742D02*
X144880325Y-128271980D01*
X144880325Y-128271980D02*
X144927944Y-128319600D01*
X144927944Y-128319600D02*
X145023182Y-128367219D01*
X145023182Y-128367219D02*
X145166039Y-128367219D01*
X144404134Y-127700552D02*
X144404134Y-128367219D01*
X144404134Y-127795790D02*
X144356515Y-127748171D01*
X144356515Y-127748171D02*
X144261277Y-127700552D01*
X144261277Y-127700552D02*
X144118420Y-127700552D01*
X144118420Y-127700552D02*
X144023182Y-127748171D01*
X144023182Y-127748171D02*
X143975563Y-127843409D01*
X143975563Y-127843409D02*
X143975563Y-128367219D01*
X143070801Y-127700552D02*
X143070801Y-128510076D01*
X143070801Y-128510076D02*
X143118420Y-128605314D01*
X143118420Y-128605314D02*
X143166039Y-128652933D01*
X143166039Y-128652933D02*
X143261277Y-128700552D01*
X143261277Y-128700552D02*
X143404134Y-128700552D01*
X143404134Y-128700552D02*
X143499372Y-128652933D01*
X143070801Y-128319600D02*
X143166039Y-128367219D01*
X143166039Y-128367219D02*
X143356515Y-128367219D01*
X143356515Y-128367219D02*
X143451753Y-128319600D01*
X143451753Y-128319600D02*
X143499372Y-128271980D01*
X143499372Y-128271980D02*
X143546991Y-128176742D01*
X143546991Y-128176742D02*
X143546991Y-127891028D01*
X143546991Y-127891028D02*
X143499372Y-127795790D01*
X143499372Y-127795790D02*
X143451753Y-127748171D01*
X143451753Y-127748171D02*
X143356515Y-127700552D01*
X143356515Y-127700552D02*
X143166039Y-127700552D01*
X143166039Y-127700552D02*
X143070801Y-127748171D01*
M02*
