%TF.GenerationSoftware,KiCad,Pcbnew,9.0.6*%
%TF.CreationDate,2026-03-18T18:00:46-04:00*%
%TF.ProjectId,SENSOR,53454e53-4f52-42e6-9b69-6361645f7063,rev?*%
%TF.SameCoordinates,Original*%
%TF.FileFunction,Copper,L2,Bot*%
%TF.FilePolarity,Positive*%
%FSLAX46Y46*%
G04 Gerber Fmt 4.6, Leading zero omitted, Abs format (unit mm)*
G04 Created by KiCad (PCBNEW 9.0.6) date 2026-03-18 18:00:46*
%MOMM*%
%LPD*%
G01*
G04 APERTURE LIST*
%TA.AperFunction,ComponentPad*%
%ADD10R,1.700000X1.700000*%
%TD*%
%TA.AperFunction,ComponentPad*%
%ADD11C,1.700000*%
%TD*%
%TA.AperFunction,ViaPad*%
%ADD12C,0.600000*%
%TD*%
%TA.AperFunction,Conductor*%
%ADD13C,0.200000*%
%TD*%
%TA.AperFunction,Conductor*%
%ADD14C,0.600000*%
%TD*%
G04 APERTURE END LIST*
D10*
%TO.P,J1,1,Pin_1*%
%TO.N,3.3V*%
X135000000Y-68750000D03*
D11*
%TO.P,J1,2,Pin_2*%
%TO.N,GND*%
X135000000Y-71290000D03*
%TO.P,J1,3,Pin_3*%
%TO.N,12V*%
X135000000Y-73830000D03*
%TO.P,J1,4,Pin_4*%
%TO.N,GND*%
X135000000Y-76370000D03*
%TO.P,J1,5,Pin_5*%
%TO.N,V_Piezo*%
X135000000Y-78910000D03*
%TO.P,J1,6,Pin_6*%
%TO.N,GND*%
X135000000Y-81450000D03*
%TO.P,J1,7,Pin_7*%
%TO.N,unconnected-(J1-Pin_7-Pad7)*%
X135000000Y-83990000D03*
%TO.P,J1,8,Pin_8*%
%TO.N,unconnected-(J1-Pin_8-Pad8)*%
X135000000Y-86530000D03*
%TO.P,J1,9,Pin_9*%
%TO.N,unconnected-(J1-Pin_9-Pad9)*%
X135000000Y-89070000D03*
%TO.P,J1,10,Pin_10*%
%TO.N,unconnected-(J1-Pin_10-Pad10)*%
X135000000Y-91610000D03*
%TO.P,J1,11,Pin_11*%
%TO.N,unconnected-(J1-Pin_11-Pad11)*%
X135000000Y-94150000D03*
%TO.P,J1,12,Pin_12*%
%TO.N,unconnected-(J1-Pin_12-Pad12)*%
X135000000Y-96690000D03*
%TO.P,J1,13,Pin_13*%
%TO.N,unconnected-(J1-Pin_13-Pad13)*%
X135000000Y-99230000D03*
%TO.P,J1,14,Pin_14*%
%TO.N,unconnected-(J1-Pin_14-Pad14)*%
X135000000Y-101770000D03*
%TO.P,J1,15,Pin_15*%
%TO.N,unconnected-(J1-Pin_15-Pad15)*%
X135000000Y-104310000D03*
%TO.P,J1,16,Pin_16*%
%TO.N,unconnected-(J1-Pin_16-Pad16)*%
X135000000Y-106850000D03*
%TO.P,J1,17,Pin_17*%
%TO.N,unconnected-(J1-Pin_17-Pad17)*%
X135000000Y-109390000D03*
%TO.P,J1,18,Pin_18*%
%TO.N,unconnected-(J1-Pin_18-Pad18)*%
X135000000Y-111930000D03*
%TO.P,J1,19,Pin_19*%
%TO.N,unconnected-(J1-Pin_19-Pad19)*%
X135000000Y-114470000D03*
%TO.P,J1,20,Pin_20*%
%TO.N,unconnected-(J1-Pin_20-Pad20)*%
X135000000Y-117010000D03*
%TO.P,J1,21,Pin_21*%
%TO.N,unconnected-(J1-Pin_21-Pad21)*%
X135000000Y-119550000D03*
%TO.P,J1,22,Pin_22*%
%TO.N,unconnected-(J1-Pin_22-Pad22)*%
X135000000Y-122090000D03*
%TO.P,J1,23,Pin_23*%
%TO.N,unconnected-(J1-Pin_23-Pad23)*%
X135000000Y-124630000D03*
%TO.P,J1,24,Pin_24*%
%TO.N,unconnected-(J1-Pin_24-Pad24)*%
X135000000Y-127170000D03*
%TD*%
D10*
%TO.P,J2,1,Pin_1*%
%TO.N,unconnected-(J2-Pin_1-Pad1)*%
X170000000Y-68750000D03*
D11*
%TO.P,J2,2,Pin_2*%
%TO.N,unconnected-(J2-Pin_2-Pad2)*%
X170000000Y-71290000D03*
%TO.P,J2,3,Pin_3*%
%TO.N,unconnected-(J2-Pin_3-Pad3)*%
X170000000Y-73830000D03*
%TO.P,J2,4,Pin_4*%
%TO.N,unconnected-(J2-Pin_4-Pad4)*%
X170000000Y-76370000D03*
%TO.P,J2,5,Pin_5*%
%TO.N,unconnected-(J2-Pin_5-Pad5)*%
X170000000Y-78910000D03*
%TO.P,J2,6,Pin_6*%
%TO.N,unconnected-(J2-Pin_6-Pad6)*%
X170000000Y-81450000D03*
%TO.P,J2,7,Pin_7*%
%TO.N,unconnected-(J2-Pin_7-Pad7)*%
X170000000Y-83990000D03*
%TO.P,J2,8,Pin_8*%
%TO.N,unconnected-(J2-Pin_8-Pad8)*%
X170000000Y-86530000D03*
%TO.P,J2,9,Pin_9*%
%TO.N,/ACC1_INT1*%
X170000000Y-89070000D03*
%TO.P,J2,10,Pin_10*%
%TO.N,/ACC1_INT2*%
X170000000Y-91610000D03*
%TO.P,J2,11,Pin_11*%
%TO.N,unconnected-(J2-Pin_11-Pad11)*%
X170000000Y-94150000D03*
%TO.P,J2,12,Pin_12*%
%TO.N,unconnected-(J2-Pin_12-Pad12)*%
X170000000Y-96690000D03*
%TO.P,J2,13,Pin_13*%
%TO.N,unconnected-(J2-Pin_13-Pad13)*%
X170000000Y-99230000D03*
%TO.P,J2,14,Pin_14*%
%TO.N,unconnected-(J2-Pin_14-Pad14)*%
X170000000Y-101770000D03*
%TO.P,J2,15,Pin_15*%
%TO.N,unconnected-(J2-Pin_15-Pad15)*%
X170000000Y-104310000D03*
%TO.P,J2,16,Pin_16*%
%TO.N,unconnected-(J2-Pin_16-Pad16)*%
X170000000Y-106850000D03*
%TO.P,J2,17,Pin_17*%
%TO.N,unconnected-(J2-Pin_17-Pad17)*%
X170000000Y-109390000D03*
%TO.P,J2,18,Pin_18*%
%TO.N,unconnected-(J2-Pin_18-Pad18)*%
X170000000Y-111930000D03*
%TO.P,J2,19,Pin_19*%
%TO.N,/SCL*%
X170000000Y-114470000D03*
%TO.P,J2,20,Pin_20*%
%TO.N,/SDA*%
X170000000Y-117010000D03*
%TO.P,J2,21,Pin_21*%
%TO.N,/ACC2_INT2*%
X170000000Y-119550000D03*
%TO.P,J2,22,Pin_22*%
%TO.N,/ACC2_INT1*%
X170000000Y-122090000D03*
%TO.P,J2,23,Pin_23*%
%TO.N,unconnected-(J2-Pin_23-Pad23)*%
X170000000Y-124630000D03*
%TO.P,J2,24,Pin_24*%
%TO.N,unconnected-(J2-Pin_24-Pad24)*%
X170000000Y-127170000D03*
%TD*%
D12*
%TO.N,/ACC2_INT1*%
X152400000Y-118600000D03*
%TO.N,/ACC2_INT2*%
X164735735Y-121425735D03*
%TO.N,/ACC1_INT2*%
X152200000Y-89700000D03*
%TO.N,/ACC1_INT1*%
X152322941Y-88525000D03*
%TO.N,GND*%
X167960000Y-128650000D03*
X167960000Y-126110000D03*
X167960000Y-123570000D03*
X167960000Y-121030000D03*
X167960000Y-115950000D03*
X167960000Y-113410000D03*
X167960000Y-110870000D03*
X167960000Y-108330000D03*
X167960000Y-105790000D03*
X167960000Y-103250000D03*
X167960000Y-100710000D03*
X167960000Y-98170000D03*
X167960000Y-95630000D03*
X167960000Y-93090000D03*
X167960000Y-90550000D03*
X167960000Y-88010000D03*
X167960000Y-85470000D03*
X167960000Y-82930000D03*
X167960000Y-80390000D03*
X167960000Y-77850000D03*
X167960000Y-75310000D03*
X167960000Y-72770000D03*
X167960000Y-70230000D03*
X167960000Y-67690000D03*
X165420000Y-128650000D03*
X165420000Y-126110000D03*
X165420000Y-123570000D03*
X165420000Y-118490000D03*
X165420000Y-115950000D03*
X165420000Y-113410000D03*
X165420000Y-110870000D03*
X165420000Y-108330000D03*
X165420000Y-105790000D03*
X165420000Y-103250000D03*
X165420000Y-100710000D03*
X165420000Y-98170000D03*
X165420000Y-95630000D03*
X165420000Y-93090000D03*
X165420000Y-90550000D03*
X165420000Y-88010000D03*
X165420000Y-85470000D03*
X165420000Y-82930000D03*
X165420000Y-80390000D03*
X165420000Y-77850000D03*
X165420000Y-75310000D03*
X165420000Y-72770000D03*
X165420000Y-70230000D03*
X165420000Y-67690000D03*
X162880000Y-128650000D03*
X162880000Y-126110000D03*
X162880000Y-121030000D03*
X162880000Y-118490000D03*
X162880000Y-115950000D03*
X162880000Y-113410000D03*
X162880000Y-110870000D03*
X162880000Y-108330000D03*
X162880000Y-105790000D03*
X162880000Y-103250000D03*
X162880000Y-100710000D03*
X162880000Y-98170000D03*
X162880000Y-95630000D03*
X162880000Y-93090000D03*
X162880000Y-90550000D03*
X162880000Y-88010000D03*
X162880000Y-85470000D03*
X162880000Y-82930000D03*
X162880000Y-80390000D03*
X162880000Y-77850000D03*
X162880000Y-75310000D03*
X162880000Y-72770000D03*
X162880000Y-70230000D03*
X162880000Y-67690000D03*
X160340000Y-128650000D03*
X160340000Y-126110000D03*
X160340000Y-121030000D03*
X160340000Y-118490000D03*
X160340000Y-115950000D03*
X160340000Y-113410000D03*
X160340000Y-110870000D03*
X160340000Y-108330000D03*
X160340000Y-105790000D03*
X160340000Y-103250000D03*
X160340000Y-100710000D03*
X160340000Y-98170000D03*
X160340000Y-95630000D03*
X160340000Y-93090000D03*
X160340000Y-90550000D03*
X160340000Y-88010000D03*
X160340000Y-85470000D03*
X160340000Y-82930000D03*
X160340000Y-80390000D03*
X160340000Y-77850000D03*
X160340000Y-75310000D03*
X160340000Y-72770000D03*
X160340000Y-70230000D03*
X160340000Y-67690000D03*
X157800000Y-128650000D03*
X157800000Y-126110000D03*
X157800000Y-118490000D03*
X157800000Y-115950000D03*
X157800000Y-113410000D03*
X157800000Y-110870000D03*
X157800000Y-108330000D03*
X157800000Y-105790000D03*
X157800000Y-103250000D03*
X157800000Y-100710000D03*
X157800000Y-98170000D03*
X157800000Y-95630000D03*
X157800000Y-93090000D03*
X157800000Y-90550000D03*
X157800000Y-88010000D03*
X157800000Y-75310000D03*
X157800000Y-72770000D03*
X157800000Y-70230000D03*
X157800000Y-67690000D03*
X155260000Y-128650000D03*
X155260000Y-126110000D03*
X155260000Y-98170000D03*
X155260000Y-95630000D03*
X155260000Y-93090000D03*
X155260000Y-90550000D03*
X155260000Y-88010000D03*
X155260000Y-80390000D03*
X155260000Y-77850000D03*
X155260000Y-72770000D03*
X155260000Y-70230000D03*
X155260000Y-67690000D03*
X152720000Y-128650000D03*
X152720000Y-126110000D03*
X152720000Y-110870000D03*
X152720000Y-105790000D03*
X152720000Y-82930000D03*
X152720000Y-77850000D03*
X152720000Y-75310000D03*
X152720000Y-67690000D03*
X150180000Y-128650000D03*
X150180000Y-126110000D03*
X150180000Y-121030000D03*
X150180000Y-118490000D03*
X150180000Y-80390000D03*
X147640000Y-128650000D03*
X147640000Y-126110000D03*
X147640000Y-121030000D03*
X147640000Y-118490000D03*
X147640000Y-115950000D03*
X147640000Y-113410000D03*
X147640000Y-110870000D03*
X147640000Y-100710000D03*
X147640000Y-98170000D03*
X147640000Y-95630000D03*
X147640000Y-93090000D03*
X147640000Y-90550000D03*
X147640000Y-80390000D03*
X147640000Y-77850000D03*
X147640000Y-75310000D03*
X145100000Y-128650000D03*
X145100000Y-126110000D03*
X145100000Y-123570000D03*
X145100000Y-105790000D03*
X145100000Y-103250000D03*
X145100000Y-98170000D03*
X145100000Y-95630000D03*
X145100000Y-93090000D03*
X145100000Y-90550000D03*
X145100000Y-80390000D03*
X145100000Y-77850000D03*
X145100000Y-75310000D03*
X145100000Y-72770000D03*
X145100000Y-70230000D03*
X142560000Y-128650000D03*
X142560000Y-126110000D03*
X142560000Y-123570000D03*
X142560000Y-121030000D03*
X142560000Y-118490000D03*
X142560000Y-115950000D03*
X142560000Y-113410000D03*
X142560000Y-110870000D03*
X142560000Y-108330000D03*
X142560000Y-105790000D03*
X142560000Y-103250000D03*
X142560000Y-100710000D03*
X140020000Y-128650000D03*
X140020000Y-126110000D03*
X140020000Y-123570000D03*
X140020000Y-121030000D03*
X140020000Y-118490000D03*
X140020000Y-115950000D03*
X140020000Y-113410000D03*
X140020000Y-110870000D03*
X140020000Y-108330000D03*
X140020000Y-105790000D03*
X140020000Y-103250000D03*
X140020000Y-100710000D03*
X140020000Y-98170000D03*
X140020000Y-95630000D03*
X140020000Y-93090000D03*
X140020000Y-90550000D03*
X140020000Y-88010000D03*
X140020000Y-85470000D03*
X140020000Y-82930000D03*
X140020000Y-80390000D03*
X140020000Y-77850000D03*
X140020000Y-75310000D03*
X140020000Y-72770000D03*
X140020000Y-70230000D03*
X137480000Y-128650000D03*
X137480000Y-126110000D03*
X137480000Y-123570000D03*
X137480000Y-121030000D03*
X137480000Y-118490000D03*
X137480000Y-115950000D03*
X137480000Y-113410000D03*
X137480000Y-110870000D03*
X137480000Y-108330000D03*
X137480000Y-105790000D03*
X137480000Y-103250000D03*
X137480000Y-100710000D03*
X137480000Y-98170000D03*
X137480000Y-95630000D03*
X137480000Y-93090000D03*
X137480000Y-90550000D03*
X137480000Y-88010000D03*
X137480000Y-85470000D03*
X137480000Y-82930000D03*
X137480000Y-80390000D03*
X137480000Y-77850000D03*
X137480000Y-75310000D03*
X137480000Y-72770000D03*
X137480000Y-70230000D03*
%TO.N,3.3V*%
X150600000Y-72000000D03*
X156600000Y-83525000D03*
X149800000Y-87125000D03*
X150400000Y-102725000D03*
X150800000Y-114200000D03*
X155737502Y-118375002D03*
X155392015Y-115992015D03*
X153917005Y-118819217D03*
%TD*%
D13*
%TO.N,/ACC2_INT2*%
X164999000Y-121689000D02*
X168411000Y-121689000D01*
X170000000Y-120100000D02*
X170000000Y-119550000D01*
X164735735Y-121425735D02*
X164999000Y-121689000D01*
X168411000Y-121689000D02*
X170000000Y-120100000D01*
%TO.N,/ACC2_INT1*%
X152400000Y-118600000D02*
X155890000Y-122090000D01*
X155890000Y-122090000D02*
X170000000Y-122090000D01*
%TO.N,/ACC1_INT2*%
X168090000Y-89700000D02*
X170000000Y-91610000D01*
X152200000Y-89700000D02*
X168090000Y-89700000D01*
%TO.N,/ACC1_INT1*%
X152867941Y-89070000D02*
X170000000Y-89070000D01*
X152322941Y-88525000D02*
X152867941Y-89070000D01*
D14*
%TO.N,3.3V*%
X146550000Y-68750000D02*
X135000000Y-68750000D01*
X150600000Y-72800000D02*
X146550000Y-68750000D01*
X150600000Y-72800000D02*
X150600000Y-72000000D01*
X150600000Y-78000000D02*
X150600000Y-72800000D01*
X156362500Y-83762500D02*
X150600000Y-78000000D01*
X156362500Y-83762500D02*
X156600000Y-83525000D01*
X152400000Y-87725000D02*
X156362500Y-83762500D01*
X150400000Y-87725000D02*
X152400000Y-87725000D01*
X150400000Y-87725000D02*
X149800000Y-87125000D01*
X150400000Y-102725000D02*
X150400000Y-87725000D01*
X153917005Y-116482995D02*
X153917005Y-116554505D01*
X153917005Y-116554505D02*
X155737502Y-118375002D01*
X153917005Y-117600000D02*
X153917005Y-118819217D01*
X153917005Y-116482995D02*
X153917005Y-117600000D01*
X154900000Y-115500000D02*
X155392015Y-115992015D01*
X154900000Y-115500000D02*
X153917005Y-116482995D01*
X150400000Y-113800000D02*
X150800000Y-114200000D01*
X150400000Y-102725000D02*
X150400000Y-113800000D01*
X150800000Y-114200000D02*
X153600000Y-114200000D01*
X153600000Y-114200000D02*
X154900000Y-115500000D01*
%TD*%
%TA.AperFunction,Conductor*%
%TO.N,GND*%
G36*
X151405703Y-89908477D02*
G01*
X151439061Y-89954738D01*
X151490602Y-90079172D01*
X151490609Y-90079185D01*
X151578210Y-90210288D01*
X151578213Y-90210292D01*
X151689707Y-90321786D01*
X151689711Y-90321789D01*
X151820814Y-90409390D01*
X151820827Y-90409397D01*
X151930801Y-90454949D01*
X151966503Y-90469737D01*
X152121153Y-90500499D01*
X152121156Y-90500500D01*
X152121158Y-90500500D01*
X152278844Y-90500500D01*
X152278845Y-90500499D01*
X152433497Y-90469737D01*
X152579179Y-90409394D01*
X152589479Y-90402512D01*
X152710875Y-90321398D01*
X152777553Y-90300520D01*
X152779766Y-90300500D01*
X167789903Y-90300500D01*
X167856942Y-90320185D01*
X167877584Y-90336819D01*
X168666241Y-91125476D01*
X168699726Y-91186799D01*
X168696492Y-91251473D01*
X168682753Y-91293757D01*
X168649500Y-91503713D01*
X168649500Y-91716286D01*
X168682753Y-91926239D01*
X168748444Y-92128414D01*
X168844951Y-92317820D01*
X168969890Y-92489786D01*
X169120213Y-92640109D01*
X169292182Y-92765050D01*
X169300946Y-92769516D01*
X169351742Y-92817491D01*
X169368536Y-92885312D01*
X169345998Y-92951447D01*
X169300946Y-92990484D01*
X169292182Y-92994949D01*
X169120213Y-93119890D01*
X168969890Y-93270213D01*
X168844951Y-93442179D01*
X168748444Y-93631585D01*
X168682753Y-93833760D01*
X168649500Y-94043713D01*
X168649500Y-94256286D01*
X168682753Y-94466239D01*
X168748444Y-94668414D01*
X168844951Y-94857820D01*
X168969890Y-95029786D01*
X169120213Y-95180109D01*
X169292182Y-95305050D01*
X169300946Y-95309516D01*
X169351742Y-95357491D01*
X169368536Y-95425312D01*
X169345998Y-95491447D01*
X169300946Y-95530484D01*
X169292182Y-95534949D01*
X169120213Y-95659890D01*
X168969890Y-95810213D01*
X168844951Y-95982179D01*
X168748444Y-96171585D01*
X168682753Y-96373760D01*
X168649500Y-96583713D01*
X168649500Y-96796286D01*
X168682753Y-97006239D01*
X168748444Y-97208414D01*
X168844951Y-97397820D01*
X168969890Y-97569786D01*
X169120213Y-97720109D01*
X169292182Y-97845050D01*
X169300946Y-97849516D01*
X169351742Y-97897491D01*
X169368536Y-97965312D01*
X169345998Y-98031447D01*
X169300946Y-98070484D01*
X169292182Y-98074949D01*
X169120213Y-98199890D01*
X168969890Y-98350213D01*
X168844951Y-98522179D01*
X168748444Y-98711585D01*
X168682753Y-98913760D01*
X168649500Y-99123713D01*
X168649500Y-99336286D01*
X168682753Y-99546239D01*
X168748444Y-99748414D01*
X168844951Y-99937820D01*
X168969890Y-100109786D01*
X169120213Y-100260109D01*
X169292182Y-100385050D01*
X169300946Y-100389516D01*
X169351742Y-100437491D01*
X169368536Y-100505312D01*
X169345998Y-100571447D01*
X169300946Y-100610484D01*
X169292182Y-100614949D01*
X169120213Y-100739890D01*
X168969890Y-100890213D01*
X168844951Y-101062179D01*
X168748444Y-101251585D01*
X168682753Y-101453760D01*
X168649500Y-101663713D01*
X168649500Y-101876286D01*
X168682753Y-102086239D01*
X168748444Y-102288414D01*
X168844951Y-102477820D01*
X168969890Y-102649786D01*
X169120213Y-102800109D01*
X169292182Y-102925050D01*
X169300946Y-102929516D01*
X169351742Y-102977491D01*
X169368536Y-103045312D01*
X169345998Y-103111447D01*
X169300946Y-103150484D01*
X169292182Y-103154949D01*
X169120213Y-103279890D01*
X168969890Y-103430213D01*
X168844951Y-103602179D01*
X168748444Y-103791585D01*
X168682753Y-103993760D01*
X168649500Y-104203713D01*
X168649500Y-104416286D01*
X168682753Y-104626239D01*
X168748444Y-104828414D01*
X168844951Y-105017820D01*
X168969890Y-105189786D01*
X169120213Y-105340109D01*
X169292182Y-105465050D01*
X169300946Y-105469516D01*
X169351742Y-105517491D01*
X169368536Y-105585312D01*
X169345998Y-105651447D01*
X169300946Y-105690484D01*
X169292182Y-105694949D01*
X169120213Y-105819890D01*
X168969890Y-105970213D01*
X168844951Y-106142179D01*
X168748444Y-106331585D01*
X168682753Y-106533760D01*
X168649500Y-106743713D01*
X168649500Y-106956286D01*
X168682753Y-107166239D01*
X168748444Y-107368414D01*
X168844951Y-107557820D01*
X168969890Y-107729786D01*
X169120213Y-107880109D01*
X169292182Y-108005050D01*
X169300946Y-108009516D01*
X169351742Y-108057491D01*
X169368536Y-108125312D01*
X169345998Y-108191447D01*
X169300946Y-108230484D01*
X169292182Y-108234949D01*
X169120213Y-108359890D01*
X168969890Y-108510213D01*
X168844951Y-108682179D01*
X168748444Y-108871585D01*
X168682753Y-109073760D01*
X168649500Y-109283713D01*
X168649500Y-109496286D01*
X168682753Y-109706239D01*
X168748444Y-109908414D01*
X168844951Y-110097820D01*
X168969890Y-110269786D01*
X169120213Y-110420109D01*
X169292182Y-110545050D01*
X169300946Y-110549516D01*
X169351742Y-110597491D01*
X169368536Y-110665312D01*
X169345998Y-110731447D01*
X169300946Y-110770484D01*
X169292182Y-110774949D01*
X169120213Y-110899890D01*
X168969890Y-111050213D01*
X168844951Y-111222179D01*
X168748444Y-111411585D01*
X168682753Y-111613760D01*
X168649500Y-111823713D01*
X168649500Y-112036286D01*
X168682753Y-112246239D01*
X168748444Y-112448414D01*
X168844951Y-112637820D01*
X168969890Y-112809786D01*
X169120213Y-112960109D01*
X169292182Y-113085050D01*
X169300946Y-113089516D01*
X169351742Y-113137491D01*
X169368536Y-113205312D01*
X169345998Y-113271447D01*
X169300946Y-113310484D01*
X169292182Y-113314949D01*
X169120213Y-113439890D01*
X168969890Y-113590213D01*
X168844951Y-113762179D01*
X168748444Y-113951585D01*
X168682753Y-114153760D01*
X168657961Y-114310292D01*
X168649500Y-114363713D01*
X168649500Y-114576287D01*
X168682754Y-114786243D01*
X168742375Y-114969738D01*
X168748444Y-114988414D01*
X168844951Y-115177820D01*
X168969890Y-115349786D01*
X169120213Y-115500109D01*
X169292182Y-115625050D01*
X169300946Y-115629516D01*
X169351742Y-115677491D01*
X169368536Y-115745312D01*
X169345998Y-115811447D01*
X169300946Y-115850484D01*
X169292182Y-115854949D01*
X169120213Y-115979890D01*
X168969890Y-116130213D01*
X168844951Y-116302179D01*
X168748444Y-116491585D01*
X168682753Y-116693760D01*
X168649500Y-116903713D01*
X168649500Y-117116286D01*
X168682753Y-117326239D01*
X168748444Y-117528414D01*
X168844951Y-117717820D01*
X168969890Y-117889786D01*
X169120213Y-118040109D01*
X169292182Y-118165050D01*
X169300946Y-118169516D01*
X169351742Y-118217491D01*
X169368536Y-118285312D01*
X169345998Y-118351447D01*
X169300946Y-118390484D01*
X169292182Y-118394949D01*
X169120213Y-118519890D01*
X168969890Y-118670213D01*
X168844951Y-118842179D01*
X168748444Y-119031585D01*
X168682753Y-119233760D01*
X168656344Y-119400500D01*
X168649500Y-119443713D01*
X168649500Y-119656287D01*
X168682754Y-119866243D01*
X168748443Y-120068412D01*
X168844949Y-120257816D01*
X168844971Y-120257847D01*
X168844977Y-120257864D01*
X168847495Y-120261972D01*
X168846632Y-120262500D01*
X168868457Y-120323649D01*
X168852639Y-120391705D01*
X168832341Y-120418422D01*
X168198584Y-121052181D01*
X168137261Y-121085666D01*
X168110903Y-121088500D01*
X165539435Y-121088500D01*
X165472396Y-121068815D01*
X165436333Y-121033391D01*
X165357524Y-120915446D01*
X165357521Y-120915442D01*
X165246027Y-120803948D01*
X165246023Y-120803945D01*
X165114920Y-120716344D01*
X165114907Y-120716337D01*
X164969236Y-120655999D01*
X164969224Y-120655996D01*
X164814580Y-120625235D01*
X164814577Y-120625235D01*
X164656893Y-120625235D01*
X164656890Y-120625235D01*
X164502245Y-120655996D01*
X164502233Y-120655999D01*
X164356562Y-120716337D01*
X164356549Y-120716344D01*
X164225446Y-120803945D01*
X164225442Y-120803948D01*
X164113948Y-120915442D01*
X164113945Y-120915446D01*
X164026344Y-121046549D01*
X164026337Y-121046562D01*
X163965999Y-121192233D01*
X163965996Y-121192245D01*
X163935235Y-121346888D01*
X163935235Y-121365500D01*
X163915550Y-121432539D01*
X163862746Y-121478294D01*
X163811235Y-121489500D01*
X156190097Y-121489500D01*
X156123058Y-121469815D01*
X156102416Y-121453181D01*
X154332085Y-119682850D01*
X154298600Y-119621527D01*
X154303584Y-119551835D01*
X154345456Y-119495902D01*
X154350852Y-119492082D01*
X154427294Y-119441006D01*
X154538794Y-119329506D01*
X154626399Y-119198396D01*
X154686742Y-119052714D01*
X154717505Y-118898059D01*
X154717505Y-118786445D01*
X154737190Y-118719406D01*
X154789994Y-118673651D01*
X154859152Y-118663707D01*
X154922708Y-118692732D01*
X154929186Y-118698764D01*
X155227209Y-118996788D01*
X155227213Y-118996791D01*
X155358316Y-119084392D01*
X155358320Y-119084394D01*
X155358323Y-119084396D01*
X155504005Y-119144740D01*
X155658655Y-119175501D01*
X155658659Y-119175502D01*
X155658660Y-119175502D01*
X155816346Y-119175502D01*
X155816347Y-119175501D01*
X155971000Y-119144740D01*
X156116681Y-119084396D01*
X156247792Y-118996791D01*
X156359291Y-118885292D01*
X156446896Y-118754181D01*
X156507240Y-118608500D01*
X156538002Y-118453845D01*
X156538002Y-118296160D01*
X156507240Y-118141505D01*
X156446896Y-117995823D01*
X156446894Y-117995820D01*
X156446892Y-117995816D01*
X156359291Y-117864713D01*
X156359288Y-117864709D01*
X155481621Y-116987043D01*
X155448136Y-116925720D01*
X155453120Y-116856029D01*
X155494992Y-116800095D01*
X155545111Y-116777745D01*
X155560386Y-116774706D01*
X155625512Y-116761752D01*
X155771194Y-116701409D01*
X155902304Y-116613804D01*
X156013804Y-116502304D01*
X156101409Y-116371194D01*
X156161752Y-116225512D01*
X156192515Y-116070857D01*
X156192515Y-115913173D01*
X156180933Y-115854949D01*
X156161752Y-115758518D01*
X156143005Y-115713258D01*
X156108318Y-115629516D01*
X156101412Y-115612842D01*
X156101405Y-115612829D01*
X156013804Y-115481726D01*
X156013801Y-115481722D01*
X155897985Y-115365906D01*
X155897962Y-115365885D01*
X155410289Y-114878211D01*
X154110292Y-113578213D01*
X154110288Y-113578210D01*
X153979185Y-113490609D01*
X153979172Y-113490602D01*
X153833501Y-113430264D01*
X153833489Y-113430261D01*
X153678845Y-113399500D01*
X153678842Y-113399500D01*
X151324500Y-113399500D01*
X151257461Y-113379815D01*
X151211706Y-113327011D01*
X151200500Y-113275500D01*
X151200500Y-90002190D01*
X151220185Y-89935151D01*
X151272989Y-89889396D01*
X151342147Y-89879452D01*
X151405703Y-89908477D01*
G37*
%TD.AperFunction*%
%TA.AperFunction,Conductor*%
G36*
X171942539Y-65770185D02*
G01*
X171988294Y-65822989D01*
X171999500Y-65874500D01*
X171999500Y-129625500D01*
X171979815Y-129692539D01*
X171927011Y-129738294D01*
X171875500Y-129749500D01*
X133124500Y-129749500D01*
X133057461Y-129729815D01*
X133011706Y-129677011D01*
X133000500Y-129625500D01*
X133000500Y-83883713D01*
X133649500Y-83883713D01*
X133649500Y-84096286D01*
X133677455Y-84272790D01*
X133682754Y-84306243D01*
X133708113Y-84384291D01*
X133748444Y-84508414D01*
X133844951Y-84697820D01*
X133969890Y-84869786D01*
X134120213Y-85020109D01*
X134292182Y-85145050D01*
X134300946Y-85149516D01*
X134351742Y-85197491D01*
X134368536Y-85265312D01*
X134345998Y-85331447D01*
X134300946Y-85370484D01*
X134292182Y-85374949D01*
X134120213Y-85499890D01*
X133969890Y-85650213D01*
X133844951Y-85822179D01*
X133748444Y-86011585D01*
X133682753Y-86213760D01*
X133649500Y-86423713D01*
X133649500Y-86636286D01*
X133666849Y-86745827D01*
X133682754Y-86846243D01*
X133708181Y-86924500D01*
X133748444Y-87048414D01*
X133844951Y-87237820D01*
X133969890Y-87409786D01*
X134120213Y-87560109D01*
X134292182Y-87685050D01*
X134300946Y-87689516D01*
X134351742Y-87737491D01*
X134368536Y-87805312D01*
X134345998Y-87871447D01*
X134300946Y-87910484D01*
X134292182Y-87914949D01*
X134120213Y-88039890D01*
X133969890Y-88190213D01*
X133844951Y-88362179D01*
X133748444Y-88551585D01*
X133682753Y-88753760D01*
X133682004Y-88758491D01*
X133649500Y-88963713D01*
X133649500Y-89176287D01*
X133682754Y-89386243D01*
X133721162Y-89504451D01*
X133748444Y-89588414D01*
X133844951Y-89777820D01*
X133969890Y-89949786D01*
X134120213Y-90100109D01*
X134292182Y-90225050D01*
X134300946Y-90229516D01*
X134351742Y-90277491D01*
X134368536Y-90345312D01*
X134345998Y-90411447D01*
X134300946Y-90450484D01*
X134292182Y-90454949D01*
X134120213Y-90579890D01*
X133969890Y-90730213D01*
X133844951Y-90902179D01*
X133748444Y-91091585D01*
X133682753Y-91293760D01*
X133649500Y-91503713D01*
X133649500Y-91716286D01*
X133682753Y-91926239D01*
X133748444Y-92128414D01*
X133844951Y-92317820D01*
X133969890Y-92489786D01*
X134120213Y-92640109D01*
X134292182Y-92765050D01*
X134300946Y-92769516D01*
X134351742Y-92817491D01*
X134368536Y-92885312D01*
X134345998Y-92951447D01*
X134300946Y-92990484D01*
X134292182Y-92994949D01*
X134120213Y-93119890D01*
X133969890Y-93270213D01*
X133844951Y-93442179D01*
X133748444Y-93631585D01*
X133682753Y-93833760D01*
X133649500Y-94043713D01*
X133649500Y-94256286D01*
X133682753Y-94466239D01*
X133748444Y-94668414D01*
X133844951Y-94857820D01*
X133969890Y-95029786D01*
X134120213Y-95180109D01*
X134292182Y-95305050D01*
X134300946Y-95309516D01*
X134351742Y-95357491D01*
X134368536Y-95425312D01*
X134345998Y-95491447D01*
X134300946Y-95530484D01*
X134292182Y-95534949D01*
X134120213Y-95659890D01*
X133969890Y-95810213D01*
X133844951Y-95982179D01*
X133748444Y-96171585D01*
X133682753Y-96373760D01*
X133649500Y-96583713D01*
X133649500Y-96796286D01*
X133682753Y-97006239D01*
X133748444Y-97208414D01*
X133844951Y-97397820D01*
X133969890Y-97569786D01*
X134120213Y-97720109D01*
X134292182Y-97845050D01*
X134300946Y-97849516D01*
X134351742Y-97897491D01*
X134368536Y-97965312D01*
X134345998Y-98031447D01*
X134300946Y-98070484D01*
X134292182Y-98074949D01*
X134120213Y-98199890D01*
X133969890Y-98350213D01*
X133844951Y-98522179D01*
X133748444Y-98711585D01*
X133682753Y-98913760D01*
X133649500Y-99123713D01*
X133649500Y-99336286D01*
X133682753Y-99546239D01*
X133748444Y-99748414D01*
X133844951Y-99937820D01*
X133969890Y-100109786D01*
X134120213Y-100260109D01*
X134292182Y-100385050D01*
X134300946Y-100389516D01*
X134351742Y-100437491D01*
X134368536Y-100505312D01*
X134345998Y-100571447D01*
X134300946Y-100610484D01*
X134292182Y-100614949D01*
X134120213Y-100739890D01*
X133969890Y-100890213D01*
X133844951Y-101062179D01*
X133748444Y-101251585D01*
X133682753Y-101453760D01*
X133649500Y-101663713D01*
X133649500Y-101876286D01*
X133682753Y-102086239D01*
X133748444Y-102288414D01*
X133844951Y-102477820D01*
X133969890Y-102649786D01*
X134120213Y-102800109D01*
X134292182Y-102925050D01*
X134300946Y-102929516D01*
X134351742Y-102977491D01*
X134368536Y-103045312D01*
X134345998Y-103111447D01*
X134300946Y-103150484D01*
X134292182Y-103154949D01*
X134120213Y-103279890D01*
X133969890Y-103430213D01*
X133844951Y-103602179D01*
X133748444Y-103791585D01*
X133682753Y-103993760D01*
X133649500Y-104203713D01*
X133649500Y-104416286D01*
X133682753Y-104626239D01*
X133748444Y-104828414D01*
X133844951Y-105017820D01*
X133969890Y-105189786D01*
X134120213Y-105340109D01*
X134292182Y-105465050D01*
X134300946Y-105469516D01*
X134351742Y-105517491D01*
X134368536Y-105585312D01*
X134345998Y-105651447D01*
X134300946Y-105690484D01*
X134292182Y-105694949D01*
X134120213Y-105819890D01*
X133969890Y-105970213D01*
X133844951Y-106142179D01*
X133748444Y-106331585D01*
X133682753Y-106533760D01*
X133649500Y-106743713D01*
X133649500Y-106956286D01*
X133682753Y-107166239D01*
X133748444Y-107368414D01*
X133844951Y-107557820D01*
X133969890Y-107729786D01*
X134120213Y-107880109D01*
X134292182Y-108005050D01*
X134300946Y-108009516D01*
X134351742Y-108057491D01*
X134368536Y-108125312D01*
X134345998Y-108191447D01*
X134300946Y-108230484D01*
X134292182Y-108234949D01*
X134120213Y-108359890D01*
X133969890Y-108510213D01*
X133844951Y-108682179D01*
X133748444Y-108871585D01*
X133682753Y-109073760D01*
X133649500Y-109283713D01*
X133649500Y-109496286D01*
X133682753Y-109706239D01*
X133748444Y-109908414D01*
X133844951Y-110097820D01*
X133969890Y-110269786D01*
X134120213Y-110420109D01*
X134292182Y-110545050D01*
X134300946Y-110549516D01*
X134351742Y-110597491D01*
X134368536Y-110665312D01*
X134345998Y-110731447D01*
X134300946Y-110770484D01*
X134292182Y-110774949D01*
X134120213Y-110899890D01*
X133969890Y-111050213D01*
X133844951Y-111222179D01*
X133748444Y-111411585D01*
X133682753Y-111613760D01*
X133649500Y-111823713D01*
X133649500Y-112036286D01*
X133682753Y-112246239D01*
X133748444Y-112448414D01*
X133844951Y-112637820D01*
X133969890Y-112809786D01*
X134120213Y-112960109D01*
X134292182Y-113085050D01*
X134300946Y-113089516D01*
X134351742Y-113137491D01*
X134368536Y-113205312D01*
X134345998Y-113271447D01*
X134300946Y-113310484D01*
X134292182Y-113314949D01*
X134120213Y-113439890D01*
X133969890Y-113590213D01*
X133844951Y-113762179D01*
X133748444Y-113951585D01*
X133682753Y-114153760D01*
X133657961Y-114310292D01*
X133649500Y-114363713D01*
X133649500Y-114576287D01*
X133682754Y-114786243D01*
X133742375Y-114969738D01*
X133748444Y-114988414D01*
X133844951Y-115177820D01*
X133969890Y-115349786D01*
X134120213Y-115500109D01*
X134292182Y-115625050D01*
X134300946Y-115629516D01*
X134351742Y-115677491D01*
X134368536Y-115745312D01*
X134345998Y-115811447D01*
X134300946Y-115850484D01*
X134292182Y-115854949D01*
X134120213Y-115979890D01*
X133969890Y-116130213D01*
X133844951Y-116302179D01*
X133748444Y-116491585D01*
X133682753Y-116693760D01*
X133649500Y-116903713D01*
X133649500Y-117116286D01*
X133682753Y-117326239D01*
X133748444Y-117528414D01*
X133844951Y-117717820D01*
X133969890Y-117889786D01*
X134120213Y-118040109D01*
X134292182Y-118165050D01*
X134300946Y-118169516D01*
X134351742Y-118217491D01*
X134368536Y-118285312D01*
X134345998Y-118351447D01*
X134300946Y-118390484D01*
X134292182Y-118394949D01*
X134120213Y-118519890D01*
X133969890Y-118670213D01*
X133844951Y-118842179D01*
X133748444Y-119031585D01*
X133682753Y-119233760D01*
X133649500Y-119443713D01*
X133649500Y-119656286D01*
X133682753Y-119866239D01*
X133748444Y-120068414D01*
X133844951Y-120257820D01*
X133969890Y-120429786D01*
X134120213Y-120580109D01*
X134292182Y-120705050D01*
X134300946Y-120709516D01*
X134351742Y-120757491D01*
X134368536Y-120825312D01*
X134345998Y-120891447D01*
X134300946Y-120930484D01*
X134292182Y-120934949D01*
X134120213Y-121059890D01*
X133969890Y-121210213D01*
X133844951Y-121382179D01*
X133748444Y-121571585D01*
X133682753Y-121773760D01*
X133649500Y-121983713D01*
X133649500Y-122196287D01*
X133682754Y-122406243D01*
X133736132Y-122570524D01*
X133748444Y-122608414D01*
X133844951Y-122797820D01*
X133969890Y-122969786D01*
X134120213Y-123120109D01*
X134292182Y-123245050D01*
X134300946Y-123249516D01*
X134351742Y-123297491D01*
X134368536Y-123365312D01*
X134345998Y-123431447D01*
X134300946Y-123470484D01*
X134292182Y-123474949D01*
X134120213Y-123599890D01*
X133969890Y-123750213D01*
X133844951Y-123922179D01*
X133748444Y-124111585D01*
X133682753Y-124313760D01*
X133649500Y-124523713D01*
X133649500Y-124736286D01*
X133682753Y-124946239D01*
X133748444Y-125148414D01*
X133844951Y-125337820D01*
X133969890Y-125509786D01*
X134120213Y-125660109D01*
X134292182Y-125785050D01*
X134300946Y-125789516D01*
X134351742Y-125837491D01*
X134368536Y-125905312D01*
X134345998Y-125971447D01*
X134300946Y-126010484D01*
X134292182Y-126014949D01*
X134120213Y-126139890D01*
X133969890Y-126290213D01*
X133844951Y-126462179D01*
X133748444Y-126651585D01*
X133682753Y-126853760D01*
X133649500Y-127063713D01*
X133649500Y-127276286D01*
X133682753Y-127486239D01*
X133748444Y-127688414D01*
X133844951Y-127877820D01*
X133969890Y-128049786D01*
X134120213Y-128200109D01*
X134292179Y-128325048D01*
X134292181Y-128325049D01*
X134292184Y-128325051D01*
X134481588Y-128421557D01*
X134683757Y-128487246D01*
X134893713Y-128520500D01*
X134893714Y-128520500D01*
X135106286Y-128520500D01*
X135106287Y-128520500D01*
X135316243Y-128487246D01*
X135518412Y-128421557D01*
X135707816Y-128325051D01*
X135729789Y-128309086D01*
X135879786Y-128200109D01*
X135879788Y-128200106D01*
X135879792Y-128200104D01*
X136030104Y-128049792D01*
X136030106Y-128049788D01*
X136030109Y-128049786D01*
X136155048Y-127877820D01*
X136155047Y-127877820D01*
X136155051Y-127877816D01*
X136251557Y-127688412D01*
X136317246Y-127486243D01*
X136350500Y-127276287D01*
X136350500Y-127063713D01*
X136317246Y-126853757D01*
X136251557Y-126651588D01*
X136155051Y-126462184D01*
X136155049Y-126462181D01*
X136155048Y-126462179D01*
X136030109Y-126290213D01*
X135879786Y-126139890D01*
X135707820Y-126014951D01*
X135707115Y-126014591D01*
X135699054Y-126010485D01*
X135648259Y-125962512D01*
X135631463Y-125894692D01*
X135653999Y-125828556D01*
X135699054Y-125789515D01*
X135707816Y-125785051D01*
X135729789Y-125769086D01*
X135879786Y-125660109D01*
X135879788Y-125660106D01*
X135879792Y-125660104D01*
X136030104Y-125509792D01*
X136030106Y-125509788D01*
X136030109Y-125509786D01*
X136155048Y-125337820D01*
X136155047Y-125337820D01*
X136155051Y-125337816D01*
X136251557Y-125148412D01*
X136317246Y-124946243D01*
X136350500Y-124736287D01*
X136350500Y-124523713D01*
X136317246Y-124313757D01*
X136251557Y-124111588D01*
X136155051Y-123922184D01*
X136155049Y-123922181D01*
X136155048Y-123922179D01*
X136030109Y-123750213D01*
X135879786Y-123599890D01*
X135707820Y-123474951D01*
X135707115Y-123474591D01*
X135699054Y-123470485D01*
X135648259Y-123422512D01*
X135631463Y-123354692D01*
X135653999Y-123288556D01*
X135699054Y-123249515D01*
X135707816Y-123245051D01*
X135729789Y-123229086D01*
X135879786Y-123120109D01*
X135879788Y-123120106D01*
X135879792Y-123120104D01*
X136030104Y-122969792D01*
X136030106Y-122969788D01*
X136030109Y-122969786D01*
X136155048Y-122797820D01*
X136155047Y-122797820D01*
X136155051Y-122797816D01*
X136251557Y-122608412D01*
X136317246Y-122406243D01*
X136350500Y-122196287D01*
X136350500Y-121983713D01*
X136317246Y-121773757D01*
X136251557Y-121571588D01*
X136155051Y-121382184D01*
X136155049Y-121382181D01*
X136155048Y-121382179D01*
X136030109Y-121210213D01*
X135879786Y-121059890D01*
X135707820Y-120934951D01*
X135707115Y-120934591D01*
X135699054Y-120930485D01*
X135648259Y-120882512D01*
X135631463Y-120814692D01*
X135653999Y-120748556D01*
X135699054Y-120709515D01*
X135707816Y-120705051D01*
X135775335Y-120655996D01*
X135879786Y-120580109D01*
X135879788Y-120580106D01*
X135879792Y-120580104D01*
X136030104Y-120429792D01*
X136030106Y-120429788D01*
X136030109Y-120429786D01*
X136151648Y-120262500D01*
X136155051Y-120257816D01*
X136251557Y-120068412D01*
X136317246Y-119866243D01*
X136350500Y-119656287D01*
X136350500Y-119443713D01*
X136317246Y-119233757D01*
X136251557Y-119031588D01*
X136155051Y-118842184D01*
X136155049Y-118842181D01*
X136155048Y-118842179D01*
X136030109Y-118670213D01*
X135879786Y-118519890D01*
X135707820Y-118394951D01*
X135707115Y-118394591D01*
X135699054Y-118390485D01*
X135648259Y-118342512D01*
X135631463Y-118274692D01*
X135653999Y-118208556D01*
X135699054Y-118169515D01*
X135707816Y-118165051D01*
X135740226Y-118141504D01*
X135879786Y-118040109D01*
X135879788Y-118040106D01*
X135879792Y-118040104D01*
X136030104Y-117889792D01*
X136030106Y-117889788D01*
X136030109Y-117889786D01*
X136155048Y-117717820D01*
X136155047Y-117717820D01*
X136155051Y-117717816D01*
X136251557Y-117528412D01*
X136317246Y-117326243D01*
X136350500Y-117116287D01*
X136350500Y-116903713D01*
X136317246Y-116693757D01*
X136251557Y-116491588D01*
X136155051Y-116302184D01*
X136155049Y-116302181D01*
X136155048Y-116302179D01*
X136030109Y-116130213D01*
X135879786Y-115979890D01*
X135707818Y-115854950D01*
X135707450Y-115854762D01*
X135699054Y-115850485D01*
X135648259Y-115802512D01*
X135631463Y-115734692D01*
X135653999Y-115668556D01*
X135699054Y-115629515D01*
X135707816Y-115625051D01*
X135820291Y-115543334D01*
X135879786Y-115500109D01*
X135879788Y-115500106D01*
X135879792Y-115500104D01*
X136030104Y-115349792D01*
X136030106Y-115349788D01*
X136030109Y-115349786D01*
X136155048Y-115177820D01*
X136155047Y-115177820D01*
X136155051Y-115177816D01*
X136251557Y-114988412D01*
X136317246Y-114786243D01*
X136350500Y-114576287D01*
X136350500Y-114363713D01*
X136317246Y-114153757D01*
X136251557Y-113951588D01*
X136155051Y-113762184D01*
X136155049Y-113762181D01*
X136155048Y-113762179D01*
X136030109Y-113590213D01*
X135879786Y-113439890D01*
X135707820Y-113314951D01*
X135707115Y-113314591D01*
X135699054Y-113310485D01*
X135648259Y-113262512D01*
X135631463Y-113194692D01*
X135653999Y-113128556D01*
X135699054Y-113089515D01*
X135707816Y-113085051D01*
X135729789Y-113069086D01*
X135879786Y-112960109D01*
X135879788Y-112960106D01*
X135879792Y-112960104D01*
X136030104Y-112809792D01*
X136030106Y-112809788D01*
X136030109Y-112809786D01*
X136155048Y-112637820D01*
X136155047Y-112637820D01*
X136155051Y-112637816D01*
X136251557Y-112448412D01*
X136317246Y-112246243D01*
X136350500Y-112036287D01*
X136350500Y-111823713D01*
X136317246Y-111613757D01*
X136251557Y-111411588D01*
X136155051Y-111222184D01*
X136155049Y-111222181D01*
X136155048Y-111222179D01*
X136030109Y-111050213D01*
X135879786Y-110899890D01*
X135707820Y-110774951D01*
X135707115Y-110774591D01*
X135699054Y-110770485D01*
X135648259Y-110722512D01*
X135631463Y-110654692D01*
X135653999Y-110588556D01*
X135699054Y-110549515D01*
X135707816Y-110545051D01*
X135729789Y-110529086D01*
X135879786Y-110420109D01*
X135879788Y-110420106D01*
X135879792Y-110420104D01*
X136030104Y-110269792D01*
X136030106Y-110269788D01*
X136030109Y-110269786D01*
X136155048Y-110097820D01*
X136155047Y-110097820D01*
X136155051Y-110097816D01*
X136251557Y-109908412D01*
X136317246Y-109706243D01*
X136350500Y-109496287D01*
X136350500Y-109283713D01*
X136317246Y-109073757D01*
X136251557Y-108871588D01*
X136155051Y-108682184D01*
X136155049Y-108682181D01*
X136155048Y-108682179D01*
X136030109Y-108510213D01*
X135879786Y-108359890D01*
X135707820Y-108234951D01*
X135707115Y-108234591D01*
X135699054Y-108230485D01*
X135648259Y-108182512D01*
X135631463Y-108114692D01*
X135653999Y-108048556D01*
X135699054Y-108009515D01*
X135707816Y-108005051D01*
X135729789Y-107989086D01*
X135879786Y-107880109D01*
X135879788Y-107880106D01*
X135879792Y-107880104D01*
X136030104Y-107729792D01*
X136030106Y-107729788D01*
X136030109Y-107729786D01*
X136155048Y-107557820D01*
X136155047Y-107557820D01*
X136155051Y-107557816D01*
X136251557Y-107368412D01*
X136317246Y-107166243D01*
X136350500Y-106956287D01*
X136350500Y-106743713D01*
X136317246Y-106533757D01*
X136251557Y-106331588D01*
X136155051Y-106142184D01*
X136155049Y-106142181D01*
X136155048Y-106142179D01*
X136030109Y-105970213D01*
X135879786Y-105819890D01*
X135707820Y-105694951D01*
X135707115Y-105694591D01*
X135699054Y-105690485D01*
X135648259Y-105642512D01*
X135631463Y-105574692D01*
X135653999Y-105508556D01*
X135699054Y-105469515D01*
X135707816Y-105465051D01*
X135729789Y-105449086D01*
X135879786Y-105340109D01*
X135879788Y-105340106D01*
X135879792Y-105340104D01*
X136030104Y-105189792D01*
X136030106Y-105189788D01*
X136030109Y-105189786D01*
X136155048Y-105017820D01*
X136155047Y-105017820D01*
X136155051Y-105017816D01*
X136251557Y-104828412D01*
X136317246Y-104626243D01*
X136350500Y-104416287D01*
X136350500Y-104203713D01*
X136317246Y-103993757D01*
X136251557Y-103791588D01*
X136155051Y-103602184D01*
X136155049Y-103602181D01*
X136155048Y-103602179D01*
X136030109Y-103430213D01*
X135879786Y-103279890D01*
X135707820Y-103154951D01*
X135707115Y-103154591D01*
X135699054Y-103150485D01*
X135648259Y-103102512D01*
X135631463Y-103034692D01*
X135653999Y-102968556D01*
X135699054Y-102929515D01*
X135707816Y-102925051D01*
X135729789Y-102909086D01*
X135879786Y-102800109D01*
X135879788Y-102800106D01*
X135879792Y-102800104D01*
X136030104Y-102649792D01*
X136030106Y-102649788D01*
X136030109Y-102649786D01*
X136155048Y-102477820D01*
X136155047Y-102477820D01*
X136155051Y-102477816D01*
X136251557Y-102288412D01*
X136317246Y-102086243D01*
X136350500Y-101876287D01*
X136350500Y-101663713D01*
X136317246Y-101453757D01*
X136251557Y-101251588D01*
X136155051Y-101062184D01*
X136155049Y-101062181D01*
X136155048Y-101062179D01*
X136030109Y-100890213D01*
X135879786Y-100739890D01*
X135707820Y-100614951D01*
X135707115Y-100614591D01*
X135699054Y-100610485D01*
X135648259Y-100562512D01*
X135631463Y-100494692D01*
X135653999Y-100428556D01*
X135699054Y-100389515D01*
X135707816Y-100385051D01*
X135729789Y-100369086D01*
X135879786Y-100260109D01*
X135879788Y-100260106D01*
X135879792Y-100260104D01*
X136030104Y-100109792D01*
X136030106Y-100109788D01*
X136030109Y-100109786D01*
X136155048Y-99937820D01*
X136155047Y-99937820D01*
X136155051Y-99937816D01*
X136251557Y-99748412D01*
X136317246Y-99546243D01*
X136350500Y-99336287D01*
X136350500Y-99123713D01*
X136317246Y-98913757D01*
X136251557Y-98711588D01*
X136155051Y-98522184D01*
X136155049Y-98522181D01*
X136155048Y-98522179D01*
X136030109Y-98350213D01*
X135879786Y-98199890D01*
X135707820Y-98074951D01*
X135707115Y-98074591D01*
X135699054Y-98070485D01*
X135648259Y-98022512D01*
X135631463Y-97954692D01*
X135653999Y-97888556D01*
X135699054Y-97849515D01*
X135707816Y-97845051D01*
X135729789Y-97829086D01*
X135879786Y-97720109D01*
X135879788Y-97720106D01*
X135879792Y-97720104D01*
X136030104Y-97569792D01*
X136030106Y-97569788D01*
X136030109Y-97569786D01*
X136155048Y-97397820D01*
X136155047Y-97397820D01*
X136155051Y-97397816D01*
X136251557Y-97208412D01*
X136317246Y-97006243D01*
X136350500Y-96796287D01*
X136350500Y-96583713D01*
X136317246Y-96373757D01*
X136251557Y-96171588D01*
X136155051Y-95982184D01*
X136155049Y-95982181D01*
X136155048Y-95982179D01*
X136030109Y-95810213D01*
X135879786Y-95659890D01*
X135707820Y-95534951D01*
X135707115Y-95534591D01*
X135699054Y-95530485D01*
X135648259Y-95482512D01*
X135631463Y-95414692D01*
X135653999Y-95348556D01*
X135699054Y-95309515D01*
X135707816Y-95305051D01*
X135729789Y-95289086D01*
X135879786Y-95180109D01*
X135879788Y-95180106D01*
X135879792Y-95180104D01*
X136030104Y-95029792D01*
X136030106Y-95029788D01*
X136030109Y-95029786D01*
X136155048Y-94857820D01*
X136155047Y-94857820D01*
X136155051Y-94857816D01*
X136251557Y-94668412D01*
X136317246Y-94466243D01*
X136350500Y-94256287D01*
X136350500Y-94043713D01*
X136317246Y-93833757D01*
X136251557Y-93631588D01*
X136155051Y-93442184D01*
X136155049Y-93442181D01*
X136155048Y-93442179D01*
X136030109Y-93270213D01*
X135879786Y-93119890D01*
X135707820Y-92994951D01*
X135707115Y-92994591D01*
X135699054Y-92990485D01*
X135648259Y-92942512D01*
X135631463Y-92874692D01*
X135653999Y-92808556D01*
X135699054Y-92769515D01*
X135707816Y-92765051D01*
X135729789Y-92749086D01*
X135879786Y-92640109D01*
X135879788Y-92640106D01*
X135879792Y-92640104D01*
X136030104Y-92489792D01*
X136030106Y-92489788D01*
X136030109Y-92489786D01*
X136155048Y-92317820D01*
X136155047Y-92317820D01*
X136155051Y-92317816D01*
X136251557Y-92128412D01*
X136317246Y-91926243D01*
X136350500Y-91716287D01*
X136350500Y-91503713D01*
X136317246Y-91293757D01*
X136251557Y-91091588D01*
X136155051Y-90902184D01*
X136155049Y-90902181D01*
X136155048Y-90902179D01*
X136030109Y-90730213D01*
X135879786Y-90579890D01*
X135707820Y-90454951D01*
X135707115Y-90454591D01*
X135699054Y-90450485D01*
X135648259Y-90402512D01*
X135631463Y-90334692D01*
X135653999Y-90268556D01*
X135699054Y-90229515D01*
X135707816Y-90225051D01*
X135729789Y-90209086D01*
X135879786Y-90100109D01*
X135879788Y-90100106D01*
X135879792Y-90100104D01*
X136030104Y-89949792D01*
X136030106Y-89949788D01*
X136030109Y-89949786D01*
X136139086Y-89799789D01*
X136155051Y-89777816D01*
X136251557Y-89588412D01*
X136317246Y-89386243D01*
X136350500Y-89176287D01*
X136350500Y-88963713D01*
X136317246Y-88753757D01*
X136251557Y-88551588D01*
X136155051Y-88362184D01*
X136155049Y-88362181D01*
X136155048Y-88362179D01*
X136030109Y-88190213D01*
X135879786Y-88039890D01*
X135707820Y-87914951D01*
X135707115Y-87914591D01*
X135699054Y-87910485D01*
X135648259Y-87862512D01*
X135631463Y-87794692D01*
X135653999Y-87728556D01*
X135699054Y-87689515D01*
X135707816Y-87685051D01*
X135776308Y-87635289D01*
X135879786Y-87560109D01*
X135879788Y-87560106D01*
X135879792Y-87560104D01*
X136030104Y-87409792D01*
X136030106Y-87409788D01*
X136030109Y-87409786D01*
X136155048Y-87237820D01*
X136155047Y-87237820D01*
X136155051Y-87237816D01*
X136251557Y-87048412D01*
X136317246Y-86846243D01*
X136350500Y-86636287D01*
X136350500Y-86423713D01*
X136317246Y-86213757D01*
X136251557Y-86011588D01*
X136155051Y-85822184D01*
X136155049Y-85822181D01*
X136155048Y-85822179D01*
X136030109Y-85650213D01*
X135879786Y-85499890D01*
X135707820Y-85374951D01*
X135707115Y-85374591D01*
X135699054Y-85370485D01*
X135648259Y-85322512D01*
X135631463Y-85254692D01*
X135653999Y-85188556D01*
X135699054Y-85149515D01*
X135707816Y-85145051D01*
X135729789Y-85129086D01*
X135879786Y-85020109D01*
X135879788Y-85020106D01*
X135879792Y-85020104D01*
X136030104Y-84869792D01*
X136030106Y-84869788D01*
X136030109Y-84869786D01*
X136155048Y-84697820D01*
X136155047Y-84697820D01*
X136155051Y-84697816D01*
X136251557Y-84508412D01*
X136317246Y-84306243D01*
X136350500Y-84096287D01*
X136350500Y-83883713D01*
X136317246Y-83673757D01*
X136251557Y-83471588D01*
X136155051Y-83282184D01*
X136155049Y-83282181D01*
X136155048Y-83282179D01*
X136030109Y-83110213D01*
X135879786Y-82959890D01*
X135707820Y-82834951D01*
X135518414Y-82738444D01*
X135518413Y-82738443D01*
X135518412Y-82738443D01*
X135316243Y-82672754D01*
X135316241Y-82672753D01*
X135316240Y-82672753D01*
X135154957Y-82647208D01*
X135106287Y-82639500D01*
X134893713Y-82639500D01*
X134845042Y-82647208D01*
X134683760Y-82672753D01*
X134481585Y-82738444D01*
X134292179Y-82834951D01*
X134120213Y-82959890D01*
X133969890Y-83110213D01*
X133844951Y-83282179D01*
X133748444Y-83471585D01*
X133682753Y-83673760D01*
X133649500Y-83883713D01*
X133000500Y-83883713D01*
X133000500Y-78803713D01*
X133649500Y-78803713D01*
X133649500Y-79016286D01*
X133682753Y-79226239D01*
X133748444Y-79428414D01*
X133844951Y-79617820D01*
X133969890Y-79789786D01*
X134120213Y-79940109D01*
X134292179Y-80065048D01*
X134292181Y-80065049D01*
X134292184Y-80065051D01*
X134481588Y-80161557D01*
X134683757Y-80227246D01*
X134893713Y-80260500D01*
X134893714Y-80260500D01*
X135106286Y-80260500D01*
X135106287Y-80260500D01*
X135316243Y-80227246D01*
X135518412Y-80161557D01*
X135707816Y-80065051D01*
X135729789Y-80049086D01*
X135879786Y-79940109D01*
X135879788Y-79940106D01*
X135879792Y-79940104D01*
X136030104Y-79789792D01*
X136030106Y-79789788D01*
X136030109Y-79789786D01*
X136155048Y-79617820D01*
X136155047Y-79617820D01*
X136155051Y-79617816D01*
X136251557Y-79428412D01*
X136317246Y-79226243D01*
X136350500Y-79016287D01*
X136350500Y-78803713D01*
X136317246Y-78593757D01*
X136251557Y-78391588D01*
X136155051Y-78202184D01*
X136155049Y-78202181D01*
X136155048Y-78202179D01*
X136030109Y-78030213D01*
X135879786Y-77879890D01*
X135707820Y-77754951D01*
X135518414Y-77658444D01*
X135518413Y-77658443D01*
X135518412Y-77658443D01*
X135316243Y-77592754D01*
X135316241Y-77592753D01*
X135316240Y-77592753D01*
X135154957Y-77567208D01*
X135106287Y-77559500D01*
X134893713Y-77559500D01*
X134845042Y-77567208D01*
X134683760Y-77592753D01*
X134481585Y-77658444D01*
X134292179Y-77754951D01*
X134120213Y-77879890D01*
X133969890Y-78030213D01*
X133844951Y-78202179D01*
X133748444Y-78391585D01*
X133682753Y-78593760D01*
X133649500Y-78803713D01*
X133000500Y-78803713D01*
X133000500Y-73723713D01*
X133649500Y-73723713D01*
X133649500Y-73936286D01*
X133682753Y-74146239D01*
X133748444Y-74348414D01*
X133844951Y-74537820D01*
X133969890Y-74709786D01*
X134120213Y-74860109D01*
X134292179Y-74985048D01*
X134292181Y-74985049D01*
X134292184Y-74985051D01*
X134481588Y-75081557D01*
X134683757Y-75147246D01*
X134893713Y-75180500D01*
X134893714Y-75180500D01*
X135106286Y-75180500D01*
X135106287Y-75180500D01*
X135316243Y-75147246D01*
X135518412Y-75081557D01*
X135707816Y-74985051D01*
X135729789Y-74969086D01*
X135879786Y-74860109D01*
X135879788Y-74860106D01*
X135879792Y-74860104D01*
X136030104Y-74709792D01*
X136030106Y-74709788D01*
X136030109Y-74709786D01*
X136155048Y-74537820D01*
X136155047Y-74537820D01*
X136155051Y-74537816D01*
X136251557Y-74348412D01*
X136317246Y-74146243D01*
X136350500Y-73936287D01*
X136350500Y-73723713D01*
X136317246Y-73513757D01*
X136251557Y-73311588D01*
X136155051Y-73122184D01*
X136155049Y-73122181D01*
X136155048Y-73122179D01*
X136030109Y-72950213D01*
X135879786Y-72799890D01*
X135707820Y-72674951D01*
X135518414Y-72578444D01*
X135518413Y-72578443D01*
X135518412Y-72578443D01*
X135316243Y-72512754D01*
X135316241Y-72512753D01*
X135316240Y-72512753D01*
X135154957Y-72487208D01*
X135106287Y-72479500D01*
X134893713Y-72479500D01*
X134845042Y-72487208D01*
X134683760Y-72512753D01*
X134481585Y-72578444D01*
X134292179Y-72674951D01*
X134120213Y-72799890D01*
X133969890Y-72950213D01*
X133844951Y-73122179D01*
X133748444Y-73311585D01*
X133682753Y-73513760D01*
X133649500Y-73723713D01*
X133000500Y-73723713D01*
X133000500Y-67852135D01*
X133649500Y-67852135D01*
X133649500Y-69647870D01*
X133649501Y-69647876D01*
X133655908Y-69707483D01*
X133706202Y-69842328D01*
X133706206Y-69842335D01*
X133792452Y-69957544D01*
X133792455Y-69957547D01*
X133907664Y-70043793D01*
X133907671Y-70043797D01*
X134042517Y-70094091D01*
X134042516Y-70094091D01*
X134049444Y-70094835D01*
X134102127Y-70100500D01*
X135897872Y-70100499D01*
X135957483Y-70094091D01*
X136092331Y-70043796D01*
X136207546Y-69957546D01*
X136293796Y-69842331D01*
X136344091Y-69707483D01*
X136349062Y-69661242D01*
X136375799Y-69596694D01*
X136433191Y-69556846D01*
X136472351Y-69550500D01*
X146167060Y-69550500D01*
X146234099Y-69570185D01*
X146254741Y-69586819D01*
X149763181Y-73095259D01*
X149796666Y-73156582D01*
X149799500Y-73182940D01*
X149799500Y-78078846D01*
X149830261Y-78233489D01*
X149830264Y-78233501D01*
X149890602Y-78379172D01*
X149890609Y-78379185D01*
X149978210Y-78510288D01*
X149978213Y-78510292D01*
X155142740Y-83674819D01*
X155176225Y-83736142D01*
X155171241Y-83805834D01*
X155142740Y-83850181D01*
X152104741Y-86888181D01*
X152043418Y-86921666D01*
X152017060Y-86924500D01*
X150782940Y-86924500D01*
X150715901Y-86904815D01*
X150695259Y-86888181D01*
X150310292Y-86503213D01*
X150310288Y-86503210D01*
X150179185Y-86415609D01*
X150179172Y-86415602D01*
X150033501Y-86355264D01*
X150033489Y-86355261D01*
X149878845Y-86324500D01*
X149878842Y-86324500D01*
X149721158Y-86324500D01*
X149721155Y-86324500D01*
X149566510Y-86355261D01*
X149566498Y-86355264D01*
X149420827Y-86415602D01*
X149420814Y-86415609D01*
X149289711Y-86503210D01*
X149289707Y-86503213D01*
X149178213Y-86614707D01*
X149178210Y-86614711D01*
X149090609Y-86745814D01*
X149090602Y-86745827D01*
X149030264Y-86891498D01*
X149030261Y-86891510D01*
X148999500Y-87046153D01*
X148999500Y-87203846D01*
X149030261Y-87358489D01*
X149030264Y-87358501D01*
X149090602Y-87504172D01*
X149090609Y-87504185D01*
X149178210Y-87635288D01*
X149178213Y-87635292D01*
X149563181Y-88020259D01*
X149596666Y-88081582D01*
X149599500Y-88107940D01*
X149599500Y-113878846D01*
X149630261Y-114033489D01*
X149630264Y-114033501D01*
X149690602Y-114179172D01*
X149690609Y-114179185D01*
X149778210Y-114310288D01*
X149778213Y-114310292D01*
X150178211Y-114710289D01*
X150289711Y-114821789D01*
X150420821Y-114909394D01*
X150523833Y-114952062D01*
X150566502Y-114969737D01*
X150660387Y-114988412D01*
X150721152Y-115000499D01*
X150721155Y-115000500D01*
X150721157Y-115000500D01*
X150721158Y-115000500D01*
X150878842Y-115000500D01*
X153217060Y-115000500D01*
X153284099Y-115020185D01*
X153304741Y-115036819D01*
X153680241Y-115412319D01*
X153713726Y-115473642D01*
X153708742Y-115543334D01*
X153680241Y-115587681D01*
X153406716Y-115861206D01*
X153354751Y-115913171D01*
X153295214Y-115972707D01*
X153207614Y-116103809D01*
X153207607Y-116103822D01*
X153147269Y-116249493D01*
X153147266Y-116249505D01*
X153116505Y-116404148D01*
X153116505Y-117885271D01*
X153096820Y-117952310D01*
X153044016Y-117998065D01*
X152974858Y-118008009D01*
X152913846Y-117981129D01*
X152910292Y-117978212D01*
X152779185Y-117890609D01*
X152779172Y-117890602D01*
X152633501Y-117830264D01*
X152633489Y-117830261D01*
X152478845Y-117799500D01*
X152478842Y-117799500D01*
X152321158Y-117799500D01*
X152321155Y-117799500D01*
X152166510Y-117830261D01*
X152166498Y-117830264D01*
X152020827Y-117890602D01*
X152020814Y-117890609D01*
X151889711Y-117978210D01*
X151889707Y-117978213D01*
X151778213Y-118089707D01*
X151778210Y-118089711D01*
X151690609Y-118220814D01*
X151690602Y-118220827D01*
X151630264Y-118366498D01*
X151630261Y-118366510D01*
X151599500Y-118521153D01*
X151599500Y-118678846D01*
X151630261Y-118833489D01*
X151630264Y-118833501D01*
X151690602Y-118979172D01*
X151690609Y-118979185D01*
X151778210Y-119110288D01*
X151778213Y-119110292D01*
X151889707Y-119221786D01*
X151889711Y-119221789D01*
X152020814Y-119309390D01*
X152020827Y-119309397D01*
X152166498Y-119369735D01*
X152166503Y-119369737D01*
X152231147Y-119382595D01*
X152321849Y-119400638D01*
X152383760Y-119433023D01*
X152385339Y-119434574D01*
X155405139Y-122454374D01*
X155405149Y-122454385D01*
X155409479Y-122458715D01*
X155409480Y-122458716D01*
X155521284Y-122570520D01*
X155521286Y-122570521D01*
X155521290Y-122570524D01*
X155658209Y-122649573D01*
X155658216Y-122649577D01*
X155770019Y-122679534D01*
X155810942Y-122690500D01*
X155810943Y-122690500D01*
X168714281Y-122690500D01*
X168781320Y-122710185D01*
X168824765Y-122758205D01*
X168844947Y-122797814D01*
X168844948Y-122797815D01*
X168969890Y-122969786D01*
X169120213Y-123120109D01*
X169292182Y-123245050D01*
X169300946Y-123249516D01*
X169351742Y-123297491D01*
X169368536Y-123365312D01*
X169345998Y-123431447D01*
X169300946Y-123470484D01*
X169292182Y-123474949D01*
X169120213Y-123599890D01*
X168969890Y-123750213D01*
X168844951Y-123922179D01*
X168748444Y-124111585D01*
X168682753Y-124313760D01*
X168649500Y-124523713D01*
X168649500Y-124736286D01*
X168682753Y-124946239D01*
X168748444Y-125148414D01*
X168844951Y-125337820D01*
X168969890Y-125509786D01*
X169120213Y-125660109D01*
X169292182Y-125785050D01*
X169300946Y-125789516D01*
X169351742Y-125837491D01*
X169368536Y-125905312D01*
X169345998Y-125971447D01*
X169300946Y-126010484D01*
X169292182Y-126014949D01*
X169120213Y-126139890D01*
X168969890Y-126290213D01*
X168844951Y-126462179D01*
X168748444Y-126651585D01*
X168682753Y-126853760D01*
X168649500Y-127063713D01*
X168649500Y-127276286D01*
X168682753Y-127486239D01*
X168748444Y-127688414D01*
X168844951Y-127877820D01*
X168969890Y-128049786D01*
X169120213Y-128200109D01*
X169292179Y-128325048D01*
X169292181Y-128325049D01*
X169292184Y-128325051D01*
X169481588Y-128421557D01*
X169683757Y-128487246D01*
X169893713Y-128520500D01*
X169893714Y-128520500D01*
X170106286Y-128520500D01*
X170106287Y-128520500D01*
X170316243Y-128487246D01*
X170518412Y-128421557D01*
X170707816Y-128325051D01*
X170729789Y-128309086D01*
X170879786Y-128200109D01*
X170879788Y-128200106D01*
X170879792Y-128200104D01*
X171030104Y-128049792D01*
X171030106Y-128049788D01*
X171030109Y-128049786D01*
X171155048Y-127877820D01*
X171155047Y-127877820D01*
X171155051Y-127877816D01*
X171251557Y-127688412D01*
X171317246Y-127486243D01*
X171350500Y-127276287D01*
X171350500Y-127063713D01*
X171317246Y-126853757D01*
X171251557Y-126651588D01*
X171155051Y-126462184D01*
X171155049Y-126462181D01*
X171155048Y-126462179D01*
X171030109Y-126290213D01*
X170879786Y-126139890D01*
X170707820Y-126014951D01*
X170707115Y-126014591D01*
X170699054Y-126010485D01*
X170648259Y-125962512D01*
X170631463Y-125894692D01*
X170653999Y-125828556D01*
X170699054Y-125789515D01*
X170707816Y-125785051D01*
X170729789Y-125769086D01*
X170879786Y-125660109D01*
X170879788Y-125660106D01*
X170879792Y-125660104D01*
X171030104Y-125509792D01*
X171030106Y-125509788D01*
X171030109Y-125509786D01*
X171155048Y-125337820D01*
X171155047Y-125337820D01*
X171155051Y-125337816D01*
X171251557Y-125148412D01*
X171317246Y-124946243D01*
X171350500Y-124736287D01*
X171350500Y-124523713D01*
X171317246Y-124313757D01*
X171251557Y-124111588D01*
X171155051Y-123922184D01*
X171155049Y-123922181D01*
X171155048Y-123922179D01*
X171030109Y-123750213D01*
X170879786Y-123599890D01*
X170707820Y-123474951D01*
X170707115Y-123474591D01*
X170699054Y-123470485D01*
X170648259Y-123422512D01*
X170631463Y-123354692D01*
X170653999Y-123288556D01*
X170699054Y-123249515D01*
X170707816Y-123245051D01*
X170729789Y-123229086D01*
X170879786Y-123120109D01*
X170879788Y-123120106D01*
X170879792Y-123120104D01*
X171030104Y-122969792D01*
X171030106Y-122969788D01*
X171030109Y-122969786D01*
X171155048Y-122797820D01*
X171155047Y-122797820D01*
X171155051Y-122797816D01*
X171251557Y-122608412D01*
X171317246Y-122406243D01*
X171350500Y-122196287D01*
X171350500Y-121983713D01*
X171317246Y-121773757D01*
X171251557Y-121571588D01*
X171155051Y-121382184D01*
X171155049Y-121382181D01*
X171155048Y-121382179D01*
X171030109Y-121210213D01*
X170879786Y-121059890D01*
X170707820Y-120934951D01*
X170707115Y-120934591D01*
X170699054Y-120930485D01*
X170648259Y-120882512D01*
X170631463Y-120814692D01*
X170653999Y-120748556D01*
X170699054Y-120709515D01*
X170707816Y-120705051D01*
X170775335Y-120655996D01*
X170879786Y-120580109D01*
X170879788Y-120580106D01*
X170879792Y-120580104D01*
X171030104Y-120429792D01*
X171030106Y-120429788D01*
X171030109Y-120429786D01*
X171151648Y-120262500D01*
X171155051Y-120257816D01*
X171251557Y-120068412D01*
X171317246Y-119866243D01*
X171350500Y-119656287D01*
X171350500Y-119443713D01*
X171317246Y-119233757D01*
X171251557Y-119031588D01*
X171155051Y-118842184D01*
X171155049Y-118842181D01*
X171155048Y-118842179D01*
X171030109Y-118670213D01*
X170879786Y-118519890D01*
X170707820Y-118394951D01*
X170707115Y-118394591D01*
X170699054Y-118390485D01*
X170648259Y-118342512D01*
X170631463Y-118274692D01*
X170653999Y-118208556D01*
X170699054Y-118169515D01*
X170707816Y-118165051D01*
X170740226Y-118141504D01*
X170879786Y-118040109D01*
X170879788Y-118040106D01*
X170879792Y-118040104D01*
X171030104Y-117889792D01*
X171030106Y-117889788D01*
X171030109Y-117889786D01*
X171155048Y-117717820D01*
X171155047Y-117717820D01*
X171155051Y-117717816D01*
X171251557Y-117528412D01*
X171317246Y-117326243D01*
X171350500Y-117116287D01*
X171350500Y-116903713D01*
X171317246Y-116693757D01*
X171251557Y-116491588D01*
X171155051Y-116302184D01*
X171155049Y-116302181D01*
X171155048Y-116302179D01*
X171030109Y-116130213D01*
X170879786Y-115979890D01*
X170707818Y-115854950D01*
X170707450Y-115854762D01*
X170699054Y-115850485D01*
X170648259Y-115802512D01*
X170631463Y-115734692D01*
X170653999Y-115668556D01*
X170699054Y-115629515D01*
X170707816Y-115625051D01*
X170820291Y-115543334D01*
X170879786Y-115500109D01*
X170879788Y-115500106D01*
X170879792Y-115500104D01*
X171030104Y-115349792D01*
X171030106Y-115349788D01*
X171030109Y-115349786D01*
X171155048Y-115177820D01*
X171155047Y-115177820D01*
X171155051Y-115177816D01*
X171251557Y-114988412D01*
X171317246Y-114786243D01*
X171350500Y-114576287D01*
X171350500Y-114363713D01*
X171317246Y-114153757D01*
X171251557Y-113951588D01*
X171155051Y-113762184D01*
X171155049Y-113762181D01*
X171155048Y-113762179D01*
X171030109Y-113590213D01*
X170879786Y-113439890D01*
X170707820Y-113314951D01*
X170707115Y-113314591D01*
X170699054Y-113310485D01*
X170648259Y-113262512D01*
X170631463Y-113194692D01*
X170653999Y-113128556D01*
X170699054Y-113089515D01*
X170707816Y-113085051D01*
X170729789Y-113069086D01*
X170879786Y-112960109D01*
X170879788Y-112960106D01*
X170879792Y-112960104D01*
X171030104Y-112809792D01*
X171030106Y-112809788D01*
X171030109Y-112809786D01*
X171155048Y-112637820D01*
X171155047Y-112637820D01*
X171155051Y-112637816D01*
X171251557Y-112448412D01*
X171317246Y-112246243D01*
X171350500Y-112036287D01*
X171350500Y-111823713D01*
X171317246Y-111613757D01*
X171251557Y-111411588D01*
X171155051Y-111222184D01*
X171155049Y-111222181D01*
X171155048Y-111222179D01*
X171030109Y-111050213D01*
X170879786Y-110899890D01*
X170707820Y-110774951D01*
X170707115Y-110774591D01*
X170699054Y-110770485D01*
X170648259Y-110722512D01*
X170631463Y-110654692D01*
X170653999Y-110588556D01*
X170699054Y-110549515D01*
X170707816Y-110545051D01*
X170729789Y-110529086D01*
X170879786Y-110420109D01*
X170879788Y-110420106D01*
X170879792Y-110420104D01*
X171030104Y-110269792D01*
X171030106Y-110269788D01*
X171030109Y-110269786D01*
X171155048Y-110097820D01*
X171155047Y-110097820D01*
X171155051Y-110097816D01*
X171251557Y-109908412D01*
X171317246Y-109706243D01*
X171350500Y-109496287D01*
X171350500Y-109283713D01*
X171317246Y-109073757D01*
X171251557Y-108871588D01*
X171155051Y-108682184D01*
X171155049Y-108682181D01*
X171155048Y-108682179D01*
X171030109Y-108510213D01*
X170879786Y-108359890D01*
X170707820Y-108234951D01*
X170707115Y-108234591D01*
X170699054Y-108230485D01*
X170648259Y-108182512D01*
X170631463Y-108114692D01*
X170653999Y-108048556D01*
X170699054Y-108009515D01*
X170707816Y-108005051D01*
X170729789Y-107989086D01*
X170879786Y-107880109D01*
X170879788Y-107880106D01*
X170879792Y-107880104D01*
X171030104Y-107729792D01*
X171030106Y-107729788D01*
X171030109Y-107729786D01*
X171155048Y-107557820D01*
X171155047Y-107557820D01*
X171155051Y-107557816D01*
X171251557Y-107368412D01*
X171317246Y-107166243D01*
X171350500Y-106956287D01*
X171350500Y-106743713D01*
X171317246Y-106533757D01*
X171251557Y-106331588D01*
X171155051Y-106142184D01*
X171155049Y-106142181D01*
X171155048Y-106142179D01*
X171030109Y-105970213D01*
X170879786Y-105819890D01*
X170707820Y-105694951D01*
X170707115Y-105694591D01*
X170699054Y-105690485D01*
X170648259Y-105642512D01*
X170631463Y-105574692D01*
X170653999Y-105508556D01*
X170699054Y-105469515D01*
X170707816Y-105465051D01*
X170729789Y-105449086D01*
X170879786Y-105340109D01*
X170879788Y-105340106D01*
X170879792Y-105340104D01*
X171030104Y-105189792D01*
X171030106Y-105189788D01*
X171030109Y-105189786D01*
X171155048Y-105017820D01*
X171155047Y-105017820D01*
X171155051Y-105017816D01*
X171251557Y-104828412D01*
X171317246Y-104626243D01*
X171350500Y-104416287D01*
X171350500Y-104203713D01*
X171317246Y-103993757D01*
X171251557Y-103791588D01*
X171155051Y-103602184D01*
X171155049Y-103602181D01*
X171155048Y-103602179D01*
X171030109Y-103430213D01*
X170879786Y-103279890D01*
X170707820Y-103154951D01*
X170707115Y-103154591D01*
X170699054Y-103150485D01*
X170648259Y-103102512D01*
X170631463Y-103034692D01*
X170653999Y-102968556D01*
X170699054Y-102929515D01*
X170707816Y-102925051D01*
X170729789Y-102909086D01*
X170879786Y-102800109D01*
X170879788Y-102800106D01*
X170879792Y-102800104D01*
X171030104Y-102649792D01*
X171030106Y-102649788D01*
X171030109Y-102649786D01*
X171155048Y-102477820D01*
X171155047Y-102477820D01*
X171155051Y-102477816D01*
X171251557Y-102288412D01*
X171317246Y-102086243D01*
X171350500Y-101876287D01*
X171350500Y-101663713D01*
X171317246Y-101453757D01*
X171251557Y-101251588D01*
X171155051Y-101062184D01*
X171155049Y-101062181D01*
X171155048Y-101062179D01*
X171030109Y-100890213D01*
X170879786Y-100739890D01*
X170707820Y-100614951D01*
X170707115Y-100614591D01*
X170699054Y-100610485D01*
X170648259Y-100562512D01*
X170631463Y-100494692D01*
X170653999Y-100428556D01*
X170699054Y-100389515D01*
X170707816Y-100385051D01*
X170729789Y-100369086D01*
X170879786Y-100260109D01*
X170879788Y-100260106D01*
X170879792Y-100260104D01*
X171030104Y-100109792D01*
X171030106Y-100109788D01*
X171030109Y-100109786D01*
X171155048Y-99937820D01*
X171155047Y-99937820D01*
X171155051Y-99937816D01*
X171251557Y-99748412D01*
X171317246Y-99546243D01*
X171350500Y-99336287D01*
X171350500Y-99123713D01*
X171317246Y-98913757D01*
X171251557Y-98711588D01*
X171155051Y-98522184D01*
X171155049Y-98522181D01*
X171155048Y-98522179D01*
X171030109Y-98350213D01*
X170879786Y-98199890D01*
X170707820Y-98074951D01*
X170707115Y-98074591D01*
X170699054Y-98070485D01*
X170648259Y-98022512D01*
X170631463Y-97954692D01*
X170653999Y-97888556D01*
X170699054Y-97849515D01*
X170707816Y-97845051D01*
X170729789Y-97829086D01*
X170879786Y-97720109D01*
X170879788Y-97720106D01*
X170879792Y-97720104D01*
X171030104Y-97569792D01*
X171030106Y-97569788D01*
X171030109Y-97569786D01*
X171155048Y-97397820D01*
X171155047Y-97397820D01*
X171155051Y-97397816D01*
X171251557Y-97208412D01*
X171317246Y-97006243D01*
X171350500Y-96796287D01*
X171350500Y-96583713D01*
X171317246Y-96373757D01*
X171251557Y-96171588D01*
X171155051Y-95982184D01*
X171155049Y-95982181D01*
X171155048Y-95982179D01*
X171030109Y-95810213D01*
X170879786Y-95659890D01*
X170707820Y-95534951D01*
X170707115Y-95534591D01*
X170699054Y-95530485D01*
X170648259Y-95482512D01*
X170631463Y-95414692D01*
X170653999Y-95348556D01*
X170699054Y-95309515D01*
X170707816Y-95305051D01*
X170729789Y-95289086D01*
X170879786Y-95180109D01*
X170879788Y-95180106D01*
X170879792Y-95180104D01*
X171030104Y-95029792D01*
X171030106Y-95029788D01*
X171030109Y-95029786D01*
X171155048Y-94857820D01*
X171155047Y-94857820D01*
X171155051Y-94857816D01*
X171251557Y-94668412D01*
X171317246Y-94466243D01*
X171350500Y-94256287D01*
X171350500Y-94043713D01*
X171317246Y-93833757D01*
X171251557Y-93631588D01*
X171155051Y-93442184D01*
X171155049Y-93442181D01*
X171155048Y-93442179D01*
X171030109Y-93270213D01*
X170879786Y-93119890D01*
X170707820Y-92994951D01*
X170707115Y-92994591D01*
X170699054Y-92990485D01*
X170648259Y-92942512D01*
X170631463Y-92874692D01*
X170653999Y-92808556D01*
X170699054Y-92769515D01*
X170707816Y-92765051D01*
X170729789Y-92749086D01*
X170879786Y-92640109D01*
X170879788Y-92640106D01*
X170879792Y-92640104D01*
X171030104Y-92489792D01*
X171030106Y-92489788D01*
X171030109Y-92489786D01*
X171155048Y-92317820D01*
X171155047Y-92317820D01*
X171155051Y-92317816D01*
X171251557Y-92128412D01*
X171317246Y-91926243D01*
X171350500Y-91716287D01*
X171350500Y-91503713D01*
X171317246Y-91293757D01*
X171251557Y-91091588D01*
X171155051Y-90902184D01*
X171155049Y-90902181D01*
X171155048Y-90902179D01*
X171030109Y-90730213D01*
X170879786Y-90579890D01*
X170707820Y-90454951D01*
X170707115Y-90454591D01*
X170699054Y-90450485D01*
X170648259Y-90402512D01*
X170631463Y-90334692D01*
X170653999Y-90268556D01*
X170699054Y-90229515D01*
X170707816Y-90225051D01*
X170729789Y-90209086D01*
X170879786Y-90100109D01*
X170879788Y-90100106D01*
X170879792Y-90100104D01*
X171030104Y-89949792D01*
X171030106Y-89949788D01*
X171030109Y-89949786D01*
X171139086Y-89799789D01*
X171155051Y-89777816D01*
X171251557Y-89588412D01*
X171317246Y-89386243D01*
X171350500Y-89176287D01*
X171350500Y-88963713D01*
X171317246Y-88753757D01*
X171251557Y-88551588D01*
X171155051Y-88362184D01*
X171155049Y-88362181D01*
X171155048Y-88362179D01*
X171030109Y-88190213D01*
X170879786Y-88039890D01*
X170707820Y-87914951D01*
X170707115Y-87914591D01*
X170699054Y-87910485D01*
X170648259Y-87862512D01*
X170631463Y-87794692D01*
X170653999Y-87728556D01*
X170699054Y-87689515D01*
X170707816Y-87685051D01*
X170776308Y-87635289D01*
X170879786Y-87560109D01*
X170879788Y-87560106D01*
X170879792Y-87560104D01*
X171030104Y-87409792D01*
X171030106Y-87409788D01*
X171030109Y-87409786D01*
X171155048Y-87237820D01*
X171155047Y-87237820D01*
X171155051Y-87237816D01*
X171251557Y-87048412D01*
X171317246Y-86846243D01*
X171350500Y-86636287D01*
X171350500Y-86423713D01*
X171317246Y-86213757D01*
X171251557Y-86011588D01*
X171155051Y-85822184D01*
X171155049Y-85822181D01*
X171155048Y-85822179D01*
X171030109Y-85650213D01*
X170879786Y-85499890D01*
X170707820Y-85374951D01*
X170707115Y-85374591D01*
X170699054Y-85370485D01*
X170648259Y-85322512D01*
X170631463Y-85254692D01*
X170653999Y-85188556D01*
X170699054Y-85149515D01*
X170707816Y-85145051D01*
X170729789Y-85129086D01*
X170879786Y-85020109D01*
X170879788Y-85020106D01*
X170879792Y-85020104D01*
X171030104Y-84869792D01*
X171030106Y-84869788D01*
X171030109Y-84869786D01*
X171155048Y-84697820D01*
X171155047Y-84697820D01*
X171155051Y-84697816D01*
X171251557Y-84508412D01*
X171317246Y-84306243D01*
X171350500Y-84096287D01*
X171350500Y-83883713D01*
X171317246Y-83673757D01*
X171251557Y-83471588D01*
X171155051Y-83282184D01*
X171155049Y-83282181D01*
X171155048Y-83282179D01*
X171030109Y-83110213D01*
X170879786Y-82959890D01*
X170707820Y-82834951D01*
X170707115Y-82834591D01*
X170699054Y-82830485D01*
X170648259Y-82782512D01*
X170631463Y-82714692D01*
X170653999Y-82648556D01*
X170699054Y-82609515D01*
X170707816Y-82605051D01*
X170729789Y-82589086D01*
X170879786Y-82480109D01*
X170879788Y-82480106D01*
X170879792Y-82480104D01*
X171030104Y-82329792D01*
X171030106Y-82329788D01*
X171030109Y-82329786D01*
X171155048Y-82157820D01*
X171155047Y-82157820D01*
X171155051Y-82157816D01*
X171251557Y-81968412D01*
X171317246Y-81766243D01*
X171350500Y-81556287D01*
X171350500Y-81343713D01*
X171317246Y-81133757D01*
X171251557Y-80931588D01*
X171155051Y-80742184D01*
X171155049Y-80742181D01*
X171155048Y-80742179D01*
X171030109Y-80570213D01*
X170879786Y-80419890D01*
X170707820Y-80294951D01*
X170707115Y-80294591D01*
X170699054Y-80290485D01*
X170648259Y-80242512D01*
X170631463Y-80174692D01*
X170653999Y-80108556D01*
X170699054Y-80069515D01*
X170707816Y-80065051D01*
X170729789Y-80049086D01*
X170879786Y-79940109D01*
X170879788Y-79940106D01*
X170879792Y-79940104D01*
X171030104Y-79789792D01*
X171030106Y-79789788D01*
X171030109Y-79789786D01*
X171155048Y-79617820D01*
X171155047Y-79617820D01*
X171155051Y-79617816D01*
X171251557Y-79428412D01*
X171317246Y-79226243D01*
X171350500Y-79016287D01*
X171350500Y-78803713D01*
X171317246Y-78593757D01*
X171251557Y-78391588D01*
X171155051Y-78202184D01*
X171155049Y-78202181D01*
X171155048Y-78202179D01*
X171030109Y-78030213D01*
X170879786Y-77879890D01*
X170707820Y-77754951D01*
X170707115Y-77754591D01*
X170699054Y-77750485D01*
X170648259Y-77702512D01*
X170631463Y-77634692D01*
X170653999Y-77568556D01*
X170699054Y-77529515D01*
X170707816Y-77525051D01*
X170729789Y-77509086D01*
X170879786Y-77400109D01*
X170879788Y-77400106D01*
X170879792Y-77400104D01*
X171030104Y-77249792D01*
X171030106Y-77249788D01*
X171030109Y-77249786D01*
X171155048Y-77077820D01*
X171155047Y-77077820D01*
X171155051Y-77077816D01*
X171251557Y-76888412D01*
X171317246Y-76686243D01*
X171350500Y-76476287D01*
X171350500Y-76263713D01*
X171317246Y-76053757D01*
X171251557Y-75851588D01*
X171155051Y-75662184D01*
X171155049Y-75662181D01*
X171155048Y-75662179D01*
X171030109Y-75490213D01*
X170879786Y-75339890D01*
X170707820Y-75214951D01*
X170707115Y-75214591D01*
X170699054Y-75210485D01*
X170648259Y-75162512D01*
X170631463Y-75094692D01*
X170653999Y-75028556D01*
X170699054Y-74989515D01*
X170707816Y-74985051D01*
X170729789Y-74969086D01*
X170879786Y-74860109D01*
X170879788Y-74860106D01*
X170879792Y-74860104D01*
X171030104Y-74709792D01*
X171030106Y-74709788D01*
X171030109Y-74709786D01*
X171155048Y-74537820D01*
X171155047Y-74537820D01*
X171155051Y-74537816D01*
X171251557Y-74348412D01*
X171317246Y-74146243D01*
X171350500Y-73936287D01*
X171350500Y-73723713D01*
X171317246Y-73513757D01*
X171251557Y-73311588D01*
X171155051Y-73122184D01*
X171155049Y-73122181D01*
X171155048Y-73122179D01*
X171030109Y-72950213D01*
X170879786Y-72799890D01*
X170707820Y-72674951D01*
X170707115Y-72674591D01*
X170699054Y-72670485D01*
X170648259Y-72622512D01*
X170631463Y-72554692D01*
X170653999Y-72488556D01*
X170699054Y-72449515D01*
X170707816Y-72445051D01*
X170729789Y-72429086D01*
X170879786Y-72320109D01*
X170879788Y-72320106D01*
X170879792Y-72320104D01*
X171030104Y-72169792D01*
X171030106Y-72169788D01*
X171030109Y-72169786D01*
X171155048Y-71997820D01*
X171155047Y-71997820D01*
X171155051Y-71997816D01*
X171251557Y-71808412D01*
X171317246Y-71606243D01*
X171350500Y-71396287D01*
X171350500Y-71183713D01*
X171317246Y-70973757D01*
X171251557Y-70771588D01*
X171155051Y-70582184D01*
X171155049Y-70582181D01*
X171155048Y-70582179D01*
X171030109Y-70410213D01*
X170916569Y-70296673D01*
X170883084Y-70235350D01*
X170888068Y-70165658D01*
X170929940Y-70109725D01*
X170960915Y-70092810D01*
X171092331Y-70043796D01*
X171207546Y-69957546D01*
X171293796Y-69842331D01*
X171344091Y-69707483D01*
X171350500Y-69647873D01*
X171350499Y-67852128D01*
X171344091Y-67792517D01*
X171293796Y-67657669D01*
X171293795Y-67657668D01*
X171293793Y-67657664D01*
X171207547Y-67542455D01*
X171207544Y-67542452D01*
X171092335Y-67456206D01*
X171092328Y-67456202D01*
X170957482Y-67405908D01*
X170957483Y-67405908D01*
X170897883Y-67399501D01*
X170897881Y-67399500D01*
X170897873Y-67399500D01*
X170897864Y-67399500D01*
X169102129Y-67399500D01*
X169102123Y-67399501D01*
X169042516Y-67405908D01*
X168907671Y-67456202D01*
X168907664Y-67456206D01*
X168792455Y-67542452D01*
X168792452Y-67542455D01*
X168706206Y-67657664D01*
X168706202Y-67657671D01*
X168655908Y-67792517D01*
X168650938Y-67838752D01*
X168649501Y-67852123D01*
X168649500Y-67852135D01*
X168649500Y-69647870D01*
X168649501Y-69647876D01*
X168655908Y-69707483D01*
X168706202Y-69842328D01*
X168706206Y-69842335D01*
X168792452Y-69957544D01*
X168792455Y-69957547D01*
X168907664Y-70043793D01*
X168907671Y-70043797D01*
X169039082Y-70092810D01*
X169095016Y-70134681D01*
X169119433Y-70200145D01*
X169104582Y-70268418D01*
X169083431Y-70296673D01*
X168969889Y-70410215D01*
X168844951Y-70582179D01*
X168748444Y-70771585D01*
X168682753Y-70973760D01*
X168649500Y-71183713D01*
X168649500Y-71396287D01*
X168682754Y-71606243D01*
X168734824Y-71766498D01*
X168748444Y-71808414D01*
X168844951Y-71997820D01*
X168969890Y-72169786D01*
X169120213Y-72320109D01*
X169292182Y-72445050D01*
X169300946Y-72449516D01*
X169351742Y-72497491D01*
X169368536Y-72565312D01*
X169345998Y-72631447D01*
X169300946Y-72670484D01*
X169292182Y-72674949D01*
X169120213Y-72799890D01*
X168969890Y-72950213D01*
X168844951Y-73122179D01*
X168748444Y-73311585D01*
X168682753Y-73513760D01*
X168649500Y-73723713D01*
X168649500Y-73936286D01*
X168682753Y-74146239D01*
X168748444Y-74348414D01*
X168844951Y-74537820D01*
X168969890Y-74709786D01*
X169120213Y-74860109D01*
X169292182Y-74985050D01*
X169300946Y-74989516D01*
X169351742Y-75037491D01*
X169368536Y-75105312D01*
X169345998Y-75171447D01*
X169300946Y-75210484D01*
X169292182Y-75214949D01*
X169120213Y-75339890D01*
X168969890Y-75490213D01*
X168844951Y-75662179D01*
X168748444Y-75851585D01*
X168682753Y-76053760D01*
X168649500Y-76263713D01*
X168649500Y-76476286D01*
X168682753Y-76686239D01*
X168748444Y-76888414D01*
X168844951Y-77077820D01*
X168969890Y-77249786D01*
X169120213Y-77400109D01*
X169292182Y-77525050D01*
X169300946Y-77529516D01*
X169351742Y-77577491D01*
X169368536Y-77645312D01*
X169345998Y-77711447D01*
X169300946Y-77750484D01*
X169292182Y-77754949D01*
X169120213Y-77879890D01*
X168969890Y-78030213D01*
X168844951Y-78202179D01*
X168748444Y-78391585D01*
X168682753Y-78593760D01*
X168649500Y-78803713D01*
X168649500Y-79016286D01*
X168682753Y-79226239D01*
X168748444Y-79428414D01*
X168844951Y-79617820D01*
X168969890Y-79789786D01*
X169120213Y-79940109D01*
X169292182Y-80065050D01*
X169300946Y-80069516D01*
X169351742Y-80117491D01*
X169368536Y-80185312D01*
X169345998Y-80251447D01*
X169300946Y-80290484D01*
X169292182Y-80294949D01*
X169120213Y-80419890D01*
X168969890Y-80570213D01*
X168844951Y-80742179D01*
X168748444Y-80931585D01*
X168682753Y-81133760D01*
X168649500Y-81343713D01*
X168649500Y-81556286D01*
X168682753Y-81766239D01*
X168748444Y-81968414D01*
X168844951Y-82157820D01*
X168969890Y-82329786D01*
X169120213Y-82480109D01*
X169292182Y-82605050D01*
X169300946Y-82609516D01*
X169351742Y-82657491D01*
X169368536Y-82725312D01*
X169345998Y-82791447D01*
X169300946Y-82830484D01*
X169292182Y-82834949D01*
X169120213Y-82959890D01*
X168969890Y-83110213D01*
X168844951Y-83282179D01*
X168748444Y-83471585D01*
X168682753Y-83673760D01*
X168649500Y-83883713D01*
X168649500Y-84096286D01*
X168677455Y-84272790D01*
X168682754Y-84306243D01*
X168708113Y-84384291D01*
X168748444Y-84508414D01*
X168844951Y-84697820D01*
X168969890Y-84869786D01*
X169120213Y-85020109D01*
X169292182Y-85145050D01*
X169300946Y-85149516D01*
X169351742Y-85197491D01*
X169368536Y-85265312D01*
X169345998Y-85331447D01*
X169300946Y-85370484D01*
X169292182Y-85374949D01*
X169120213Y-85499890D01*
X168969890Y-85650213D01*
X168844951Y-85822179D01*
X168748444Y-86011585D01*
X168682753Y-86213760D01*
X168649500Y-86423713D01*
X168649500Y-86636286D01*
X168666849Y-86745827D01*
X168682754Y-86846243D01*
X168708181Y-86924500D01*
X168748444Y-87048414D01*
X168844951Y-87237820D01*
X168969890Y-87409786D01*
X169120213Y-87560109D01*
X169292182Y-87685050D01*
X169300946Y-87689516D01*
X169351742Y-87737491D01*
X169368536Y-87805312D01*
X169345998Y-87871447D01*
X169300946Y-87910484D01*
X169292182Y-87914949D01*
X169120213Y-88039890D01*
X168969890Y-88190213D01*
X168844948Y-88362184D01*
X168844947Y-88362185D01*
X168824765Y-88401795D01*
X168776791Y-88452591D01*
X168714281Y-88469500D01*
X153229848Y-88469500D01*
X153201902Y-88461294D01*
X153173287Y-88455849D01*
X153168774Y-88451566D01*
X153162809Y-88449815D01*
X153143738Y-88427806D01*
X153122607Y-88407752D01*
X153119706Y-88400071D01*
X153117054Y-88397011D01*
X153109412Y-88375017D01*
X153108764Y-88372376D01*
X153092678Y-88291503D01*
X153083532Y-88269423D01*
X153081281Y-88260238D01*
X153082450Y-88234412D01*
X153079686Y-88208709D01*
X153084005Y-88200079D01*
X153084442Y-88190440D01*
X153099387Y-88169347D01*
X153110959Y-88146228D01*
X153114008Y-88143068D01*
X156865721Y-84391356D01*
X156865728Y-84391350D01*
X156872788Y-84384290D01*
X156872790Y-84384289D01*
X156984289Y-84272790D01*
X156984290Y-84272788D01*
X156991345Y-84265733D01*
X156991353Y-84265723D01*
X157221789Y-84035289D01*
X157309394Y-83904179D01*
X157369738Y-83758497D01*
X157400500Y-83603842D01*
X157400500Y-83446157D01*
X157369738Y-83291503D01*
X157309394Y-83145821D01*
X157309392Y-83145818D01*
X157309390Y-83145814D01*
X157221789Y-83014711D01*
X157221786Y-83014707D01*
X157110292Y-82903213D01*
X157110288Y-82903210D01*
X156979185Y-82815609D01*
X156979175Y-82815604D01*
X156833497Y-82755262D01*
X156833489Y-82755260D01*
X156678847Y-82724500D01*
X156678843Y-82724500D01*
X156521158Y-82724500D01*
X156521148Y-82724500D01*
X156520711Y-82724543D01*
X156520484Y-82724500D01*
X156515067Y-82724500D01*
X156515067Y-82723471D01*
X156452067Y-82711513D01*
X156420897Y-82688819D01*
X151436819Y-77704741D01*
X151403334Y-77643418D01*
X151400500Y-77617060D01*
X151400500Y-71921155D01*
X151400499Y-71921153D01*
X151369737Y-71766503D01*
X151369735Y-71766498D01*
X151309397Y-71620827D01*
X151309390Y-71620814D01*
X151221789Y-71489711D01*
X151221786Y-71489707D01*
X151110292Y-71378213D01*
X151110288Y-71378210D01*
X150979185Y-71290609D01*
X150979172Y-71290602D01*
X150833501Y-71230264D01*
X150833489Y-71230261D01*
X150678845Y-71199500D01*
X150678842Y-71199500D01*
X150521158Y-71199500D01*
X150521155Y-71199500D01*
X150366511Y-71230260D01*
X150366502Y-71230263D01*
X150298682Y-71258354D01*
X150229213Y-71265821D01*
X150166734Y-71234545D01*
X150163551Y-71231473D01*
X147060292Y-68128213D01*
X147060288Y-68128210D01*
X146929185Y-68040609D01*
X146929172Y-68040602D01*
X146783501Y-67980264D01*
X146783489Y-67980261D01*
X146628845Y-67949500D01*
X146628842Y-67949500D01*
X136472351Y-67949500D01*
X136405312Y-67929815D01*
X136359557Y-67877011D01*
X136349061Y-67838752D01*
X136344091Y-67792516D01*
X136293797Y-67657671D01*
X136293793Y-67657664D01*
X136207547Y-67542455D01*
X136207544Y-67542452D01*
X136092335Y-67456206D01*
X136092328Y-67456202D01*
X135957482Y-67405908D01*
X135957483Y-67405908D01*
X135897883Y-67399501D01*
X135897881Y-67399500D01*
X135897873Y-67399500D01*
X135897864Y-67399500D01*
X134102129Y-67399500D01*
X134102123Y-67399501D01*
X134042516Y-67405908D01*
X133907671Y-67456202D01*
X133907664Y-67456206D01*
X133792455Y-67542452D01*
X133792452Y-67542455D01*
X133706206Y-67657664D01*
X133706202Y-67657671D01*
X133655908Y-67792517D01*
X133650938Y-67838752D01*
X133649501Y-67852123D01*
X133649500Y-67852135D01*
X133000500Y-67852135D01*
X133000500Y-65874500D01*
X133020185Y-65807461D01*
X133072989Y-65761706D01*
X133124500Y-65750500D01*
X171875500Y-65750500D01*
X171942539Y-65770185D01*
G37*
%TD.AperFunction*%
%TD*%
M02*
