%TF.GenerationSoftware,KiCad,Pcbnew,9.0.6*%
%TF.CreationDate,2026-03-18T18:00:46-04:00*%
%TF.ProjectId,SENSOR,53454e53-4f52-42e6-9b69-6361645f7063,rev?*%
%TF.SameCoordinates,Original*%
%TF.FileFunction,Paste,Top*%
%TF.FilePolarity,Positive*%
%FSLAX46Y46*%
G04 Gerber Fmt 4.6, Leading zero omitted, Abs format (unit mm)*
G04 Created by KiCad (PCBNEW 9.0.6) date 2026-03-18 18:00:46*
%MOMM*%
%LPD*%
G01*
G04 APERTURE LIST*
G04 Aperture macros list*
%AMRoundRect*
0 Rectangle with rounded corners*
0 $1 Rounding radius*
0 $2 $3 $4 $5 $6 $7 $8 $9 X,Y pos of 4 corners*
0 Add a 4 corners polygon primitive as box body*
4,1,4,$2,$3,$4,$5,$6,$7,$8,$9,$2,$3,0*
0 Add four circle primitives for the rounded corners*
1,1,$1+$1,$2,$3*
1,1,$1+$1,$4,$5*
1,1,$1+$1,$6,$7*
1,1,$1+$1,$8,$9*
0 Add four rect primitives between the rounded corners*
20,1,$1+$1,$2,$3,$4,$5,0*
20,1,$1+$1,$4,$5,$6,$7,0*
20,1,$1+$1,$6,$7,$8,$9,0*
20,1,$1+$1,$8,$9,$2,$3,0*%
G04 Aperture macros list end*
%ADD10RoundRect,0.225000X0.250000X-0.225000X0.250000X0.225000X-0.250000X0.225000X-0.250000X-0.225000X0*%
%ADD11R,0.575000X0.350000*%
%ADD12R,0.350000X0.575000*%
%ADD13C,0.230000*%
%ADD14R,0.375000X0.350000*%
%ADD15R,0.350000X0.375000*%
%ADD16R,1.300000X1.300000*%
%ADD17RoundRect,0.200000X0.275000X-0.200000X0.275000X0.200000X-0.275000X0.200000X-0.275000X-0.200000X0*%
%ADD18RoundRect,0.225000X-0.225000X-0.250000X0.225000X-0.250000X0.225000X0.250000X-0.225000X0.250000X0*%
%ADD19RoundRect,0.225000X0.225000X0.250000X-0.225000X0.250000X-0.225000X-0.250000X0.225000X-0.250000X0*%
G04 APERTURE END LIST*
D10*
%TO.C,C2*%
X149800000Y-85575000D03*
X149800000Y-87125000D03*
%TD*%
%TO.C,C3*%
X147800000Y-85575000D03*
X147800000Y-87125000D03*
%TD*%
%TO.C,C4*%
X145800000Y-85575000D03*
X145800000Y-87125000D03*
%TD*%
D11*
%TO.C,U4*%
X153400000Y-116700000D03*
X153400000Y-117200000D03*
X153400000Y-117700000D03*
X153400000Y-118200000D03*
D12*
X154062500Y-118362500D03*
X154562500Y-118362500D03*
X155062500Y-118362500D03*
D11*
X155725000Y-118200000D03*
X155725000Y-117700000D03*
X155725000Y-117200000D03*
X155725000Y-116700000D03*
D12*
X155062500Y-116537500D03*
X154562500Y-116537500D03*
X154062500Y-116537500D03*
%TD*%
D13*
%TO.C,U3*%
X152350000Y-101800000D03*
X152750000Y-101800000D03*
X152350000Y-102200000D03*
X152750000Y-102200000D03*
%TD*%
D14*
%TO.C,U2*%
X152925000Y-87100000D03*
X152925000Y-86600000D03*
X152925000Y-86100000D03*
X152925000Y-85600000D03*
D15*
X152412500Y-85587500D03*
X151912500Y-85587500D03*
D14*
X151400000Y-85600000D03*
X151400000Y-86100000D03*
X151400000Y-86600000D03*
X151400000Y-87100000D03*
D15*
X151912500Y-87112500D03*
X152412500Y-87112500D03*
%TD*%
D16*
%TO.C,U1*%
X150600000Y-70000000D03*
X150600000Y-72000000D03*
X152600000Y-72000000D03*
X152600000Y-70000000D03*
%TD*%
D17*
%TO.C,R4*%
X149115000Y-115970000D03*
X149115000Y-114320000D03*
%TD*%
%TO.C,R3*%
X150915000Y-115970000D03*
X150915000Y-114320000D03*
%TD*%
%TO.C,R2*%
X154800000Y-85175000D03*
X154800000Y-83525000D03*
%TD*%
%TO.C,R1*%
X156600000Y-85175000D03*
X156600000Y-83525000D03*
%TD*%
D18*
%TO.C,C7*%
X152340000Y-119945000D03*
X153890000Y-119945000D03*
%TD*%
D19*
%TO.C,C6*%
X157090000Y-119945000D03*
X155540000Y-119945000D03*
%TD*%
D10*
%TO.C,C5*%
X150000000Y-102725000D03*
X150000000Y-101175000D03*
%TD*%
%TO.C,C1*%
X148400000Y-71725000D03*
X148400000Y-70175000D03*
%TD*%
M02*
