%TF.GenerationSoftware,KiCad,Pcbnew,9.0.6*%
%TF.CreationDate,2026-03-19T09:28:23-04:00*%
%TF.ProjectId,SENSOR,53454e53-4f52-42e6-9b69-6361645f7063,rev?*%
%TF.SameCoordinates,Original*%
%TF.FileFunction,Legend,Top*%
%TF.FilePolarity,Positive*%
%FSLAX46Y46*%
G04 Gerber Fmt 4.6, Leading zero omitted, Abs format (unit mm)*
G04 Created by KiCad (PCBNEW 9.0.6) date 2026-03-19 09:28:23*
%MOMM*%
%LPD*%
G01*
G04 APERTURE LIST*
%ADD10C,0.300000*%
%ADD11C,0.200000*%
%ADD12C,0.150000*%
%ADD13C,0.120000*%
%ADD14C,0.127000*%
%ADD15C,0.100000*%
G04 APERTURE END LIST*
D10*
X138783082Y-123372257D02*
X139497368Y-123372257D01*
X138640225Y-123800828D02*
X139140225Y-122300828D01*
X139140225Y-122300828D02*
X139640225Y-123800828D01*
X140997367Y-123657971D02*
X140925939Y-123729400D01*
X140925939Y-123729400D02*
X140711653Y-123800828D01*
X140711653Y-123800828D02*
X140568796Y-123800828D01*
X140568796Y-123800828D02*
X140354510Y-123729400D01*
X140354510Y-123729400D02*
X140211653Y-123586542D01*
X140211653Y-123586542D02*
X140140224Y-123443685D01*
X140140224Y-123443685D02*
X140068796Y-123157971D01*
X140068796Y-123157971D02*
X140068796Y-122943685D01*
X140068796Y-122943685D02*
X140140224Y-122657971D01*
X140140224Y-122657971D02*
X140211653Y-122515114D01*
X140211653Y-122515114D02*
X140354510Y-122372257D01*
X140354510Y-122372257D02*
X140568796Y-122300828D01*
X140568796Y-122300828D02*
X140711653Y-122300828D01*
X140711653Y-122300828D02*
X140925939Y-122372257D01*
X140925939Y-122372257D02*
X140997367Y-122443685D01*
X142497367Y-123657971D02*
X142425939Y-123729400D01*
X142425939Y-123729400D02*
X142211653Y-123800828D01*
X142211653Y-123800828D02*
X142068796Y-123800828D01*
X142068796Y-123800828D02*
X141854510Y-123729400D01*
X141854510Y-123729400D02*
X141711653Y-123586542D01*
X141711653Y-123586542D02*
X141640224Y-123443685D01*
X141640224Y-123443685D02*
X141568796Y-123157971D01*
X141568796Y-123157971D02*
X141568796Y-122943685D01*
X141568796Y-122943685D02*
X141640224Y-122657971D01*
X141640224Y-122657971D02*
X141711653Y-122515114D01*
X141711653Y-122515114D02*
X141854510Y-122372257D01*
X141854510Y-122372257D02*
X142068796Y-122300828D01*
X142068796Y-122300828D02*
X142211653Y-122300828D01*
X142211653Y-122300828D02*
X142425939Y-122372257D01*
X142425939Y-122372257D02*
X142497367Y-122443685D01*
X143140224Y-123015114D02*
X143640224Y-123015114D01*
X143854510Y-123800828D02*
X143140224Y-123800828D01*
X143140224Y-123800828D02*
X143140224Y-122300828D01*
X143140224Y-122300828D02*
X143854510Y-122300828D01*
X145211653Y-123800828D02*
X144497367Y-123800828D01*
X144497367Y-123800828D02*
X144497367Y-122300828D01*
X145711653Y-123015114D02*
X146211653Y-123015114D01*
X146425939Y-123800828D02*
X145711653Y-123800828D01*
X145711653Y-123800828D02*
X145711653Y-122300828D01*
X145711653Y-122300828D02*
X146425939Y-122300828D01*
X147925939Y-123800828D02*
X147425939Y-123086542D01*
X147068796Y-123800828D02*
X147068796Y-122300828D01*
X147068796Y-122300828D02*
X147640225Y-122300828D01*
X147640225Y-122300828D02*
X147783082Y-122372257D01*
X147783082Y-122372257D02*
X147854511Y-122443685D01*
X147854511Y-122443685D02*
X147925939Y-122586542D01*
X147925939Y-122586542D02*
X147925939Y-122800828D01*
X147925939Y-122800828D02*
X147854511Y-122943685D01*
X147854511Y-122943685D02*
X147783082Y-123015114D01*
X147783082Y-123015114D02*
X147640225Y-123086542D01*
X147640225Y-123086542D02*
X147068796Y-123086542D01*
X148854511Y-122300828D02*
X149140225Y-122300828D01*
X149140225Y-122300828D02*
X149283082Y-122372257D01*
X149283082Y-122372257D02*
X149425939Y-122515114D01*
X149425939Y-122515114D02*
X149497368Y-122800828D01*
X149497368Y-122800828D02*
X149497368Y-123300828D01*
X149497368Y-123300828D02*
X149425939Y-123586542D01*
X149425939Y-123586542D02*
X149283082Y-123729400D01*
X149283082Y-123729400D02*
X149140225Y-123800828D01*
X149140225Y-123800828D02*
X148854511Y-123800828D01*
X148854511Y-123800828D02*
X148711654Y-123729400D01*
X148711654Y-123729400D02*
X148568796Y-123586542D01*
X148568796Y-123586542D02*
X148497368Y-123300828D01*
X148497368Y-123300828D02*
X148497368Y-122800828D01*
X148497368Y-122800828D02*
X148568796Y-122515114D01*
X148568796Y-122515114D02*
X148711654Y-122372257D01*
X148711654Y-122372257D02*
X148854511Y-122300828D01*
X150140225Y-123800828D02*
X150140225Y-122300828D01*
X150140225Y-122300828D02*
X150640225Y-123372257D01*
X150640225Y-123372257D02*
X151140225Y-122300828D01*
X151140225Y-122300828D02*
X151140225Y-123800828D01*
X151854511Y-123015114D02*
X152354511Y-123015114D01*
X152568797Y-123800828D02*
X151854511Y-123800828D01*
X151854511Y-123800828D02*
X151854511Y-122300828D01*
X151854511Y-122300828D02*
X152568797Y-122300828D01*
X152997369Y-122300828D02*
X153854512Y-122300828D01*
X153425940Y-123800828D02*
X153425940Y-122300828D01*
X154354511Y-123015114D02*
X154854511Y-123015114D01*
X155068797Y-123800828D02*
X154354511Y-123800828D01*
X154354511Y-123800828D02*
X154354511Y-122300828D01*
X154354511Y-122300828D02*
X155068797Y-122300828D01*
X156568797Y-123800828D02*
X156068797Y-123086542D01*
X155711654Y-123800828D02*
X155711654Y-122300828D01*
X155711654Y-122300828D02*
X156283083Y-122300828D01*
X156283083Y-122300828D02*
X156425940Y-122372257D01*
X156425940Y-122372257D02*
X156497369Y-122443685D01*
X156497369Y-122443685D02*
X156568797Y-122586542D01*
X156568797Y-122586542D02*
X156568797Y-122800828D01*
X156568797Y-122800828D02*
X156497369Y-122943685D01*
X156497369Y-122943685D02*
X156425940Y-123015114D01*
X156425940Y-123015114D02*
X156283083Y-123086542D01*
X156283083Y-123086542D02*
X155711654Y-123086542D01*
X158283083Y-122443685D02*
X158354511Y-122372257D01*
X158354511Y-122372257D02*
X158497369Y-122300828D01*
X158497369Y-122300828D02*
X158854511Y-122300828D01*
X158854511Y-122300828D02*
X158997369Y-122372257D01*
X158997369Y-122372257D02*
X159068797Y-122443685D01*
X159068797Y-122443685D02*
X159140226Y-122586542D01*
X159140226Y-122586542D02*
X159140226Y-122729400D01*
X159140226Y-122729400D02*
X159068797Y-122943685D01*
X159068797Y-122943685D02*
X158211654Y-123800828D01*
X158211654Y-123800828D02*
X159140226Y-123800828D01*
X142154510Y-105300828D02*
X142154510Y-103800828D01*
X142154510Y-103800828D02*
X142654510Y-104872257D01*
X142654510Y-104872257D02*
X143154510Y-103800828D01*
X143154510Y-103800828D02*
X143154510Y-105300828D01*
X143797368Y-104872257D02*
X144511654Y-104872257D01*
X143654511Y-105300828D02*
X144154511Y-103800828D01*
X144154511Y-103800828D02*
X144654511Y-105300828D01*
X145940225Y-103872257D02*
X145797368Y-103800828D01*
X145797368Y-103800828D02*
X145583082Y-103800828D01*
X145583082Y-103800828D02*
X145368796Y-103872257D01*
X145368796Y-103872257D02*
X145225939Y-104015114D01*
X145225939Y-104015114D02*
X145154510Y-104157971D01*
X145154510Y-104157971D02*
X145083082Y-104443685D01*
X145083082Y-104443685D02*
X145083082Y-104657971D01*
X145083082Y-104657971D02*
X145154510Y-104943685D01*
X145154510Y-104943685D02*
X145225939Y-105086542D01*
X145225939Y-105086542D02*
X145368796Y-105229400D01*
X145368796Y-105229400D02*
X145583082Y-105300828D01*
X145583082Y-105300828D02*
X145725939Y-105300828D01*
X145725939Y-105300828D02*
X145940225Y-105229400D01*
X145940225Y-105229400D02*
X146011653Y-105157971D01*
X146011653Y-105157971D02*
X146011653Y-104657971D01*
X146011653Y-104657971D02*
X145725939Y-104657971D01*
X146654510Y-105300828D02*
X146654510Y-103800828D01*
X146654510Y-103800828D02*
X147511653Y-105300828D01*
X147511653Y-105300828D02*
X147511653Y-103800828D01*
X148225939Y-104515114D02*
X148725939Y-104515114D01*
X148940225Y-105300828D02*
X148225939Y-105300828D01*
X148225939Y-105300828D02*
X148225939Y-103800828D01*
X148225939Y-103800828D02*
X148940225Y-103800828D01*
X149368797Y-103800828D02*
X150225940Y-103800828D01*
X149797368Y-105300828D02*
X149797368Y-103800828D01*
X150725939Y-105300828D02*
X150725939Y-103800828D01*
X152297368Y-105157971D02*
X152225940Y-105229400D01*
X152225940Y-105229400D02*
X152011654Y-105300828D01*
X152011654Y-105300828D02*
X151868797Y-105300828D01*
X151868797Y-105300828D02*
X151654511Y-105229400D01*
X151654511Y-105229400D02*
X151511654Y-105086542D01*
X151511654Y-105086542D02*
X151440225Y-104943685D01*
X151440225Y-104943685D02*
X151368797Y-104657971D01*
X151368797Y-104657971D02*
X151368797Y-104443685D01*
X151368797Y-104443685D02*
X151440225Y-104157971D01*
X151440225Y-104157971D02*
X151511654Y-104015114D01*
X151511654Y-104015114D02*
X151654511Y-103872257D01*
X151654511Y-103872257D02*
X151868797Y-103800828D01*
X151868797Y-103800828D02*
X152011654Y-103800828D01*
X152011654Y-103800828D02*
X152225940Y-103872257D01*
X152225940Y-103872257D02*
X152297368Y-103943685D01*
X154011654Y-105229400D02*
X154225940Y-105300828D01*
X154225940Y-105300828D02*
X154583082Y-105300828D01*
X154583082Y-105300828D02*
X154725940Y-105229400D01*
X154725940Y-105229400D02*
X154797368Y-105157971D01*
X154797368Y-105157971D02*
X154868797Y-105015114D01*
X154868797Y-105015114D02*
X154868797Y-104872257D01*
X154868797Y-104872257D02*
X154797368Y-104729400D01*
X154797368Y-104729400D02*
X154725940Y-104657971D01*
X154725940Y-104657971D02*
X154583082Y-104586542D01*
X154583082Y-104586542D02*
X154297368Y-104515114D01*
X154297368Y-104515114D02*
X154154511Y-104443685D01*
X154154511Y-104443685D02*
X154083082Y-104372257D01*
X154083082Y-104372257D02*
X154011654Y-104229400D01*
X154011654Y-104229400D02*
X154011654Y-104086542D01*
X154011654Y-104086542D02*
X154083082Y-103943685D01*
X154083082Y-103943685D02*
X154154511Y-103872257D01*
X154154511Y-103872257D02*
X154297368Y-103800828D01*
X154297368Y-103800828D02*
X154654511Y-103800828D01*
X154654511Y-103800828D02*
X154868797Y-103872257D01*
X155511653Y-104515114D02*
X156011653Y-104515114D01*
X156225939Y-105300828D02*
X155511653Y-105300828D01*
X155511653Y-105300828D02*
X155511653Y-103800828D01*
X155511653Y-103800828D02*
X156225939Y-103800828D01*
X156868796Y-105300828D02*
X156868796Y-103800828D01*
X156868796Y-103800828D02*
X157725939Y-105300828D01*
X157725939Y-105300828D02*
X157725939Y-103800828D01*
X158368797Y-105229400D02*
X158583083Y-105300828D01*
X158583083Y-105300828D02*
X158940225Y-105300828D01*
X158940225Y-105300828D02*
X159083083Y-105229400D01*
X159083083Y-105229400D02*
X159154511Y-105157971D01*
X159154511Y-105157971D02*
X159225940Y-105015114D01*
X159225940Y-105015114D02*
X159225940Y-104872257D01*
X159225940Y-104872257D02*
X159154511Y-104729400D01*
X159154511Y-104729400D02*
X159083083Y-104657971D01*
X159083083Y-104657971D02*
X158940225Y-104586542D01*
X158940225Y-104586542D02*
X158654511Y-104515114D01*
X158654511Y-104515114D02*
X158511654Y-104443685D01*
X158511654Y-104443685D02*
X158440225Y-104372257D01*
X158440225Y-104372257D02*
X158368797Y-104229400D01*
X158368797Y-104229400D02*
X158368797Y-104086542D01*
X158368797Y-104086542D02*
X158440225Y-103943685D01*
X158440225Y-103943685D02*
X158511654Y-103872257D01*
X158511654Y-103872257D02*
X158654511Y-103800828D01*
X158654511Y-103800828D02*
X159011654Y-103800828D01*
X159011654Y-103800828D02*
X159225940Y-103872257D01*
X160154511Y-103800828D02*
X160440225Y-103800828D01*
X160440225Y-103800828D02*
X160583082Y-103872257D01*
X160583082Y-103872257D02*
X160725939Y-104015114D01*
X160725939Y-104015114D02*
X160797368Y-104300828D01*
X160797368Y-104300828D02*
X160797368Y-104800828D01*
X160797368Y-104800828D02*
X160725939Y-105086542D01*
X160725939Y-105086542D02*
X160583082Y-105229400D01*
X160583082Y-105229400D02*
X160440225Y-105300828D01*
X160440225Y-105300828D02*
X160154511Y-105300828D01*
X160154511Y-105300828D02*
X160011654Y-105229400D01*
X160011654Y-105229400D02*
X159868796Y-105086542D01*
X159868796Y-105086542D02*
X159797368Y-104800828D01*
X159797368Y-104800828D02*
X159797368Y-104300828D01*
X159797368Y-104300828D02*
X159868796Y-104015114D01*
X159868796Y-104015114D02*
X160011654Y-103872257D01*
X160011654Y-103872257D02*
X160154511Y-103800828D01*
X162297368Y-105300828D02*
X161797368Y-104586542D01*
X161440225Y-105300828D02*
X161440225Y-103800828D01*
X161440225Y-103800828D02*
X162011654Y-103800828D01*
X162011654Y-103800828D02*
X162154511Y-103872257D01*
X162154511Y-103872257D02*
X162225940Y-103943685D01*
X162225940Y-103943685D02*
X162297368Y-104086542D01*
X162297368Y-104086542D02*
X162297368Y-104300828D01*
X162297368Y-104300828D02*
X162225940Y-104443685D01*
X162225940Y-104443685D02*
X162154511Y-104515114D01*
X162154511Y-104515114D02*
X162011654Y-104586542D01*
X162011654Y-104586542D02*
X161440225Y-104586542D01*
X138883082Y-90572257D02*
X139597368Y-90572257D01*
X138740225Y-91000828D02*
X139240225Y-89500828D01*
X139240225Y-89500828D02*
X139740225Y-91000828D01*
X141097367Y-90857971D02*
X141025939Y-90929400D01*
X141025939Y-90929400D02*
X140811653Y-91000828D01*
X140811653Y-91000828D02*
X140668796Y-91000828D01*
X140668796Y-91000828D02*
X140454510Y-90929400D01*
X140454510Y-90929400D02*
X140311653Y-90786542D01*
X140311653Y-90786542D02*
X140240224Y-90643685D01*
X140240224Y-90643685D02*
X140168796Y-90357971D01*
X140168796Y-90357971D02*
X140168796Y-90143685D01*
X140168796Y-90143685D02*
X140240224Y-89857971D01*
X140240224Y-89857971D02*
X140311653Y-89715114D01*
X140311653Y-89715114D02*
X140454510Y-89572257D01*
X140454510Y-89572257D02*
X140668796Y-89500828D01*
X140668796Y-89500828D02*
X140811653Y-89500828D01*
X140811653Y-89500828D02*
X141025939Y-89572257D01*
X141025939Y-89572257D02*
X141097367Y-89643685D01*
X142597367Y-90857971D02*
X142525939Y-90929400D01*
X142525939Y-90929400D02*
X142311653Y-91000828D01*
X142311653Y-91000828D02*
X142168796Y-91000828D01*
X142168796Y-91000828D02*
X141954510Y-90929400D01*
X141954510Y-90929400D02*
X141811653Y-90786542D01*
X141811653Y-90786542D02*
X141740224Y-90643685D01*
X141740224Y-90643685D02*
X141668796Y-90357971D01*
X141668796Y-90357971D02*
X141668796Y-90143685D01*
X141668796Y-90143685D02*
X141740224Y-89857971D01*
X141740224Y-89857971D02*
X141811653Y-89715114D01*
X141811653Y-89715114D02*
X141954510Y-89572257D01*
X141954510Y-89572257D02*
X142168796Y-89500828D01*
X142168796Y-89500828D02*
X142311653Y-89500828D01*
X142311653Y-89500828D02*
X142525939Y-89572257D01*
X142525939Y-89572257D02*
X142597367Y-89643685D01*
X143240224Y-90215114D02*
X143740224Y-90215114D01*
X143954510Y-91000828D02*
X143240224Y-91000828D01*
X143240224Y-91000828D02*
X143240224Y-89500828D01*
X143240224Y-89500828D02*
X143954510Y-89500828D01*
X145311653Y-91000828D02*
X144597367Y-91000828D01*
X144597367Y-91000828D02*
X144597367Y-89500828D01*
X145811653Y-90215114D02*
X146311653Y-90215114D01*
X146525939Y-91000828D02*
X145811653Y-91000828D01*
X145811653Y-91000828D02*
X145811653Y-89500828D01*
X145811653Y-89500828D02*
X146525939Y-89500828D01*
X148025939Y-91000828D02*
X147525939Y-90286542D01*
X147168796Y-91000828D02*
X147168796Y-89500828D01*
X147168796Y-89500828D02*
X147740225Y-89500828D01*
X147740225Y-89500828D02*
X147883082Y-89572257D01*
X147883082Y-89572257D02*
X147954511Y-89643685D01*
X147954511Y-89643685D02*
X148025939Y-89786542D01*
X148025939Y-89786542D02*
X148025939Y-90000828D01*
X148025939Y-90000828D02*
X147954511Y-90143685D01*
X147954511Y-90143685D02*
X147883082Y-90215114D01*
X147883082Y-90215114D02*
X147740225Y-90286542D01*
X147740225Y-90286542D02*
X147168796Y-90286542D01*
X148954511Y-89500828D02*
X149240225Y-89500828D01*
X149240225Y-89500828D02*
X149383082Y-89572257D01*
X149383082Y-89572257D02*
X149525939Y-89715114D01*
X149525939Y-89715114D02*
X149597368Y-90000828D01*
X149597368Y-90000828D02*
X149597368Y-90500828D01*
X149597368Y-90500828D02*
X149525939Y-90786542D01*
X149525939Y-90786542D02*
X149383082Y-90929400D01*
X149383082Y-90929400D02*
X149240225Y-91000828D01*
X149240225Y-91000828D02*
X148954511Y-91000828D01*
X148954511Y-91000828D02*
X148811654Y-90929400D01*
X148811654Y-90929400D02*
X148668796Y-90786542D01*
X148668796Y-90786542D02*
X148597368Y-90500828D01*
X148597368Y-90500828D02*
X148597368Y-90000828D01*
X148597368Y-90000828D02*
X148668796Y-89715114D01*
X148668796Y-89715114D02*
X148811654Y-89572257D01*
X148811654Y-89572257D02*
X148954511Y-89500828D01*
X150240225Y-91000828D02*
X150240225Y-89500828D01*
X150240225Y-89500828D02*
X150740225Y-90572257D01*
X150740225Y-90572257D02*
X151240225Y-89500828D01*
X151240225Y-89500828D02*
X151240225Y-91000828D01*
X151954511Y-90215114D02*
X152454511Y-90215114D01*
X152668797Y-91000828D02*
X151954511Y-91000828D01*
X151954511Y-91000828D02*
X151954511Y-89500828D01*
X151954511Y-89500828D02*
X152668797Y-89500828D01*
X153097369Y-89500828D02*
X153954512Y-89500828D01*
X153525940Y-91000828D02*
X153525940Y-89500828D01*
X154454511Y-90215114D02*
X154954511Y-90215114D01*
X155168797Y-91000828D02*
X154454511Y-91000828D01*
X154454511Y-91000828D02*
X154454511Y-89500828D01*
X154454511Y-89500828D02*
X155168797Y-89500828D01*
X156668797Y-91000828D02*
X156168797Y-90286542D01*
X155811654Y-91000828D02*
X155811654Y-89500828D01*
X155811654Y-89500828D02*
X156383083Y-89500828D01*
X156383083Y-89500828D02*
X156525940Y-89572257D01*
X156525940Y-89572257D02*
X156597369Y-89643685D01*
X156597369Y-89643685D02*
X156668797Y-89786542D01*
X156668797Y-89786542D02*
X156668797Y-90000828D01*
X156668797Y-90000828D02*
X156597369Y-90143685D01*
X156597369Y-90143685D02*
X156525940Y-90215114D01*
X156525940Y-90215114D02*
X156383083Y-90286542D01*
X156383083Y-90286542D02*
X155811654Y-90286542D01*
X159240226Y-91000828D02*
X158383083Y-91000828D01*
X158811654Y-91000828D02*
X158811654Y-89500828D01*
X158811654Y-89500828D02*
X158668797Y-89715114D01*
X158668797Y-89715114D02*
X158525940Y-89857971D01*
X158525940Y-89857971D02*
X158383083Y-89929400D01*
X145954510Y-75200828D02*
X145954510Y-73700828D01*
X145954510Y-73700828D02*
X146311653Y-73700828D01*
X146311653Y-73700828D02*
X146525939Y-73772257D01*
X146525939Y-73772257D02*
X146668796Y-73915114D01*
X146668796Y-73915114D02*
X146740225Y-74057971D01*
X146740225Y-74057971D02*
X146811653Y-74343685D01*
X146811653Y-74343685D02*
X146811653Y-74557971D01*
X146811653Y-74557971D02*
X146740225Y-74843685D01*
X146740225Y-74843685D02*
X146668796Y-74986542D01*
X146668796Y-74986542D02*
X146525939Y-75129400D01*
X146525939Y-75129400D02*
X146311653Y-75200828D01*
X146311653Y-75200828D02*
X145954510Y-75200828D01*
X147454510Y-74415114D02*
X147954510Y-74415114D01*
X148168796Y-75200828D02*
X147454510Y-75200828D01*
X147454510Y-75200828D02*
X147454510Y-73700828D01*
X147454510Y-73700828D02*
X148168796Y-73700828D01*
X148811653Y-75200828D02*
X148811653Y-73700828D01*
X148811653Y-73700828D02*
X149383082Y-73700828D01*
X149383082Y-73700828D02*
X149525939Y-73772257D01*
X149525939Y-73772257D02*
X149597368Y-73843685D01*
X149597368Y-73843685D02*
X149668796Y-73986542D01*
X149668796Y-73986542D02*
X149668796Y-74200828D01*
X149668796Y-74200828D02*
X149597368Y-74343685D01*
X149597368Y-74343685D02*
X149525939Y-74415114D01*
X149525939Y-74415114D02*
X149383082Y-74486542D01*
X149383082Y-74486542D02*
X148811653Y-74486542D01*
X150097368Y-73700828D02*
X150954511Y-73700828D01*
X150525939Y-75200828D02*
X150525939Y-73700828D01*
X151454510Y-75200828D02*
X151454510Y-73700828D01*
X151454510Y-74415114D02*
X152311653Y-74415114D01*
X152311653Y-75200828D02*
X152311653Y-73700828D01*
X154097368Y-75129400D02*
X154311654Y-75200828D01*
X154311654Y-75200828D02*
X154668796Y-75200828D01*
X154668796Y-75200828D02*
X154811654Y-75129400D01*
X154811654Y-75129400D02*
X154883082Y-75057971D01*
X154883082Y-75057971D02*
X154954511Y-74915114D01*
X154954511Y-74915114D02*
X154954511Y-74772257D01*
X154954511Y-74772257D02*
X154883082Y-74629400D01*
X154883082Y-74629400D02*
X154811654Y-74557971D01*
X154811654Y-74557971D02*
X154668796Y-74486542D01*
X154668796Y-74486542D02*
X154383082Y-74415114D01*
X154383082Y-74415114D02*
X154240225Y-74343685D01*
X154240225Y-74343685D02*
X154168796Y-74272257D01*
X154168796Y-74272257D02*
X154097368Y-74129400D01*
X154097368Y-74129400D02*
X154097368Y-73986542D01*
X154097368Y-73986542D02*
X154168796Y-73843685D01*
X154168796Y-73843685D02*
X154240225Y-73772257D01*
X154240225Y-73772257D02*
X154383082Y-73700828D01*
X154383082Y-73700828D02*
X154740225Y-73700828D01*
X154740225Y-73700828D02*
X154954511Y-73772257D01*
X155597367Y-74415114D02*
X156097367Y-74415114D01*
X156311653Y-75200828D02*
X155597367Y-75200828D01*
X155597367Y-75200828D02*
X155597367Y-73700828D01*
X155597367Y-73700828D02*
X156311653Y-73700828D01*
X156954510Y-75200828D02*
X156954510Y-73700828D01*
X156954510Y-73700828D02*
X157811653Y-75200828D01*
X157811653Y-75200828D02*
X157811653Y-73700828D01*
X158454511Y-75129400D02*
X158668797Y-75200828D01*
X158668797Y-75200828D02*
X159025939Y-75200828D01*
X159025939Y-75200828D02*
X159168797Y-75129400D01*
X159168797Y-75129400D02*
X159240225Y-75057971D01*
X159240225Y-75057971D02*
X159311654Y-74915114D01*
X159311654Y-74915114D02*
X159311654Y-74772257D01*
X159311654Y-74772257D02*
X159240225Y-74629400D01*
X159240225Y-74629400D02*
X159168797Y-74557971D01*
X159168797Y-74557971D02*
X159025939Y-74486542D01*
X159025939Y-74486542D02*
X158740225Y-74415114D01*
X158740225Y-74415114D02*
X158597368Y-74343685D01*
X158597368Y-74343685D02*
X158525939Y-74272257D01*
X158525939Y-74272257D02*
X158454511Y-74129400D01*
X158454511Y-74129400D02*
X158454511Y-73986542D01*
X158454511Y-73986542D02*
X158525939Y-73843685D01*
X158525939Y-73843685D02*
X158597368Y-73772257D01*
X158597368Y-73772257D02*
X158740225Y-73700828D01*
X158740225Y-73700828D02*
X159097368Y-73700828D01*
X159097368Y-73700828D02*
X159311654Y-73772257D01*
X160240225Y-73700828D02*
X160525939Y-73700828D01*
X160525939Y-73700828D02*
X160668796Y-73772257D01*
X160668796Y-73772257D02*
X160811653Y-73915114D01*
X160811653Y-73915114D02*
X160883082Y-74200828D01*
X160883082Y-74200828D02*
X160883082Y-74700828D01*
X160883082Y-74700828D02*
X160811653Y-74986542D01*
X160811653Y-74986542D02*
X160668796Y-75129400D01*
X160668796Y-75129400D02*
X160525939Y-75200828D01*
X160525939Y-75200828D02*
X160240225Y-75200828D01*
X160240225Y-75200828D02*
X160097368Y-75129400D01*
X160097368Y-75129400D02*
X159954510Y-74986542D01*
X159954510Y-74986542D02*
X159883082Y-74700828D01*
X159883082Y-74700828D02*
X159883082Y-74200828D01*
X159883082Y-74200828D02*
X159954510Y-73915114D01*
X159954510Y-73915114D02*
X160097368Y-73772257D01*
X160097368Y-73772257D02*
X160240225Y-73700828D01*
X162383082Y-75200828D02*
X161883082Y-74486542D01*
X161525939Y-75200828D02*
X161525939Y-73700828D01*
X161525939Y-73700828D02*
X162097368Y-73700828D01*
X162097368Y-73700828D02*
X162240225Y-73772257D01*
X162240225Y-73772257D02*
X162311654Y-73843685D01*
X162311654Y-73843685D02*
X162383082Y-73986542D01*
X162383082Y-73986542D02*
X162383082Y-74200828D01*
X162383082Y-74200828D02*
X162311654Y-74343685D01*
X162311654Y-74343685D02*
X162240225Y-74415114D01*
X162240225Y-74415114D02*
X162097368Y-74486542D01*
X162097368Y-74486542D02*
X161525939Y-74486542D01*
D11*
X137434017Y-81147338D02*
X137338779Y-81099719D01*
X137338779Y-81099719D02*
X137195922Y-81099719D01*
X137195922Y-81099719D02*
X137053065Y-81147338D01*
X137053065Y-81147338D02*
X136957827Y-81242576D01*
X136957827Y-81242576D02*
X136910208Y-81337814D01*
X136910208Y-81337814D02*
X136862589Y-81528290D01*
X136862589Y-81528290D02*
X136862589Y-81671147D01*
X136862589Y-81671147D02*
X136910208Y-81861623D01*
X136910208Y-81861623D02*
X136957827Y-81956861D01*
X136957827Y-81956861D02*
X137053065Y-82052100D01*
X137053065Y-82052100D02*
X137195922Y-82099719D01*
X137195922Y-82099719D02*
X137291160Y-82099719D01*
X137291160Y-82099719D02*
X137434017Y-82052100D01*
X137434017Y-82052100D02*
X137481636Y-82004480D01*
X137481636Y-82004480D02*
X137481636Y-81671147D01*
X137481636Y-81671147D02*
X137291160Y-81671147D01*
X137910208Y-82099719D02*
X137910208Y-81099719D01*
X137910208Y-81099719D02*
X138481636Y-82099719D01*
X138481636Y-82099719D02*
X138481636Y-81099719D01*
X138957827Y-82099719D02*
X138957827Y-81099719D01*
X138957827Y-81099719D02*
X139195922Y-81099719D01*
X139195922Y-81099719D02*
X139338779Y-81147338D01*
X139338779Y-81147338D02*
X139434017Y-81242576D01*
X139434017Y-81242576D02*
X139481636Y-81337814D01*
X139481636Y-81337814D02*
X139529255Y-81528290D01*
X139529255Y-81528290D02*
X139529255Y-81671147D01*
X139529255Y-81671147D02*
X139481636Y-81861623D01*
X139481636Y-81861623D02*
X139434017Y-81956861D01*
X139434017Y-81956861D02*
X139338779Y-82052100D01*
X139338779Y-82052100D02*
X139195922Y-82099719D01*
X139195922Y-82099719D02*
X138957827Y-82099719D01*
X137043245Y-68267219D02*
X137662292Y-68267219D01*
X137662292Y-68267219D02*
X137328959Y-68648171D01*
X137328959Y-68648171D02*
X137471816Y-68648171D01*
X137471816Y-68648171D02*
X137567054Y-68695790D01*
X137567054Y-68695790D02*
X137614673Y-68743409D01*
X137614673Y-68743409D02*
X137662292Y-68838647D01*
X137662292Y-68838647D02*
X137662292Y-69076742D01*
X137662292Y-69076742D02*
X137614673Y-69171980D01*
X137614673Y-69171980D02*
X137567054Y-69219600D01*
X137567054Y-69219600D02*
X137471816Y-69267219D01*
X137471816Y-69267219D02*
X137186102Y-69267219D01*
X137186102Y-69267219D02*
X137090864Y-69219600D01*
X137090864Y-69219600D02*
X137043245Y-69171980D01*
X138090864Y-69171980D02*
X138138483Y-69219600D01*
X138138483Y-69219600D02*
X138090864Y-69267219D01*
X138090864Y-69267219D02*
X138043245Y-69219600D01*
X138043245Y-69219600D02*
X138090864Y-69171980D01*
X138090864Y-69171980D02*
X138090864Y-69267219D01*
X138471816Y-68267219D02*
X139090863Y-68267219D01*
X139090863Y-68267219D02*
X138757530Y-68648171D01*
X138757530Y-68648171D02*
X138900387Y-68648171D01*
X138900387Y-68648171D02*
X138995625Y-68695790D01*
X138995625Y-68695790D02*
X139043244Y-68743409D01*
X139043244Y-68743409D02*
X139090863Y-68838647D01*
X139090863Y-68838647D02*
X139090863Y-69076742D01*
X139090863Y-69076742D02*
X139043244Y-69171980D01*
X139043244Y-69171980D02*
X138995625Y-69219600D01*
X138995625Y-69219600D02*
X138900387Y-69267219D01*
X138900387Y-69267219D02*
X138614673Y-69267219D01*
X138614673Y-69267219D02*
X138519435Y-69219600D01*
X138519435Y-69219600D02*
X138471816Y-69171980D01*
X139376578Y-68267219D02*
X139709911Y-69267219D01*
X139709911Y-69267219D02*
X140043244Y-68267219D01*
X165546993Y-114819600D02*
X165689850Y-114867219D01*
X165689850Y-114867219D02*
X165927945Y-114867219D01*
X165927945Y-114867219D02*
X166023183Y-114819600D01*
X166023183Y-114819600D02*
X166070802Y-114771980D01*
X166070802Y-114771980D02*
X166118421Y-114676742D01*
X166118421Y-114676742D02*
X166118421Y-114581504D01*
X166118421Y-114581504D02*
X166070802Y-114486266D01*
X166070802Y-114486266D02*
X166023183Y-114438647D01*
X166023183Y-114438647D02*
X165927945Y-114391028D01*
X165927945Y-114391028D02*
X165737469Y-114343409D01*
X165737469Y-114343409D02*
X165642231Y-114295790D01*
X165642231Y-114295790D02*
X165594612Y-114248171D01*
X165594612Y-114248171D02*
X165546993Y-114152933D01*
X165546993Y-114152933D02*
X165546993Y-114057695D01*
X165546993Y-114057695D02*
X165594612Y-113962457D01*
X165594612Y-113962457D02*
X165642231Y-113914838D01*
X165642231Y-113914838D02*
X165737469Y-113867219D01*
X165737469Y-113867219D02*
X165975564Y-113867219D01*
X165975564Y-113867219D02*
X166118421Y-113914838D01*
X167118421Y-114771980D02*
X167070802Y-114819600D01*
X167070802Y-114819600D02*
X166927945Y-114867219D01*
X166927945Y-114867219D02*
X166832707Y-114867219D01*
X166832707Y-114867219D02*
X166689850Y-114819600D01*
X166689850Y-114819600D02*
X166594612Y-114724361D01*
X166594612Y-114724361D02*
X166546993Y-114629123D01*
X166546993Y-114629123D02*
X166499374Y-114438647D01*
X166499374Y-114438647D02*
X166499374Y-114295790D01*
X166499374Y-114295790D02*
X166546993Y-114105314D01*
X166546993Y-114105314D02*
X166594612Y-114010076D01*
X166594612Y-114010076D02*
X166689850Y-113914838D01*
X166689850Y-113914838D02*
X166832707Y-113867219D01*
X166832707Y-113867219D02*
X166927945Y-113867219D01*
X166927945Y-113867219D02*
X167070802Y-113914838D01*
X167070802Y-113914838D02*
X167118421Y-113962457D01*
X168023183Y-114867219D02*
X167546993Y-114867219D01*
X167546993Y-114867219D02*
X167546993Y-113867219D01*
X160549374Y-89381504D02*
X161025564Y-89381504D01*
X160454136Y-89667219D02*
X160787469Y-88667219D01*
X160787469Y-88667219D02*
X161120802Y-89667219D01*
X162025564Y-89571980D02*
X161977945Y-89619600D01*
X161977945Y-89619600D02*
X161835088Y-89667219D01*
X161835088Y-89667219D02*
X161739850Y-89667219D01*
X161739850Y-89667219D02*
X161596993Y-89619600D01*
X161596993Y-89619600D02*
X161501755Y-89524361D01*
X161501755Y-89524361D02*
X161454136Y-89429123D01*
X161454136Y-89429123D02*
X161406517Y-89238647D01*
X161406517Y-89238647D02*
X161406517Y-89095790D01*
X161406517Y-89095790D02*
X161454136Y-88905314D01*
X161454136Y-88905314D02*
X161501755Y-88810076D01*
X161501755Y-88810076D02*
X161596993Y-88714838D01*
X161596993Y-88714838D02*
X161739850Y-88667219D01*
X161739850Y-88667219D02*
X161835088Y-88667219D01*
X161835088Y-88667219D02*
X161977945Y-88714838D01*
X161977945Y-88714838D02*
X162025564Y-88762457D01*
X163025564Y-89571980D02*
X162977945Y-89619600D01*
X162977945Y-89619600D02*
X162835088Y-89667219D01*
X162835088Y-89667219D02*
X162739850Y-89667219D01*
X162739850Y-89667219D02*
X162596993Y-89619600D01*
X162596993Y-89619600D02*
X162501755Y-89524361D01*
X162501755Y-89524361D02*
X162454136Y-89429123D01*
X162454136Y-89429123D02*
X162406517Y-89238647D01*
X162406517Y-89238647D02*
X162406517Y-89095790D01*
X162406517Y-89095790D02*
X162454136Y-88905314D01*
X162454136Y-88905314D02*
X162501755Y-88810076D01*
X162501755Y-88810076D02*
X162596993Y-88714838D01*
X162596993Y-88714838D02*
X162739850Y-88667219D01*
X162739850Y-88667219D02*
X162835088Y-88667219D01*
X162835088Y-88667219D02*
X162977945Y-88714838D01*
X162977945Y-88714838D02*
X163025564Y-88762457D01*
X163977945Y-89667219D02*
X163406517Y-89667219D01*
X163692231Y-89667219D02*
X163692231Y-88667219D01*
X163692231Y-88667219D02*
X163596993Y-88810076D01*
X163596993Y-88810076D02*
X163501755Y-88905314D01*
X163501755Y-88905314D02*
X163406517Y-88952933D01*
X164168422Y-89762457D02*
X164930326Y-89762457D01*
X165168422Y-89667219D02*
X165168422Y-88667219D01*
X165644612Y-89667219D02*
X165644612Y-88667219D01*
X165644612Y-88667219D02*
X166216040Y-89667219D01*
X166216040Y-89667219D02*
X166216040Y-88667219D01*
X166549374Y-88667219D02*
X167120802Y-88667219D01*
X166835088Y-89667219D02*
X166835088Y-88667219D01*
X167977945Y-89667219D02*
X167406517Y-89667219D01*
X167692231Y-89667219D02*
X167692231Y-88667219D01*
X167692231Y-88667219D02*
X167596993Y-88810076D01*
X167596993Y-88810076D02*
X167501755Y-88905314D01*
X167501755Y-88905314D02*
X167406517Y-88952933D01*
X160499374Y-122331504D02*
X160975564Y-122331504D01*
X160404136Y-122617219D02*
X160737469Y-121617219D01*
X160737469Y-121617219D02*
X161070802Y-122617219D01*
X161975564Y-122521980D02*
X161927945Y-122569600D01*
X161927945Y-122569600D02*
X161785088Y-122617219D01*
X161785088Y-122617219D02*
X161689850Y-122617219D01*
X161689850Y-122617219D02*
X161546993Y-122569600D01*
X161546993Y-122569600D02*
X161451755Y-122474361D01*
X161451755Y-122474361D02*
X161404136Y-122379123D01*
X161404136Y-122379123D02*
X161356517Y-122188647D01*
X161356517Y-122188647D02*
X161356517Y-122045790D01*
X161356517Y-122045790D02*
X161404136Y-121855314D01*
X161404136Y-121855314D02*
X161451755Y-121760076D01*
X161451755Y-121760076D02*
X161546993Y-121664838D01*
X161546993Y-121664838D02*
X161689850Y-121617219D01*
X161689850Y-121617219D02*
X161785088Y-121617219D01*
X161785088Y-121617219D02*
X161927945Y-121664838D01*
X161927945Y-121664838D02*
X161975564Y-121712457D01*
X162975564Y-122521980D02*
X162927945Y-122569600D01*
X162927945Y-122569600D02*
X162785088Y-122617219D01*
X162785088Y-122617219D02*
X162689850Y-122617219D01*
X162689850Y-122617219D02*
X162546993Y-122569600D01*
X162546993Y-122569600D02*
X162451755Y-122474361D01*
X162451755Y-122474361D02*
X162404136Y-122379123D01*
X162404136Y-122379123D02*
X162356517Y-122188647D01*
X162356517Y-122188647D02*
X162356517Y-122045790D01*
X162356517Y-122045790D02*
X162404136Y-121855314D01*
X162404136Y-121855314D02*
X162451755Y-121760076D01*
X162451755Y-121760076D02*
X162546993Y-121664838D01*
X162546993Y-121664838D02*
X162689850Y-121617219D01*
X162689850Y-121617219D02*
X162785088Y-121617219D01*
X162785088Y-121617219D02*
X162927945Y-121664838D01*
X162927945Y-121664838D02*
X162975564Y-121712457D01*
X163356517Y-121712457D02*
X163404136Y-121664838D01*
X163404136Y-121664838D02*
X163499374Y-121617219D01*
X163499374Y-121617219D02*
X163737469Y-121617219D01*
X163737469Y-121617219D02*
X163832707Y-121664838D01*
X163832707Y-121664838D02*
X163880326Y-121712457D01*
X163880326Y-121712457D02*
X163927945Y-121807695D01*
X163927945Y-121807695D02*
X163927945Y-121902933D01*
X163927945Y-121902933D02*
X163880326Y-122045790D01*
X163880326Y-122045790D02*
X163308898Y-122617219D01*
X163308898Y-122617219D02*
X163927945Y-122617219D01*
X164118422Y-122712457D02*
X164880326Y-122712457D01*
X165118422Y-122617219D02*
X165118422Y-121617219D01*
X165594612Y-122617219D02*
X165594612Y-121617219D01*
X165594612Y-121617219D02*
X166166040Y-122617219D01*
X166166040Y-122617219D02*
X166166040Y-121617219D01*
X166499374Y-121617219D02*
X167070802Y-121617219D01*
X166785088Y-122617219D02*
X166785088Y-121617219D01*
X167927945Y-122617219D02*
X167356517Y-122617219D01*
X167642231Y-122617219D02*
X167642231Y-121617219D01*
X167642231Y-121617219D02*
X167546993Y-121760076D01*
X167546993Y-121760076D02*
X167451755Y-121855314D01*
X167451755Y-121855314D02*
X167356517Y-121902933D01*
X160549374Y-91831504D02*
X161025564Y-91831504D01*
X160454136Y-92117219D02*
X160787469Y-91117219D01*
X160787469Y-91117219D02*
X161120802Y-92117219D01*
X162025564Y-92021980D02*
X161977945Y-92069600D01*
X161977945Y-92069600D02*
X161835088Y-92117219D01*
X161835088Y-92117219D02*
X161739850Y-92117219D01*
X161739850Y-92117219D02*
X161596993Y-92069600D01*
X161596993Y-92069600D02*
X161501755Y-91974361D01*
X161501755Y-91974361D02*
X161454136Y-91879123D01*
X161454136Y-91879123D02*
X161406517Y-91688647D01*
X161406517Y-91688647D02*
X161406517Y-91545790D01*
X161406517Y-91545790D02*
X161454136Y-91355314D01*
X161454136Y-91355314D02*
X161501755Y-91260076D01*
X161501755Y-91260076D02*
X161596993Y-91164838D01*
X161596993Y-91164838D02*
X161739850Y-91117219D01*
X161739850Y-91117219D02*
X161835088Y-91117219D01*
X161835088Y-91117219D02*
X161977945Y-91164838D01*
X161977945Y-91164838D02*
X162025564Y-91212457D01*
X163025564Y-92021980D02*
X162977945Y-92069600D01*
X162977945Y-92069600D02*
X162835088Y-92117219D01*
X162835088Y-92117219D02*
X162739850Y-92117219D01*
X162739850Y-92117219D02*
X162596993Y-92069600D01*
X162596993Y-92069600D02*
X162501755Y-91974361D01*
X162501755Y-91974361D02*
X162454136Y-91879123D01*
X162454136Y-91879123D02*
X162406517Y-91688647D01*
X162406517Y-91688647D02*
X162406517Y-91545790D01*
X162406517Y-91545790D02*
X162454136Y-91355314D01*
X162454136Y-91355314D02*
X162501755Y-91260076D01*
X162501755Y-91260076D02*
X162596993Y-91164838D01*
X162596993Y-91164838D02*
X162739850Y-91117219D01*
X162739850Y-91117219D02*
X162835088Y-91117219D01*
X162835088Y-91117219D02*
X162977945Y-91164838D01*
X162977945Y-91164838D02*
X163025564Y-91212457D01*
X163977945Y-92117219D02*
X163406517Y-92117219D01*
X163692231Y-92117219D02*
X163692231Y-91117219D01*
X163692231Y-91117219D02*
X163596993Y-91260076D01*
X163596993Y-91260076D02*
X163501755Y-91355314D01*
X163501755Y-91355314D02*
X163406517Y-91402933D01*
X164168422Y-92212457D02*
X164930326Y-92212457D01*
X165168422Y-92117219D02*
X165168422Y-91117219D01*
X165644612Y-92117219D02*
X165644612Y-91117219D01*
X165644612Y-91117219D02*
X166216040Y-92117219D01*
X166216040Y-92117219D02*
X166216040Y-91117219D01*
X166549374Y-91117219D02*
X167120802Y-91117219D01*
X166835088Y-92117219D02*
X166835088Y-91117219D01*
X167406517Y-91212457D02*
X167454136Y-91164838D01*
X167454136Y-91164838D02*
X167549374Y-91117219D01*
X167549374Y-91117219D02*
X167787469Y-91117219D01*
X167787469Y-91117219D02*
X167882707Y-91164838D01*
X167882707Y-91164838D02*
X167930326Y-91212457D01*
X167930326Y-91212457D02*
X167977945Y-91307695D01*
X167977945Y-91307695D02*
X167977945Y-91402933D01*
X167977945Y-91402933D02*
X167930326Y-91545790D01*
X167930326Y-91545790D02*
X167358898Y-92117219D01*
X167358898Y-92117219D02*
X167977945Y-92117219D01*
X137662292Y-70814838D02*
X137567054Y-70767219D01*
X137567054Y-70767219D02*
X137424197Y-70767219D01*
X137424197Y-70767219D02*
X137281340Y-70814838D01*
X137281340Y-70814838D02*
X137186102Y-70910076D01*
X137186102Y-70910076D02*
X137138483Y-71005314D01*
X137138483Y-71005314D02*
X137090864Y-71195790D01*
X137090864Y-71195790D02*
X137090864Y-71338647D01*
X137090864Y-71338647D02*
X137138483Y-71529123D01*
X137138483Y-71529123D02*
X137186102Y-71624361D01*
X137186102Y-71624361D02*
X137281340Y-71719600D01*
X137281340Y-71719600D02*
X137424197Y-71767219D01*
X137424197Y-71767219D02*
X137519435Y-71767219D01*
X137519435Y-71767219D02*
X137662292Y-71719600D01*
X137662292Y-71719600D02*
X137709911Y-71671980D01*
X137709911Y-71671980D02*
X137709911Y-71338647D01*
X137709911Y-71338647D02*
X137519435Y-71338647D01*
X138138483Y-71767219D02*
X138138483Y-70767219D01*
X138138483Y-70767219D02*
X138709911Y-71767219D01*
X138709911Y-71767219D02*
X138709911Y-70767219D01*
X139186102Y-71767219D02*
X139186102Y-70767219D01*
X139186102Y-70767219D02*
X139424197Y-70767219D01*
X139424197Y-70767219D02*
X139567054Y-70814838D01*
X139567054Y-70814838D02*
X139662292Y-70910076D01*
X139662292Y-70910076D02*
X139709911Y-71005314D01*
X139709911Y-71005314D02*
X139757530Y-71195790D01*
X139757530Y-71195790D02*
X139757530Y-71338647D01*
X139757530Y-71338647D02*
X139709911Y-71529123D01*
X139709911Y-71529123D02*
X139662292Y-71624361D01*
X139662292Y-71624361D02*
X139567054Y-71719600D01*
X139567054Y-71719600D02*
X139424197Y-71767219D01*
X139424197Y-71767219D02*
X139186102Y-71767219D01*
X160499374Y-119831504D02*
X160975564Y-119831504D01*
X160404136Y-120117219D02*
X160737469Y-119117219D01*
X160737469Y-119117219D02*
X161070802Y-120117219D01*
X161975564Y-120021980D02*
X161927945Y-120069600D01*
X161927945Y-120069600D02*
X161785088Y-120117219D01*
X161785088Y-120117219D02*
X161689850Y-120117219D01*
X161689850Y-120117219D02*
X161546993Y-120069600D01*
X161546993Y-120069600D02*
X161451755Y-119974361D01*
X161451755Y-119974361D02*
X161404136Y-119879123D01*
X161404136Y-119879123D02*
X161356517Y-119688647D01*
X161356517Y-119688647D02*
X161356517Y-119545790D01*
X161356517Y-119545790D02*
X161404136Y-119355314D01*
X161404136Y-119355314D02*
X161451755Y-119260076D01*
X161451755Y-119260076D02*
X161546993Y-119164838D01*
X161546993Y-119164838D02*
X161689850Y-119117219D01*
X161689850Y-119117219D02*
X161785088Y-119117219D01*
X161785088Y-119117219D02*
X161927945Y-119164838D01*
X161927945Y-119164838D02*
X161975564Y-119212457D01*
X162975564Y-120021980D02*
X162927945Y-120069600D01*
X162927945Y-120069600D02*
X162785088Y-120117219D01*
X162785088Y-120117219D02*
X162689850Y-120117219D01*
X162689850Y-120117219D02*
X162546993Y-120069600D01*
X162546993Y-120069600D02*
X162451755Y-119974361D01*
X162451755Y-119974361D02*
X162404136Y-119879123D01*
X162404136Y-119879123D02*
X162356517Y-119688647D01*
X162356517Y-119688647D02*
X162356517Y-119545790D01*
X162356517Y-119545790D02*
X162404136Y-119355314D01*
X162404136Y-119355314D02*
X162451755Y-119260076D01*
X162451755Y-119260076D02*
X162546993Y-119164838D01*
X162546993Y-119164838D02*
X162689850Y-119117219D01*
X162689850Y-119117219D02*
X162785088Y-119117219D01*
X162785088Y-119117219D02*
X162927945Y-119164838D01*
X162927945Y-119164838D02*
X162975564Y-119212457D01*
X163356517Y-119212457D02*
X163404136Y-119164838D01*
X163404136Y-119164838D02*
X163499374Y-119117219D01*
X163499374Y-119117219D02*
X163737469Y-119117219D01*
X163737469Y-119117219D02*
X163832707Y-119164838D01*
X163832707Y-119164838D02*
X163880326Y-119212457D01*
X163880326Y-119212457D02*
X163927945Y-119307695D01*
X163927945Y-119307695D02*
X163927945Y-119402933D01*
X163927945Y-119402933D02*
X163880326Y-119545790D01*
X163880326Y-119545790D02*
X163308898Y-120117219D01*
X163308898Y-120117219D02*
X163927945Y-120117219D01*
X164118422Y-120212457D02*
X164880326Y-120212457D01*
X165118422Y-120117219D02*
X165118422Y-119117219D01*
X165594612Y-120117219D02*
X165594612Y-119117219D01*
X165594612Y-119117219D02*
X166166040Y-120117219D01*
X166166040Y-120117219D02*
X166166040Y-119117219D01*
X166499374Y-119117219D02*
X167070802Y-119117219D01*
X166785088Y-120117219D02*
X166785088Y-119117219D01*
X167356517Y-119212457D02*
X167404136Y-119164838D01*
X167404136Y-119164838D02*
X167499374Y-119117219D01*
X167499374Y-119117219D02*
X167737469Y-119117219D01*
X167737469Y-119117219D02*
X167832707Y-119164838D01*
X167832707Y-119164838D02*
X167880326Y-119212457D01*
X167880326Y-119212457D02*
X167927945Y-119307695D01*
X167927945Y-119307695D02*
X167927945Y-119402933D01*
X167927945Y-119402933D02*
X167880326Y-119545790D01*
X167880326Y-119545790D02*
X167308898Y-120117219D01*
X167308898Y-120117219D02*
X167927945Y-120117219D01*
X137434017Y-76047338D02*
X137338779Y-75999719D01*
X137338779Y-75999719D02*
X137195922Y-75999719D01*
X137195922Y-75999719D02*
X137053065Y-76047338D01*
X137053065Y-76047338D02*
X136957827Y-76142576D01*
X136957827Y-76142576D02*
X136910208Y-76237814D01*
X136910208Y-76237814D02*
X136862589Y-76428290D01*
X136862589Y-76428290D02*
X136862589Y-76571147D01*
X136862589Y-76571147D02*
X136910208Y-76761623D01*
X136910208Y-76761623D02*
X136957827Y-76856861D01*
X136957827Y-76856861D02*
X137053065Y-76952100D01*
X137053065Y-76952100D02*
X137195922Y-76999719D01*
X137195922Y-76999719D02*
X137291160Y-76999719D01*
X137291160Y-76999719D02*
X137434017Y-76952100D01*
X137434017Y-76952100D02*
X137481636Y-76904480D01*
X137481636Y-76904480D02*
X137481636Y-76571147D01*
X137481636Y-76571147D02*
X137291160Y-76571147D01*
X137910208Y-76999719D02*
X137910208Y-75999719D01*
X137910208Y-75999719D02*
X138481636Y-76999719D01*
X138481636Y-76999719D02*
X138481636Y-75999719D01*
X138957827Y-76999719D02*
X138957827Y-75999719D01*
X138957827Y-75999719D02*
X139195922Y-75999719D01*
X139195922Y-75999719D02*
X139338779Y-76047338D01*
X139338779Y-76047338D02*
X139434017Y-76142576D01*
X139434017Y-76142576D02*
X139481636Y-76237814D01*
X139481636Y-76237814D02*
X139529255Y-76428290D01*
X139529255Y-76428290D02*
X139529255Y-76571147D01*
X139529255Y-76571147D02*
X139481636Y-76761623D01*
X139481636Y-76761623D02*
X139434017Y-76856861D01*
X139434017Y-76856861D02*
X139338779Y-76952100D01*
X139338779Y-76952100D02*
X139195922Y-76999719D01*
X139195922Y-76999719D02*
X138957827Y-76999719D01*
X165499374Y-117569600D02*
X165642231Y-117617219D01*
X165642231Y-117617219D02*
X165880326Y-117617219D01*
X165880326Y-117617219D02*
X165975564Y-117569600D01*
X165975564Y-117569600D02*
X166023183Y-117521980D01*
X166023183Y-117521980D02*
X166070802Y-117426742D01*
X166070802Y-117426742D02*
X166070802Y-117331504D01*
X166070802Y-117331504D02*
X166023183Y-117236266D01*
X166023183Y-117236266D02*
X165975564Y-117188647D01*
X165975564Y-117188647D02*
X165880326Y-117141028D01*
X165880326Y-117141028D02*
X165689850Y-117093409D01*
X165689850Y-117093409D02*
X165594612Y-117045790D01*
X165594612Y-117045790D02*
X165546993Y-116998171D01*
X165546993Y-116998171D02*
X165499374Y-116902933D01*
X165499374Y-116902933D02*
X165499374Y-116807695D01*
X165499374Y-116807695D02*
X165546993Y-116712457D01*
X165546993Y-116712457D02*
X165594612Y-116664838D01*
X165594612Y-116664838D02*
X165689850Y-116617219D01*
X165689850Y-116617219D02*
X165927945Y-116617219D01*
X165927945Y-116617219D02*
X166070802Y-116664838D01*
X166499374Y-117617219D02*
X166499374Y-116617219D01*
X166499374Y-116617219D02*
X166737469Y-116617219D01*
X166737469Y-116617219D02*
X166880326Y-116664838D01*
X166880326Y-116664838D02*
X166975564Y-116760076D01*
X166975564Y-116760076D02*
X167023183Y-116855314D01*
X167023183Y-116855314D02*
X167070802Y-117045790D01*
X167070802Y-117045790D02*
X167070802Y-117188647D01*
X167070802Y-117188647D02*
X167023183Y-117379123D01*
X167023183Y-117379123D02*
X166975564Y-117474361D01*
X166975564Y-117474361D02*
X166880326Y-117569600D01*
X166880326Y-117569600D02*
X166737469Y-117617219D01*
X166737469Y-117617219D02*
X166499374Y-117617219D01*
X167451755Y-117331504D02*
X167927945Y-117331504D01*
X167356517Y-117617219D02*
X167689850Y-116617219D01*
X167689850Y-116617219D02*
X168023183Y-117617219D01*
D12*
X149633333Y-88909580D02*
X149585714Y-88957200D01*
X149585714Y-88957200D02*
X149442857Y-89004819D01*
X149442857Y-89004819D02*
X149347619Y-89004819D01*
X149347619Y-89004819D02*
X149204762Y-88957200D01*
X149204762Y-88957200D02*
X149109524Y-88861961D01*
X149109524Y-88861961D02*
X149061905Y-88766723D01*
X149061905Y-88766723D02*
X149014286Y-88576247D01*
X149014286Y-88576247D02*
X149014286Y-88433390D01*
X149014286Y-88433390D02*
X149061905Y-88242914D01*
X149061905Y-88242914D02*
X149109524Y-88147676D01*
X149109524Y-88147676D02*
X149204762Y-88052438D01*
X149204762Y-88052438D02*
X149347619Y-88004819D01*
X149347619Y-88004819D02*
X149442857Y-88004819D01*
X149442857Y-88004819D02*
X149585714Y-88052438D01*
X149585714Y-88052438D02*
X149633333Y-88100057D01*
X150014286Y-88100057D02*
X150061905Y-88052438D01*
X150061905Y-88052438D02*
X150157143Y-88004819D01*
X150157143Y-88004819D02*
X150395238Y-88004819D01*
X150395238Y-88004819D02*
X150490476Y-88052438D01*
X150490476Y-88052438D02*
X150538095Y-88100057D01*
X150538095Y-88100057D02*
X150585714Y-88195295D01*
X150585714Y-88195295D02*
X150585714Y-88290533D01*
X150585714Y-88290533D02*
X150538095Y-88433390D01*
X150538095Y-88433390D02*
X149966667Y-89004819D01*
X149966667Y-89004819D02*
X150585714Y-89004819D01*
X151400595Y-87879819D02*
X151400595Y-88689342D01*
X151400595Y-88689342D02*
X151448214Y-88784580D01*
X151448214Y-88784580D02*
X151495833Y-88832200D01*
X151495833Y-88832200D02*
X151591071Y-88879819D01*
X151591071Y-88879819D02*
X151781547Y-88879819D01*
X151781547Y-88879819D02*
X151876785Y-88832200D01*
X151876785Y-88832200D02*
X151924404Y-88784580D01*
X151924404Y-88784580D02*
X151972023Y-88689342D01*
X151972023Y-88689342D02*
X151972023Y-87879819D01*
X152400595Y-87975057D02*
X152448214Y-87927438D01*
X152448214Y-87927438D02*
X152543452Y-87879819D01*
X152543452Y-87879819D02*
X152781547Y-87879819D01*
X152781547Y-87879819D02*
X152876785Y-87927438D01*
X152876785Y-87927438D02*
X152924404Y-87975057D01*
X152924404Y-87975057D02*
X152972023Y-88070295D01*
X152972023Y-88070295D02*
X152972023Y-88165533D01*
X152972023Y-88165533D02*
X152924404Y-88308390D01*
X152924404Y-88308390D02*
X152352976Y-88879819D01*
X152352976Y-88879819D02*
X152972023Y-88879819D01*
X152948333Y-121704580D02*
X152900714Y-121752200D01*
X152900714Y-121752200D02*
X152757857Y-121799819D01*
X152757857Y-121799819D02*
X152662619Y-121799819D01*
X152662619Y-121799819D02*
X152519762Y-121752200D01*
X152519762Y-121752200D02*
X152424524Y-121656961D01*
X152424524Y-121656961D02*
X152376905Y-121561723D01*
X152376905Y-121561723D02*
X152329286Y-121371247D01*
X152329286Y-121371247D02*
X152329286Y-121228390D01*
X152329286Y-121228390D02*
X152376905Y-121037914D01*
X152376905Y-121037914D02*
X152424524Y-120942676D01*
X152424524Y-120942676D02*
X152519762Y-120847438D01*
X152519762Y-120847438D02*
X152662619Y-120799819D01*
X152662619Y-120799819D02*
X152757857Y-120799819D01*
X152757857Y-120799819D02*
X152900714Y-120847438D01*
X152900714Y-120847438D02*
X152948333Y-120895057D01*
X153281667Y-120799819D02*
X153948333Y-120799819D01*
X153948333Y-120799819D02*
X153519762Y-121799819D01*
X152833333Y-84804819D02*
X152500000Y-84328628D01*
X152261905Y-84804819D02*
X152261905Y-83804819D01*
X152261905Y-83804819D02*
X152642857Y-83804819D01*
X152642857Y-83804819D02*
X152738095Y-83852438D01*
X152738095Y-83852438D02*
X152785714Y-83900057D01*
X152785714Y-83900057D02*
X152833333Y-83995295D01*
X152833333Y-83995295D02*
X152833333Y-84138152D01*
X152833333Y-84138152D02*
X152785714Y-84233390D01*
X152785714Y-84233390D02*
X152738095Y-84281009D01*
X152738095Y-84281009D02*
X152642857Y-84328628D01*
X152642857Y-84328628D02*
X152261905Y-84328628D01*
X153214286Y-83900057D02*
X153261905Y-83852438D01*
X153261905Y-83852438D02*
X153357143Y-83804819D01*
X153357143Y-83804819D02*
X153595238Y-83804819D01*
X153595238Y-83804819D02*
X153690476Y-83852438D01*
X153690476Y-83852438D02*
X153738095Y-83900057D01*
X153738095Y-83900057D02*
X153785714Y-83995295D01*
X153785714Y-83995295D02*
X153785714Y-84090533D01*
X153785714Y-84090533D02*
X153738095Y-84233390D01*
X153738095Y-84233390D02*
X153166667Y-84804819D01*
X153166667Y-84804819D02*
X153785714Y-84804819D01*
X148233333Y-69109580D02*
X148185714Y-69157200D01*
X148185714Y-69157200D02*
X148042857Y-69204819D01*
X148042857Y-69204819D02*
X147947619Y-69204819D01*
X147947619Y-69204819D02*
X147804762Y-69157200D01*
X147804762Y-69157200D02*
X147709524Y-69061961D01*
X147709524Y-69061961D02*
X147661905Y-68966723D01*
X147661905Y-68966723D02*
X147614286Y-68776247D01*
X147614286Y-68776247D02*
X147614286Y-68633390D01*
X147614286Y-68633390D02*
X147661905Y-68442914D01*
X147661905Y-68442914D02*
X147709524Y-68347676D01*
X147709524Y-68347676D02*
X147804762Y-68252438D01*
X147804762Y-68252438D02*
X147947619Y-68204819D01*
X147947619Y-68204819D02*
X148042857Y-68204819D01*
X148042857Y-68204819D02*
X148185714Y-68252438D01*
X148185714Y-68252438D02*
X148233333Y-68300057D01*
X149185714Y-69204819D02*
X148614286Y-69204819D01*
X148900000Y-69204819D02*
X148900000Y-68204819D01*
X148900000Y-68204819D02*
X148804762Y-68347676D01*
X148804762Y-68347676D02*
X148709524Y-68442914D01*
X148709524Y-68442914D02*
X148614286Y-68490533D01*
X145633333Y-88909580D02*
X145585714Y-88957200D01*
X145585714Y-88957200D02*
X145442857Y-89004819D01*
X145442857Y-89004819D02*
X145347619Y-89004819D01*
X145347619Y-89004819D02*
X145204762Y-88957200D01*
X145204762Y-88957200D02*
X145109524Y-88861961D01*
X145109524Y-88861961D02*
X145061905Y-88766723D01*
X145061905Y-88766723D02*
X145014286Y-88576247D01*
X145014286Y-88576247D02*
X145014286Y-88433390D01*
X145014286Y-88433390D02*
X145061905Y-88242914D01*
X145061905Y-88242914D02*
X145109524Y-88147676D01*
X145109524Y-88147676D02*
X145204762Y-88052438D01*
X145204762Y-88052438D02*
X145347619Y-88004819D01*
X145347619Y-88004819D02*
X145442857Y-88004819D01*
X145442857Y-88004819D02*
X145585714Y-88052438D01*
X145585714Y-88052438D02*
X145633333Y-88100057D01*
X146490476Y-88338152D02*
X146490476Y-89004819D01*
X146252381Y-87957200D02*
X146014286Y-88671485D01*
X146014286Y-88671485D02*
X146633333Y-88671485D01*
X147148333Y-115599819D02*
X146815000Y-115123628D01*
X146576905Y-115599819D02*
X146576905Y-114599819D01*
X146576905Y-114599819D02*
X146957857Y-114599819D01*
X146957857Y-114599819D02*
X147053095Y-114647438D01*
X147053095Y-114647438D02*
X147100714Y-114695057D01*
X147100714Y-114695057D02*
X147148333Y-114790295D01*
X147148333Y-114790295D02*
X147148333Y-114933152D01*
X147148333Y-114933152D02*
X147100714Y-115028390D01*
X147100714Y-115028390D02*
X147053095Y-115076009D01*
X147053095Y-115076009D02*
X146957857Y-115123628D01*
X146957857Y-115123628D02*
X146576905Y-115123628D01*
X148005476Y-114933152D02*
X148005476Y-115599819D01*
X147767381Y-114552200D02*
X147529286Y-115266485D01*
X147529286Y-115266485D02*
X148148333Y-115266485D01*
X169666666Y-65704819D02*
X169666666Y-66419104D01*
X169666666Y-66419104D02*
X169619047Y-66561961D01*
X169619047Y-66561961D02*
X169523809Y-66657200D01*
X169523809Y-66657200D02*
X169380952Y-66704819D01*
X169380952Y-66704819D02*
X169285714Y-66704819D01*
X170095238Y-65800057D02*
X170142857Y-65752438D01*
X170142857Y-65752438D02*
X170238095Y-65704819D01*
X170238095Y-65704819D02*
X170476190Y-65704819D01*
X170476190Y-65704819D02*
X170571428Y-65752438D01*
X170571428Y-65752438D02*
X170619047Y-65800057D01*
X170619047Y-65800057D02*
X170666666Y-65895295D01*
X170666666Y-65895295D02*
X170666666Y-65990533D01*
X170666666Y-65990533D02*
X170619047Y-66133390D01*
X170619047Y-66133390D02*
X170047619Y-66704819D01*
X170047619Y-66704819D02*
X170666666Y-66704819D01*
X153838095Y-114654819D02*
X153838095Y-115464342D01*
X153838095Y-115464342D02*
X153885714Y-115559580D01*
X153885714Y-115559580D02*
X153933333Y-115607200D01*
X153933333Y-115607200D02*
X154028571Y-115654819D01*
X154028571Y-115654819D02*
X154219047Y-115654819D01*
X154219047Y-115654819D02*
X154314285Y-115607200D01*
X154314285Y-115607200D02*
X154361904Y-115559580D01*
X154361904Y-115559580D02*
X154409523Y-115464342D01*
X154409523Y-115464342D02*
X154409523Y-114654819D01*
X155314285Y-114988152D02*
X155314285Y-115654819D01*
X155076190Y-114607200D02*
X154838095Y-115321485D01*
X154838095Y-115321485D02*
X155457142Y-115321485D01*
X158233333Y-84804819D02*
X157900000Y-84328628D01*
X157661905Y-84804819D02*
X157661905Y-83804819D01*
X157661905Y-83804819D02*
X158042857Y-83804819D01*
X158042857Y-83804819D02*
X158138095Y-83852438D01*
X158138095Y-83852438D02*
X158185714Y-83900057D01*
X158185714Y-83900057D02*
X158233333Y-83995295D01*
X158233333Y-83995295D02*
X158233333Y-84138152D01*
X158233333Y-84138152D02*
X158185714Y-84233390D01*
X158185714Y-84233390D02*
X158138095Y-84281009D01*
X158138095Y-84281009D02*
X158042857Y-84328628D01*
X158042857Y-84328628D02*
X157661905Y-84328628D01*
X159185714Y-84804819D02*
X158614286Y-84804819D01*
X158900000Y-84804819D02*
X158900000Y-83804819D01*
X158900000Y-83804819D02*
X158804762Y-83947676D01*
X158804762Y-83947676D02*
X158709524Y-84042914D01*
X158709524Y-84042914D02*
X158614286Y-84090533D01*
X150838095Y-67754819D02*
X150838095Y-68564342D01*
X150838095Y-68564342D02*
X150885714Y-68659580D01*
X150885714Y-68659580D02*
X150933333Y-68707200D01*
X150933333Y-68707200D02*
X151028571Y-68754819D01*
X151028571Y-68754819D02*
X151219047Y-68754819D01*
X151219047Y-68754819D02*
X151314285Y-68707200D01*
X151314285Y-68707200D02*
X151361904Y-68659580D01*
X151361904Y-68659580D02*
X151409523Y-68564342D01*
X151409523Y-68564342D02*
X151409523Y-67754819D01*
X152409523Y-68754819D02*
X151838095Y-68754819D01*
X152123809Y-68754819D02*
X152123809Y-67754819D01*
X152123809Y-67754819D02*
X152028571Y-67897676D01*
X152028571Y-67897676D02*
X151933333Y-67992914D01*
X151933333Y-67992914D02*
X151838095Y-68040533D01*
X134666666Y-65804819D02*
X134666666Y-66519104D01*
X134666666Y-66519104D02*
X134619047Y-66661961D01*
X134619047Y-66661961D02*
X134523809Y-66757200D01*
X134523809Y-66757200D02*
X134380952Y-66804819D01*
X134380952Y-66804819D02*
X134285714Y-66804819D01*
X135666666Y-66804819D02*
X135095238Y-66804819D01*
X135380952Y-66804819D02*
X135380952Y-65804819D01*
X135380952Y-65804819D02*
X135285714Y-65947676D01*
X135285714Y-65947676D02*
X135190476Y-66042914D01*
X135190476Y-66042914D02*
X135095238Y-66090533D01*
X152348333Y-115599819D02*
X152015000Y-115123628D01*
X151776905Y-115599819D02*
X151776905Y-114599819D01*
X151776905Y-114599819D02*
X152157857Y-114599819D01*
X152157857Y-114599819D02*
X152253095Y-114647438D01*
X152253095Y-114647438D02*
X152300714Y-114695057D01*
X152300714Y-114695057D02*
X152348333Y-114790295D01*
X152348333Y-114790295D02*
X152348333Y-114933152D01*
X152348333Y-114933152D02*
X152300714Y-115028390D01*
X152300714Y-115028390D02*
X152253095Y-115076009D01*
X152253095Y-115076009D02*
X152157857Y-115123628D01*
X152157857Y-115123628D02*
X151776905Y-115123628D01*
X152681667Y-114599819D02*
X153300714Y-114599819D01*
X153300714Y-114599819D02*
X152967381Y-114980771D01*
X152967381Y-114980771D02*
X153110238Y-114980771D01*
X153110238Y-114980771D02*
X153205476Y-115028390D01*
X153205476Y-115028390D02*
X153253095Y-115076009D01*
X153253095Y-115076009D02*
X153300714Y-115171247D01*
X153300714Y-115171247D02*
X153300714Y-115409342D01*
X153300714Y-115409342D02*
X153253095Y-115504580D01*
X153253095Y-115504580D02*
X153205476Y-115552200D01*
X153205476Y-115552200D02*
X153110238Y-115599819D01*
X153110238Y-115599819D02*
X152824524Y-115599819D01*
X152824524Y-115599819D02*
X152729286Y-115552200D01*
X152729286Y-115552200D02*
X152681667Y-115504580D01*
X147633333Y-88909580D02*
X147585714Y-88957200D01*
X147585714Y-88957200D02*
X147442857Y-89004819D01*
X147442857Y-89004819D02*
X147347619Y-89004819D01*
X147347619Y-89004819D02*
X147204762Y-88957200D01*
X147204762Y-88957200D02*
X147109524Y-88861961D01*
X147109524Y-88861961D02*
X147061905Y-88766723D01*
X147061905Y-88766723D02*
X147014286Y-88576247D01*
X147014286Y-88576247D02*
X147014286Y-88433390D01*
X147014286Y-88433390D02*
X147061905Y-88242914D01*
X147061905Y-88242914D02*
X147109524Y-88147676D01*
X147109524Y-88147676D02*
X147204762Y-88052438D01*
X147204762Y-88052438D02*
X147347619Y-88004819D01*
X147347619Y-88004819D02*
X147442857Y-88004819D01*
X147442857Y-88004819D02*
X147585714Y-88052438D01*
X147585714Y-88052438D02*
X147633333Y-88100057D01*
X147966667Y-88004819D02*
X148585714Y-88004819D01*
X148585714Y-88004819D02*
X148252381Y-88385771D01*
X148252381Y-88385771D02*
X148395238Y-88385771D01*
X148395238Y-88385771D02*
X148490476Y-88433390D01*
X148490476Y-88433390D02*
X148538095Y-88481009D01*
X148538095Y-88481009D02*
X148585714Y-88576247D01*
X148585714Y-88576247D02*
X148585714Y-88814342D01*
X148585714Y-88814342D02*
X148538095Y-88909580D01*
X148538095Y-88909580D02*
X148490476Y-88957200D01*
X148490476Y-88957200D02*
X148395238Y-89004819D01*
X148395238Y-89004819D02*
X148109524Y-89004819D01*
X148109524Y-89004819D02*
X148014286Y-88957200D01*
X148014286Y-88957200D02*
X147966667Y-88909580D01*
X156148333Y-121734580D02*
X156100714Y-121782200D01*
X156100714Y-121782200D02*
X155957857Y-121829819D01*
X155957857Y-121829819D02*
X155862619Y-121829819D01*
X155862619Y-121829819D02*
X155719762Y-121782200D01*
X155719762Y-121782200D02*
X155624524Y-121686961D01*
X155624524Y-121686961D02*
X155576905Y-121591723D01*
X155576905Y-121591723D02*
X155529286Y-121401247D01*
X155529286Y-121401247D02*
X155529286Y-121258390D01*
X155529286Y-121258390D02*
X155576905Y-121067914D01*
X155576905Y-121067914D02*
X155624524Y-120972676D01*
X155624524Y-120972676D02*
X155719762Y-120877438D01*
X155719762Y-120877438D02*
X155862619Y-120829819D01*
X155862619Y-120829819D02*
X155957857Y-120829819D01*
X155957857Y-120829819D02*
X156100714Y-120877438D01*
X156100714Y-120877438D02*
X156148333Y-120925057D01*
X157005476Y-120829819D02*
X156815000Y-120829819D01*
X156815000Y-120829819D02*
X156719762Y-120877438D01*
X156719762Y-120877438D02*
X156672143Y-120925057D01*
X156672143Y-120925057D02*
X156576905Y-121067914D01*
X156576905Y-121067914D02*
X156529286Y-121258390D01*
X156529286Y-121258390D02*
X156529286Y-121639342D01*
X156529286Y-121639342D02*
X156576905Y-121734580D01*
X156576905Y-121734580D02*
X156624524Y-121782200D01*
X156624524Y-121782200D02*
X156719762Y-121829819D01*
X156719762Y-121829819D02*
X156910238Y-121829819D01*
X156910238Y-121829819D02*
X157005476Y-121782200D01*
X157005476Y-121782200D02*
X157053095Y-121734580D01*
X157053095Y-121734580D02*
X157100714Y-121639342D01*
X157100714Y-121639342D02*
X157100714Y-121401247D01*
X157100714Y-121401247D02*
X157053095Y-121306009D01*
X157053095Y-121306009D02*
X157005476Y-121258390D01*
X157005476Y-121258390D02*
X156910238Y-121210771D01*
X156910238Y-121210771D02*
X156719762Y-121210771D01*
X156719762Y-121210771D02*
X156624524Y-121258390D01*
X156624524Y-121258390D02*
X156576905Y-121306009D01*
X156576905Y-121306009D02*
X156529286Y-121401247D01*
X151738095Y-99404819D02*
X151738095Y-100214342D01*
X151738095Y-100214342D02*
X151785714Y-100309580D01*
X151785714Y-100309580D02*
X151833333Y-100357200D01*
X151833333Y-100357200D02*
X151928571Y-100404819D01*
X151928571Y-100404819D02*
X152119047Y-100404819D01*
X152119047Y-100404819D02*
X152214285Y-100357200D01*
X152214285Y-100357200D02*
X152261904Y-100309580D01*
X152261904Y-100309580D02*
X152309523Y-100214342D01*
X152309523Y-100214342D02*
X152309523Y-99404819D01*
X152690476Y-99404819D02*
X153309523Y-99404819D01*
X153309523Y-99404819D02*
X152976190Y-99785771D01*
X152976190Y-99785771D02*
X153119047Y-99785771D01*
X153119047Y-99785771D02*
X153214285Y-99833390D01*
X153214285Y-99833390D02*
X153261904Y-99881009D01*
X153261904Y-99881009D02*
X153309523Y-99976247D01*
X153309523Y-99976247D02*
X153309523Y-100214342D01*
X153309523Y-100214342D02*
X153261904Y-100309580D01*
X153261904Y-100309580D02*
X153214285Y-100357200D01*
X153214285Y-100357200D02*
X153119047Y-100404819D01*
X153119047Y-100404819D02*
X152833333Y-100404819D01*
X152833333Y-100404819D02*
X152738095Y-100357200D01*
X152738095Y-100357200D02*
X152690476Y-100309580D01*
X149833333Y-100109580D02*
X149785714Y-100157200D01*
X149785714Y-100157200D02*
X149642857Y-100204819D01*
X149642857Y-100204819D02*
X149547619Y-100204819D01*
X149547619Y-100204819D02*
X149404762Y-100157200D01*
X149404762Y-100157200D02*
X149309524Y-100061961D01*
X149309524Y-100061961D02*
X149261905Y-99966723D01*
X149261905Y-99966723D02*
X149214286Y-99776247D01*
X149214286Y-99776247D02*
X149214286Y-99633390D01*
X149214286Y-99633390D02*
X149261905Y-99442914D01*
X149261905Y-99442914D02*
X149309524Y-99347676D01*
X149309524Y-99347676D02*
X149404762Y-99252438D01*
X149404762Y-99252438D02*
X149547619Y-99204819D01*
X149547619Y-99204819D02*
X149642857Y-99204819D01*
X149642857Y-99204819D02*
X149785714Y-99252438D01*
X149785714Y-99252438D02*
X149833333Y-99300057D01*
X150738095Y-99204819D02*
X150261905Y-99204819D01*
X150261905Y-99204819D02*
X150214286Y-99681009D01*
X150214286Y-99681009D02*
X150261905Y-99633390D01*
X150261905Y-99633390D02*
X150357143Y-99585771D01*
X150357143Y-99585771D02*
X150595238Y-99585771D01*
X150595238Y-99585771D02*
X150690476Y-99633390D01*
X150690476Y-99633390D02*
X150738095Y-99681009D01*
X150738095Y-99681009D02*
X150785714Y-99776247D01*
X150785714Y-99776247D02*
X150785714Y-100014342D01*
X150785714Y-100014342D02*
X150738095Y-100109580D01*
X150738095Y-100109580D02*
X150690476Y-100157200D01*
X150690476Y-100157200D02*
X150595238Y-100204819D01*
X150595238Y-100204819D02*
X150357143Y-100204819D01*
X150357143Y-100204819D02*
X150261905Y-100157200D01*
X150261905Y-100157200D02*
X150214286Y-100109580D01*
D13*
%TO.C,C2*%
X149290000Y-86490580D02*
X149290000Y-86209420D01*
X150310000Y-86490580D02*
X150310000Y-86209420D01*
%TO.C,U2*%
X151062500Y-85250000D02*
X151562500Y-85250000D01*
X151062500Y-85750000D02*
X151062500Y-85250000D01*
X151062500Y-86950000D02*
X151062500Y-86950000D01*
X151062500Y-87450000D02*
X151062500Y-86950000D01*
X151562500Y-85250000D02*
X151562500Y-85250000D01*
X151562500Y-87450000D02*
X151062500Y-87450000D01*
X152762500Y-85250000D02*
X153262500Y-85250000D01*
X152762500Y-87450000D02*
X153062500Y-87450000D01*
X153262500Y-85250000D02*
X153262500Y-85750000D01*
X153262500Y-85750000D02*
X153262500Y-85750000D01*
X153262500Y-86950000D02*
X153262500Y-87250000D01*
X153262500Y-87450000D02*
X153262500Y-87450000D01*
X153262500Y-87810000D02*
X153262500Y-87450000D01*
X153622500Y-87450000D01*
X153262500Y-87810000D01*
G36*
X153262500Y-87810000D02*
G01*
X153262500Y-87450000D01*
X153622500Y-87450000D01*
X153262500Y-87810000D01*
G37*
%TO.C,C7*%
X152974420Y-119435000D02*
X153255580Y-119435000D01*
X152974420Y-120455000D02*
X153255580Y-120455000D01*
%TO.C,R2*%
X154277500Y-84587258D02*
X154277500Y-84112742D01*
X155322500Y-84587258D02*
X155322500Y-84112742D01*
%TO.C,C1*%
X147890000Y-71090580D02*
X147890000Y-70809420D01*
X148910000Y-71090580D02*
X148910000Y-70809420D01*
%TO.C,C4*%
X145290000Y-86490580D02*
X145290000Y-86209420D01*
X146310000Y-86490580D02*
X146310000Y-86209420D01*
%TO.C,R4*%
X148592500Y-115382258D02*
X148592500Y-114907742D01*
X149637500Y-115382258D02*
X149637500Y-114907742D01*
%TO.C,J2*%
X168620000Y-67370000D02*
X170000000Y-67370000D01*
X168620000Y-68750000D02*
X168620000Y-67370000D01*
X168620000Y-70020000D02*
X168620000Y-128550000D01*
X168620000Y-70020000D02*
X171380000Y-70020000D01*
X168620000Y-128550000D02*
X171380000Y-128550000D01*
X171380000Y-70020000D02*
X171380000Y-128550000D01*
D14*
%TO.C,U4*%
X153062500Y-116200000D02*
X153562500Y-116200000D01*
X153062500Y-118700000D02*
X153562500Y-118700000D01*
X156062500Y-116200000D02*
X155562500Y-116200000D01*
X156062500Y-118700000D02*
X155562500Y-118700000D01*
D11*
X152662500Y-116700000D02*
G75*
G02*
X152462500Y-116700000I-100000J0D01*
G01*
X152462500Y-116700000D02*
G75*
G02*
X152662500Y-116700000I100000J0D01*
G01*
D13*
%TO.C,R1*%
X156077500Y-84587258D02*
X156077500Y-84112742D01*
X157122500Y-84587258D02*
X157122500Y-84112742D01*
D15*
%TO.C,U1*%
X149750000Y-72850000D02*
X149750000Y-69500000D01*
X150100000Y-69150000D02*
X153450000Y-69150000D01*
X153450000Y-69150000D02*
X153450000Y-72850000D01*
X153450000Y-72850000D02*
X149750000Y-72850000D01*
D13*
X149800000Y-69200000D02*
X149520000Y-69200000D01*
X149800000Y-68920000D01*
X149800000Y-69200000D01*
G36*
X149800000Y-69200000D02*
G01*
X149520000Y-69200000D01*
X149800000Y-68920000D01*
X149800000Y-69200000D01*
G37*
%TO.C,J1*%
X133620000Y-67370000D02*
X135000000Y-67370000D01*
X133620000Y-68750000D02*
X133620000Y-67370000D01*
X133620000Y-70020000D02*
X133620000Y-128550000D01*
X133620000Y-70020000D02*
X136380000Y-70020000D01*
X133620000Y-128550000D02*
X136380000Y-128550000D01*
X136380000Y-70020000D02*
X136380000Y-128550000D01*
%TO.C,R3*%
X150392500Y-115382258D02*
X150392500Y-114907742D01*
X151437500Y-115382258D02*
X151437500Y-114907742D01*
%TO.C,C3*%
X147290000Y-86490580D02*
X147290000Y-86209420D01*
X148310000Y-86490580D02*
X148310000Y-86209420D01*
%TO.C,C6*%
X156455580Y-119435000D02*
X156174420Y-119435000D01*
X156455580Y-120455000D02*
X156174420Y-120455000D01*
D14*
%TO.C,U3*%
X151915000Y-101365000D02*
X151915000Y-101682500D01*
X151915000Y-101365000D02*
X152232500Y-101365000D01*
X151915000Y-102635000D02*
X151915000Y-102317500D01*
X151915000Y-102635000D02*
X152232500Y-102635000D01*
X153185000Y-101365000D02*
X152867500Y-101365000D01*
X153185000Y-101365000D02*
X153185000Y-101682500D01*
X153185000Y-102635000D02*
X152867500Y-102635000D01*
X153185000Y-102635000D02*
X153185000Y-102317500D01*
D11*
X151725000Y-101800000D02*
G75*
G02*
X151525000Y-101800000I-100000J0D01*
G01*
X151525000Y-101800000D02*
G75*
G02*
X151725000Y-101800000I100000J0D01*
G01*
D13*
%TO.C,C5*%
X149490000Y-102090580D02*
X149490000Y-101809420D01*
X150510000Y-102090580D02*
X150510000Y-101809420D01*
%TD*%
M02*
