%TF.GenerationSoftware,KiCad,Pcbnew,9.0.6*%
%TF.CreationDate,2026-03-22T14:34:52-04:00*%
%TF.ProjectId,SENSOR,53454e53-4f52-42e6-9b69-6361645f7063,rev?*%
%TF.SameCoordinates,Original*%
%TF.FileFunction,Soldermask,Bot*%
%TF.FilePolarity,Negative*%
%FSLAX46Y46*%
G04 Gerber Fmt 4.6, Leading zero omitted, Abs format (unit mm)*
G04 Created by KiCad (PCBNEW 9.0.6) date 2026-03-22 14:34:52*
%MOMM*%
%LPD*%
G01*
G04 APERTURE LIST*
%ADD10R,1.700000X1.700000*%
%ADD11C,1.700000*%
G04 APERTURE END LIST*
D10*
%TO.C,J2*%
X170000000Y-68750000D03*
D11*
X170000000Y-71290000D03*
X170000000Y-73830000D03*
X170000000Y-76370000D03*
X170000000Y-78910000D03*
X170000000Y-81450000D03*
X170000000Y-83990000D03*
X170000000Y-86530000D03*
X170000000Y-89070000D03*
X170000000Y-91610000D03*
X170000000Y-94150000D03*
X170000000Y-96690000D03*
X170000000Y-99230000D03*
X170000000Y-101770000D03*
X170000000Y-104310000D03*
X170000000Y-106850000D03*
X170000000Y-109390000D03*
X170000000Y-111930000D03*
X170000000Y-114470000D03*
X170000000Y-117010000D03*
X170000000Y-119550000D03*
X170000000Y-122090000D03*
X170000000Y-124630000D03*
X170000000Y-127170000D03*
%TD*%
D10*
%TO.C,J1*%
X135000000Y-68750000D03*
D11*
X135000000Y-71290000D03*
X135000000Y-73830000D03*
X135000000Y-76370000D03*
X135000000Y-78910000D03*
X135000000Y-81450000D03*
X135000000Y-83990000D03*
X135000000Y-86530000D03*
X135000000Y-89070000D03*
X135000000Y-91610000D03*
X135000000Y-94150000D03*
X135000000Y-96690000D03*
X135000000Y-99230000D03*
X135000000Y-101770000D03*
X135000000Y-104310000D03*
X135000000Y-106850000D03*
X135000000Y-109390000D03*
X135000000Y-111930000D03*
X135000000Y-114470000D03*
X135000000Y-117010000D03*
X135000000Y-119550000D03*
X135000000Y-122090000D03*
X135000000Y-124630000D03*
X135000000Y-127170000D03*
%TD*%
M02*
