%TF.GenerationSoftware,KiCad,Pcbnew,8.0.6*%
%TF.CreationDate,2025-10-30T10:56:52-04:00*%
%TF.ProjectId,COMMs,434f4d4d-732e-46b6-9963-61645f706362,rev?*%
%TF.SameCoordinates,Original*%
%TF.FileFunction,Paste,Top*%
%TF.FilePolarity,Positive*%
%FSLAX46Y46*%
G04 Gerber Fmt 4.6, Leading zero omitted, Abs format (unit mm)*
G04 Created by KiCad (PCBNEW 8.0.6) date 2025-10-30 10:56:52*
%MOMM*%
%LPD*%
G01*
G04 APERTURE LIST*
G04 Aperture macros list*
%AMRoundRect*
0 Rectangle with rounded corners*
0 $1 Rounding radius*
0 $2 $3 $4 $5 $6 $7 $8 $9 X,Y pos of 4 corners*
0 Add a 4 corners polygon primitive as box body*
4,1,4,$2,$3,$4,$5,$6,$7,$8,$9,$2,$3,0*
0 Add four circle primitives for the rounded corners*
1,1,$1+$1,$2,$3*
1,1,$1+$1,$4,$5*
1,1,$1+$1,$6,$7*
1,1,$1+$1,$8,$9*
0 Add four rect primitives between the rounded corners*
20,1,$1+$1,$2,$3,$4,$5,0*
20,1,$1+$1,$4,$5,$6,$7,0*
20,1,$1+$1,$6,$7,$8,$9,0*
20,1,$1+$1,$8,$9,$2,$3,0*%
G04 Aperture macros list end*
%ADD10C,0.000000*%
%ADD11RoundRect,0.225000X-0.225000X-0.250000X0.225000X-0.250000X0.225000X0.250000X-0.225000X0.250000X0*%
%ADD12RoundRect,0.225000X0.225000X0.250000X-0.225000X0.250000X-0.225000X-0.250000X0.225000X-0.250000X0*%
%ADD13RoundRect,0.225000X0.250000X-0.225000X0.250000X0.225000X-0.250000X0.225000X-0.250000X-0.225000X0*%
%ADD14RoundRect,0.200000X-0.200000X-0.275000X0.200000X-0.275000X0.200000X0.275000X-0.200000X0.275000X0*%
%ADD15R,1.219200X0.457200*%
%ADD16RoundRect,0.200000X-0.275000X0.200000X-0.275000X-0.200000X0.275000X-0.200000X0.275000X0.200000X0*%
%ADD17RoundRect,0.200000X0.200000X0.275000X-0.200000X0.275000X-0.200000X-0.275000X0.200000X-0.275000X0*%
%ADD18RoundRect,0.225000X-0.250000X0.225000X-0.250000X-0.225000X0.250000X-0.225000X0.250000X0.225000X0*%
%ADD19RoundRect,0.162500X0.447500X0.162500X-0.447500X0.162500X-0.447500X-0.162500X0.447500X-0.162500X0*%
%ADD20RoundRect,0.150000X0.512500X0.150000X-0.512500X0.150000X-0.512500X-0.150000X0.512500X-0.150000X0*%
%ADD21RoundRect,0.100000X-0.225000X-0.100000X0.225000X-0.100000X0.225000X0.100000X-0.225000X0.100000X0*%
%ADD22R,1.550000X0.600000*%
%ADD23RoundRect,0.200000X0.275000X-0.200000X0.275000X0.200000X-0.275000X0.200000X-0.275000X-0.200000X0*%
%ADD24RoundRect,0.250000X-1.425000X0.362500X-1.425000X-0.362500X1.425000X-0.362500X1.425000X0.362500X0*%
%ADD25RoundRect,0.250000X0.362500X1.425000X-0.362500X1.425000X-0.362500X-1.425000X0.362500X-1.425000X0*%
%ADD26RoundRect,0.150000X-0.150000X0.825000X-0.150000X-0.825000X0.150000X-0.825000X0.150000X0.825000X0*%
%ADD27RoundRect,0.150000X-0.512500X-0.150000X0.512500X-0.150000X0.512500X0.150000X-0.512500X0.150000X0*%
%ADD28RoundRect,0.112500X0.112500X-0.187500X0.112500X0.187500X-0.112500X0.187500X-0.112500X-0.187500X0*%
%ADD29RoundRect,0.250000X-0.312500X-0.625000X0.312500X-0.625000X0.312500X0.625000X-0.312500X0.625000X0*%
%ADD30RoundRect,0.250000X1.075000X-0.375000X1.075000X0.375000X-1.075000X0.375000X-1.075000X-0.375000X0*%
%ADD31R,0.736600X0.431800*%
%ADD32R,0.312800X0.395780*%
%ADD33R,1.532000X1.270524*%
%ADD34R,0.304800X0.381000*%
%ADD35R,0.370780X1.732020*%
%ADD36R,0.723320X0.441020*%
%ADD37R,1.528010X1.270610*%
%ADD38R,0.302800X0.385780*%
%ADD39RoundRect,0.112500X-0.112500X0.187500X-0.112500X-0.187500X0.112500X-0.187500X0.112500X0.187500X0*%
%ADD40RoundRect,0.075000X0.225000X-0.910000X0.225000X0.910000X-0.225000X0.910000X-0.225000X-0.910000X0*%
%ADD41RoundRect,0.250000X-1.000000X-0.900000X1.000000X-0.900000X1.000000X0.900000X-1.000000X0.900000X0*%
%ADD42RoundRect,0.075000X-0.910000X-0.225000X0.910000X-0.225000X0.910000X0.225000X-0.910000X0.225000X0*%
%ADD43RoundRect,0.250000X-0.362500X-1.425000X0.362500X-1.425000X0.362500X1.425000X-0.362500X1.425000X0*%
%ADD44RoundRect,0.112500X0.187500X0.112500X-0.187500X0.112500X-0.187500X-0.112500X0.187500X-0.112500X0*%
%ADD45R,0.930600X0.350800*%
%ADD46RoundRect,0.112500X-0.187500X-0.112500X0.187500X-0.112500X0.187500X0.112500X-0.187500X0.112500X0*%
%ADD47RoundRect,0.125000X-0.125000X0.687500X-0.125000X-0.687500X0.125000X-0.687500X0.125000X0.687500X0*%
G04 APERTURE END LIST*
D10*
%TO.C,Q1*%
G36*
X195092800Y-131075220D02*
G01*
X196007200Y-131075220D01*
X196007200Y-130694220D01*
X196312000Y-130694220D01*
X196312000Y-132345220D01*
X194788000Y-132345220D01*
X194788000Y-130694220D01*
X195092800Y-130694220D01*
X195092800Y-131075220D01*
G37*
G36*
X196312000Y-134285780D02*
G01*
X196007200Y-134285780D01*
X196007200Y-133904780D01*
X195092800Y-133904780D01*
X195092800Y-134285780D01*
X194788000Y-134285780D01*
X194788000Y-132634780D01*
X196312000Y-132634780D01*
X196312000Y-134285780D01*
G37*
G36*
X197348320Y-131730540D02*
G01*
X196967320Y-131730540D01*
X196967320Y-131948980D01*
X197348320Y-131948980D01*
X197348320Y-132380780D01*
X196967320Y-132380780D01*
X196967320Y-132599220D01*
X197348320Y-132599220D01*
X197348320Y-133031020D01*
X196611720Y-133031020D01*
X196611720Y-131298740D01*
X197348320Y-131298740D01*
X197348320Y-131730540D01*
G37*
%TO.C,Q2*%
G36*
X185022820Y-127785580D02*
G01*
X185937220Y-127785580D01*
X185937220Y-127404580D01*
X186242020Y-127404580D01*
X186242020Y-129055580D01*
X184718020Y-129055580D01*
X184718020Y-127404580D01*
X185022820Y-127404580D01*
X185022820Y-127785580D01*
G37*
G36*
X186242020Y-130996140D02*
G01*
X185937220Y-130996140D01*
X185937220Y-130615140D01*
X185022820Y-130615140D01*
X185022820Y-130996140D01*
X184718020Y-130996140D01*
X184718020Y-129345140D01*
X186242020Y-129345140D01*
X186242020Y-130996140D01*
G37*
G36*
X187278340Y-128440900D02*
G01*
X186897340Y-128440900D01*
X186897340Y-128659340D01*
X187278340Y-128659340D01*
X187278340Y-129091140D01*
X186897340Y-129091140D01*
X186897340Y-129309580D01*
X187278340Y-129309580D01*
X187278340Y-129741380D01*
X186541740Y-129741380D01*
X186541740Y-128009100D01*
X187278340Y-128009100D01*
X187278340Y-128440900D01*
G37*
%TD*%
D11*
%TO.C,C26*%
X155275000Y-139175000D03*
X156825000Y-139175000D03*
%TD*%
D12*
%TO.C,C7*%
X187085000Y-120000000D03*
X185535000Y-120000000D03*
%TD*%
D13*
%TO.C,C19*%
X156550000Y-118600000D03*
X156550000Y-117050000D03*
%TD*%
%TO.C,C3*%
X190800000Y-140265000D03*
X190800000Y-138715000D03*
%TD*%
D14*
%TO.C,R53*%
X162475000Y-142250000D03*
X164125000Y-142250000D03*
%TD*%
D15*
%TO.C,U5*%
X172959900Y-111386200D03*
X172959900Y-113926200D03*
X179640100Y-113926200D03*
X179640100Y-111386200D03*
%TD*%
D16*
%TO.C,R29*%
X156050000Y-113500000D03*
X156050000Y-115150000D03*
%TD*%
D11*
%TO.C,C31*%
X184525000Y-136500000D03*
X186075000Y-136500000D03*
%TD*%
D17*
%TO.C,R50*%
X177625000Y-140750000D03*
X175975000Y-140750000D03*
%TD*%
D12*
%TO.C,C25*%
X144600000Y-145425000D03*
X143050000Y-145425000D03*
%TD*%
D17*
%TO.C,R42*%
X150875000Y-139675000D03*
X149225000Y-139675000D03*
%TD*%
D18*
%TO.C,C38*%
X176300000Y-145475000D03*
X176300000Y-147025000D03*
%TD*%
D14*
%TO.C,R5*%
X188475000Y-131000000D03*
X190125000Y-131000000D03*
%TD*%
D17*
%TO.C,R41*%
X152375000Y-147175000D03*
X150725000Y-147175000D03*
%TD*%
D18*
%TO.C,C4*%
X189300000Y-140475000D03*
X189300000Y-142025000D03*
%TD*%
D19*
%TO.C,Q3*%
X170860000Y-111106200D03*
X170860000Y-109206200D03*
X168240000Y-110156200D03*
%TD*%
D16*
%TO.C,R45*%
X175050000Y-136175000D03*
X175050000Y-137825000D03*
%TD*%
D18*
%TO.C,C21*%
X161800000Y-136975000D03*
X161800000Y-138525000D03*
%TD*%
D16*
%TO.C,R31*%
X159050000Y-122500000D03*
X159050000Y-124150000D03*
%TD*%
D14*
%TO.C,R47*%
X163175000Y-134725000D03*
X164825000Y-134725000D03*
%TD*%
D20*
%TO.C,D4*%
X146187500Y-118775000D03*
X146187500Y-116875000D03*
X143912500Y-117825000D03*
%TD*%
D21*
%TO.C,U6*%
X142350000Y-113600000D03*
X142350000Y-114250000D03*
X142350000Y-114900000D03*
X144250000Y-114900000D03*
X144250000Y-113600000D03*
%TD*%
D18*
%TO.C,C24*%
X160050000Y-131550000D03*
X160050000Y-133100000D03*
%TD*%
D12*
%TO.C,C27*%
X156825000Y-140925000D03*
X155275000Y-140925000D03*
%TD*%
D18*
%TO.C,C2*%
X190550000Y-144975000D03*
X190550000Y-146525000D03*
%TD*%
D16*
%TO.C,R38*%
X154550000Y-145850000D03*
X154550000Y-147500000D03*
%TD*%
%TO.C,R44*%
X144300000Y-141850000D03*
X144300000Y-143500000D03*
%TD*%
%TO.C,R28*%
X139800000Y-116100000D03*
X139800000Y-117750000D03*
%TD*%
D22*
%TO.C,U11*%
X173500000Y-145405000D03*
X173500000Y-144135000D03*
X173500000Y-142865000D03*
X173500000Y-141595000D03*
X168100000Y-141595000D03*
X168100000Y-142865000D03*
X168100000Y-144135000D03*
X168100000Y-145405000D03*
%TD*%
D11*
%TO.C,C36*%
X172025000Y-130475000D03*
X173575000Y-130475000D03*
%TD*%
D17*
%TO.C,R21*%
X153375000Y-110425000D03*
X151725000Y-110425000D03*
%TD*%
D23*
%TO.C,R1*%
X198300000Y-139575000D03*
X198300000Y-137925000D03*
%TD*%
D17*
%TO.C,R40*%
X158375000Y-148175000D03*
X156725000Y-148175000D03*
%TD*%
D11*
%TO.C,C8*%
X190785000Y-120000000D03*
X192335000Y-120000000D03*
%TD*%
D14*
%TO.C,R2*%
X192975000Y-127750000D03*
X194625000Y-127750000D03*
%TD*%
D18*
%TO.C,C6*%
X184310000Y-123450000D03*
X184310000Y-125000000D03*
%TD*%
D24*
%TO.C,R9*%
X183550000Y-108825000D03*
X183550000Y-114750000D03*
%TD*%
D17*
%TO.C,R39*%
X155875000Y-144310000D03*
X154225000Y-144310000D03*
%TD*%
%TO.C,R33*%
X151875000Y-128325000D03*
X150225000Y-128325000D03*
%TD*%
D25*
%TO.C,R16*%
X164262500Y-103750000D03*
X158337500Y-103750000D03*
%TD*%
D26*
%TO.C,U3*%
X177455000Y-117275000D03*
X176185000Y-117275000D03*
X174915000Y-117275000D03*
X173645000Y-117275000D03*
X173645000Y-122225000D03*
X174915000Y-122225000D03*
X176185000Y-122225000D03*
X177455000Y-122225000D03*
%TD*%
D12*
%TO.C,C13*%
X174825000Y-124500000D03*
X173275000Y-124500000D03*
%TD*%
D14*
%TO.C,R34*%
X153225000Y-128325000D03*
X154875000Y-128325000D03*
%TD*%
D27*
%TO.C,D3*%
X158912500Y-116875000D03*
X158912500Y-118775000D03*
X161187500Y-117825000D03*
%TD*%
D28*
%TO.C,D7*%
X155050000Y-125375000D03*
X155050000Y-123275000D03*
%TD*%
D16*
%TO.C,R23*%
X151050000Y-119000000D03*
X151050000Y-120650000D03*
%TD*%
D23*
%TO.C,R48*%
X165550000Y-128050000D03*
X165550000Y-126400000D03*
%TD*%
D29*
%TO.C,R11*%
X190050000Y-111750000D03*
X192975000Y-111750000D03*
%TD*%
D12*
%TO.C,C12*%
X168350000Y-119250000D03*
X166800000Y-119250000D03*
%TD*%
D13*
%TO.C,C35*%
X163800000Y-125500000D03*
X163800000Y-123950000D03*
%TD*%
D22*
%TO.C,U10*%
X177100000Y-134845000D03*
X177100000Y-136115000D03*
X177100000Y-137385000D03*
X177100000Y-138655000D03*
X182500000Y-138655000D03*
X182500000Y-137385000D03*
X182500000Y-136115000D03*
X182500000Y-134845000D03*
%TD*%
D23*
%TO.C,R8*%
X182300000Y-130550000D03*
X182300000Y-128900000D03*
%TD*%
D14*
%TO.C,R3*%
X195475000Y-143490000D03*
X197125000Y-143490000D03*
%TD*%
D17*
%TO.C,R37*%
X155875000Y-142675000D03*
X154225000Y-142675000D03*
%TD*%
D30*
%TO.C,L2*%
X154800000Y-105150000D03*
X154800000Y-102350000D03*
%TD*%
D13*
%TO.C,C34*%
X163800000Y-130250000D03*
X163800000Y-128700000D03*
%TD*%
D30*
%TO.C,L1*%
X150300000Y-105150000D03*
X150300000Y-102350000D03*
%TD*%
D29*
%TO.C,R55*%
X161837500Y-109750000D03*
X164762500Y-109750000D03*
%TD*%
D14*
%TO.C,R18*%
X169475000Y-107156200D03*
X171125000Y-107156200D03*
%TD*%
D28*
%TO.C,D6*%
X150050000Y-125375000D03*
X150050000Y-123275000D03*
%TD*%
D17*
%TO.C,R13*%
X171650000Y-119250000D03*
X170000000Y-119250000D03*
%TD*%
D23*
%TO.C,R46*%
X174300000Y-134575000D03*
X174300000Y-132925000D03*
%TD*%
D11*
%TO.C,C11*%
X186525000Y-112500000D03*
X188075000Y-112500000D03*
%TD*%
%TO.C,C23*%
X148025000Y-130325000D03*
X149575000Y-130325000D03*
%TD*%
D13*
%TO.C,C18*%
X148550000Y-118600000D03*
X148550000Y-117050000D03*
%TD*%
D22*
%TO.C,U8*%
X151950000Y-145215000D03*
X151950000Y-143945000D03*
X151950000Y-142675000D03*
X151950000Y-141405000D03*
X146550000Y-141405000D03*
X146550000Y-142675000D03*
X146550000Y-143945000D03*
X146550000Y-145215000D03*
%TD*%
D23*
%TO.C,R4*%
X196050000Y-129575000D03*
X196050000Y-127925000D03*
%TD*%
D31*
%TO.C,Q1*%
X194119980Y-131514640D03*
X194119980Y-132164880D03*
X194119980Y-132815120D03*
X194119980Y-133465360D03*
D32*
X194936400Y-134087890D03*
D33*
X195546000Y-133270042D03*
D34*
X196159600Y-134095280D03*
D31*
X196980020Y-133465360D03*
D35*
X196790000Y-132165010D03*
D31*
X196980020Y-132815120D03*
D36*
X196986660Y-132169490D03*
D31*
X196980020Y-131514640D03*
D37*
X195547995Y-131709915D03*
D34*
X196159600Y-130884720D03*
D38*
X194941400Y-130887110D03*
%TD*%
D39*
%TO.C,D8*%
X157050000Y-122775000D03*
X157050000Y-124875000D03*
%TD*%
D18*
%TO.C,C20*%
X163300000Y-136975000D03*
X163300000Y-138525000D03*
%TD*%
D23*
%TO.C,R7*%
X180550000Y-130575000D03*
X180550000Y-128925000D03*
%TD*%
D18*
%TO.C,C1*%
X188800000Y-144975000D03*
X188800000Y-146525000D03*
%TD*%
D17*
%TO.C,R17*%
X171125000Y-105656200D03*
X169475000Y-105656200D03*
%TD*%
D12*
%TO.C,C37*%
X177575000Y-142250000D03*
X176025000Y-142250000D03*
%TD*%
D16*
%TO.C,R54*%
X165800000Y-143925000D03*
X165800000Y-145575000D03*
%TD*%
%TO.C,R52*%
X165800000Y-140675000D03*
X165800000Y-142325000D03*
%TD*%
D12*
%TO.C,C39*%
X173575000Y-147250000D03*
X172025000Y-147250000D03*
%TD*%
D23*
%TO.C,R36*%
X158050000Y-134150000D03*
X158050000Y-132500000D03*
%TD*%
D11*
%TO.C,C17*%
X151775000Y-108825000D03*
X153325000Y-108825000D03*
%TD*%
D16*
%TO.C,R24*%
X154050000Y-119000000D03*
X154050000Y-120650000D03*
%TD*%
D12*
%TO.C,C15*%
X143575000Y-111750000D03*
X142025000Y-111750000D03*
%TD*%
D40*
%TO.C,U1*%
X192645000Y-141220000D03*
X193915000Y-141220000D03*
X195185000Y-141220000D03*
X196455000Y-141220000D03*
X196455000Y-136280000D03*
X195185000Y-136280000D03*
X193915000Y-136280000D03*
X192645000Y-136280000D03*
%TD*%
D41*
%TO.C,D1*%
X186400000Y-105000000D03*
X190700000Y-105000000D03*
%TD*%
D18*
%TO.C,C42*%
X164300000Y-143975000D03*
X164300000Y-145525000D03*
%TD*%
D42*
%TO.C,U2*%
X188080000Y-121570000D03*
X188080000Y-122840000D03*
X188080000Y-124110000D03*
X188080000Y-125380000D03*
X193020000Y-125380000D03*
X193020000Y-124110000D03*
X193020000Y-122840000D03*
X193020000Y-121570000D03*
%TD*%
D12*
%TO.C,C28*%
X147825000Y-139675000D03*
X146275000Y-139675000D03*
%TD*%
D14*
%TO.C,R49*%
X168725000Y-130475000D03*
X170375000Y-130475000D03*
%TD*%
D16*
%TO.C,R56*%
X161300000Y-111925000D03*
X161300000Y-113575000D03*
%TD*%
D12*
%TO.C,C14*%
X171850000Y-116250000D03*
X170300000Y-116250000D03*
%TD*%
D14*
%TO.C,R27*%
X138975000Y-113250000D03*
X140625000Y-113250000D03*
%TD*%
D29*
%TO.C,R10*%
X190087500Y-108750000D03*
X193012500Y-108750000D03*
%TD*%
D18*
%TO.C,C5*%
X185810000Y-123450000D03*
X185810000Y-125000000D03*
%TD*%
D14*
%TO.C,R19*%
X169475000Y-103156200D03*
X171125000Y-103156200D03*
%TD*%
D41*
%TO.C,D2*%
X187650000Y-115500000D03*
X191950000Y-115500000D03*
%TD*%
D11*
%TO.C,C10*%
X186525000Y-108000000D03*
X188075000Y-108000000D03*
%TD*%
D39*
%TO.C,D5*%
X148050000Y-122775000D03*
X148050000Y-124875000D03*
%TD*%
D16*
%TO.C,R30*%
X149050000Y-113500000D03*
X149050000Y-115150000D03*
%TD*%
%TO.C,R22*%
X151050000Y-113500000D03*
X151050000Y-115150000D03*
%TD*%
D18*
%TO.C,C33*%
X166500000Y-133450000D03*
X166500000Y-135000000D03*
%TD*%
D12*
%TO.C,C41*%
X169575000Y-140000000D03*
X168025000Y-140000000D03*
%TD*%
D11*
%TO.C,C32*%
X184525000Y-138000000D03*
X186075000Y-138000000D03*
%TD*%
D23*
%TO.C,R32*%
X149550000Y-135150000D03*
X149550000Y-133500000D03*
%TD*%
D43*
%TO.C,R15*%
X140837500Y-103750000D03*
X146762500Y-103750000D03*
%TD*%
D14*
%TO.C,R14*%
X170000000Y-121000000D03*
X171650000Y-121000000D03*
%TD*%
D23*
%TO.C,R35*%
X156050000Y-133150000D03*
X156050000Y-131500000D03*
%TD*%
D12*
%TO.C,C16*%
X143575000Y-110250000D03*
X142025000Y-110250000D03*
%TD*%
D15*
%TO.C,U4*%
X172959900Y-103230000D03*
X172959900Y-105770000D03*
X179640100Y-105770000D03*
X179640100Y-103230000D03*
%TD*%
D44*
%TO.C,D10*%
X169350000Y-125975000D03*
X167250000Y-125975000D03*
%TD*%
D45*
%TO.C,U9*%
X170959700Y-136100001D03*
X170959700Y-136750000D03*
X170959700Y-137399999D03*
X173140300Y-137399999D03*
X173140300Y-136750000D03*
X173140300Y-136100001D03*
%TD*%
D31*
%TO.C,Q2*%
X184050000Y-128225000D03*
X184050000Y-128875240D03*
X184050000Y-129525480D03*
X184050000Y-130175720D03*
D32*
X184866420Y-130798250D03*
D33*
X185476020Y-129980402D03*
D34*
X186089620Y-130805640D03*
D31*
X186910040Y-130175720D03*
D35*
X186720020Y-128875370D03*
D31*
X186910040Y-129525480D03*
D36*
X186916680Y-128879850D03*
D31*
X186910040Y-128225000D03*
D37*
X185478015Y-128420275D03*
D34*
X186089620Y-127595080D03*
D38*
X184871420Y-127597470D03*
%TD*%
D11*
%TO.C,C40*%
X168275000Y-147250000D03*
X169825000Y-147250000D03*
%TD*%
D18*
%TO.C,C43*%
X163800000Y-114975000D03*
X163800000Y-116525000D03*
%TD*%
D46*
%TO.C,D9*%
X167250000Y-128475000D03*
X169350000Y-128475000D03*
%TD*%
D16*
%TO.C,R26*%
X154050000Y-113500000D03*
X154050000Y-115150000D03*
%TD*%
D11*
%TO.C,C30*%
X184525000Y-135000000D03*
X186075000Y-135000000D03*
%TD*%
D12*
%TO.C,C29*%
X147825000Y-147175000D03*
X146275000Y-147175000D03*
%TD*%
D11*
%TO.C,C22*%
X148025000Y-131825000D03*
X149575000Y-131825000D03*
%TD*%
D23*
%TO.C,R43*%
X142800000Y-143500000D03*
X142800000Y-141850000D03*
%TD*%
D18*
%TO.C,C9*%
X183550000Y-104975000D03*
X183550000Y-106525000D03*
%TD*%
D24*
%TO.C,R12*%
X180550000Y-116787500D03*
X180550000Y-122712500D03*
%TD*%
D14*
%TO.C,R20*%
X169475000Y-114406200D03*
X171125000Y-114406200D03*
%TD*%
%TO.C,R51*%
X175975000Y-143750000D03*
X177625000Y-143750000D03*
%TD*%
D16*
%TO.C,R25*%
X146050000Y-122500000D03*
X146050000Y-124150000D03*
%TD*%
%TO.C,R57*%
X163300000Y-111925000D03*
X163300000Y-113575000D03*
%TD*%
D17*
%TO.C,R6*%
X190125000Y-129250000D03*
X188475000Y-129250000D03*
%TD*%
D47*
%TO.C,U7*%
X153525000Y-130712500D03*
X152875000Y-130712500D03*
X152225000Y-130712500D03*
X151575000Y-130712500D03*
X151575000Y-134937500D03*
X152225000Y-134937500D03*
X152875000Y-134937500D03*
X153525000Y-134937500D03*
%TD*%
M02*
