M48
; DRILL file {KiCad 9.0.6} date 2026-03-22T16:52:57-0400
; FORMAT={-:-/ absolute / inch / decimal}
; #@! TF.CreationDate,2026-03-22T16:52:57-04:00
; #@! TF.GenerationSoftware,Kicad,Pcbnew,9.0.6
; #@! TF.FileFunction,Plated,1,2,PTH
FMAT,2
INCH
; #@! TA.AperFunction,Plated,PTH,ViaDrill
T1C0.0118
; #@! TA.AperFunction,Plated,PTH,ComponentDrill
T2C0.0157
; #@! TA.AperFunction,Plated,PTH,ComponentDrill
T3C0.0236
; #@! TA.AperFunction,Plated,PTH,ComponentDrill
T4C0.0394
%
G90
G05
T1
X1.8701Y-6.5551
X1.874Y-6.7264
X1.8819Y-6.8583
X1.9262Y-7.0305
X1.9567Y-6.6004
X1.9567Y-6.7913
X1.9685Y-4.002
X1.9764Y-6.4724
X1.9776Y-4.1331
X1.9776Y-4.2331
X1.9776Y-4.3331
X1.9776Y-4.4331
X1.9776Y-4.5331
X1.9776Y-4.6331
X1.9776Y-5.9331
X1.9872Y-7.0305
X2.0256Y-6.6575
X2.0457Y-6.0886
X2.0768Y-4.002
X2.0776Y-4.1331
X2.0776Y-4.2331
X2.0776Y-4.3331
X2.0776Y-4.4331
X2.0776Y-4.5331
X2.0776Y-4.6331
X2.0776Y-4.7331
X2.0787Y-6.9705
X2.0807Y-6.2378
X2.124Y-5.1949
X2.1496Y-5.6693
X2.1624Y-7.0344
X2.1654Y-6.0827
X2.1776Y-6.7331
X2.1776Y-6.8331
X2.216Y-6.2952
X2.2455Y-6.2958
X2.2673Y-6.276
X2.2756Y-6.0571
X2.2776Y-6.6331
X2.2992Y-6.9508
X2.3169Y-6.252
X2.3268Y-4.0098
X2.3307Y-6.8858
X2.3366Y-4.3465
X2.3622Y-6.4961
X2.372Y-6.1919
X2.4124Y-6.811
X2.4162Y-5.6476
X2.4162Y-5.7067
X2.4162Y-5.7756
X2.4162Y-5.8445
X2.4162Y-5.9232
X2.4171Y-6.0344
X2.4213Y-5.2323
X2.4449Y-6.9624
X2.4459Y-6.4833
X2.4646Y-5.5276
X2.4705Y-4.0079
X2.4753Y-5.6476
X2.4753Y-5.9232
X2.4776Y-4.1331
X2.4776Y-4.5331
X2.4776Y-4.6331
X2.4776Y-4.7331
X2.4776Y-4.8331
X2.4776Y-4.9331
X2.4776Y-5.0331
X2.4776Y-5.1331
X2.4776Y-6.6331
X2.4921Y-5.3583
X2.4961Y-6.1949
X2.498Y-6.4646
X2.5Y-5.4646
X2.5Y-5.563
X2.5128Y-6.4035
X2.5251Y-6.2072
X2.5314Y-6.2501
X2.5344Y-5.6476
X2.5344Y-5.9232
X2.5512Y-6.2776
X2.5685Y-6.1768
X2.5748Y-5.3307
X2.5748Y-6.1417
X2.5776Y-4.1331
X2.5776Y-4.2331
X2.5776Y-4.6331
X2.5776Y-4.7331
X2.5776Y-4.8331
X2.5776Y-4.9331
X2.5776Y-5.0331
X2.5776Y-5.1331
X2.5776Y-6.8331
X2.5776Y-6.9331
X2.5787Y-4.0098
X2.5827Y-5.5276
X2.5934Y-5.6476
X2.5934Y-5.9232
X2.5945Y-5.4331
X2.5977Y-6.0286
X2.6024Y-5.1969
X2.6142Y-5.9528
X2.6299Y-5.3504
X2.6299Y-5.5709
X2.6299Y-5.9764
X2.6299Y-6.7165
X2.6339Y-6.2362
X2.649Y-6.3799
X2.6496Y-6.4318
X2.6525Y-5.6476
X2.6525Y-5.7067
X2.6525Y-5.7657
X2.6535Y-5.4843
X2.6536Y-6.3287
X2.656Y-6.036
X2.6654Y-6.4872
X2.6732Y-6.3031
X2.6732Y-6.3543
X2.6732Y-6.4055
X2.6732Y-6.4567
X2.6752Y-6.9862
X2.6776Y-4.7331
X2.6776Y-4.8331
X2.6776Y-4.9331
X2.6776Y-5.0331
X2.6776Y-5.1331
X2.6776Y-6.8331
X2.6811Y-5.8031
X2.6831Y-6.0477
X2.685Y-4.3976
X2.6998Y-6.1526
X2.7151Y-6.6604
X2.7264Y-7.0354
X2.7283Y-5.4331
X2.7283Y-5.5394
X2.7323Y-5.6299
X2.7323Y-6.7598
X2.7441Y-5.8031
X2.748Y-5.3622
X2.752Y-5.2264
X2.7559Y-5.8425
X2.7628Y-5.9262
X2.7638Y-4.0098
X2.7657Y-6.2756
X2.7677Y-6.1535
X2.7766Y-6.8701
X2.7776Y-4.8331
X2.7776Y-4.9331
X2.7776Y-5.0331
X2.7806Y-6.6448
X2.7825Y-5.3091
X2.7913Y-6.5945
X2.7972Y-4.2618
X2.7989Y-5.9767
X2.7992Y-6.2559
X2.8022Y-5.1437
X2.8022Y-5.6535
X2.8031Y-6.0079
X2.8209Y-6.6181
X2.8366Y-6.2027
X2.8366Y-6.5384
X2.8366Y-6.5925
X2.8446Y-6.2311
X2.9094Y-6.9695
X2.9154Y-6.065
X2.9232Y-6.1476
X2.9587Y-6.1693
X2.9605Y-6.2394
X2.9776Y-4.0331
X2.9776Y-4.1331
X2.9776Y-4.2331
X2.9776Y-4.3331
X2.9776Y-4.4331
X2.9776Y-6.6331
X3.0039Y-6.5276
X3.0295Y-4.5394
X3.0571Y-5.0512
X3.0776Y-4.0331
X3.0776Y-4.1331
X3.0776Y-4.2331
X3.0776Y-4.3331
X3.0776Y-4.4331
X3.0776Y-6.9331
X3.0866Y-6.7392
X3.114Y-6.4061
X3.1201Y-4.9626
X3.1476Y-6.0394
X3.1496Y-4.9331
X3.1496Y-5.875
X3.1496Y-5.9754
X3.1501Y-6.4102
X3.1535Y-6.1799
X3.1541Y-5.0026
X3.1555Y-5.6614
X3.1604Y-6.5472
X3.1634Y-6.5039
X3.1634Y-6.5906
X3.1653Y-6.0827
X3.1772Y-6.7362
X3.1776Y-4.0331
X3.1776Y-6.8331
X3.1776Y-6.9331
X3.1791Y-4.9055
X3.187Y-6.4095
X3.2776Y-6.7331
X3.2776Y-6.8331
X3.2776Y-6.9331
X3.2776Y-7.0331
X3.2854Y-6.5039
X3.2854Y-6.5472
X3.2854Y-6.5906
T2
X2.9754Y-6.7372
X2.9754Y-6.7707
X2.9754Y-6.8041
X2.9754Y-6.8376
X2.9754Y-6.8711
X2.9754Y-6.9045
X2.9754Y-6.938
X2.9754Y-6.9715
X3.0285Y-6.7372
X3.0285Y-6.7707
X3.0285Y-6.8041
X3.0285Y-6.8376
X3.0285Y-6.8711
X3.0285Y-6.9045
X3.0285Y-6.938
X3.0285Y-6.9715
T4
X1.8799Y-4.0748
X1.8799Y-4.1748
X1.8799Y-4.2748
X1.8799Y-4.3748
X1.8799Y-4.4748
X1.8799Y-4.5748
X1.8799Y-4.6748
X1.8799Y-4.7748
X1.8799Y-4.8748
X1.8799Y-4.9748
X1.8799Y-5.0748
X1.8799Y-5.1748
X1.8799Y-5.2748
X1.8799Y-5.3748
X1.8799Y-5.4748
X1.8799Y-5.5748
X1.8799Y-5.6748
X1.8799Y-5.7748
X1.8799Y-5.8748
X1.8799Y-5.9748
X1.8799Y-6.0748
X1.8799Y-6.1748
X1.8799Y-6.2748
X1.8799Y-6.3748
X2.2126Y-4.0093
X2.2126Y-4.1093
X2.2126Y-4.2093
X2.2126Y-4.3093
X2.2126Y-4.4093
X2.2126Y-4.5093
X2.2126Y-4.6093
X2.2126Y-4.7093
X2.2126Y-4.8093
X2.2126Y-4.9093
X2.2126Y-5.0093
X2.2126Y-5.1093
X2.2126Y-5.2093
X2.2126Y-5.3093
X2.2126Y-5.4093
X2.2126Y-5.5093
X2.2126Y-5.6093
X2.2126Y-5.7093
X2.2126Y-5.8093
X2.2126Y-5.9093
X2.9126Y-4.0093
X2.9126Y-4.1093
X2.9126Y-4.2093
X2.9126Y-4.3093
X2.9126Y-4.4093
X2.9126Y-4.5093
X2.9126Y-4.6093
X2.9126Y-4.7093
X2.9126Y-4.8093
X2.9126Y-4.9093
X2.9126Y-5.0093
X2.9126Y-5.1093
X2.9126Y-5.2093
X2.9126Y-5.3093
X2.9126Y-5.4093
X2.9126Y-5.5093
X2.9126Y-5.6093
X2.9126Y-5.7093
X2.9126Y-5.8093
X2.9126Y-5.9093
X3.2579Y-4.0748
X3.2579Y-4.1748
X3.2579Y-4.2748
X3.2579Y-4.3748
X3.2579Y-4.4748
X3.2579Y-4.5748
X3.2579Y-4.6748
X3.2579Y-4.7748
X3.2579Y-4.8748
X3.2579Y-4.9748
X3.2579Y-5.0748
X3.2579Y-5.1748
X3.2579Y-5.2748
X3.2579Y-5.3748
X3.2579Y-5.4748
X3.2579Y-5.5748
X3.2579Y-5.6748
X3.2579Y-5.7748
X3.2579Y-5.8748
X3.2579Y-5.9748
X3.2579Y-6.0748
X3.2579Y-6.1748
X3.2579Y-6.2748
X3.2579Y-6.3748
T3
G00X2.9844Y-6.6841
M15
G01X3.0435Y-6.6841
M16
G05
G00X2.9844Y-7.0246
M15
G01X3.0435Y-7.0246
M16
G05
G00X3.1313Y-6.6841
M15
G01X3.1628Y-6.6841
M16
G05
G00X3.1313Y-7.0246
M15
G01X3.1628Y-7.0246
M16
G05
M30
