M48
; DRILL file KiCad 10.0.1 date 2026-06-22T11:47:29
; FORMAT={-:-/ absolute / metric / decimal}
; #@! TF.CreationDate,2026-06-22T11:47:29-04:00
; #@! TF.GenerationSoftware,Kicad,Pcbnew,10.0.1
; #@! TF.FileFunction,NonPlated,1,2,NPTH
FMAT,2
METRIC
; #@! TA.AperFunction,NonPlated,NPTH,ComponentDrill
T1C0.500
; #@! TA.AperFunction,NonPlated,NPTH,ComponentDrill
T2C1.200
; #@! TA.AperFunction,NonPlated,NPTH,ComponentDrill
T3C2.200
%
G90
G05
T1
X81.2Y-148.88
X81.2Y-153.88
X81.45Y-78.78
X81.45Y-83.78
X81.95Y-148.88
X81.95Y-153.88
X82.2Y-78.78
X82.2Y-83.78
X82.7Y-148.88
X82.7Y-153.88
X82.95Y-78.78
X82.95Y-83.78
X83.45Y-148.88
X83.45Y-153.88
X83.7Y-78.78
X83.7Y-83.78
X84.2Y-148.88
X84.2Y-153.88
X84.45Y-78.78
X84.45Y-83.78
X84.95Y-148.88
X84.95Y-153.88
X85.2Y-78.78
X85.2Y-83.78
X85.7Y-148.88
X85.7Y-153.88
X85.95Y-78.78
X85.95Y-83.78
X86.45Y-148.88
X86.45Y-153.88
X86.7Y-78.78
X86.7Y-83.78
X87.2Y-148.88
X87.2Y-153.88
X87.45Y-78.78
X87.45Y-83.78
X87.95Y-148.88
X87.95Y-153.88
X88.2Y-78.78
X88.2Y-83.78
X88.7Y-148.88
X88.7Y-153.88
X88.95Y-78.78
X88.95Y-83.78
X99.2Y-148.88
X99.2Y-153.88
X99.45Y-78.78
X99.45Y-83.78
X99.95Y-148.88
X99.95Y-153.88
X100.2Y-78.78
X100.2Y-83.78
X100.7Y-148.88
X100.7Y-153.88
X100.95Y-78.78
X100.95Y-83.78
X101.45Y-148.88
X101.45Y-153.88
X101.7Y-78.78
X101.7Y-83.78
X102.2Y-148.88
X102.2Y-153.88
X102.45Y-78.78
X102.45Y-83.78
X102.95Y-148.88
X102.95Y-153.88
X103.2Y-78.78
X103.2Y-83.78
X103.7Y-148.88
X103.7Y-153.88
X103.95Y-78.78
X103.95Y-83.78
X104.45Y-148.88
X104.45Y-153.88
X104.7Y-78.78
X104.7Y-83.78
X105.2Y-148.88
X105.2Y-153.88
X105.45Y-78.78
X105.45Y-83.78
X105.95Y-148.88
X105.95Y-153.88
X106.2Y-78.78
X106.2Y-83.78
X106.7Y-148.88
X106.7Y-153.88
X106.95Y-78.78
X106.95Y-83.78
X113.85Y-170.325
X113.85Y-171.075
X113.85Y-171.825
X113.85Y-172.575
X113.85Y-173.325
X113.85Y-174.075
X113.85Y-174.825
X113.85Y-175.575
X113.85Y-176.325
X113.85Y-177.075
X113.85Y-177.825
X114.0Y-22.0
X114.0Y-22.75
X114.0Y-23.5
X114.0Y-24.25
X114.0Y-25.0
X114.0Y-25.75
X114.0Y-26.5
X114.0Y-27.25
X114.0Y-28.0
X114.0Y-28.75
X114.0Y-29.5
X114.0Y-42.0
X114.0Y-42.75
X114.0Y-43.5
X114.0Y-44.25
X114.0Y-45.0
X114.0Y-45.75
X114.0Y-46.5
X114.0Y-47.25
X114.0Y-48.0
X114.0Y-48.75
X114.0Y-49.5
X114.0Y-64.25
X114.0Y-65.0
X114.0Y-65.75
X114.0Y-66.5
X114.0Y-67.25
X114.0Y-68.0
X114.0Y-68.75
X114.0Y-69.5
X114.0Y-70.25
X114.0Y-71.0
X114.0Y-71.75
X114.05Y-109.25
X114.05Y-110.0
X114.05Y-110.75
X114.05Y-111.5
X114.05Y-112.25
X114.05Y-113.0
X114.05Y-113.75
X114.05Y-114.5
X114.05Y-115.25
X114.05Y-116.0
X114.05Y-116.75
X114.05Y-134.25
X114.05Y-135.0
X114.05Y-135.75
X114.05Y-136.5
X114.05Y-137.25
X114.05Y-138.0
X114.05Y-138.75
X114.05Y-139.5
X114.05Y-140.25
X114.05Y-141.0
X114.05Y-141.75
X118.85Y-170.325
X118.85Y-171.075
X118.85Y-171.825
X118.85Y-172.575
X118.85Y-173.325
X118.85Y-174.075
X118.85Y-174.825
X118.85Y-175.575
X118.85Y-176.325
X118.85Y-177.075
X118.85Y-177.825
X119.0Y-22.0
X119.0Y-22.75
X119.0Y-23.5
X119.0Y-24.25
X119.0Y-25.0
X119.0Y-25.75
X119.0Y-26.5
X119.0Y-27.25
X119.0Y-28.0
X119.0Y-28.75
X119.0Y-29.5
X119.0Y-42.0
X119.0Y-42.75
X119.0Y-43.5
X119.0Y-44.25
X119.0Y-45.0
X119.0Y-45.75
X119.0Y-46.5
X119.0Y-47.25
X119.0Y-48.0
X119.0Y-48.75
X119.0Y-49.5
X119.0Y-64.25
X119.0Y-65.0
X119.0Y-65.75
X119.0Y-66.5
X119.0Y-67.25
X119.0Y-68.0
X119.0Y-68.75
X119.0Y-69.5
X119.0Y-70.25
X119.0Y-71.0
X119.0Y-71.75
X119.05Y-109.25
X119.05Y-110.0
X119.05Y-110.75
X119.05Y-111.5
X119.05Y-112.25
X119.05Y-113.0
X119.05Y-113.75
X119.05Y-114.5
X119.05Y-115.25
X119.05Y-116.0
X119.05Y-116.75
X119.05Y-134.25
X119.05Y-135.0
X119.05Y-135.75
X119.05Y-136.5
X119.05Y-137.25
X119.05Y-138.0
X119.05Y-138.75
X119.05Y-139.5
X119.05Y-140.25
X119.05Y-141.0
X119.05Y-141.75
X126.325Y-93.55
X126.325Y-98.55
X126.325Y-148.625
X126.325Y-153.625
X127.075Y-93.55
X127.075Y-98.55
X127.075Y-148.625
X127.075Y-153.625
X127.825Y-93.55
X127.825Y-98.55
X127.825Y-148.625
X127.825Y-153.625
X128.575Y-93.55
X128.575Y-98.55
X128.575Y-148.625
X128.575Y-153.625
X129.325Y-93.55
X129.325Y-98.55
X129.325Y-148.625
X129.325Y-153.625
X130.075Y-93.55
X130.075Y-98.55
X130.075Y-148.625
X130.075Y-153.625
X130.825Y-93.55
X130.825Y-98.55
X130.825Y-148.625
X130.825Y-153.625
X131.575Y-93.55
X131.575Y-98.55
X131.575Y-148.625
X131.575Y-153.625
X132.325Y-93.55
X132.325Y-98.55
X132.325Y-148.625
X132.325Y-153.625
X133.075Y-93.55
X133.075Y-98.55
X133.075Y-148.625
X133.075Y-153.625
X133.825Y-93.55
X133.825Y-98.55
X133.825Y-148.625
X133.825Y-153.625
X144.325Y-93.55
X144.325Y-98.55
X144.325Y-148.625
X144.325Y-153.625
X145.075Y-93.55
X145.075Y-98.55
X145.075Y-148.625
X145.075Y-153.625
X145.825Y-93.55
X145.825Y-98.55
X145.825Y-148.625
X145.825Y-153.625
X146.575Y-93.55
X146.575Y-98.55
X146.575Y-148.625
X146.575Y-153.625
X147.325Y-93.55
X147.325Y-98.55
X147.325Y-148.625
X147.325Y-153.625
X148.075Y-93.55
X148.075Y-98.55
X148.075Y-148.625
X148.075Y-153.625
X148.825Y-93.55
X148.825Y-98.55
X148.825Y-148.625
X148.825Y-153.625
X149.575Y-93.55
X149.575Y-98.55
X149.575Y-148.625
X149.575Y-153.625
X150.325Y-93.55
X150.325Y-98.55
X150.325Y-148.625
X150.325Y-153.625
X151.075Y-93.55
X151.075Y-98.55
X151.075Y-148.625
X151.075Y-153.625
X151.825Y-93.55
X151.825Y-98.55
X151.825Y-148.625
X151.825Y-153.625
T2
X103.159Y-90.13
T3
X76.87Y-160.95
X76.87Y-184.95
X76.95Y-34.25
X76.95Y-58.25
X76.959Y-113.33
X76.959Y-137.33
X110.87Y-160.95
X110.875Y-184.93
X110.95Y-34.25
X110.95Y-58.25
X110.954Y-113.35
X110.954Y-137.35
X121.868Y-159.671
X121.868Y-183.671
X122.03Y-34.038
X122.03Y-58.038
X122.075Y-104.1
X122.075Y-128.1
X155.868Y-159.671
X155.873Y-183.65
X156.03Y-34.038
X156.035Y-58.017
X156.075Y-104.1
X156.075Y-128.1
M30
