%TF.GenerationSoftware,KiCad,Pcbnew,9.0.6*%
%TF.CreationDate,2026-03-18T15:19:40-04:00*%
%TF.ProjectId,CONTROL,434f4e54-524f-44c2-9e6b-696361645f70,rev?*%
%TF.SameCoordinates,Original*%
%TF.FileFunction,Paste,Top*%
%TF.FilePolarity,Positive*%
%FSLAX46Y46*%
G04 Gerber Fmt 4.6, Leading zero omitted, Abs format (unit mm)*
G04 Created by KiCad (PCBNEW 9.0.6) date 2026-03-18 15:19:40*
%MOMM*%
%LPD*%
G01*
G04 APERTURE LIST*
G04 Aperture macros list*
%AMRoundRect*
0 Rectangle with rounded corners*
0 $1 Rounding radius*
0 $2 $3 $4 $5 $6 $7 $8 $9 X,Y pos of 4 corners*
0 Add a 4 corners polygon primitive as box body*
4,1,4,$2,$3,$4,$5,$6,$7,$8,$9,$2,$3,0*
0 Add four circle primitives for the rounded corners*
1,1,$1+$1,$2,$3*
1,1,$1+$1,$4,$5*
1,1,$1+$1,$6,$7*
1,1,$1+$1,$8,$9*
0 Add four rect primitives between the rounded corners*
20,1,$1+$1,$2,$3,$4,$5,0*
20,1,$1+$1,$4,$5,$6,$7,0*
20,1,$1+$1,$6,$7,$8,$9,0*
20,1,$1+$1,$8,$9,$2,$3,0*%
G04 Aperture macros list end*
%ADD10RoundRect,0.140000X-0.140000X-0.170000X0.140000X-0.170000X0.140000X0.170000X-0.140000X0.170000X0*%
%ADD11RoundRect,0.200000X0.200000X0.275000X-0.200000X0.275000X-0.200000X-0.275000X0.200000X-0.275000X0*%
%ADD12RoundRect,0.200000X-0.200000X-0.275000X0.200000X-0.275000X0.200000X0.275000X-0.200000X0.275000X0*%
%ADD13R,1.750000X0.700000*%
%ADD14R,1.550000X1.000000*%
%ADD15R,1.000000X1.450000*%
%ADD16R,1.500000X1.500000*%
%ADD17R,1.500000X1.300000*%
%ADD18R,1.400000X0.800000*%
%ADD19R,1.500000X0.800000*%
%ADD20R,1.800000X2.200000*%
%ADD21R,1.800000X1.100000*%
%ADD22RoundRect,0.225000X0.225000X0.250000X-0.225000X0.250000X-0.225000X-0.250000X0.225000X-0.250000X0*%
%ADD23RoundRect,0.225000X-0.225000X-0.250000X0.225000X-0.250000X0.225000X0.250000X-0.225000X0.250000X0*%
%ADD24R,1.300000X0.700000*%
%ADD25RoundRect,0.250000X0.450000X0.350000X-0.450000X0.350000X-0.450000X-0.350000X0.450000X-0.350000X0*%
%ADD26RoundRect,0.075000X-0.075000X0.700000X-0.075000X-0.700000X0.075000X-0.700000X0.075000X0.700000X0*%
%ADD27RoundRect,0.075000X-0.700000X0.075000X-0.700000X-0.075000X0.700000X-0.075000X0.700000X0.075000X0*%
%ADD28R,1.000000X1.300000*%
%ADD29R,1.000000X0.500000*%
G04 APERTURE END LIST*
D10*
%TO.C,C14*%
X67020000Y-143340000D03*
X67980000Y-143340000D03*
%TD*%
%TO.C,C13*%
X67020000Y-145040000D03*
X67980000Y-145040000D03*
%TD*%
D11*
%TO.C,R13*%
X53610000Y-154650000D03*
X51960000Y-154650000D03*
%TD*%
D12*
%TO.C,R1*%
X71125000Y-173250000D03*
X72775000Y-173250000D03*
%TD*%
D13*
%TO.C,J3*%
X47600000Y-174175000D03*
X47600000Y-173075000D03*
X47600000Y-171975000D03*
X47600000Y-170875000D03*
X47600000Y-169775000D03*
X47600000Y-168675000D03*
X47600000Y-167575000D03*
X47600000Y-166475000D03*
D14*
X58400000Y-176550000D03*
D15*
X56825000Y-165350000D03*
D16*
X47725000Y-176625000D03*
D17*
X47725000Y-165275000D03*
D18*
X55975000Y-176950000D03*
D19*
X55325000Y-165025000D03*
%TD*%
D11*
%TO.C,R7*%
X62925000Y-173000000D03*
X61275000Y-173000000D03*
%TD*%
D20*
%TO.C,D3*%
X52850000Y-158440000D03*
D21*
X52850000Y-156200000D03*
%TD*%
D22*
%TO.C,C15*%
X50475000Y-178575000D03*
X48925000Y-178575000D03*
%TD*%
D23*
%TO.C,C12*%
X63825000Y-140290000D03*
X65375000Y-140290000D03*
%TD*%
D24*
%TO.C,D2*%
X83450000Y-167400000D03*
X83450000Y-166300000D03*
X83450000Y-165200000D03*
X80350000Y-165200000D03*
X80350000Y-166300000D03*
X80350000Y-167400000D03*
%TD*%
D23*
%TO.C,C11*%
X67075000Y-140290000D03*
X68625000Y-140290000D03*
%TD*%
D25*
%TO.C,Y1*%
X66450000Y-136690000D03*
X64250000Y-136690000D03*
X64250000Y-138390000D03*
X66450000Y-138390000D03*
%TD*%
D26*
%TO.C,U1*%
X71550000Y-154725000D03*
X71050000Y-154725000D03*
X70550000Y-154725000D03*
X70050000Y-154725000D03*
X69550000Y-154725000D03*
X69050000Y-154725000D03*
X68550000Y-154725000D03*
X68050000Y-154725000D03*
X67550000Y-154725000D03*
X67050000Y-154725000D03*
X66550000Y-154725000D03*
X66050000Y-154725000D03*
X65550000Y-154725000D03*
X65050000Y-154725000D03*
X64550000Y-154725000D03*
X64050000Y-154725000D03*
D27*
X62125000Y-156650000D03*
X62125000Y-157150000D03*
X62125000Y-157650000D03*
X62125000Y-158150000D03*
X62125000Y-158650000D03*
X62125000Y-159150000D03*
X62125000Y-159650000D03*
X62125000Y-160150000D03*
X62125000Y-160650000D03*
X62125000Y-161150000D03*
X62125000Y-161650000D03*
X62125000Y-162150000D03*
X62125000Y-162650000D03*
X62125000Y-163150000D03*
X62125000Y-163650000D03*
X62125000Y-164150000D03*
D26*
X64050000Y-166075000D03*
X64550000Y-166075000D03*
X65050000Y-166075000D03*
X65550000Y-166075000D03*
X66050000Y-166075000D03*
X66550000Y-166075000D03*
X67050000Y-166075000D03*
X67550000Y-166075000D03*
X68050000Y-166075000D03*
X68550000Y-166075000D03*
X69050000Y-166075000D03*
X69550000Y-166075000D03*
X70050000Y-166075000D03*
X70550000Y-166075000D03*
X71050000Y-166075000D03*
X71550000Y-166075000D03*
D27*
X73475000Y-164150000D03*
X73475000Y-163650000D03*
X73475000Y-163150000D03*
X73475000Y-162650000D03*
X73475000Y-162150000D03*
X73475000Y-161650000D03*
X73475000Y-161150000D03*
X73475000Y-160650000D03*
X73475000Y-160150000D03*
X73475000Y-159650000D03*
X73475000Y-159150000D03*
X73475000Y-158650000D03*
X73475000Y-158150000D03*
X73475000Y-157650000D03*
X73475000Y-157150000D03*
X73475000Y-156650000D03*
%TD*%
D23*
%TO.C,C16*%
X54925000Y-178675000D03*
X56475000Y-178675000D03*
%TD*%
D28*
%TO.C,SW1*%
X67950000Y-177450000D03*
X69700000Y-173550000D03*
X71450000Y-177450000D03*
%TD*%
D29*
%TO.C,Y2*%
X65350000Y-144760000D03*
X65350000Y-143660000D03*
%TD*%
D20*
%TO.C,D1*%
X62100000Y-176845000D03*
D21*
X62100000Y-174605000D03*
%TD*%
M02*
