%TF.GenerationSoftware,KiCad,Pcbnew,9.0.6*%
%TF.CreationDate,2026-03-18T15:19:39-04:00*%
%TF.ProjectId,CONTROL,434f4e54-524f-44c2-9e6b-696361645f70,rev?*%
%TF.SameCoordinates,Original*%
%TF.FileFunction,Copper,L1,Top*%
%TF.FilePolarity,Positive*%
%FSLAX46Y46*%
G04 Gerber Fmt 4.6, Leading zero omitted, Abs format (unit mm)*
G04 Created by KiCad (PCBNEW 9.0.6) date 2026-03-18 15:19:39*
%MOMM*%
%LPD*%
G01*
G04 APERTURE LIST*
G04 Aperture macros list*
%AMRoundRect*
0 Rectangle with rounded corners*
0 $1 Rounding radius*
0 $2 $3 $4 $5 $6 $7 $8 $9 X,Y pos of 4 corners*
0 Add a 4 corners polygon primitive as box body*
4,1,4,$2,$3,$4,$5,$6,$7,$8,$9,$2,$3,0*
0 Add four circle primitives for the rounded corners*
1,1,$1+$1,$2,$3*
1,1,$1+$1,$4,$5*
1,1,$1+$1,$6,$7*
1,1,$1+$1,$8,$9*
0 Add four rect primitives between the rounded corners*
20,1,$1+$1,$2,$3,$4,$5,0*
20,1,$1+$1,$4,$5,$6,$7,0*
20,1,$1+$1,$6,$7,$8,$9,0*
20,1,$1+$1,$8,$9,$2,$3,0*%
%AMFreePoly0*
4,1,37,0.603843,0.796157,0.639018,0.796157,0.711114,0.766294,0.766294,0.711114,0.796157,0.639018,0.796157,0.603843,0.800000,0.600000,0.800000,-0.600000,0.796157,-0.603843,0.796157,-0.639018,0.766294,-0.711114,0.711114,-0.766294,0.639018,-0.796157,0.603843,-0.796157,0.600000,-0.800000,0.000000,-0.800000,0.000000,-0.796148,-0.078414,-0.796148,-0.232228,-0.765552,-0.377117,-0.705537,
-0.507515,-0.618408,-0.618408,-0.507515,-0.705537,-0.377117,-0.765552,-0.232228,-0.796148,-0.078414,-0.796148,0.078414,-0.765552,0.232228,-0.705537,0.377117,-0.618408,0.507515,-0.507515,0.618408,-0.377117,0.705537,-0.232228,0.765552,-0.078414,0.796148,0.000000,0.796148,0.000000,0.800000,0.600000,0.800000,0.603843,0.796157,0.603843,0.796157,$1*%
%AMFreePoly1*
4,1,37,0.000000,0.796148,0.078414,0.796148,0.232228,0.765552,0.377117,0.705537,0.507515,0.618408,0.618408,0.507515,0.705537,0.377117,0.765552,0.232228,0.796148,0.078414,0.796148,-0.078414,0.765552,-0.232228,0.705537,-0.377117,0.618408,-0.507515,0.507515,-0.618408,0.377117,-0.705537,0.232228,-0.765552,0.078414,-0.796148,0.000000,-0.796148,0.000000,-0.800000,-0.600000,-0.800000,
-0.603843,-0.796157,-0.639018,-0.796157,-0.711114,-0.766294,-0.766294,-0.711114,-0.796157,-0.639018,-0.796157,-0.603843,-0.800000,-0.600000,-0.800000,0.600000,-0.796157,0.603843,-0.796157,0.639018,-0.766294,0.711114,-0.711114,0.766294,-0.639018,0.796157,-0.603843,0.796157,-0.600000,0.800000,0.000000,0.800000,0.000000,0.796148,0.000000,0.796148,$1*%
G04 Aperture macros list end*
%TA.AperFunction,SMDPad,CuDef*%
%ADD10RoundRect,0.140000X-0.140000X-0.170000X0.140000X-0.170000X0.140000X0.170000X-0.140000X0.170000X0*%
%TD*%
%TA.AperFunction,SMDPad,CuDef*%
%ADD11RoundRect,0.200000X0.200000X0.275000X-0.200000X0.275000X-0.200000X-0.275000X0.200000X-0.275000X0*%
%TD*%
%TA.AperFunction,SMDPad,CuDef*%
%ADD12RoundRect,0.200000X-0.200000X-0.275000X0.200000X-0.275000X0.200000X0.275000X-0.200000X0.275000X0*%
%TD*%
%TA.AperFunction,ComponentPad*%
%ADD13R,1.700000X1.700000*%
%TD*%
%TA.AperFunction,ComponentPad*%
%ADD14C,1.700000*%
%TD*%
%TA.AperFunction,SMDPad,CuDef*%
%ADD15R,1.750000X0.700000*%
%TD*%
%TA.AperFunction,SMDPad,CuDef*%
%ADD16R,1.550000X1.000000*%
%TD*%
%TA.AperFunction,SMDPad,CuDef*%
%ADD17R,1.000000X1.450000*%
%TD*%
%TA.AperFunction,SMDPad,CuDef*%
%ADD18R,1.500000X1.500000*%
%TD*%
%TA.AperFunction,SMDPad,CuDef*%
%ADD19R,1.500000X1.300000*%
%TD*%
%TA.AperFunction,SMDPad,CuDef*%
%ADD20R,1.400000X0.800000*%
%TD*%
%TA.AperFunction,SMDPad,CuDef*%
%ADD21R,1.500000X0.800000*%
%TD*%
%TA.AperFunction,SMDPad,CuDef*%
%ADD22R,1.800000X2.200000*%
%TD*%
%TA.AperFunction,SMDPad,CuDef*%
%ADD23R,1.800000X1.100000*%
%TD*%
%TA.AperFunction,SMDPad,CuDef*%
%ADD24RoundRect,0.225000X0.225000X0.250000X-0.225000X0.250000X-0.225000X-0.250000X0.225000X-0.250000X0*%
%TD*%
%TA.AperFunction,SMDPad,CuDef*%
%ADD25RoundRect,0.225000X-0.225000X-0.250000X0.225000X-0.250000X0.225000X0.250000X-0.225000X0.250000X0*%
%TD*%
%TA.AperFunction,SMDPad,CuDef*%
%ADD26R,1.300000X0.700000*%
%TD*%
%TA.AperFunction,ComponentPad*%
%ADD27RoundRect,0.200000X-0.600000X-0.600000X0.600000X-0.600000X0.600000X0.600000X-0.600000X0.600000X0*%
%TD*%
%TA.AperFunction,ComponentPad*%
%ADD28C,1.600000*%
%TD*%
%TA.AperFunction,ComponentPad*%
%ADD29FreePoly0,0.000000*%
%TD*%
%TA.AperFunction,ComponentPad*%
%ADD30FreePoly1,0.000000*%
%TD*%
%TA.AperFunction,SMDPad,CuDef*%
%ADD31RoundRect,0.250000X0.450000X0.350000X-0.450000X0.350000X-0.450000X-0.350000X0.450000X-0.350000X0*%
%TD*%
%TA.AperFunction,SMDPad,CuDef*%
%ADD32RoundRect,0.075000X-0.075000X0.700000X-0.075000X-0.700000X0.075000X-0.700000X0.075000X0.700000X0*%
%TD*%
%TA.AperFunction,SMDPad,CuDef*%
%ADD33RoundRect,0.075000X-0.700000X0.075000X-0.700000X-0.075000X0.700000X-0.075000X0.700000X0.075000X0*%
%TD*%
%TA.AperFunction,ComponentPad*%
%ADD34C,0.700000*%
%TD*%
%TA.AperFunction,ComponentPad*%
%ADD35O,2.400000X0.900000*%
%TD*%
%TA.AperFunction,ComponentPad*%
%ADD36O,1.700000X0.900000*%
%TD*%
%TA.AperFunction,SMDPad,CuDef*%
%ADD37R,1.000000X1.300000*%
%TD*%
%TA.AperFunction,SMDPad,CuDef*%
%ADD38R,1.000000X0.500000*%
%TD*%
%TA.AperFunction,ViaPad*%
%ADD39C,0.600000*%
%TD*%
%TA.AperFunction,Conductor*%
%ADD40C,0.600000*%
%TD*%
%TA.AperFunction,Conductor*%
%ADD41C,0.300000*%
%TD*%
%TA.AperFunction,Conductor*%
%ADD42C,0.400000*%
%TD*%
%TA.AperFunction,Conductor*%
%ADD43C,0.200000*%
%TD*%
G04 APERTURE END LIST*
D10*
%TO.P,C14,1*%
%TO.N,/LSE_OUT*%
X67020000Y-143340000D03*
%TO.P,C14,2*%
%TO.N,GND*%
X67980000Y-143340000D03*
%TD*%
%TO.P,C13,1*%
%TO.N,/LSE_IN*%
X67020000Y-145040000D03*
%TO.P,C13,2*%
%TO.N,GND*%
X67980000Y-145040000D03*
%TD*%
D11*
%TO.P,R13,1*%
%TO.N,Net-(D3-A)*%
X53610000Y-154650000D03*
%TO.P,R13,2*%
%TO.N,/GPIO_15*%
X51960000Y-154650000D03*
%TD*%
D12*
%TO.P,R1,1*%
%TO.N,Net-(SW1-B)*%
X71125000Y-173250000D03*
%TO.P,R1,2*%
%TO.N,/BOOT0*%
X72775000Y-173250000D03*
%TD*%
D13*
%TO.P,J1,1,Pin_1*%
%TO.N,3.3V*%
X47750000Y-103500000D03*
D14*
%TO.P,J1,2,Pin_2*%
%TO.N,GND*%
X47750000Y-106040000D03*
%TO.P,J1,3,Pin_3*%
%TO.N,12V*%
X47750000Y-108580000D03*
%TO.P,J1,4,Pin_4*%
%TO.N,GND*%
X47750000Y-111120000D03*
%TO.P,J1,5,Pin_5*%
%TO.N,V_Piezo*%
X47750000Y-113660000D03*
%TO.P,J1,6,Pin_6*%
%TO.N,GND*%
X47750000Y-116200000D03*
%TO.P,J1,7,Pin_7*%
%TO.N,/GPIO_6*%
X47750000Y-118740000D03*
%TO.P,J1,8,Pin_8*%
%TO.N,/GPIO_7*%
X47750000Y-121280000D03*
%TO.P,J1,9,Pin_9*%
%TO.N,/GPIO_8*%
X47750000Y-123820000D03*
%TO.P,J1,10,Pin_10*%
%TO.N,/GPIO_9*%
X47750000Y-126360000D03*
%TO.P,J1,11,Pin_11*%
%TO.N,/GPIO_10*%
X47750000Y-128900000D03*
%TO.P,J1,12,Pin_12*%
%TO.N,/GPIO_11*%
X47750000Y-131440000D03*
%TO.P,J1,13,Pin_13*%
%TO.N,/GPIO_12*%
X47750000Y-133980000D03*
%TO.P,J1,14,Pin_14*%
%TO.N,/GPIO_13*%
X47750000Y-136520000D03*
%TO.P,J1,15,Pin_15*%
%TO.N,/GPIO_14*%
X47750000Y-139060000D03*
%TO.P,J1,16,Pin_16*%
%TO.N,/ADC1_IN0*%
X47750000Y-141600000D03*
%TO.P,J1,17,Pin_17*%
%TO.N,/ADC1_IN1*%
X47750000Y-144140000D03*
%TO.P,J1,18,Pin_18*%
%TO.N,/ADC1_IN2*%
X47750000Y-146680000D03*
%TO.P,J1,19,Pin_19*%
%TO.N,/ADC1_IN3*%
X47750000Y-149220000D03*
%TO.P,J1,20,Pin_20*%
%TO.N,/PC5*%
X47750000Y-151760000D03*
%TO.P,J1,21,Pin_21*%
%TO.N,/PB0*%
X47750000Y-154300000D03*
%TO.P,J1,22,Pin_22*%
%TO.N,/PB1*%
X47750000Y-156840000D03*
%TO.P,J1,23,Pin_23*%
%TO.N,/HI_A*%
X47750000Y-159380000D03*
%TO.P,J1,24,Pin_24*%
%TO.N,/LI_A*%
X47750000Y-161920000D03*
%TD*%
D15*
%TO.P,J3,1,DAT2*%
%TO.N,unconnected-(J3-DAT2-Pad1)*%
X47600000Y-174175000D03*
%TO.P,J3,2,DAT3/CD*%
%TO.N,/CS*%
X47600000Y-173075000D03*
%TO.P,J3,3,CMD*%
%TO.N,/SPI2_MOSI*%
X47600000Y-171975000D03*
%TO.P,J3,4,VDD*%
%TO.N,3.3V*%
X47600000Y-170875000D03*
%TO.P,J3,5,CLK*%
%TO.N,/SPI2_SCK*%
X47600000Y-169775000D03*
%TO.P,J3,6,VSS*%
%TO.N,GND*%
X47600000Y-168675000D03*
%TO.P,J3,7,DAT0*%
%TO.N,/SPI2_MISO*%
X47600000Y-167575000D03*
%TO.P,J3,8,DAT1*%
%TO.N,unconnected-(J3-DAT1-Pad8)*%
X47600000Y-166475000D03*
D16*
%TO.P,J3,9,SHIELD*%
%TO.N,GND*%
X58400000Y-176550000D03*
D17*
%TO.P,J3,10*%
%TO.N,N/C*%
X56825000Y-165350000D03*
D18*
%TO.P,J3,S1*%
X47725000Y-176625000D03*
D19*
%TO.P,J3,S2*%
X47725000Y-165275000D03*
D20*
%TO.P,J3,S3*%
X55975000Y-176950000D03*
D21*
%TO.P,J3,S4*%
X55325000Y-165025000D03*
%TD*%
D11*
%TO.P,R7,1*%
%TO.N,Net-(D1-A)*%
X62925000Y-173000000D03*
%TO.P,R7,2*%
%TO.N,/HEARTBEAT*%
X61275000Y-173000000D03*
%TD*%
D22*
%TO.P,D3,1,K*%
%TO.N,GND*%
X52850000Y-158440000D03*
D23*
%TO.P,D3,2,A*%
%TO.N,Net-(D3-A)*%
X52850000Y-156200000D03*
%TD*%
D24*
%TO.P,C15,1*%
%TO.N,3.3V*%
X50475000Y-178575000D03*
%TO.P,C15,2*%
%TO.N,GND*%
X48925000Y-178575000D03*
%TD*%
D25*
%TO.P,C12,1*%
%TO.N,/HSE_OUT*%
X63825000Y-140290000D03*
%TO.P,C12,2*%
%TO.N,GND*%
X65375000Y-140290000D03*
%TD*%
D13*
%TO.P,J2,1,Pin_1*%
%TO.N,/PC3*%
X82750000Y-103500000D03*
D14*
%TO.P,J2,2,Pin_2*%
%TO.N,/PC0*%
X82750000Y-106040000D03*
%TO.P,J2,3,Pin_3*%
%TO.N,/PC13*%
X82750000Y-108580000D03*
%TO.P,J2,4,Pin_4*%
%TO.N,/GPIO_28*%
X82750000Y-111120000D03*
%TO.P,J2,5,Pin_5*%
%TO.N,/GPIO_27*%
X82750000Y-113660000D03*
%TO.P,J2,6,Pin_6*%
%TO.N,/GPIO_26*%
X82750000Y-116200000D03*
%TO.P,J2,7,Pin_7*%
%TO.N,/GPIO_17*%
X82750000Y-118740000D03*
%TO.P,J2,8,Pin_8*%
%TO.N,/GPIO_16*%
X82750000Y-121280000D03*
%TO.P,J2,9,Pin_9*%
%TO.N,/PC4*%
X82750000Y-123820000D03*
%TO.P,J2,10,Pin_10*%
%TO.N,/PB12*%
X82750000Y-126360000D03*
%TO.P,J2,11,Pin_11*%
%TO.N,/PB14*%
X82750000Y-128900000D03*
%TO.P,J2,12,Pin_12*%
%TO.N,/PB15*%
X82750000Y-131440000D03*
%TO.P,J2,13,Pin_13*%
%TO.N,/PC6*%
X82750000Y-133980000D03*
%TO.P,J2,14,Pin_14*%
%TO.N,/PC7*%
X82750000Y-136520000D03*
%TO.P,J2,15,Pin_15*%
%TO.N,/PC8*%
X82750000Y-139060000D03*
%TO.P,J2,16,Pin_16*%
%TO.N,/PC9*%
X82750000Y-141600000D03*
%TO.P,J2,17,Pin_17*%
%TO.N,/PA9*%
X82750000Y-144140000D03*
%TO.P,J2,18,Pin_18*%
%TO.N,/PA10*%
X82750000Y-146680000D03*
%TO.P,J2,19,Pin_19*%
%TO.N,/SCL*%
X82750000Y-149220000D03*
%TO.P,J2,20,Pin_20*%
%TO.N,/SDA*%
X82750000Y-151760000D03*
%TO.P,J2,21,Pin_21*%
%TO.N,/PB6*%
X82750000Y-154300000D03*
%TO.P,J2,22,Pin_22*%
%TO.N,/PB5*%
X82750000Y-156840000D03*
%TO.P,J2,23,Pin_23*%
%TO.N,/HI_B*%
X82750000Y-159380000D03*
%TO.P,J2,24,Pin_24*%
%TO.N,/LI_B*%
X82750000Y-161920000D03*
%TD*%
D26*
%TO.P,D2,1,RK*%
%TO.N,GND*%
X83450000Y-167400000D03*
%TO.P,D2,2,GK*%
X83450000Y-166300000D03*
%TO.P,D2,3,BK*%
X83450000Y-165200000D03*
%TO.P,D2,4,BA*%
%TO.N,Net-(D2-BA)*%
X80350000Y-165200000D03*
%TO.P,D2,5,GA*%
%TO.N,Net-(D2-GA)*%
X80350000Y-166300000D03*
%TO.P,D2,6,RA*%
%TO.N,Net-(D2-RA)*%
X80350000Y-167400000D03*
%TD*%
D25*
%TO.P,C11,1*%
%TO.N,/HSE_IN*%
X67075000Y-140290000D03*
%TO.P,C11,2*%
%TO.N,GND*%
X68625000Y-140290000D03*
%TD*%
D27*
%TO.P,A1,1,GPIO0*%
%TO.N,/UART_TX*%
X56200000Y-101835628D03*
D28*
%TO.P,A1,2,GPIO1*%
%TO.N,/UART_RX*%
X56200000Y-104375628D03*
D29*
%TO.P,A1,3,GND*%
%TO.N,GND*%
X56200000Y-106915628D03*
D28*
%TO.P,A1,4,GPIO2*%
%TO.N,/SPI_SCK*%
X56200000Y-109455628D03*
%TO.P,A1,5,GPIO3*%
%TO.N,/SPI_MOSI*%
X56200000Y-111995628D03*
%TO.P,A1,6,GPIO4*%
%TO.N,/SPI_MISO*%
X56200000Y-114535628D03*
%TO.P,A1,7,GPIO5*%
%TO.N,/HEARTBEAT*%
X56200000Y-117075628D03*
D29*
%TO.P,A1,8,GND*%
%TO.N,GND*%
X56200000Y-119615628D03*
D28*
%TO.P,A1,9,GPIO6*%
%TO.N,/GPIO_6*%
X56200000Y-122155628D03*
%TO.P,A1,10,GPIO7*%
%TO.N,/GPIO_7*%
X56200000Y-124695628D03*
%TO.P,A1,11,GPIO8*%
%TO.N,/GPIO_8*%
X56200000Y-127235628D03*
%TO.P,A1,12,GPIO9*%
%TO.N,/GPIO_9*%
X56200000Y-129775628D03*
D29*
%TO.P,A1,13,GND*%
%TO.N,GND*%
X56200000Y-132315628D03*
D28*
%TO.P,A1,14,GPIO10*%
%TO.N,/GPIO_10*%
X56200000Y-134855628D03*
%TO.P,A1,15,GPIO11*%
%TO.N,/GPIO_11*%
X56200000Y-137395628D03*
%TO.P,A1,16,GPIO12*%
%TO.N,/GPIO_12*%
X56200000Y-139935628D03*
%TO.P,A1,17,GPIO13*%
%TO.N,/GPIO_13*%
X56200000Y-142475628D03*
D29*
%TO.P,A1,18,GND*%
%TO.N,GND*%
X56200000Y-145015628D03*
D28*
%TO.P,A1,19,GPIO14*%
%TO.N,/GPIO_14*%
X56200000Y-147555628D03*
%TO.P,A1,20,GPIO15*%
%TO.N,/GPIO_15*%
X56200000Y-150095628D03*
%TO.P,A1,21,GPIO16*%
%TO.N,/GPIO_16*%
X73980000Y-150095628D03*
%TO.P,A1,22,GPIO17*%
%TO.N,/GPIO_17*%
X73980000Y-147555628D03*
D30*
%TO.P,A1,23,GND*%
%TO.N,GND*%
X73980000Y-145015628D03*
D28*
%TO.P,A1,24,GPIO18*%
%TO.N,/NRST*%
X73980000Y-142475628D03*
%TO.P,A1,25,GPIO19*%
%TO.N,/BOOT0*%
X73980000Y-139935628D03*
%TO.P,A1,26,GPIO20*%
%TO.N,/SWO*%
X73980000Y-137395628D03*
%TO.P,A1,27,GPIO21*%
%TO.N,/SWCLK*%
X73980000Y-134855628D03*
D30*
%TO.P,A1,28,GND*%
%TO.N,GND*%
X73980000Y-132315628D03*
D28*
%TO.P,A1,29,GPIO22*%
%TO.N,/SWDIO*%
X73980000Y-129775628D03*
%TO.P,A1,30,RUN*%
%TO.N,unconnected-(A1-RUN-Pad30)*%
X73980000Y-127235628D03*
%TO.P,A1,31,GPIO26_ADC0*%
%TO.N,/GPIO_26*%
X73980000Y-124695628D03*
%TO.P,A1,32,GPIO27_ADC1*%
%TO.N,/GPIO_27*%
X73980000Y-122155628D03*
D30*
%TO.P,A1,33,AGND*%
%TO.N,unconnected-(A1-AGND-Pad33)*%
X73980000Y-119615628D03*
D28*
%TO.P,A1,34,GPIO28_ADC2*%
%TO.N,/GPIO_28*%
X73980000Y-117075628D03*
%TO.P,A1,35,ADC_VREF*%
%TO.N,3.3V*%
X73980000Y-114535628D03*
%TO.P,A1,36,3V3*%
%TO.N,unconnected-(A1-3V3-Pad36)*%
X73980000Y-111995628D03*
%TO.P,A1,37,3V3_EN*%
%TO.N,unconnected-(A1-3V3_EN-Pad37)*%
X73980000Y-109455628D03*
D30*
%TO.P,A1,38,GND*%
%TO.N,GND*%
X73980000Y-106915628D03*
D28*
%TO.P,A1,39,VSYS*%
%TO.N,3.3V*%
X73980000Y-104375628D03*
%TO.P,A1,40,VBUS*%
%TO.N,unconnected-(A1-VBUS-Pad40)*%
X73980000Y-101835628D03*
%TD*%
D31*
%TO.P,Y1,1,1*%
%TO.N,/HSE_IN*%
X66450000Y-136690000D03*
%TO.P,Y1,2,2*%
%TO.N,GND*%
X64250000Y-136690000D03*
%TO.P,Y1,3,3*%
%TO.N,/HSE_OUT*%
X64250000Y-138390000D03*
%TO.P,Y1,4,4*%
%TO.N,GND*%
X66450000Y-138390000D03*
%TD*%
D32*
%TO.P,U1,1,VBAT*%
%TO.N,3.3V*%
X71550000Y-154725000D03*
%TO.P,U1,2,PC13*%
%TO.N,/PC13*%
X71050000Y-154725000D03*
%TO.P,U1,3,PC14*%
%TO.N,/LSE_IN*%
X70550000Y-154725000D03*
%TO.P,U1,4,PC15*%
%TO.N,/LSE_OUT*%
X70050000Y-154725000D03*
%TO.P,U1,5,PH0*%
%TO.N,/HSE_IN*%
X69550000Y-154725000D03*
%TO.P,U1,6,PH1*%
%TO.N,/HSE_OUT*%
X69050000Y-154725000D03*
%TO.P,U1,7,NRST*%
%TO.N,/NRST*%
X68550000Y-154725000D03*
%TO.P,U1,8,PC0*%
%TO.N,/PC0*%
X68050000Y-154725000D03*
%TO.P,U1,9,PC1*%
%TO.N,/SPI2_MOSI*%
X67550000Y-154725000D03*
%TO.P,U1,10,PC2*%
%TO.N,/SPI2_MISO*%
X67050000Y-154725000D03*
%TO.P,U1,11,PC3*%
%TO.N,/PC3*%
X66550000Y-154725000D03*
%TO.P,U1,12,VSSA*%
%TO.N,GND*%
X66050000Y-154725000D03*
%TO.P,U1,13,VDDA*%
%TO.N,3.3VA*%
X65550000Y-154725000D03*
%TO.P,U1,14,PA0*%
%TO.N,/ADC1_IN0*%
X65050000Y-154725000D03*
%TO.P,U1,15,PA1*%
%TO.N,/ADC1_IN1*%
X64550000Y-154725000D03*
%TO.P,U1,16,PA2*%
%TO.N,/ADC1_IN2*%
X64050000Y-154725000D03*
D33*
%TO.P,U1,17,PA3*%
%TO.N,/ADC1_IN3*%
X62125000Y-156650000D03*
%TO.P,U1,18,VSS*%
%TO.N,GND*%
X62125000Y-157150000D03*
%TO.P,U1,19,VDD*%
%TO.N,3.3V*%
X62125000Y-157650000D03*
%TO.P,U1,20,PA4*%
%TO.N,/HEARTBEAT*%
X62125000Y-158150000D03*
%TO.P,U1,21,PA5*%
%TO.N,/SPI_SCK*%
X62125000Y-158650000D03*
%TO.P,U1,22,PA6*%
%TO.N,/SPI_MISO*%
X62125000Y-159150000D03*
%TO.P,U1,23,PA7*%
%TO.N,/SPI_MOSI*%
X62125000Y-159650000D03*
%TO.P,U1,24,PC4*%
%TO.N,/PC4*%
X62125000Y-160150000D03*
%TO.P,U1,25,PC5*%
%TO.N,/PC5*%
X62125000Y-160650000D03*
%TO.P,U1,26,PB0*%
%TO.N,/PB0*%
X62125000Y-161150000D03*
%TO.P,U1,27,PB1*%
%TO.N,/PB1*%
X62125000Y-161650000D03*
%TO.P,U1,28,PB2*%
%TO.N,/HI_A*%
X62125000Y-162150000D03*
%TO.P,U1,29,PB10*%
%TO.N,/LI_A*%
X62125000Y-162650000D03*
%TO.P,U1,30,VCAP_1*%
%TO.N,Net-(U1-VCAP_1)*%
X62125000Y-163150000D03*
%TO.P,U1,31,VSS*%
%TO.N,GND*%
X62125000Y-163650000D03*
%TO.P,U1,32,VDD*%
%TO.N,3.3V*%
X62125000Y-164150000D03*
D32*
%TO.P,U1,33,PB12*%
%TO.N,/PB12*%
X64050000Y-166075000D03*
%TO.P,U1,34,PB13*%
%TO.N,/SPI2_SCK*%
X64550000Y-166075000D03*
%TO.P,U1,35,PB14*%
%TO.N,/PB14*%
X65050000Y-166075000D03*
%TO.P,U1,36,PB15*%
%TO.N,/PB15*%
X65550000Y-166075000D03*
%TO.P,U1,37,PC6*%
%TO.N,/PC6*%
X66050000Y-166075000D03*
%TO.P,U1,38,PC7*%
%TO.N,/PC7*%
X66550000Y-166075000D03*
%TO.P,U1,39,PC8*%
%TO.N,/PC8*%
X67050000Y-166075000D03*
%TO.P,U1,40,PC9*%
%TO.N,/PC9*%
X67550000Y-166075000D03*
%TO.P,U1,41,PA8*%
%TO.N,/CS*%
X68050000Y-166075000D03*
%TO.P,U1,42,PA9*%
%TO.N,/PA9*%
X68550000Y-166075000D03*
%TO.P,U1,43,PA10*%
%TO.N,/PA10*%
X69050000Y-166075000D03*
%TO.P,U1,44,PA11*%
%TO.N,/USB_D-*%
X69550000Y-166075000D03*
%TO.P,U1,45,PA12*%
%TO.N,/USB_D+*%
X70050000Y-166075000D03*
%TO.P,U1,46,PA13*%
%TO.N,/SWDIO*%
X70550000Y-166075000D03*
%TO.P,U1,47,VSS*%
%TO.N,GND*%
X71050000Y-166075000D03*
%TO.P,U1,48,VDD*%
%TO.N,3.3V*%
X71550000Y-166075000D03*
D33*
%TO.P,U1,49,PA14*%
%TO.N,/SWCLK*%
X73475000Y-164150000D03*
%TO.P,U1,50,PA15*%
%TO.N,/LI_B*%
X73475000Y-163650000D03*
%TO.P,U1,51,PC10*%
%TO.N,/UART_TX*%
X73475000Y-163150000D03*
%TO.P,U1,52,PC11*%
%TO.N,/UART_RX*%
X73475000Y-162650000D03*
%TO.P,U1,53,PC12*%
%TO.N,/LED_RED*%
X73475000Y-162150000D03*
%TO.P,U1,54,PD2*%
%TO.N,/LED_GREEN*%
X73475000Y-161650000D03*
%TO.P,U1,55,PB3*%
%TO.N,/SWO*%
X73475000Y-161150000D03*
%TO.P,U1,56,PB4*%
%TO.N,/LED_BLUE*%
X73475000Y-160650000D03*
%TO.P,U1,57,PB5*%
%TO.N,/PB5*%
X73475000Y-160150000D03*
%TO.P,U1,58,PB6*%
%TO.N,/PB6*%
X73475000Y-159650000D03*
%TO.P,U1,59,PB7*%
%TO.N,/SDA*%
X73475000Y-159150000D03*
%TO.P,U1,60,BOOT0*%
%TO.N,/BOOT0*%
X73475000Y-158650000D03*
%TO.P,U1,61,PB8*%
%TO.N,/SCL*%
X73475000Y-158150000D03*
%TO.P,U1,62,PB9*%
%TO.N,/HI_B*%
X73475000Y-157650000D03*
%TO.P,U1,63,VSS*%
%TO.N,GND*%
X73475000Y-157150000D03*
%TO.P,U1,64,VDD*%
%TO.N,3.3V*%
X73475000Y-156650000D03*
%TD*%
D34*
%TO.P,J4,A1,GND*%
%TO.N,GND*%
X75575000Y-177075000D03*
%TO.P,J4,A4,VBUS*%
%TO.N,unconnected-(J4-VBUS-PadA4)*%
X75575000Y-176225000D03*
%TO.P,J4,A5,CC1*%
%TO.N,Net-(J4-CC1)*%
X75575000Y-175375000D03*
%TO.P,J4,A6,D+*%
%TO.N,/USB_D+*%
X75575000Y-174525000D03*
%TO.P,J4,A7,D-*%
%TO.N,/USB_D-*%
X75575000Y-173675000D03*
%TO.P,J4,A8,SBU1*%
%TO.N,unconnected-(J4-SBU1-PadA8)*%
X75575000Y-172825000D03*
%TO.P,J4,A9,VBUS*%
%TO.N,unconnected-(J4-VBUS-PadA4)_3*%
X75575000Y-171975000D03*
%TO.P,J4,A12,GND*%
%TO.N,GND*%
X75575000Y-171125000D03*
%TO.P,J4,B1,GND*%
X76925000Y-171125000D03*
%TO.P,J4,B4,VBUS*%
%TO.N,unconnected-(J4-VBUS-PadA4)_1*%
X76925000Y-171975000D03*
%TO.P,J4,B5,CC2*%
%TO.N,Net-(J4-CC2)*%
X76925000Y-172825000D03*
%TO.P,J4,B6,D+*%
%TO.N,/USB_D+*%
X76925000Y-173675000D03*
%TO.P,J4,B7,D-*%
%TO.N,/USB_D-*%
X76925000Y-174525000D03*
%TO.P,J4,B8,SBU2*%
%TO.N,unconnected-(J4-SBU2-PadB8)*%
X76925000Y-175375000D03*
%TO.P,J4,B9,VBUS*%
%TO.N,unconnected-(J4-VBUS-PadA4)_2*%
X76925000Y-176225000D03*
%TO.P,J4,B12,GND*%
%TO.N,GND*%
X76925000Y-177075000D03*
D35*
%TO.P,J4,S1,SHIELD*%
X76555000Y-178425000D03*
D36*
X79935000Y-178425000D03*
D35*
X76555000Y-169775000D03*
D36*
X79935000Y-169775000D03*
%TD*%
D25*
%TO.P,C16,1*%
%TO.N,3.3V*%
X54925000Y-178675000D03*
%TO.P,C16,2*%
%TO.N,GND*%
X56475000Y-178675000D03*
%TD*%
D37*
%TO.P,SW1,1,A*%
%TO.N,GND*%
X67950000Y-177450000D03*
%TO.P,SW1,2,B*%
%TO.N,Net-(SW1-B)*%
X69700000Y-173550000D03*
%TO.P,SW1,3,C*%
%TO.N,3.3V*%
X71450000Y-177450000D03*
%TD*%
D38*
%TO.P,Y2,1,1*%
%TO.N,/LSE_IN*%
X65350000Y-144760000D03*
%TO.P,Y2,2,2*%
%TO.N,/LSE_OUT*%
X65350000Y-143660000D03*
%TD*%
D22*
%TO.P,D1,1,K*%
%TO.N,GND*%
X62100000Y-176845000D03*
D23*
%TO.P,D1,2,A*%
%TO.N,Net-(D1-A)*%
X62100000Y-174605000D03*
%TD*%
D39*
%TO.N,GND*%
X55000000Y-154500000D03*
X50000000Y-101650000D03*
X52750000Y-101650000D03*
X76950000Y-115300000D03*
X68200000Y-111700000D03*
X59350000Y-110400000D03*
X70200000Y-101850000D03*
X65500000Y-101850000D03*
X62750000Y-101800000D03*
X59100000Y-101850000D03*
X61850000Y-144650000D03*
X69900000Y-132750000D03*
%TO.N,/HEARTBEAT*%
X61275000Y-173000000D03*
X56285146Y-159897534D03*
X64136561Y-157662218D03*
%TO.N,/UART_RX*%
X71549273Y-158959247D03*
%TO.N,/SPI_SCK*%
X58850000Y-158800000D03*
%TO.N,/SPI_MOSI*%
X57590380Y-159409620D03*
%TO.N,/SPI_MISO*%
X57034976Y-159913634D03*
%TO.N,/UART_TX*%
X72050000Y-157548528D03*
%TO.N,3.3VA*%
X65400000Y-156000000D03*
%TO.N,/NRST*%
X68575000Y-156275000D03*
X71177000Y-143600000D03*
%TO.N,Net-(U1-VCAP_1)*%
X63825000Y-162650000D03*
%TO.N,Net-(D2-BA)*%
X80350000Y-165200000D03*
%TO.N,Net-(D2-GA)*%
X80275000Y-166300000D03*
%TO.N,Net-(D2-RA)*%
X80350000Y-167400000D03*
%TO.N,/HI_B*%
X80399000Y-154500000D03*
%TO.N,/SDA*%
X80000000Y-151775000D03*
%TO.N,/SCL*%
X80000000Y-149225000D03*
%TO.N,/SPI2_MISO*%
X64298070Y-158751930D03*
X49700000Y-167650000D03*
%TO.N,/SPI2_MOSI*%
X49700000Y-172500000D03*
X64800000Y-159450000D03*
%TO.N,3.3V*%
X62125000Y-164675000D03*
X61395000Y-153275000D03*
X79950000Y-153400000D03*
X80150000Y-143800000D03*
X72050000Y-166075000D03*
X66900000Y-158400000D03*
X65240380Y-156890380D03*
X80115380Y-127065380D03*
X71450000Y-177450000D03*
X50475000Y-178575000D03*
X54925000Y-178675000D03*
X74250000Y-156150000D03*
X47600000Y-170850000D03*
X63400000Y-157350000D03*
X70300000Y-156300000D03*
X57800000Y-153850000D03*
X74050000Y-154050000D03*
%TO.N,GND*%
X60250000Y-157275000D03*
X75630000Y-102440000D03*
X62930000Y-150700000D03*
X68010000Y-173560000D03*
X78170000Y-104980000D03*
X80710000Y-173560000D03*
X66000000Y-146040000D03*
X65470000Y-176100000D03*
X69550000Y-142290000D03*
X69550000Y-143540000D03*
X62930000Y-125300000D03*
X50230000Y-107520000D03*
X83250000Y-178640000D03*
X65470000Y-173560000D03*
X71050000Y-108250000D03*
X75630000Y-104980000D03*
X80710000Y-176100000D03*
X73900000Y-177025000D03*
X75630000Y-168480000D03*
X77650000Y-128300000D03*
X55310000Y-173560000D03*
X70550000Y-127840000D03*
X73090000Y-178640000D03*
X65300000Y-142290000D03*
X83250000Y-173560000D03*
X75630000Y-110060000D03*
X68010000Y-127840000D03*
X54600000Y-144000000D03*
X69800000Y-136900000D03*
X66550000Y-135400000D03*
X53950000Y-131950000D03*
X50230000Y-117680000D03*
X75150000Y-156700000D03*
X75630000Y-112600000D03*
X52770000Y-104980000D03*
X83450000Y-165200000D03*
X65981462Y-153126885D03*
X70550000Y-125300000D03*
X62800000Y-138400000D03*
X65470000Y-117680000D03*
X65470000Y-130380000D03*
X69800000Y-135400000D03*
X70550000Y-122760000D03*
X50230000Y-115140000D03*
X52770000Y-120220000D03*
X69800000Y-141400000D03*
X66800000Y-142290000D03*
X52770000Y-112600000D03*
X83250000Y-176100000D03*
X50230000Y-110060000D03*
X48925000Y-178575000D03*
X65470000Y-122760000D03*
X65470000Y-104980000D03*
X67950000Y-177450000D03*
X78170000Y-112600000D03*
X62800000Y-136900000D03*
X68010000Y-120220000D03*
X55310000Y-171020000D03*
X52850000Y-158440000D03*
X80710000Y-102440000D03*
X68010000Y-130380000D03*
X83250000Y-171020000D03*
X50230000Y-150700000D03*
X67725000Y-146040000D03*
X62930000Y-117680000D03*
X68010000Y-171020000D03*
X69550000Y-146040000D03*
X64300000Y-142290000D03*
X78170000Y-176100000D03*
X78170000Y-107520000D03*
X52770000Y-110060000D03*
X65470000Y-107520000D03*
X68300000Y-135400000D03*
X52800000Y-177050000D03*
X50230000Y-104980000D03*
X62800000Y-135400000D03*
X83450000Y-167400000D03*
X62930000Y-115140000D03*
X62930000Y-127840000D03*
X78400000Y-171175000D03*
X68300000Y-141400000D03*
X68010000Y-122760000D03*
X72050000Y-167450000D03*
X75630000Y-107520000D03*
X62930000Y-130380000D03*
X63450000Y-164200000D03*
X65470000Y-125300000D03*
X78170000Y-102440000D03*
X57850000Y-168480000D03*
X78170000Y-110060000D03*
X52770000Y-115140000D03*
X69800000Y-138400000D03*
X64800000Y-135400000D03*
X62930000Y-104980000D03*
X62800000Y-139900000D03*
X66800000Y-141400000D03*
X70250000Y-159400000D03*
X62930000Y-120220000D03*
X52770000Y-107520000D03*
X69550000Y-144790000D03*
X64300000Y-143540000D03*
X50200000Y-164400000D03*
X50230000Y-112600000D03*
X69800000Y-139900000D03*
X83450000Y-166300000D03*
X52770000Y-117680000D03*
X62930000Y-168480000D03*
X65470000Y-127840000D03*
X65470000Y-120220000D03*
X68300000Y-142290000D03*
X68010000Y-125300000D03*
X62930000Y-122760000D03*
%TO.N,/GPIO_15*%
X51960000Y-154650000D03*
%TO.N,/SPI2_SCK*%
X51450000Y-169100000D03*
%TO.N,/BOOT0*%
X75197000Y-158480759D03*
X80100001Y-156969238D03*
X72800000Y-173300000D03*
%TO.N,/LED_RED*%
X79096827Y-162716067D03*
%TO.N,/LED_GREEN*%
X80012917Y-162818603D03*
%TO.N,/LED_BLUE*%
X80950380Y-162800380D03*
%TO.N,/PB14*%
X67900000Y-161400000D03*
%TO.N,/PC4*%
X67900000Y-160100000D03*
%TO.N,/PC3*%
X79250000Y-126050000D03*
X67644612Y-152641229D03*
X70459620Y-151140380D03*
%TO.N,/SWCLK*%
X71650000Y-168100000D03*
X70676000Y-134850000D03*
%TO.N,/PC6*%
X67900000Y-162700000D03*
%TO.N,/PC8*%
X67900000Y-164000401D03*
%TO.N,/PC13*%
X80750000Y-124600000D03*
%TO.N,/SWDIO*%
X70900000Y-167500000D03*
X71177000Y-130650000D03*
%TO.N,/PB15*%
X67285421Y-162050000D03*
%TO.N,/SWO*%
X72251653Y-158270912D03*
%TO.N,/USB_D+*%
X74800050Y-172475784D03*
%TO.N,/PC0*%
X71200000Y-152601566D03*
X80000000Y-125300000D03*
X68300000Y-153100000D03*
%TO.N,/PC7*%
X67299631Y-163367937D03*
%TO.N,/PC9*%
X67700000Y-164775000D03*
%TO.N,/PB12*%
X67400242Y-160750000D03*
%TD*%
D40*
%TO.N,3.3V*%
X58799000Y-152851000D02*
X57800000Y-153850000D01*
X60971000Y-152851000D02*
X58799000Y-152851000D01*
X61395000Y-153275000D02*
X60971000Y-152851000D01*
D41*
%TO.N,/ADC1_IN1*%
X55860000Y-152250000D02*
X47750000Y-144140000D01*
X63200000Y-152250000D02*
X55860000Y-152250000D01*
X64550000Y-153600000D02*
X63200000Y-152250000D01*
X64550000Y-154725000D02*
X64550000Y-153600000D01*
%TO.N,/ADC1_IN0*%
X48951000Y-142801000D02*
X47750000Y-141600000D01*
X63650000Y-151750000D02*
X56200000Y-151750000D01*
X65050000Y-153150000D02*
X63650000Y-151750000D01*
X56200000Y-151750000D02*
X48951000Y-144501000D01*
X48951000Y-144501000D02*
X48951000Y-142801000D01*
X65050000Y-154725000D02*
X65050000Y-153150000D01*
D40*
%TO.N,GND*%
X66351708Y-138390000D02*
X66450000Y-138390000D01*
X64651708Y-136690000D02*
X66351708Y-138390000D01*
X64250000Y-136690000D02*
X64651708Y-136690000D01*
D41*
%TO.N,/GPIO_6*%
X47750000Y-118740000D02*
X51165628Y-122155628D01*
X51165628Y-122155628D02*
X56200000Y-122155628D01*
%TO.N,/GPIO_16*%
X75400000Y-148675628D02*
X73980000Y-150095628D01*
X76401000Y-127629000D02*
X76401000Y-145843148D01*
X75400000Y-146844148D02*
X75400000Y-148675628D01*
X82750000Y-121280000D02*
X76401000Y-127629000D01*
X76401000Y-145843148D02*
X75400000Y-146844148D01*
%TO.N,/GPIO_28*%
X76794372Y-117075628D02*
X73980000Y-117075628D01*
X82750000Y-111120000D02*
X76794372Y-117075628D01*
%TO.N,/GPIO_27*%
X82750000Y-113660000D02*
X74254372Y-122155628D01*
X74254372Y-122155628D02*
X73980000Y-122155628D01*
%TO.N,/GPIO_8*%
X47750000Y-123820000D02*
X51165628Y-127235628D01*
X51165628Y-127235628D02*
X56200000Y-127235628D01*
%TO.N,/HEARTBEAT*%
X63648779Y-158150000D02*
X62125000Y-158150000D01*
X59100000Y-158150000D02*
X62125000Y-158150000D01*
X59051000Y-158199000D02*
X59100000Y-158150000D01*
X57154627Y-158357620D02*
X58095430Y-158357620D01*
X56538380Y-158973867D02*
X57154627Y-158357620D01*
X58251000Y-158199000D02*
X59051000Y-158199000D01*
X64136561Y-157662218D02*
X63648779Y-158150000D01*
X56538380Y-159560287D02*
X56538380Y-158973867D01*
X56433976Y-159897534D02*
X56433976Y-159664691D01*
X56433976Y-159664691D02*
X56538380Y-159560287D01*
X56285146Y-159897534D02*
X56433976Y-159897534D01*
X58093905Y-158356095D02*
X58251000Y-158199000D01*
X58095430Y-158357620D02*
X58093905Y-158356095D01*
%TO.N,/GPIO_26*%
X74254372Y-124695628D02*
X73980000Y-124695628D01*
X82750000Y-116200000D02*
X74254372Y-124695628D01*
%TO.N,/GPIO_9*%
X51165628Y-129775628D02*
X47750000Y-126360000D01*
X56200000Y-129775628D02*
X51165628Y-129775628D01*
%TO.N,/GPIO_17*%
X75900000Y-145635628D02*
X73980000Y-147555628D01*
X82750000Y-118740000D02*
X75900000Y-125590000D01*
X75900000Y-125590000D02*
X75900000Y-145635628D01*
%TO.N,/UART_RX*%
X71549273Y-161649273D02*
X71549273Y-158959247D01*
X71650000Y-161750000D02*
X71549273Y-161649273D01*
X72550000Y-162650000D02*
X71650000Y-161750000D01*
X73475000Y-162650000D02*
X72550000Y-162650000D01*
%TO.N,/SPI_SCK*%
X59475000Y-158650000D02*
X62125000Y-158650000D01*
X58850000Y-158800000D02*
X59325000Y-158800000D01*
X59325000Y-158800000D02*
X59475000Y-158650000D01*
%TO.N,/SPI_MOSI*%
X58181760Y-160001000D02*
X59599000Y-160001000D01*
X57590380Y-159409620D02*
X58181760Y-160001000D01*
X59599000Y-160001000D02*
X59950000Y-159650000D01*
X59950000Y-159650000D02*
X62125000Y-159650000D01*
%TO.N,/SPI_MISO*%
X57341437Y-158808620D02*
X57908620Y-158808620D01*
X56989380Y-159658563D02*
X56989380Y-159160677D01*
X57034976Y-159913634D02*
X57034976Y-159704159D01*
X57908620Y-158808620D02*
X58600000Y-159500000D01*
X56989380Y-159160677D02*
X57341437Y-158808620D01*
X59700000Y-159150000D02*
X62125000Y-159150000D01*
X59350000Y-159500000D02*
X59700000Y-159150000D01*
X57034976Y-159704159D02*
X56989380Y-159658563D01*
X58600000Y-159500000D02*
X59350000Y-159500000D01*
%TO.N,/GPIO_7*%
X51165628Y-124695628D02*
X47750000Y-121280000D01*
X56200000Y-124695628D02*
X51165628Y-124695628D01*
%TO.N,/UART_TX*%
X70850000Y-158608520D02*
X70850000Y-161800000D01*
X70850000Y-161800000D02*
X72200000Y-163150000D01*
X72050000Y-157548528D02*
X71944641Y-157443169D01*
X71458520Y-158000000D02*
X70850000Y-158608520D01*
X71458520Y-157929290D02*
X71458520Y-158000000D01*
X72200000Y-163150000D02*
X73475000Y-163150000D01*
X71944641Y-157443169D02*
X71458520Y-157929290D01*
%TO.N,3.3VA*%
X65550000Y-155850000D02*
X65400000Y-156000000D01*
X65550000Y-154725000D02*
X65550000Y-155850000D01*
%TO.N,/NRST*%
X68550000Y-156250000D02*
X68575000Y-156275000D01*
X68550000Y-154725000D02*
X68550000Y-156250000D01*
X72855628Y-143600000D02*
X73980000Y-142475628D01*
X71177000Y-143600000D02*
X72855628Y-143600000D01*
%TO.N,/HSE_IN*%
X66910000Y-140290000D02*
X67075000Y-140290000D01*
X69550000Y-154725000D02*
X69550000Y-152700000D01*
X63649000Y-146799000D02*
X63649000Y-142020346D01*
D42*
X67551000Y-139814000D02*
X67075000Y-140290000D01*
D41*
X63649000Y-142020346D02*
X64030346Y-141639000D01*
D42*
X67551000Y-137763420D02*
X67551000Y-139814000D01*
D41*
X64030346Y-141639000D02*
X65561000Y-141639000D01*
X65561000Y-141639000D02*
X66910000Y-140290000D01*
D42*
X66450000Y-136690000D02*
X66477580Y-136690000D01*
D41*
X69550000Y-152700000D02*
X63649000Y-146799000D01*
D42*
X66477580Y-136690000D02*
X67551000Y-137763420D01*
D41*
%TO.N,/HSE_OUT*%
X69050000Y-152950000D02*
X68951000Y-152851000D01*
X63825000Y-140290000D02*
X63800000Y-140315000D01*
X68951000Y-152851000D02*
X68951000Y-152830346D01*
D42*
X64250000Y-138390000D02*
X64250000Y-139865000D01*
X64250000Y-139865000D02*
X63825000Y-140290000D01*
D41*
X68951000Y-152830346D02*
X68569654Y-152449000D01*
X68569654Y-152449000D02*
X68549000Y-152449000D01*
X69050000Y-154725000D02*
X69050000Y-152950000D01*
X68549000Y-152449000D02*
X63125000Y-147025000D01*
X63125000Y-140990000D02*
X63825000Y-140290000D01*
X63125000Y-147025000D02*
X63125000Y-140990000D01*
%TO.N,/LSE_IN*%
X70550000Y-152150000D02*
X65350000Y-146950000D01*
X66670000Y-144760000D02*
X66950000Y-145040000D01*
X65350000Y-146950000D02*
X65350000Y-144760000D01*
X70550000Y-154725000D02*
X70550000Y-152150000D01*
X65350000Y-144760000D02*
X66670000Y-144760000D01*
%TO.N,/LSE_OUT*%
X65100654Y-143660000D02*
X65350000Y-143660000D01*
X70050000Y-152400000D02*
X64499000Y-146849000D01*
X65350000Y-143660000D02*
X65100000Y-143660000D01*
X64499000Y-146849000D02*
X64499000Y-144261654D01*
X70050000Y-154725000D02*
X70050000Y-152400000D01*
X64499000Y-144261654D02*
X65100654Y-143660000D01*
X66630000Y-143660000D02*
X66950000Y-143340000D01*
X65350000Y-143660000D02*
X66630000Y-143660000D01*
%TO.N,Net-(U1-VCAP_1)*%
X63325000Y-163150000D02*
X63825000Y-162650000D01*
X62125000Y-163150000D02*
X63325000Y-163150000D01*
%TO.N,Net-(D1-A)*%
X62100000Y-174605000D02*
X62100000Y-173825000D01*
X62100000Y-173825000D02*
X62925000Y-173000000D01*
%TO.N,/HI_A*%
X50520000Y-162150000D02*
X47750000Y-159380000D01*
X62125000Y-162150000D02*
X50520000Y-162150000D01*
%TO.N,/LI_A*%
X62125000Y-162650000D02*
X48480000Y-162650000D01*
X48480000Y-162650000D02*
X47750000Y-161920000D01*
%TO.N,/HI_B*%
X74761247Y-157428759D02*
X74540006Y-157650000D01*
X78078850Y-157847000D02*
X76050994Y-157847000D01*
X80399000Y-154742380D02*
X80421595Y-154764975D01*
X80421595Y-154764975D02*
X80197000Y-154989570D01*
X74540006Y-157650000D02*
X73475000Y-157650000D01*
X79832762Y-155917238D02*
X79664248Y-155917238D01*
X79048001Y-156533485D02*
X79048001Y-156701999D01*
X80197000Y-154989570D02*
X80197000Y-155553000D01*
X79048001Y-156701999D02*
X78849000Y-156901000D01*
X80197000Y-155553000D02*
X79832762Y-155917238D01*
X79664248Y-155917238D02*
X79048001Y-156533485D01*
X78849000Y-156901000D02*
X78849000Y-157076850D01*
X75632753Y-157428759D02*
X74761247Y-157428759D01*
X80399000Y-154500000D02*
X80399000Y-154742380D01*
X76050994Y-157847000D02*
X75632753Y-157428759D01*
X78849000Y-157076850D02*
X78078850Y-157847000D01*
%TO.N,/PB5*%
X73475000Y-160150000D02*
X79440000Y-160150000D01*
X79440000Y-160150000D02*
X82750000Y-156840000D01*
%TO.N,/SDA*%
X81099000Y-155363190D02*
X81450000Y-155012190D01*
X81450000Y-153225000D02*
X80000000Y-151775000D01*
X73475000Y-159150000D02*
X78900000Y-159150000D01*
X81450000Y-155012190D02*
X81450000Y-153225000D01*
X81099000Y-156951000D02*
X81099000Y-155363190D01*
X78900000Y-159150000D02*
X81099000Y-156951000D01*
X80000000Y-151775000D02*
X82735000Y-151775000D01*
X82735000Y-151775000D02*
X82750000Y-151760000D01*
%TO.N,/LI_B*%
X73475000Y-163650000D02*
X81020000Y-163650000D01*
X81020000Y-163650000D02*
X82750000Y-161920000D01*
%TO.N,/SCL*%
X74351000Y-158151000D02*
X74676816Y-158151000D01*
X78265660Y-158298000D02*
X79499001Y-157064659D01*
X79851058Y-156368238D02*
X80348944Y-156368238D01*
X74676816Y-158151000D02*
X74948057Y-157879759D01*
X74350000Y-158150000D02*
X74351000Y-158151000D01*
X80348944Y-156368238D02*
X80365353Y-156384647D01*
X75848000Y-158298000D02*
X78265660Y-158298000D01*
X79349000Y-152044654D02*
X79349000Y-149901000D01*
X79942480Y-152426000D02*
X79730346Y-152426000D01*
X75798000Y-158248000D02*
X75848000Y-158298000D01*
X75445943Y-157879759D02*
X75798000Y-158231816D01*
X73475000Y-158150000D02*
X74350000Y-158150000D01*
X80000000Y-149250000D02*
X80000000Y-149225000D01*
X75798000Y-158231816D02*
X75798000Y-158248000D01*
X80999000Y-153482520D02*
X79942480Y-152426000D01*
X79499001Y-157064659D02*
X79499001Y-156720295D01*
X79499001Y-156720295D02*
X79851058Y-156368238D01*
X80000000Y-149225000D02*
X82745000Y-149225000D01*
X79349000Y-149901000D02*
X80000000Y-149250000D01*
X80999000Y-154825380D02*
X80999000Y-153482520D01*
X74948057Y-157879759D02*
X75445943Y-157879759D01*
X80648000Y-155176380D02*
X80999000Y-154825380D01*
X80648000Y-156102000D02*
X80648000Y-155176380D01*
X79730346Y-152426000D02*
X79349000Y-152044654D01*
X80365353Y-156384647D02*
X80648000Y-156102000D01*
X82745000Y-149225000D02*
X82750000Y-149220000D01*
%TO.N,/SPI2_MISO*%
X67050000Y-156000000D02*
X64298070Y-158751930D01*
X47600000Y-167575000D02*
X49625000Y-167575000D01*
X67050000Y-154725000D02*
X67050000Y-156000000D01*
X49625000Y-167575000D02*
X49700000Y-167650000D01*
%TO.N,/SPI2_MOSI*%
X47600000Y-171975000D02*
X49175000Y-171975000D01*
X49175000Y-171975000D02*
X49700000Y-172500000D01*
X67550000Y-154725000D02*
X67550000Y-156700000D01*
X67550000Y-156700000D02*
X64800000Y-159450000D01*
%TO.N,/CS*%
X63950000Y-171550000D02*
X60400000Y-171550000D01*
X48427000Y-173075000D02*
X47600000Y-173075000D01*
X56600000Y-175350000D02*
X50702000Y-175350000D01*
X60400000Y-171550000D02*
X56600000Y-175350000D01*
X68050000Y-166075000D02*
X68050000Y-167450000D01*
X50702000Y-175350000D02*
X48427000Y-173075000D01*
X68050000Y-167450000D02*
X63950000Y-171550000D01*
%TO.N,3.3V*%
X63400000Y-157465242D02*
X63215242Y-157650000D01*
D40*
X67000000Y-103224628D02*
X72829000Y-103224628D01*
D42*
X67000000Y-103374628D02*
X67000000Y-107555628D01*
X72829000Y-103224628D02*
X67150000Y-103224628D01*
X67150000Y-103224628D02*
X67000000Y-103224628D01*
D40*
X80115380Y-127065380D02*
X80150000Y-127100000D01*
D41*
X63400000Y-157350000D02*
X63400000Y-157465242D01*
X70300000Y-156300000D02*
X70854534Y-156300000D01*
D40*
X65240380Y-156890380D02*
X65211218Y-156861218D01*
X50575000Y-178675000D02*
X50475000Y-178575000D01*
D41*
X63215242Y-157650000D02*
X62125000Y-157650000D01*
X70854534Y-156300000D02*
X71550000Y-155604534D01*
D40*
X73980000Y-104375628D02*
X72829000Y-103224628D01*
D41*
X62125000Y-164150000D02*
X62125000Y-164675000D01*
D43*
X74250000Y-156150000D02*
X74450000Y-155950000D01*
D40*
X70300000Y-156300000D02*
X68200000Y-158400000D01*
D41*
X71550000Y-166075000D02*
X72050000Y-166075000D01*
D40*
X80150000Y-127100000D02*
X80150000Y-143800000D01*
X79379288Y-153400000D02*
X76679288Y-156100000D01*
D41*
X73475000Y-156650000D02*
X73750000Y-156650000D01*
D42*
X67150000Y-103224628D02*
X67000000Y-103374628D01*
D40*
X54925000Y-178675000D02*
X50575000Y-178675000D01*
X79950000Y-153400000D02*
X79379288Y-153400000D01*
D41*
X48025372Y-103224628D02*
X67000000Y-103224628D01*
D43*
X76529288Y-155950000D02*
X76679288Y-156100000D01*
D40*
X68200000Y-158400000D02*
X66900000Y-158400000D01*
D41*
X47750000Y-103500000D02*
X48025372Y-103224628D01*
D40*
X47600000Y-170875000D02*
X47600000Y-170850000D01*
D41*
X73750000Y-156650000D02*
X74250000Y-156150000D01*
D40*
X65211218Y-156861218D02*
X63804775Y-156861218D01*
X67000000Y-107555628D02*
X67000000Y-103224628D01*
D41*
X71550000Y-155604534D02*
X71550000Y-154725000D01*
X72225000Y-154050000D02*
X74050000Y-154050000D01*
X71550000Y-154725000D02*
X72225000Y-154050000D01*
D40*
X73980000Y-114535628D02*
X67000000Y-107555628D01*
D43*
X74450000Y-155950000D02*
X76529288Y-155950000D01*
D40*
X63804775Y-156861218D02*
X63401000Y-157264993D01*
D41*
%TO.N,GND*%
X60375000Y-157150000D02*
X60250000Y-157275000D01*
D42*
X69800000Y-139900000D02*
X69800000Y-141400000D01*
X64800000Y-135400000D02*
X62800000Y-135400000D01*
X68300000Y-142290000D02*
X69550000Y-142290000D01*
X62800000Y-135400000D02*
X62800000Y-136900000D01*
D41*
X63450000Y-164166176D02*
X63450000Y-164200000D01*
X66050000Y-154725000D02*
X66050000Y-153195423D01*
D43*
X71050000Y-166075000D02*
X71050000Y-164400000D01*
D42*
X68300000Y-135400000D02*
X69800000Y-135400000D01*
X62800000Y-138400000D02*
X62800000Y-136900000D01*
D41*
X66050000Y-153195423D02*
X65981462Y-153126885D01*
D42*
X69550000Y-144790000D02*
X69550000Y-146040000D01*
X65300000Y-142290000D02*
X64300000Y-142290000D01*
D43*
X71650001Y-167450000D02*
X72050000Y-167450000D01*
X71050000Y-166075000D02*
X71050000Y-166849999D01*
D42*
X64800000Y-135400000D02*
X66550000Y-135400000D01*
X69800000Y-141400000D02*
X66800000Y-141400000D01*
D43*
X71050000Y-164400000D02*
X71100000Y-164350000D01*
D42*
X64300000Y-142290000D02*
X64300000Y-143540000D01*
X69800000Y-136900000D02*
X69800000Y-138400000D01*
D41*
X62933824Y-163650000D02*
X63450000Y-164166176D01*
D42*
X69800000Y-138400000D02*
X69800000Y-139900000D01*
D41*
X62125000Y-157150000D02*
X60375000Y-157150000D01*
X62125000Y-163650000D02*
X62933824Y-163650000D01*
D43*
X74472906Y-157150000D02*
X74922906Y-156700000D01*
D42*
X66800000Y-142290000D02*
X68300000Y-142290000D01*
D43*
X71050000Y-166849999D02*
X71650001Y-167450000D01*
D42*
X66550000Y-135400000D02*
X68300000Y-135400000D01*
X69800000Y-135400000D02*
X69800000Y-136900000D01*
X67725000Y-146040000D02*
X66000000Y-146040000D01*
X69550000Y-142290000D02*
X69550000Y-143540000D01*
X69550000Y-146040000D02*
X67725000Y-146040000D01*
X62800000Y-139900000D02*
X62800000Y-138400000D01*
X65300000Y-142290000D02*
X66800000Y-142290000D01*
X69550000Y-143540000D02*
X69550000Y-144790000D01*
D43*
X74922906Y-156700000D02*
X75150000Y-156700000D01*
X73475000Y-157150000D02*
X74472906Y-157150000D01*
D41*
%TO.N,/GPIO_11*%
X53705628Y-137395628D02*
X47750000Y-131440000D01*
X56200000Y-137395628D02*
X53705628Y-137395628D01*
%TO.N,/GPIO_12*%
X53705628Y-139935628D02*
X56200000Y-139935628D01*
X47750000Y-133980000D02*
X53705628Y-139935628D01*
%TO.N,/GPIO_13*%
X53705628Y-142475628D02*
X47750000Y-136520000D01*
X56200000Y-142475628D02*
X53705628Y-142475628D01*
%TO.N,/GPIO_10*%
X53705628Y-134855628D02*
X56200000Y-134855628D01*
X47750000Y-128900000D02*
X53705628Y-134855628D01*
%TO.N,/GPIO_14*%
X47750000Y-139060000D02*
X56200000Y-147510000D01*
X56200000Y-147510000D02*
X56200000Y-147555628D01*
%TO.N,/SPI2_SCK*%
X47600000Y-169775000D02*
X50775000Y-169775000D01*
X64550000Y-166075000D02*
X64550000Y-170241480D01*
X63742480Y-171049000D02*
X60192480Y-171049000D01*
X50775000Y-169775000D02*
X51450000Y-169100000D01*
X56392480Y-174849000D02*
X52535454Y-174849000D01*
X64550000Y-170241480D02*
X63742480Y-171049000D01*
X60192480Y-171049000D02*
X56392480Y-174849000D01*
X51450000Y-173763546D02*
X51450000Y-169100000D01*
X52535454Y-174849000D02*
X51450000Y-173763546D01*
%TO.N,Net-(D3-A)*%
X53610000Y-154650000D02*
X53610000Y-155440000D01*
X53610000Y-155440000D02*
X52850000Y-156200000D01*
%TO.N,Net-(SW1-B)*%
X71125000Y-173250000D02*
X70000000Y-173250000D01*
X70000000Y-173250000D02*
X69700000Y-173550000D01*
%TO.N,/BOOT0*%
X72775000Y-173275000D02*
X72800000Y-173300000D01*
D43*
X78940380Y-158190380D02*
X78940380Y-158209620D01*
X74978759Y-158699000D02*
X75197000Y-158480759D01*
D41*
X72775000Y-173250000D02*
X72775000Y-173275000D01*
D43*
X74900000Y-158699000D02*
X74978759Y-158699000D01*
X80100001Y-156969238D02*
X80100001Y-157030759D01*
X73524000Y-158699000D02*
X73475000Y-158650000D01*
X80100001Y-157030759D02*
X78940380Y-158190380D01*
X78940380Y-158209620D02*
X78451000Y-158699000D01*
X78451000Y-158699000D02*
X74900000Y-158699000D01*
X74900000Y-158699000D02*
X73524000Y-158699000D01*
D41*
%TO.N,/LED_RED*%
X78530760Y-162150000D02*
X73475000Y-162150000D01*
X79096827Y-162716067D02*
X78530760Y-162150000D01*
%TO.N,/LED_GREEN*%
X78950000Y-161650000D02*
X73475000Y-161650000D01*
X80012917Y-162818603D02*
X80012917Y-162712917D01*
X80012917Y-162712917D02*
X78950000Y-161650000D01*
%TO.N,/LED_BLUE*%
X80950380Y-162800380D02*
X80950380Y-162750380D01*
X78850000Y-160650000D02*
X73475000Y-160650000D01*
X80950380Y-162750380D02*
X78850000Y-160650000D01*
%TO.N,/PB6*%
X82750000Y-154350000D02*
X82750000Y-154300000D01*
X81550000Y-155550000D02*
X82750000Y-154350000D01*
X73475000Y-159650000D02*
X79200000Y-159650000D01*
X81550000Y-157300000D02*
X81550000Y-155550000D01*
X79200000Y-159650000D02*
X81550000Y-157300000D01*
%TO.N,/PB14*%
X66250000Y-161400000D02*
X65050000Y-162600000D01*
X67900000Y-161400000D02*
X66250000Y-161400000D01*
X65050000Y-162600000D02*
X65050000Y-166075000D01*
%TO.N,/PC5*%
X50500000Y-154510000D02*
X47750000Y-151760000D01*
X62125000Y-160650000D02*
X51300000Y-160650000D01*
X50500000Y-159850000D02*
X50500000Y-154510000D01*
X51300000Y-160650000D02*
X50500000Y-159850000D01*
%TO.N,/PC4*%
X63100000Y-160100000D02*
X67900000Y-160100000D01*
X62125000Y-160150000D02*
X63050000Y-160150000D01*
X63050000Y-160150000D02*
X63100000Y-160100000D01*
%TO.N,/ADC1_IN3*%
X60825000Y-155350000D02*
X57450000Y-155350000D01*
X57317479Y-155226000D02*
X51311480Y-149220000D01*
X62125000Y-156650000D02*
X60825000Y-155350000D01*
X51311480Y-149220000D02*
X47750000Y-149220000D01*
X57326000Y-155226000D02*
X57317479Y-155226000D01*
X57450000Y-155350000D02*
X57326000Y-155226000D01*
%TO.N,/PC3*%
X76347000Y-148427435D02*
X77297000Y-147477438D01*
X71269240Y-151950000D02*
X73924440Y-151950000D01*
X79250000Y-145514438D02*
X79250000Y-126050000D01*
X73924440Y-151950000D02*
X76347000Y-149527440D01*
X67644612Y-152641229D02*
X67227397Y-152641229D01*
X66550000Y-153318626D02*
X66550000Y-154725000D01*
X77297000Y-147467435D02*
X79250000Y-145514438D01*
X77297000Y-147477438D02*
X77297000Y-147467435D01*
X70459620Y-151140380D02*
X71269240Y-151950000D01*
X76347000Y-149527440D02*
X76347000Y-148427435D01*
X67227397Y-152641229D02*
X66550000Y-153318626D01*
%TO.N,/SWCLK*%
X70681628Y-134855628D02*
X73980000Y-134855628D01*
X73475000Y-167475000D02*
X72850000Y-168100000D01*
X70676000Y-134850000D02*
X70681628Y-134855628D01*
X72850000Y-168100000D02*
X71650000Y-168100000D01*
X73475000Y-164150000D02*
X73475000Y-167475000D01*
%TO.N,/PB1*%
X49500000Y-160400000D02*
X49500000Y-158590000D01*
X49500000Y-158590000D02*
X47750000Y-156840000D01*
X62125000Y-161650000D02*
X50750000Y-161650000D01*
X50750000Y-161650000D02*
X49500000Y-160400000D01*
%TO.N,/PB0*%
X50000000Y-156550000D02*
X47750000Y-154300000D01*
X51000000Y-161150000D02*
X50000000Y-160150000D01*
X50000000Y-160150000D02*
X50000000Y-156550000D01*
X62125000Y-161150000D02*
X51000000Y-161150000D01*
%TO.N,/PC6*%
X67900000Y-162700000D02*
X66690597Y-162700000D01*
X66050000Y-163340597D02*
X66050000Y-166075000D01*
X66690597Y-162700000D02*
X66050000Y-163340597D01*
%TO.N,/PC8*%
X67449599Y-164000401D02*
X67050000Y-164400000D01*
X67050000Y-164400000D02*
X67050000Y-166075000D01*
X67900000Y-164000401D02*
X67449599Y-164000401D01*
%TO.N,/PC13*%
X77349000Y-149942480D02*
X77349000Y-148842479D01*
X78299000Y-147892480D02*
X78299000Y-147882479D01*
X77349000Y-148842479D02*
X78299000Y-147892480D01*
X71050000Y-153700000D02*
X71550000Y-153200000D01*
X81350000Y-144831479D02*
X81350000Y-125200000D01*
X74091480Y-153200000D02*
X77349000Y-149942480D01*
X71050000Y-154725000D02*
X71050000Y-153700000D01*
X71550000Y-153200000D02*
X74091480Y-153200000D01*
X78299000Y-147882479D02*
X81350000Y-144831479D01*
X81350000Y-125200000D02*
X80750000Y-124600000D01*
%TO.N,/PA9*%
X77849000Y-149746826D02*
X77849000Y-153371826D01*
X68550000Y-166075000D02*
X68550000Y-159486946D01*
X77849000Y-153371826D02*
X76222826Y-154998000D01*
X73772825Y-154998000D02*
X73125086Y-155645740D01*
X78800000Y-148090000D02*
X78800000Y-148100000D01*
X78800000Y-148100000D02*
X77850000Y-149050000D01*
X76222826Y-154998000D02*
X73772825Y-154998000D01*
X82750000Y-144140000D02*
X78800000Y-148090000D01*
X77850000Y-149745825D02*
X77849000Y-149746826D01*
X77850000Y-149050000D02*
X77850000Y-149745825D01*
X72391206Y-155645740D02*
X68550000Y-159486946D01*
X73125086Y-155645740D02*
X72391206Y-155645740D01*
%TO.N,/ADC1_IN2*%
X57525000Y-154725000D02*
X49480000Y-146680000D01*
X49480000Y-146680000D02*
X47750000Y-146680000D01*
X64050000Y-154725000D02*
X57525000Y-154725000D01*
%TO.N,/SWDIO*%
X70550000Y-167150000D02*
X70900000Y-167500000D01*
X71177000Y-130650000D02*
X72051372Y-129775628D01*
X72051372Y-129775628D02*
X73980000Y-129775628D01*
X70550000Y-166075000D02*
X70550000Y-167150000D01*
%TO.N,/PB15*%
X65550000Y-162900000D02*
X65550000Y-166075000D01*
X67285421Y-162050000D02*
X66400000Y-162050000D01*
X66400000Y-162050000D02*
X65550000Y-162900000D01*
%TO.N,/SWO*%
X72500000Y-161150000D02*
X73475000Y-161150000D01*
X72251653Y-158270912D02*
X72251653Y-160901653D01*
X72251653Y-160901653D02*
X72500000Y-161150000D01*
%TO.N,/USB_D+*%
X70050000Y-166075000D02*
X70050000Y-167725734D01*
X70050000Y-167725734D02*
X74800050Y-172475784D01*
%TO.N,/PC0*%
X68050000Y-153350000D02*
X68050000Y-154725000D01*
X80850000Y-126150000D02*
X80000000Y-125300000D01*
X77798000Y-147674957D02*
X80850000Y-144622957D01*
X80850000Y-144622957D02*
X80850000Y-126150000D01*
X77798000Y-147684959D02*
X77798000Y-147674957D01*
X71200000Y-152601566D02*
X71201566Y-152600000D01*
X68300000Y-153100000D02*
X68050000Y-153350000D01*
X76848000Y-149734960D02*
X76848000Y-148634957D01*
X76848000Y-148634957D02*
X77798000Y-147684959D01*
X71201566Y-152600000D02*
X73982960Y-152600000D01*
X73982960Y-152600000D02*
X76848000Y-149734960D01*
%TO.N,/PA10*%
X76430346Y-155499000D02*
X78350000Y-153579346D01*
X69050000Y-159700000D02*
X72349000Y-156401000D01*
X78350000Y-149954346D02*
X81624346Y-146680000D01*
X78350000Y-153579346D02*
X78350000Y-149954346D01*
X72349000Y-156401000D02*
X72349000Y-156396466D01*
X73330346Y-156149000D02*
X73980346Y-155499000D01*
X81624346Y-146680000D02*
X82750000Y-146680000D01*
X73980346Y-155499000D02*
X76430346Y-155499000D01*
X72596466Y-156149000D02*
X73330346Y-156149000D01*
X69050000Y-166075000D02*
X69050000Y-159700000D01*
X72349000Y-156396466D02*
X72596466Y-156149000D01*
%TO.N,/PC7*%
X66982063Y-163367937D02*
X66550000Y-163800000D01*
X67299631Y-163367937D02*
X66982063Y-163367937D01*
X66550000Y-163800000D02*
X66550000Y-166075000D01*
%TO.N,/USB_D-*%
X75933636Y-173675000D02*
X75575000Y-173675000D01*
X69550000Y-166075000D02*
X69550000Y-168144974D01*
X75080026Y-173675000D02*
X75575000Y-173675000D01*
X76783636Y-174525000D02*
X75933636Y-173675000D01*
X69550000Y-168144974D02*
X75080026Y-173675000D01*
X76925000Y-174525000D02*
X76783636Y-174525000D01*
%TO.N,/PC9*%
X67550000Y-164900000D02*
X67550000Y-166075000D01*
X67700000Y-164775000D02*
X67675000Y-164775000D01*
X67675000Y-164775000D02*
X67550000Y-164900000D01*
%TO.N,/PB12*%
X64050000Y-166075000D02*
X64050000Y-163604534D01*
X64549000Y-163105534D02*
X64549000Y-162392479D01*
X64549000Y-162392479D02*
X66191479Y-160750000D01*
X66191479Y-160750000D02*
X67400242Y-160750000D01*
X64050000Y-163604534D02*
X64549000Y-163105534D01*
%TD*%
%TA.AperFunction,Conductor*%
%TO.N,GND*%
G36*
X55112147Y-100520185D02*
G01*
X55157902Y-100572989D01*
X55167846Y-100642147D01*
X55138821Y-100705703D01*
X55132789Y-100712181D01*
X55044531Y-100800438D01*
X55044530Y-100800439D01*
X54956522Y-100946021D01*
X54905913Y-101108435D01*
X54899500Y-101179014D01*
X54899500Y-102450128D01*
X54879815Y-102517167D01*
X54827011Y-102562922D01*
X54775500Y-102574128D01*
X49191977Y-102574128D01*
X49124938Y-102554443D01*
X49079183Y-102501639D01*
X49075795Y-102493461D01*
X49043797Y-102407671D01*
X49043793Y-102407664D01*
X48957547Y-102292455D01*
X48957544Y-102292452D01*
X48842335Y-102206206D01*
X48842328Y-102206202D01*
X48707482Y-102155908D01*
X48707483Y-102155908D01*
X48647883Y-102149501D01*
X48647881Y-102149500D01*
X48647873Y-102149500D01*
X48647864Y-102149500D01*
X46852129Y-102149500D01*
X46852123Y-102149501D01*
X46792516Y-102155908D01*
X46657671Y-102206202D01*
X46657664Y-102206206D01*
X46542455Y-102292452D01*
X46542452Y-102292455D01*
X46456206Y-102407664D01*
X46456202Y-102407671D01*
X46405908Y-102542517D01*
X46402512Y-102574108D01*
X46399501Y-102602123D01*
X46399500Y-102602135D01*
X46399500Y-104397870D01*
X46399501Y-104397876D01*
X46405908Y-104457483D01*
X46456202Y-104592328D01*
X46456206Y-104592335D01*
X46542452Y-104707544D01*
X46542455Y-104707547D01*
X46657664Y-104793793D01*
X46657671Y-104793797D01*
X46792517Y-104844091D01*
X46792516Y-104844091D01*
X46799444Y-104844835D01*
X46852127Y-104850500D01*
X48647872Y-104850499D01*
X48707483Y-104844091D01*
X48842331Y-104793796D01*
X48957546Y-104707546D01*
X49043796Y-104592331D01*
X49094091Y-104457483D01*
X49100500Y-104397873D01*
X49100500Y-103999128D01*
X49120185Y-103932089D01*
X49172989Y-103886334D01*
X49224500Y-103875128D01*
X54824524Y-103875128D01*
X54891563Y-103894813D01*
X54937318Y-103947617D01*
X54947262Y-104016775D01*
X54942455Y-104037445D01*
X54931524Y-104071085D01*
X54931523Y-104071092D01*
X54899500Y-104273276D01*
X54899500Y-104477979D01*
X54931522Y-104680162D01*
X54994781Y-104874851D01*
X55087715Y-105057241D01*
X55208028Y-105222841D01*
X55352786Y-105367599D01*
X55507749Y-105480184D01*
X55518390Y-105487915D01*
X55634607Y-105547131D01*
X55700776Y-105580846D01*
X55700778Y-105580846D01*
X55700781Y-105580848D01*
X55805137Y-105614755D01*
X55895465Y-105644105D01*
X55996557Y-105660116D01*
X56097648Y-105676128D01*
X56097649Y-105676128D01*
X56302351Y-105676128D01*
X56302352Y-105676128D01*
X56504534Y-105644105D01*
X56699219Y-105580848D01*
X56881610Y-105487915D01*
X56974590Y-105420360D01*
X57047213Y-105367599D01*
X57047215Y-105367596D01*
X57047219Y-105367594D01*
X57191966Y-105222847D01*
X57191968Y-105222843D01*
X57191971Y-105222841D01*
X57244732Y-105150218D01*
X57312287Y-105057238D01*
X57405220Y-104874847D01*
X57468477Y-104680162D01*
X57500500Y-104477980D01*
X57500500Y-104273276D01*
X57468477Y-104071094D01*
X57468475Y-104071090D01*
X57468475Y-104071085D01*
X57457545Y-104037445D01*
X57455550Y-103967604D01*
X57491631Y-103907772D01*
X57554332Y-103876944D01*
X57575476Y-103875128D01*
X66075500Y-103875128D01*
X66142539Y-103894813D01*
X66188294Y-103947617D01*
X66199500Y-103999128D01*
X66199500Y-107634474D01*
X66230261Y-107789117D01*
X66230264Y-107789129D01*
X66290602Y-107934800D01*
X66290609Y-107934813D01*
X66378210Y-108065916D01*
X66378213Y-108065920D01*
X72643898Y-114331604D01*
X72677383Y-114392927D01*
X72679835Y-114429005D01*
X72679500Y-114433265D01*
X72679500Y-114637979D01*
X72711522Y-114840162D01*
X72774781Y-115034851D01*
X72867715Y-115217241D01*
X72988028Y-115382841D01*
X73132786Y-115527599D01*
X73287749Y-115640184D01*
X73298390Y-115647915D01*
X73364477Y-115681588D01*
X73391080Y-115695143D01*
X73441876Y-115743118D01*
X73458671Y-115810939D01*
X73436134Y-115877074D01*
X73391080Y-115916113D01*
X73298386Y-115963343D01*
X73132786Y-116083656D01*
X72988028Y-116228414D01*
X72867715Y-116394014D01*
X72774781Y-116576404D01*
X72711522Y-116771093D01*
X72679500Y-116973276D01*
X72679500Y-117177979D01*
X72711522Y-117380162D01*
X72774781Y-117574851D01*
X72867715Y-117757241D01*
X72988028Y-117922841D01*
X73132782Y-118067595D01*
X73132787Y-118067599D01*
X73209063Y-118123017D01*
X73251729Y-118178347D01*
X73257708Y-118247960D01*
X73225102Y-118309755D01*
X73166845Y-118343483D01*
X73146776Y-118348605D01*
X73146766Y-118348608D01*
X73073280Y-118379047D01*
X73073252Y-118379059D01*
X73024451Y-118402407D01*
X73024446Y-118402410D01*
X72909268Y-118488633D01*
X72909256Y-118488643D01*
X72853019Y-118544880D01*
X72816843Y-118585152D01*
X72816837Y-118585160D01*
X72743426Y-118708891D01*
X72712978Y-118782402D01*
X72712970Y-118782423D01*
X72694976Y-118833428D01*
X72674500Y-118975847D01*
X72674500Y-120255412D01*
X72677395Y-120309442D01*
X72677396Y-120309446D01*
X72712976Y-120448849D01*
X72712980Y-120448861D01*
X72743419Y-120522347D01*
X72743431Y-120522375D01*
X72766779Y-120571176D01*
X72766782Y-120571181D01*
X72767533Y-120572184D01*
X72853006Y-120686361D01*
X72853010Y-120686365D01*
X72853015Y-120686371D01*
X72909252Y-120742608D01*
X72909261Y-120742616D01*
X72909267Y-120742622D01*
X72930381Y-120761588D01*
X72949524Y-120778784D01*
X72949532Y-120778790D01*
X73073263Y-120852201D01*
X73073262Y-120852201D01*
X73080329Y-120855128D01*
X73146774Y-120882650D01*
X73162645Y-120888249D01*
X73175133Y-120892655D01*
X73231805Y-120933522D01*
X73257386Y-120998540D01*
X73243754Y-121067067D01*
X73206765Y-121109909D01*
X73132782Y-121163660D01*
X72988028Y-121308414D01*
X72867715Y-121474014D01*
X72774781Y-121656404D01*
X72711522Y-121851093D01*
X72679500Y-122053276D01*
X72679500Y-122257979D01*
X72711522Y-122460162D01*
X72774781Y-122654851D01*
X72867715Y-122837241D01*
X72988028Y-123002841D01*
X73132786Y-123147599D01*
X73287749Y-123260184D01*
X73298390Y-123267915D01*
X73364477Y-123301588D01*
X73391080Y-123315143D01*
X73441876Y-123363118D01*
X73458671Y-123430939D01*
X73436134Y-123497074D01*
X73391080Y-123536113D01*
X73298386Y-123583343D01*
X73132786Y-123703656D01*
X72988028Y-123848414D01*
X72867715Y-124014014D01*
X72774781Y-124196404D01*
X72711522Y-124391093D01*
X72679500Y-124593276D01*
X72679500Y-124797979D01*
X72711522Y-125000162D01*
X72774781Y-125194851D01*
X72867715Y-125377241D01*
X72988028Y-125542841D01*
X73132786Y-125687599D01*
X73287749Y-125800184D01*
X73298390Y-125807915D01*
X73389840Y-125854511D01*
X73391080Y-125855143D01*
X73441876Y-125903118D01*
X73458671Y-125970939D01*
X73436134Y-126037074D01*
X73391080Y-126076113D01*
X73298386Y-126123343D01*
X73132786Y-126243656D01*
X72988028Y-126388414D01*
X72867715Y-126554014D01*
X72774781Y-126736404D01*
X72711522Y-126931093D01*
X72679500Y-127133276D01*
X72679500Y-127337979D01*
X72711522Y-127540162D01*
X72774781Y-127734851D01*
X72867715Y-127917241D01*
X72988028Y-128082841D01*
X73132786Y-128227599D01*
X73287749Y-128340184D01*
X73298390Y-128347915D01*
X73364477Y-128381588D01*
X73391080Y-128395143D01*
X73441876Y-128443118D01*
X73458671Y-128510939D01*
X73436134Y-128577074D01*
X73391080Y-128616113D01*
X73298386Y-128663343D01*
X73132786Y-128783656D01*
X72988034Y-128928408D01*
X72939067Y-128995807D01*
X72882246Y-129074014D01*
X72826918Y-129116679D01*
X72781929Y-129125128D01*
X71987301Y-129125128D01*
X71861633Y-129150125D01*
X71861627Y-129150127D01*
X71760936Y-129191835D01*
X71743246Y-129199162D01*
X71636698Y-129270354D01*
X71074068Y-129832984D01*
X71012745Y-129866469D01*
X71010579Y-129866920D01*
X70943508Y-129880261D01*
X70943498Y-129880264D01*
X70797827Y-129940602D01*
X70797814Y-129940609D01*
X70666711Y-130028210D01*
X70666707Y-130028213D01*
X70555213Y-130139707D01*
X70555210Y-130139711D01*
X70467609Y-130270814D01*
X70467602Y-130270827D01*
X70407264Y-130416498D01*
X70407261Y-130416510D01*
X70376500Y-130571153D01*
X70376500Y-130728846D01*
X70407261Y-130883489D01*
X70407264Y-130883501D01*
X70467602Y-131029172D01*
X70467609Y-131029185D01*
X70555210Y-131160288D01*
X70555213Y-131160292D01*
X70666707Y-131271786D01*
X70666711Y-131271789D01*
X70797814Y-131359390D01*
X70797827Y-131359397D01*
X70902538Y-131402769D01*
X70943503Y-131419737D01*
X71098153Y-131450499D01*
X71098156Y-131450500D01*
X71098158Y-131450500D01*
X71255844Y-131450500D01*
X71255845Y-131450499D01*
X71410497Y-131419737D01*
X71556179Y-131359394D01*
X71687289Y-131271789D01*
X71798789Y-131160289D01*
X71886394Y-131029179D01*
X71946737Y-130883497D01*
X71960079Y-130816416D01*
X71992463Y-130754509D01*
X71993903Y-130753041D01*
X72284500Y-130462444D01*
X72345822Y-130428962D01*
X72372180Y-130426128D01*
X72781929Y-130426128D01*
X72848968Y-130445813D01*
X72882245Y-130477241D01*
X72950480Y-130571158D01*
X72988034Y-130622847D01*
X73132786Y-130767599D01*
X73287749Y-130880184D01*
X73298390Y-130887915D01*
X73414607Y-130947131D01*
X73480776Y-130980846D01*
X73480778Y-130980846D01*
X73480781Y-130980848D01*
X73585137Y-131014755D01*
X73675465Y-131044105D01*
X73776557Y-131060116D01*
X73877648Y-131076128D01*
X73877649Y-131076128D01*
X74082351Y-131076128D01*
X74082352Y-131076128D01*
X74284534Y-131044105D01*
X74479219Y-130980848D01*
X74661610Y-130887915D01*
X74760015Y-130816420D01*
X74827213Y-130767599D01*
X74827215Y-130767596D01*
X74827219Y-130767594D01*
X74971966Y-130622847D01*
X75025181Y-130549601D01*
X75080511Y-130506936D01*
X75150125Y-130500957D01*
X75211920Y-130533562D01*
X75246277Y-130594401D01*
X75249500Y-130622487D01*
X75249500Y-134008768D01*
X75229815Y-134075807D01*
X75177011Y-134121562D01*
X75107853Y-134131506D01*
X75044297Y-134102481D01*
X75025182Y-134081653D01*
X74971971Y-134008415D01*
X74971967Y-134008410D01*
X74827213Y-133863656D01*
X74661613Y-133743343D01*
X74661612Y-133743342D01*
X74661610Y-133743341D01*
X74604653Y-133714319D01*
X74479223Y-133650409D01*
X74284534Y-133587150D01*
X74109995Y-133559506D01*
X74082352Y-133555128D01*
X73877648Y-133555128D01*
X73853329Y-133558979D01*
X73675465Y-133587150D01*
X73480776Y-133650409D01*
X73298386Y-133743343D01*
X73132786Y-133863656D01*
X72988034Y-134008408D01*
X72958180Y-134049500D01*
X72882246Y-134154014D01*
X72826918Y-134196679D01*
X72781929Y-134205128D01*
X71189358Y-134205128D01*
X71122319Y-134185443D01*
X71120467Y-134184230D01*
X71055184Y-134140609D01*
X71055172Y-134140602D01*
X70909501Y-134080264D01*
X70909489Y-134080261D01*
X70754845Y-134049500D01*
X70754842Y-134049500D01*
X70597158Y-134049500D01*
X70597155Y-134049500D01*
X70442510Y-134080261D01*
X70442498Y-134080264D01*
X70296827Y-134140602D01*
X70296814Y-134140609D01*
X70165711Y-134228210D01*
X70165707Y-134228213D01*
X70054213Y-134339707D01*
X70054210Y-134339711D01*
X69966609Y-134470814D01*
X69966602Y-134470827D01*
X69906264Y-134616498D01*
X69906261Y-134616510D01*
X69875500Y-134771153D01*
X69875500Y-134928846D01*
X69906261Y-135083489D01*
X69906264Y-135083501D01*
X69966602Y-135229172D01*
X69966609Y-135229185D01*
X70054210Y-135360288D01*
X70054213Y-135360292D01*
X70165707Y-135471786D01*
X70165711Y-135471789D01*
X70296814Y-135559390D01*
X70296827Y-135559397D01*
X70427595Y-135613562D01*
X70442503Y-135619737D01*
X70597153Y-135650499D01*
X70597156Y-135650500D01*
X70597158Y-135650500D01*
X70754844Y-135650500D01*
X70754845Y-135650499D01*
X70909497Y-135619737D01*
X71055179Y-135559394D01*
X71103621Y-135527025D01*
X71170297Y-135506148D01*
X71172512Y-135506128D01*
X72781929Y-135506128D01*
X72848968Y-135525813D01*
X72882245Y-135557241D01*
X72942528Y-135640213D01*
X72988034Y-135702847D01*
X73132786Y-135847599D01*
X73287749Y-135960184D01*
X73298390Y-135967915D01*
X73364477Y-136001588D01*
X73391080Y-136015143D01*
X73441876Y-136063118D01*
X73458671Y-136130939D01*
X73436134Y-136197074D01*
X73391080Y-136236113D01*
X73298386Y-136283343D01*
X73132786Y-136403656D01*
X72988028Y-136548414D01*
X72867715Y-136714014D01*
X72774781Y-136896404D01*
X72711522Y-137091093D01*
X72679500Y-137293276D01*
X72679500Y-137497979D01*
X72711522Y-137700162D01*
X72774781Y-137894851D01*
X72867715Y-138077241D01*
X72988028Y-138242841D01*
X73132786Y-138387599D01*
X73287749Y-138500184D01*
X73298390Y-138507915D01*
X73364477Y-138541588D01*
X73391080Y-138555143D01*
X73441876Y-138603118D01*
X73458671Y-138670939D01*
X73436134Y-138737074D01*
X73391080Y-138776113D01*
X73298386Y-138823343D01*
X73132786Y-138943656D01*
X72988028Y-139088414D01*
X72867715Y-139254014D01*
X72774781Y-139436404D01*
X72711522Y-139631093D01*
X72679500Y-139833276D01*
X72679500Y-140037979D01*
X72711522Y-140240162D01*
X72774781Y-140434851D01*
X72838691Y-140560281D01*
X72852994Y-140588351D01*
X72867715Y-140617241D01*
X72988028Y-140782841D01*
X73132786Y-140927599D01*
X73287749Y-141040184D01*
X73298390Y-141047915D01*
X73364477Y-141081588D01*
X73391080Y-141095143D01*
X73441876Y-141143118D01*
X73458671Y-141210939D01*
X73436134Y-141277074D01*
X73391080Y-141316113D01*
X73298386Y-141363343D01*
X73132786Y-141483656D01*
X72988028Y-141628414D01*
X72867715Y-141794014D01*
X72774781Y-141976404D01*
X72711522Y-142171093D01*
X72690994Y-142300706D01*
X72679500Y-142373276D01*
X72679500Y-142577980D01*
X72684771Y-142611261D01*
X72707654Y-142755738D01*
X72706953Y-142761161D01*
X72708865Y-142766287D01*
X72702522Y-142795444D01*
X72698699Y-142825032D01*
X72694868Y-142830634D01*
X72694014Y-142834561D01*
X72672864Y-142862815D01*
X72622502Y-142913179D01*
X72561180Y-142946666D01*
X72534819Y-142949500D01*
X71681935Y-142949500D01*
X71614896Y-142929815D01*
X71613090Y-142928633D01*
X71556179Y-142890606D01*
X71556172Y-142890602D01*
X71410501Y-142830264D01*
X71410489Y-142830261D01*
X71255845Y-142799500D01*
X71255842Y-142799500D01*
X71098158Y-142799500D01*
X71098155Y-142799500D01*
X70943510Y-142830261D01*
X70943498Y-142830264D01*
X70797827Y-142890602D01*
X70797814Y-142890609D01*
X70666711Y-142978210D01*
X70666707Y-142978213D01*
X70555213Y-143089707D01*
X70555210Y-143089711D01*
X70467609Y-143220814D01*
X70467602Y-143220827D01*
X70407264Y-143366498D01*
X70407261Y-143366510D01*
X70376500Y-143521153D01*
X70376500Y-143678846D01*
X70407261Y-143833489D01*
X70407264Y-143833501D01*
X70467602Y-143979172D01*
X70467609Y-143979185D01*
X70555210Y-144110288D01*
X70555213Y-144110292D01*
X70666707Y-144221786D01*
X70666711Y-144221789D01*
X70797814Y-144309390D01*
X70797827Y-144309397D01*
X70943498Y-144369735D01*
X70943503Y-144369737D01*
X71098153Y-144400499D01*
X71098156Y-144400500D01*
X71098158Y-144400500D01*
X71255844Y-144400500D01*
X71255845Y-144400499D01*
X71410497Y-144369737D01*
X71556179Y-144309394D01*
X71613044Y-144271397D01*
X71679721Y-144250520D01*
X71681935Y-144250500D01*
X72919699Y-144250500D01*
X73004243Y-144233682D01*
X73045372Y-144225501D01*
X73163755Y-144176465D01*
X73180501Y-144165276D01*
X73270297Y-144105277D01*
X73592809Y-143782763D01*
X73654131Y-143749280D01*
X73699887Y-143747973D01*
X73877648Y-143776128D01*
X73877649Y-143776128D01*
X74082351Y-143776128D01*
X74082352Y-143776128D01*
X74284534Y-143744105D01*
X74479219Y-143680848D01*
X74661610Y-143587915D01*
X74754590Y-143520360D01*
X74827213Y-143467599D01*
X74827215Y-143467596D01*
X74827219Y-143467594D01*
X74971966Y-143322847D01*
X75025181Y-143249601D01*
X75080511Y-143206936D01*
X75150125Y-143200957D01*
X75211920Y-143233562D01*
X75246277Y-143294401D01*
X75249500Y-143322487D01*
X75249500Y-145314819D01*
X75229815Y-145381858D01*
X75213181Y-145402500D01*
X74367190Y-146248490D01*
X74305867Y-146281975D01*
X74260111Y-146283282D01*
X74114611Y-146260237D01*
X74082352Y-146255128D01*
X73877648Y-146255128D01*
X73853329Y-146258979D01*
X73675465Y-146287150D01*
X73480776Y-146350409D01*
X73298386Y-146443343D01*
X73132786Y-146563656D01*
X72988028Y-146708414D01*
X72867715Y-146874014D01*
X72774781Y-147056404D01*
X72711522Y-147251093D01*
X72679500Y-147453276D01*
X72679500Y-147657979D01*
X72711522Y-147860162D01*
X72774781Y-148054851D01*
X72867715Y-148237241D01*
X72988028Y-148402841D01*
X73132786Y-148547599D01*
X73287749Y-148660184D01*
X73298390Y-148667915D01*
X73364477Y-148701588D01*
X73391080Y-148715143D01*
X73441876Y-148763118D01*
X73458671Y-148830939D01*
X73436134Y-148897074D01*
X73391080Y-148936113D01*
X73298386Y-148983343D01*
X73132786Y-149103656D01*
X72988028Y-149248414D01*
X72867715Y-149414014D01*
X72774781Y-149596404D01*
X72711522Y-149791093D01*
X72679500Y-149993276D01*
X72679500Y-150197979D01*
X72711522Y-150400162D01*
X72774781Y-150594851D01*
X72867715Y-150777241D01*
X72988028Y-150942841D01*
X73133006Y-151087819D01*
X73166491Y-151149142D01*
X73161507Y-151218834D01*
X73119635Y-151274767D01*
X73054171Y-151299184D01*
X73045325Y-151299500D01*
X71590048Y-151299500D01*
X71523009Y-151279815D01*
X71502367Y-151263181D01*
X71276635Y-151037449D01*
X71243150Y-150976126D01*
X71242713Y-150974032D01*
X71229357Y-150906883D01*
X71175657Y-150777238D01*
X71169017Y-150761207D01*
X71169010Y-150761194D01*
X71081409Y-150630091D01*
X71081406Y-150630087D01*
X70969912Y-150518593D01*
X70969908Y-150518590D01*
X70838805Y-150430989D01*
X70838792Y-150430982D01*
X70693121Y-150370644D01*
X70693109Y-150370641D01*
X70538465Y-150339880D01*
X70538462Y-150339880D01*
X70380778Y-150339880D01*
X70380775Y-150339880D01*
X70226130Y-150370641D01*
X70226118Y-150370644D01*
X70080447Y-150430982D01*
X70080429Y-150430992D01*
X69967527Y-150506431D01*
X69900850Y-150527309D01*
X69833470Y-150508824D01*
X69810956Y-150491010D01*
X66036819Y-146716873D01*
X66003334Y-146655550D01*
X66000500Y-146629192D01*
X66000500Y-145574141D01*
X66020185Y-145507102D01*
X66062397Y-145466813D01*
X66071405Y-145461600D01*
X66092331Y-145453796D01*
X66117650Y-145434842D01*
X66123986Y-145431176D01*
X66151095Y-145424572D01*
X66177239Y-145414820D01*
X66184576Y-145416415D01*
X66191871Y-145414639D01*
X66218245Y-145423739D01*
X66245513Y-145429670D01*
X66251110Y-145435078D01*
X66257919Y-145437428D01*
X66271886Y-145455154D01*
X66292821Y-145475383D01*
X66369880Y-145605683D01*
X66369887Y-145605692D01*
X66484307Y-145720112D01*
X66484311Y-145720115D01*
X66484313Y-145720117D01*
X66623605Y-145802494D01*
X66664587Y-145814400D01*
X66779002Y-145847642D01*
X66779005Y-145847642D01*
X66779007Y-145847643D01*
X66815310Y-145850500D01*
X66815318Y-145850500D01*
X67224682Y-145850500D01*
X67224690Y-145850500D01*
X67260993Y-145847643D01*
X67260995Y-145847642D01*
X67260997Y-145847642D01*
X67301975Y-145835736D01*
X67416395Y-145802494D01*
X67555687Y-145720117D01*
X67670117Y-145605687D01*
X67752494Y-145466395D01*
X67789635Y-145338556D01*
X67797642Y-145310997D01*
X67797643Y-145310991D01*
X67798546Y-145299514D01*
X67800500Y-145274690D01*
X67800500Y-144805310D01*
X67797643Y-144769007D01*
X67752494Y-144613605D01*
X67670117Y-144474313D01*
X67670115Y-144474311D01*
X67670112Y-144474307D01*
X67555692Y-144359887D01*
X67555684Y-144359881D01*
X67470320Y-144309397D01*
X67448903Y-144296731D01*
X67401221Y-144245663D01*
X67388717Y-144176922D01*
X67415362Y-144112332D01*
X67448904Y-144083268D01*
X67555687Y-144020117D01*
X67670117Y-143905687D01*
X67752494Y-143766395D01*
X67797643Y-143610993D01*
X67800500Y-143574690D01*
X67800500Y-143105310D01*
X67797643Y-143069007D01*
X67780354Y-143009500D01*
X67752495Y-142913609D01*
X67752494Y-142913605D01*
X67670117Y-142774313D01*
X67670115Y-142774311D01*
X67670112Y-142774307D01*
X67555692Y-142659887D01*
X67555684Y-142659881D01*
X67417196Y-142577980D01*
X67416395Y-142577506D01*
X67416394Y-142577505D01*
X67416393Y-142577505D01*
X67416390Y-142577504D01*
X67260997Y-142532357D01*
X67260991Y-142532356D01*
X67224697Y-142529500D01*
X67224690Y-142529500D01*
X66815310Y-142529500D01*
X66815302Y-142529500D01*
X66779008Y-142532356D01*
X66779002Y-142532357D01*
X66623609Y-142577504D01*
X66623606Y-142577505D01*
X66484315Y-142659881D01*
X66484307Y-142659887D01*
X66369887Y-142774307D01*
X66369881Y-142774315D01*
X66287504Y-142913607D01*
X66284931Y-142919554D01*
X66240237Y-142973258D01*
X66173603Y-142994274D01*
X66106185Y-142975929D01*
X66096822Y-142969566D01*
X66092331Y-142966204D01*
X66092329Y-142966203D01*
X66092328Y-142966202D01*
X65957482Y-142915908D01*
X65957483Y-142915908D01*
X65897883Y-142909501D01*
X65897881Y-142909500D01*
X65897873Y-142909500D01*
X65897864Y-142909500D01*
X64802129Y-142909500D01*
X64802123Y-142909501D01*
X64742516Y-142915908D01*
X64607671Y-142966202D01*
X64607669Y-142966203D01*
X64497811Y-143048444D01*
X64432347Y-143072861D01*
X64364074Y-143058010D01*
X64314668Y-143008605D01*
X64299500Y-142949177D01*
X64299500Y-142413500D01*
X64319185Y-142346461D01*
X64371989Y-142300706D01*
X64423500Y-142289500D01*
X65625071Y-142289500D01*
X65709615Y-142272682D01*
X65750744Y-142264501D01*
X65869127Y-142215465D01*
X65916528Y-142183793D01*
X65975669Y-142144277D01*
X66818127Y-141301817D01*
X66879450Y-141268333D01*
X66905808Y-141265499D01*
X67348338Y-141265499D01*
X67348344Y-141265499D01*
X67348352Y-141265498D01*
X67348355Y-141265498D01*
X67402760Y-141259940D01*
X67447708Y-141255349D01*
X67608697Y-141202003D01*
X67753044Y-141112968D01*
X67872968Y-140993044D01*
X67962003Y-140848697D01*
X68015349Y-140687708D01*
X68025500Y-140588345D01*
X68025499Y-140381519D01*
X68045183Y-140314480D01*
X68061816Y-140293839D01*
X68095114Y-140260543D01*
X68171775Y-140145811D01*
X68224580Y-140018328D01*
X68241355Y-139933994D01*
X68251500Y-139882996D01*
X68251500Y-137694424D01*
X68224581Y-137559097D01*
X68224580Y-137559096D01*
X68224580Y-137559092D01*
X68171775Y-137431609D01*
X68144307Y-137390500D01*
X68095114Y-137316877D01*
X68095112Y-137316874D01*
X67686818Y-136908580D01*
X67653333Y-136847257D01*
X67650499Y-136820899D01*
X67650499Y-136289998D01*
X67650498Y-136289981D01*
X67639999Y-136187203D01*
X67639998Y-136187200D01*
X67621355Y-136130939D01*
X67584814Y-136020666D01*
X67492712Y-135871344D01*
X67368656Y-135747288D01*
X67219334Y-135655186D01*
X67052797Y-135600001D01*
X67052795Y-135600000D01*
X66950010Y-135589500D01*
X65949998Y-135589500D01*
X65949980Y-135589501D01*
X65847203Y-135600000D01*
X65847200Y-135600001D01*
X65680668Y-135655185D01*
X65680663Y-135655187D01*
X65531342Y-135747289D01*
X65407289Y-135871342D01*
X65315187Y-136020663D01*
X65315185Y-136020668D01*
X65301871Y-136060848D01*
X65260001Y-136187203D01*
X65260001Y-136187204D01*
X65260000Y-136187204D01*
X65249500Y-136289983D01*
X65249500Y-137090001D01*
X65249501Y-137090019D01*
X65260000Y-137192796D01*
X65260002Y-137192803D01*
X65282298Y-137260088D01*
X65284700Y-137329916D01*
X65248968Y-137389958D01*
X65186447Y-137421150D01*
X65116988Y-137413589D01*
X65099500Y-137404632D01*
X65019334Y-137355186D01*
X64852797Y-137300001D01*
X64852795Y-137300000D01*
X64750010Y-137289500D01*
X63749998Y-137289500D01*
X63749980Y-137289501D01*
X63647203Y-137300000D01*
X63647200Y-137300001D01*
X63480668Y-137355185D01*
X63480663Y-137355187D01*
X63331342Y-137447289D01*
X63207289Y-137571342D01*
X63115187Y-137720663D01*
X63115186Y-137720666D01*
X63060001Y-137887203D01*
X63060001Y-137887204D01*
X63060000Y-137887204D01*
X63049500Y-137989983D01*
X63049500Y-138790001D01*
X63049501Y-138790019D01*
X63060000Y-138892796D01*
X63060001Y-138892799D01*
X63115185Y-139059331D01*
X63115187Y-139059336D01*
X63133123Y-139088415D01*
X63202912Y-139201562D01*
X63207289Y-139208657D01*
X63233186Y-139234554D01*
X63266671Y-139295877D01*
X63261687Y-139365569D01*
X63219815Y-139421502D01*
X63210603Y-139427773D01*
X63146956Y-139467031D01*
X63027032Y-139586955D01*
X63027029Y-139586959D01*
X62938001Y-139731294D01*
X62937996Y-139731305D01*
X62884651Y-139892290D01*
X62874500Y-139991647D01*
X62874500Y-140269191D01*
X62854815Y-140336230D01*
X62838181Y-140356872D01*
X62619722Y-140575331D01*
X62619718Y-140575336D01*
X62577885Y-140637947D01*
X62577884Y-140637949D01*
X62563209Y-140659911D01*
X62548535Y-140681872D01*
X62548533Y-140681875D01*
X62499499Y-140800255D01*
X62499497Y-140800261D01*
X62474500Y-140925928D01*
X62474500Y-140925931D01*
X62474500Y-147089069D01*
X62474500Y-147089071D01*
X62474499Y-147089071D01*
X62493273Y-147183448D01*
X62496250Y-147198412D01*
X62499499Y-147214744D01*
X62548535Y-147333127D01*
X62585079Y-147387820D01*
X62619726Y-147439673D01*
X62619727Y-147439674D01*
X67018242Y-151838188D01*
X67051727Y-151899511D01*
X67046743Y-151969203D01*
X67004871Y-152025136D01*
X66978016Y-152040429D01*
X66919273Y-152064762D01*
X66812723Y-152135955D01*
X66044724Y-152903954D01*
X65978902Y-153002466D01*
X65973539Y-153010492D01*
X65973533Y-153010503D01*
X65935373Y-153102630D01*
X65891532Y-153157033D01*
X65825238Y-153179098D01*
X65757538Y-153161819D01*
X65709928Y-153110681D01*
X65699195Y-153079369D01*
X65675502Y-152960261D01*
X65675501Y-152960260D01*
X65675501Y-152960256D01*
X65626465Y-152841873D01*
X65621915Y-152835063D01*
X65555277Y-152735331D01*
X65555275Y-152735329D01*
X65555273Y-152735326D01*
X64064673Y-151244726D01*
X64059977Y-151241588D01*
X63958127Y-151173535D01*
X63839744Y-151124499D01*
X63839738Y-151124497D01*
X63714071Y-151099500D01*
X63714069Y-151099500D01*
X57321515Y-151099500D01*
X57254476Y-151079815D01*
X57208721Y-151027011D01*
X57198777Y-150957853D01*
X57221197Y-150902615D01*
X57270765Y-150834387D01*
X57312287Y-150777238D01*
X57405220Y-150594847D01*
X57468477Y-150400162D01*
X57500500Y-150197980D01*
X57500500Y-149993276D01*
X57483632Y-149886779D01*
X57468477Y-149791093D01*
X57405218Y-149596404D01*
X57353323Y-149494556D01*
X57312287Y-149414018D01*
X57304556Y-149403377D01*
X57191971Y-149248414D01*
X57047213Y-149103656D01*
X56881614Y-148983343D01*
X56875006Y-148979976D01*
X56788917Y-148936111D01*
X56738123Y-148888139D01*
X56721328Y-148820318D01*
X56743865Y-148754183D01*
X56788917Y-148715144D01*
X56881610Y-148667915D01*
X57017503Y-148569184D01*
X57047213Y-148547599D01*
X57047215Y-148547596D01*
X57047219Y-148547594D01*
X57191966Y-148402847D01*
X57191968Y-148402843D01*
X57191971Y-148402841D01*
X57244732Y-148330218D01*
X57312287Y-148237238D01*
X57405220Y-148054847D01*
X57468477Y-147860162D01*
X57500500Y-147657980D01*
X57500500Y-147453276D01*
X57484172Y-147350185D01*
X57468477Y-147251093D01*
X57429039Y-147129716D01*
X57405220Y-147056409D01*
X57405218Y-147056406D01*
X57405218Y-147056404D01*
X57371503Y-146990235D01*
X57312287Y-146874018D01*
X57304556Y-146863377D01*
X57191971Y-146708414D01*
X57047213Y-146563656D01*
X56881613Y-146443343D01*
X56881612Y-146443342D01*
X56881610Y-146443341D01*
X56824653Y-146414319D01*
X56699223Y-146350409D01*
X56504534Y-146287150D01*
X56329995Y-146259506D01*
X56302352Y-146255128D01*
X56097648Y-146255128D01*
X56097643Y-146255128D01*
X55959276Y-146277043D01*
X55889982Y-146268088D01*
X55852197Y-146242251D01*
X49100657Y-139490711D01*
X49067172Y-139429388D01*
X49067689Y-139381245D01*
X49066484Y-139381055D01*
X49100500Y-139166286D01*
X49100500Y-139089808D01*
X49120185Y-139022769D01*
X49172989Y-138977014D01*
X49242147Y-138967070D01*
X49305703Y-138996095D01*
X49312181Y-139002127D01*
X53290953Y-142980900D01*
X53290954Y-142980901D01*
X53290957Y-142980903D01*
X53290959Y-142980905D01*
X53397501Y-143052093D01*
X53515884Y-143101129D01*
X53515888Y-143101129D01*
X53515889Y-143101130D01*
X53641556Y-143126128D01*
X53641559Y-143126128D01*
X55001929Y-143126128D01*
X55068968Y-143145813D01*
X55102245Y-143177241D01*
X55162528Y-143260213D01*
X55208034Y-143322847D01*
X55352786Y-143467599D01*
X55500176Y-143574682D01*
X55518390Y-143587915D01*
X55634607Y-143647131D01*
X55700776Y-143680846D01*
X55700778Y-143680846D01*
X55700781Y-143680848D01*
X55805137Y-143714755D01*
X55895465Y-143744105D01*
X55996557Y-143760116D01*
X56097648Y-143776128D01*
X56097649Y-143776128D01*
X56302351Y-143776128D01*
X56302352Y-143776128D01*
X56504534Y-143744105D01*
X56699219Y-143680848D01*
X56881610Y-143587915D01*
X56974590Y-143520360D01*
X57047213Y-143467599D01*
X57047215Y-143467596D01*
X57047219Y-143467594D01*
X57191966Y-143322847D01*
X57191968Y-143322843D01*
X57191971Y-143322841D01*
X57266087Y-143220827D01*
X57312287Y-143157238D01*
X57405220Y-142974847D01*
X57468477Y-142780162D01*
X57500500Y-142577980D01*
X57500500Y-142373276D01*
X57483272Y-142264502D01*
X57468477Y-142171093D01*
X57422864Y-142030711D01*
X57405220Y-141976409D01*
X57405218Y-141976406D01*
X57405218Y-141976404D01*
X57323833Y-141816679D01*
X57312287Y-141794018D01*
X57297753Y-141774013D01*
X57191971Y-141628414D01*
X57047213Y-141483656D01*
X56881614Y-141363343D01*
X56875006Y-141359976D01*
X56788917Y-141316111D01*
X56738123Y-141268139D01*
X56721328Y-141200318D01*
X56743865Y-141134183D01*
X56788917Y-141095144D01*
X56881610Y-141047915D01*
X56957140Y-140993040D01*
X57047213Y-140927599D01*
X57047215Y-140927596D01*
X57047219Y-140927594D01*
X57191966Y-140782847D01*
X57191968Y-140782843D01*
X57191971Y-140782841D01*
X57265328Y-140681872D01*
X57312287Y-140617238D01*
X57405220Y-140434847D01*
X57468477Y-140240162D01*
X57500500Y-140037980D01*
X57500500Y-139833276D01*
X57468477Y-139631094D01*
X57454135Y-139586955D01*
X57415170Y-139467032D01*
X57405220Y-139436409D01*
X57405218Y-139436406D01*
X57405218Y-139436404D01*
X57369125Y-139365569D01*
X57312287Y-139254018D01*
X57297753Y-139234013D01*
X57191971Y-139088414D01*
X57047213Y-138943656D01*
X56881614Y-138823343D01*
X56875006Y-138819976D01*
X56788917Y-138776111D01*
X56738123Y-138728139D01*
X56721328Y-138660318D01*
X56743865Y-138594183D01*
X56788917Y-138555144D01*
X56881610Y-138507915D01*
X56902770Y-138492541D01*
X57047213Y-138387599D01*
X57047215Y-138387596D01*
X57047219Y-138387594D01*
X57191966Y-138242847D01*
X57191968Y-138242843D01*
X57191971Y-138242841D01*
X57256835Y-138153562D01*
X57312287Y-138077238D01*
X57405220Y-137894847D01*
X57468477Y-137700162D01*
X57500500Y-137497980D01*
X57500500Y-137293276D01*
X57484586Y-137192803D01*
X57468477Y-137091093D01*
X57422864Y-136950711D01*
X57405220Y-136896409D01*
X57405218Y-136896406D01*
X57405218Y-136896404D01*
X57323833Y-136736679D01*
X57312287Y-136714018D01*
X57297753Y-136694013D01*
X57191971Y-136548414D01*
X57047213Y-136403656D01*
X56881614Y-136283343D01*
X56875006Y-136279976D01*
X56788917Y-136236111D01*
X56738123Y-136188139D01*
X56721328Y-136120318D01*
X56743865Y-136054183D01*
X56788917Y-136015144D01*
X56881610Y-135967915D01*
X57014530Y-135871344D01*
X57047213Y-135847599D01*
X57047215Y-135847596D01*
X57047219Y-135847594D01*
X57191966Y-135702847D01*
X57191968Y-135702843D01*
X57191971Y-135702841D01*
X57274316Y-135589501D01*
X57312287Y-135537238D01*
X57405220Y-135354847D01*
X57468477Y-135160162D01*
X57500500Y-134957980D01*
X57500500Y-134753276D01*
X57468477Y-134551094D01*
X57405220Y-134356409D01*
X57405218Y-134356406D01*
X57405218Y-134356404D01*
X57371503Y-134290235D01*
X57312287Y-134174018D01*
X57288009Y-134140602D01*
X57191971Y-134008414D01*
X57047213Y-133863656D01*
X56881613Y-133743343D01*
X56881612Y-133743342D01*
X56881610Y-133743341D01*
X56824653Y-133714319D01*
X56699223Y-133650409D01*
X56504534Y-133587150D01*
X56329995Y-133559506D01*
X56302352Y-133555128D01*
X56097648Y-133555128D01*
X56073329Y-133558979D01*
X55895465Y-133587150D01*
X55700776Y-133650409D01*
X55518386Y-133743343D01*
X55352786Y-133863656D01*
X55208034Y-134008408D01*
X55178180Y-134049500D01*
X55102246Y-134154014D01*
X55046918Y-134196679D01*
X55001929Y-134205128D01*
X54026436Y-134205128D01*
X53959397Y-134185443D01*
X53938755Y-134168809D01*
X49100657Y-129330711D01*
X49067172Y-129269388D01*
X49067689Y-129221245D01*
X49066484Y-129221055D01*
X49100500Y-129006286D01*
X49100500Y-128929808D01*
X49120185Y-128862769D01*
X49172989Y-128817014D01*
X49242147Y-128807070D01*
X49305703Y-128836095D01*
X49312181Y-128842127D01*
X50750952Y-130280899D01*
X50750953Y-130280900D01*
X50750956Y-130280902D01*
X50750958Y-130280904D01*
X50842204Y-130341872D01*
X50842206Y-130341874D01*
X50851375Y-130347999D01*
X50857501Y-130352093D01*
X50975884Y-130401129D01*
X50975888Y-130401129D01*
X50975889Y-130401130D01*
X51101556Y-130426128D01*
X51101559Y-130426128D01*
X55001929Y-130426128D01*
X55068968Y-130445813D01*
X55102245Y-130477241D01*
X55170480Y-130571158D01*
X55208034Y-130622847D01*
X55352786Y-130767599D01*
X55507749Y-130880184D01*
X55518390Y-130887915D01*
X55634607Y-130947131D01*
X55700776Y-130980846D01*
X55700778Y-130980846D01*
X55700781Y-130980848D01*
X55805137Y-131014755D01*
X55895465Y-131044105D01*
X55996557Y-131060116D01*
X56097648Y-131076128D01*
X56097649Y-131076128D01*
X56302351Y-131076128D01*
X56302352Y-131076128D01*
X56504534Y-131044105D01*
X56699219Y-130980848D01*
X56881610Y-130887915D01*
X56980015Y-130816420D01*
X57047213Y-130767599D01*
X57047215Y-130767596D01*
X57047219Y-130767594D01*
X57191966Y-130622847D01*
X57191968Y-130622843D01*
X57191971Y-130622841D01*
X57256835Y-130533562D01*
X57312287Y-130457238D01*
X57405220Y-130274847D01*
X57468477Y-130080162D01*
X57500500Y-129877980D01*
X57500500Y-129673276D01*
X57468477Y-129471094D01*
X57405220Y-129276409D01*
X57405218Y-129276406D01*
X57405218Y-129276404D01*
X57340876Y-129150127D01*
X57312287Y-129094018D01*
X57297753Y-129074013D01*
X57191971Y-128928414D01*
X57047213Y-128783656D01*
X56881614Y-128663343D01*
X56875006Y-128659976D01*
X56788917Y-128616111D01*
X56738123Y-128568139D01*
X56721328Y-128500318D01*
X56743865Y-128434183D01*
X56788917Y-128395144D01*
X56881610Y-128347915D01*
X56902770Y-128332541D01*
X57047213Y-128227599D01*
X57047215Y-128227596D01*
X57047219Y-128227594D01*
X57191966Y-128082847D01*
X57191968Y-128082843D01*
X57191971Y-128082841D01*
X57256835Y-127993562D01*
X57312287Y-127917238D01*
X57405220Y-127734847D01*
X57468477Y-127540162D01*
X57500500Y-127337980D01*
X57500500Y-127133276D01*
X57468477Y-126931094D01*
X57405220Y-126736409D01*
X57405218Y-126736406D01*
X57405218Y-126736404D01*
X57361094Y-126649807D01*
X57312287Y-126554018D01*
X57285625Y-126517320D01*
X57191971Y-126388414D01*
X57047213Y-126243656D01*
X56881614Y-126123343D01*
X56875006Y-126119976D01*
X56788917Y-126076111D01*
X56738123Y-126028139D01*
X56721328Y-125960318D01*
X56743865Y-125894183D01*
X56788917Y-125855144D01*
X56881610Y-125807915D01*
X56902770Y-125792541D01*
X57047213Y-125687599D01*
X57047215Y-125687596D01*
X57047219Y-125687594D01*
X57191966Y-125542847D01*
X57191968Y-125542843D01*
X57191971Y-125542841D01*
X57256835Y-125453562D01*
X57312287Y-125377238D01*
X57405220Y-125194847D01*
X57468477Y-125000162D01*
X57500500Y-124797980D01*
X57500500Y-124593276D01*
X57489224Y-124522082D01*
X57468477Y-124391093D01*
X57422864Y-124250711D01*
X57405220Y-124196409D01*
X57405218Y-124196406D01*
X57405218Y-124196404D01*
X57371503Y-124130235D01*
X57312287Y-124014018D01*
X57286272Y-123978211D01*
X57191971Y-123848414D01*
X57047213Y-123703656D01*
X56881614Y-123583343D01*
X56875006Y-123579976D01*
X56788917Y-123536111D01*
X56738123Y-123488139D01*
X56721328Y-123420318D01*
X56743865Y-123354183D01*
X56788917Y-123315144D01*
X56881610Y-123267915D01*
X56902770Y-123252541D01*
X57047213Y-123147599D01*
X57047215Y-123147596D01*
X57047219Y-123147594D01*
X57191966Y-123002847D01*
X57191968Y-123002843D01*
X57191971Y-123002841D01*
X57244732Y-122930218D01*
X57312287Y-122837238D01*
X57405220Y-122654847D01*
X57468477Y-122460162D01*
X57500500Y-122257980D01*
X57500500Y-122053276D01*
X57468477Y-121851094D01*
X57405220Y-121656409D01*
X57405218Y-121656406D01*
X57405218Y-121656404D01*
X57323833Y-121496679D01*
X57312287Y-121474018D01*
X57297753Y-121454013D01*
X57191971Y-121308414D01*
X57047213Y-121163656D01*
X56881613Y-121043343D01*
X56881612Y-121043342D01*
X56881610Y-121043341D01*
X56824653Y-121014319D01*
X56699223Y-120950409D01*
X56504534Y-120887150D01*
X56329995Y-120859506D01*
X56302352Y-120855128D01*
X56097648Y-120855128D01*
X56073329Y-120858979D01*
X55895465Y-120887150D01*
X55700776Y-120950409D01*
X55518386Y-121043343D01*
X55352786Y-121163656D01*
X55208034Y-121308408D01*
X55151597Y-121386088D01*
X55102246Y-121454014D01*
X55046918Y-121496679D01*
X55001929Y-121505128D01*
X51486436Y-121505128D01*
X51419397Y-121485443D01*
X51398755Y-121468809D01*
X49100657Y-119170711D01*
X49067172Y-119109388D01*
X49067689Y-119061245D01*
X49066484Y-119061055D01*
X49100500Y-118846286D01*
X49100500Y-118633713D01*
X49091027Y-118573906D01*
X49067246Y-118423757D01*
X49001557Y-118221588D01*
X48905051Y-118032184D01*
X48905049Y-118032181D01*
X48905048Y-118032179D01*
X48780109Y-117860213D01*
X48629786Y-117709890D01*
X48457820Y-117584951D01*
X48268414Y-117488444D01*
X48268413Y-117488443D01*
X48268412Y-117488443D01*
X48066243Y-117422754D01*
X48066241Y-117422753D01*
X48066240Y-117422753D01*
X47904957Y-117397208D01*
X47856287Y-117389500D01*
X47643713Y-117389500D01*
X47595042Y-117397208D01*
X47433760Y-117422753D01*
X47231585Y-117488444D01*
X47042179Y-117584951D01*
X46870213Y-117709890D01*
X46719890Y-117860213D01*
X46594951Y-118032179D01*
X46498444Y-118221585D01*
X46432753Y-118423760D01*
X46407191Y-118585152D01*
X46399500Y-118633713D01*
X46399500Y-118846287D01*
X46432754Y-119056243D01*
X46475834Y-119188830D01*
X46498444Y-119258414D01*
X46594951Y-119447820D01*
X46719890Y-119619786D01*
X46870213Y-119770109D01*
X47042182Y-119895050D01*
X47050946Y-119899516D01*
X47101742Y-119947491D01*
X47118536Y-120015312D01*
X47095998Y-120081447D01*
X47050946Y-120120484D01*
X47042182Y-120124949D01*
X46870213Y-120249890D01*
X46719890Y-120400213D01*
X46594951Y-120572179D01*
X46498444Y-120761585D01*
X46432753Y-120963760D01*
X46401093Y-121163656D01*
X46399500Y-121173713D01*
X46399500Y-121386287D01*
X46432754Y-121596243D01*
X46452303Y-121656409D01*
X46498444Y-121798414D01*
X46594951Y-121987820D01*
X46719890Y-122159786D01*
X46870213Y-122310109D01*
X47042182Y-122435050D01*
X47050946Y-122439516D01*
X47101742Y-122487491D01*
X47118536Y-122555312D01*
X47095998Y-122621447D01*
X47050946Y-122660484D01*
X47042182Y-122664949D01*
X46870213Y-122789890D01*
X46719890Y-122940213D01*
X46594951Y-123112179D01*
X46498444Y-123301585D01*
X46432753Y-123503760D01*
X46401093Y-123703656D01*
X46399500Y-123713713D01*
X46399500Y-123926287D01*
X46432754Y-124136243D01*
X46460235Y-124220821D01*
X46498444Y-124338414D01*
X46594951Y-124527820D01*
X46719890Y-124699786D01*
X46870213Y-124850109D01*
X47042182Y-124975050D01*
X47050946Y-124979516D01*
X47101742Y-125027491D01*
X47118536Y-125095312D01*
X47095998Y-125161447D01*
X47050946Y-125200484D01*
X47042182Y-125204949D01*
X46870213Y-125329890D01*
X46719890Y-125480213D01*
X46594951Y-125652179D01*
X46498444Y-125841585D01*
X46432753Y-126043760D01*
X46399500Y-126253713D01*
X46399500Y-126466286D01*
X46414679Y-126562126D01*
X46432754Y-126676243D01*
X46452303Y-126736409D01*
X46498444Y-126878414D01*
X46594951Y-127067820D01*
X46719890Y-127239786D01*
X46870213Y-127390109D01*
X47042182Y-127515050D01*
X47050946Y-127519516D01*
X47101742Y-127567491D01*
X47118536Y-127635312D01*
X47095998Y-127701447D01*
X47050946Y-127740484D01*
X47042182Y-127744949D01*
X46870213Y-127869890D01*
X46719890Y-128020213D01*
X46594951Y-128192179D01*
X46498444Y-128381585D01*
X46432753Y-128583760D01*
X46399500Y-128793713D01*
X46399500Y-129006286D01*
X46430048Y-129199163D01*
X46432754Y-129216243D01*
X46452303Y-129276409D01*
X46498444Y-129418414D01*
X46594951Y-129607820D01*
X46719890Y-129779786D01*
X46870213Y-129930109D01*
X47042182Y-130055050D01*
X47050946Y-130059516D01*
X47101742Y-130107491D01*
X47118536Y-130175312D01*
X47095998Y-130241447D01*
X47050946Y-130280484D01*
X47042182Y-130284949D01*
X46870213Y-130409890D01*
X46719890Y-130560213D01*
X46594951Y-130732179D01*
X46498444Y-130921585D01*
X46432753Y-131123760D01*
X46426967Y-131160292D01*
X46399500Y-131333713D01*
X46399500Y-131546287D01*
X46432754Y-131756243D01*
X46434379Y-131761245D01*
X46498444Y-131958414D01*
X46594951Y-132147820D01*
X46719890Y-132319786D01*
X46870213Y-132470109D01*
X47042182Y-132595050D01*
X47050946Y-132599516D01*
X47101742Y-132647491D01*
X47118536Y-132715312D01*
X47095998Y-132781447D01*
X47050946Y-132820484D01*
X47042182Y-132824949D01*
X46870213Y-132949890D01*
X46719890Y-133100213D01*
X46594951Y-133272179D01*
X46498444Y-133461585D01*
X46432753Y-133663760D01*
X46399500Y-133873713D01*
X46399500Y-134086286D01*
X46421978Y-134228210D01*
X46432754Y-134296243D01*
X46452303Y-134356409D01*
X46498444Y-134498414D01*
X46594951Y-134687820D01*
X46719890Y-134859786D01*
X46870213Y-135010109D01*
X47042182Y-135135050D01*
X47050946Y-135139516D01*
X47101742Y-135187491D01*
X47118536Y-135255312D01*
X47095998Y-135321447D01*
X47050946Y-135360484D01*
X47042182Y-135364949D01*
X46870213Y-135489890D01*
X46719890Y-135640213D01*
X46594951Y-135812179D01*
X46498444Y-136001585D01*
X46432753Y-136203760D01*
X46399500Y-136413713D01*
X46399500Y-136626286D01*
X46430323Y-136820899D01*
X46432754Y-136836243D01*
X46452303Y-136896409D01*
X46498444Y-137038414D01*
X46594951Y-137227820D01*
X46719890Y-137399786D01*
X46870213Y-137550109D01*
X47042182Y-137675050D01*
X47050946Y-137679516D01*
X47101742Y-137727491D01*
X47118536Y-137795312D01*
X47095998Y-137861447D01*
X47050946Y-137900484D01*
X47042182Y-137904949D01*
X46870213Y-138029890D01*
X46719890Y-138180213D01*
X46594951Y-138352179D01*
X46498444Y-138541585D01*
X46432753Y-138743760D01*
X46399500Y-138953713D01*
X46399500Y-139166286D01*
X46424582Y-139324651D01*
X46432754Y-139376243D01*
X46462253Y-139467032D01*
X46498444Y-139578414D01*
X46594951Y-139767820D01*
X46719890Y-139939786D01*
X46870213Y-140090109D01*
X47042182Y-140215050D01*
X47050946Y-140219516D01*
X47101742Y-140267491D01*
X47118536Y-140335312D01*
X47095998Y-140401447D01*
X47050946Y-140440484D01*
X47042182Y-140444949D01*
X46870213Y-140569890D01*
X46719890Y-140720213D01*
X46594951Y-140892179D01*
X46498444Y-141081585D01*
X46432753Y-141283760D01*
X46401093Y-141483656D01*
X46399500Y-141493713D01*
X46399500Y-141706287D01*
X46432754Y-141916243D01*
X46452303Y-141976409D01*
X46498444Y-142118414D01*
X46594951Y-142307820D01*
X46719890Y-142479786D01*
X46870213Y-142630109D01*
X47042182Y-142755050D01*
X47050946Y-142759516D01*
X47101742Y-142807491D01*
X47118536Y-142875312D01*
X47095998Y-142941447D01*
X47050946Y-142980484D01*
X47042182Y-142984949D01*
X46870213Y-143109890D01*
X46719890Y-143260213D01*
X46594951Y-143432179D01*
X46498444Y-143621585D01*
X46432753Y-143823760D01*
X46408137Y-143979179D01*
X46399500Y-144033713D01*
X46399500Y-144246287D01*
X46402919Y-144267873D01*
X46417492Y-144359887D01*
X46432754Y-144456243D01*
X46483884Y-144613605D01*
X46498444Y-144658414D01*
X46594951Y-144847820D01*
X46719890Y-145019786D01*
X46870213Y-145170109D01*
X47042182Y-145295050D01*
X47050946Y-145299516D01*
X47101742Y-145347491D01*
X47118536Y-145415312D01*
X47095998Y-145481447D01*
X47050946Y-145520484D01*
X47042182Y-145524949D01*
X46870213Y-145649890D01*
X46719890Y-145800213D01*
X46594951Y-145972179D01*
X46498444Y-146161585D01*
X46432753Y-146363760D01*
X46401093Y-146563656D01*
X46399500Y-146573713D01*
X46399500Y-146786287D01*
X46432754Y-146996243D01*
X46496047Y-147191039D01*
X46498444Y-147198414D01*
X46594951Y-147387820D01*
X46719890Y-147559786D01*
X46870213Y-147710109D01*
X47042182Y-147835050D01*
X47050946Y-147839516D01*
X47101742Y-147887491D01*
X47118536Y-147955312D01*
X47095998Y-148021447D01*
X47050946Y-148060484D01*
X47042182Y-148064949D01*
X46870213Y-148189890D01*
X46719890Y-148340213D01*
X46594951Y-148512179D01*
X46498444Y-148701585D01*
X46432753Y-148903760D01*
X46399500Y-149113713D01*
X46399500Y-149326286D01*
X46431885Y-149530761D01*
X46432754Y-149536243D01*
X46452303Y-149596409D01*
X46498444Y-149738414D01*
X46594951Y-149927820D01*
X46719890Y-150099786D01*
X46870213Y-150250109D01*
X47042182Y-150375050D01*
X47050946Y-150379516D01*
X47101742Y-150427491D01*
X47118536Y-150495312D01*
X47095998Y-150561447D01*
X47050946Y-150600484D01*
X47042182Y-150604949D01*
X46870213Y-150729890D01*
X46719890Y-150880213D01*
X46594951Y-151052179D01*
X46498444Y-151241585D01*
X46432753Y-151443760D01*
X46399500Y-151653713D01*
X46399500Y-151866286D01*
X46430935Y-152064762D01*
X46432754Y-152076243D01*
X46434379Y-152081245D01*
X46498444Y-152278414D01*
X46594951Y-152467820D01*
X46719890Y-152639786D01*
X46870213Y-152790109D01*
X47042182Y-152915050D01*
X47050946Y-152919516D01*
X47101742Y-152967491D01*
X47118536Y-153035312D01*
X47095998Y-153101447D01*
X47050946Y-153140484D01*
X47042182Y-153144949D01*
X46870213Y-153269890D01*
X46719890Y-153420213D01*
X46594951Y-153592179D01*
X46498444Y-153781585D01*
X46498443Y-153781587D01*
X46498443Y-153781588D01*
X46486115Y-153819530D01*
X46432753Y-153983760D01*
X46409774Y-154128844D01*
X46399500Y-154193713D01*
X46399500Y-154406287D01*
X46432754Y-154616243D01*
X46493906Y-154804450D01*
X46498444Y-154818414D01*
X46594951Y-155007820D01*
X46719890Y-155179786D01*
X46870213Y-155330109D01*
X47042182Y-155455050D01*
X47050946Y-155459516D01*
X47101742Y-155507491D01*
X47118536Y-155575312D01*
X47095998Y-155641447D01*
X47050946Y-155680484D01*
X47042182Y-155684949D01*
X46870213Y-155809890D01*
X46719890Y-155960213D01*
X46594951Y-156132179D01*
X46498444Y-156321585D01*
X46432753Y-156523760D01*
X46401389Y-156721786D01*
X46399500Y-156733713D01*
X46399500Y-156946287D01*
X46432754Y-157156243D01*
X46474514Y-157284767D01*
X46498444Y-157358414D01*
X46594951Y-157547820D01*
X46719890Y-157719786D01*
X46870213Y-157870109D01*
X47042182Y-157995050D01*
X47050946Y-157999516D01*
X47101742Y-158047491D01*
X47118536Y-158115312D01*
X47095998Y-158181447D01*
X47050946Y-158220484D01*
X47042182Y-158224949D01*
X46870213Y-158349890D01*
X46719890Y-158500213D01*
X46594951Y-158672179D01*
X46498444Y-158861585D01*
X46432753Y-159063760D01*
X46399500Y-159273713D01*
X46399500Y-159486286D01*
X46425214Y-159648642D01*
X46432754Y-159696243D01*
X46490998Y-159875500D01*
X46498444Y-159898414D01*
X46594951Y-160087820D01*
X46719890Y-160259786D01*
X46870213Y-160410109D01*
X47042182Y-160535050D01*
X47050946Y-160539516D01*
X47101742Y-160587491D01*
X47118536Y-160655312D01*
X47095998Y-160721447D01*
X47050946Y-160760484D01*
X47042182Y-160764949D01*
X46870213Y-160889890D01*
X46719890Y-161040213D01*
X46594951Y-161212179D01*
X46498444Y-161401585D01*
X46432753Y-161603760D01*
X46399500Y-161813713D01*
X46399500Y-162026286D01*
X46432753Y-162236239D01*
X46498444Y-162438414D01*
X46594951Y-162627820D01*
X46719890Y-162799786D01*
X46870213Y-162950109D01*
X47042179Y-163075048D01*
X47042181Y-163075049D01*
X47042184Y-163075051D01*
X47231588Y-163171557D01*
X47433757Y-163237246D01*
X47643713Y-163270500D01*
X47643714Y-163270500D01*
X47856286Y-163270500D01*
X47856287Y-163270500D01*
X48066243Y-163237246D01*
X48096517Y-163227408D01*
X48166354Y-163225412D01*
X48182270Y-163230771D01*
X48290256Y-163275501D01*
X48290260Y-163275501D01*
X48290261Y-163275502D01*
X48415928Y-163300500D01*
X48415931Y-163300500D01*
X60750502Y-163300500D01*
X60817541Y-163320185D01*
X60863296Y-163372989D01*
X60865063Y-163377047D01*
X60922302Y-163515233D01*
X60967790Y-163574514D01*
X60992984Y-163639683D01*
X60978946Y-163708127D01*
X60967793Y-163725482D01*
X60941850Y-163759291D01*
X60922300Y-163784769D01*
X60864313Y-163924763D01*
X60864313Y-163924764D01*
X60849500Y-164037272D01*
X60849500Y-164262727D01*
X60864313Y-164375235D01*
X60864313Y-164375236D01*
X60915499Y-164498811D01*
X60922302Y-164515233D01*
X61014549Y-164635451D01*
X61134767Y-164727698D01*
X61134770Y-164727699D01*
X61134771Y-164727700D01*
X61274634Y-164785633D01*
X61329038Y-164829474D01*
X61348799Y-164876003D01*
X61355261Y-164908489D01*
X61355264Y-164908501D01*
X61415602Y-165054172D01*
X61415609Y-165054185D01*
X61503210Y-165185288D01*
X61503213Y-165185292D01*
X61614707Y-165296786D01*
X61614711Y-165296789D01*
X61745814Y-165384390D01*
X61745827Y-165384397D01*
X61891498Y-165444735D01*
X61891503Y-165444737D01*
X62046153Y-165475499D01*
X62046156Y-165475500D01*
X62046158Y-165475500D01*
X62203844Y-165475500D01*
X62203845Y-165475499D01*
X62358497Y-165444737D01*
X62504179Y-165384394D01*
X62635289Y-165296789D01*
X62746789Y-165185289D01*
X62834394Y-165054179D01*
X62894737Y-164908497D01*
X62901200Y-164876002D01*
X62933583Y-164814093D01*
X62975362Y-164785634D01*
X63115233Y-164727698D01*
X63200014Y-164662642D01*
X63265182Y-164637448D01*
X63333627Y-164651486D01*
X63383617Y-164700299D01*
X63399500Y-164761018D01*
X63399500Y-166812727D01*
X63414313Y-166925235D01*
X63414313Y-166925236D01*
X63466554Y-167051358D01*
X63472302Y-167065233D01*
X63564549Y-167185451D01*
X63684767Y-167277698D01*
X63684770Y-167277699D01*
X63684771Y-167277700D01*
X63745271Y-167302759D01*
X63822953Y-167334936D01*
X63877356Y-167378776D01*
X63899421Y-167445071D01*
X63899500Y-167449497D01*
X63899500Y-169920672D01*
X63879815Y-169987711D01*
X63863181Y-170008353D01*
X63509353Y-170362181D01*
X63448030Y-170395666D01*
X63421672Y-170398500D01*
X60128409Y-170398500D01*
X60002741Y-170423497D01*
X60002731Y-170423500D01*
X59953700Y-170443810D01*
X59884361Y-170472530D01*
X59884343Y-170472540D01*
X59777812Y-170543721D01*
X59777805Y-170543727D01*
X58886681Y-171434852D01*
X58825358Y-171468337D01*
X58755666Y-171463353D01*
X58699733Y-171421481D01*
X58675316Y-171356017D01*
X58675000Y-171347171D01*
X58675000Y-169025000D01*
X56675000Y-169025000D01*
X56675000Y-171525000D01*
X58497171Y-171525000D01*
X58564210Y-171544685D01*
X58609965Y-171597489D01*
X58619909Y-171666647D01*
X58590884Y-171730203D01*
X58584852Y-171736681D01*
X56159353Y-174162181D01*
X56098030Y-174195666D01*
X56071672Y-174198500D01*
X54599000Y-174198500D01*
X54531961Y-174178815D01*
X54486206Y-174126011D01*
X54475000Y-174074500D01*
X54475000Y-166049499D01*
X54494685Y-165982460D01*
X54547489Y-165936705D01*
X54598995Y-165925499D01*
X55700500Y-165925499D01*
X55767539Y-165945184D01*
X55813294Y-165997988D01*
X55824500Y-166049497D01*
X55824500Y-166122869D01*
X55824501Y-166122876D01*
X55830908Y-166182483D01*
X55881202Y-166317328D01*
X55881206Y-166317335D01*
X55967452Y-166432544D01*
X55967455Y-166432547D01*
X56082664Y-166518793D01*
X56082671Y-166518797D01*
X56217517Y-166569091D01*
X56217516Y-166569091D01*
X56224444Y-166569835D01*
X56277127Y-166575500D01*
X57372872Y-166575499D01*
X57432483Y-166569091D01*
X57567331Y-166518796D01*
X57682546Y-166432546D01*
X57768796Y-166317331D01*
X57819091Y-166182483D01*
X57825500Y-166122873D01*
X57825499Y-164577128D01*
X57819091Y-164517517D01*
X57809743Y-164492455D01*
X57768797Y-164382671D01*
X57768793Y-164382664D01*
X57682547Y-164267455D01*
X57682544Y-164267452D01*
X57567335Y-164181206D01*
X57567328Y-164181202D01*
X57432482Y-164130908D01*
X57432483Y-164130908D01*
X57372883Y-164124501D01*
X57372881Y-164124500D01*
X57372873Y-164124500D01*
X57372864Y-164124500D01*
X56277129Y-164124500D01*
X56277120Y-164124501D01*
X56213248Y-164131367D01*
X56186742Y-164131367D01*
X56182483Y-164130909D01*
X56122873Y-164124500D01*
X56122865Y-164124500D01*
X54527129Y-164124500D01*
X54527123Y-164124501D01*
X54467516Y-164130908D01*
X54332671Y-164181202D01*
X54332664Y-164181206D01*
X54217455Y-164267452D01*
X54217452Y-164267455D01*
X54131206Y-164382664D01*
X54131202Y-164382671D01*
X54080908Y-164517517D01*
X54074501Y-164577116D01*
X54074501Y-164577123D01*
X54074500Y-164577135D01*
X54074500Y-165472870D01*
X54074501Y-165472876D01*
X54080908Y-165532483D01*
X54131202Y-165667328D01*
X54131206Y-165667335D01*
X54217452Y-165782544D01*
X54217455Y-165782547D01*
X54309876Y-165851734D01*
X54351747Y-165907668D01*
X54356731Y-165977359D01*
X54323245Y-166038682D01*
X54261922Y-166072166D01*
X54235565Y-166075000D01*
X52475000Y-166075000D01*
X52475000Y-168890802D01*
X52455315Y-168957841D01*
X52402511Y-169003596D01*
X52333353Y-169013540D01*
X52269797Y-168984515D01*
X52232023Y-168925737D01*
X52229383Y-168914994D01*
X52219738Y-168866508D01*
X52219737Y-168866507D01*
X52219737Y-168866503D01*
X52181932Y-168775233D01*
X52159397Y-168720827D01*
X52159390Y-168720814D01*
X52071789Y-168589711D01*
X52071786Y-168589707D01*
X51960292Y-168478213D01*
X51960288Y-168478210D01*
X51829185Y-168390609D01*
X51829172Y-168390602D01*
X51683501Y-168330264D01*
X51683489Y-168330261D01*
X51528845Y-168299500D01*
X51528842Y-168299500D01*
X51371158Y-168299500D01*
X51371155Y-168299500D01*
X51216510Y-168330261D01*
X51216498Y-168330264D01*
X51070827Y-168390602D01*
X51070814Y-168390609D01*
X50939711Y-168478210D01*
X50939707Y-168478213D01*
X50828213Y-168589707D01*
X50828210Y-168589711D01*
X50740609Y-168720814D01*
X50740602Y-168720827D01*
X50680264Y-168866498D01*
X50680261Y-168866508D01*
X50666920Y-168933580D01*
X50658155Y-168950335D01*
X50654136Y-168968814D01*
X50635390Y-168993855D01*
X50634535Y-168995491D01*
X50632985Y-168997069D01*
X50541871Y-169088182D01*
X50480551Y-169121666D01*
X50454192Y-169124500D01*
X48937320Y-169124500D01*
X48870281Y-169104815D01*
X48838052Y-169074809D01*
X48832548Y-169067457D01*
X48832546Y-169067454D01*
X48770703Y-169021158D01*
X48717335Y-168981206D01*
X48717328Y-168981202D01*
X48582482Y-168930908D01*
X48582483Y-168930908D01*
X48522883Y-168924501D01*
X48522881Y-168924500D01*
X48522873Y-168924500D01*
X48522864Y-168924500D01*
X46677129Y-168924500D01*
X46677123Y-168924501D01*
X46617516Y-168930908D01*
X46482671Y-168981202D01*
X46482664Y-168981206D01*
X46367455Y-169067452D01*
X46367452Y-169067455D01*
X46281206Y-169182664D01*
X46281202Y-169182671D01*
X46230908Y-169317517D01*
X46224501Y-169377116D01*
X46224500Y-169377135D01*
X46224500Y-170172870D01*
X46224501Y-170172876D01*
X46230908Y-170232482D01*
X46249253Y-170281666D01*
X46254237Y-170351358D01*
X46249253Y-170368331D01*
X46230909Y-170417514D01*
X46230908Y-170417516D01*
X46224501Y-170477116D01*
X46224500Y-170477135D01*
X46224500Y-171272870D01*
X46224501Y-171272876D01*
X46230908Y-171332482D01*
X46249253Y-171381666D01*
X46254237Y-171451358D01*
X46249253Y-171468331D01*
X46230909Y-171517514D01*
X46230908Y-171517516D01*
X46224501Y-171577116D01*
X46224500Y-171577135D01*
X46224500Y-172372870D01*
X46224501Y-172372876D01*
X46230908Y-172432482D01*
X46249253Y-172481666D01*
X46254237Y-172551358D01*
X46249253Y-172568331D01*
X46230909Y-172617514D01*
X46230908Y-172617516D01*
X46224501Y-172677116D01*
X46224500Y-172677135D01*
X46224500Y-173472870D01*
X46224501Y-173472876D01*
X46230908Y-173532482D01*
X46242890Y-173564606D01*
X46244617Y-173569238D01*
X46249253Y-173581666D01*
X46254237Y-173651358D01*
X46249253Y-173668331D01*
X46230909Y-173717514D01*
X46230908Y-173717516D01*
X46224501Y-173777116D01*
X46224500Y-173777135D01*
X46224500Y-174572870D01*
X46224501Y-174572876D01*
X46230908Y-174632483D01*
X46281202Y-174767328D01*
X46281206Y-174767335D01*
X46367452Y-174882544D01*
X46367455Y-174882547D01*
X46482664Y-174968793D01*
X46482671Y-174968797D01*
X46617517Y-175019091D01*
X46617516Y-175019091D01*
X46624444Y-175019835D01*
X46677127Y-175025500D01*
X48522872Y-175025499D01*
X48582483Y-175019091D01*
X48717331Y-174968796D01*
X48832546Y-174882546D01*
X48918796Y-174767331D01*
X48927590Y-174743750D01*
X48969460Y-174687817D01*
X49034923Y-174663398D01*
X49103197Y-174678248D01*
X49131454Y-174699401D01*
X50287325Y-175855272D01*
X50287332Y-175855278D01*
X50379945Y-175917160D01*
X50379949Y-175917161D01*
X50379950Y-175917162D01*
X50393873Y-175926465D01*
X50512256Y-175975501D01*
X50512260Y-175975501D01*
X50512261Y-175975502D01*
X50637928Y-176000500D01*
X54813429Y-176000500D01*
X54880468Y-176020185D01*
X54926223Y-176072989D01*
X54936167Y-176142147D01*
X54912695Y-176198811D01*
X54831206Y-176307664D01*
X54831202Y-176307671D01*
X54780908Y-176442517D01*
X54774501Y-176502116D01*
X54774501Y-176502123D01*
X54774500Y-176502135D01*
X54774500Y-177397870D01*
X54774501Y-177397876D01*
X54780908Y-177457483D01*
X54808764Y-177532167D01*
X54813748Y-177601859D01*
X54780263Y-177663182D01*
X54718939Y-177696666D01*
X54692585Y-177699500D01*
X54651664Y-177699500D01*
X54651644Y-177699501D01*
X54552292Y-177709650D01*
X54552289Y-177709651D01*
X54391305Y-177762996D01*
X54391294Y-177763001D01*
X54240809Y-177855823D01*
X54239131Y-177853103D01*
X54187534Y-177873909D01*
X54175440Y-177874500D01*
X51326874Y-177874500D01*
X51259835Y-177854815D01*
X51239193Y-177838181D01*
X51153044Y-177752032D01*
X51153040Y-177752029D01*
X51008705Y-177663001D01*
X51008699Y-177662998D01*
X51008697Y-177662997D01*
X51008694Y-177662996D01*
X50847709Y-177609651D01*
X50748346Y-177599500D01*
X50201662Y-177599500D01*
X50201644Y-177599501D01*
X50102292Y-177609650D01*
X50102289Y-177609651D01*
X49941305Y-177662996D01*
X49941294Y-177663001D01*
X49796959Y-177752029D01*
X49796955Y-177752032D01*
X49677032Y-177871955D01*
X49677029Y-177871959D01*
X49588001Y-178016294D01*
X49587996Y-178016305D01*
X49534651Y-178177290D01*
X49524500Y-178276647D01*
X49524500Y-178873337D01*
X49524501Y-178873355D01*
X49534650Y-178972707D01*
X49534651Y-178972710D01*
X49587996Y-179133694D01*
X49588001Y-179133705D01*
X49677029Y-179278040D01*
X49677032Y-179278044D01*
X49686807Y-179287819D01*
X49720292Y-179349142D01*
X49715308Y-179418834D01*
X49673436Y-179474767D01*
X49607972Y-179499184D01*
X49599126Y-179499500D01*
X45874500Y-179499500D01*
X45807461Y-179479815D01*
X45761706Y-179427011D01*
X45750500Y-179375500D01*
X45750500Y-175827135D01*
X46474500Y-175827135D01*
X46474500Y-177422870D01*
X46474501Y-177422876D01*
X46480908Y-177482483D01*
X46531202Y-177617328D01*
X46531206Y-177617335D01*
X46617452Y-177732544D01*
X46617455Y-177732547D01*
X46732664Y-177818793D01*
X46732671Y-177818797D01*
X46867517Y-177869091D01*
X46867516Y-177869091D01*
X46874444Y-177869835D01*
X46927127Y-177875500D01*
X48522872Y-177875499D01*
X48582483Y-177869091D01*
X48717331Y-177818796D01*
X48832546Y-177732546D01*
X48918796Y-177617331D01*
X48969091Y-177482483D01*
X48975500Y-177422873D01*
X48975499Y-175827128D01*
X48969091Y-175767517D01*
X48927311Y-175655500D01*
X48918797Y-175632671D01*
X48918793Y-175632664D01*
X48832547Y-175517455D01*
X48832544Y-175517452D01*
X48717335Y-175431206D01*
X48717328Y-175431202D01*
X48582482Y-175380908D01*
X48582483Y-175380908D01*
X48522883Y-175374501D01*
X48522881Y-175374500D01*
X48522873Y-175374500D01*
X48522864Y-175374500D01*
X46927129Y-175374500D01*
X46927123Y-175374501D01*
X46867516Y-175380908D01*
X46732671Y-175431202D01*
X46732664Y-175431206D01*
X46617455Y-175517452D01*
X46617452Y-175517455D01*
X46531206Y-175632664D01*
X46531202Y-175632671D01*
X46480908Y-175767517D01*
X46474501Y-175827116D01*
X46474501Y-175827123D01*
X46474500Y-175827135D01*
X45750500Y-175827135D01*
X45750500Y-166077135D01*
X46224500Y-166077135D01*
X46224500Y-166872870D01*
X46224501Y-166872876D01*
X46230908Y-166932482D01*
X46249253Y-166981666D01*
X46254237Y-167051358D01*
X46249253Y-167068331D01*
X46230909Y-167117514D01*
X46230908Y-167117516D01*
X46224501Y-167177116D01*
X46224500Y-167177135D01*
X46224500Y-167972870D01*
X46224501Y-167972876D01*
X46230908Y-168032483D01*
X46281202Y-168167328D01*
X46281206Y-168167335D01*
X46367452Y-168282544D01*
X46367455Y-168282547D01*
X46482664Y-168368793D01*
X46482671Y-168368797D01*
X46617517Y-168419091D01*
X46617516Y-168419091D01*
X46623507Y-168419735D01*
X46677127Y-168425500D01*
X48522872Y-168425499D01*
X48582483Y-168419091D01*
X48717331Y-168368796D01*
X48832546Y-168282546D01*
X48838052Y-168275191D01*
X48841708Y-168272453D01*
X48843607Y-168268297D01*
X48869424Y-168251705D01*
X48893985Y-168233319D01*
X48899614Y-168232303D01*
X48902385Y-168230523D01*
X48937320Y-168225500D01*
X49092059Y-168225500D01*
X49159098Y-168245185D01*
X49179740Y-168261819D01*
X49189707Y-168271786D01*
X49189711Y-168271789D01*
X49320814Y-168359390D01*
X49320827Y-168359397D01*
X49396181Y-168390609D01*
X49466503Y-168419737D01*
X49621153Y-168450499D01*
X49621156Y-168450500D01*
X49621158Y-168450500D01*
X49778844Y-168450500D01*
X49778845Y-168450499D01*
X49933497Y-168419737D01*
X50079179Y-168359394D01*
X50210289Y-168271789D01*
X50321789Y-168160289D01*
X50409394Y-168029179D01*
X50469737Y-167883497D01*
X50500500Y-167728842D01*
X50500500Y-167571158D01*
X50500500Y-167571155D01*
X50500499Y-167571153D01*
X50489144Y-167514069D01*
X50469737Y-167416503D01*
X50442398Y-167350500D01*
X50409397Y-167270827D01*
X50409390Y-167270814D01*
X50321789Y-167139711D01*
X50321786Y-167139707D01*
X50210292Y-167028213D01*
X50210288Y-167028210D01*
X50079185Y-166940609D01*
X50079172Y-166940602D01*
X49933501Y-166880264D01*
X49933489Y-166880261D01*
X49778845Y-166849500D01*
X49778842Y-166849500D01*
X49621158Y-166849500D01*
X49621155Y-166849500D01*
X49466510Y-166880261D01*
X49466498Y-166880264D01*
X49382492Y-166915061D01*
X49374315Y-166916687D01*
X49369975Y-166919477D01*
X49335040Y-166924500D01*
X49099500Y-166924500D01*
X49032461Y-166904815D01*
X48986706Y-166852011D01*
X48975500Y-166800500D01*
X48975499Y-166077128D01*
X48975498Y-166077111D01*
X48971320Y-166038253D01*
X48971320Y-166011747D01*
X48975500Y-165972873D01*
X48975499Y-164577128D01*
X48969091Y-164517517D01*
X48959743Y-164492455D01*
X48918797Y-164382671D01*
X48918793Y-164382664D01*
X48832547Y-164267455D01*
X48832544Y-164267452D01*
X48717335Y-164181206D01*
X48717328Y-164181202D01*
X48582482Y-164130908D01*
X48582483Y-164130908D01*
X48522883Y-164124501D01*
X48522881Y-164124500D01*
X48522873Y-164124500D01*
X48522864Y-164124500D01*
X46927129Y-164124500D01*
X46927123Y-164124501D01*
X46867516Y-164130908D01*
X46732671Y-164181202D01*
X46732664Y-164181206D01*
X46617455Y-164267452D01*
X46617452Y-164267455D01*
X46531206Y-164382664D01*
X46531202Y-164382671D01*
X46480908Y-164517517D01*
X46474501Y-164577116D01*
X46474501Y-164577123D01*
X46474500Y-164577135D01*
X46474500Y-165625248D01*
X46454815Y-165692287D01*
X46424812Y-165724514D01*
X46367457Y-165767450D01*
X46367451Y-165767457D01*
X46281206Y-165882664D01*
X46281202Y-165882671D01*
X46230908Y-166017517D01*
X46224501Y-166077116D01*
X46224500Y-166077135D01*
X45750500Y-166077135D01*
X45750500Y-113553713D01*
X46399500Y-113553713D01*
X46399500Y-113766287D01*
X46432754Y-113976243D01*
X46452303Y-114036409D01*
X46498444Y-114178414D01*
X46594951Y-114367820D01*
X46719890Y-114539786D01*
X46870213Y-114690109D01*
X47042179Y-114815048D01*
X47042181Y-114815049D01*
X47042184Y-114815051D01*
X47231588Y-114911557D01*
X47433757Y-114977246D01*
X47643713Y-115010500D01*
X47643714Y-115010500D01*
X47856286Y-115010500D01*
X47856287Y-115010500D01*
X48066243Y-114977246D01*
X48268412Y-114911557D01*
X48457816Y-114815051D01*
X48479789Y-114799086D01*
X48629786Y-114690109D01*
X48629788Y-114690106D01*
X48629792Y-114690104D01*
X48780104Y-114539792D01*
X48780106Y-114539788D01*
X48780109Y-114539786D01*
X48905048Y-114367820D01*
X48905047Y-114367820D01*
X48905051Y-114367816D01*
X49001557Y-114178412D01*
X49067246Y-113976243D01*
X49100500Y-113766287D01*
X49100500Y-113553713D01*
X49067246Y-113343757D01*
X49001557Y-113141588D01*
X48905051Y-112952184D01*
X48905049Y-112952181D01*
X48905048Y-112952179D01*
X48780109Y-112780213D01*
X48629786Y-112629890D01*
X48457820Y-112504951D01*
X48268414Y-112408444D01*
X48268413Y-112408443D01*
X48268412Y-112408443D01*
X48066243Y-112342754D01*
X48066241Y-112342753D01*
X48066240Y-112342753D01*
X47904957Y-112317208D01*
X47856287Y-112309500D01*
X47643713Y-112309500D01*
X47595042Y-112317208D01*
X47433760Y-112342753D01*
X47231585Y-112408444D01*
X47042179Y-112504951D01*
X46870213Y-112629890D01*
X46719890Y-112780213D01*
X46594951Y-112952179D01*
X46498444Y-113141585D01*
X46432753Y-113343760D01*
X46401093Y-113543656D01*
X46399500Y-113553713D01*
X45750500Y-113553713D01*
X45750500Y-108473713D01*
X46399500Y-108473713D01*
X46399500Y-108686287D01*
X46432754Y-108896243D01*
X46452303Y-108956409D01*
X46498444Y-109098414D01*
X46594951Y-109287820D01*
X46719890Y-109459786D01*
X46870213Y-109610109D01*
X47042179Y-109735048D01*
X47042181Y-109735049D01*
X47042184Y-109735051D01*
X47231588Y-109831557D01*
X47433757Y-109897246D01*
X47643713Y-109930500D01*
X47643714Y-109930500D01*
X47856286Y-109930500D01*
X47856287Y-109930500D01*
X48066243Y-109897246D01*
X48268412Y-109831557D01*
X48457816Y-109735051D01*
X48479789Y-109719086D01*
X48629786Y-109610109D01*
X48629788Y-109610106D01*
X48629792Y-109610104D01*
X48780104Y-109459792D01*
X48780106Y-109459788D01*
X48780109Y-109459786D01*
X48857492Y-109353276D01*
X54899500Y-109353276D01*
X54899500Y-109557979D01*
X54931522Y-109760162D01*
X54994781Y-109954851D01*
X55087715Y-110137241D01*
X55208028Y-110302841D01*
X55352786Y-110447599D01*
X55507749Y-110560184D01*
X55518390Y-110567915D01*
X55584477Y-110601588D01*
X55611080Y-110615143D01*
X55661876Y-110663118D01*
X55678671Y-110730939D01*
X55656134Y-110797074D01*
X55611080Y-110836113D01*
X55518386Y-110883343D01*
X55352786Y-111003656D01*
X55208028Y-111148414D01*
X55087715Y-111314014D01*
X54994781Y-111496404D01*
X54931522Y-111691093D01*
X54899500Y-111893276D01*
X54899500Y-112097979D01*
X54931522Y-112300162D01*
X54994781Y-112494851D01*
X55087715Y-112677241D01*
X55208028Y-112842841D01*
X55352786Y-112987599D01*
X55507749Y-113100184D01*
X55518390Y-113107915D01*
X55584477Y-113141588D01*
X55611080Y-113155143D01*
X55661876Y-113203118D01*
X55678671Y-113270939D01*
X55656134Y-113337074D01*
X55611080Y-113376113D01*
X55518386Y-113423343D01*
X55352786Y-113543656D01*
X55208028Y-113688414D01*
X55087715Y-113854014D01*
X54994781Y-114036404D01*
X54931522Y-114231093D01*
X54899500Y-114433276D01*
X54899500Y-114637979D01*
X54931522Y-114840162D01*
X54994781Y-115034851D01*
X55087715Y-115217241D01*
X55208028Y-115382841D01*
X55352786Y-115527599D01*
X55507749Y-115640184D01*
X55518390Y-115647915D01*
X55584477Y-115681588D01*
X55611080Y-115695143D01*
X55661876Y-115743118D01*
X55678671Y-115810939D01*
X55656134Y-115877074D01*
X55611080Y-115916113D01*
X55518386Y-115963343D01*
X55352786Y-116083656D01*
X55208028Y-116228414D01*
X55087715Y-116394014D01*
X54994781Y-116576404D01*
X54931522Y-116771093D01*
X54899500Y-116973276D01*
X54899500Y-117177979D01*
X54931522Y-117380162D01*
X54994781Y-117574851D01*
X55087715Y-117757241D01*
X55208028Y-117922841D01*
X55352786Y-118067599D01*
X55505221Y-118178347D01*
X55518390Y-118187915D01*
X55603754Y-118231410D01*
X55700776Y-118280846D01*
X55700778Y-118280846D01*
X55700781Y-118280848D01*
X55789748Y-118309755D01*
X55895465Y-118344105D01*
X55923896Y-118348608D01*
X56097648Y-118376128D01*
X56097649Y-118376128D01*
X56302351Y-118376128D01*
X56302352Y-118376128D01*
X56504534Y-118344105D01*
X56699219Y-118280848D01*
X56881610Y-118187915D01*
X56974590Y-118120360D01*
X57047213Y-118067599D01*
X57047215Y-118067596D01*
X57047219Y-118067594D01*
X57191966Y-117922847D01*
X57191968Y-117922843D01*
X57191971Y-117922841D01*
X57244732Y-117850218D01*
X57312287Y-117757238D01*
X57405220Y-117574847D01*
X57468477Y-117380162D01*
X57500500Y-117177980D01*
X57500500Y-116973276D01*
X57468477Y-116771094D01*
X57405220Y-116576409D01*
X57405218Y-116576406D01*
X57405218Y-116576404D01*
X57326694Y-116422294D01*
X57312287Y-116394018D01*
X57297753Y-116374013D01*
X57191971Y-116228414D01*
X57047213Y-116083656D01*
X56881614Y-115963343D01*
X56875006Y-115959976D01*
X56788917Y-115916111D01*
X56738123Y-115868139D01*
X56721328Y-115800318D01*
X56743865Y-115734183D01*
X56788917Y-115695144D01*
X56881610Y-115647915D01*
X56902770Y-115632541D01*
X57047213Y-115527599D01*
X57047215Y-115527596D01*
X57047219Y-115527594D01*
X57191966Y-115382847D01*
X57191968Y-115382843D01*
X57191971Y-115382841D01*
X57244732Y-115310218D01*
X57312287Y-115217238D01*
X57405220Y-115034847D01*
X57468477Y-114840162D01*
X57500500Y-114637980D01*
X57500500Y-114433276D01*
X57490132Y-114367816D01*
X57468477Y-114231093D01*
X57407648Y-114043883D01*
X57405220Y-114036409D01*
X57405218Y-114036406D01*
X57405218Y-114036404D01*
X57371503Y-113970235D01*
X57312287Y-113854018D01*
X57304556Y-113843377D01*
X57191971Y-113688414D01*
X57047213Y-113543656D01*
X56881614Y-113423343D01*
X56875006Y-113419976D01*
X56788917Y-113376111D01*
X56738123Y-113328139D01*
X56721328Y-113260318D01*
X56743865Y-113194183D01*
X56788917Y-113155144D01*
X56881610Y-113107915D01*
X56902770Y-113092541D01*
X57047213Y-112987599D01*
X57047215Y-112987596D01*
X57047219Y-112987594D01*
X57191966Y-112842847D01*
X57191968Y-112842843D01*
X57191971Y-112842841D01*
X57244732Y-112770218D01*
X57312287Y-112677238D01*
X57405220Y-112494847D01*
X57468477Y-112300162D01*
X57500500Y-112097980D01*
X57500500Y-111893276D01*
X57468477Y-111691094D01*
X57405220Y-111496409D01*
X57405218Y-111496406D01*
X57405218Y-111496404D01*
X57371503Y-111430235D01*
X57312287Y-111314018D01*
X57304556Y-111303377D01*
X57191971Y-111148414D01*
X57047213Y-111003656D01*
X56881614Y-110883343D01*
X56875006Y-110879976D01*
X56788917Y-110836111D01*
X56738123Y-110788139D01*
X56721328Y-110720318D01*
X56743865Y-110654183D01*
X56788917Y-110615144D01*
X56881610Y-110567915D01*
X56902770Y-110552541D01*
X57047213Y-110447599D01*
X57047215Y-110447596D01*
X57047219Y-110447594D01*
X57191966Y-110302847D01*
X57191968Y-110302843D01*
X57191971Y-110302841D01*
X57244732Y-110230218D01*
X57312287Y-110137238D01*
X57405220Y-109954847D01*
X57468477Y-109760162D01*
X57500500Y-109557980D01*
X57500500Y-109353276D01*
X57468477Y-109151094D01*
X57405220Y-108956409D01*
X57405218Y-108956406D01*
X57405218Y-108956404D01*
X57371503Y-108890235D01*
X57312287Y-108774018D01*
X57304556Y-108763377D01*
X57191971Y-108608414D01*
X57047213Y-108463656D01*
X56881613Y-108343343D01*
X56881612Y-108343342D01*
X56881610Y-108343341D01*
X56824653Y-108314319D01*
X56699223Y-108250409D01*
X56504534Y-108187150D01*
X56329995Y-108159506D01*
X56302352Y-108155128D01*
X56097648Y-108155128D01*
X56073329Y-108158979D01*
X55895465Y-108187150D01*
X55700776Y-108250409D01*
X55518386Y-108343343D01*
X55352786Y-108463656D01*
X55208028Y-108608414D01*
X55087715Y-108774014D01*
X54994781Y-108956404D01*
X54931522Y-109151093D01*
X54899500Y-109353276D01*
X48857492Y-109353276D01*
X48905047Y-109287822D01*
X48905047Y-109287820D01*
X48905051Y-109287816D01*
X49001557Y-109098412D01*
X49067246Y-108896243D01*
X49100500Y-108686287D01*
X49100500Y-108473713D01*
X49067246Y-108263757D01*
X49001557Y-108061588D01*
X48905051Y-107872184D01*
X48905049Y-107872181D01*
X48905048Y-107872179D01*
X48780109Y-107700213D01*
X48629786Y-107549890D01*
X48457820Y-107424951D01*
X48268414Y-107328444D01*
X48268413Y-107328443D01*
X48268412Y-107328443D01*
X48066243Y-107262754D01*
X48066241Y-107262753D01*
X48066240Y-107262753D01*
X47904957Y-107237208D01*
X47856287Y-107229500D01*
X47643713Y-107229500D01*
X47595042Y-107237208D01*
X47433760Y-107262753D01*
X47231585Y-107328444D01*
X47042179Y-107424951D01*
X46870213Y-107549890D01*
X46719890Y-107700213D01*
X46594951Y-107872179D01*
X46498444Y-108061585D01*
X46432753Y-108263760D01*
X46401093Y-108463656D01*
X46399500Y-108473713D01*
X45750500Y-108473713D01*
X45750500Y-100624500D01*
X45770185Y-100557461D01*
X45822989Y-100511706D01*
X45874500Y-100500500D01*
X55045108Y-100500500D01*
X55112147Y-100520185D01*
G37*
%TD.AperFunction*%
%TA.AperFunction,Conductor*%
G36*
X84692539Y-100520185D02*
G01*
X84738294Y-100572989D01*
X84749500Y-100624500D01*
X84749500Y-179375500D01*
X84729815Y-179442539D01*
X84677011Y-179488294D01*
X84625500Y-179499500D01*
X55870228Y-179499500D01*
X55803189Y-179479815D01*
X55757434Y-179427011D01*
X55747490Y-179357853D01*
X55764690Y-179310402D01*
X55812003Y-179233697D01*
X55865349Y-179072708D01*
X55875500Y-178973345D01*
X55875499Y-178376656D01*
X55871992Y-178342328D01*
X55865349Y-178277292D01*
X55865348Y-178277289D01*
X55842216Y-178207482D01*
X55812003Y-178116303D01*
X55764688Y-178039595D01*
X55746249Y-177972204D01*
X55767171Y-177905540D01*
X55820813Y-177860770D01*
X55870228Y-177850499D01*
X56722871Y-177850499D01*
X56722872Y-177850499D01*
X56782483Y-177844091D01*
X56917331Y-177793796D01*
X57032546Y-177707546D01*
X57118796Y-177592331D01*
X57169091Y-177457483D01*
X57175500Y-177397873D01*
X57175499Y-176752135D01*
X70449500Y-176752135D01*
X70449500Y-178147870D01*
X70449501Y-178147876D01*
X70455908Y-178207483D01*
X70506202Y-178342328D01*
X70506206Y-178342335D01*
X70592452Y-178457544D01*
X70592455Y-178457547D01*
X70707664Y-178543793D01*
X70707671Y-178543797D01*
X70842517Y-178594091D01*
X70842516Y-178594091D01*
X70849444Y-178594835D01*
X70902127Y-178600500D01*
X71997872Y-178600499D01*
X72057483Y-178594091D01*
X72192331Y-178543796D01*
X72307546Y-178457546D01*
X72393796Y-178342331D01*
X72444091Y-178207483D01*
X72450500Y-178147873D01*
X72450499Y-176752128D01*
X72444091Y-176692517D01*
X72393796Y-176557669D01*
X72393795Y-176557668D01*
X72393793Y-176557664D01*
X72307547Y-176442455D01*
X72307544Y-176442452D01*
X72192335Y-176356206D01*
X72192328Y-176356202D01*
X72057482Y-176305908D01*
X72057483Y-176305908D01*
X71997883Y-176299501D01*
X71997881Y-176299500D01*
X71997873Y-176299500D01*
X71997864Y-176299500D01*
X70902129Y-176299500D01*
X70902123Y-176299501D01*
X70842516Y-176305908D01*
X70707671Y-176356202D01*
X70707664Y-176356206D01*
X70592455Y-176442452D01*
X70592452Y-176442455D01*
X70506206Y-176557664D01*
X70506202Y-176557671D01*
X70455908Y-176692517D01*
X70450196Y-176745649D01*
X70449501Y-176752123D01*
X70449500Y-176752135D01*
X57175499Y-176752135D01*
X57175499Y-176502128D01*
X57169091Y-176442517D01*
X57136898Y-176356204D01*
X57118797Y-176307671D01*
X57118793Y-176307664D01*
X57032547Y-176192455D01*
X56926406Y-176112997D01*
X56884536Y-176057063D01*
X56879552Y-175987371D01*
X56913038Y-175926049D01*
X56931823Y-175910631D01*
X57014669Y-175855277D01*
X60162819Y-172707125D01*
X60224142Y-172673641D01*
X60293834Y-172678625D01*
X60349767Y-172720497D01*
X60374184Y-172785961D01*
X60374500Y-172794807D01*
X60374500Y-173331613D01*
X60380913Y-173402192D01*
X60380913Y-173402194D01*
X60380914Y-173402196D01*
X60431522Y-173564606D01*
X60519528Y-173710185D01*
X60639815Y-173830472D01*
X60639817Y-173830473D01*
X60646108Y-173834276D01*
X60693297Y-173885803D01*
X60705249Y-173953647D01*
X60699500Y-174007127D01*
X60699500Y-174007128D01*
X60699500Y-174007132D01*
X60699500Y-175202870D01*
X60699501Y-175202876D01*
X60705908Y-175262483D01*
X60756202Y-175397328D01*
X60756206Y-175397335D01*
X60842452Y-175512544D01*
X60842455Y-175512547D01*
X60957664Y-175598793D01*
X60957671Y-175598797D01*
X61092517Y-175649091D01*
X61092516Y-175649091D01*
X61099444Y-175649835D01*
X61152127Y-175655500D01*
X63047872Y-175655499D01*
X63107483Y-175649091D01*
X63242331Y-175598796D01*
X63357546Y-175512546D01*
X63443796Y-175397331D01*
X63494091Y-175262483D01*
X63500500Y-175202873D01*
X63500499Y-174007128D01*
X63494750Y-173953647D01*
X63507157Y-173884888D01*
X63553892Y-173834276D01*
X63560185Y-173830472D01*
X63680472Y-173710185D01*
X63768478Y-173564606D01*
X63819086Y-173402196D01*
X63825500Y-173331616D01*
X63825500Y-172668384D01*
X63819086Y-172597804D01*
X63768478Y-172435394D01*
X63740219Y-172388649D01*
X63722384Y-172321095D01*
X63743902Y-172254621D01*
X63797942Y-172210334D01*
X63846337Y-172200500D01*
X64014071Y-172200500D01*
X64098615Y-172183682D01*
X64139744Y-172175501D01*
X64258127Y-172126465D01*
X64302816Y-172096605D01*
X64364669Y-172055277D01*
X68555277Y-167864669D01*
X68626466Y-167758126D01*
X68656618Y-167685331D01*
X68660939Y-167674900D01*
X68704779Y-167620496D01*
X68771073Y-167598431D01*
X68838773Y-167615710D01*
X68886384Y-167666847D01*
X68899500Y-167722352D01*
X68899500Y-168209044D01*
X68903773Y-168230523D01*
X68914121Y-168282547D01*
X68923612Y-168330256D01*
X68923613Y-168330268D01*
X68923614Y-168330268D01*
X68924498Y-168334715D01*
X68924500Y-168334721D01*
X68973533Y-168453099D01*
X69044726Y-168559647D01*
X69044727Y-168559648D01*
X72552276Y-172067196D01*
X72585761Y-172128519D01*
X72580777Y-172198211D01*
X72538905Y-172254144D01*
X72475819Y-172278368D01*
X72464678Y-172279380D01*
X72447804Y-172280914D01*
X72339530Y-172314652D01*
X72285393Y-172331522D01*
X72139811Y-172419530D01*
X72139810Y-172419531D01*
X72037681Y-172521661D01*
X71976358Y-172555146D01*
X71906666Y-172550162D01*
X71862319Y-172521661D01*
X71760188Y-172419530D01*
X71737656Y-172405909D01*
X71614606Y-172331522D01*
X71452196Y-172280914D01*
X71452194Y-172280913D01*
X71452192Y-172280913D01*
X71402778Y-172276423D01*
X71381616Y-172274500D01*
X70868384Y-172274500D01*
X70849145Y-172276248D01*
X70797807Y-172280913D01*
X70635391Y-172331523D01*
X70485483Y-172422145D01*
X70417929Y-172439981D01*
X70378001Y-172432210D01*
X70307482Y-172405908D01*
X70307483Y-172405908D01*
X70247883Y-172399501D01*
X70247881Y-172399500D01*
X70247873Y-172399500D01*
X70247864Y-172399500D01*
X69152129Y-172399500D01*
X69152123Y-172399501D01*
X69092516Y-172405908D01*
X68957671Y-172456202D01*
X68957664Y-172456206D01*
X68842455Y-172542452D01*
X68842452Y-172542455D01*
X68756206Y-172657664D01*
X68756202Y-172657671D01*
X68705908Y-172792517D01*
X68699501Y-172852116D01*
X68699500Y-172852135D01*
X68699500Y-174247870D01*
X68699501Y-174247876D01*
X68705908Y-174307483D01*
X68756202Y-174442328D01*
X68756206Y-174442335D01*
X68842452Y-174557544D01*
X68842455Y-174557547D01*
X68957664Y-174643793D01*
X68957671Y-174643797D01*
X69092517Y-174694091D01*
X69092516Y-174694091D01*
X69096107Y-174694477D01*
X69152127Y-174700500D01*
X70247872Y-174700499D01*
X70307483Y-174694091D01*
X70442331Y-174643796D01*
X70557546Y-174557546D01*
X70643796Y-174442331D01*
X70644208Y-174441228D01*
X70696286Y-174301597D01*
X70738156Y-174245663D01*
X70803621Y-174221245D01*
X70823684Y-174221437D01*
X70868384Y-174225500D01*
X70868388Y-174225500D01*
X71381613Y-174225500D01*
X71381616Y-174225500D01*
X71452196Y-174219086D01*
X71614606Y-174168478D01*
X71760185Y-174080472D01*
X71788110Y-174052547D01*
X71862319Y-173978339D01*
X71923642Y-173944854D01*
X71993334Y-173949838D01*
X72037681Y-173978339D01*
X72139811Y-174080469D01*
X72139813Y-174080470D01*
X72139815Y-174080472D01*
X72285394Y-174168478D01*
X72447804Y-174219086D01*
X72518384Y-174225500D01*
X72518387Y-174225500D01*
X73031613Y-174225500D01*
X73031616Y-174225500D01*
X73102196Y-174219086D01*
X73264606Y-174168478D01*
X73410185Y-174080472D01*
X73530472Y-173960185D01*
X73618478Y-173814606D01*
X73669086Y-173652196D01*
X73675500Y-173581616D01*
X73675500Y-173489782D01*
X73695185Y-173422743D01*
X73747989Y-173376988D01*
X73817147Y-173367044D01*
X73880703Y-173396069D01*
X73887181Y-173402101D01*
X74665351Y-174180272D01*
X74665352Y-174180273D01*
X74665355Y-174180275D01*
X74665357Y-174180277D01*
X74694488Y-174199741D01*
X74739292Y-174253352D01*
X74748000Y-174322677D01*
X74747215Y-174327033D01*
X74724500Y-174441234D01*
X74724500Y-174608771D01*
X74757182Y-174773074D01*
X74757185Y-174773086D01*
X74810810Y-174902548D01*
X74818279Y-174972017D01*
X74810810Y-174997452D01*
X74757185Y-175126913D01*
X74757182Y-175126925D01*
X74724500Y-175291228D01*
X74724500Y-175458771D01*
X74757182Y-175623074D01*
X74757185Y-175623086D01*
X74810810Y-175752548D01*
X74818279Y-175822017D01*
X74810810Y-175847452D01*
X74757185Y-175976913D01*
X74757182Y-175976925D01*
X74724500Y-176141228D01*
X74724500Y-176308771D01*
X74757182Y-176473074D01*
X74757184Y-176473082D01*
X74821295Y-176627860D01*
X74914373Y-176767162D01*
X75032837Y-176885626D01*
X75125494Y-176947537D01*
X75172137Y-176978703D01*
X75326918Y-177042816D01*
X75491228Y-177075499D01*
X75491232Y-177075500D01*
X75491233Y-177075500D01*
X75658768Y-177075500D01*
X75658769Y-177075499D01*
X75823082Y-177042816D01*
X75977863Y-176978703D01*
X76117162Y-176885626D01*
X76162318Y-176840470D01*
X76223641Y-176806984D01*
X76293332Y-176811968D01*
X76337682Y-176840470D01*
X76382834Y-176885623D01*
X76382837Y-176885626D01*
X76475494Y-176947537D01*
X76522137Y-176978703D01*
X76676918Y-177042816D01*
X76841228Y-177075499D01*
X76841232Y-177075500D01*
X76841233Y-177075500D01*
X77008768Y-177075500D01*
X77008769Y-177075499D01*
X77173082Y-177042816D01*
X77327863Y-176978703D01*
X77467162Y-176885626D01*
X77585626Y-176767162D01*
X77678703Y-176627863D01*
X77742816Y-176473082D01*
X77775500Y-176308767D01*
X77775500Y-176141233D01*
X77742816Y-175976918D01*
X77689188Y-175847451D01*
X77681720Y-175777984D01*
X77689189Y-175752547D01*
X77742816Y-175623082D01*
X77775500Y-175458767D01*
X77775500Y-175291233D01*
X77742816Y-175126918D01*
X77689188Y-174997451D01*
X77681720Y-174927984D01*
X77689189Y-174902547D01*
X77742816Y-174773082D01*
X77775500Y-174608767D01*
X77775500Y-174441233D01*
X77742816Y-174276918D01*
X77689188Y-174147451D01*
X77681720Y-174077984D01*
X77689189Y-174052547D01*
X77742816Y-173923082D01*
X77775500Y-173758767D01*
X77775500Y-173591233D01*
X77742816Y-173426918D01*
X77689188Y-173297451D01*
X77681720Y-173227984D01*
X77689189Y-173202547D01*
X77742816Y-173073082D01*
X77775500Y-172908767D01*
X77775500Y-172741233D01*
X77742816Y-172576918D01*
X77689188Y-172447451D01*
X77681720Y-172377984D01*
X77689189Y-172352547D01*
X77742816Y-172223082D01*
X77775500Y-172058767D01*
X77775500Y-171891233D01*
X77742816Y-171726918D01*
X77680770Y-171577127D01*
X77678704Y-171572139D01*
X77585626Y-171432837D01*
X77467162Y-171314373D01*
X77327860Y-171221295D01*
X77173082Y-171157184D01*
X77173074Y-171157182D01*
X77008771Y-171124500D01*
X77008767Y-171124500D01*
X76841233Y-171124500D01*
X76841228Y-171124500D01*
X76676925Y-171157182D01*
X76676917Y-171157184D01*
X76522139Y-171221295D01*
X76382837Y-171314373D01*
X76382834Y-171314376D01*
X76337681Y-171359530D01*
X76276358Y-171393015D01*
X76206666Y-171388031D01*
X76162319Y-171359530D01*
X76117162Y-171314373D01*
X75977860Y-171221295D01*
X75823082Y-171157184D01*
X75823074Y-171157182D01*
X75658771Y-171124500D01*
X75658767Y-171124500D01*
X75491233Y-171124500D01*
X75491228Y-171124500D01*
X75326925Y-171157182D01*
X75326917Y-171157184D01*
X75172139Y-171221295D01*
X75032837Y-171314373D01*
X74914376Y-171432834D01*
X74914373Y-171432838D01*
X74903254Y-171449478D01*
X74849639Y-171494280D01*
X74780314Y-171502984D01*
X74717288Y-171472827D01*
X74712474Y-171468263D01*
X72206392Y-168962181D01*
X72172907Y-168900858D01*
X72177891Y-168831166D01*
X72219763Y-168775233D01*
X72285227Y-168750816D01*
X72294073Y-168750500D01*
X72914071Y-168750500D01*
X72998615Y-168733682D01*
X73039744Y-168725501D01*
X73158127Y-168676465D01*
X73197361Y-168650250D01*
X73264669Y-168605277D01*
X73980276Y-167889670D01*
X74015870Y-167836398D01*
X74051464Y-167783129D01*
X74051465Y-167783127D01*
X74100501Y-167664744D01*
X74105608Y-167639069D01*
X74119117Y-167571158D01*
X74125500Y-167539070D01*
X74125500Y-164920727D01*
X74145185Y-164853688D01*
X74197989Y-164807933D01*
X74233311Y-164797789D01*
X74325236Y-164785687D01*
X74465233Y-164727698D01*
X74585451Y-164635451D01*
X74677698Y-164515233D01*
X74734937Y-164377047D01*
X74778778Y-164322644D01*
X74845072Y-164300579D01*
X74849498Y-164300500D01*
X79238429Y-164300500D01*
X79305468Y-164320185D01*
X79351223Y-164372989D01*
X79361167Y-164442147D01*
X79337695Y-164498811D01*
X79256206Y-164607664D01*
X79256202Y-164607671D01*
X79205908Y-164742517D01*
X79199501Y-164802116D01*
X79199501Y-164802123D01*
X79199500Y-164802135D01*
X79199500Y-165597870D01*
X79199501Y-165597876D01*
X79205908Y-165657482D01*
X79218890Y-165692287D01*
X79224252Y-165706665D01*
X79224253Y-165706666D01*
X79229237Y-165776358D01*
X79224253Y-165793331D01*
X79205909Y-165842514D01*
X79205908Y-165842516D01*
X79199501Y-165902116D01*
X79199501Y-165902123D01*
X79199500Y-165902135D01*
X79199500Y-166697870D01*
X79199501Y-166697876D01*
X79205908Y-166757482D01*
X79215944Y-166784390D01*
X79224252Y-166806665D01*
X79224253Y-166806666D01*
X79229237Y-166876358D01*
X79224253Y-166893331D01*
X79205909Y-166942514D01*
X79205908Y-166942516D01*
X79199501Y-167002116D01*
X79199501Y-167002123D01*
X79199500Y-167002135D01*
X79199500Y-167797870D01*
X79199501Y-167797876D01*
X79205908Y-167857483D01*
X79256202Y-167992328D01*
X79256206Y-167992335D01*
X79342452Y-168107544D01*
X79342455Y-168107547D01*
X79457664Y-168193793D01*
X79457671Y-168193797D01*
X79592517Y-168244091D01*
X79592516Y-168244091D01*
X79599444Y-168244835D01*
X79652127Y-168250500D01*
X81047872Y-168250499D01*
X81107483Y-168244091D01*
X81242331Y-168193796D01*
X81357546Y-168107546D01*
X81443796Y-167992331D01*
X81494091Y-167857483D01*
X81500500Y-167797873D01*
X81500499Y-167002128D01*
X81494091Y-166942517D01*
X81487371Y-166924500D01*
X81475747Y-166893334D01*
X81470762Y-166823643D01*
X81475747Y-166806665D01*
X81494091Y-166757483D01*
X81500500Y-166697873D01*
X81500499Y-165902128D01*
X81494091Y-165842517D01*
X81475747Y-165793334D01*
X81470762Y-165723643D01*
X81475747Y-165706665D01*
X81494089Y-165657488D01*
X81494091Y-165657483D01*
X81500500Y-165597873D01*
X81500499Y-164802128D01*
X81494091Y-164742517D01*
X81488564Y-164727699D01*
X81443797Y-164607671D01*
X81443793Y-164607664D01*
X81357547Y-164492455D01*
X81292640Y-164443865D01*
X81250770Y-164387931D01*
X81245786Y-164318239D01*
X81279272Y-164256917D01*
X81319502Y-164230037D01*
X81328127Y-164226465D01*
X81352386Y-164210256D01*
X81434669Y-164155277D01*
X82319288Y-163270656D01*
X82380611Y-163237172D01*
X82428754Y-163237688D01*
X82428945Y-163236484D01*
X82533888Y-163253105D01*
X82643713Y-163270500D01*
X82643714Y-163270500D01*
X82856286Y-163270500D01*
X82856287Y-163270500D01*
X83066243Y-163237246D01*
X83268412Y-163171557D01*
X83457816Y-163075051D01*
X83561804Y-162999500D01*
X83629786Y-162950109D01*
X83629788Y-162950106D01*
X83629792Y-162950104D01*
X83780104Y-162799792D01*
X83780106Y-162799788D01*
X83780109Y-162799786D01*
X83905048Y-162627820D01*
X83905047Y-162627820D01*
X83905051Y-162627816D01*
X84001557Y-162438412D01*
X84067246Y-162236243D01*
X84100500Y-162026287D01*
X84100500Y-161813713D01*
X84067246Y-161603757D01*
X84001557Y-161401588D01*
X83905051Y-161212184D01*
X83905049Y-161212181D01*
X83905048Y-161212179D01*
X83780109Y-161040213D01*
X83629786Y-160889890D01*
X83457820Y-160764951D01*
X83453441Y-160762720D01*
X83449054Y-160760485D01*
X83398259Y-160712512D01*
X83381463Y-160644692D01*
X83403999Y-160578556D01*
X83449054Y-160539515D01*
X83457816Y-160535051D01*
X83479789Y-160519086D01*
X83629786Y-160410109D01*
X83629788Y-160410106D01*
X83629792Y-160410104D01*
X83780104Y-160259792D01*
X83780106Y-160259788D01*
X83780109Y-160259786D01*
X83905048Y-160087820D01*
X83905047Y-160087820D01*
X83905051Y-160087816D01*
X84001557Y-159898412D01*
X84067246Y-159696243D01*
X84100500Y-159486287D01*
X84100500Y-159273713D01*
X84067246Y-159063757D01*
X84001557Y-158861588D01*
X83905051Y-158672184D01*
X83905049Y-158672181D01*
X83905048Y-158672179D01*
X83780109Y-158500213D01*
X83629786Y-158349890D01*
X83457820Y-158224951D01*
X83457115Y-158224591D01*
X83449054Y-158220485D01*
X83398259Y-158172512D01*
X83381463Y-158104692D01*
X83403999Y-158038556D01*
X83449054Y-157999515D01*
X83457816Y-157995051D01*
X83479789Y-157979086D01*
X83629786Y-157870109D01*
X83629788Y-157870106D01*
X83629792Y-157870104D01*
X83780104Y-157719792D01*
X83780106Y-157719788D01*
X83780109Y-157719786D01*
X83905048Y-157547820D01*
X83905047Y-157547820D01*
X83905051Y-157547816D01*
X84001557Y-157358412D01*
X84067246Y-157156243D01*
X84100500Y-156946287D01*
X84100500Y-156733713D01*
X84067246Y-156523757D01*
X84001557Y-156321588D01*
X83905051Y-156132184D01*
X83905049Y-156132181D01*
X83905048Y-156132179D01*
X83780109Y-155960213D01*
X83629786Y-155809890D01*
X83457820Y-155684951D01*
X83457115Y-155684591D01*
X83449054Y-155680485D01*
X83398259Y-155632512D01*
X83381463Y-155564692D01*
X83403999Y-155498556D01*
X83449054Y-155459515D01*
X83457816Y-155455051D01*
X83540215Y-155395185D01*
X83629786Y-155330109D01*
X83629788Y-155330106D01*
X83629792Y-155330104D01*
X83780104Y-155179792D01*
X83780106Y-155179788D01*
X83780109Y-155179786D01*
X83905048Y-155007820D01*
X83905047Y-155007820D01*
X83905051Y-155007816D01*
X84001557Y-154818412D01*
X84067246Y-154616243D01*
X84100500Y-154406287D01*
X84100500Y-154193713D01*
X84067246Y-153983757D01*
X84001557Y-153781588D01*
X83905051Y-153592184D01*
X83905049Y-153592181D01*
X83905048Y-153592179D01*
X83780109Y-153420213D01*
X83629786Y-153269890D01*
X83457820Y-153144951D01*
X83457115Y-153144591D01*
X83449054Y-153140485D01*
X83398259Y-153092512D01*
X83381463Y-153024692D01*
X83403999Y-152958556D01*
X83449054Y-152919515D01*
X83457816Y-152915051D01*
X83558538Y-152841873D01*
X83629786Y-152790109D01*
X83629788Y-152790106D01*
X83629792Y-152790104D01*
X83780104Y-152639792D01*
X83780106Y-152639788D01*
X83780109Y-152639786D01*
X83905048Y-152467820D01*
X83905047Y-152467820D01*
X83905051Y-152467816D01*
X84001557Y-152278412D01*
X84067246Y-152076243D01*
X84100500Y-151866287D01*
X84100500Y-151653713D01*
X84067246Y-151443757D01*
X84001557Y-151241588D01*
X83905051Y-151052184D01*
X83905049Y-151052181D01*
X83905048Y-151052179D01*
X83780109Y-150880213D01*
X83629786Y-150729890D01*
X83457820Y-150604951D01*
X83457115Y-150604591D01*
X83449054Y-150600485D01*
X83398259Y-150552512D01*
X83381463Y-150484692D01*
X83403999Y-150418556D01*
X83449054Y-150379515D01*
X83457816Y-150375051D01*
X83506225Y-150339880D01*
X83629786Y-150250109D01*
X83629788Y-150250106D01*
X83629792Y-150250104D01*
X83780104Y-150099792D01*
X83780106Y-150099788D01*
X83780109Y-150099786D01*
X83900272Y-149934394D01*
X83905051Y-149927816D01*
X84001557Y-149738412D01*
X84067246Y-149536243D01*
X84100500Y-149326287D01*
X84100500Y-149113713D01*
X84067246Y-148903757D01*
X84001557Y-148701588D01*
X83905051Y-148512184D01*
X83905049Y-148512181D01*
X83905048Y-148512179D01*
X83780109Y-148340213D01*
X83629786Y-148189890D01*
X83457820Y-148064951D01*
X83457115Y-148064591D01*
X83449054Y-148060485D01*
X83398259Y-148012512D01*
X83381463Y-147944692D01*
X83403999Y-147878556D01*
X83449054Y-147839515D01*
X83457816Y-147835051D01*
X83479789Y-147819086D01*
X83629786Y-147710109D01*
X83629788Y-147710106D01*
X83629792Y-147710104D01*
X83780104Y-147559792D01*
X83780106Y-147559788D01*
X83780109Y-147559786D01*
X83905048Y-147387820D01*
X83905047Y-147387820D01*
X83905051Y-147387816D01*
X84001557Y-147198412D01*
X84067246Y-146996243D01*
X84100500Y-146786287D01*
X84100500Y-146573713D01*
X84067246Y-146363757D01*
X84001557Y-146161588D01*
X83905051Y-145972184D01*
X83905049Y-145972181D01*
X83905048Y-145972179D01*
X83780109Y-145800213D01*
X83629786Y-145649890D01*
X83457820Y-145524951D01*
X83457115Y-145524591D01*
X83449054Y-145520485D01*
X83398259Y-145472512D01*
X83381463Y-145404692D01*
X83403999Y-145338556D01*
X83449054Y-145299515D01*
X83457816Y-145295051D01*
X83597414Y-145193628D01*
X83629786Y-145170109D01*
X83629788Y-145170106D01*
X83629792Y-145170104D01*
X83780104Y-145019792D01*
X83780106Y-145019788D01*
X83780109Y-145019786D01*
X83905048Y-144847820D01*
X83905047Y-144847820D01*
X83905051Y-144847816D01*
X84001557Y-144658412D01*
X84067246Y-144456243D01*
X84100500Y-144246287D01*
X84100500Y-144033713D01*
X84067246Y-143823757D01*
X84001557Y-143621588D01*
X83905051Y-143432184D01*
X83905049Y-143432181D01*
X83905048Y-143432179D01*
X83780109Y-143260213D01*
X83629786Y-143109890D01*
X83457820Y-142984951D01*
X83457115Y-142984591D01*
X83449054Y-142980485D01*
X83398259Y-142932512D01*
X83381463Y-142864692D01*
X83403999Y-142798556D01*
X83449054Y-142759515D01*
X83457816Y-142755051D01*
X83499500Y-142724766D01*
X83629786Y-142630109D01*
X83629788Y-142630106D01*
X83629792Y-142630104D01*
X83780104Y-142479792D01*
X83780106Y-142479788D01*
X83780109Y-142479786D01*
X83905048Y-142307820D01*
X83905047Y-142307820D01*
X83905051Y-142307816D01*
X84001557Y-142118412D01*
X84067246Y-141916243D01*
X84100500Y-141706287D01*
X84100500Y-141493713D01*
X84067246Y-141283757D01*
X84001557Y-141081588D01*
X83905051Y-140892184D01*
X83905049Y-140892181D01*
X83905048Y-140892179D01*
X83780109Y-140720213D01*
X83629786Y-140569890D01*
X83457820Y-140444951D01*
X83457115Y-140444591D01*
X83449054Y-140440485D01*
X83398259Y-140392512D01*
X83381463Y-140324692D01*
X83403999Y-140258556D01*
X83449054Y-140219515D01*
X83457816Y-140215051D01*
X83539709Y-140155553D01*
X83629786Y-140090109D01*
X83629788Y-140090106D01*
X83629792Y-140090104D01*
X83780104Y-139939792D01*
X83780106Y-139939788D01*
X83780109Y-139939786D01*
X83905048Y-139767820D01*
X83905047Y-139767820D01*
X83905051Y-139767816D01*
X84001557Y-139578412D01*
X84067246Y-139376243D01*
X84100500Y-139166287D01*
X84100500Y-138953713D01*
X84067246Y-138743757D01*
X84001557Y-138541588D01*
X83905051Y-138352184D01*
X83905049Y-138352181D01*
X83905048Y-138352179D01*
X83780109Y-138180213D01*
X83629786Y-138029890D01*
X83457820Y-137904951D01*
X83457115Y-137904591D01*
X83449054Y-137900485D01*
X83398259Y-137852512D01*
X83381463Y-137784692D01*
X83403999Y-137718556D01*
X83449054Y-137679515D01*
X83457816Y-137675051D01*
X83516091Y-137632712D01*
X83629786Y-137550109D01*
X83629788Y-137550106D01*
X83629792Y-137550104D01*
X83780104Y-137399792D01*
X83780106Y-137399788D01*
X83780109Y-137399786D01*
X83905048Y-137227820D01*
X83905047Y-137227820D01*
X83905051Y-137227816D01*
X84001557Y-137038412D01*
X84067246Y-136836243D01*
X84100500Y-136626287D01*
X84100500Y-136413713D01*
X84067246Y-136203757D01*
X84001557Y-136001588D01*
X83905051Y-135812184D01*
X83905049Y-135812181D01*
X83905048Y-135812179D01*
X83780109Y-135640213D01*
X83629786Y-135489890D01*
X83457820Y-135364951D01*
X83457115Y-135364591D01*
X83449054Y-135360485D01*
X83398259Y-135312512D01*
X83381463Y-135244692D01*
X83403999Y-135178556D01*
X83449054Y-135139515D01*
X83457816Y-135135051D01*
X83528769Y-135083501D01*
X83629786Y-135010109D01*
X83629788Y-135010106D01*
X83629792Y-135010104D01*
X83780104Y-134859792D01*
X83780106Y-134859788D01*
X83780109Y-134859786D01*
X83905048Y-134687820D01*
X83905047Y-134687820D01*
X83905051Y-134687816D01*
X84001557Y-134498412D01*
X84067246Y-134296243D01*
X84100500Y-134086287D01*
X84100500Y-133873713D01*
X84067246Y-133663757D01*
X84001557Y-133461588D01*
X83905051Y-133272184D01*
X83905049Y-133272181D01*
X83905048Y-133272179D01*
X83780109Y-133100213D01*
X83629786Y-132949890D01*
X83457820Y-132824951D01*
X83457115Y-132824591D01*
X83449054Y-132820485D01*
X83398259Y-132772512D01*
X83381463Y-132704692D01*
X83403999Y-132638556D01*
X83449054Y-132599515D01*
X83457816Y-132595051D01*
X83499500Y-132564766D01*
X83629786Y-132470109D01*
X83629788Y-132470106D01*
X83629792Y-132470104D01*
X83780104Y-132319792D01*
X83780106Y-132319788D01*
X83780109Y-132319786D01*
X83905048Y-132147820D01*
X83905047Y-132147820D01*
X83905051Y-132147816D01*
X84001557Y-131958412D01*
X84067246Y-131756243D01*
X84100500Y-131546287D01*
X84100500Y-131333713D01*
X84067246Y-131123757D01*
X84001557Y-130921588D01*
X83905051Y-130732184D01*
X83905049Y-130732181D01*
X83905048Y-130732179D01*
X83780109Y-130560213D01*
X83629786Y-130409890D01*
X83457820Y-130284951D01*
X83457115Y-130284591D01*
X83449054Y-130280485D01*
X83398259Y-130232512D01*
X83381463Y-130164692D01*
X83403999Y-130098556D01*
X83449054Y-130059515D01*
X83457816Y-130055051D01*
X83499500Y-130024766D01*
X83629786Y-129930109D01*
X83629788Y-129930106D01*
X83629792Y-129930104D01*
X83780104Y-129779792D01*
X83780106Y-129779788D01*
X83780109Y-129779786D01*
X83905048Y-129607820D01*
X83905047Y-129607820D01*
X83905051Y-129607816D01*
X84001557Y-129418412D01*
X84067246Y-129216243D01*
X84100500Y-129006287D01*
X84100500Y-128793713D01*
X84067246Y-128583757D01*
X84001557Y-128381588D01*
X83905051Y-128192184D01*
X83905049Y-128192181D01*
X83905048Y-128192179D01*
X83780109Y-128020213D01*
X83629786Y-127869890D01*
X83457820Y-127744951D01*
X83457115Y-127744591D01*
X83449054Y-127740485D01*
X83398259Y-127692512D01*
X83381463Y-127624692D01*
X83403999Y-127558556D01*
X83449054Y-127519515D01*
X83457816Y-127515051D01*
X83499500Y-127484766D01*
X83629786Y-127390109D01*
X83629788Y-127390106D01*
X83629792Y-127390104D01*
X83780104Y-127239792D01*
X83780106Y-127239788D01*
X83780109Y-127239786D01*
X83905048Y-127067820D01*
X83905047Y-127067820D01*
X83905051Y-127067816D01*
X84001557Y-126878412D01*
X84067246Y-126676243D01*
X84100500Y-126466287D01*
X84100500Y-126253713D01*
X84067246Y-126043757D01*
X84001557Y-125841588D01*
X83905051Y-125652184D01*
X83905049Y-125652181D01*
X83905048Y-125652179D01*
X83780109Y-125480213D01*
X83629786Y-125329890D01*
X83457820Y-125204951D01*
X83457115Y-125204591D01*
X83449054Y-125200485D01*
X83398259Y-125152512D01*
X83381463Y-125084692D01*
X83403999Y-125018556D01*
X83449054Y-124979515D01*
X83457816Y-124975051D01*
X83479789Y-124959086D01*
X83629786Y-124850109D01*
X83629788Y-124850106D01*
X83629792Y-124850104D01*
X83780104Y-124699792D01*
X83780106Y-124699788D01*
X83780109Y-124699786D01*
X83905048Y-124527820D01*
X83905047Y-124527820D01*
X83905051Y-124527816D01*
X84001557Y-124338412D01*
X84067246Y-124136243D01*
X84100500Y-123926287D01*
X84100500Y-123713713D01*
X84067246Y-123503757D01*
X84001557Y-123301588D01*
X83905051Y-123112184D01*
X83905049Y-123112181D01*
X83905048Y-123112179D01*
X83780109Y-122940213D01*
X83629786Y-122789890D01*
X83457820Y-122664951D01*
X83457115Y-122664591D01*
X83449054Y-122660485D01*
X83398259Y-122612512D01*
X83381463Y-122544692D01*
X83403999Y-122478556D01*
X83449054Y-122439515D01*
X83457816Y-122435051D01*
X83479789Y-122419086D01*
X83629786Y-122310109D01*
X83629788Y-122310106D01*
X83629792Y-122310104D01*
X83780104Y-122159792D01*
X83780106Y-122159788D01*
X83780109Y-122159786D01*
X83905048Y-121987820D01*
X83905047Y-121987820D01*
X83905051Y-121987816D01*
X84001557Y-121798412D01*
X84067246Y-121596243D01*
X84100500Y-121386287D01*
X84100500Y-121173713D01*
X84067246Y-120963757D01*
X84001557Y-120761588D01*
X83905051Y-120572184D01*
X83905049Y-120572181D01*
X83905048Y-120572179D01*
X83780109Y-120400213D01*
X83629786Y-120249890D01*
X83457820Y-120124951D01*
X83457115Y-120124591D01*
X83449054Y-120120485D01*
X83398259Y-120072512D01*
X83381463Y-120004692D01*
X83403999Y-119938556D01*
X83449054Y-119899515D01*
X83457816Y-119895051D01*
X83479789Y-119879086D01*
X83629786Y-119770109D01*
X83629788Y-119770106D01*
X83629792Y-119770104D01*
X83780104Y-119619792D01*
X83780106Y-119619788D01*
X83780109Y-119619786D01*
X83905048Y-119447820D01*
X83905047Y-119447820D01*
X83905051Y-119447816D01*
X84001557Y-119258412D01*
X84067246Y-119056243D01*
X84100500Y-118846287D01*
X84100500Y-118633713D01*
X84067246Y-118423757D01*
X84001557Y-118221588D01*
X83905051Y-118032184D01*
X83905049Y-118032181D01*
X83905048Y-118032179D01*
X83780109Y-117860213D01*
X83629786Y-117709890D01*
X83457820Y-117584951D01*
X83457115Y-117584591D01*
X83449054Y-117580485D01*
X83398259Y-117532512D01*
X83381463Y-117464692D01*
X83403999Y-117398556D01*
X83449054Y-117359515D01*
X83457816Y-117355051D01*
X83479789Y-117339086D01*
X83629786Y-117230109D01*
X83629788Y-117230106D01*
X83629792Y-117230104D01*
X83780104Y-117079792D01*
X83780106Y-117079788D01*
X83780109Y-117079786D01*
X83905048Y-116907820D01*
X83905047Y-116907820D01*
X83905051Y-116907816D01*
X84001557Y-116718412D01*
X84067246Y-116516243D01*
X84100500Y-116306287D01*
X84100500Y-116093713D01*
X84067246Y-115883757D01*
X84001557Y-115681588D01*
X83905051Y-115492184D01*
X83905049Y-115492181D01*
X83905048Y-115492179D01*
X83780109Y-115320213D01*
X83629786Y-115169890D01*
X83457820Y-115044951D01*
X83457115Y-115044591D01*
X83449054Y-115040485D01*
X83398259Y-114992512D01*
X83381463Y-114924692D01*
X83403999Y-114858556D01*
X83449054Y-114819515D01*
X83457816Y-114815051D01*
X83479789Y-114799086D01*
X83629786Y-114690109D01*
X83629788Y-114690106D01*
X83629792Y-114690104D01*
X83780104Y-114539792D01*
X83780106Y-114539788D01*
X83780109Y-114539786D01*
X83905048Y-114367820D01*
X83905047Y-114367820D01*
X83905051Y-114367816D01*
X84001557Y-114178412D01*
X84067246Y-113976243D01*
X84100500Y-113766287D01*
X84100500Y-113553713D01*
X84067246Y-113343757D01*
X84001557Y-113141588D01*
X83905051Y-112952184D01*
X83905049Y-112952181D01*
X83905048Y-112952179D01*
X83780109Y-112780213D01*
X83629786Y-112629890D01*
X83457820Y-112504951D01*
X83457115Y-112504591D01*
X83449054Y-112500485D01*
X83398259Y-112452512D01*
X83381463Y-112384692D01*
X83403999Y-112318556D01*
X83449054Y-112279515D01*
X83457816Y-112275051D01*
X83479789Y-112259086D01*
X83629786Y-112150109D01*
X83629788Y-112150106D01*
X83629792Y-112150104D01*
X83780104Y-111999792D01*
X83780106Y-111999788D01*
X83780109Y-111999786D01*
X83905048Y-111827820D01*
X83905047Y-111827820D01*
X83905051Y-111827816D01*
X84001557Y-111638412D01*
X84067246Y-111436243D01*
X84100500Y-111226287D01*
X84100500Y-111013713D01*
X84067246Y-110803757D01*
X84001557Y-110601588D01*
X83905051Y-110412184D01*
X83905049Y-110412181D01*
X83905048Y-110412179D01*
X83780109Y-110240213D01*
X83629786Y-110089890D01*
X83457820Y-109964951D01*
X83457115Y-109964591D01*
X83449054Y-109960485D01*
X83398259Y-109912512D01*
X83381463Y-109844692D01*
X83403999Y-109778556D01*
X83449054Y-109739515D01*
X83457816Y-109735051D01*
X83479789Y-109719086D01*
X83629786Y-109610109D01*
X83629788Y-109610106D01*
X83629792Y-109610104D01*
X83780104Y-109459792D01*
X83780106Y-109459788D01*
X83780109Y-109459786D01*
X83905048Y-109287820D01*
X83905047Y-109287820D01*
X83905051Y-109287816D01*
X84001557Y-109098412D01*
X84067246Y-108896243D01*
X84100500Y-108686287D01*
X84100500Y-108473713D01*
X84067246Y-108263757D01*
X84001557Y-108061588D01*
X83905051Y-107872184D01*
X83905049Y-107872181D01*
X83905048Y-107872179D01*
X83780109Y-107700213D01*
X83629786Y-107549890D01*
X83457820Y-107424951D01*
X83457115Y-107424591D01*
X83449054Y-107420485D01*
X83398259Y-107372512D01*
X83381463Y-107304692D01*
X83403999Y-107238556D01*
X83449054Y-107199515D01*
X83457816Y-107195051D01*
X83488596Y-107172688D01*
X83629786Y-107070109D01*
X83629788Y-107070106D01*
X83629792Y-107070104D01*
X83780104Y-106919792D01*
X83780106Y-106919788D01*
X83780109Y-106919786D01*
X83905048Y-106747820D01*
X83905047Y-106747820D01*
X83905051Y-106747816D01*
X84001557Y-106558412D01*
X84067246Y-106356243D01*
X84100500Y-106146287D01*
X84100500Y-105933713D01*
X84067246Y-105723757D01*
X84001557Y-105521588D01*
X83905051Y-105332184D01*
X83905049Y-105332181D01*
X83905048Y-105332179D01*
X83780109Y-105160213D01*
X83666569Y-105046673D01*
X83633084Y-104985350D01*
X83638068Y-104915658D01*
X83679940Y-104859725D01*
X83710915Y-104842810D01*
X83842331Y-104793796D01*
X83957546Y-104707546D01*
X84043796Y-104592331D01*
X84094091Y-104457483D01*
X84100500Y-104397873D01*
X84100499Y-102602128D01*
X84094091Y-102542517D01*
X84075794Y-102493461D01*
X84043797Y-102407671D01*
X84043793Y-102407664D01*
X83957547Y-102292455D01*
X83957544Y-102292452D01*
X83842335Y-102206206D01*
X83842328Y-102206202D01*
X83707482Y-102155908D01*
X83707483Y-102155908D01*
X83647883Y-102149501D01*
X83647881Y-102149500D01*
X83647873Y-102149500D01*
X83647864Y-102149500D01*
X81852129Y-102149500D01*
X81852123Y-102149501D01*
X81792516Y-102155908D01*
X81657671Y-102206202D01*
X81657664Y-102206206D01*
X81542455Y-102292452D01*
X81542452Y-102292455D01*
X81456206Y-102407664D01*
X81456202Y-102407671D01*
X81405908Y-102542517D01*
X81402512Y-102574108D01*
X81399501Y-102602123D01*
X81399500Y-102602135D01*
X81399500Y-104397870D01*
X81399501Y-104397876D01*
X81405908Y-104457483D01*
X81456202Y-104592328D01*
X81456206Y-104592335D01*
X81542452Y-104707544D01*
X81542455Y-104707547D01*
X81657664Y-104793793D01*
X81657671Y-104793797D01*
X81789082Y-104842810D01*
X81845016Y-104884681D01*
X81869433Y-104950145D01*
X81854582Y-105018418D01*
X81833431Y-105046673D01*
X81719889Y-105160215D01*
X81594951Y-105332179D01*
X81498444Y-105521585D01*
X81432753Y-105723760D01*
X81399500Y-105933713D01*
X81399500Y-106146286D01*
X81432753Y-106356239D01*
X81498444Y-106558414D01*
X81594951Y-106747820D01*
X81719890Y-106919786D01*
X81870213Y-107070109D01*
X82042182Y-107195050D01*
X82050946Y-107199516D01*
X82101742Y-107247491D01*
X82118536Y-107315312D01*
X82095998Y-107381447D01*
X82050946Y-107420484D01*
X82042182Y-107424949D01*
X81870213Y-107549890D01*
X81719890Y-107700213D01*
X81594951Y-107872179D01*
X81498444Y-108061585D01*
X81432753Y-108263760D01*
X81401093Y-108463656D01*
X81399500Y-108473713D01*
X81399500Y-108686287D01*
X81432754Y-108896243D01*
X81452303Y-108956409D01*
X81498444Y-109098414D01*
X81594951Y-109287820D01*
X81719890Y-109459786D01*
X81870213Y-109610109D01*
X82042182Y-109735050D01*
X82050946Y-109739516D01*
X82101742Y-109787491D01*
X82118536Y-109855312D01*
X82095998Y-109921447D01*
X82050946Y-109960484D01*
X82042182Y-109964949D01*
X81870213Y-110089890D01*
X81719890Y-110240213D01*
X81594951Y-110412179D01*
X81498444Y-110601585D01*
X81432753Y-110803760D01*
X81399500Y-111013713D01*
X81399500Y-111226286D01*
X81433516Y-111441055D01*
X81431877Y-111441314D01*
X81428738Y-111503883D01*
X81399342Y-111550710D01*
X76561245Y-116388809D01*
X76499922Y-116422294D01*
X76473564Y-116425128D01*
X75178071Y-116425128D01*
X75111032Y-116405443D01*
X75077754Y-116374014D01*
X74971966Y-116228409D01*
X74827219Y-116083662D01*
X74827213Y-116083656D01*
X74661614Y-115963343D01*
X74655006Y-115959976D01*
X74568917Y-115916111D01*
X74518123Y-115868139D01*
X74501328Y-115800318D01*
X74523865Y-115734183D01*
X74568917Y-115695144D01*
X74661610Y-115647915D01*
X74682770Y-115632541D01*
X74827213Y-115527599D01*
X74827215Y-115527596D01*
X74827219Y-115527594D01*
X74971966Y-115382847D01*
X74971968Y-115382843D01*
X74971971Y-115382841D01*
X75024732Y-115310218D01*
X75092287Y-115217238D01*
X75185220Y-115034847D01*
X75248477Y-114840162D01*
X75280500Y-114637980D01*
X75280500Y-114433276D01*
X75270132Y-114367816D01*
X75248477Y-114231093D01*
X75187648Y-114043883D01*
X75185220Y-114036409D01*
X75185218Y-114036406D01*
X75185218Y-114036404D01*
X75151503Y-113970235D01*
X75092287Y-113854018D01*
X75084556Y-113843377D01*
X74971971Y-113688414D01*
X74827213Y-113543656D01*
X74661614Y-113423343D01*
X74655006Y-113419976D01*
X74568917Y-113376111D01*
X74518123Y-113328139D01*
X74501328Y-113260318D01*
X74523865Y-113194183D01*
X74568917Y-113155144D01*
X74661610Y-113107915D01*
X74682770Y-113092541D01*
X74827213Y-112987599D01*
X74827215Y-112987596D01*
X74827219Y-112987594D01*
X74971966Y-112842847D01*
X74971968Y-112842843D01*
X74971971Y-112842841D01*
X75024732Y-112770218D01*
X75092287Y-112677238D01*
X75185220Y-112494847D01*
X75248477Y-112300162D01*
X75280500Y-112097980D01*
X75280500Y-111893276D01*
X75248477Y-111691094D01*
X75185220Y-111496409D01*
X75185218Y-111496406D01*
X75185218Y-111496404D01*
X75151503Y-111430235D01*
X75092287Y-111314018D01*
X75084556Y-111303377D01*
X74971971Y-111148414D01*
X74827213Y-111003656D01*
X74661614Y-110883343D01*
X74655006Y-110879976D01*
X74568917Y-110836111D01*
X74518123Y-110788139D01*
X74501328Y-110720318D01*
X74523865Y-110654183D01*
X74568917Y-110615144D01*
X74661610Y-110567915D01*
X74682770Y-110552541D01*
X74827213Y-110447599D01*
X74827215Y-110447596D01*
X74827219Y-110447594D01*
X74971966Y-110302847D01*
X74971968Y-110302843D01*
X74971971Y-110302841D01*
X75024732Y-110230218D01*
X75092287Y-110137238D01*
X75185220Y-109954847D01*
X75248477Y-109760162D01*
X75280500Y-109557980D01*
X75280500Y-109353276D01*
X75248477Y-109151094D01*
X75185220Y-108956409D01*
X75185218Y-108956406D01*
X75185218Y-108956404D01*
X75151503Y-108890235D01*
X75092287Y-108774018D01*
X75084556Y-108763377D01*
X74971971Y-108608414D01*
X74827213Y-108463656D01*
X74661613Y-108343343D01*
X74661612Y-108343342D01*
X74661610Y-108343341D01*
X74604653Y-108314319D01*
X74479223Y-108250409D01*
X74284534Y-108187150D01*
X74109995Y-108159506D01*
X74082352Y-108155128D01*
X73877648Y-108155128D01*
X73853329Y-108158979D01*
X73675465Y-108187150D01*
X73480776Y-108250409D01*
X73298386Y-108343343D01*
X73132786Y-108463656D01*
X72988028Y-108608414D01*
X72867715Y-108774014D01*
X72774781Y-108956404D01*
X72711522Y-109151093D01*
X72679500Y-109353276D01*
X72679500Y-109557979D01*
X72711522Y-109760162D01*
X72774781Y-109954851D01*
X72867715Y-110137241D01*
X72988028Y-110302841D01*
X73132786Y-110447599D01*
X73287749Y-110560184D01*
X73298390Y-110567915D01*
X73364477Y-110601588D01*
X73391080Y-110615143D01*
X73441876Y-110663118D01*
X73458671Y-110730939D01*
X73436134Y-110797074D01*
X73391080Y-110836113D01*
X73298386Y-110883343D01*
X73132786Y-111003656D01*
X72988028Y-111148414D01*
X72867715Y-111314014D01*
X72774781Y-111496404D01*
X72711522Y-111691093D01*
X72688888Y-111834001D01*
X72658959Y-111897136D01*
X72599647Y-111934067D01*
X72529784Y-111933069D01*
X72478734Y-111902284D01*
X67836819Y-107260369D01*
X67803334Y-107199046D01*
X67800500Y-107172688D01*
X67800500Y-104149128D01*
X67820185Y-104082089D01*
X67872989Y-104036334D01*
X67924500Y-104025128D01*
X72446060Y-104025128D01*
X72475500Y-104033772D01*
X72505487Y-104040296D01*
X72510502Y-104044050D01*
X72513099Y-104044813D01*
X72533741Y-104061447D01*
X72643898Y-104171604D01*
X72677383Y-104232927D01*
X72679835Y-104269005D01*
X72679500Y-104273265D01*
X72679500Y-104477979D01*
X72711522Y-104680162D01*
X72774781Y-104874851D01*
X72867715Y-105057241D01*
X72988028Y-105222841D01*
X73132786Y-105367599D01*
X73287749Y-105480184D01*
X73298390Y-105487915D01*
X73414607Y-105547131D01*
X73480776Y-105580846D01*
X73480778Y-105580846D01*
X73480781Y-105580848D01*
X73585137Y-105614755D01*
X73675465Y-105644105D01*
X73776557Y-105660116D01*
X73877648Y-105676128D01*
X73877649Y-105676128D01*
X74082351Y-105676128D01*
X74082352Y-105676128D01*
X74284534Y-105644105D01*
X74479219Y-105580848D01*
X74661610Y-105487915D01*
X74754590Y-105420360D01*
X74827213Y-105367599D01*
X74827215Y-105367596D01*
X74827219Y-105367594D01*
X74971966Y-105222847D01*
X74971968Y-105222843D01*
X74971971Y-105222841D01*
X75024732Y-105150218D01*
X75092287Y-105057238D01*
X75185220Y-104874847D01*
X75248477Y-104680162D01*
X75280500Y-104477980D01*
X75280500Y-104273276D01*
X75271466Y-104216239D01*
X75248477Y-104071093D01*
X75208357Y-103947617D01*
X75185220Y-103876409D01*
X75185218Y-103876406D01*
X75185218Y-103876404D01*
X75151503Y-103810235D01*
X75092287Y-103694018D01*
X75084556Y-103683377D01*
X74971971Y-103528414D01*
X74827213Y-103383656D01*
X74661614Y-103263343D01*
X74655006Y-103259976D01*
X74568917Y-103216111D01*
X74518123Y-103168139D01*
X74501328Y-103100318D01*
X74523865Y-103034183D01*
X74568917Y-102995144D01*
X74661610Y-102947915D01*
X74682770Y-102932541D01*
X74827213Y-102827599D01*
X74827215Y-102827596D01*
X74827219Y-102827594D01*
X74971966Y-102682847D01*
X74971968Y-102682843D01*
X74971971Y-102682841D01*
X75050969Y-102574108D01*
X75092287Y-102517238D01*
X75185220Y-102334847D01*
X75248477Y-102140162D01*
X75280500Y-101937980D01*
X75280500Y-101733276D01*
X75248477Y-101531094D01*
X75185220Y-101336409D01*
X75185218Y-101336406D01*
X75185218Y-101336404D01*
X75151503Y-101270235D01*
X75092287Y-101154018D01*
X75084556Y-101143377D01*
X74971971Y-100988414D01*
X74827213Y-100843656D01*
X74663644Y-100724818D01*
X74620978Y-100669489D01*
X74614999Y-100599875D01*
X74647604Y-100538080D01*
X74708443Y-100503723D01*
X74736529Y-100500500D01*
X84625500Y-100500500D01*
X84692539Y-100520185D01*
G37*
%TD.AperFunction*%
%TA.AperFunction,Conductor*%
G36*
X72743834Y-166615759D02*
G01*
X72799767Y-166657631D01*
X72824184Y-166723095D01*
X72824500Y-166731941D01*
X72824500Y-167154192D01*
X72804815Y-167221231D01*
X72788181Y-167241873D01*
X72616873Y-167413181D01*
X72555550Y-167446666D01*
X72529192Y-167449500D01*
X72154935Y-167449500D01*
X72136789Y-167444171D01*
X72117881Y-167443834D01*
X72089667Y-167430335D01*
X72087896Y-167429815D01*
X72086043Y-167428601D01*
X72033494Y-167393488D01*
X71988690Y-167339876D01*
X71979983Y-167270551D01*
X72010138Y-167207523D01*
X72026895Y-167192016D01*
X72035451Y-167185451D01*
X72127698Y-167065233D01*
X72185687Y-166925236D01*
X72185687Y-166925235D01*
X72187878Y-166919946D01*
X72231719Y-166865542D01*
X72278250Y-166845780D01*
X72283497Y-166844737D01*
X72429179Y-166784394D01*
X72560289Y-166696789D01*
X72560292Y-166696786D01*
X72612819Y-166644260D01*
X72674142Y-166610775D01*
X72743834Y-166615759D01*
G37*
%TD.AperFunction*%
%TA.AperFunction,Conductor*%
G36*
X70118834Y-159653626D02*
G01*
X70174767Y-159695498D01*
X70199184Y-159760962D01*
X70199500Y-159769808D01*
X70199500Y-161864070D01*
X70206647Y-161900000D01*
X70221816Y-161976256D01*
X70221857Y-161976459D01*
X70221857Y-161976468D01*
X70221859Y-161976468D01*
X70224499Y-161989745D01*
X70273533Y-162108125D01*
X70344726Y-162214673D01*
X71785327Y-163655274D01*
X71785330Y-163655276D01*
X71840702Y-163692274D01*
X71891873Y-163726465D01*
X72010256Y-163775501D01*
X72010260Y-163775501D01*
X72010261Y-163775502D01*
X72114349Y-163796207D01*
X72176259Y-163828592D01*
X72210834Y-163889308D01*
X72213096Y-163934010D01*
X72199500Y-164037272D01*
X72199500Y-164262727D01*
X72214313Y-164375235D01*
X72214313Y-164375236D01*
X72265499Y-164498811D01*
X72272302Y-164515233D01*
X72364549Y-164635451D01*
X72484767Y-164727698D01*
X72624764Y-164785687D01*
X72716686Y-164797788D01*
X72780581Y-164826054D01*
X72819053Y-164884378D01*
X72824500Y-164920727D01*
X72824500Y-165418059D01*
X72804815Y-165485098D01*
X72752011Y-165530853D01*
X72682853Y-165540797D01*
X72619297Y-165511772D01*
X72612819Y-165505740D01*
X72560292Y-165453213D01*
X72560288Y-165453210D01*
X72429185Y-165365609D01*
X72429172Y-165365602D01*
X72283499Y-165305263D01*
X72283490Y-165305260D01*
X72278247Y-165304218D01*
X72216336Y-165271833D01*
X72187877Y-165230053D01*
X72185687Y-165224766D01*
X72185687Y-165224764D01*
X72127700Y-165084771D01*
X72127700Y-165084770D01*
X72104231Y-165054185D01*
X72035451Y-164964549D01*
X71915233Y-164872302D01*
X71915229Y-164872300D01*
X71851801Y-164846027D01*
X71775236Y-164814313D01*
X71759315Y-164812217D01*
X71662727Y-164799500D01*
X71662720Y-164799500D01*
X71437280Y-164799500D01*
X71437272Y-164799500D01*
X71324764Y-164814313D01*
X71324763Y-164814313D01*
X71184769Y-164872300D01*
X71179941Y-164876005D01*
X71125485Y-164917790D01*
X71060317Y-164942984D01*
X70991873Y-164928946D01*
X70974517Y-164917793D01*
X70915233Y-164872302D01*
X70915232Y-164872301D01*
X70915230Y-164872300D01*
X70824731Y-164834814D01*
X70775236Y-164814313D01*
X70759315Y-164812217D01*
X70662727Y-164799500D01*
X70662720Y-164799500D01*
X70437280Y-164799500D01*
X70437272Y-164799500D01*
X70350393Y-164810938D01*
X70324764Y-164814313D01*
X70324762Y-164814313D01*
X70316708Y-164815374D01*
X70316316Y-164812399D01*
X70283684Y-164812399D01*
X70283292Y-164815374D01*
X70275237Y-164814313D01*
X70275236Y-164814313D01*
X70246271Y-164810499D01*
X70162727Y-164799500D01*
X70162720Y-164799500D01*
X69937280Y-164799500D01*
X69937272Y-164799500D01*
X69854062Y-164810455D01*
X69840685Y-164812216D01*
X69771650Y-164801452D01*
X69719394Y-164755072D01*
X69700500Y-164689278D01*
X69700500Y-160020808D01*
X69720185Y-159953769D01*
X69736819Y-159933127D01*
X69987819Y-159682127D01*
X70049142Y-159648642D01*
X70118834Y-159653626D01*
G37*
%TD.AperFunction*%
%TA.AperFunction,Conductor*%
G36*
X51057711Y-149890185D02*
G01*
X51078352Y-149906818D01*
X56902810Y-155731277D01*
X56918334Y-155741649D01*
X56937120Y-155757066D01*
X57035330Y-155855276D01*
X57138931Y-155924499D01*
X57141873Y-155926465D01*
X57260256Y-155975501D01*
X57260260Y-155975501D01*
X57260261Y-155975502D01*
X57385928Y-156000500D01*
X57385931Y-156000500D01*
X60504192Y-156000500D01*
X60571231Y-156020185D01*
X60591873Y-156036819D01*
X60839556Y-156284502D01*
X60873041Y-156345825D01*
X60868057Y-156415517D01*
X60866439Y-156419629D01*
X60864313Y-156424760D01*
X60849500Y-156537272D01*
X60849500Y-156762727D01*
X60864313Y-156875235D01*
X60864313Y-156875236D01*
X60922300Y-157015230D01*
X60922301Y-157015232D01*
X60922302Y-157015233D01*
X60967790Y-157074514D01*
X60992984Y-157139683D01*
X60978946Y-157208127D01*
X60967793Y-157225482D01*
X60933088Y-157270711D01*
X60922300Y-157284770D01*
X60865063Y-157422953D01*
X60821222Y-157477356D01*
X60754928Y-157499421D01*
X60750502Y-157499500D01*
X59035929Y-157499500D01*
X58910261Y-157524497D01*
X58910255Y-157524499D01*
X58875101Y-157539061D01*
X58827648Y-157548500D01*
X58186929Y-157548500D01*
X58075770Y-157570612D01*
X58061256Y-157573499D01*
X58061255Y-157573499D01*
X57942870Y-157622535D01*
X57847557Y-157686222D01*
X57780880Y-157707100D01*
X57778667Y-157707120D01*
X57090556Y-157707120D01*
X56964888Y-157732117D01*
X56964882Y-157732119D01*
X56846501Y-157781154D01*
X56739953Y-157852346D01*
X56033106Y-158559193D01*
X55983460Y-158633496D01*
X55983458Y-158633498D01*
X55961919Y-158665731D01*
X55961913Y-158665742D01*
X55912879Y-158784122D01*
X55912877Y-158784128D01*
X55887880Y-158909795D01*
X55887880Y-159133945D01*
X55868195Y-159200984D01*
X55832772Y-159237047D01*
X55774853Y-159275747D01*
X55663359Y-159387241D01*
X55663356Y-159387245D01*
X55575755Y-159518348D01*
X55575748Y-159518361D01*
X55515410Y-159664032D01*
X55515407Y-159664044D01*
X55484646Y-159818687D01*
X55484646Y-159875500D01*
X55464961Y-159942539D01*
X55412157Y-159988294D01*
X55360646Y-159999500D01*
X51620808Y-159999500D01*
X51553769Y-159979815D01*
X51533127Y-159963181D01*
X51186819Y-159616873D01*
X51153334Y-159555550D01*
X51150500Y-159529192D01*
X51150500Y-155594952D01*
X51152567Y-155587912D01*
X51151324Y-155580681D01*
X51162278Y-155554837D01*
X51170185Y-155527913D01*
X51175728Y-155523109D01*
X51178593Y-155516352D01*
X51201784Y-155500532D01*
X51222989Y-155482158D01*
X51230250Y-155481113D01*
X51236312Y-155476979D01*
X51264365Y-155476208D01*
X51292147Y-155472214D01*
X51300543Y-155475215D01*
X51306156Y-155475061D01*
X51338651Y-155488836D01*
X51389651Y-155519667D01*
X51436838Y-155571195D01*
X51449500Y-155625783D01*
X51449500Y-156797870D01*
X51449501Y-156797876D01*
X51455908Y-156857483D01*
X51506202Y-156992328D01*
X51506206Y-156992335D01*
X51592452Y-157107544D01*
X51592455Y-157107547D01*
X51707664Y-157193793D01*
X51707671Y-157193797D01*
X51842517Y-157244091D01*
X51842516Y-157244091D01*
X51849444Y-157244835D01*
X51902127Y-157250500D01*
X53797872Y-157250499D01*
X53857483Y-157244091D01*
X53992331Y-157193796D01*
X54107546Y-157107546D01*
X54193796Y-156992331D01*
X54244091Y-156857483D01*
X54250500Y-156797873D01*
X54250499Y-155602128D01*
X54249191Y-155589962D01*
X54249223Y-155589155D01*
X54249069Y-155588772D01*
X54250010Y-155569744D01*
X54250668Y-155553514D01*
X54250757Y-155553041D01*
X54260500Y-155504069D01*
X54260500Y-155501866D01*
X54261993Y-155494024D01*
X54275482Y-155467709D01*
X54286552Y-155440286D01*
X54293601Y-155432366D01*
X54293867Y-155431848D01*
X54294271Y-155431613D01*
X54296116Y-155429540D01*
X54365472Y-155360185D01*
X54453478Y-155214606D01*
X54504086Y-155052196D01*
X54510500Y-154981616D01*
X54510500Y-154318384D01*
X54504086Y-154247804D01*
X54453478Y-154085394D01*
X54365472Y-153939815D01*
X54365470Y-153939813D01*
X54365469Y-153939811D01*
X54245188Y-153819530D01*
X54240192Y-153816510D01*
X54099606Y-153731522D01*
X53937196Y-153680914D01*
X53937194Y-153680913D01*
X53937192Y-153680913D01*
X53887778Y-153676423D01*
X53866616Y-153674500D01*
X53353384Y-153674500D01*
X53334145Y-153676248D01*
X53282807Y-153680913D01*
X53120393Y-153731522D01*
X52974811Y-153819530D01*
X52974810Y-153819531D01*
X52872681Y-153921661D01*
X52811358Y-153955146D01*
X52741666Y-153950162D01*
X52697319Y-153921661D01*
X52595188Y-153819530D01*
X52590192Y-153816510D01*
X52449606Y-153731522D01*
X52287196Y-153680914D01*
X52287194Y-153680913D01*
X52287192Y-153680913D01*
X52237778Y-153676423D01*
X52216616Y-153674500D01*
X51703384Y-153674500D01*
X51684145Y-153676248D01*
X51632807Y-153680913D01*
X51470393Y-153731522D01*
X51324811Y-153819530D01*
X51204530Y-153939811D01*
X51204528Y-153939815D01*
X51153147Y-154024810D01*
X51152747Y-154025471D01*
X51101219Y-154072659D01*
X51032359Y-154084497D01*
X50968031Y-154057228D01*
X50958949Y-154049002D01*
X49100657Y-152190711D01*
X49067172Y-152129388D01*
X49067689Y-152081245D01*
X49066484Y-152081055D01*
X49100500Y-151866286D01*
X49100500Y-151653713D01*
X49067246Y-151443760D01*
X49067246Y-151443757D01*
X49001557Y-151241588D01*
X48905051Y-151052184D01*
X48905049Y-151052181D01*
X48905048Y-151052179D01*
X48780109Y-150880213D01*
X48629786Y-150729890D01*
X48457820Y-150604951D01*
X48457115Y-150604591D01*
X48449054Y-150600485D01*
X48398259Y-150552512D01*
X48381463Y-150484692D01*
X48403999Y-150418556D01*
X48449054Y-150379515D01*
X48457816Y-150375051D01*
X48506225Y-150339880D01*
X48629786Y-150250109D01*
X48629788Y-150250106D01*
X48629792Y-150250104D01*
X48780104Y-150099792D01*
X48780106Y-150099788D01*
X48780109Y-150099786D01*
X48907915Y-149923875D01*
X48909259Y-149924851D01*
X48955705Y-149882834D01*
X49009618Y-149870500D01*
X50990672Y-149870500D01*
X51057711Y-149890185D01*
G37*
%TD.AperFunction*%
%TA.AperFunction,Conductor*%
G36*
X78518834Y-126533625D02*
G01*
X78574767Y-126575497D01*
X78599184Y-126640961D01*
X78599500Y-126649807D01*
X78599500Y-145193628D01*
X78579815Y-145260667D01*
X78563181Y-145281309D01*
X76791727Y-147052761D01*
X76791720Y-147052769D01*
X76778360Y-147072763D01*
X76762943Y-147091547D01*
X76262181Y-147592308D01*
X76200858Y-147625793D01*
X76131166Y-147620809D01*
X76075233Y-147578937D01*
X76050816Y-147513473D01*
X76050500Y-147504627D01*
X76050500Y-147164956D01*
X76070185Y-147097917D01*
X76086819Y-147077275D01*
X76906273Y-146257821D01*
X76906277Y-146257817D01*
X76977465Y-146151275D01*
X76982161Y-146139939D01*
X77026501Y-146032892D01*
X77051500Y-145907217D01*
X77051500Y-127949807D01*
X77071185Y-127882768D01*
X77087814Y-127862131D01*
X78387819Y-126562125D01*
X78449142Y-126528641D01*
X78518834Y-126533625D01*
G37*
%TD.AperFunction*%
%TA.AperFunction,Conductor*%
G36*
X65583010Y-137666409D02*
G01*
X65600494Y-137675364D01*
X65680666Y-137724814D01*
X65847203Y-137779999D01*
X65949991Y-137790500D01*
X66536060Y-137790499D01*
X66603099Y-137810183D01*
X66623741Y-137826818D01*
X66814181Y-138017258D01*
X66847666Y-138078581D01*
X66850500Y-138104939D01*
X66850500Y-139197532D01*
X66830815Y-139264571D01*
X66778011Y-139310326D01*
X66739104Y-139320890D01*
X66702290Y-139324651D01*
X66702289Y-139324651D01*
X66541305Y-139377996D01*
X66541294Y-139378001D01*
X66396959Y-139467029D01*
X66396955Y-139467032D01*
X66277032Y-139586955D01*
X66277029Y-139586959D01*
X66188001Y-139731294D01*
X66187996Y-139731305D01*
X66134651Y-139892290D01*
X66124500Y-139991647D01*
X66124500Y-140104191D01*
X66104815Y-140171230D01*
X66088181Y-140191872D01*
X65327873Y-140952181D01*
X65266550Y-140985666D01*
X65240192Y-140988500D01*
X64837397Y-140988500D01*
X64770358Y-140968815D01*
X64724603Y-140916011D01*
X64714659Y-140846853D01*
X64719691Y-140825496D01*
X64733825Y-140782841D01*
X64765349Y-140687708D01*
X64775500Y-140588345D01*
X64775499Y-140377017D01*
X64795183Y-140309978D01*
X64796397Y-140308126D01*
X64870775Y-140196811D01*
X64923580Y-140069328D01*
X64950500Y-139933994D01*
X64950500Y-139796006D01*
X64950500Y-139535908D01*
X64970185Y-139468869D01*
X65014271Y-139430363D01*
X65013187Y-139428605D01*
X65019332Y-139424814D01*
X65019334Y-139424814D01*
X65168656Y-139332712D01*
X65292712Y-139208656D01*
X65384814Y-139059334D01*
X65439999Y-138892797D01*
X65450500Y-138790009D01*
X65450499Y-137989992D01*
X65439999Y-137887203D01*
X65417701Y-137819912D01*
X65415299Y-137750084D01*
X65451031Y-137690042D01*
X65513551Y-137658849D01*
X65583010Y-137666409D01*
G37*
%TD.AperFunction*%
%TA.AperFunction,Conductor*%
G36*
X73290510Y-100520185D02*
G01*
X73336265Y-100572989D01*
X73346209Y-100642147D01*
X73317184Y-100705703D01*
X73296356Y-100724818D01*
X73132786Y-100843656D01*
X72988028Y-100988414D01*
X72867715Y-101154014D01*
X72774781Y-101336404D01*
X72711522Y-101531093D01*
X72679500Y-101733276D01*
X72679500Y-101937979D01*
X72711522Y-102140162D01*
X72751049Y-102261809D01*
X72753044Y-102331650D01*
X72716964Y-102391483D01*
X72654263Y-102422312D01*
X72633118Y-102424128D01*
X66921155Y-102424128D01*
X66766510Y-102454889D01*
X66766498Y-102454892D01*
X66620827Y-102515230D01*
X66620820Y-102515234D01*
X66591928Y-102534539D01*
X66563955Y-102553230D01*
X66497279Y-102574108D01*
X66495065Y-102574128D01*
X57624500Y-102574128D01*
X57557461Y-102554443D01*
X57511706Y-102501639D01*
X57500500Y-102450128D01*
X57500500Y-101179014D01*
X57500500Y-101179012D01*
X57494086Y-101108432D01*
X57443478Y-100946022D01*
X57355472Y-100800443D01*
X57355470Y-100800441D01*
X57355469Y-100800439D01*
X57267211Y-100712181D01*
X57233726Y-100650858D01*
X57238710Y-100581166D01*
X57280582Y-100525233D01*
X57346046Y-100500816D01*
X57354892Y-100500500D01*
X73223471Y-100500500D01*
X73290510Y-100520185D01*
G37*
%TD.AperFunction*%
%TD*%
M02*
