%TF.GenerationSoftware,KiCad,Pcbnew,9.0.6*%
%TF.CreationDate,2026-03-18T15:19:39-04:00*%
%TF.ProjectId,CONTROL,434f4e54-524f-44c2-9e6b-696361645f70,rev?*%
%TF.SameCoordinates,Original*%
%TF.FileFunction,Copper,L2,Bot*%
%TF.FilePolarity,Positive*%
%FSLAX46Y46*%
G04 Gerber Fmt 4.6, Leading zero omitted, Abs format (unit mm)*
G04 Created by KiCad (PCBNEW 9.0.6) date 2026-03-18 15:19:39*
%MOMM*%
%LPD*%
G01*
G04 APERTURE LIST*
G04 Aperture macros list*
%AMRoundRect*
0 Rectangle with rounded corners*
0 $1 Rounding radius*
0 $2 $3 $4 $5 $6 $7 $8 $9 X,Y pos of 4 corners*
0 Add a 4 corners polygon primitive as box body*
4,1,4,$2,$3,$4,$5,$6,$7,$8,$9,$2,$3,0*
0 Add four circle primitives for the rounded corners*
1,1,$1+$1,$2,$3*
1,1,$1+$1,$4,$5*
1,1,$1+$1,$6,$7*
1,1,$1+$1,$8,$9*
0 Add four rect primitives between the rounded corners*
20,1,$1+$1,$2,$3,$4,$5,0*
20,1,$1+$1,$4,$5,$6,$7,0*
20,1,$1+$1,$6,$7,$8,$9,0*
20,1,$1+$1,$8,$9,$2,$3,0*%
%AMFreePoly0*
4,1,37,0.603843,0.796157,0.639018,0.796157,0.711114,0.766294,0.766294,0.711114,0.796157,0.639018,0.796157,0.603843,0.800000,0.600000,0.800000,-0.600000,0.796157,-0.603843,0.796157,-0.639018,0.766294,-0.711114,0.711114,-0.766294,0.639018,-0.796157,0.603843,-0.796157,0.600000,-0.800000,0.000000,-0.800000,0.000000,-0.796148,-0.078414,-0.796148,-0.232228,-0.765552,-0.377117,-0.705537,
-0.507515,-0.618408,-0.618408,-0.507515,-0.705537,-0.377117,-0.765552,-0.232228,-0.796148,-0.078414,-0.796148,0.078414,-0.765552,0.232228,-0.705537,0.377117,-0.618408,0.507515,-0.507515,0.618408,-0.377117,0.705537,-0.232228,0.765552,-0.078414,0.796148,0.000000,0.796148,0.000000,0.800000,0.600000,0.800000,0.603843,0.796157,0.603843,0.796157,$1*%
%AMFreePoly1*
4,1,37,0.000000,0.796148,0.078414,0.796148,0.232228,0.765552,0.377117,0.705537,0.507515,0.618408,0.618408,0.507515,0.705537,0.377117,0.765552,0.232228,0.796148,0.078414,0.796148,-0.078414,0.765552,-0.232228,0.705537,-0.377117,0.618408,-0.507515,0.507515,-0.618408,0.377117,-0.705537,0.232228,-0.765552,0.078414,-0.796148,0.000000,-0.796148,0.000000,-0.800000,-0.600000,-0.800000,
-0.603843,-0.796157,-0.639018,-0.796157,-0.711114,-0.766294,-0.766294,-0.711114,-0.796157,-0.639018,-0.796157,-0.603843,-0.800000,-0.600000,-0.800000,0.600000,-0.796157,0.603843,-0.796157,0.639018,-0.766294,0.711114,-0.711114,0.766294,-0.639018,0.796157,-0.603843,0.796157,-0.600000,0.800000,0.000000,0.800000,0.000000,0.796148,0.000000,0.796148,$1*%
G04 Aperture macros list end*
%TA.AperFunction,SMDPad,CuDef*%
%ADD10RoundRect,0.218750X0.218750X0.256250X-0.218750X0.256250X-0.218750X-0.256250X0.218750X-0.256250X0*%
%TD*%
%TA.AperFunction,ComponentPad*%
%ADD11R,1.700000X1.700000*%
%TD*%
%TA.AperFunction,ComponentPad*%
%ADD12C,1.700000*%
%TD*%
%TA.AperFunction,ComponentPad*%
%ADD13RoundRect,0.200000X-0.600000X-0.600000X0.600000X-0.600000X0.600000X0.600000X-0.600000X0.600000X0*%
%TD*%
%TA.AperFunction,ComponentPad*%
%ADD14C,1.600000*%
%TD*%
%TA.AperFunction,ComponentPad*%
%ADD15FreePoly0,0.000000*%
%TD*%
%TA.AperFunction,ComponentPad*%
%ADD16FreePoly1,0.000000*%
%TD*%
%TA.AperFunction,ComponentPad*%
%ADD17C,0.700000*%
%TD*%
%TA.AperFunction,ComponentPad*%
%ADD18O,2.400000X0.900000*%
%TD*%
%TA.AperFunction,ComponentPad*%
%ADD19O,1.700000X0.900000*%
%TD*%
%TA.AperFunction,SMDPad,CuDef*%
%ADD20RoundRect,0.200000X-0.275000X0.200000X-0.275000X-0.200000X0.275000X-0.200000X0.275000X0.200000X0*%
%TD*%
%TA.AperFunction,SMDPad,CuDef*%
%ADD21RoundRect,0.225000X0.250000X-0.225000X0.250000X0.225000X-0.250000X0.225000X-0.250000X-0.225000X0*%
%TD*%
%TA.AperFunction,SMDPad,CuDef*%
%ADD22RoundRect,0.200000X0.275000X-0.200000X0.275000X0.200000X-0.275000X0.200000X-0.275000X-0.200000X0*%
%TD*%
%TA.AperFunction,SMDPad,CuDef*%
%ADD23RoundRect,0.225000X-0.225000X-0.250000X0.225000X-0.250000X0.225000X0.250000X-0.225000X0.250000X0*%
%TD*%
%TA.AperFunction,SMDPad,CuDef*%
%ADD24RoundRect,0.200000X0.200000X0.275000X-0.200000X0.275000X-0.200000X-0.275000X0.200000X-0.275000X0*%
%TD*%
%TA.AperFunction,SMDPad,CuDef*%
%ADD25RoundRect,0.225000X0.225000X0.250000X-0.225000X0.250000X-0.225000X-0.250000X0.225000X-0.250000X0*%
%TD*%
%TA.AperFunction,SMDPad,CuDef*%
%ADD26RoundRect,0.225000X-0.250000X0.225000X-0.250000X-0.225000X0.250000X-0.225000X0.250000X0.225000X0*%
%TD*%
%TA.AperFunction,ViaPad*%
%ADD27C,0.600000*%
%TD*%
%TA.AperFunction,Conductor*%
%ADD28C,0.600000*%
%TD*%
%TA.AperFunction,Conductor*%
%ADD29C,0.300000*%
%TD*%
%TA.AperFunction,Conductor*%
%ADD30C,0.200000*%
%TD*%
G04 APERTURE END LIST*
D10*
%TO.P,FB1,1*%
%TO.N,3.3VA*%
X63037500Y-154750000D03*
%TO.P,FB1,2*%
%TO.N,3.3V*%
X61462500Y-154750000D03*
%TD*%
D11*
%TO.P,J1,1,Pin_1*%
%TO.N,3.3V*%
X47750000Y-103500000D03*
D12*
%TO.P,J1,2,Pin_2*%
%TO.N,GND*%
X47750000Y-106040000D03*
%TO.P,J1,3,Pin_3*%
%TO.N,12V*%
X47750000Y-108580000D03*
%TO.P,J1,4,Pin_4*%
%TO.N,GND*%
X47750000Y-111120000D03*
%TO.P,J1,5,Pin_5*%
%TO.N,V_Piezo*%
X47750000Y-113660000D03*
%TO.P,J1,6,Pin_6*%
%TO.N,GND*%
X47750000Y-116200000D03*
%TO.P,J1,7,Pin_7*%
%TO.N,/GPIO_6*%
X47750000Y-118740000D03*
%TO.P,J1,8,Pin_8*%
%TO.N,/GPIO_7*%
X47750000Y-121280000D03*
%TO.P,J1,9,Pin_9*%
%TO.N,/GPIO_8*%
X47750000Y-123820000D03*
%TO.P,J1,10,Pin_10*%
%TO.N,/GPIO_9*%
X47750000Y-126360000D03*
%TO.P,J1,11,Pin_11*%
%TO.N,/GPIO_10*%
X47750000Y-128900000D03*
%TO.P,J1,12,Pin_12*%
%TO.N,/GPIO_11*%
X47750000Y-131440000D03*
%TO.P,J1,13,Pin_13*%
%TO.N,/GPIO_12*%
X47750000Y-133980000D03*
%TO.P,J1,14,Pin_14*%
%TO.N,/GPIO_13*%
X47750000Y-136520000D03*
%TO.P,J1,15,Pin_15*%
%TO.N,/GPIO_14*%
X47750000Y-139060000D03*
%TO.P,J1,16,Pin_16*%
%TO.N,/ADC1_IN0*%
X47750000Y-141600000D03*
%TO.P,J1,17,Pin_17*%
%TO.N,/ADC1_IN1*%
X47750000Y-144140000D03*
%TO.P,J1,18,Pin_18*%
%TO.N,/ADC1_IN2*%
X47750000Y-146680000D03*
%TO.P,J1,19,Pin_19*%
%TO.N,/ADC1_IN3*%
X47750000Y-149220000D03*
%TO.P,J1,20,Pin_20*%
%TO.N,/PC5*%
X47750000Y-151760000D03*
%TO.P,J1,21,Pin_21*%
%TO.N,/PB0*%
X47750000Y-154300000D03*
%TO.P,J1,22,Pin_22*%
%TO.N,/PB1*%
X47750000Y-156840000D03*
%TO.P,J1,23,Pin_23*%
%TO.N,/HI_A*%
X47750000Y-159380000D03*
%TO.P,J1,24,Pin_24*%
%TO.N,/LI_A*%
X47750000Y-161920000D03*
%TD*%
D11*
%TO.P,J2,1,Pin_1*%
%TO.N,/PC3*%
X82750000Y-103500000D03*
D12*
%TO.P,J2,2,Pin_2*%
%TO.N,/PC0*%
X82750000Y-106040000D03*
%TO.P,J2,3,Pin_3*%
%TO.N,/PC13*%
X82750000Y-108580000D03*
%TO.P,J2,4,Pin_4*%
%TO.N,/GPIO_28*%
X82750000Y-111120000D03*
%TO.P,J2,5,Pin_5*%
%TO.N,/GPIO_27*%
X82750000Y-113660000D03*
%TO.P,J2,6,Pin_6*%
%TO.N,/GPIO_26*%
X82750000Y-116200000D03*
%TO.P,J2,7,Pin_7*%
%TO.N,/GPIO_17*%
X82750000Y-118740000D03*
%TO.P,J2,8,Pin_8*%
%TO.N,/GPIO_16*%
X82750000Y-121280000D03*
%TO.P,J2,9,Pin_9*%
%TO.N,/PC4*%
X82750000Y-123820000D03*
%TO.P,J2,10,Pin_10*%
%TO.N,/PB12*%
X82750000Y-126360000D03*
%TO.P,J2,11,Pin_11*%
%TO.N,/PB14*%
X82750000Y-128900000D03*
%TO.P,J2,12,Pin_12*%
%TO.N,/PB15*%
X82750000Y-131440000D03*
%TO.P,J2,13,Pin_13*%
%TO.N,/PC6*%
X82750000Y-133980000D03*
%TO.P,J2,14,Pin_14*%
%TO.N,/PC7*%
X82750000Y-136520000D03*
%TO.P,J2,15,Pin_15*%
%TO.N,/PC8*%
X82750000Y-139060000D03*
%TO.P,J2,16,Pin_16*%
%TO.N,/PC9*%
X82750000Y-141600000D03*
%TO.P,J2,17,Pin_17*%
%TO.N,/PA9*%
X82750000Y-144140000D03*
%TO.P,J2,18,Pin_18*%
%TO.N,/PA10*%
X82750000Y-146680000D03*
%TO.P,J2,19,Pin_19*%
%TO.N,/SCL*%
X82750000Y-149220000D03*
%TO.P,J2,20,Pin_20*%
%TO.N,/SDA*%
X82750000Y-151760000D03*
%TO.P,J2,21,Pin_21*%
%TO.N,/PB6*%
X82750000Y-154300000D03*
%TO.P,J2,22,Pin_22*%
%TO.N,/PB5*%
X82750000Y-156840000D03*
%TO.P,J2,23,Pin_23*%
%TO.N,/HI_B*%
X82750000Y-159380000D03*
%TO.P,J2,24,Pin_24*%
%TO.N,/LI_B*%
X82750000Y-161920000D03*
%TD*%
D13*
%TO.P,A1,1,GPIO0*%
%TO.N,/UART_TX*%
X56200000Y-101835628D03*
D14*
%TO.P,A1,2,GPIO1*%
%TO.N,/UART_RX*%
X56200000Y-104375628D03*
D15*
%TO.P,A1,3,GND*%
%TO.N,GND*%
X56200000Y-106915628D03*
D14*
%TO.P,A1,4,GPIO2*%
%TO.N,/SPI_SCK*%
X56200000Y-109455628D03*
%TO.P,A1,5,GPIO3*%
%TO.N,/SPI_MOSI*%
X56200000Y-111995628D03*
%TO.P,A1,6,GPIO4*%
%TO.N,/SPI_MISO*%
X56200000Y-114535628D03*
%TO.P,A1,7,GPIO5*%
%TO.N,/HEARTBEAT*%
X56200000Y-117075628D03*
D15*
%TO.P,A1,8,GND*%
%TO.N,GND*%
X56200000Y-119615628D03*
D14*
%TO.P,A1,9,GPIO6*%
%TO.N,/GPIO_6*%
X56200000Y-122155628D03*
%TO.P,A1,10,GPIO7*%
%TO.N,/GPIO_7*%
X56200000Y-124695628D03*
%TO.P,A1,11,GPIO8*%
%TO.N,/GPIO_8*%
X56200000Y-127235628D03*
%TO.P,A1,12,GPIO9*%
%TO.N,/GPIO_9*%
X56200000Y-129775628D03*
D15*
%TO.P,A1,13,GND*%
%TO.N,GND*%
X56200000Y-132315628D03*
D14*
%TO.P,A1,14,GPIO10*%
%TO.N,/GPIO_10*%
X56200000Y-134855628D03*
%TO.P,A1,15,GPIO11*%
%TO.N,/GPIO_11*%
X56200000Y-137395628D03*
%TO.P,A1,16,GPIO12*%
%TO.N,/GPIO_12*%
X56200000Y-139935628D03*
%TO.P,A1,17,GPIO13*%
%TO.N,/GPIO_13*%
X56200000Y-142475628D03*
D15*
%TO.P,A1,18,GND*%
%TO.N,GND*%
X56200000Y-145015628D03*
D14*
%TO.P,A1,19,GPIO14*%
%TO.N,/GPIO_14*%
X56200000Y-147555628D03*
%TO.P,A1,20,GPIO15*%
%TO.N,/GPIO_15*%
X56200000Y-150095628D03*
%TO.P,A1,21,GPIO16*%
%TO.N,/GPIO_16*%
X73980000Y-150095628D03*
%TO.P,A1,22,GPIO17*%
%TO.N,/GPIO_17*%
X73980000Y-147555628D03*
D16*
%TO.P,A1,23,GND*%
%TO.N,GND*%
X73980000Y-145015628D03*
D14*
%TO.P,A1,24,GPIO18*%
%TO.N,/NRST*%
X73980000Y-142475628D03*
%TO.P,A1,25,GPIO19*%
%TO.N,/BOOT0*%
X73980000Y-139935628D03*
%TO.P,A1,26,GPIO20*%
%TO.N,/SWO*%
X73980000Y-137395628D03*
%TO.P,A1,27,GPIO21*%
%TO.N,/SWCLK*%
X73980000Y-134855628D03*
D16*
%TO.P,A1,28,GND*%
%TO.N,GND*%
X73980000Y-132315628D03*
D14*
%TO.P,A1,29,GPIO22*%
%TO.N,/SWDIO*%
X73980000Y-129775628D03*
%TO.P,A1,30,RUN*%
%TO.N,unconnected-(A1-RUN-Pad30)*%
X73980000Y-127235628D03*
%TO.P,A1,31,GPIO26_ADC0*%
%TO.N,/GPIO_26*%
X73980000Y-124695628D03*
%TO.P,A1,32,GPIO27_ADC1*%
%TO.N,/GPIO_27*%
X73980000Y-122155628D03*
D16*
%TO.P,A1,33,AGND*%
%TO.N,unconnected-(A1-AGND-Pad33)*%
X73980000Y-119615628D03*
D14*
%TO.P,A1,34,GPIO28_ADC2*%
%TO.N,/GPIO_28*%
X73980000Y-117075628D03*
%TO.P,A1,35,ADC_VREF*%
%TO.N,3.3V*%
X73980000Y-114535628D03*
%TO.P,A1,36,3V3*%
%TO.N,unconnected-(A1-3V3-Pad36)*%
X73980000Y-111995628D03*
%TO.P,A1,37,3V3_EN*%
%TO.N,unconnected-(A1-3V3_EN-Pad37)*%
X73980000Y-109455628D03*
D16*
%TO.P,A1,38,GND*%
%TO.N,GND*%
X73980000Y-106915628D03*
D14*
%TO.P,A1,39,VSYS*%
%TO.N,3.3V*%
X73980000Y-104375628D03*
%TO.P,A1,40,VBUS*%
%TO.N,unconnected-(A1-VBUS-Pad40)*%
X73980000Y-101835628D03*
%TD*%
D17*
%TO.P,J4,A1,GND*%
%TO.N,GND*%
X75575000Y-177075000D03*
%TO.P,J4,A4,VBUS*%
%TO.N,unconnected-(J4-VBUS-PadA4)*%
X75575000Y-176225000D03*
%TO.P,J4,A5,CC1*%
%TO.N,Net-(J4-CC1)*%
X75575000Y-175375000D03*
%TO.P,J4,A6,D+*%
%TO.N,/USB_D+*%
X75575000Y-174525000D03*
%TO.P,J4,A7,D-*%
%TO.N,/USB_D-*%
X75575000Y-173675000D03*
%TO.P,J4,A8,SBU1*%
%TO.N,unconnected-(J4-SBU1-PadA8)*%
X75575000Y-172825000D03*
%TO.P,J4,A9,VBUS*%
%TO.N,unconnected-(J4-VBUS-PadA4)_3*%
X75575000Y-171975000D03*
%TO.P,J4,A12,GND*%
%TO.N,GND*%
X75575000Y-171125000D03*
%TO.P,J4,B1,GND*%
X76925000Y-171125000D03*
%TO.P,J4,B4,VBUS*%
%TO.N,unconnected-(J4-VBUS-PadA4)_1*%
X76925000Y-171975000D03*
%TO.P,J4,B5,CC2*%
%TO.N,Net-(J4-CC2)*%
X76925000Y-172825000D03*
%TO.P,J4,B6,D+*%
%TO.N,/USB_D+*%
X76925000Y-173675000D03*
%TO.P,J4,B7,D-*%
%TO.N,/USB_D-*%
X76925000Y-174525000D03*
%TO.P,J4,B8,SBU2*%
%TO.N,unconnected-(J4-SBU2-PadB8)*%
X76925000Y-175375000D03*
%TO.P,J4,B9,VBUS*%
%TO.N,unconnected-(J4-VBUS-PadA4)_2*%
X76925000Y-176225000D03*
%TO.P,J4,B12,GND*%
%TO.N,GND*%
X76925000Y-177075000D03*
D18*
%TO.P,J4,S1,SHIELD*%
X76555000Y-178425000D03*
D19*
X79935000Y-178425000D03*
D18*
X76555000Y-169775000D03*
D19*
X79935000Y-169775000D03*
%TD*%
D20*
%TO.P,R4,1*%
%TO.N,3.3V*%
X49700000Y-170850000D03*
%TO.P,R4,2*%
%TO.N,/SPI2_MOSI*%
X49700000Y-172500000D03*
%TD*%
D21*
%TO.P,C20,1*%
%TO.N,GND*%
X63825000Y-164200000D03*
%TO.P,C20,2*%
%TO.N,Net-(U1-VCAP_1)*%
X63825000Y-162650000D03*
%TD*%
%TO.P,C2,1*%
%TO.N,3.3V*%
X62125000Y-158175000D03*
%TO.P,C2,2*%
%TO.N,GND*%
X62125000Y-156625000D03*
%TD*%
D22*
%TO.P,R3,1*%
%TO.N,3.3V*%
X80000000Y-153425000D03*
%TO.P,R3,2*%
%TO.N,/SDA*%
X80000000Y-151775000D03*
%TD*%
D23*
%TO.P,C7,1*%
%TO.N,3.3VA*%
X65025000Y-154725000D03*
%TO.P,C7,2*%
%TO.N,GND*%
X66575000Y-154725000D03*
%TD*%
D21*
%TO.P,C9,1*%
%TO.N,3.3V*%
X61395000Y-153275000D03*
%TO.P,C9,2*%
%TO.N,GND*%
X61395000Y-151725000D03*
%TD*%
%TO.P,C6,1*%
%TO.N,3.3V*%
X60300000Y-158175000D03*
%TO.P,C6,2*%
%TO.N,GND*%
X60300000Y-156625000D03*
%TD*%
D24*
%TO.P,R10,1*%
%TO.N,Net-(D2-BA)*%
X80275000Y-164550000D03*
%TO.P,R10,2*%
%TO.N,/LED_BLUE*%
X78625000Y-164550000D03*
%TD*%
D25*
%TO.P,C4,1*%
%TO.N,3.3V*%
X72050000Y-166075000D03*
%TO.P,C4,2*%
%TO.N,GND*%
X70500000Y-166075000D03*
%TD*%
D26*
%TO.P,C5,1*%
%TO.N,3.3V*%
X73475000Y-156125000D03*
%TO.P,C5,2*%
%TO.N,GND*%
X73475000Y-157675000D03*
%TD*%
D21*
%TO.P,C8,1*%
%TO.N,3.3VA*%
X63200000Y-153275000D03*
%TO.P,C8,2*%
%TO.N,GND*%
X63200000Y-151725000D03*
%TD*%
D24*
%TO.P,R8,1*%
%TO.N,Net-(D2-RA)*%
X80275000Y-168050000D03*
%TO.P,R8,2*%
%TO.N,/LED_RED*%
X78625000Y-168050000D03*
%TD*%
D20*
%TO.P,R2,1*%
%TO.N,3.3V*%
X80000000Y-147575000D03*
%TO.P,R2,2*%
%TO.N,/SCL*%
X80000000Y-149225000D03*
%TD*%
D22*
%TO.P,R6,1*%
%TO.N,3.3V*%
X49700000Y-169300000D03*
%TO.P,R6,2*%
%TO.N,/SPI2_MISO*%
X49700000Y-167650000D03*
%TD*%
D21*
%TO.P,C10,1*%
%TO.N,GND*%
X68575000Y-157825000D03*
%TO.P,C10,2*%
%TO.N,/NRST*%
X68575000Y-156275000D03*
%TD*%
%TO.P,C3,1*%
%TO.N,3.3V*%
X62125000Y-164675000D03*
%TO.P,C3,2*%
%TO.N,GND*%
X62125000Y-163125000D03*
%TD*%
D26*
%TO.P,C19,1*%
%TO.N,3.3V*%
X70200000Y-105240628D03*
%TO.P,C19,2*%
%TO.N,GND*%
X70200000Y-106790628D03*
%TD*%
D24*
%TO.P,R9,1*%
%TO.N,Net-(D2-GA)*%
X80275000Y-166300000D03*
%TO.P,R9,2*%
%TO.N,/LED_GREEN*%
X78625000Y-166300000D03*
%TD*%
D26*
%TO.P,C18,1*%
%TO.N,3.3V*%
X71800000Y-105240628D03*
%TO.P,C18,2*%
%TO.N,GND*%
X71800000Y-106790628D03*
%TD*%
D20*
%TO.P,R11,1*%
%TO.N,Net-(J4-CC1)*%
X73900000Y-175375000D03*
%TO.P,R11,2*%
%TO.N,GND*%
X73900000Y-177025000D03*
%TD*%
D26*
%TO.P,C1,1*%
%TO.N,3.3V*%
X70300000Y-156300000D03*
%TO.P,C1,2*%
%TO.N,GND*%
X70300000Y-157850000D03*
%TD*%
D22*
%TO.P,R12,1*%
%TO.N,Net-(J4-CC2)*%
X78400000Y-172825000D03*
%TO.P,R12,2*%
%TO.N,GND*%
X78400000Y-171175000D03*
%TD*%
%TO.P,R5,1*%
%TO.N,3.3V*%
X51450000Y-170750000D03*
%TO.P,R5,2*%
%TO.N,/SPI2_SCK*%
X51450000Y-169100000D03*
%TD*%
D21*
%TO.P,C17,1*%
%TO.N,3.3V*%
X71800000Y-114440628D03*
%TO.P,C17,2*%
%TO.N,GND*%
X71800000Y-112890628D03*
%TD*%
D27*
%TO.N,GND*%
X55000000Y-154500000D03*
X50000000Y-101650000D03*
X52750000Y-101650000D03*
X76950000Y-115300000D03*
X68200000Y-111700000D03*
X59350000Y-110400000D03*
X70200000Y-101850000D03*
X65500000Y-101850000D03*
X62750000Y-101800000D03*
X59100000Y-101850000D03*
X61850000Y-144650000D03*
X69900000Y-132750000D03*
%TO.N,/HEARTBEAT*%
X61275000Y-173000000D03*
X56285146Y-159897534D03*
X64136561Y-157662218D03*
%TO.N,/UART_RX*%
X71549273Y-158959247D03*
%TO.N,/SPI_SCK*%
X58850000Y-158800000D03*
%TO.N,/SPI_MOSI*%
X57590380Y-159409620D03*
%TO.N,/SPI_MISO*%
X57034976Y-159913634D03*
%TO.N,/UART_TX*%
X72050000Y-157548528D03*
%TO.N,3.3VA*%
X65400000Y-156000000D03*
%TO.N,/NRST*%
X68575000Y-156275000D03*
X71177000Y-143600000D03*
%TO.N,Net-(U1-VCAP_1)*%
X63825000Y-162650000D03*
%TO.N,Net-(D2-BA)*%
X80350000Y-165200000D03*
%TO.N,Net-(D2-GA)*%
X80275000Y-166300000D03*
%TO.N,Net-(D2-RA)*%
X80350000Y-167400000D03*
%TO.N,/HI_B*%
X80399000Y-154500000D03*
%TO.N,/SDA*%
X80000000Y-151775000D03*
%TO.N,/SCL*%
X80000000Y-149225000D03*
%TO.N,/SPI2_MISO*%
X64298070Y-158751930D03*
X49700000Y-167650000D03*
%TO.N,/SPI2_MOSI*%
X49700000Y-172500000D03*
X64800000Y-159450000D03*
%TO.N,3.3V*%
X62125000Y-164675000D03*
X61395000Y-153275000D03*
X79950000Y-153400000D03*
X80150000Y-143800000D03*
X72050000Y-166075000D03*
X66900000Y-158400000D03*
X65240380Y-156890380D03*
X80115380Y-127065380D03*
X71450000Y-177450000D03*
X50475000Y-178575000D03*
X54925000Y-178675000D03*
X74250000Y-156150000D03*
X47600000Y-170850000D03*
X63400000Y-157350000D03*
X70300000Y-156300000D03*
X57800000Y-153850000D03*
X74050000Y-154050000D03*
%TO.N,GND*%
X60250000Y-157275000D03*
X75630000Y-102440000D03*
X62930000Y-150700000D03*
X68010000Y-173560000D03*
X78170000Y-104980000D03*
X80710000Y-173560000D03*
X66000000Y-146040000D03*
X65470000Y-176100000D03*
X69550000Y-142290000D03*
X69550000Y-143540000D03*
X62930000Y-125300000D03*
X50230000Y-107520000D03*
X83250000Y-178640000D03*
X65470000Y-173560000D03*
X71050000Y-108250000D03*
X75630000Y-104980000D03*
X80710000Y-176100000D03*
X73900000Y-177025000D03*
X75630000Y-168480000D03*
X77650000Y-128300000D03*
X55310000Y-173560000D03*
X70550000Y-127840000D03*
X73090000Y-178640000D03*
X65300000Y-142290000D03*
X83250000Y-173560000D03*
X75630000Y-110060000D03*
X68010000Y-127840000D03*
X54600000Y-144000000D03*
X69800000Y-136900000D03*
X66550000Y-135400000D03*
X53950000Y-131950000D03*
X50230000Y-117680000D03*
X75150000Y-156700000D03*
X75630000Y-112600000D03*
X52770000Y-104980000D03*
X83450000Y-165200000D03*
X65981462Y-153126885D03*
X70550000Y-125300000D03*
X62800000Y-138400000D03*
X65470000Y-117680000D03*
X65470000Y-130380000D03*
X69800000Y-135400000D03*
X70550000Y-122760000D03*
X50230000Y-115140000D03*
X52770000Y-120220000D03*
X69800000Y-141400000D03*
X66800000Y-142290000D03*
X52770000Y-112600000D03*
X83250000Y-176100000D03*
X50230000Y-110060000D03*
X48925000Y-178575000D03*
X65470000Y-122760000D03*
X65470000Y-104980000D03*
X67950000Y-177450000D03*
X78170000Y-112600000D03*
X62800000Y-136900000D03*
X68010000Y-120220000D03*
X55310000Y-171020000D03*
X52850000Y-158440000D03*
X80710000Y-102440000D03*
X68010000Y-130380000D03*
X83250000Y-171020000D03*
X50230000Y-150700000D03*
X67725000Y-146040000D03*
X62930000Y-117680000D03*
X68010000Y-171020000D03*
X69550000Y-146040000D03*
X64300000Y-142290000D03*
X78170000Y-176100000D03*
X78170000Y-107520000D03*
X52770000Y-110060000D03*
X65470000Y-107520000D03*
X68300000Y-135400000D03*
X52800000Y-177050000D03*
X50230000Y-104980000D03*
X62800000Y-135400000D03*
X83450000Y-167400000D03*
X62930000Y-115140000D03*
X62930000Y-127840000D03*
X78400000Y-171175000D03*
X68300000Y-141400000D03*
X68010000Y-122760000D03*
X72050000Y-167450000D03*
X75630000Y-107520000D03*
X62930000Y-130380000D03*
X63450000Y-164200000D03*
X65470000Y-125300000D03*
X78170000Y-102440000D03*
X57850000Y-168480000D03*
X78170000Y-110060000D03*
X52770000Y-115140000D03*
X69800000Y-138400000D03*
X64800000Y-135400000D03*
X62930000Y-104980000D03*
X62800000Y-139900000D03*
X66800000Y-141400000D03*
X70250000Y-159400000D03*
X62930000Y-120220000D03*
X52770000Y-107520000D03*
X69550000Y-144790000D03*
X64300000Y-143540000D03*
X50200000Y-164400000D03*
X50230000Y-112600000D03*
X69800000Y-139900000D03*
X83450000Y-166300000D03*
X52770000Y-117680000D03*
X62930000Y-168480000D03*
X65470000Y-127840000D03*
X65470000Y-120220000D03*
X68300000Y-142290000D03*
X68010000Y-125300000D03*
X62930000Y-122760000D03*
%TO.N,/GPIO_15*%
X51960000Y-154650000D03*
%TO.N,/SPI2_SCK*%
X51450000Y-169100000D03*
%TO.N,/BOOT0*%
X75197000Y-158480759D03*
X80100001Y-156969238D03*
X72800000Y-173300000D03*
%TO.N,/LED_RED*%
X79096827Y-162716067D03*
%TO.N,/LED_GREEN*%
X80012917Y-162818603D03*
%TO.N,/LED_BLUE*%
X80950380Y-162800380D03*
%TO.N,/PB14*%
X67900000Y-161400000D03*
%TO.N,/PC4*%
X67900000Y-160100000D03*
%TO.N,/PC3*%
X79250000Y-126050000D03*
X67644612Y-152641229D03*
X70459620Y-151140380D03*
%TO.N,/SWCLK*%
X71650000Y-168100000D03*
X70676000Y-134850000D03*
%TO.N,/PC6*%
X67900000Y-162700000D03*
%TO.N,/PC8*%
X67900000Y-164000401D03*
%TO.N,/PC13*%
X80750000Y-124600000D03*
%TO.N,/SWDIO*%
X70900000Y-167500000D03*
X71177000Y-130650000D03*
%TO.N,/PB15*%
X67285421Y-162050000D03*
%TO.N,/SWO*%
X72251653Y-158270912D03*
%TO.N,/USB_D+*%
X74800050Y-172475784D03*
%TO.N,/PC0*%
X71200000Y-152601566D03*
X80000000Y-125300000D03*
X68300000Y-153100000D03*
%TO.N,/PC7*%
X67299631Y-163367937D03*
%TO.N,/PC9*%
X67700000Y-164775000D03*
%TO.N,/PB12*%
X67400242Y-160750000D03*
%TD*%
D28*
%TO.N,3.3VA*%
X63575000Y-153275000D02*
X65025000Y-154725000D01*
X63200000Y-153275000D02*
X63575000Y-153275000D01*
X63062500Y-154725000D02*
X63037500Y-154750000D01*
X65025000Y-154725000D02*
X63062500Y-154725000D01*
%TO.N,3.3V*%
X61395000Y-154682500D02*
X61462500Y-154750000D01*
X61395000Y-153275000D02*
X61395000Y-154682500D01*
D29*
%TO.N,/SWCLK*%
X63629346Y-133650000D02*
X69476000Y-133650000D01*
X69476000Y-133650000D02*
X70676000Y-134850000D01*
X60569000Y-136710346D02*
X63629346Y-133650000D01*
X60569000Y-155319000D02*
X60569000Y-136710346D01*
X61051000Y-155801000D02*
X60569000Y-155319000D01*
X63194582Y-155801000D02*
X61051000Y-155801000D01*
X64993582Y-157600000D02*
X63194582Y-155801000D01*
X66100000Y-158700000D02*
X65000000Y-157600000D01*
X65000000Y-157600000D02*
X64993582Y-157600000D01*
X66100000Y-164804175D02*
X66100000Y-158700000D01*
X69445826Y-168150000D02*
X66100000Y-164804175D01*
X71650000Y-168100000D02*
X71600000Y-168150000D01*
X71600000Y-168150000D02*
X69445826Y-168150000D01*
%TO.N,/HEARTBEAT*%
X56433976Y-159664691D02*
X56538380Y-159560287D01*
X58547000Y-154515190D02*
X58547000Y-119422628D01*
X65450000Y-168825000D02*
X61275000Y-173000000D01*
X56285146Y-159897534D02*
X56433976Y-159748704D01*
X56538380Y-156523810D02*
X58547000Y-154515190D01*
X65450000Y-158984620D02*
X65450000Y-168825000D01*
X56433976Y-159748704D02*
X56433976Y-159664691D01*
X64136561Y-157662218D02*
X64136561Y-157671181D01*
X56538380Y-159560287D02*
X56538380Y-156523810D01*
X64136561Y-157671181D02*
X65450000Y-158984620D01*
X58547000Y-119422628D02*
X56200000Y-117075628D01*
%TO.N,/UART_RX*%
X71350000Y-155500000D02*
X71400000Y-155450000D01*
X71822000Y-143875654D02*
X71828000Y-143869654D01*
X72448000Y-153102000D02*
X72448000Y-151608428D01*
X71348000Y-158319654D02*
X71348000Y-157780346D01*
X71827000Y-150987428D02*
X71827000Y-147493909D01*
X71828000Y-143869654D02*
X71828000Y-143330346D01*
X71827000Y-120002628D02*
X56200000Y-104375628D01*
X72402000Y-153156520D02*
X72402000Y-153148000D01*
X71827000Y-143329346D02*
X71827000Y-120002628D01*
X71827000Y-147493909D02*
X71822000Y-147488909D01*
X71550000Y-158950000D02*
X71350000Y-158750000D01*
X71400000Y-155450000D02*
X71400000Y-154158520D01*
X71549273Y-158950727D02*
X71550000Y-158950000D01*
X71350000Y-158321654D02*
X71348000Y-158319654D01*
X71828000Y-143330346D02*
X71827000Y-143329346D01*
X71348000Y-157780346D02*
X71350000Y-157778346D01*
X71400000Y-154158520D02*
X72402000Y-153156520D01*
X71822000Y-147488909D02*
X71822000Y-143875654D01*
X72402000Y-153148000D02*
X72448000Y-153102000D01*
X71350000Y-158750000D02*
X71350000Y-158321654D01*
X71549273Y-158959247D02*
X71549273Y-158950727D01*
X72448000Y-151608428D02*
X71827000Y-150987428D01*
X71350000Y-157778346D02*
X71350000Y-155500000D01*
%TO.N,/SPI_SCK*%
X60050000Y-155500000D02*
X58850000Y-156700000D01*
X60050000Y-113305628D02*
X60050000Y-155500000D01*
X58850000Y-156700000D02*
X58850000Y-158800000D01*
X56200000Y-109455628D02*
X60050000Y-113305628D01*
%TO.N,/SPI_MOSI*%
X59549000Y-154859520D02*
X59549000Y-115344628D01*
X57590380Y-159409620D02*
X57600000Y-159400000D01*
X57600000Y-159400000D02*
X57600000Y-156808520D01*
X59549000Y-115344628D02*
X56200000Y-111995628D01*
X57600000Y-156808520D02*
X59549000Y-154859520D01*
%TO.N,/SPI_MISO*%
X56989380Y-156710620D02*
X59048000Y-154652000D01*
X59048000Y-117383628D02*
X56200000Y-114535628D01*
X57034976Y-159913634D02*
X57034976Y-159704159D01*
X56989380Y-159658563D02*
X56989380Y-156710620D01*
X59048000Y-154652000D02*
X59048000Y-117383628D01*
X57034976Y-159704159D02*
X56989380Y-159658563D01*
%TO.N,/UART_TX*%
X72323000Y-144083175D02*
X72329000Y-144077174D01*
X72323000Y-147281388D02*
X72323000Y-144083175D01*
X72328000Y-117963628D02*
X56200000Y-101835628D01*
X72903000Y-153364040D02*
X72903000Y-153355521D01*
X72329000Y-143122826D02*
X72328000Y-143121825D01*
X72949000Y-153309520D02*
X72949000Y-151400907D01*
X72949000Y-151400907D02*
X72328000Y-150779908D01*
X72329000Y-144077174D02*
X72329000Y-143122826D01*
X71901000Y-157399528D02*
X71901000Y-154366040D01*
X72328000Y-143121825D02*
X72328000Y-117963628D01*
X72328000Y-150779908D02*
X72328000Y-147286388D01*
X72328000Y-147286388D02*
X72323000Y-147281388D01*
X72050000Y-157548528D02*
X71901000Y-157399528D01*
X72903000Y-153355521D02*
X72949000Y-153309520D01*
X71901000Y-154366040D02*
X72903000Y-153364040D01*
%TO.N,3.3VA*%
X65400000Y-155100000D02*
X65025000Y-154725000D01*
X65400000Y-156000000D02*
X65400000Y-155100000D01*
%TO.N,/NRST*%
X71177000Y-151045949D02*
X71177000Y-143600000D01*
X71901000Y-152949000D02*
X71901000Y-151801000D01*
X71900000Y-151768948D02*
X71177000Y-151045949D01*
X71900000Y-151800000D02*
X71900000Y-151768948D01*
X68575000Y-156275000D02*
X71901000Y-152949000D01*
X71901000Y-151801000D02*
X71900000Y-151800000D01*
%TO.N,Net-(D2-BA)*%
X80275000Y-164550000D02*
X80275000Y-165125000D01*
X80275000Y-165125000D02*
X80350000Y-165200000D01*
%TO.N,Net-(D2-RA)*%
X80275000Y-167475000D02*
X80350000Y-167400000D01*
X80275000Y-168050000D02*
X80275000Y-167475000D01*
%TO.N,/HI_B*%
X80850000Y-155850000D02*
X80850000Y-157050000D01*
X80540380Y-155540380D02*
X80850000Y-155850000D01*
X80540380Y-154641380D02*
X80540380Y-155540380D01*
X82750000Y-158950000D02*
X82750000Y-159380000D01*
X80399000Y-154500000D02*
X80540380Y-154641380D01*
X80850000Y-157050000D02*
X82750000Y-158950000D01*
%TO.N,/SPI2_MISO*%
X63948070Y-158751930D02*
X55050000Y-167650000D01*
X64298070Y-158751930D02*
X63948070Y-158751930D01*
X55050000Y-167650000D02*
X49700000Y-167650000D01*
%TO.N,/SPI2_MOSI*%
X51150000Y-172500000D02*
X49700000Y-172500000D01*
X64800000Y-159450000D02*
X64200000Y-159450000D01*
X64200000Y-159450000D02*
X51150000Y-172500000D01*
D28*
%TO.N,3.3V*%
X60300000Y-158625000D02*
X56012500Y-162912500D01*
D29*
X62630827Y-157669173D02*
X62125000Y-158175000D01*
X63400000Y-157350000D02*
X63080827Y-157669173D01*
D28*
X47600000Y-168200000D02*
X47600000Y-170850000D01*
X80000000Y-147575000D02*
X81399000Y-148974000D01*
X73399000Y-167424000D02*
X73399000Y-171568214D01*
X54600000Y-164325000D02*
X56012500Y-162912500D01*
X56012500Y-162912500D02*
X52176000Y-166749000D01*
X54600000Y-157050000D02*
X54600000Y-164325000D01*
X47600000Y-175700000D02*
X50475000Y-178575000D01*
X80115380Y-127065380D02*
X79132594Y-127065380D01*
X80000000Y-147575000D02*
X80000000Y-143950000D01*
X66750000Y-158400000D02*
X65240380Y-156890380D01*
X47600000Y-170850000D02*
X47600000Y-175700000D01*
X70225000Y-178675000D02*
X71450000Y-177450000D01*
X60350000Y-166450000D02*
X60350000Y-177575000D01*
X77200000Y-117755628D02*
X73980000Y-114535628D01*
X60300000Y-158175000D02*
X60300000Y-158625000D01*
X73980000Y-114535628D02*
X71895000Y-114535628D01*
X73399000Y-171568214D02*
X71450000Y-173517214D01*
X72665000Y-104375628D02*
X71800000Y-105240628D01*
X57800000Y-153850000D02*
X54600000Y-157050000D01*
X62125000Y-164675000D02*
X60350000Y-166450000D01*
D29*
X79975000Y-153425000D02*
X79950000Y-153400000D01*
D28*
X49800000Y-170750000D02*
X49700000Y-170850000D01*
X49051000Y-166749000D02*
X47600000Y-168200000D01*
X47600000Y-170850000D02*
X49700000Y-170850000D01*
D29*
X74050000Y-154050000D02*
X74050000Y-155950000D01*
X62125000Y-158175000D02*
X60300000Y-158175000D01*
D28*
X71450000Y-173517214D02*
X71450000Y-177450000D01*
X73980000Y-104375628D02*
X72665000Y-104375628D01*
X66900000Y-158400000D02*
X66750000Y-158400000D01*
D29*
X80000000Y-153425000D02*
X79975000Y-153425000D01*
D28*
X79132594Y-127065380D02*
X77200000Y-125132786D01*
X77200000Y-125132786D02*
X77200000Y-117755628D01*
X81399000Y-152026000D02*
X80000000Y-153425000D01*
X59250000Y-178675000D02*
X70225000Y-178675000D01*
D29*
X63080827Y-157669173D02*
X62630827Y-157669173D01*
D28*
X81399000Y-148974000D02*
X81399000Y-152026000D01*
X51450000Y-170750000D02*
X49800000Y-170750000D01*
X54925000Y-178675000D02*
X59250000Y-178675000D01*
D29*
X74050000Y-155950000D02*
X74250000Y-156150000D01*
D28*
X60350000Y-177575000D02*
X59250000Y-178675000D01*
X49700000Y-169300000D02*
X49700000Y-170850000D01*
X71895000Y-114535628D02*
X71800000Y-114440628D01*
D29*
X74250000Y-156150000D02*
X73500000Y-156150000D01*
D28*
X52176000Y-166749000D02*
X49051000Y-166749000D01*
X72050000Y-166075000D02*
X73399000Y-167424000D01*
X71800000Y-105240628D02*
X70200000Y-105240628D01*
X80000000Y-143950000D02*
X80150000Y-143800000D01*
D29*
X73500000Y-156150000D02*
X73475000Y-156125000D01*
D30*
%TO.N,GND*%
X75150000Y-156700000D02*
X75100000Y-156700000D01*
X69580000Y-171020000D02*
X68010000Y-171020000D01*
D29*
X60250000Y-157275000D02*
X60250000Y-156675000D01*
D30*
X72201000Y-168399000D02*
X69580000Y-171020000D01*
X72050000Y-167450000D02*
X72201000Y-167601000D01*
X74125000Y-157675000D02*
X73475000Y-157675000D01*
X75150000Y-156700000D02*
X75150000Y-146185628D01*
X75150000Y-146185628D02*
X73980000Y-145015628D01*
X72001000Y-167499000D02*
X71924000Y-167499000D01*
D29*
X60250000Y-156675000D02*
X60300000Y-156625000D01*
D30*
X72050000Y-167450000D02*
X72001000Y-167499000D01*
X72201000Y-167601000D02*
X72201000Y-168399000D01*
D29*
X65981462Y-153126885D02*
X65981462Y-154131462D01*
D30*
X72089753Y-159510247D02*
X71321041Y-159510247D01*
X73475000Y-158125000D02*
X72089753Y-159510247D01*
D29*
X65981462Y-154131462D02*
X66575000Y-154725000D01*
D30*
X70300000Y-158489206D02*
X70300000Y-157850000D01*
X73475000Y-157675000D02*
X73475000Y-158125000D01*
X75100000Y-156700000D02*
X74125000Y-157675000D01*
X71924000Y-167499000D02*
X70500000Y-166075000D01*
X71321041Y-159510247D02*
X70300000Y-158489206D01*
D29*
%TO.N,/GPIO_15*%
X56200000Y-150095628D02*
X51960000Y-154335628D01*
X51960000Y-154335628D02*
X51960000Y-154650000D01*
%TO.N,Net-(J4-CC2)*%
X76925000Y-172825000D02*
X78400000Y-172825000D01*
%TO.N,Net-(J4-CC1)*%
X73900000Y-175375000D02*
X75575000Y-175375000D01*
D30*
%TO.N,/BOOT0*%
X75566000Y-141925820D02*
X75445000Y-141804820D01*
X75395000Y-141410489D02*
X75395000Y-141350628D01*
D29*
X80150000Y-160350000D02*
X74000000Y-166500000D01*
D30*
X75566000Y-153466580D02*
X75566000Y-141925820D01*
D29*
X80150000Y-157019237D02*
X80150000Y-160350000D01*
D30*
X75197000Y-158480759D02*
X75892000Y-157785759D01*
D29*
X74000000Y-172100000D02*
X72800000Y-173300000D01*
D30*
X75616000Y-155598713D02*
X75616000Y-153516580D01*
D29*
X80100001Y-156969238D02*
X80150000Y-157019237D01*
D30*
X75395000Y-141350628D02*
X73980000Y-139935628D01*
X75445000Y-141804820D02*
X75445000Y-141460488D01*
X75892000Y-155874713D02*
X75616000Y-155598713D01*
X75616000Y-153516580D02*
X75566000Y-153466580D01*
D29*
X74000000Y-166500000D02*
X74000000Y-172100000D01*
D30*
X75892000Y-157785759D02*
X75892000Y-155874713D01*
X75445000Y-141460488D02*
X75395000Y-141410489D01*
D29*
%TO.N,/LED_RED*%
X78589894Y-163223000D02*
X77983705Y-163223000D01*
X77983705Y-163223000D02*
X77373000Y-163833706D01*
X77373000Y-166798000D02*
X78625000Y-168050000D01*
X79096827Y-162716067D02*
X78589894Y-163223000D01*
X77373000Y-163833706D02*
X77373000Y-166798000D01*
%TO.N,/LED_GREEN*%
X77900000Y-165575000D02*
X78625000Y-166300000D01*
X78191226Y-163724000D02*
X77874000Y-164041226D01*
X79107520Y-163724000D02*
X78191226Y-163724000D01*
X80012917Y-162818603D02*
X79107520Y-163724000D01*
X77874000Y-165574000D02*
X77875000Y-165575000D01*
X77875000Y-165575000D02*
X77900000Y-165575000D01*
X77874000Y-164041226D02*
X77874000Y-165574000D01*
%TO.N,/LED_BLUE*%
X78625000Y-164425000D02*
X78625000Y-164550000D01*
X80026760Y-163724000D02*
X79841226Y-163724000D01*
X78750000Y-164550000D02*
X78625000Y-164425000D01*
X79015226Y-164550000D02*
X78750000Y-164550000D01*
X80950380Y-162800380D02*
X80026760Y-163724000D01*
X79841226Y-163724000D02*
X79015226Y-164550000D01*
%TO.N,/PB14*%
X76349000Y-159742479D02*
X77195000Y-158896479D01*
X76869000Y-142389760D02*
X77047000Y-142211760D01*
X67900000Y-161400000D02*
X74697590Y-161400000D01*
X76869000Y-152770240D02*
X76869000Y-142389760D01*
X76349000Y-159748590D02*
X76349000Y-159742479D01*
X76698000Y-138685669D02*
X76699000Y-138684669D01*
X77047000Y-142211760D02*
X77047000Y-141564100D01*
X77047000Y-141564100D02*
X76748000Y-141265100D01*
X76748000Y-141265100D02*
X76748000Y-140920769D01*
X76919000Y-155058993D02*
X76919000Y-152820240D01*
X76748000Y-140920769D02*
X76698000Y-140870769D01*
X77195000Y-158896479D02*
X77195000Y-155334993D01*
X77195000Y-155334993D02*
X76919000Y-155058993D01*
X77350000Y-136202190D02*
X77350000Y-134300000D01*
X76698000Y-140870769D02*
X76698000Y-138685669D01*
X76699000Y-138684669D02*
X76699000Y-136853190D01*
X77350000Y-134300000D02*
X82750000Y-128900000D01*
X74697590Y-161400000D02*
X76349000Y-159748590D01*
X76699000Y-136853190D02*
X77350000Y-136202190D01*
X76919000Y-152820240D02*
X76869000Y-152770240D01*
%TO.N,/PC4*%
X76095210Y-141887930D02*
X75846000Y-141638720D01*
X74721970Y-160100000D02*
X75447000Y-159374970D01*
X76448000Y-135828570D02*
X76448000Y-133926380D01*
X75796000Y-141244389D02*
X75796000Y-138312049D01*
X75967000Y-142016140D02*
X76095210Y-141887930D01*
X81300000Y-126800000D02*
X81300000Y-125270000D01*
X76017000Y-153300480D02*
X75967000Y-153300480D01*
X75796000Y-138312049D02*
X75797000Y-138311049D01*
X75447000Y-159374970D02*
X75447000Y-159368859D01*
X75447000Y-159368859D02*
X76293000Y-158522859D01*
X76849000Y-133525380D02*
X76849000Y-131623190D01*
X75797000Y-136479570D02*
X76448000Y-135828570D01*
X75846000Y-141638720D02*
X75846000Y-141294389D01*
X76850000Y-131250000D02*
X81300000Y-126800000D01*
X76850000Y-131622190D02*
X76850000Y-131250000D01*
X76017000Y-155432613D02*
X76017000Y-153300480D01*
X75967000Y-153300480D02*
X75967000Y-142016140D01*
X75846000Y-141294389D02*
X75796000Y-141244389D01*
X81300000Y-125270000D02*
X82750000Y-123820000D01*
X76849000Y-131623190D02*
X76850000Y-131622190D01*
X76448000Y-133926380D02*
X76849000Y-133525380D01*
X67900000Y-160100000D02*
X74721970Y-160100000D01*
X76293000Y-158522859D02*
X76293000Y-155708613D01*
X76293000Y-155708613D02*
X76017000Y-155432613D01*
X75797000Y-138311049D02*
X75797000Y-136479570D01*
%TO.N,/PC3*%
X70459620Y-151140380D02*
X70804071Y-151484831D01*
X68129346Y-152350000D02*
X67838117Y-152641229D01*
X79250000Y-126050000D02*
X79250000Y-107000000D01*
X70804071Y-152076841D02*
X70530912Y-152350000D01*
X67838117Y-152641229D02*
X67644612Y-152641229D01*
X70804071Y-151484831D02*
X70804071Y-152076841D01*
X79250000Y-107000000D02*
X82750000Y-103500000D01*
X70530912Y-152350000D02*
X68129346Y-152350000D01*
%TO.N,/PC6*%
X77650000Y-140891480D02*
X77650000Y-139080000D01*
X78350000Y-155545090D02*
X78350000Y-155214373D01*
X77821000Y-152446620D02*
X77771000Y-152396620D01*
X74941480Y-162700000D02*
X78097000Y-159544480D01*
X77650000Y-139080000D02*
X82750000Y-133980000D01*
X77821000Y-154685373D02*
X77821000Y-152446620D01*
X78350000Y-155214373D02*
X77821000Y-154685373D01*
X67900000Y-162700000D02*
X74941480Y-162700000D01*
X77949000Y-142585380D02*
X77949000Y-141190480D01*
X77949000Y-141190480D02*
X77650000Y-140891480D01*
X77771000Y-142763380D02*
X77949000Y-142585380D01*
X78097000Y-159544480D02*
X78097000Y-155798090D01*
X77771000Y-152396620D02*
X77771000Y-142763380D01*
X78097000Y-155798090D02*
X78350000Y-155545090D01*
%TO.N,/PC8*%
X78673000Y-143137000D02*
X82750000Y-139060000D01*
X78999000Y-156171710D02*
X79638380Y-155532329D01*
X79638380Y-155227133D02*
X78723000Y-154311753D01*
X67900401Y-164000000D02*
X75082960Y-164000000D01*
X79638380Y-155532329D02*
X79638380Y-155227133D01*
X78723000Y-154311753D02*
X78723000Y-152073000D01*
X78673000Y-152023000D02*
X78673000Y-143137000D01*
X67900000Y-164000401D02*
X67900401Y-164000000D01*
X78999000Y-160083960D02*
X78999000Y-156171710D01*
X75082960Y-164000000D02*
X78999000Y-160083960D01*
X78723000Y-152073000D02*
X78673000Y-152023000D01*
%TO.N,/PC13*%
X80750000Y-124600000D02*
X80750000Y-110580000D01*
X80750000Y-110580000D02*
X82750000Y-108580000D01*
%TO.N,/SWDIO*%
X67550000Y-153467271D02*
X66993612Y-152910883D01*
X70900000Y-167500000D02*
X69504346Y-167500000D01*
X67550000Y-159300000D02*
X67550000Y-153467271D01*
X69504346Y-167500000D02*
X66634421Y-164630075D01*
X67920825Y-151850000D02*
X67921825Y-151849000D01*
X71326000Y-130799000D02*
X71177000Y-130650000D01*
X71326000Y-142530346D02*
X71326000Y-130799000D01*
X70676000Y-144019654D02*
X70526000Y-143869654D01*
X66634421Y-160215579D02*
X67550000Y-159300000D01*
X66993612Y-152371575D02*
X67515187Y-151850000D01*
X70526000Y-143869654D02*
X70526000Y-143330346D01*
X67515187Y-151850000D02*
X67920825Y-151850000D01*
X67921825Y-151849000D02*
X68801000Y-151849000D01*
X68801000Y-151849000D02*
X70676000Y-149974000D01*
X70676000Y-149974000D02*
X70676000Y-144019654D01*
X70526000Y-143330346D02*
X71326000Y-142530346D01*
X66993612Y-152910883D02*
X66993612Y-152371575D01*
X66634421Y-164630075D02*
X66634421Y-160215579D01*
%TO.N,/PB15*%
X77646000Y-155148183D02*
X77370000Y-154872183D01*
X77150000Y-138871480D02*
X77150000Y-137040000D01*
X67285421Y-162050000D02*
X74800000Y-162050000D01*
X77646000Y-159204000D02*
X77646000Y-155148183D01*
X77370000Y-152633430D02*
X77320000Y-152583430D01*
X77320000Y-142576570D02*
X77498000Y-142398570D01*
X77320000Y-152583430D02*
X77320000Y-142576570D01*
X77370000Y-154872183D02*
X77370000Y-152633430D01*
X77149000Y-138872479D02*
X77150000Y-138871480D01*
X74800000Y-162050000D02*
X77646000Y-159204000D01*
X77199000Y-141078290D02*
X77199000Y-140733959D01*
X77498000Y-141377290D02*
X77199000Y-141078290D01*
X77150000Y-137040000D02*
X82750000Y-131440000D01*
X77149000Y-140683959D02*
X77149000Y-138872479D01*
X77199000Y-140733959D02*
X77149000Y-140683959D01*
X77498000Y-142398570D02*
X77498000Y-141377290D01*
%TO.N,/SWO*%
X72829000Y-142914305D02*
X72829000Y-138546628D01*
X72650000Y-157099000D02*
X72650000Y-154325560D01*
X72251653Y-158270912D02*
X72418912Y-158270912D01*
X73450002Y-153517036D02*
X73450000Y-151193385D01*
X72649000Y-158040824D02*
X72649000Y-157799471D01*
X73450000Y-151193385D02*
X72829000Y-150572388D01*
X72830000Y-142915306D02*
X72829000Y-142914305D01*
X72824000Y-144290695D02*
X72830001Y-144284694D01*
X73450000Y-153517041D02*
X73450002Y-153517036D01*
X72830001Y-144284694D02*
X72830000Y-142915306D01*
X72829000Y-138546628D02*
X73980000Y-137395628D01*
X72651000Y-157299585D02*
X72649000Y-157297585D01*
X72824000Y-147073868D02*
X72824000Y-144290695D01*
X72418912Y-158270912D02*
X72649000Y-158040824D01*
X72829000Y-147078868D02*
X72824000Y-147073868D01*
X73404000Y-153563041D02*
X73450000Y-153517041D01*
X72650000Y-154325560D02*
X73404000Y-153571560D01*
X72829000Y-150572388D02*
X72829000Y-147078868D01*
X72651000Y-157797471D02*
X72651000Y-157299585D01*
X72649000Y-157799471D02*
X72651000Y-157797471D01*
X73404000Y-153571560D02*
X73404000Y-153563041D01*
X72649000Y-157297585D02*
X72649000Y-157100000D01*
X72649000Y-157100000D02*
X72650000Y-157099000D01*
%TO.N,/USB_D+*%
X74800050Y-173891414D02*
X75433636Y-174525000D01*
X76925000Y-173675000D02*
X76725000Y-173675000D01*
X74800050Y-172475784D02*
X74800050Y-173891414D01*
X76725000Y-173675000D02*
X75875000Y-174525000D01*
X75433636Y-174525000D02*
X75575000Y-174525000D01*
X75875000Y-174525000D02*
X75575000Y-174525000D01*
%TO.N,/PC0*%
X68300000Y-153100000D02*
X70701566Y-153100000D01*
X80000000Y-125300000D02*
X80000000Y-108790000D01*
X70701566Y-153100000D02*
X71200000Y-152601566D01*
X80000000Y-108790000D02*
X82750000Y-106040000D01*
%TO.N,/PC7*%
X82730000Y-136520000D02*
X82750000Y-136520000D01*
X78548000Y-155984900D02*
X79050000Y-155482899D01*
X78272000Y-152259810D02*
X78222000Y-152209810D01*
X67299631Y-163367937D02*
X67317568Y-163350000D01*
X79050000Y-155276563D02*
X78272000Y-154498563D01*
X79050000Y-155482899D02*
X79050000Y-155276563D01*
X78400000Y-142772190D02*
X78400000Y-140850000D01*
X78222000Y-142950190D02*
X78400000Y-142772190D01*
X75000000Y-163350000D02*
X78548000Y-159802000D01*
X78272000Y-153750000D02*
X78272000Y-154025424D01*
X78548000Y-159802000D02*
X78548000Y-155984900D01*
X78272000Y-154025424D02*
X78272000Y-152259810D01*
X78400000Y-140850000D02*
X82730000Y-136520000D01*
X78272000Y-154498563D02*
X78272000Y-153750000D01*
X67317568Y-163350000D02*
X75000000Y-163350000D01*
X78222000Y-152209810D02*
X78222000Y-142950190D01*
%TO.N,/PC9*%
X80818520Y-141700000D02*
X82650000Y-141700000D01*
X67700000Y-164775000D02*
X67725000Y-164800000D01*
X80089380Y-155040323D02*
X79174000Y-154124943D01*
X79450000Y-156358520D02*
X80089380Y-155719140D01*
X79450000Y-160341480D02*
X79450000Y-156358520D01*
X67725000Y-164800000D02*
X74991480Y-164800000D01*
X79174000Y-154124943D02*
X79174000Y-143344520D01*
X80089380Y-155719140D02*
X80089380Y-155040323D01*
X82650000Y-141700000D02*
X82750000Y-141600000D01*
X79174000Y-143344520D02*
X80818520Y-141700000D01*
X74991480Y-164800000D02*
X79450000Y-160341480D01*
%TO.N,/PB12*%
X76596000Y-142024950D02*
X76596000Y-141750910D01*
X76297000Y-141107579D02*
X76247000Y-141057579D01*
X76297000Y-141451910D02*
X76297000Y-141107579D01*
X76418000Y-142202950D02*
X76596000Y-142024950D01*
X75898000Y-159555669D02*
X76744000Y-158709669D01*
X76468000Y-155245803D02*
X76468000Y-153007050D01*
X76596000Y-141750910D02*
X76297000Y-141451910D01*
X76247000Y-141057579D02*
X76247000Y-138498859D01*
X76744000Y-158709669D02*
X76744000Y-155521803D01*
X77300000Y-133712190D02*
X77300000Y-131810000D01*
X77300000Y-131810000D02*
X82750000Y-126360000D01*
X76899000Y-134113190D02*
X77300000Y-133712190D01*
X76744000Y-155521803D02*
X76468000Y-155245803D01*
X76248000Y-136666380D02*
X76899000Y-136015380D01*
X74709780Y-160750000D02*
X75898000Y-159561780D01*
X76247000Y-138498859D02*
X76248000Y-138497859D01*
X76248000Y-138497859D02*
X76248000Y-136666380D01*
X76468000Y-153007050D02*
X76418000Y-152957050D01*
X75898000Y-159561780D02*
X75898000Y-159555669D01*
X67400242Y-160750000D02*
X74709780Y-160750000D01*
X76418000Y-152957050D02*
X76418000Y-142202950D01*
X76899000Y-136015380D02*
X76899000Y-134113190D01*
%TD*%
%TA.AperFunction,Conductor*%
%TO.N,GND*%
G36*
X55112147Y-100520185D02*
G01*
X55157902Y-100572989D01*
X55167846Y-100642147D01*
X55138821Y-100705703D01*
X55132789Y-100712181D01*
X55044531Y-100800438D01*
X55044530Y-100800439D01*
X54956522Y-100946021D01*
X54905913Y-101108435D01*
X54899500Y-101179014D01*
X54899500Y-102492241D01*
X54905913Y-102562820D01*
X54905913Y-102562822D01*
X54905914Y-102562824D01*
X54918162Y-102602129D01*
X54956522Y-102725234D01*
X55044530Y-102870816D01*
X55164811Y-102991097D01*
X55164813Y-102991098D01*
X55164815Y-102991100D01*
X55310394Y-103079106D01*
X55397566Y-103106269D01*
X55455712Y-103145006D01*
X55483686Y-103209031D01*
X55472605Y-103278016D01*
X55433560Y-103324972D01*
X55352782Y-103383660D01*
X55208028Y-103528414D01*
X55087715Y-103694014D01*
X54994781Y-103876404D01*
X54931522Y-104071093D01*
X54899500Y-104273276D01*
X54899500Y-104477979D01*
X54931522Y-104680162D01*
X54994781Y-104874851D01*
X55087715Y-105057241D01*
X55208028Y-105222841D01*
X55352786Y-105367599D01*
X55464234Y-105448569D01*
X55518390Y-105487915D01*
X55634607Y-105547131D01*
X55700776Y-105580846D01*
X55700778Y-105580846D01*
X55700781Y-105580848D01*
X55800766Y-105613335D01*
X55895465Y-105644105D01*
X55996557Y-105660116D01*
X56097648Y-105676128D01*
X56097649Y-105676128D01*
X56302351Y-105676128D01*
X56302352Y-105676128D01*
X56480112Y-105647973D01*
X56549405Y-105656927D01*
X56587191Y-105682765D01*
X71140181Y-120235755D01*
X71173666Y-120297078D01*
X71176500Y-120323436D01*
X71176500Y-129732152D01*
X71156815Y-129799191D01*
X71104011Y-129844946D01*
X71076692Y-129853769D01*
X70943508Y-129880261D01*
X70943498Y-129880264D01*
X70797827Y-129940602D01*
X70797814Y-129940609D01*
X70666711Y-130028210D01*
X70666707Y-130028213D01*
X70555213Y-130139707D01*
X70555210Y-130139711D01*
X70467609Y-130270814D01*
X70467602Y-130270827D01*
X70407264Y-130416498D01*
X70407261Y-130416510D01*
X70376500Y-130571153D01*
X70376500Y-130728846D01*
X70407261Y-130883489D01*
X70407264Y-130883501D01*
X70467602Y-131029172D01*
X70467609Y-131029185D01*
X70555210Y-131160288D01*
X70555213Y-131160292D01*
X70639181Y-131244260D01*
X70672666Y-131305583D01*
X70675500Y-131331941D01*
X70675500Y-133630191D01*
X70655815Y-133697230D01*
X70603011Y-133742985D01*
X70533853Y-133752929D01*
X70470297Y-133723904D01*
X70463819Y-133717872D01*
X69890673Y-133144726D01*
X69824054Y-133100213D01*
X69784127Y-133073535D01*
X69665744Y-133024499D01*
X69643644Y-133020103D01*
X69540071Y-132999500D01*
X69540069Y-132999500D01*
X63565277Y-132999500D01*
X63565275Y-132999500D01*
X63439607Y-133024497D01*
X63439601Y-133024499D01*
X63321220Y-133073534D01*
X63214672Y-133144726D01*
X63214671Y-133144727D01*
X60912181Y-135447218D01*
X60850858Y-135480703D01*
X60781166Y-135475719D01*
X60725233Y-135433847D01*
X60700816Y-135368383D01*
X60700500Y-135359537D01*
X60700500Y-113241556D01*
X60675502Y-113115889D01*
X60675501Y-113115888D01*
X60675501Y-113115884D01*
X60626465Y-112997501D01*
X60626464Y-112997500D01*
X60626461Y-112997494D01*
X60555277Y-112890960D01*
X60530589Y-112866272D01*
X60464669Y-112800352D01*
X59100556Y-111436239D01*
X57507137Y-109842819D01*
X57473652Y-109781496D01*
X57472345Y-109735740D01*
X57496797Y-109581358D01*
X57500500Y-109557980D01*
X57500500Y-109353276D01*
X57468477Y-109151094D01*
X57405220Y-108956409D01*
X57405218Y-108956406D01*
X57405218Y-108956404D01*
X57371503Y-108890235D01*
X57312287Y-108774018D01*
X57304556Y-108763377D01*
X57191971Y-108608414D01*
X57047213Y-108463656D01*
X56881613Y-108343343D01*
X56881612Y-108343342D01*
X56881610Y-108343341D01*
X56824653Y-108314319D01*
X56699223Y-108250409D01*
X56504534Y-108187150D01*
X56329995Y-108159506D01*
X56302352Y-108155128D01*
X56097648Y-108155128D01*
X56073329Y-108158979D01*
X55895465Y-108187150D01*
X55700776Y-108250409D01*
X55518386Y-108343343D01*
X55352786Y-108463656D01*
X55208028Y-108608414D01*
X55087715Y-108774014D01*
X54994781Y-108956404D01*
X54931522Y-109151093D01*
X54899500Y-109353276D01*
X54899500Y-109557979D01*
X54931522Y-109760162D01*
X54994781Y-109954851D01*
X55087715Y-110137241D01*
X55208028Y-110302841D01*
X55352786Y-110447599D01*
X55507749Y-110560184D01*
X55518390Y-110567915D01*
X55584477Y-110601588D01*
X55611080Y-110615143D01*
X55661876Y-110663118D01*
X55678671Y-110730939D01*
X55656134Y-110797074D01*
X55611080Y-110836113D01*
X55518386Y-110883343D01*
X55352786Y-111003656D01*
X55208028Y-111148414D01*
X55087715Y-111314014D01*
X54994781Y-111496404D01*
X54931522Y-111691093D01*
X54899500Y-111893276D01*
X54899500Y-112097979D01*
X54931522Y-112300162D01*
X54994781Y-112494851D01*
X55087715Y-112677241D01*
X55208028Y-112842841D01*
X55352786Y-112987599D01*
X55507749Y-113100184D01*
X55518390Y-113107915D01*
X55584477Y-113141588D01*
X55611080Y-113155143D01*
X55661876Y-113203118D01*
X55678671Y-113270939D01*
X55656134Y-113337074D01*
X55611080Y-113376113D01*
X55518386Y-113423343D01*
X55352786Y-113543656D01*
X55208028Y-113688414D01*
X55087715Y-113854014D01*
X54994781Y-114036404D01*
X54931522Y-114231093D01*
X54899500Y-114433276D01*
X54899500Y-114637979D01*
X54931522Y-114840162D01*
X54994781Y-115034851D01*
X55087715Y-115217241D01*
X55208028Y-115382841D01*
X55352786Y-115527599D01*
X55471810Y-115614073D01*
X55518390Y-115647915D01*
X55584477Y-115681588D01*
X55611080Y-115695143D01*
X55661876Y-115743118D01*
X55678671Y-115810939D01*
X55656134Y-115877074D01*
X55611080Y-115916113D01*
X55518386Y-115963343D01*
X55352786Y-116083656D01*
X55208028Y-116228414D01*
X55087715Y-116394014D01*
X54994781Y-116576404D01*
X54931522Y-116771093D01*
X54901470Y-116960837D01*
X54899500Y-116973276D01*
X54899500Y-117177980D01*
X54901330Y-117189533D01*
X54931522Y-117380162D01*
X54994781Y-117574851D01*
X55047378Y-117678077D01*
X55060808Y-117704435D01*
X55087715Y-117757241D01*
X55208028Y-117922841D01*
X55352786Y-118067599D01*
X55462808Y-118147533D01*
X55518390Y-118187915D01*
X55634607Y-118247131D01*
X55700776Y-118280846D01*
X55700778Y-118280846D01*
X55700781Y-118280848D01*
X55790896Y-118310128D01*
X55895465Y-118344105D01*
X55996557Y-118360116D01*
X56097648Y-118376128D01*
X56097649Y-118376128D01*
X56302351Y-118376128D01*
X56302352Y-118376128D01*
X56480112Y-118347973D01*
X56549405Y-118356927D01*
X56587191Y-118382765D01*
X57860181Y-119655755D01*
X57893666Y-119717078D01*
X57896500Y-119743436D01*
X57896500Y-152925500D01*
X57876815Y-152992539D01*
X57824011Y-153038294D01*
X57772500Y-153049500D01*
X57721154Y-153049500D01*
X57566509Y-153080261D01*
X57566501Y-153080263D01*
X57537078Y-153092451D01*
X57537077Y-153092451D01*
X57420827Y-153140602D01*
X57420814Y-153140609D01*
X57289712Y-153228209D01*
X57289711Y-153228211D01*
X57289710Y-153228212D01*
X54089711Y-156428211D01*
X54057778Y-156460144D01*
X53978209Y-156539712D01*
X53890609Y-156670814D01*
X53890602Y-156670827D01*
X53830264Y-156816498D01*
X53830261Y-156816510D01*
X53799500Y-156971153D01*
X53799500Y-163942060D01*
X53779815Y-164009099D01*
X53763181Y-164029741D01*
X51880741Y-165912181D01*
X51819418Y-165945666D01*
X51793060Y-165948500D01*
X48972155Y-165948500D01*
X48817510Y-165979261D01*
X48817498Y-165979264D01*
X48671827Y-166039602D01*
X48671814Y-166039609D01*
X48540711Y-166127210D01*
X48540707Y-166127213D01*
X47448394Y-167219528D01*
X47089711Y-167578211D01*
X47033960Y-167633962D01*
X46978209Y-167689712D01*
X46890609Y-167820814D01*
X46890602Y-167820827D01*
X46830264Y-167966498D01*
X46830261Y-167966510D01*
X46799500Y-168121153D01*
X46799500Y-175778846D01*
X46830261Y-175933489D01*
X46830264Y-175933501D01*
X46890602Y-176079172D01*
X46890609Y-176079185D01*
X46978210Y-176210288D01*
X46978213Y-176210292D01*
X49964707Y-179196786D01*
X49964711Y-179196789D01*
X50077867Y-179272398D01*
X50122672Y-179326010D01*
X50131379Y-179395335D01*
X50101225Y-179458363D01*
X50041781Y-179495082D01*
X50008976Y-179499500D01*
X45874500Y-179499500D01*
X45807461Y-179479815D01*
X45761706Y-179427011D01*
X45750500Y-179375500D01*
X45750500Y-118633713D01*
X46399500Y-118633713D01*
X46399500Y-118846287D01*
X46432754Y-119056243D01*
X46475834Y-119188830D01*
X46498444Y-119258414D01*
X46594951Y-119447820D01*
X46719890Y-119619786D01*
X46870213Y-119770109D01*
X47042182Y-119895050D01*
X47050946Y-119899516D01*
X47101742Y-119947491D01*
X47118536Y-120015312D01*
X47095998Y-120081447D01*
X47050946Y-120120484D01*
X47042182Y-120124949D01*
X46870213Y-120249890D01*
X46719890Y-120400213D01*
X46594951Y-120572179D01*
X46498444Y-120761585D01*
X46432753Y-120963760D01*
X46401093Y-121163656D01*
X46399500Y-121173713D01*
X46399500Y-121386287D01*
X46432754Y-121596243D01*
X46452303Y-121656409D01*
X46498444Y-121798414D01*
X46594951Y-121987820D01*
X46719890Y-122159786D01*
X46870213Y-122310109D01*
X47042182Y-122435050D01*
X47050946Y-122439516D01*
X47101742Y-122487491D01*
X47118536Y-122555312D01*
X47095998Y-122621447D01*
X47050946Y-122660484D01*
X47042182Y-122664949D01*
X46870213Y-122789890D01*
X46719890Y-122940213D01*
X46594951Y-123112179D01*
X46498444Y-123301585D01*
X46432753Y-123503760D01*
X46399500Y-123713713D01*
X46399500Y-123926286D01*
X46432189Y-124132679D01*
X46432754Y-124136243D01*
X46454360Y-124202740D01*
X46498444Y-124338414D01*
X46594951Y-124527820D01*
X46719890Y-124699786D01*
X46870213Y-124850109D01*
X47042182Y-124975050D01*
X47050946Y-124979516D01*
X47101742Y-125027491D01*
X47118536Y-125095312D01*
X47095998Y-125161447D01*
X47050946Y-125200484D01*
X47042182Y-125204949D01*
X46870213Y-125329890D01*
X46719890Y-125480213D01*
X46594951Y-125652179D01*
X46498444Y-125841585D01*
X46432753Y-126043760D01*
X46404782Y-126220361D01*
X46399500Y-126253713D01*
X46399500Y-126466287D01*
X46432754Y-126676243D01*
X46452303Y-126736409D01*
X46498444Y-126878414D01*
X46594951Y-127067820D01*
X46719890Y-127239786D01*
X46870213Y-127390109D01*
X47042182Y-127515050D01*
X47050946Y-127519516D01*
X47101742Y-127567491D01*
X47118536Y-127635312D01*
X47095998Y-127701447D01*
X47050946Y-127740484D01*
X47042182Y-127744949D01*
X46870213Y-127869890D01*
X46719890Y-128020213D01*
X46594951Y-128192179D01*
X46498444Y-128381585D01*
X46432753Y-128583760D01*
X46404782Y-128760361D01*
X46399500Y-128793713D01*
X46399500Y-129006287D01*
X46432754Y-129216243D01*
X46452303Y-129276409D01*
X46498444Y-129418414D01*
X46594951Y-129607820D01*
X46719890Y-129779786D01*
X46870213Y-129930109D01*
X47042182Y-130055050D01*
X47050946Y-130059516D01*
X47101742Y-130107491D01*
X47118536Y-130175312D01*
X47095998Y-130241447D01*
X47050946Y-130280484D01*
X47042182Y-130284949D01*
X46870213Y-130409890D01*
X46719890Y-130560213D01*
X46594951Y-130732179D01*
X46498444Y-130921585D01*
X46432753Y-131123760D01*
X46399500Y-131333713D01*
X46399500Y-131546286D01*
X46432753Y-131756239D01*
X46498444Y-131958414D01*
X46594951Y-132147820D01*
X46719890Y-132319786D01*
X46870213Y-132470109D01*
X47042182Y-132595050D01*
X47050946Y-132599516D01*
X47101742Y-132647491D01*
X47118536Y-132715312D01*
X47095998Y-132781447D01*
X47050946Y-132820484D01*
X47042182Y-132824949D01*
X46870213Y-132949890D01*
X46719890Y-133100213D01*
X46594951Y-133272179D01*
X46498444Y-133461585D01*
X46432753Y-133663760D01*
X46404782Y-133840361D01*
X46399500Y-133873713D01*
X46399500Y-134086287D01*
X46432754Y-134296243D01*
X46452632Y-134357422D01*
X46498444Y-134498414D01*
X46594951Y-134687820D01*
X46719890Y-134859786D01*
X46870213Y-135010109D01*
X47042182Y-135135050D01*
X47050946Y-135139516D01*
X47101742Y-135187491D01*
X47118536Y-135255312D01*
X47095998Y-135321447D01*
X47050946Y-135360484D01*
X47042182Y-135364949D01*
X46870213Y-135489890D01*
X46719890Y-135640213D01*
X46594951Y-135812179D01*
X46498444Y-136001585D01*
X46432753Y-136203760D01*
X46404782Y-136380361D01*
X46399500Y-136413713D01*
X46399500Y-136626287D01*
X46432754Y-136836243D01*
X46474302Y-136964115D01*
X46498444Y-137038414D01*
X46594951Y-137227820D01*
X46719890Y-137399786D01*
X46870213Y-137550109D01*
X47042182Y-137675050D01*
X47050946Y-137679516D01*
X47101742Y-137727491D01*
X47118536Y-137795312D01*
X47095998Y-137861447D01*
X47050946Y-137900484D01*
X47042182Y-137904949D01*
X46870213Y-138029890D01*
X46719890Y-138180213D01*
X46594951Y-138352179D01*
X46498444Y-138541585D01*
X46432753Y-138743760D01*
X46399500Y-138953713D01*
X46399500Y-139166286D01*
X46428509Y-139349445D01*
X46432754Y-139376243D01*
X46452303Y-139436409D01*
X46498444Y-139578414D01*
X46594951Y-139767820D01*
X46719890Y-139939786D01*
X46870213Y-140090109D01*
X47042182Y-140215050D01*
X47050946Y-140219516D01*
X47101742Y-140267491D01*
X47118536Y-140335312D01*
X47095998Y-140401447D01*
X47050946Y-140440484D01*
X47042182Y-140444949D01*
X46870213Y-140569890D01*
X46719890Y-140720213D01*
X46594951Y-140892179D01*
X46498444Y-141081585D01*
X46432753Y-141283760D01*
X46399500Y-141493713D01*
X46399500Y-141706286D01*
X46420607Y-141839554D01*
X46432754Y-141916243D01*
X46452303Y-141976409D01*
X46498444Y-142118414D01*
X46594951Y-142307820D01*
X46719890Y-142479786D01*
X46870213Y-142630109D01*
X47042182Y-142755050D01*
X47050946Y-142759516D01*
X47101742Y-142807491D01*
X47118536Y-142875312D01*
X47095998Y-142941447D01*
X47050946Y-142980484D01*
X47042182Y-142984949D01*
X46870213Y-143109890D01*
X46719894Y-143260209D01*
X46719892Y-143260212D01*
X46594951Y-143432179D01*
X46498444Y-143621585D01*
X46432753Y-143823760D01*
X46399500Y-144033713D01*
X46399500Y-144246286D01*
X46432753Y-144456239D01*
X46498444Y-144658414D01*
X46594951Y-144847820D01*
X46719890Y-145019786D01*
X46870213Y-145170109D01*
X47042182Y-145295050D01*
X47050946Y-145299516D01*
X47101742Y-145347491D01*
X47118536Y-145415312D01*
X47095998Y-145481447D01*
X47050946Y-145520484D01*
X47042182Y-145524949D01*
X46870213Y-145649890D01*
X46719890Y-145800213D01*
X46594951Y-145972179D01*
X46498444Y-146161585D01*
X46498443Y-146161587D01*
X46498443Y-146161588D01*
X46485014Y-146202919D01*
X46432753Y-146363760D01*
X46399500Y-146573713D01*
X46399500Y-146786286D01*
X46423816Y-146939815D01*
X46432754Y-146996243D01*
X46452303Y-147056409D01*
X46498444Y-147198414D01*
X46594951Y-147387820D01*
X46719890Y-147559786D01*
X46870213Y-147710109D01*
X47042182Y-147835050D01*
X47050946Y-147839516D01*
X47101742Y-147887491D01*
X47118536Y-147955312D01*
X47095998Y-148021447D01*
X47050946Y-148060484D01*
X47042182Y-148064949D01*
X46870213Y-148189890D01*
X46719890Y-148340213D01*
X46594951Y-148512179D01*
X46498444Y-148701585D01*
X46432753Y-148903760D01*
X46413107Y-149027804D01*
X46399500Y-149113713D01*
X46399500Y-149326287D01*
X46432754Y-149536243D01*
X46470753Y-149653192D01*
X46498444Y-149738414D01*
X46594951Y-149927820D01*
X46719890Y-150099786D01*
X46870213Y-150250109D01*
X47042182Y-150375050D01*
X47050946Y-150379516D01*
X47101742Y-150427491D01*
X47118536Y-150495312D01*
X47095998Y-150561447D01*
X47050946Y-150600484D01*
X47042182Y-150604949D01*
X46870213Y-150729890D01*
X46719890Y-150880213D01*
X46594951Y-151052179D01*
X46498444Y-151241585D01*
X46432753Y-151443760D01*
X46399500Y-151653713D01*
X46399500Y-151866286D01*
X46430727Y-152063449D01*
X46432754Y-152076243D01*
X46467063Y-152181836D01*
X46498444Y-152278414D01*
X46594951Y-152467820D01*
X46719890Y-152639786D01*
X46870213Y-152790109D01*
X47042182Y-152915050D01*
X47050946Y-152919516D01*
X47101742Y-152967491D01*
X47118536Y-153035312D01*
X47095998Y-153101447D01*
X47050946Y-153140484D01*
X47042182Y-153144949D01*
X46870213Y-153269890D01*
X46719890Y-153420213D01*
X46594951Y-153592179D01*
X46498444Y-153781585D01*
X46432753Y-153983760D01*
X46399500Y-154193713D01*
X46399500Y-154406286D01*
X46432753Y-154616239D01*
X46432753Y-154616241D01*
X46432754Y-154616243D01*
X46489350Y-154790428D01*
X46498444Y-154818414D01*
X46594951Y-155007820D01*
X46719890Y-155179786D01*
X46870213Y-155330109D01*
X47042182Y-155455050D01*
X47050946Y-155459516D01*
X47101742Y-155507491D01*
X47118536Y-155575312D01*
X47095998Y-155641447D01*
X47050946Y-155680484D01*
X47042182Y-155684949D01*
X46870213Y-155809890D01*
X46719890Y-155960213D01*
X46594951Y-156132179D01*
X46498444Y-156321585D01*
X46432753Y-156523760D01*
X46414247Y-156640606D01*
X46399500Y-156733713D01*
X46399500Y-156946287D01*
X46403439Y-156971158D01*
X46419473Y-157072394D01*
X46432754Y-157156243D01*
X46494169Y-157345259D01*
X46498444Y-157358414D01*
X46594951Y-157547820D01*
X46719890Y-157719786D01*
X46870213Y-157870109D01*
X47042182Y-157995050D01*
X47050946Y-157999516D01*
X47101742Y-158047491D01*
X47118536Y-158115312D01*
X47095998Y-158181447D01*
X47050946Y-158220484D01*
X47042182Y-158224949D01*
X46870213Y-158349890D01*
X46719890Y-158500213D01*
X46594951Y-158672179D01*
X46498444Y-158861585D01*
X46432753Y-159063760D01*
X46400540Y-159267146D01*
X46399500Y-159273713D01*
X46399500Y-159486287D01*
X46432754Y-159696243D01*
X46472540Y-159818692D01*
X46498444Y-159898414D01*
X46594951Y-160087820D01*
X46719890Y-160259786D01*
X46870213Y-160410109D01*
X47042182Y-160535050D01*
X47050946Y-160539516D01*
X47101742Y-160587491D01*
X47118536Y-160655312D01*
X47095998Y-160721447D01*
X47050946Y-160760484D01*
X47042182Y-160764949D01*
X46870213Y-160889890D01*
X46719890Y-161040213D01*
X46594951Y-161212179D01*
X46498444Y-161401585D01*
X46432753Y-161603760D01*
X46399500Y-161813713D01*
X46399500Y-162026286D01*
X46421845Y-162167370D01*
X46432754Y-162236243D01*
X46478374Y-162376647D01*
X46498444Y-162438414D01*
X46594951Y-162627820D01*
X46719890Y-162799786D01*
X46870213Y-162950109D01*
X47042179Y-163075048D01*
X47042181Y-163075049D01*
X47042184Y-163075051D01*
X47231588Y-163171557D01*
X47433757Y-163237246D01*
X47643713Y-163270500D01*
X47643714Y-163270500D01*
X47856286Y-163270500D01*
X47856287Y-163270500D01*
X48066243Y-163237246D01*
X48268412Y-163171557D01*
X48457816Y-163075051D01*
X48529858Y-163022710D01*
X48629786Y-162950109D01*
X48629788Y-162950106D01*
X48629792Y-162950104D01*
X48780104Y-162799792D01*
X48780106Y-162799788D01*
X48780109Y-162799786D01*
X48905048Y-162627820D01*
X48905047Y-162627820D01*
X48905051Y-162627816D01*
X49001557Y-162438412D01*
X49067246Y-162236243D01*
X49100500Y-162026287D01*
X49100500Y-161813713D01*
X49067246Y-161603757D01*
X49001557Y-161401588D01*
X48905051Y-161212184D01*
X48905049Y-161212181D01*
X48905048Y-161212179D01*
X48780109Y-161040213D01*
X48629786Y-160889890D01*
X48457820Y-160764951D01*
X48457115Y-160764591D01*
X48449054Y-160760485D01*
X48398259Y-160712512D01*
X48381463Y-160644692D01*
X48403999Y-160578556D01*
X48449054Y-160539515D01*
X48457816Y-160535051D01*
X48611763Y-160423203D01*
X48629786Y-160410109D01*
X48629788Y-160410106D01*
X48629792Y-160410104D01*
X48780104Y-160259792D01*
X48780106Y-160259788D01*
X48780109Y-160259786D01*
X48905048Y-160087820D01*
X48905047Y-160087820D01*
X48905051Y-160087816D01*
X49001557Y-159898412D01*
X49067246Y-159696243D01*
X49100500Y-159486287D01*
X49100500Y-159273713D01*
X49067246Y-159063757D01*
X49001557Y-158861588D01*
X48905051Y-158672184D01*
X48905049Y-158672181D01*
X48905048Y-158672179D01*
X48780109Y-158500213D01*
X48629786Y-158349890D01*
X48457820Y-158224951D01*
X48456770Y-158224416D01*
X48449054Y-158220485D01*
X48398259Y-158172512D01*
X48381463Y-158104692D01*
X48403999Y-158038556D01*
X48449054Y-157999515D01*
X48457816Y-157995051D01*
X48610929Y-157883809D01*
X48629786Y-157870109D01*
X48629788Y-157870106D01*
X48629792Y-157870104D01*
X48780104Y-157719792D01*
X48780106Y-157719788D01*
X48780109Y-157719786D01*
X48905048Y-157547820D01*
X48905047Y-157547820D01*
X48905051Y-157547816D01*
X49001557Y-157358412D01*
X49067246Y-157156243D01*
X49100500Y-156946287D01*
X49100500Y-156733713D01*
X49067246Y-156523757D01*
X49001557Y-156321588D01*
X48905051Y-156132184D01*
X48905049Y-156132181D01*
X48905048Y-156132179D01*
X48780109Y-155960213D01*
X48629786Y-155809890D01*
X48457820Y-155684951D01*
X48457115Y-155684591D01*
X48449054Y-155680485D01*
X48398259Y-155632512D01*
X48381463Y-155564692D01*
X48403999Y-155498556D01*
X48449054Y-155459515D01*
X48457816Y-155455051D01*
X48589124Y-155359651D01*
X48629786Y-155330109D01*
X48629788Y-155330106D01*
X48629792Y-155330104D01*
X48780104Y-155179792D01*
X48780106Y-155179788D01*
X48780109Y-155179786D01*
X48905048Y-155007820D01*
X48905047Y-155007820D01*
X48905051Y-155007816D01*
X49001557Y-154818412D01*
X49067246Y-154616243D01*
X49074388Y-154571153D01*
X51159500Y-154571153D01*
X51159500Y-154728846D01*
X51190261Y-154883489D01*
X51190264Y-154883501D01*
X51250602Y-155029172D01*
X51250609Y-155029185D01*
X51338210Y-155160288D01*
X51338213Y-155160292D01*
X51449707Y-155271786D01*
X51449711Y-155271789D01*
X51580814Y-155359390D01*
X51580827Y-155359397D01*
X51726498Y-155419735D01*
X51726503Y-155419737D01*
X51881153Y-155450499D01*
X51881156Y-155450500D01*
X51881158Y-155450500D01*
X52038844Y-155450500D01*
X52038845Y-155450499D01*
X52193497Y-155419737D01*
X52339179Y-155359394D01*
X52470289Y-155271789D01*
X52581789Y-155160289D01*
X52669394Y-155029179D01*
X52729737Y-154883497D01*
X52760500Y-154728842D01*
X52760500Y-154571158D01*
X52760500Y-154571155D01*
X52754171Y-154539338D01*
X52760398Y-154469746D01*
X52788105Y-154427467D01*
X55812809Y-151402763D01*
X55874130Y-151369280D01*
X55919886Y-151367973D01*
X55974885Y-151376684D01*
X56097648Y-151396128D01*
X56097649Y-151396128D01*
X56302351Y-151396128D01*
X56302352Y-151396128D01*
X56504534Y-151364105D01*
X56699219Y-151300848D01*
X56881610Y-151207915D01*
X56988615Y-151130172D01*
X57047213Y-151087599D01*
X57047215Y-151087596D01*
X57047219Y-151087594D01*
X57191966Y-150942847D01*
X57191968Y-150942843D01*
X57191971Y-150942841D01*
X57266250Y-150840603D01*
X57312287Y-150777238D01*
X57405220Y-150594847D01*
X57468477Y-150400162D01*
X57500500Y-150197980D01*
X57500500Y-149993276D01*
X57468477Y-149791094D01*
X57405220Y-149596409D01*
X57405218Y-149596406D01*
X57405218Y-149596404D01*
X57371503Y-149530235D01*
X57312287Y-149414018D01*
X57304556Y-149403377D01*
X57191971Y-149248414D01*
X57047213Y-149103656D01*
X56881614Y-148983343D01*
X56837302Y-148960765D01*
X56788917Y-148936111D01*
X56738123Y-148888139D01*
X56721328Y-148820318D01*
X56743865Y-148754183D01*
X56788917Y-148715144D01*
X56881610Y-148667915D01*
X56988615Y-148590172D01*
X57047213Y-148547599D01*
X57047215Y-148547596D01*
X57047219Y-148547594D01*
X57191966Y-148402847D01*
X57191968Y-148402843D01*
X57191971Y-148402841D01*
X57244732Y-148330218D01*
X57312287Y-148237238D01*
X57405220Y-148054847D01*
X57468477Y-147860162D01*
X57500500Y-147657980D01*
X57500500Y-147453276D01*
X57468477Y-147251094D01*
X57405220Y-147056409D01*
X57405218Y-147056406D01*
X57405218Y-147056404D01*
X57345808Y-146939807D01*
X57312287Y-146874018D01*
X57301207Y-146858768D01*
X57191971Y-146708414D01*
X57047213Y-146563656D01*
X56881613Y-146443343D01*
X56881612Y-146443342D01*
X56881610Y-146443341D01*
X56824653Y-146414319D01*
X56699223Y-146350409D01*
X56504534Y-146287150D01*
X56329995Y-146259506D01*
X56302352Y-146255128D01*
X56097648Y-146255128D01*
X56073329Y-146258979D01*
X55895465Y-146287150D01*
X55700776Y-146350409D01*
X55518386Y-146443343D01*
X55352786Y-146563656D01*
X55208028Y-146708414D01*
X55087715Y-146874014D01*
X54994781Y-147056404D01*
X54931522Y-147251093D01*
X54899500Y-147453276D01*
X54899500Y-147657979D01*
X54931522Y-147860162D01*
X54994781Y-148054851D01*
X55051857Y-148166866D01*
X55070302Y-148203068D01*
X55087715Y-148237241D01*
X55208028Y-148402841D01*
X55352786Y-148547599D01*
X55469814Y-148632623D01*
X55518390Y-148667915D01*
X55584477Y-148701588D01*
X55611080Y-148715143D01*
X55661876Y-148763118D01*
X55678671Y-148830939D01*
X55656134Y-148897074D01*
X55611080Y-148936113D01*
X55518386Y-148983343D01*
X55352786Y-149103656D01*
X55208028Y-149248414D01*
X55087715Y-149414014D01*
X54994781Y-149596404D01*
X54931522Y-149791093D01*
X54899500Y-149993276D01*
X54899500Y-150197979D01*
X54927654Y-150375739D01*
X54918699Y-150445033D01*
X54892862Y-150482818D01*
X51454724Y-153920956D01*
X51390261Y-154017434D01*
X51383536Y-154027499D01*
X51339845Y-154132976D01*
X51328386Y-154154412D01*
X51250612Y-154270809D01*
X51250602Y-154270827D01*
X51190264Y-154416498D01*
X51190261Y-154416510D01*
X51159500Y-154571153D01*
X49074388Y-154571153D01*
X49100500Y-154406287D01*
X49100500Y-154193713D01*
X49067246Y-153983757D01*
X49001557Y-153781588D01*
X48905051Y-153592184D01*
X48905049Y-153592181D01*
X48905048Y-153592179D01*
X48780109Y-153420213D01*
X48629786Y-153269890D01*
X48457820Y-153144951D01*
X48457115Y-153144591D01*
X48449054Y-153140485D01*
X48398259Y-153092512D01*
X48381463Y-153024692D01*
X48403999Y-152958556D01*
X48449054Y-152919515D01*
X48457816Y-152915051D01*
X48479789Y-152899086D01*
X48629786Y-152790109D01*
X48629788Y-152790106D01*
X48629792Y-152790104D01*
X48780104Y-152639792D01*
X48780106Y-152639788D01*
X48780109Y-152639786D01*
X48905048Y-152467820D01*
X48905047Y-152467820D01*
X48905051Y-152467816D01*
X49001557Y-152278412D01*
X49067246Y-152076243D01*
X49100500Y-151866287D01*
X49100500Y-151653713D01*
X49067246Y-151443757D01*
X49001557Y-151241588D01*
X48905051Y-151052184D01*
X48905049Y-151052181D01*
X48905048Y-151052179D01*
X48780109Y-150880213D01*
X48629786Y-150729890D01*
X48457820Y-150604951D01*
X48457115Y-150604591D01*
X48449054Y-150600485D01*
X48398259Y-150552512D01*
X48381463Y-150484692D01*
X48403999Y-150418556D01*
X48449054Y-150379515D01*
X48457816Y-150375051D01*
X48479789Y-150359086D01*
X48629786Y-150250109D01*
X48629788Y-150250106D01*
X48629792Y-150250104D01*
X48780104Y-150099792D01*
X48780106Y-150099788D01*
X48780109Y-150099786D01*
X48905048Y-149927820D01*
X48905047Y-149927820D01*
X48905051Y-149927816D01*
X49001557Y-149738412D01*
X49067246Y-149536243D01*
X49100500Y-149326287D01*
X49100500Y-149113713D01*
X49067246Y-148903757D01*
X49001557Y-148701588D01*
X48905051Y-148512184D01*
X48905049Y-148512181D01*
X48905048Y-148512179D01*
X48780109Y-148340213D01*
X48629786Y-148189890D01*
X48457820Y-148064951D01*
X48457115Y-148064591D01*
X48449054Y-148060485D01*
X48398259Y-148012512D01*
X48381463Y-147944692D01*
X48403999Y-147878556D01*
X48449054Y-147839515D01*
X48457816Y-147835051D01*
X48479789Y-147819086D01*
X48629786Y-147710109D01*
X48629788Y-147710106D01*
X48629792Y-147710104D01*
X48780104Y-147559792D01*
X48780106Y-147559788D01*
X48780109Y-147559786D01*
X48905048Y-147387820D01*
X48905047Y-147387820D01*
X48905051Y-147387816D01*
X49001557Y-147198412D01*
X49067246Y-146996243D01*
X49100500Y-146786287D01*
X49100500Y-146573713D01*
X49067246Y-146363757D01*
X49001557Y-146161588D01*
X48905051Y-145972184D01*
X48905049Y-145972181D01*
X48905048Y-145972179D01*
X48780109Y-145800213D01*
X48629786Y-145649890D01*
X48457820Y-145524951D01*
X48457115Y-145524591D01*
X48449054Y-145520485D01*
X48398259Y-145472512D01*
X48381463Y-145404692D01*
X48403999Y-145338556D01*
X48449054Y-145299515D01*
X48457816Y-145295051D01*
X48479789Y-145279086D01*
X48629786Y-145170109D01*
X48629788Y-145170106D01*
X48629792Y-145170104D01*
X48780104Y-145019792D01*
X48780106Y-145019788D01*
X48780109Y-145019786D01*
X48905048Y-144847820D01*
X48905047Y-144847820D01*
X48905051Y-144847816D01*
X49001557Y-144658412D01*
X49067246Y-144456243D01*
X49100500Y-144246287D01*
X49100500Y-144033713D01*
X49067246Y-143823757D01*
X49001557Y-143621588D01*
X48905051Y-143432184D01*
X48905049Y-143432181D01*
X48905048Y-143432179D01*
X48780108Y-143260212D01*
X48629786Y-143109890D01*
X48457820Y-142984951D01*
X48457115Y-142984591D01*
X48449054Y-142980485D01*
X48398259Y-142932512D01*
X48381463Y-142864692D01*
X48403999Y-142798556D01*
X48449054Y-142759515D01*
X48457816Y-142755051D01*
X48479789Y-142739086D01*
X48629786Y-142630109D01*
X48629788Y-142630106D01*
X48629792Y-142630104D01*
X48780104Y-142479792D01*
X48780106Y-142479788D01*
X48780109Y-142479786D01*
X48905048Y-142307820D01*
X48905047Y-142307820D01*
X48905051Y-142307816D01*
X49001557Y-142118412D01*
X49067246Y-141916243D01*
X49100500Y-141706287D01*
X49100500Y-141493713D01*
X49067246Y-141283757D01*
X49001557Y-141081588D01*
X48905051Y-140892184D01*
X48905049Y-140892181D01*
X48905048Y-140892179D01*
X48780109Y-140720213D01*
X48629786Y-140569890D01*
X48457820Y-140444951D01*
X48457115Y-140444591D01*
X48449054Y-140440485D01*
X48398259Y-140392512D01*
X48381463Y-140324692D01*
X48403999Y-140258556D01*
X48449054Y-140219515D01*
X48457816Y-140215051D01*
X48479789Y-140199086D01*
X48629786Y-140090109D01*
X48629788Y-140090106D01*
X48629792Y-140090104D01*
X48780104Y-139939792D01*
X48780106Y-139939788D01*
X48780109Y-139939786D01*
X48905048Y-139767820D01*
X48905047Y-139767820D01*
X48905051Y-139767816D01*
X49001557Y-139578412D01*
X49067246Y-139376243D01*
X49100500Y-139166287D01*
X49100500Y-138953713D01*
X49067246Y-138743757D01*
X49001557Y-138541588D01*
X48905051Y-138352184D01*
X48905049Y-138352181D01*
X48905048Y-138352179D01*
X48780109Y-138180213D01*
X48629786Y-138029890D01*
X48457820Y-137904951D01*
X48457115Y-137904591D01*
X48449054Y-137900485D01*
X48398259Y-137852512D01*
X48381463Y-137784692D01*
X48403999Y-137718556D01*
X48449054Y-137679515D01*
X48457816Y-137675051D01*
X48479789Y-137659086D01*
X48629786Y-137550109D01*
X48629788Y-137550106D01*
X48629792Y-137550104D01*
X48780104Y-137399792D01*
X48780106Y-137399788D01*
X48780109Y-137399786D01*
X48905048Y-137227820D01*
X48905047Y-137227820D01*
X48905051Y-137227816D01*
X49001557Y-137038412D01*
X49067246Y-136836243D01*
X49100500Y-136626287D01*
X49100500Y-136413713D01*
X49067246Y-136203757D01*
X49001557Y-136001588D01*
X48905051Y-135812184D01*
X48905049Y-135812181D01*
X48905048Y-135812179D01*
X48780109Y-135640213D01*
X48629786Y-135489890D01*
X48457820Y-135364951D01*
X48457115Y-135364591D01*
X48449054Y-135360485D01*
X48398259Y-135312512D01*
X48381463Y-135244692D01*
X48403999Y-135178556D01*
X48449054Y-135139515D01*
X48457816Y-135135051D01*
X48528769Y-135083501D01*
X48629786Y-135010109D01*
X48629788Y-135010106D01*
X48629792Y-135010104D01*
X48780104Y-134859792D01*
X48780106Y-134859788D01*
X48780109Y-134859786D01*
X48857492Y-134753276D01*
X54899500Y-134753276D01*
X54899500Y-134957979D01*
X54931522Y-135160162D01*
X54994781Y-135354851D01*
X55087715Y-135537241D01*
X55208028Y-135702841D01*
X55352786Y-135847599D01*
X55507749Y-135960184D01*
X55518390Y-135967915D01*
X55584477Y-136001588D01*
X55611080Y-136015143D01*
X55661876Y-136063118D01*
X55678671Y-136130939D01*
X55656134Y-136197074D01*
X55611080Y-136236113D01*
X55518386Y-136283343D01*
X55352786Y-136403656D01*
X55208028Y-136548414D01*
X55087715Y-136714014D01*
X54994781Y-136896404D01*
X54931522Y-137091093D01*
X54899500Y-137293276D01*
X54899500Y-137497979D01*
X54931522Y-137700162D01*
X54994781Y-137894851D01*
X55087715Y-138077241D01*
X55208028Y-138242841D01*
X55352786Y-138387599D01*
X55507749Y-138500184D01*
X55518390Y-138507915D01*
X55584477Y-138541588D01*
X55611080Y-138555143D01*
X55661876Y-138603118D01*
X55678671Y-138670939D01*
X55656134Y-138737074D01*
X55611080Y-138776113D01*
X55518386Y-138823343D01*
X55352786Y-138943656D01*
X55208028Y-139088414D01*
X55087715Y-139254014D01*
X54994781Y-139436404D01*
X54931522Y-139631093D01*
X54899500Y-139833276D01*
X54899500Y-140037979D01*
X54931522Y-140240162D01*
X54994781Y-140434851D01*
X55087715Y-140617241D01*
X55208028Y-140782841D01*
X55352786Y-140927599D01*
X55507749Y-141040184D01*
X55518390Y-141047915D01*
X55609840Y-141094511D01*
X55611080Y-141095143D01*
X55661876Y-141143118D01*
X55678671Y-141210939D01*
X55656134Y-141277074D01*
X55611080Y-141316113D01*
X55518386Y-141363343D01*
X55352786Y-141483656D01*
X55208028Y-141628414D01*
X55087715Y-141794014D01*
X54994781Y-141976404D01*
X54931522Y-142171093D01*
X54899500Y-142373276D01*
X54899500Y-142577979D01*
X54931522Y-142780162D01*
X54994781Y-142974851D01*
X55087715Y-143157241D01*
X55208028Y-143322841D01*
X55352786Y-143467599D01*
X55488928Y-143566510D01*
X55518390Y-143587915D01*
X55634607Y-143647131D01*
X55700776Y-143680846D01*
X55700778Y-143680846D01*
X55700781Y-143680848D01*
X55805137Y-143714755D01*
X55895465Y-143744105D01*
X55996557Y-143760116D01*
X56097648Y-143776128D01*
X56097649Y-143776128D01*
X56302351Y-143776128D01*
X56302352Y-143776128D01*
X56504534Y-143744105D01*
X56699219Y-143680848D01*
X56881610Y-143587915D01*
X56988615Y-143510172D01*
X57047213Y-143467599D01*
X57047215Y-143467596D01*
X57047219Y-143467594D01*
X57191966Y-143322847D01*
X57191968Y-143322843D01*
X57191971Y-143322841D01*
X57244732Y-143250218D01*
X57312287Y-143157238D01*
X57405220Y-142974847D01*
X57468477Y-142780162D01*
X57500500Y-142577980D01*
X57500500Y-142373276D01*
X57468477Y-142171094D01*
X57405220Y-141976409D01*
X57405218Y-141976406D01*
X57405218Y-141976404D01*
X57371503Y-141910235D01*
X57312287Y-141794018D01*
X57304556Y-141783377D01*
X57191971Y-141628414D01*
X57047213Y-141483656D01*
X56881614Y-141363343D01*
X56875006Y-141359976D01*
X56788917Y-141316111D01*
X56738123Y-141268139D01*
X56721328Y-141200318D01*
X56743865Y-141134183D01*
X56788917Y-141095144D01*
X56881610Y-141047915D01*
X56902770Y-141032541D01*
X57047213Y-140927599D01*
X57047215Y-140927596D01*
X57047219Y-140927594D01*
X57191966Y-140782847D01*
X57191968Y-140782843D01*
X57191971Y-140782841D01*
X57244732Y-140710218D01*
X57312287Y-140617238D01*
X57405220Y-140434847D01*
X57468477Y-140240162D01*
X57500500Y-140037980D01*
X57500500Y-139833276D01*
X57468477Y-139631094D01*
X57405220Y-139436409D01*
X57405218Y-139436406D01*
X57405218Y-139436404D01*
X57365500Y-139358454D01*
X57312287Y-139254018D01*
X57304556Y-139243377D01*
X57191971Y-139088414D01*
X57047213Y-138943656D01*
X56881614Y-138823343D01*
X56875006Y-138819976D01*
X56788917Y-138776111D01*
X56738123Y-138728139D01*
X56721328Y-138660318D01*
X56743865Y-138594183D01*
X56788917Y-138555144D01*
X56881610Y-138507915D01*
X56902770Y-138492541D01*
X57047213Y-138387599D01*
X57047215Y-138387596D01*
X57047219Y-138387594D01*
X57191966Y-138242847D01*
X57191968Y-138242843D01*
X57191971Y-138242841D01*
X57244732Y-138170218D01*
X57312287Y-138077238D01*
X57405220Y-137894847D01*
X57468477Y-137700162D01*
X57500500Y-137497980D01*
X57500500Y-137293276D01*
X57468477Y-137091094D01*
X57405220Y-136896409D01*
X57405218Y-136896406D01*
X57405218Y-136896404D01*
X57369623Y-136826547D01*
X57312287Y-136714018D01*
X57304556Y-136703377D01*
X57191971Y-136548414D01*
X57047213Y-136403656D01*
X56881614Y-136283343D01*
X56875006Y-136279976D01*
X56788917Y-136236111D01*
X56738123Y-136188139D01*
X56721328Y-136120318D01*
X56743865Y-136054183D01*
X56788917Y-136015144D01*
X56881610Y-135967915D01*
X56958809Y-135911827D01*
X57047213Y-135847599D01*
X57047215Y-135847596D01*
X57047219Y-135847594D01*
X57191966Y-135702847D01*
X57191968Y-135702843D01*
X57191971Y-135702841D01*
X57252350Y-135619735D01*
X57312287Y-135537238D01*
X57405220Y-135354847D01*
X57468477Y-135160162D01*
X57500500Y-134957980D01*
X57500500Y-134753276D01*
X57468477Y-134551094D01*
X57405220Y-134356409D01*
X57405218Y-134356406D01*
X57405218Y-134356404D01*
X57371503Y-134290235D01*
X57312287Y-134174018D01*
X57304556Y-134163377D01*
X57191971Y-134008414D01*
X57047213Y-133863656D01*
X56881613Y-133743343D01*
X56881612Y-133743342D01*
X56881610Y-133743341D01*
X56824653Y-133714319D01*
X56699223Y-133650409D01*
X56504534Y-133587150D01*
X56329995Y-133559506D01*
X56302352Y-133555128D01*
X56097648Y-133555128D01*
X56073329Y-133558979D01*
X55895465Y-133587150D01*
X55700776Y-133650409D01*
X55518386Y-133743343D01*
X55352786Y-133863656D01*
X55208028Y-134008414D01*
X55087715Y-134174014D01*
X54994781Y-134356404D01*
X54931522Y-134551093D01*
X54899500Y-134753276D01*
X48857492Y-134753276D01*
X48905047Y-134687822D01*
X48905047Y-134687820D01*
X48905051Y-134687816D01*
X49001557Y-134498412D01*
X49067246Y-134296243D01*
X49100500Y-134086287D01*
X49100500Y-133873713D01*
X49067246Y-133663757D01*
X49001557Y-133461588D01*
X48905051Y-133272184D01*
X48905049Y-133272181D01*
X48905048Y-133272179D01*
X48780109Y-133100213D01*
X48629786Y-132949890D01*
X48457820Y-132824951D01*
X48457115Y-132824591D01*
X48449054Y-132820485D01*
X48398259Y-132772512D01*
X48381463Y-132704692D01*
X48403999Y-132638556D01*
X48449054Y-132599515D01*
X48457816Y-132595051D01*
X48513629Y-132554501D01*
X48629786Y-132470109D01*
X48629788Y-132470106D01*
X48629792Y-132470104D01*
X48780104Y-132319792D01*
X48780106Y-132319788D01*
X48780109Y-132319786D01*
X48905048Y-132147820D01*
X48905047Y-132147820D01*
X48905051Y-132147816D01*
X49001557Y-131958412D01*
X49067246Y-131756243D01*
X49100500Y-131546287D01*
X49100500Y-131333713D01*
X49067246Y-131123757D01*
X49001557Y-130921588D01*
X48905051Y-130732184D01*
X48905049Y-130732181D01*
X48905048Y-130732179D01*
X48780109Y-130560213D01*
X48629786Y-130409890D01*
X48457820Y-130284951D01*
X48457115Y-130284591D01*
X48449054Y-130280485D01*
X48398259Y-130232512D01*
X48381463Y-130164692D01*
X48403999Y-130098556D01*
X48449054Y-130059515D01*
X48457816Y-130055051D01*
X48494760Y-130028210D01*
X48629786Y-129930109D01*
X48629788Y-129930106D01*
X48629792Y-129930104D01*
X48780104Y-129779792D01*
X48780106Y-129779788D01*
X48780109Y-129779786D01*
X48905048Y-129607820D01*
X48905047Y-129607820D01*
X48905051Y-129607816D01*
X49001557Y-129418412D01*
X49067246Y-129216243D01*
X49100500Y-129006287D01*
X49100500Y-128793713D01*
X49067246Y-128583757D01*
X49001557Y-128381588D01*
X48905051Y-128192184D01*
X48905049Y-128192181D01*
X48905048Y-128192179D01*
X48780109Y-128020213D01*
X48629786Y-127869890D01*
X48457820Y-127744951D01*
X48457115Y-127744591D01*
X48449054Y-127740485D01*
X48398259Y-127692512D01*
X48381463Y-127624692D01*
X48403999Y-127558556D01*
X48449054Y-127519515D01*
X48457816Y-127515051D01*
X48479789Y-127499086D01*
X48629786Y-127390109D01*
X48629788Y-127390106D01*
X48629792Y-127390104D01*
X48780104Y-127239792D01*
X48780106Y-127239788D01*
X48780109Y-127239786D01*
X48905048Y-127067820D01*
X48905047Y-127067820D01*
X48905051Y-127067816D01*
X49001557Y-126878412D01*
X49067246Y-126676243D01*
X49100500Y-126466287D01*
X49100500Y-126253713D01*
X49067246Y-126043757D01*
X49001557Y-125841588D01*
X48905051Y-125652184D01*
X48905049Y-125652181D01*
X48905048Y-125652179D01*
X48780109Y-125480213D01*
X48629786Y-125329890D01*
X48457820Y-125204951D01*
X48457115Y-125204591D01*
X48449054Y-125200485D01*
X48398259Y-125152512D01*
X48381463Y-125084692D01*
X48403999Y-125018556D01*
X48449054Y-124979515D01*
X48457816Y-124975051D01*
X48479789Y-124959086D01*
X48629786Y-124850109D01*
X48629788Y-124850106D01*
X48629792Y-124850104D01*
X48780104Y-124699792D01*
X48780106Y-124699788D01*
X48780109Y-124699786D01*
X48905048Y-124527820D01*
X48905047Y-124527820D01*
X48905051Y-124527816D01*
X49001557Y-124338412D01*
X49067246Y-124136243D01*
X49100500Y-123926287D01*
X49100500Y-123713713D01*
X49067246Y-123503757D01*
X49001557Y-123301588D01*
X48905051Y-123112184D01*
X48905049Y-123112181D01*
X48905048Y-123112179D01*
X48780109Y-122940213D01*
X48629786Y-122789890D01*
X48457820Y-122664951D01*
X48457115Y-122664591D01*
X48449054Y-122660485D01*
X48398259Y-122612512D01*
X48381463Y-122544692D01*
X48403999Y-122478556D01*
X48449054Y-122439515D01*
X48457816Y-122435051D01*
X48479789Y-122419086D01*
X48629786Y-122310109D01*
X48629788Y-122310106D01*
X48629792Y-122310104D01*
X48780104Y-122159792D01*
X48780106Y-122159788D01*
X48780109Y-122159786D01*
X48857492Y-122053276D01*
X54899500Y-122053276D01*
X54899500Y-122257979D01*
X54931522Y-122460162D01*
X54994781Y-122654851D01*
X55087715Y-122837241D01*
X55208028Y-123002841D01*
X55352786Y-123147599D01*
X55507749Y-123260184D01*
X55518390Y-123267915D01*
X55584477Y-123301588D01*
X55611080Y-123315143D01*
X55661876Y-123363118D01*
X55678671Y-123430939D01*
X55656134Y-123497074D01*
X55611080Y-123536113D01*
X55518386Y-123583343D01*
X55352786Y-123703656D01*
X55208028Y-123848414D01*
X55087715Y-124014014D01*
X54994781Y-124196404D01*
X54931522Y-124391093D01*
X54899500Y-124593276D01*
X54899500Y-124797979D01*
X54931522Y-125000162D01*
X54994781Y-125194851D01*
X55058691Y-125320281D01*
X55082133Y-125366287D01*
X55087715Y-125377241D01*
X55208028Y-125542841D01*
X55352786Y-125687599D01*
X55464574Y-125768816D01*
X55518390Y-125807915D01*
X55584477Y-125841588D01*
X55611080Y-125855143D01*
X55661876Y-125903118D01*
X55678671Y-125970939D01*
X55656134Y-126037074D01*
X55611080Y-126076113D01*
X55518386Y-126123343D01*
X55352786Y-126243656D01*
X55208028Y-126388414D01*
X55087715Y-126554014D01*
X54994781Y-126736404D01*
X54931522Y-126931093D01*
X54899500Y-127133276D01*
X54899500Y-127337979D01*
X54931522Y-127540162D01*
X54994781Y-127734851D01*
X55087715Y-127917241D01*
X55208028Y-128082841D01*
X55352786Y-128227599D01*
X55507749Y-128340184D01*
X55518390Y-128347915D01*
X55584477Y-128381588D01*
X55611080Y-128395143D01*
X55661876Y-128443118D01*
X55678671Y-128510939D01*
X55656134Y-128577074D01*
X55611080Y-128616113D01*
X55518386Y-128663343D01*
X55352786Y-128783656D01*
X55208028Y-128928414D01*
X55087715Y-129094014D01*
X54994781Y-129276404D01*
X54931522Y-129471093D01*
X54899500Y-129673276D01*
X54899500Y-129877979D01*
X54931522Y-130080162D01*
X54994781Y-130274851D01*
X55058691Y-130400281D01*
X55066957Y-130416503D01*
X55087715Y-130457241D01*
X55208028Y-130622841D01*
X55352786Y-130767599D01*
X55507749Y-130880184D01*
X55518390Y-130887915D01*
X55624292Y-130941875D01*
X55700776Y-130980846D01*
X55700778Y-130980846D01*
X55700781Y-130980848D01*
X55805137Y-131014755D01*
X55895465Y-131044105D01*
X55996557Y-131060116D01*
X56097648Y-131076128D01*
X56097649Y-131076128D01*
X56302351Y-131076128D01*
X56302352Y-131076128D01*
X56504534Y-131044105D01*
X56699219Y-130980848D01*
X56881610Y-130887915D01*
X57004614Y-130798548D01*
X57047213Y-130767599D01*
X57047215Y-130767596D01*
X57047219Y-130767594D01*
X57191966Y-130622847D01*
X57191968Y-130622843D01*
X57191971Y-130622841D01*
X57244732Y-130550218D01*
X57312287Y-130457238D01*
X57405220Y-130274847D01*
X57468477Y-130080162D01*
X57500500Y-129877980D01*
X57500500Y-129673276D01*
X57468477Y-129471094D01*
X57405220Y-129276409D01*
X57405218Y-129276406D01*
X57405218Y-129276404D01*
X57371503Y-129210235D01*
X57312287Y-129094018D01*
X57304556Y-129083377D01*
X57191971Y-128928414D01*
X57047213Y-128783656D01*
X56881614Y-128663343D01*
X56875006Y-128659976D01*
X56788917Y-128616111D01*
X56738123Y-128568139D01*
X56721328Y-128500318D01*
X56743865Y-128434183D01*
X56788917Y-128395144D01*
X56881610Y-128347915D01*
X56958809Y-128291827D01*
X57047213Y-128227599D01*
X57047215Y-128227596D01*
X57047219Y-128227594D01*
X57191966Y-128082847D01*
X57191968Y-128082843D01*
X57191971Y-128082841D01*
X57283451Y-127956927D01*
X57312287Y-127917238D01*
X57405220Y-127734847D01*
X57468477Y-127540162D01*
X57500500Y-127337980D01*
X57500500Y-127133276D01*
X57468477Y-126931094D01*
X57405220Y-126736409D01*
X57405218Y-126736406D01*
X57405218Y-126736404D01*
X57371503Y-126670235D01*
X57312287Y-126554018D01*
X57304556Y-126543377D01*
X57191971Y-126388414D01*
X57047213Y-126243656D01*
X56881614Y-126123343D01*
X56875006Y-126119976D01*
X56788917Y-126076111D01*
X56738123Y-126028139D01*
X56721328Y-125960318D01*
X56743865Y-125894183D01*
X56788917Y-125855144D01*
X56881610Y-125807915D01*
X56958809Y-125751827D01*
X57047213Y-125687599D01*
X57047215Y-125687596D01*
X57047219Y-125687594D01*
X57191966Y-125542847D01*
X57191968Y-125542843D01*
X57191971Y-125542841D01*
X57295598Y-125400208D01*
X57312287Y-125377238D01*
X57405220Y-125194847D01*
X57468477Y-125000162D01*
X57500500Y-124797980D01*
X57500500Y-124593276D01*
X57468477Y-124391094D01*
X57405220Y-124196409D01*
X57405218Y-124196406D01*
X57405218Y-124196404D01*
X57371503Y-124130235D01*
X57312287Y-124014018D01*
X57253134Y-123932600D01*
X57191971Y-123848414D01*
X57047213Y-123703656D01*
X56881614Y-123583343D01*
X56875006Y-123579976D01*
X56788917Y-123536111D01*
X56738123Y-123488139D01*
X56721328Y-123420318D01*
X56743865Y-123354183D01*
X56788917Y-123315144D01*
X56881610Y-123267915D01*
X56958809Y-123211827D01*
X57047213Y-123147599D01*
X57047215Y-123147596D01*
X57047219Y-123147594D01*
X57191966Y-123002847D01*
X57191968Y-123002843D01*
X57191971Y-123002841D01*
X57244732Y-122930218D01*
X57312287Y-122837238D01*
X57405220Y-122654847D01*
X57468477Y-122460162D01*
X57500500Y-122257980D01*
X57500500Y-122053276D01*
X57468477Y-121851094D01*
X57405220Y-121656409D01*
X57405218Y-121656406D01*
X57405218Y-121656404D01*
X57371503Y-121590235D01*
X57312287Y-121474018D01*
X57253134Y-121392600D01*
X57191971Y-121308414D01*
X57047213Y-121163656D01*
X56881613Y-121043343D01*
X56881612Y-121043342D01*
X56881610Y-121043341D01*
X56824653Y-121014319D01*
X56699223Y-120950409D01*
X56504534Y-120887150D01*
X56329995Y-120859506D01*
X56302352Y-120855128D01*
X56097648Y-120855128D01*
X56073329Y-120858979D01*
X55895465Y-120887150D01*
X55700776Y-120950409D01*
X55518386Y-121043343D01*
X55352786Y-121163656D01*
X55208028Y-121308414D01*
X55087715Y-121474014D01*
X54994781Y-121656404D01*
X54931522Y-121851093D01*
X54899500Y-122053276D01*
X48857492Y-122053276D01*
X48905047Y-121987822D01*
X48905047Y-121987820D01*
X48905051Y-121987816D01*
X49001557Y-121798412D01*
X49067246Y-121596243D01*
X49100500Y-121386287D01*
X49100500Y-121173713D01*
X49067246Y-120963757D01*
X49001557Y-120761588D01*
X48905051Y-120572184D01*
X48905049Y-120572181D01*
X48905048Y-120572179D01*
X48780109Y-120400213D01*
X48629786Y-120249890D01*
X48457820Y-120124951D01*
X48457115Y-120124591D01*
X48449054Y-120120485D01*
X48398259Y-120072512D01*
X48381463Y-120004692D01*
X48403999Y-119938556D01*
X48449054Y-119899515D01*
X48457816Y-119895051D01*
X48479789Y-119879086D01*
X48629786Y-119770109D01*
X48629788Y-119770106D01*
X48629792Y-119770104D01*
X48780104Y-119619792D01*
X48780106Y-119619788D01*
X48780109Y-119619786D01*
X48905048Y-119447820D01*
X48905047Y-119447820D01*
X48905051Y-119447816D01*
X49001557Y-119258412D01*
X49067246Y-119056243D01*
X49100500Y-118846287D01*
X49100500Y-118633713D01*
X49067246Y-118423757D01*
X49001557Y-118221588D01*
X48905051Y-118032184D01*
X48905049Y-118032181D01*
X48905048Y-118032179D01*
X48780109Y-117860213D01*
X48629786Y-117709890D01*
X48457820Y-117584951D01*
X48268414Y-117488444D01*
X48268413Y-117488443D01*
X48268412Y-117488443D01*
X48066243Y-117422754D01*
X48066241Y-117422753D01*
X48066240Y-117422753D01*
X47904957Y-117397208D01*
X47856287Y-117389500D01*
X47643713Y-117389500D01*
X47595042Y-117397208D01*
X47433760Y-117422753D01*
X47231585Y-117488444D01*
X47042179Y-117584951D01*
X46870213Y-117709890D01*
X46719890Y-117860213D01*
X46594951Y-118032179D01*
X46498444Y-118221585D01*
X46432753Y-118423760D01*
X46400500Y-118627399D01*
X46399500Y-118633713D01*
X45750500Y-118633713D01*
X45750500Y-113553713D01*
X46399500Y-113553713D01*
X46399500Y-113766286D01*
X46421774Y-113906922D01*
X46432754Y-113976243D01*
X46494824Y-114167275D01*
X46498444Y-114178414D01*
X46594951Y-114367820D01*
X46719890Y-114539786D01*
X46870213Y-114690109D01*
X47042179Y-114815048D01*
X47042181Y-114815049D01*
X47042184Y-114815051D01*
X47231588Y-114911557D01*
X47433757Y-114977246D01*
X47643713Y-115010500D01*
X47643714Y-115010500D01*
X47856286Y-115010500D01*
X47856287Y-115010500D01*
X48066243Y-114977246D01*
X48268412Y-114911557D01*
X48457816Y-114815051D01*
X48479789Y-114799086D01*
X48629786Y-114690109D01*
X48629788Y-114690106D01*
X48629792Y-114690104D01*
X48780104Y-114539792D01*
X48780106Y-114539788D01*
X48780109Y-114539786D01*
X48905048Y-114367820D01*
X48905047Y-114367820D01*
X48905051Y-114367816D01*
X49001557Y-114178412D01*
X49067246Y-113976243D01*
X49100500Y-113766287D01*
X49100500Y-113553713D01*
X49067246Y-113343757D01*
X49001557Y-113141588D01*
X48905051Y-112952184D01*
X48905049Y-112952181D01*
X48905048Y-112952179D01*
X48780109Y-112780213D01*
X48629786Y-112629890D01*
X48457820Y-112504951D01*
X48268414Y-112408444D01*
X48268413Y-112408443D01*
X48268412Y-112408443D01*
X48066243Y-112342754D01*
X48066241Y-112342753D01*
X48066240Y-112342753D01*
X47904957Y-112317208D01*
X47856287Y-112309500D01*
X47643713Y-112309500D01*
X47595042Y-112317208D01*
X47433760Y-112342753D01*
X47231585Y-112408444D01*
X47042179Y-112504951D01*
X46870213Y-112629890D01*
X46719890Y-112780213D01*
X46594951Y-112952179D01*
X46498444Y-113141585D01*
X46432753Y-113343760D01*
X46399500Y-113553713D01*
X45750500Y-113553713D01*
X45750500Y-108473713D01*
X46399500Y-108473713D01*
X46399500Y-108686287D01*
X46432754Y-108896243D01*
X46452632Y-108957422D01*
X46498444Y-109098414D01*
X46594951Y-109287820D01*
X46719890Y-109459786D01*
X46870213Y-109610109D01*
X47042179Y-109735048D01*
X47042181Y-109735049D01*
X47042184Y-109735051D01*
X47231588Y-109831557D01*
X47433757Y-109897246D01*
X47643713Y-109930500D01*
X47643714Y-109930500D01*
X47856286Y-109930500D01*
X47856287Y-109930500D01*
X48066243Y-109897246D01*
X48268412Y-109831557D01*
X48457816Y-109735051D01*
X48479789Y-109719086D01*
X48629786Y-109610109D01*
X48629788Y-109610106D01*
X48629792Y-109610104D01*
X48780104Y-109459792D01*
X48780106Y-109459788D01*
X48780109Y-109459786D01*
X48905048Y-109287820D01*
X48905047Y-109287820D01*
X48905051Y-109287816D01*
X49001557Y-109098412D01*
X49067246Y-108896243D01*
X49100500Y-108686287D01*
X49100500Y-108473713D01*
X49067246Y-108263757D01*
X49001557Y-108061588D01*
X48905051Y-107872184D01*
X48905049Y-107872181D01*
X48905048Y-107872179D01*
X48780109Y-107700213D01*
X48629786Y-107549890D01*
X48457820Y-107424951D01*
X48268414Y-107328444D01*
X48268413Y-107328443D01*
X48268412Y-107328443D01*
X48066243Y-107262754D01*
X48066241Y-107262753D01*
X48066240Y-107262753D01*
X47904957Y-107237208D01*
X47856287Y-107229500D01*
X47643713Y-107229500D01*
X47595042Y-107237208D01*
X47433760Y-107262753D01*
X47231585Y-107328444D01*
X47042179Y-107424951D01*
X46870213Y-107549890D01*
X46719890Y-107700213D01*
X46594951Y-107872179D01*
X46498444Y-108061585D01*
X46432753Y-108263760D01*
X46401093Y-108463656D01*
X46399500Y-108473713D01*
X45750500Y-108473713D01*
X45750500Y-102602135D01*
X46399500Y-102602135D01*
X46399500Y-104397870D01*
X46399501Y-104397876D01*
X46405908Y-104457483D01*
X46456202Y-104592328D01*
X46456206Y-104592335D01*
X46542452Y-104707544D01*
X46542455Y-104707547D01*
X46657664Y-104793793D01*
X46657671Y-104793797D01*
X46792517Y-104844091D01*
X46792516Y-104844091D01*
X46799444Y-104844835D01*
X46852127Y-104850500D01*
X48647872Y-104850499D01*
X48707483Y-104844091D01*
X48842331Y-104793796D01*
X48957546Y-104707546D01*
X49043796Y-104592331D01*
X49094091Y-104457483D01*
X49100500Y-104397873D01*
X49100499Y-102602128D01*
X49094091Y-102542517D01*
X49075340Y-102492244D01*
X49043797Y-102407671D01*
X49043793Y-102407664D01*
X48957547Y-102292455D01*
X48957544Y-102292452D01*
X48842335Y-102206206D01*
X48842328Y-102206202D01*
X48707482Y-102155908D01*
X48707483Y-102155908D01*
X48647883Y-102149501D01*
X48647881Y-102149500D01*
X48647873Y-102149500D01*
X48647864Y-102149500D01*
X46852129Y-102149500D01*
X46852123Y-102149501D01*
X46792516Y-102155908D01*
X46657671Y-102206202D01*
X46657664Y-102206206D01*
X46542455Y-102292452D01*
X46542452Y-102292455D01*
X46456206Y-102407664D01*
X46456202Y-102407671D01*
X46405908Y-102542517D01*
X46399501Y-102602116D01*
X46399501Y-102602123D01*
X46399500Y-102602135D01*
X45750500Y-102602135D01*
X45750500Y-100624500D01*
X45770185Y-100557461D01*
X45822989Y-100511706D01*
X45874500Y-100500500D01*
X55045108Y-100500500D01*
X55112147Y-100520185D01*
G37*
%TD.AperFunction*%
%TA.AperFunction,Conductor*%
G36*
X64485987Y-160186471D02*
G01*
X64490078Y-160188081D01*
X64566503Y-160219737D01*
X64676987Y-160241713D01*
X64699691Y-160246230D01*
X64761602Y-160278615D01*
X64796176Y-160339330D01*
X64799500Y-160367847D01*
X64799500Y-161824126D01*
X64779815Y-161891165D01*
X64727011Y-161936920D01*
X64657853Y-161946864D01*
X64594297Y-161917839D01*
X64587819Y-161911807D01*
X64528044Y-161852032D01*
X64528040Y-161852029D01*
X64383705Y-161763001D01*
X64383699Y-161762998D01*
X64383697Y-161762997D01*
X64383694Y-161762996D01*
X64222709Y-161709651D01*
X64123346Y-161699500D01*
X63526662Y-161699500D01*
X63526644Y-161699501D01*
X63427292Y-161709650D01*
X63427289Y-161709651D01*
X63266305Y-161762996D01*
X63266294Y-161763001D01*
X63121959Y-161852029D01*
X63121955Y-161852032D01*
X63002032Y-161971955D01*
X63002029Y-161971959D01*
X62913001Y-162116294D01*
X62912996Y-162116305D01*
X62859651Y-162277290D01*
X62849500Y-162376647D01*
X62849500Y-162923337D01*
X62849501Y-162923355D01*
X62859650Y-163022707D01*
X62859651Y-163022710D01*
X62912996Y-163183694D01*
X62913001Y-163183705D01*
X63002029Y-163328040D01*
X63002032Y-163328044D01*
X63121955Y-163447967D01*
X63121959Y-163447970D01*
X63266294Y-163536998D01*
X63266297Y-163536999D01*
X63266303Y-163537003D01*
X63427292Y-163590349D01*
X63526655Y-163600500D01*
X64123344Y-163600499D01*
X64123352Y-163600498D01*
X64123355Y-163600498D01*
X64177760Y-163594940D01*
X64222708Y-163590349D01*
X64383697Y-163537003D01*
X64528044Y-163447968D01*
X64587819Y-163388193D01*
X64649142Y-163354708D01*
X64718834Y-163359692D01*
X64774767Y-163401564D01*
X64799184Y-163467028D01*
X64799500Y-163475874D01*
X64799500Y-168504192D01*
X64779815Y-168571231D01*
X64763181Y-168591873D01*
X61362181Y-171992873D01*
X61300858Y-172026358D01*
X61231166Y-172021374D01*
X61175233Y-171979502D01*
X61150816Y-171914038D01*
X61150500Y-171905192D01*
X61150500Y-166832939D01*
X61170185Y-166765900D01*
X61186814Y-166745262D01*
X62270259Y-165661817D01*
X62331582Y-165628333D01*
X62357940Y-165625499D01*
X62423338Y-165625499D01*
X62423344Y-165625499D01*
X62423352Y-165625498D01*
X62423355Y-165625498D01*
X62477760Y-165619940D01*
X62522708Y-165615349D01*
X62683697Y-165562003D01*
X62828044Y-165472968D01*
X62947968Y-165353044D01*
X63037003Y-165208697D01*
X63090349Y-165047708D01*
X63100500Y-164948345D01*
X63100499Y-164401656D01*
X63090349Y-164302292D01*
X63037003Y-164141303D01*
X63036999Y-164141297D01*
X63036998Y-164141294D01*
X62947970Y-163996959D01*
X62947967Y-163996955D01*
X62828044Y-163877032D01*
X62828040Y-163877029D01*
X62683705Y-163788001D01*
X62683699Y-163787998D01*
X62683697Y-163787997D01*
X62591213Y-163757351D01*
X62522709Y-163734651D01*
X62423346Y-163724500D01*
X61826662Y-163724500D01*
X61826644Y-163724501D01*
X61727292Y-163734650D01*
X61727289Y-163734651D01*
X61566305Y-163787996D01*
X61566294Y-163788001D01*
X61421959Y-163877029D01*
X61421955Y-163877032D01*
X61302032Y-163996955D01*
X61302029Y-163996959D01*
X61213001Y-164141294D01*
X61212996Y-164141305D01*
X61159651Y-164302290D01*
X61149500Y-164401647D01*
X61149500Y-164467059D01*
X61129815Y-164534098D01*
X61113180Y-164554740D01*
X59839711Y-165828211D01*
X59799505Y-165868417D01*
X59728209Y-165939712D01*
X59640609Y-166070814D01*
X59640602Y-166070827D01*
X59580264Y-166216498D01*
X59580261Y-166216510D01*
X59549500Y-166371153D01*
X59549500Y-177192060D01*
X59529815Y-177259099D01*
X59513181Y-177279741D01*
X58954741Y-177838181D01*
X58893418Y-177871666D01*
X58867060Y-177874500D01*
X54846155Y-177874500D01*
X54691510Y-177905261D01*
X54691498Y-177905264D01*
X54545827Y-177965602D01*
X54545814Y-177965609D01*
X54414711Y-178053210D01*
X54414707Y-178053213D01*
X54303213Y-178164707D01*
X54303210Y-178164711D01*
X54215609Y-178295814D01*
X54215602Y-178295827D01*
X54155264Y-178441498D01*
X54155261Y-178441510D01*
X54124500Y-178596153D01*
X54124500Y-178753846D01*
X54155261Y-178908489D01*
X54155264Y-178908501D01*
X54215602Y-179054172D01*
X54215609Y-179054185D01*
X54303210Y-179185288D01*
X54303213Y-179185292D01*
X54405740Y-179287819D01*
X54439225Y-179349142D01*
X54434241Y-179418834D01*
X54392369Y-179474767D01*
X54326905Y-179499184D01*
X54318059Y-179499500D01*
X50941024Y-179499500D01*
X50873985Y-179479815D01*
X50828230Y-179427011D01*
X50818286Y-179357853D01*
X50847311Y-179294297D01*
X50872133Y-179272398D01*
X50920163Y-179240304D01*
X50985289Y-179196789D01*
X51096789Y-179085289D01*
X51184394Y-178954179D01*
X51244737Y-178808497D01*
X51275500Y-178653842D01*
X51275500Y-178496158D01*
X51275500Y-178496155D01*
X51275499Y-178496153D01*
X51244738Y-178341510D01*
X51244737Y-178341503D01*
X51225812Y-178295814D01*
X51184397Y-178195827D01*
X51184390Y-178195814D01*
X51096789Y-178064711D01*
X51096786Y-178064707D01*
X48436819Y-175404740D01*
X48403334Y-175343417D01*
X48400500Y-175317059D01*
X48400500Y-171774500D01*
X48420185Y-171707461D01*
X48472989Y-171661706D01*
X48524500Y-171650500D01*
X48784480Y-171650500D01*
X48851519Y-171670185D01*
X48897274Y-171722989D01*
X48907218Y-171792147D01*
X48878193Y-171855703D01*
X48872161Y-171862181D01*
X48869531Y-171864810D01*
X48869530Y-171864811D01*
X48781522Y-172010393D01*
X48730913Y-172172807D01*
X48724500Y-172243386D01*
X48724500Y-172756613D01*
X48730913Y-172827192D01*
X48730913Y-172827194D01*
X48730914Y-172827196D01*
X48781522Y-172989606D01*
X48863674Y-173125502D01*
X48869530Y-173135188D01*
X48989811Y-173255469D01*
X48989813Y-173255470D01*
X48989815Y-173255472D01*
X49135394Y-173343478D01*
X49297804Y-173394086D01*
X49368384Y-173400500D01*
X49368387Y-173400500D01*
X50031613Y-173400500D01*
X50031616Y-173400500D01*
X50102196Y-173394086D01*
X50264606Y-173343478D01*
X50410185Y-173255472D01*
X50478839Y-173186817D01*
X50540160Y-173153334D01*
X50566519Y-173150500D01*
X51214071Y-173150500D01*
X51319499Y-173129528D01*
X51339744Y-173125501D01*
X51458127Y-173076465D01*
X51498485Y-173049499D01*
X51564669Y-173005277D01*
X64354974Y-160214970D01*
X64416295Y-160181487D01*
X64485987Y-160186471D01*
G37*
%TD.AperFunction*%
%TA.AperFunction,Conductor*%
G36*
X73290510Y-100520185D02*
G01*
X73336265Y-100572989D01*
X73346209Y-100642147D01*
X73317184Y-100705703D01*
X73296356Y-100724818D01*
X73132786Y-100843656D01*
X72988028Y-100988414D01*
X72867715Y-101154014D01*
X72774781Y-101336404D01*
X72711522Y-101531093D01*
X72679500Y-101733276D01*
X72679500Y-101937979D01*
X72711522Y-102140162D01*
X72774781Y-102334851D01*
X72838691Y-102460281D01*
X72854976Y-102492241D01*
X72867715Y-102517241D01*
X72988028Y-102682841D01*
X73132786Y-102827599D01*
X73287749Y-102940184D01*
X73298390Y-102947915D01*
X73383139Y-102991097D01*
X73391080Y-102995143D01*
X73441876Y-103043118D01*
X73458671Y-103110939D01*
X73436134Y-103177074D01*
X73391080Y-103216113D01*
X73298386Y-103263343D01*
X73132786Y-103383656D01*
X72988035Y-103528407D01*
X72985252Y-103531666D01*
X72926742Y-103569855D01*
X72890967Y-103575128D01*
X72586153Y-103575128D01*
X72431510Y-103605888D01*
X72431502Y-103605890D01*
X72285824Y-103666232D01*
X72285814Y-103666237D01*
X72154711Y-103753838D01*
X72154707Y-103753841D01*
X71654739Y-104253809D01*
X71593416Y-104287294D01*
X71567060Y-104290128D01*
X71501663Y-104290128D01*
X71501644Y-104290129D01*
X71402292Y-104300278D01*
X71402289Y-104300279D01*
X71241305Y-104353624D01*
X71241298Y-104353627D01*
X71169550Y-104397883D01*
X71130991Y-104421666D01*
X71114434Y-104426362D01*
X71100830Y-104435105D01*
X71065895Y-104440128D01*
X70934105Y-104440128D01*
X70869008Y-104421666D01*
X70816286Y-104389146D01*
X70758701Y-104353627D01*
X70758698Y-104353625D01*
X70758697Y-104353625D01*
X70758694Y-104353624D01*
X70597709Y-104300279D01*
X70498346Y-104290128D01*
X69901662Y-104290128D01*
X69901644Y-104290129D01*
X69802292Y-104300278D01*
X69802289Y-104300279D01*
X69641305Y-104353624D01*
X69641294Y-104353629D01*
X69496959Y-104442657D01*
X69496955Y-104442660D01*
X69377032Y-104562583D01*
X69377029Y-104562587D01*
X69288001Y-104706922D01*
X69287996Y-104706933D01*
X69234651Y-104867918D01*
X69224500Y-104967275D01*
X69224500Y-105513965D01*
X69224501Y-105513983D01*
X69234650Y-105613335D01*
X69234651Y-105613338D01*
X69287996Y-105774322D01*
X69288001Y-105774333D01*
X69377029Y-105918668D01*
X69377032Y-105918672D01*
X69496955Y-106038595D01*
X69496959Y-106038598D01*
X69641294Y-106127626D01*
X69641297Y-106127627D01*
X69641303Y-106127631D01*
X69802292Y-106180977D01*
X69901655Y-106191128D01*
X70498344Y-106191127D01*
X70498352Y-106191126D01*
X70498355Y-106191126D01*
X70552760Y-106185568D01*
X70597708Y-106180977D01*
X70758697Y-106127631D01*
X70869008Y-106059589D01*
X70885565Y-106054893D01*
X70899170Y-106046151D01*
X70934105Y-106041128D01*
X71065895Y-106041128D01*
X71130991Y-106059589D01*
X71241303Y-106127631D01*
X71402292Y-106180977D01*
X71501655Y-106191128D01*
X72098344Y-106191127D01*
X72098352Y-106191126D01*
X72098355Y-106191126D01*
X72152760Y-106185568D01*
X72197708Y-106180977D01*
X72358697Y-106127631D01*
X72503044Y-106038596D01*
X72622968Y-105918672D01*
X72712003Y-105774325D01*
X72765349Y-105613336D01*
X72775500Y-105513973D01*
X72775499Y-105448567D01*
X72784143Y-105419126D01*
X72790667Y-105389140D01*
X72794420Y-105384126D01*
X72795183Y-105381529D01*
X72811813Y-105360891D01*
X72881266Y-105291438D01*
X72942587Y-105257955D01*
X73012279Y-105262939D01*
X73056626Y-105291439D01*
X73132781Y-105367594D01*
X73132784Y-105367596D01*
X73132788Y-105367600D01*
X73203709Y-105419126D01*
X73298390Y-105487915D01*
X73414607Y-105547131D01*
X73480776Y-105580846D01*
X73480778Y-105580846D01*
X73480781Y-105580848D01*
X73580766Y-105613335D01*
X73675465Y-105644105D01*
X73776557Y-105660116D01*
X73877648Y-105676128D01*
X73877649Y-105676128D01*
X74082351Y-105676128D01*
X74082352Y-105676128D01*
X74284534Y-105644105D01*
X74479219Y-105580848D01*
X74661610Y-105487915D01*
X74756291Y-105419126D01*
X74827213Y-105367599D01*
X74827215Y-105367596D01*
X74827219Y-105367594D01*
X74971966Y-105222847D01*
X74971968Y-105222843D01*
X74971971Y-105222841D01*
X75024732Y-105150218D01*
X75092287Y-105057238D01*
X75185220Y-104874847D01*
X75248477Y-104680162D01*
X75280500Y-104477980D01*
X75280500Y-104273276D01*
X75248477Y-104071094D01*
X75185220Y-103876409D01*
X75185218Y-103876406D01*
X75185218Y-103876404D01*
X75122767Y-103753839D01*
X75092287Y-103694018D01*
X75072101Y-103666234D01*
X74971971Y-103528414D01*
X74827213Y-103383656D01*
X74661614Y-103263343D01*
X74655006Y-103259976D01*
X74568917Y-103216111D01*
X74518123Y-103168139D01*
X74501328Y-103100318D01*
X74523865Y-103034183D01*
X74568917Y-102995144D01*
X74661610Y-102947915D01*
X74767733Y-102870813D01*
X74827213Y-102827599D01*
X74827215Y-102827596D01*
X74827219Y-102827594D01*
X74971966Y-102682847D01*
X74971968Y-102682843D01*
X74971971Y-102682841D01*
X75059170Y-102562820D01*
X75092287Y-102517238D01*
X75185220Y-102334847D01*
X75248477Y-102140162D01*
X75280500Y-101937980D01*
X75280500Y-101733276D01*
X75248477Y-101531094D01*
X75185220Y-101336409D01*
X75185218Y-101336406D01*
X75185218Y-101336404D01*
X75151503Y-101270235D01*
X75092287Y-101154018D01*
X75084556Y-101143377D01*
X74971971Y-100988414D01*
X74827213Y-100843656D01*
X74663644Y-100724818D01*
X74620978Y-100669489D01*
X74614999Y-100599875D01*
X74647604Y-100538080D01*
X74708443Y-100503723D01*
X74736529Y-100500500D01*
X84625500Y-100500500D01*
X84692539Y-100520185D01*
X84738294Y-100572989D01*
X84749500Y-100624500D01*
X84749500Y-179375500D01*
X84729815Y-179442539D01*
X84677011Y-179488294D01*
X84625500Y-179499500D01*
X70831941Y-179499500D01*
X70764902Y-179479815D01*
X70719147Y-179427011D01*
X70709203Y-179357853D01*
X70738228Y-179294297D01*
X70744260Y-179287819D01*
X72071786Y-177960292D01*
X72071789Y-177960289D01*
X72159394Y-177829179D01*
X72219738Y-177683497D01*
X72250500Y-177528842D01*
X72250500Y-177371157D01*
X72250500Y-174124424D01*
X72270185Y-174057385D01*
X72322989Y-174011630D01*
X72392147Y-174001686D01*
X72421952Y-174009863D01*
X72525002Y-174052547D01*
X72566503Y-174069737D01*
X72718644Y-174100000D01*
X72721153Y-174100499D01*
X72721156Y-174100500D01*
X72721158Y-174100500D01*
X72878844Y-174100500D01*
X72878845Y-174100499D01*
X73033497Y-174069737D01*
X73179179Y-174009394D01*
X73310289Y-173921789D01*
X73421789Y-173810289D01*
X73509394Y-173679179D01*
X73513827Y-173668478D01*
X73528824Y-173632270D01*
X73569737Y-173533497D01*
X73583079Y-173466416D01*
X73615463Y-173404509D01*
X73616959Y-173402985D01*
X73937869Y-173082076D01*
X73999192Y-173048591D01*
X74068884Y-173053575D01*
X74124817Y-173095447D01*
X74149234Y-173160911D01*
X74149550Y-173169757D01*
X74149550Y-173955484D01*
X74160274Y-174009393D01*
X74160274Y-174009395D01*
X74174547Y-174081150D01*
X74174549Y-174081158D01*
X74223584Y-174199540D01*
X74223585Y-174199541D01*
X74278421Y-174281611D01*
X74299299Y-174348287D01*
X74280814Y-174415667D01*
X74228835Y-174462357D01*
X74175319Y-174474500D01*
X73568384Y-174474500D01*
X73549145Y-174476248D01*
X73497807Y-174480913D01*
X73335393Y-174531522D01*
X73189811Y-174619530D01*
X73069530Y-174739811D01*
X72981522Y-174885393D01*
X72930913Y-175047807D01*
X72924500Y-175118386D01*
X72924500Y-175631613D01*
X72930913Y-175702192D01*
X72930913Y-175702194D01*
X72930914Y-175702196D01*
X72981522Y-175864606D01*
X73023163Y-175933489D01*
X73069530Y-176010188D01*
X73189811Y-176130469D01*
X73189813Y-176130470D01*
X73189815Y-176130472D01*
X73335394Y-176218478D01*
X73497804Y-176269086D01*
X73568384Y-176275500D01*
X73568387Y-176275500D01*
X74231613Y-176275500D01*
X74231616Y-176275500D01*
X74302196Y-176269086D01*
X74464606Y-176218478D01*
X74536350Y-176175106D01*
X74603904Y-176157270D01*
X74670378Y-176178787D01*
X74714666Y-176232827D01*
X74724500Y-176281223D01*
X74724500Y-176308771D01*
X74757182Y-176473074D01*
X74757184Y-176473082D01*
X74821295Y-176627860D01*
X74914373Y-176767162D01*
X75032837Y-176885626D01*
X75125494Y-176947537D01*
X75172137Y-176978703D01*
X75326918Y-177042816D01*
X75448802Y-177067060D01*
X75491228Y-177075499D01*
X75491232Y-177075500D01*
X75491233Y-177075500D01*
X75658768Y-177075500D01*
X75658769Y-177075499D01*
X75823082Y-177042816D01*
X75977863Y-176978703D01*
X76117162Y-176885626D01*
X76162318Y-176840470D01*
X76223641Y-176806984D01*
X76293332Y-176811968D01*
X76337682Y-176840470D01*
X76382834Y-176885623D01*
X76382837Y-176885626D01*
X76475494Y-176947537D01*
X76522137Y-176978703D01*
X76676918Y-177042816D01*
X76798802Y-177067060D01*
X76841228Y-177075499D01*
X76841232Y-177075500D01*
X76841233Y-177075500D01*
X77008768Y-177075500D01*
X77008769Y-177075499D01*
X77173082Y-177042816D01*
X77327863Y-176978703D01*
X77467162Y-176885626D01*
X77585626Y-176767162D01*
X77678703Y-176627863D01*
X77742816Y-176473082D01*
X77775500Y-176308767D01*
X77775500Y-176141233D01*
X77742816Y-175976918D01*
X77689188Y-175847451D01*
X77681720Y-175777984D01*
X77689189Y-175752547D01*
X77742816Y-175623082D01*
X77775500Y-175458767D01*
X77775500Y-175291233D01*
X77742816Y-175126918D01*
X77689188Y-174997451D01*
X77681720Y-174927984D01*
X77689189Y-174902547D01*
X77696294Y-174885394D01*
X77742816Y-174773082D01*
X77775500Y-174608767D01*
X77775500Y-174441233D01*
X77742816Y-174276918D01*
X77689188Y-174147451D01*
X77681720Y-174077984D01*
X77689189Y-174052547D01*
X77742816Y-173923082D01*
X77769013Y-173791377D01*
X77801397Y-173729468D01*
X77862113Y-173694894D01*
X77927516Y-173697183D01*
X77997804Y-173719086D01*
X78068384Y-173725500D01*
X78068387Y-173725500D01*
X78731613Y-173725500D01*
X78731616Y-173725500D01*
X78802196Y-173719086D01*
X78964606Y-173668478D01*
X79110185Y-173580472D01*
X79230472Y-173460185D01*
X79318478Y-173314606D01*
X79369086Y-173152196D01*
X79375500Y-173081616D01*
X79375500Y-172568384D01*
X79369086Y-172497804D01*
X79318478Y-172335394D01*
X79230472Y-172189815D01*
X79230470Y-172189813D01*
X79230469Y-172189811D01*
X79110188Y-172069530D01*
X78964606Y-171981522D01*
X78958123Y-171979502D01*
X78802196Y-171930914D01*
X78802194Y-171930913D01*
X78802192Y-171930913D01*
X78752778Y-171926423D01*
X78731616Y-171924500D01*
X78068384Y-171924500D01*
X77997804Y-171930914D01*
X77959341Y-171942899D01*
X77927519Y-171952815D01*
X77857658Y-171953965D01*
X77798266Y-171917163D01*
X77769013Y-171858620D01*
X77755791Y-171792147D01*
X77742816Y-171726918D01*
X77678703Y-171572137D01*
X77638004Y-171511227D01*
X77585626Y-171432837D01*
X77467162Y-171314373D01*
X77327860Y-171221295D01*
X77173082Y-171157184D01*
X77173074Y-171157182D01*
X77008771Y-171124500D01*
X77008767Y-171124500D01*
X76841233Y-171124500D01*
X76841228Y-171124500D01*
X76676925Y-171157182D01*
X76676917Y-171157184D01*
X76522139Y-171221295D01*
X76382837Y-171314373D01*
X76382834Y-171314376D01*
X76337681Y-171359530D01*
X76276358Y-171393015D01*
X76206666Y-171388031D01*
X76162319Y-171359530D01*
X76117162Y-171314373D01*
X75977860Y-171221295D01*
X75823082Y-171157184D01*
X75823074Y-171157182D01*
X75658771Y-171124500D01*
X75658767Y-171124500D01*
X75491233Y-171124500D01*
X75491228Y-171124500D01*
X75326925Y-171157182D01*
X75326917Y-171157184D01*
X75172139Y-171221295D01*
X75032837Y-171314373D01*
X74914376Y-171432834D01*
X74914373Y-171432838D01*
X74877602Y-171487870D01*
X74823989Y-171532675D01*
X74754664Y-171541382D01*
X74691637Y-171511227D01*
X74654918Y-171451784D01*
X74650500Y-171418979D01*
X74650500Y-166820808D01*
X74670185Y-166753769D01*
X74686819Y-166733127D01*
X76510819Y-164909127D01*
X76572142Y-164875642D01*
X76641834Y-164880626D01*
X76697767Y-164922498D01*
X76722184Y-164987962D01*
X76722500Y-164996808D01*
X76722500Y-166862071D01*
X76740090Y-166950496D01*
X76740090Y-166950498D01*
X76747497Y-166987737D01*
X76747498Y-166987741D01*
X76747499Y-166987744D01*
X76796535Y-167106127D01*
X76836881Y-167166510D01*
X76867726Y-167212673D01*
X76867727Y-167212674D01*
X77688181Y-168033127D01*
X77721666Y-168094450D01*
X77724500Y-168120808D01*
X77724500Y-168381613D01*
X77730913Y-168452192D01*
X77730913Y-168452194D01*
X77730914Y-168452196D01*
X77781522Y-168614606D01*
X77849143Y-168726465D01*
X77869530Y-168760188D01*
X77989811Y-168880469D01*
X77989813Y-168880470D01*
X77989815Y-168880472D01*
X78135394Y-168968478D01*
X78297804Y-169019086D01*
X78368384Y-169025500D01*
X78368387Y-169025500D01*
X78881613Y-169025500D01*
X78881616Y-169025500D01*
X78952196Y-169019086D01*
X79114606Y-168968478D01*
X79260185Y-168880472D01*
X79297273Y-168843384D01*
X79362319Y-168778339D01*
X79423642Y-168744854D01*
X79493334Y-168749838D01*
X79537681Y-168778339D01*
X79639811Y-168880469D01*
X79639813Y-168880470D01*
X79639815Y-168880472D01*
X79785394Y-168968478D01*
X79947804Y-169019086D01*
X80018384Y-169025500D01*
X80018387Y-169025500D01*
X80531613Y-169025500D01*
X80531616Y-169025500D01*
X80602196Y-169019086D01*
X80764606Y-168968478D01*
X80910185Y-168880472D01*
X81030472Y-168760185D01*
X81118478Y-168614606D01*
X81169086Y-168452196D01*
X81175500Y-168381616D01*
X81175500Y-167718384D01*
X81169086Y-167647804D01*
X81146615Y-167575694D01*
X81143384Y-167514613D01*
X81150500Y-167478842D01*
X81150500Y-167321158D01*
X81150500Y-167321155D01*
X81150499Y-167321153D01*
X81119738Y-167166510D01*
X81119737Y-167166503D01*
X81094728Y-167106125D01*
X81069018Y-167044055D01*
X81061549Y-166974586D01*
X81077463Y-166932452D01*
X81118478Y-166864606D01*
X81169086Y-166702196D01*
X81175500Y-166631616D01*
X81175500Y-165968384D01*
X81169086Y-165897804D01*
X81118478Y-165735394D01*
X81077461Y-165667544D01*
X81059626Y-165599991D01*
X81069017Y-165555945D01*
X81119737Y-165433497D01*
X81150500Y-165278842D01*
X81150500Y-165121158D01*
X81143384Y-165085385D01*
X81146615Y-165024304D01*
X81169086Y-164952196D01*
X81175500Y-164881616D01*
X81175500Y-164218384D01*
X81169086Y-164147804D01*
X81118478Y-163985394D01*
X81030472Y-163839815D01*
X81030470Y-163839813D01*
X81030469Y-163839811D01*
X81018362Y-163827704D01*
X81014023Y-163819758D01*
X81006776Y-163814333D01*
X80997541Y-163789573D01*
X80984877Y-163766381D01*
X80985522Y-163757351D01*
X80982359Y-163748869D01*
X80987975Y-163723048D01*
X80989861Y-163696689D01*
X80995679Y-163687635D01*
X80997211Y-163680596D01*
X81018359Y-163652345D01*
X81053311Y-163617393D01*
X81114632Y-163583910D01*
X81116697Y-163583479D01*
X81183877Y-163570117D01*
X81329559Y-163509774D01*
X81460669Y-163422169D01*
X81572169Y-163310669D01*
X81659774Y-163179559D01*
X81720117Y-163033877D01*
X81720117Y-163033876D01*
X81721316Y-163030982D01*
X81765156Y-162976578D01*
X81831450Y-162954513D01*
X81899150Y-162971792D01*
X81908762Y-162978116D01*
X82042179Y-163075048D01*
X82042181Y-163075049D01*
X82042184Y-163075051D01*
X82231588Y-163171557D01*
X82433757Y-163237246D01*
X82643713Y-163270500D01*
X82643714Y-163270500D01*
X82856286Y-163270500D01*
X82856287Y-163270500D01*
X83066243Y-163237246D01*
X83268412Y-163171557D01*
X83457816Y-163075051D01*
X83529858Y-163022710D01*
X83629786Y-162950109D01*
X83629788Y-162950106D01*
X83629792Y-162950104D01*
X83780104Y-162799792D01*
X83780106Y-162799788D01*
X83780109Y-162799786D01*
X83905048Y-162627820D01*
X83905047Y-162627820D01*
X83905051Y-162627816D01*
X84001557Y-162438412D01*
X84067246Y-162236243D01*
X84100500Y-162026287D01*
X84100500Y-161813713D01*
X84067246Y-161603757D01*
X84001557Y-161401588D01*
X83905051Y-161212184D01*
X83905049Y-161212181D01*
X83905048Y-161212179D01*
X83780109Y-161040213D01*
X83629786Y-160889890D01*
X83457820Y-160764951D01*
X83457115Y-160764591D01*
X83449054Y-160760485D01*
X83398259Y-160712512D01*
X83381463Y-160644692D01*
X83403999Y-160578556D01*
X83449054Y-160539515D01*
X83457816Y-160535051D01*
X83611763Y-160423203D01*
X83629786Y-160410109D01*
X83629788Y-160410106D01*
X83629792Y-160410104D01*
X83780104Y-160259792D01*
X83780106Y-160259788D01*
X83780109Y-160259786D01*
X83905048Y-160087820D01*
X83905047Y-160087820D01*
X83905051Y-160087816D01*
X84001557Y-159898412D01*
X84067246Y-159696243D01*
X84100500Y-159486287D01*
X84100500Y-159273713D01*
X84067246Y-159063757D01*
X84001557Y-158861588D01*
X83905051Y-158672184D01*
X83905049Y-158672181D01*
X83905048Y-158672179D01*
X83780109Y-158500213D01*
X83629786Y-158349890D01*
X83457820Y-158224951D01*
X83456770Y-158224416D01*
X83449054Y-158220485D01*
X83398259Y-158172512D01*
X83381463Y-158104692D01*
X83403999Y-158038556D01*
X83449054Y-157999515D01*
X83457816Y-157995051D01*
X83610929Y-157883809D01*
X83629786Y-157870109D01*
X83629788Y-157870106D01*
X83629792Y-157870104D01*
X83780104Y-157719792D01*
X83780106Y-157719788D01*
X83780109Y-157719786D01*
X83905048Y-157547820D01*
X83905047Y-157547820D01*
X83905051Y-157547816D01*
X84001557Y-157358412D01*
X84067246Y-157156243D01*
X84100500Y-156946287D01*
X84100500Y-156733713D01*
X84067246Y-156523757D01*
X84001557Y-156321588D01*
X83905051Y-156132184D01*
X83905049Y-156132181D01*
X83905048Y-156132179D01*
X83780109Y-155960213D01*
X83629786Y-155809890D01*
X83457820Y-155684951D01*
X83457115Y-155684591D01*
X83449054Y-155680485D01*
X83398259Y-155632512D01*
X83381463Y-155564692D01*
X83403999Y-155498556D01*
X83449054Y-155459515D01*
X83457816Y-155455051D01*
X83589124Y-155359651D01*
X83629786Y-155330109D01*
X83629788Y-155330106D01*
X83629792Y-155330104D01*
X83780104Y-155179792D01*
X83780106Y-155179788D01*
X83780109Y-155179786D01*
X83905048Y-155007820D01*
X83905047Y-155007820D01*
X83905051Y-155007816D01*
X84001557Y-154818412D01*
X84067246Y-154616243D01*
X84100500Y-154406287D01*
X84100500Y-154193713D01*
X84067246Y-153983757D01*
X84001557Y-153781588D01*
X83905051Y-153592184D01*
X83905049Y-153592181D01*
X83905048Y-153592179D01*
X83780109Y-153420213D01*
X83629786Y-153269890D01*
X83457820Y-153144951D01*
X83457115Y-153144591D01*
X83449054Y-153140485D01*
X83398259Y-153092512D01*
X83381463Y-153024692D01*
X83403999Y-152958556D01*
X83449054Y-152919515D01*
X83457816Y-152915051D01*
X83479789Y-152899086D01*
X83629786Y-152790109D01*
X83629788Y-152790106D01*
X83629792Y-152790104D01*
X83780104Y-152639792D01*
X83780106Y-152639788D01*
X83780109Y-152639786D01*
X83905048Y-152467820D01*
X83905047Y-152467820D01*
X83905051Y-152467816D01*
X84001557Y-152278412D01*
X84067246Y-152076243D01*
X84100500Y-151866287D01*
X84100500Y-151653713D01*
X84067246Y-151443757D01*
X84001557Y-151241588D01*
X83905051Y-151052184D01*
X83905049Y-151052181D01*
X83905048Y-151052179D01*
X83780109Y-150880213D01*
X83629786Y-150729890D01*
X83457820Y-150604951D01*
X83457115Y-150604591D01*
X83449054Y-150600485D01*
X83398259Y-150552512D01*
X83381463Y-150484692D01*
X83403999Y-150418556D01*
X83449054Y-150379515D01*
X83457816Y-150375051D01*
X83479789Y-150359086D01*
X83629786Y-150250109D01*
X83629788Y-150250106D01*
X83629792Y-150250104D01*
X83780104Y-150099792D01*
X83780106Y-150099788D01*
X83780109Y-150099786D01*
X83905048Y-149927820D01*
X83905047Y-149927820D01*
X83905051Y-149927816D01*
X84001557Y-149738412D01*
X84067246Y-149536243D01*
X84100500Y-149326287D01*
X84100500Y-149113713D01*
X84067246Y-148903757D01*
X84001557Y-148701588D01*
X83905051Y-148512184D01*
X83905049Y-148512181D01*
X83905048Y-148512179D01*
X83780109Y-148340213D01*
X83629786Y-148189890D01*
X83457820Y-148064951D01*
X83457115Y-148064591D01*
X83449054Y-148060485D01*
X83398259Y-148012512D01*
X83381463Y-147944692D01*
X83403999Y-147878556D01*
X83449054Y-147839515D01*
X83457816Y-147835051D01*
X83479789Y-147819086D01*
X83629786Y-147710109D01*
X83629788Y-147710106D01*
X83629792Y-147710104D01*
X83780104Y-147559792D01*
X83780106Y-147559788D01*
X83780109Y-147559786D01*
X83905048Y-147387820D01*
X83905047Y-147387820D01*
X83905051Y-147387816D01*
X84001557Y-147198412D01*
X84067246Y-146996243D01*
X84100500Y-146786287D01*
X84100500Y-146573713D01*
X84067246Y-146363757D01*
X84001557Y-146161588D01*
X83905051Y-145972184D01*
X83905049Y-145972181D01*
X83905048Y-145972179D01*
X83780109Y-145800213D01*
X83629786Y-145649890D01*
X83457820Y-145524951D01*
X83457115Y-145524591D01*
X83449054Y-145520485D01*
X83398259Y-145472512D01*
X83381463Y-145404692D01*
X83403999Y-145338556D01*
X83449054Y-145299515D01*
X83457816Y-145295051D01*
X83479789Y-145279086D01*
X83629786Y-145170109D01*
X83629788Y-145170106D01*
X83629792Y-145170104D01*
X83780104Y-145019792D01*
X83780106Y-145019788D01*
X83780109Y-145019786D01*
X83905048Y-144847820D01*
X83905047Y-144847820D01*
X83905051Y-144847816D01*
X84001557Y-144658412D01*
X84067246Y-144456243D01*
X84100500Y-144246287D01*
X84100500Y-144033713D01*
X84067246Y-143823757D01*
X84001557Y-143621588D01*
X83905051Y-143432184D01*
X83905049Y-143432181D01*
X83905048Y-143432179D01*
X83780108Y-143260212D01*
X83629786Y-143109890D01*
X83457820Y-142984951D01*
X83457115Y-142984591D01*
X83449054Y-142980485D01*
X83398259Y-142932512D01*
X83381463Y-142864692D01*
X83403999Y-142798556D01*
X83449054Y-142759515D01*
X83457816Y-142755051D01*
X83479789Y-142739086D01*
X83629786Y-142630109D01*
X83629788Y-142630106D01*
X83629792Y-142630104D01*
X83780104Y-142479792D01*
X83780106Y-142479788D01*
X83780109Y-142479786D01*
X83905048Y-142307820D01*
X83905047Y-142307820D01*
X83905051Y-142307816D01*
X84001557Y-142118412D01*
X84067246Y-141916243D01*
X84100500Y-141706287D01*
X84100500Y-141493713D01*
X84067246Y-141283757D01*
X84001557Y-141081588D01*
X83905051Y-140892184D01*
X83905049Y-140892181D01*
X83905048Y-140892179D01*
X83780109Y-140720213D01*
X83629786Y-140569890D01*
X83457820Y-140444951D01*
X83457115Y-140444591D01*
X83449054Y-140440485D01*
X83398259Y-140392512D01*
X83381463Y-140324692D01*
X83403999Y-140258556D01*
X83449054Y-140219515D01*
X83457816Y-140215051D01*
X83479789Y-140199086D01*
X83629786Y-140090109D01*
X83629788Y-140090106D01*
X83629792Y-140090104D01*
X83780104Y-139939792D01*
X83780106Y-139939788D01*
X83780109Y-139939786D01*
X83905048Y-139767820D01*
X83905047Y-139767820D01*
X83905051Y-139767816D01*
X84001557Y-139578412D01*
X84067246Y-139376243D01*
X84100500Y-139166287D01*
X84100500Y-138953713D01*
X84067246Y-138743757D01*
X84001557Y-138541588D01*
X83905051Y-138352184D01*
X83905049Y-138352181D01*
X83905048Y-138352179D01*
X83780109Y-138180213D01*
X83629786Y-138029890D01*
X83457820Y-137904951D01*
X83457115Y-137904591D01*
X83449054Y-137900485D01*
X83398259Y-137852512D01*
X83381463Y-137784692D01*
X83403999Y-137718556D01*
X83449054Y-137679515D01*
X83457816Y-137675051D01*
X83479789Y-137659086D01*
X83629786Y-137550109D01*
X83629788Y-137550106D01*
X83629792Y-137550104D01*
X83780104Y-137399792D01*
X83780106Y-137399788D01*
X83780109Y-137399786D01*
X83905048Y-137227820D01*
X83905047Y-137227820D01*
X83905051Y-137227816D01*
X84001557Y-137038412D01*
X84067246Y-136836243D01*
X84100500Y-136626287D01*
X84100500Y-136413713D01*
X84067246Y-136203757D01*
X84001557Y-136001588D01*
X83905051Y-135812184D01*
X83905049Y-135812181D01*
X83905048Y-135812179D01*
X83780109Y-135640213D01*
X83629786Y-135489890D01*
X83457820Y-135364951D01*
X83457115Y-135364591D01*
X83449054Y-135360485D01*
X83398259Y-135312512D01*
X83381463Y-135244692D01*
X83403999Y-135178556D01*
X83449054Y-135139515D01*
X83457816Y-135135051D01*
X83528769Y-135083501D01*
X83629786Y-135010109D01*
X83629788Y-135010106D01*
X83629792Y-135010104D01*
X83780104Y-134859792D01*
X83780106Y-134859788D01*
X83780109Y-134859786D01*
X83905048Y-134687820D01*
X83905047Y-134687820D01*
X83905051Y-134687816D01*
X84001557Y-134498412D01*
X84067246Y-134296243D01*
X84100500Y-134086287D01*
X84100500Y-133873713D01*
X84067246Y-133663757D01*
X84001557Y-133461588D01*
X83905051Y-133272184D01*
X83905049Y-133272181D01*
X83905048Y-133272179D01*
X83780109Y-133100213D01*
X83629786Y-132949890D01*
X83457820Y-132824951D01*
X83457115Y-132824591D01*
X83449054Y-132820485D01*
X83398259Y-132772512D01*
X83381463Y-132704692D01*
X83403999Y-132638556D01*
X83449054Y-132599515D01*
X83457816Y-132595051D01*
X83513629Y-132554501D01*
X83629786Y-132470109D01*
X83629788Y-132470106D01*
X83629792Y-132470104D01*
X83780104Y-132319792D01*
X83780106Y-132319788D01*
X83780109Y-132319786D01*
X83905048Y-132147820D01*
X83905047Y-132147820D01*
X83905051Y-132147816D01*
X84001557Y-131958412D01*
X84067246Y-131756243D01*
X84100500Y-131546287D01*
X84100500Y-131333713D01*
X84067246Y-131123757D01*
X84001557Y-130921588D01*
X83905051Y-130732184D01*
X83905049Y-130732181D01*
X83905048Y-130732179D01*
X83780109Y-130560213D01*
X83629786Y-130409890D01*
X83457820Y-130284951D01*
X83457115Y-130284591D01*
X83449054Y-130280485D01*
X83398259Y-130232512D01*
X83381463Y-130164692D01*
X83403999Y-130098556D01*
X83449054Y-130059515D01*
X83457816Y-130055051D01*
X83494760Y-130028210D01*
X83629786Y-129930109D01*
X83629788Y-129930106D01*
X83629792Y-129930104D01*
X83780104Y-129779792D01*
X83780106Y-129779788D01*
X83780109Y-129779786D01*
X83905048Y-129607820D01*
X83905047Y-129607820D01*
X83905051Y-129607816D01*
X84001557Y-129418412D01*
X84067246Y-129216243D01*
X84100500Y-129006287D01*
X84100500Y-128793713D01*
X84067246Y-128583757D01*
X84001557Y-128381588D01*
X83905051Y-128192184D01*
X83905049Y-128192181D01*
X83905048Y-128192179D01*
X83780109Y-128020213D01*
X83629786Y-127869890D01*
X83457820Y-127744951D01*
X83457115Y-127744591D01*
X83449054Y-127740485D01*
X83398259Y-127692512D01*
X83381463Y-127624692D01*
X83403999Y-127558556D01*
X83449054Y-127519515D01*
X83457816Y-127515051D01*
X83479789Y-127499086D01*
X83629786Y-127390109D01*
X83629788Y-127390106D01*
X83629792Y-127390104D01*
X83780104Y-127239792D01*
X83780106Y-127239788D01*
X83780109Y-127239786D01*
X83905048Y-127067820D01*
X83905047Y-127067820D01*
X83905051Y-127067816D01*
X84001557Y-126878412D01*
X84067246Y-126676243D01*
X84100500Y-126466287D01*
X84100500Y-126253713D01*
X84067246Y-126043757D01*
X84001557Y-125841588D01*
X83905051Y-125652184D01*
X83905049Y-125652181D01*
X83905048Y-125652179D01*
X83780109Y-125480213D01*
X83629786Y-125329890D01*
X83457820Y-125204951D01*
X83457115Y-125204591D01*
X83449054Y-125200485D01*
X83398259Y-125152512D01*
X83381463Y-125084692D01*
X83403999Y-125018556D01*
X83449054Y-124979515D01*
X83457816Y-124975051D01*
X83479789Y-124959086D01*
X83629786Y-124850109D01*
X83629788Y-124850106D01*
X83629792Y-124850104D01*
X83780104Y-124699792D01*
X83780106Y-124699788D01*
X83780109Y-124699786D01*
X83905048Y-124527820D01*
X83905047Y-124527820D01*
X83905051Y-124527816D01*
X84001557Y-124338412D01*
X84067246Y-124136243D01*
X84100500Y-123926287D01*
X84100500Y-123713713D01*
X84067246Y-123503757D01*
X84001557Y-123301588D01*
X83905051Y-123112184D01*
X83905049Y-123112181D01*
X83905048Y-123112179D01*
X83780109Y-122940213D01*
X83629786Y-122789890D01*
X83457820Y-122664951D01*
X83457115Y-122664591D01*
X83449054Y-122660485D01*
X83398259Y-122612512D01*
X83381463Y-122544692D01*
X83403999Y-122478556D01*
X83449054Y-122439515D01*
X83457816Y-122435051D01*
X83479789Y-122419086D01*
X83629786Y-122310109D01*
X83629788Y-122310106D01*
X83629792Y-122310104D01*
X83780104Y-122159792D01*
X83780106Y-122159788D01*
X83780109Y-122159786D01*
X83905048Y-121987820D01*
X83905047Y-121987820D01*
X83905051Y-121987816D01*
X84001557Y-121798412D01*
X84067246Y-121596243D01*
X84100500Y-121386287D01*
X84100500Y-121173713D01*
X84067246Y-120963757D01*
X84001557Y-120761588D01*
X83905051Y-120572184D01*
X83905049Y-120572181D01*
X83905048Y-120572179D01*
X83780109Y-120400213D01*
X83629786Y-120249890D01*
X83457820Y-120124951D01*
X83457115Y-120124591D01*
X83449054Y-120120485D01*
X83398259Y-120072512D01*
X83381463Y-120004692D01*
X83403999Y-119938556D01*
X83449054Y-119899515D01*
X83457816Y-119895051D01*
X83479789Y-119879086D01*
X83629786Y-119770109D01*
X83629788Y-119770106D01*
X83629792Y-119770104D01*
X83780104Y-119619792D01*
X83780106Y-119619788D01*
X83780109Y-119619786D01*
X83905048Y-119447820D01*
X83905047Y-119447820D01*
X83905051Y-119447816D01*
X84001557Y-119258412D01*
X84067246Y-119056243D01*
X84100500Y-118846287D01*
X84100500Y-118633713D01*
X84067246Y-118423757D01*
X84001557Y-118221588D01*
X83905051Y-118032184D01*
X83905049Y-118032181D01*
X83905048Y-118032179D01*
X83780109Y-117860213D01*
X83629786Y-117709890D01*
X83457820Y-117584951D01*
X83457115Y-117584591D01*
X83449054Y-117580485D01*
X83398259Y-117532512D01*
X83381463Y-117464692D01*
X83403999Y-117398556D01*
X83449054Y-117359515D01*
X83457816Y-117355051D01*
X83608823Y-117245339D01*
X83629786Y-117230109D01*
X83629788Y-117230106D01*
X83629792Y-117230104D01*
X83780104Y-117079792D01*
X83780106Y-117079788D01*
X83780109Y-117079786D01*
X83905048Y-116907820D01*
X83905047Y-116907820D01*
X83905051Y-116907816D01*
X84001557Y-116718412D01*
X84067246Y-116516243D01*
X84100500Y-116306287D01*
X84100500Y-116093713D01*
X84067246Y-115883757D01*
X84001557Y-115681588D01*
X83905051Y-115492184D01*
X83905049Y-115492181D01*
X83905048Y-115492179D01*
X83780109Y-115320213D01*
X83629786Y-115169890D01*
X83457820Y-115044951D01*
X83457115Y-115044591D01*
X83449054Y-115040485D01*
X83398259Y-114992512D01*
X83381463Y-114924692D01*
X83403999Y-114858556D01*
X83449054Y-114819515D01*
X83457816Y-114815051D01*
X83479789Y-114799086D01*
X83629786Y-114690109D01*
X83629788Y-114690106D01*
X83629792Y-114690104D01*
X83780104Y-114539792D01*
X83780106Y-114539788D01*
X83780109Y-114539786D01*
X83905048Y-114367820D01*
X83905047Y-114367820D01*
X83905051Y-114367816D01*
X84001557Y-114178412D01*
X84067246Y-113976243D01*
X84100500Y-113766287D01*
X84100500Y-113553713D01*
X84067246Y-113343757D01*
X84001557Y-113141588D01*
X83905051Y-112952184D01*
X83905049Y-112952181D01*
X83905048Y-112952179D01*
X83780109Y-112780213D01*
X83629786Y-112629890D01*
X83457820Y-112504951D01*
X83457115Y-112504591D01*
X83449054Y-112500485D01*
X83398259Y-112452512D01*
X83381463Y-112384692D01*
X83403999Y-112318556D01*
X83449054Y-112279515D01*
X83457816Y-112275051D01*
X83479789Y-112259086D01*
X83629786Y-112150109D01*
X83629788Y-112150106D01*
X83629792Y-112150104D01*
X83780104Y-111999792D01*
X83780106Y-111999788D01*
X83780109Y-111999786D01*
X83905048Y-111827820D01*
X83905047Y-111827820D01*
X83905051Y-111827816D01*
X84001557Y-111638412D01*
X84067246Y-111436243D01*
X84100500Y-111226287D01*
X84100500Y-111013713D01*
X84067246Y-110803757D01*
X84001557Y-110601588D01*
X83905051Y-110412184D01*
X83905049Y-110412181D01*
X83905048Y-110412179D01*
X83780109Y-110240213D01*
X83629786Y-110089890D01*
X83457820Y-109964951D01*
X83457115Y-109964591D01*
X83449054Y-109960485D01*
X83398259Y-109912512D01*
X83381463Y-109844692D01*
X83403999Y-109778556D01*
X83449054Y-109739515D01*
X83457816Y-109735051D01*
X83479789Y-109719086D01*
X83629786Y-109610109D01*
X83629788Y-109610106D01*
X83629792Y-109610104D01*
X83780104Y-109459792D01*
X83780106Y-109459788D01*
X83780109Y-109459786D01*
X83905048Y-109287820D01*
X83905047Y-109287820D01*
X83905051Y-109287816D01*
X84001557Y-109098412D01*
X84067246Y-108896243D01*
X84100500Y-108686287D01*
X84100500Y-108473713D01*
X84067246Y-108263757D01*
X84001557Y-108061588D01*
X83905051Y-107872184D01*
X83905049Y-107872181D01*
X83905048Y-107872179D01*
X83780109Y-107700213D01*
X83629786Y-107549890D01*
X83457820Y-107424951D01*
X83457115Y-107424591D01*
X83449054Y-107420485D01*
X83398259Y-107372512D01*
X83381463Y-107304692D01*
X83403999Y-107238556D01*
X83449054Y-107199515D01*
X83457816Y-107195051D01*
X83479789Y-107179086D01*
X83629786Y-107070109D01*
X83629788Y-107070106D01*
X83629792Y-107070104D01*
X83780104Y-106919792D01*
X83780106Y-106919788D01*
X83780109Y-106919786D01*
X83905048Y-106747820D01*
X83905047Y-106747820D01*
X83905051Y-106747816D01*
X84001557Y-106558412D01*
X84067246Y-106356243D01*
X84100500Y-106146287D01*
X84100500Y-105933713D01*
X84067246Y-105723757D01*
X84001557Y-105521588D01*
X83905051Y-105332184D01*
X83905049Y-105332181D01*
X83905048Y-105332179D01*
X83780109Y-105160213D01*
X83666569Y-105046673D01*
X83633084Y-104985350D01*
X83638068Y-104915658D01*
X83679940Y-104859725D01*
X83710915Y-104842810D01*
X83842331Y-104793796D01*
X83957546Y-104707546D01*
X84043796Y-104592331D01*
X84094091Y-104457483D01*
X84100500Y-104397873D01*
X84100499Y-102602128D01*
X84094091Y-102542517D01*
X84075340Y-102492244D01*
X84043797Y-102407671D01*
X84043793Y-102407664D01*
X83957547Y-102292455D01*
X83957544Y-102292452D01*
X83842335Y-102206206D01*
X83842328Y-102206202D01*
X83707482Y-102155908D01*
X83707483Y-102155908D01*
X83647883Y-102149501D01*
X83647881Y-102149500D01*
X83647873Y-102149500D01*
X83647864Y-102149500D01*
X81852129Y-102149500D01*
X81852123Y-102149501D01*
X81792516Y-102155908D01*
X81657671Y-102206202D01*
X81657664Y-102206206D01*
X81542455Y-102292452D01*
X81542452Y-102292455D01*
X81456206Y-102407664D01*
X81456202Y-102407671D01*
X81405908Y-102542517D01*
X81399501Y-102602116D01*
X81399501Y-102602123D01*
X81399500Y-102602135D01*
X81399500Y-103879191D01*
X81379815Y-103946230D01*
X81363181Y-103966872D01*
X78744727Y-106585325D01*
X78744724Y-106585328D01*
X78682949Y-106677783D01*
X78673535Y-106691872D01*
X78624499Y-106810255D01*
X78624497Y-106810261D01*
X78599500Y-106935928D01*
X78599500Y-125100846D01*
X78579815Y-125167885D01*
X78527011Y-125213640D01*
X78457853Y-125223584D01*
X78394297Y-125194559D01*
X78387819Y-125188527D01*
X78036819Y-124837527D01*
X78003334Y-124776204D01*
X78000500Y-124749846D01*
X78000500Y-117676783D01*
X77996267Y-117655507D01*
X77996267Y-117655502D01*
X77969739Y-117522138D01*
X77969738Y-117522131D01*
X77909394Y-117376449D01*
X77909392Y-117376446D01*
X77909390Y-117376442D01*
X77821789Y-117245339D01*
X77821786Y-117245335D01*
X75316100Y-114739650D01*
X75282615Y-114678327D01*
X75280165Y-114642220D01*
X75280498Y-114637987D01*
X75280500Y-114637980D01*
X75280500Y-114433276D01*
X75248477Y-114231094D01*
X75185220Y-114036409D01*
X75185218Y-114036406D01*
X75185218Y-114036404D01*
X75151503Y-113970235D01*
X75092287Y-113854018D01*
X75033134Y-113772600D01*
X74971971Y-113688414D01*
X74827213Y-113543656D01*
X74661614Y-113423343D01*
X74655006Y-113419976D01*
X74568917Y-113376111D01*
X74518123Y-113328139D01*
X74501328Y-113260318D01*
X74523865Y-113194183D01*
X74568917Y-113155144D01*
X74661610Y-113107915D01*
X74682770Y-113092541D01*
X74827213Y-112987599D01*
X74827215Y-112987596D01*
X74827219Y-112987594D01*
X74971966Y-112842847D01*
X74971968Y-112842843D01*
X74971971Y-112842841D01*
X75024732Y-112770218D01*
X75092287Y-112677238D01*
X75185220Y-112494847D01*
X75248477Y-112300162D01*
X75280500Y-112097980D01*
X75280500Y-111893276D01*
X75248477Y-111691094D01*
X75185220Y-111496409D01*
X75185218Y-111496406D01*
X75185218Y-111496404D01*
X75151503Y-111430235D01*
X75092287Y-111314018D01*
X75033134Y-111232600D01*
X74971971Y-111148414D01*
X74827213Y-111003656D01*
X74661614Y-110883343D01*
X74595085Y-110849445D01*
X74568917Y-110836111D01*
X74518123Y-110788139D01*
X74501328Y-110720318D01*
X74523865Y-110654183D01*
X74568917Y-110615144D01*
X74661610Y-110567915D01*
X74682770Y-110552541D01*
X74827213Y-110447599D01*
X74827215Y-110447596D01*
X74827219Y-110447594D01*
X74971966Y-110302847D01*
X74971968Y-110302843D01*
X74971971Y-110302841D01*
X75024732Y-110230218D01*
X75092287Y-110137238D01*
X75185220Y-109954847D01*
X75248477Y-109760162D01*
X75280500Y-109557980D01*
X75280500Y-109353276D01*
X75248477Y-109151094D01*
X75185220Y-108956409D01*
X75185218Y-108956406D01*
X75185218Y-108956404D01*
X75151503Y-108890235D01*
X75092287Y-108774018D01*
X75084556Y-108763377D01*
X74971971Y-108608414D01*
X74827213Y-108463656D01*
X74661613Y-108343343D01*
X74661612Y-108343342D01*
X74661610Y-108343341D01*
X74604653Y-108314319D01*
X74479223Y-108250409D01*
X74284534Y-108187150D01*
X74109995Y-108159506D01*
X74082352Y-108155128D01*
X73877648Y-108155128D01*
X73853329Y-108158979D01*
X73675465Y-108187150D01*
X73480776Y-108250409D01*
X73298386Y-108343343D01*
X73132786Y-108463656D01*
X72988028Y-108608414D01*
X72867715Y-108774014D01*
X72774781Y-108956404D01*
X72711522Y-109151093D01*
X72679500Y-109353276D01*
X72679500Y-109557979D01*
X72711522Y-109760162D01*
X72774781Y-109954851D01*
X72867715Y-110137241D01*
X72988028Y-110302841D01*
X73132786Y-110447599D01*
X73287749Y-110560184D01*
X73298390Y-110567915D01*
X73364477Y-110601588D01*
X73391080Y-110615143D01*
X73441876Y-110663118D01*
X73458671Y-110730939D01*
X73436134Y-110797074D01*
X73391080Y-110836113D01*
X73298386Y-110883343D01*
X73132786Y-111003656D01*
X72988028Y-111148414D01*
X72867715Y-111314014D01*
X72774781Y-111496404D01*
X72711522Y-111691093D01*
X72679500Y-111893276D01*
X72679500Y-112097979D01*
X72711522Y-112300162D01*
X72774781Y-112494851D01*
X72867715Y-112677241D01*
X72988028Y-112842841D01*
X73132786Y-112987599D01*
X73287749Y-113100184D01*
X73298390Y-113107915D01*
X73364477Y-113141588D01*
X73391080Y-113155143D01*
X73441876Y-113203118D01*
X73458671Y-113270939D01*
X73436134Y-113337074D01*
X73391080Y-113376113D01*
X73298386Y-113423343D01*
X73132786Y-113543656D01*
X72988035Y-113688407D01*
X72985252Y-113691666D01*
X72984869Y-113691915D01*
X72984680Y-113692331D01*
X72955619Y-113711006D01*
X72926742Y-113729855D01*
X72926156Y-113729941D01*
X72925902Y-113730105D01*
X72890967Y-113735128D01*
X72646874Y-113735128D01*
X72579835Y-113715443D01*
X72559193Y-113698809D01*
X72503044Y-113642660D01*
X72503040Y-113642657D01*
X72358705Y-113553629D01*
X72358699Y-113553626D01*
X72358697Y-113553625D01*
X72339908Y-113547399D01*
X72197709Y-113500279D01*
X72098346Y-113490128D01*
X71501662Y-113490128D01*
X71501644Y-113490129D01*
X71402292Y-113500278D01*
X71402289Y-113500279D01*
X71241305Y-113553624D01*
X71241294Y-113553629D01*
X71096959Y-113642657D01*
X71096955Y-113642660D01*
X70977032Y-113762583D01*
X70977029Y-113762587D01*
X70888001Y-113906922D01*
X70887996Y-113906933D01*
X70834651Y-114067918D01*
X70824500Y-114167275D01*
X70824500Y-114713965D01*
X70824501Y-114713983D01*
X70834650Y-114813335D01*
X70834651Y-114813338D01*
X70887996Y-114974322D01*
X70888001Y-114974333D01*
X70977029Y-115118668D01*
X70977032Y-115118672D01*
X71096955Y-115238595D01*
X71096959Y-115238598D01*
X71241294Y-115327626D01*
X71241297Y-115327627D01*
X71241303Y-115327631D01*
X71402292Y-115380977D01*
X71501655Y-115391128D01*
X72098344Y-115391127D01*
X72098352Y-115391126D01*
X72098355Y-115391126D01*
X72152760Y-115385568D01*
X72197708Y-115380977D01*
X72314061Y-115342421D01*
X72353064Y-115336128D01*
X72890967Y-115336128D01*
X72958006Y-115355813D01*
X72985252Y-115379590D01*
X72988035Y-115382848D01*
X73132786Y-115527599D01*
X73251810Y-115614073D01*
X73298390Y-115647915D01*
X73364477Y-115681588D01*
X73391080Y-115695143D01*
X73441876Y-115743118D01*
X73458671Y-115810939D01*
X73436134Y-115877074D01*
X73391080Y-115916113D01*
X73298386Y-115963343D01*
X73132786Y-116083656D01*
X72988028Y-116228414D01*
X72867715Y-116394014D01*
X72774781Y-116576404D01*
X72711522Y-116771093D01*
X72679500Y-116973276D01*
X72679500Y-117095820D01*
X72659815Y-117162859D01*
X72607011Y-117208614D01*
X72537853Y-117218558D01*
X72474297Y-117189533D01*
X72467819Y-117183501D01*
X57536819Y-102252501D01*
X57503334Y-102191178D01*
X57500500Y-102164820D01*
X57500500Y-101179014D01*
X57500500Y-101179012D01*
X57494086Y-101108432D01*
X57443478Y-100946022D01*
X57355472Y-100800443D01*
X57355470Y-100800441D01*
X57355469Y-100800439D01*
X57267211Y-100712181D01*
X57233726Y-100650858D01*
X57238710Y-100581166D01*
X57280582Y-100525233D01*
X57346046Y-100500816D01*
X57354892Y-100500500D01*
X73223471Y-100500500D01*
X73290510Y-100520185D01*
G37*
%TD.AperFunction*%
%TA.AperFunction,Conductor*%
G36*
X66305703Y-165930269D02*
G01*
X66312181Y-165936301D01*
X69031151Y-168655272D01*
X69031158Y-168655278D01*
X69113490Y-168710290D01*
X69113491Y-168710290D01*
X69137699Y-168726465D01*
X69256082Y-168775501D01*
X69256086Y-168775501D01*
X69256087Y-168775502D01*
X69381754Y-168800500D01*
X69381757Y-168800500D01*
X71224684Y-168800500D01*
X71272136Y-168809939D01*
X71416498Y-168869735D01*
X71416503Y-168869737D01*
X71571153Y-168900499D01*
X71571156Y-168900500D01*
X71571158Y-168900500D01*
X71728844Y-168900500D01*
X71728845Y-168900499D01*
X71883497Y-168869737D01*
X72029179Y-168809394D01*
X72160289Y-168721789D01*
X72271789Y-168610289D01*
X72359394Y-168479179D01*
X72359937Y-168477865D01*
X72360406Y-168477284D01*
X72362264Y-168473809D01*
X72362923Y-168474161D01*
X72403776Y-168423462D01*
X72470070Y-168401395D01*
X72537770Y-168418672D01*
X72585382Y-168469807D01*
X72598500Y-168525316D01*
X72598500Y-171185274D01*
X72578815Y-171252313D01*
X72562181Y-171272955D01*
X70939711Y-172895425D01*
X70892032Y-172943104D01*
X70828209Y-173006926D01*
X70740609Y-173138028D01*
X70740602Y-173138041D01*
X70680264Y-173283712D01*
X70680261Y-173283724D01*
X70649500Y-173438367D01*
X70649500Y-177067060D01*
X70629815Y-177134099D01*
X70613181Y-177154741D01*
X69929741Y-177838181D01*
X69868418Y-177871666D01*
X69842060Y-177874500D01*
X61257703Y-177874500D01*
X61190664Y-177854815D01*
X61144909Y-177802011D01*
X61134965Y-177732853D01*
X61136086Y-177726309D01*
X61150499Y-177653846D01*
X61150500Y-177653844D01*
X61150500Y-173924500D01*
X61170185Y-173857461D01*
X61222989Y-173811706D01*
X61274500Y-173800500D01*
X61353844Y-173800500D01*
X61353845Y-173800499D01*
X61508497Y-173769737D01*
X61654179Y-173709394D01*
X61785289Y-173621789D01*
X61896789Y-173510289D01*
X61984394Y-173379179D01*
X62044737Y-173233497D01*
X62058079Y-173166416D01*
X62090463Y-173104509D01*
X62091959Y-173102985D01*
X65955277Y-169239669D01*
X66026466Y-169133126D01*
X66066725Y-169035931D01*
X66075501Y-169014744D01*
X66084704Y-168968477D01*
X66100500Y-168889071D01*
X66100500Y-166023982D01*
X66120185Y-165956943D01*
X66172989Y-165911188D01*
X66242147Y-165901244D01*
X66305703Y-165930269D01*
G37*
%TD.AperFunction*%
%TA.AperFunction,Conductor*%
G36*
X71080121Y-165470185D02*
G01*
X71125876Y-165522989D01*
X71135820Y-165592147D01*
X71130788Y-165613504D01*
X71109651Y-165677290D01*
X71099500Y-165776647D01*
X71099500Y-166373337D01*
X71099501Y-166373355D01*
X71109650Y-166472707D01*
X71109651Y-166472710D01*
X71132342Y-166541186D01*
X71134744Y-166611015D01*
X71099012Y-166671056D01*
X71036492Y-166702249D01*
X70990447Y-166701808D01*
X70978843Y-166699500D01*
X70978842Y-166699500D01*
X70821158Y-166699500D01*
X70821155Y-166699500D01*
X70666510Y-166730261D01*
X70666498Y-166730264D01*
X70520827Y-166790602D01*
X70520820Y-166790606D01*
X70491928Y-166809911D01*
X70463955Y-166828602D01*
X70397279Y-166849480D01*
X70395065Y-166849500D01*
X69825154Y-166849500D01*
X69758115Y-166829815D01*
X69737473Y-166813181D01*
X68586473Y-165662181D01*
X68552988Y-165600858D01*
X68557972Y-165531166D01*
X68599844Y-165475233D01*
X68665308Y-165450816D01*
X68674154Y-165450500D01*
X71013082Y-165450500D01*
X71080121Y-165470185D01*
G37*
%TD.AperFunction*%
%TA.AperFunction,Conductor*%
G36*
X69441974Y-156983307D02*
G01*
X69468332Y-156985192D01*
X69477384Y-156991009D01*
X69484425Y-156992541D01*
X69512680Y-157013692D01*
X69596956Y-157097968D01*
X69596958Y-157097969D01*
X69596959Y-157097970D01*
X69741294Y-157186998D01*
X69741297Y-157186999D01*
X69741303Y-157187003D01*
X69902292Y-157240349D01*
X70001655Y-157250500D01*
X70575500Y-157250499D01*
X70642539Y-157270183D01*
X70688294Y-157322987D01*
X70699500Y-157374499D01*
X70699500Y-157694008D01*
X70697905Y-157710195D01*
X70698097Y-157710214D01*
X70697500Y-157716276D01*
X70697500Y-158383727D01*
X70698097Y-158389790D01*
X70697905Y-158389808D01*
X70699500Y-158405992D01*
X70699500Y-158814069D01*
X70699500Y-158814071D01*
X70699499Y-158814071D01*
X70722593Y-158930164D01*
X70724498Y-158939742D01*
X70724501Y-158939752D01*
X70739333Y-158975557D01*
X70748773Y-159023011D01*
X70748773Y-159038093D01*
X70771050Y-159150083D01*
X70779536Y-159192744D01*
X70814870Y-159278048D01*
X70822339Y-159347516D01*
X70791064Y-159409996D01*
X70730975Y-159445648D01*
X70700309Y-159449500D01*
X68404935Y-159449500D01*
X68388172Y-159444686D01*
X68371430Y-159444888D01*
X68342497Y-159431572D01*
X68339152Y-159430612D01*
X68337576Y-159429625D01*
X68279179Y-159390606D01*
X68267493Y-159385765D01*
X68258717Y-159380273D01*
X68242113Y-159361569D01*
X68222638Y-159345873D01*
X68219316Y-159335889D01*
X68212332Y-159328022D01*
X68208475Y-159303308D01*
X68200579Y-159279577D01*
X68200500Y-159275161D01*
X68200500Y-157349499D01*
X68220185Y-157282460D01*
X68272989Y-157236705D01*
X68324495Y-157225499D01*
X68873344Y-157225499D01*
X68873352Y-157225498D01*
X68873355Y-157225498D01*
X68927760Y-157219940D01*
X68972708Y-157215349D01*
X69133697Y-157162003D01*
X69278044Y-157072968D01*
X69337321Y-157013690D01*
X69345262Y-157009354D01*
X69350688Y-157002107D01*
X69375447Y-156992872D01*
X69398640Y-156980208D01*
X69407669Y-156980853D01*
X69416152Y-156977690D01*
X69441974Y-156983307D01*
G37*
%TD.AperFunction*%
%TA.AperFunction,Conductor*%
G36*
X75208753Y-156159310D02*
G01*
X75265425Y-156200177D01*
X75291006Y-156265195D01*
X75291500Y-156276247D01*
X75291500Y-157485662D01*
X75271815Y-157552701D01*
X75255185Y-157573338D01*
X75182339Y-157646185D01*
X75121015Y-157679669D01*
X75118850Y-157680120D01*
X74963508Y-157711020D01*
X74963498Y-157711023D01*
X74817827Y-157771361D01*
X74817814Y-157771368D01*
X74686711Y-157858969D01*
X74686707Y-157858972D01*
X74575213Y-157970466D01*
X74575210Y-157970470D01*
X74487609Y-158101573D01*
X74487602Y-158101586D01*
X74427264Y-158247257D01*
X74427261Y-158247269D01*
X74396500Y-158401912D01*
X74396500Y-158559605D01*
X74427261Y-158714248D01*
X74427264Y-158714260D01*
X74487602Y-158859931D01*
X74487609Y-158859944D01*
X74575210Y-158991047D01*
X74575213Y-158991051D01*
X74655411Y-159071249D01*
X74659748Y-159079193D01*
X74666997Y-159084619D01*
X74676233Y-159109381D01*
X74688896Y-159132572D01*
X74688250Y-159141600D01*
X74691414Y-159150083D01*
X74685797Y-159175905D01*
X74683912Y-159202264D01*
X74678094Y-159211316D01*
X74676563Y-159218356D01*
X74655412Y-159246611D01*
X74488841Y-159413182D01*
X74427521Y-159446666D01*
X74401162Y-159449500D01*
X72398237Y-159449500D01*
X72331198Y-159429815D01*
X72285443Y-159377011D01*
X72275499Y-159307853D01*
X72283676Y-159278048D01*
X72319010Y-159192744D01*
X72327501Y-159150053D01*
X72359884Y-159088144D01*
X72420599Y-159053569D01*
X72424882Y-159052636D01*
X72485150Y-159040649D01*
X72630832Y-158980306D01*
X72761942Y-158892701D01*
X72873442Y-158781201D01*
X72957025Y-158656109D01*
X72972429Y-158637339D01*
X73154277Y-158455493D01*
X73225466Y-158348950D01*
X73259709Y-158266279D01*
X73274501Y-158230568D01*
X73294083Y-158132127D01*
X73299500Y-158104895D01*
X73299500Y-157883809D01*
X73301094Y-157867625D01*
X73300903Y-157867607D01*
X73301500Y-157861544D01*
X73301500Y-157235515D01*
X73300903Y-157229453D01*
X73301094Y-157229434D01*
X73299500Y-157213247D01*
X73299500Y-157199499D01*
X73319185Y-157132460D01*
X73371989Y-157086705D01*
X73423500Y-157075499D01*
X73773338Y-157075499D01*
X73773344Y-157075499D01*
X73773352Y-157075498D01*
X73773355Y-157075498D01*
X73827760Y-157069940D01*
X73872708Y-157065349D01*
X74033697Y-157012003D01*
X74064713Y-156992872D01*
X74103477Y-156968962D01*
X74168575Y-156950500D01*
X74328844Y-156950500D01*
X74328845Y-156950499D01*
X74483497Y-156919737D01*
X74629179Y-156859394D01*
X74760289Y-156771789D01*
X74871789Y-156660289D01*
X74959394Y-156529179D01*
X75019737Y-156383497D01*
X75035098Y-156306272D01*
X75045883Y-156252056D01*
X75078268Y-156190145D01*
X75138984Y-156155571D01*
X75208753Y-156159310D01*
G37*
%TD.AperFunction*%
%TA.AperFunction,Conductor*%
G36*
X60443332Y-156129126D02*
G01*
X60487680Y-156157627D01*
X60636325Y-156306272D01*
X60636332Y-156306278D01*
X60731161Y-156369640D01*
X60731165Y-156369642D01*
X60742871Y-156377464D01*
X60742872Y-156377464D01*
X60742873Y-156377465D01*
X60861256Y-156426501D01*
X60861260Y-156426501D01*
X60861261Y-156426502D01*
X60986928Y-156451500D01*
X60986931Y-156451500D01*
X62873774Y-156451500D01*
X62903214Y-156460144D01*
X62933201Y-156466668D01*
X62938216Y-156470422D01*
X62940813Y-156471185D01*
X62961455Y-156487819D01*
X62969982Y-156496346D01*
X63003467Y-156557669D01*
X62998483Y-156627361D01*
X62956611Y-156683294D01*
X62951193Y-156687128D01*
X62889713Y-156728208D01*
X62889707Y-156728213D01*
X62778213Y-156839707D01*
X62778210Y-156839711D01*
X62695454Y-156963564D01*
X62641842Y-157008369D01*
X62592352Y-157018673D01*
X62566756Y-157018673D01*
X62441088Y-157043670D01*
X62441082Y-157043672D01*
X62322697Y-157092708D01*
X62216162Y-157163893D01*
X62216152Y-157163901D01*
X62191868Y-157188184D01*
X62130544Y-157221667D01*
X62104190Y-157224500D01*
X61826663Y-157224500D01*
X61826644Y-157224501D01*
X61727292Y-157234650D01*
X61727289Y-157234651D01*
X61566305Y-157287996D01*
X61566294Y-157288001D01*
X61421959Y-157377029D01*
X61421955Y-157377032D01*
X61310807Y-157488181D01*
X61283879Y-157502884D01*
X61258061Y-157519477D01*
X61251860Y-157520368D01*
X61249484Y-157521666D01*
X61223126Y-157524500D01*
X61201874Y-157524500D01*
X61134835Y-157504815D01*
X61114193Y-157488181D01*
X61003044Y-157377032D01*
X61003040Y-157377029D01*
X60858705Y-157288001D01*
X60858699Y-157287998D01*
X60858697Y-157287997D01*
X60841987Y-157282460D01*
X60697709Y-157234651D01*
X60598346Y-157224500D01*
X60001662Y-157224500D01*
X60001644Y-157224501D01*
X59902292Y-157234650D01*
X59902289Y-157234651D01*
X59741305Y-157287996D01*
X59741300Y-157287998D01*
X59689597Y-157319890D01*
X59681977Y-157321974D01*
X59676011Y-157327145D01*
X59648763Y-157331062D01*
X59622204Y-157338330D01*
X59614669Y-157335965D01*
X59606853Y-157337089D01*
X59581807Y-157325650D01*
X59555541Y-157317407D01*
X59550481Y-157311345D01*
X59543297Y-157308064D01*
X59528410Y-157284900D01*
X59510771Y-157263765D01*
X59508831Y-157254434D01*
X59505523Y-157249286D01*
X59500500Y-157214351D01*
X59500500Y-157020808D01*
X59520185Y-156953769D01*
X59536819Y-156933127D01*
X59912277Y-156557669D01*
X60312320Y-156157625D01*
X60373641Y-156124142D01*
X60443332Y-156129126D01*
G37*
%TD.AperFunction*%
%TA.AperFunction,Conductor*%
G36*
X69222231Y-134320185D02*
G01*
X69242873Y-134336819D01*
X69858984Y-134952930D01*
X69892469Y-135014253D01*
X69892920Y-135016420D01*
X69906261Y-135083489D01*
X69906264Y-135083501D01*
X69966602Y-135229172D01*
X69966609Y-135229185D01*
X70054210Y-135360288D01*
X70054213Y-135360292D01*
X70165707Y-135471786D01*
X70165711Y-135471789D01*
X70296814Y-135559390D01*
X70296827Y-135559397D01*
X70383849Y-135595442D01*
X70442503Y-135619737D01*
X70545417Y-135640208D01*
X70575691Y-135646230D01*
X70637602Y-135678615D01*
X70672176Y-135739330D01*
X70675500Y-135767847D01*
X70675500Y-142209537D01*
X70655815Y-142276576D01*
X70639181Y-142297218D01*
X70020727Y-142915671D01*
X70020726Y-142915672D01*
X69954854Y-143014259D01*
X69954853Y-143014260D01*
X69949532Y-143022222D01*
X69900500Y-143140597D01*
X69900497Y-143140607D01*
X69875500Y-143266274D01*
X69875500Y-143933724D01*
X69892495Y-144019159D01*
X69892495Y-144019161D01*
X69900497Y-144059390D01*
X69900499Y-144059398D01*
X69949535Y-144177782D01*
X70004602Y-144260196D01*
X70025480Y-144326873D01*
X70025500Y-144329086D01*
X70025500Y-149653192D01*
X70005815Y-149720231D01*
X69989181Y-149740873D01*
X68567873Y-151162181D01*
X68506550Y-151195666D01*
X68480192Y-151198500D01*
X67857752Y-151198500D01*
X67853659Y-151198903D01*
X67841508Y-151199500D01*
X67451116Y-151199500D01*
X67333542Y-151222888D01*
X67325443Y-151224499D01*
X67325442Y-151224499D01*
X67207057Y-151273535D01*
X67100518Y-151344722D01*
X67100511Y-151344728D01*
X66488338Y-151956901D01*
X66421481Y-152056962D01*
X66421479Y-152056964D01*
X66417149Y-152063443D01*
X66417146Y-152063449D01*
X66368111Y-152181830D01*
X66368109Y-152181836D01*
X66343112Y-152307503D01*
X66343112Y-152974954D01*
X66365739Y-153088702D01*
X66365740Y-153088706D01*
X66368111Y-153100627D01*
X66368112Y-153100631D01*
X66368113Y-153100632D01*
X66417144Y-153219006D01*
X66488338Y-153325556D01*
X66488339Y-153325557D01*
X66863181Y-153700398D01*
X66896666Y-153761721D01*
X66899500Y-153788079D01*
X66899500Y-157118060D01*
X66879815Y-157185099D01*
X66827011Y-157230854D01*
X66757853Y-157240798D01*
X66694297Y-157211773D01*
X66687819Y-157205741D01*
X66081962Y-156599884D01*
X66048477Y-156538561D01*
X66053461Y-156468869D01*
X66066542Y-156443311D01*
X66109389Y-156379187D01*
X66109390Y-156379184D01*
X66109394Y-156379179D01*
X66169737Y-156233497D01*
X66200500Y-156078842D01*
X66200500Y-155921158D01*
X66200500Y-155921155D01*
X66200499Y-155921153D01*
X66192506Y-155880970D01*
X66169737Y-155766503D01*
X66138193Y-155690349D01*
X66109397Y-155620828D01*
X66109396Y-155620827D01*
X66109394Y-155620821D01*
X66071396Y-155563953D01*
X66050520Y-155497276D01*
X66050500Y-155495064D01*
X66050500Y-155035928D01*
X66025502Y-154910261D01*
X66025501Y-154910260D01*
X66025501Y-154910256D01*
X65984937Y-154812328D01*
X65975499Y-154764876D01*
X65975499Y-154426662D01*
X65975498Y-154426644D01*
X65965349Y-154327292D01*
X65965348Y-154327289D01*
X65950837Y-154283497D01*
X65912003Y-154166303D01*
X65911999Y-154166297D01*
X65911998Y-154166294D01*
X65822970Y-154021959D01*
X65822967Y-154021955D01*
X65703044Y-153902032D01*
X65703040Y-153902029D01*
X65558705Y-153813001D01*
X65558699Y-153812998D01*
X65558697Y-153812997D01*
X65483499Y-153788079D01*
X65397709Y-153759651D01*
X65298352Y-153749500D01*
X65298345Y-153749500D01*
X65232940Y-153749500D01*
X65165901Y-153729815D01*
X65145259Y-153713181D01*
X64085295Y-152653216D01*
X64085294Y-152653215D01*
X64085290Y-152653212D01*
X64085289Y-152653211D01*
X64060759Y-152636820D01*
X64027633Y-152602466D01*
X64027444Y-152602617D01*
X64025921Y-152600691D01*
X64024119Y-152598822D01*
X64022967Y-152596955D01*
X64014819Y-152588807D01*
X63903044Y-152477032D01*
X63903041Y-152477030D01*
X63903040Y-152477029D01*
X63758705Y-152388001D01*
X63758699Y-152387998D01*
X63758697Y-152387997D01*
X63758694Y-152387996D01*
X63597709Y-152334651D01*
X63498346Y-152324500D01*
X62901662Y-152324500D01*
X62901644Y-152324501D01*
X62802292Y-152334650D01*
X62802289Y-152334651D01*
X62641305Y-152387996D01*
X62641294Y-152388001D01*
X62496959Y-152477029D01*
X62496955Y-152477032D01*
X62385181Y-152588807D01*
X62323858Y-152622292D01*
X62254166Y-152617308D01*
X62209819Y-152588807D01*
X62098044Y-152477032D01*
X62098040Y-152477029D01*
X61953705Y-152388001D01*
X61953699Y-152387998D01*
X61953697Y-152387997D01*
X61953694Y-152387996D01*
X61792709Y-152334651D01*
X61693352Y-152324500D01*
X61693345Y-152324500D01*
X61343500Y-152324500D01*
X61276461Y-152304815D01*
X61230706Y-152252011D01*
X61219500Y-152200500D01*
X61219500Y-137031154D01*
X61239185Y-136964115D01*
X61255819Y-136943473D01*
X63862473Y-134336819D01*
X63923796Y-134303334D01*
X63950154Y-134300500D01*
X69155192Y-134300500D01*
X69222231Y-134320185D01*
G37*
%TD.AperFunction*%
%TA.AperFunction,Conductor*%
G36*
X74902475Y-143502517D02*
G01*
X74951170Y-143552623D01*
X74965500Y-143610490D01*
X74965500Y-146420765D01*
X74945815Y-146487804D01*
X74893011Y-146533559D01*
X74823853Y-146543503D01*
X74768615Y-146521084D01*
X74661609Y-146443340D01*
X74479223Y-146350409D01*
X74284534Y-146287150D01*
X74109995Y-146259506D01*
X74082352Y-146255128D01*
X73877648Y-146255128D01*
X73811405Y-146265620D01*
X73675464Y-146287151D01*
X73636816Y-146299708D01*
X73566975Y-146301702D01*
X73507143Y-146265620D01*
X73476316Y-146202919D01*
X73474500Y-146181776D01*
X73474500Y-144391144D01*
X73476883Y-144366950D01*
X73480501Y-144348763D01*
X73480500Y-143851427D01*
X73500184Y-143784389D01*
X73552988Y-143738634D01*
X73622147Y-143728690D01*
X73642820Y-143733498D01*
X73675458Y-143744103D01*
X73675461Y-143744103D01*
X73675466Y-143744105D01*
X73877648Y-143776128D01*
X73877649Y-143776128D01*
X74082351Y-143776128D01*
X74082352Y-143776128D01*
X74284534Y-143744105D01*
X74479219Y-143680848D01*
X74661610Y-143587915D01*
X74768615Y-143510172D01*
X74834421Y-143486692D01*
X74902475Y-143502517D01*
G37*
%TD.AperFunction*%
%TA.AperFunction,Conductor*%
G36*
X75430214Y-117138186D02*
G01*
X75481265Y-117168971D01*
X76363181Y-118050887D01*
X76396666Y-118112210D01*
X76399500Y-118138568D01*
X76399500Y-125211632D01*
X76430261Y-125366275D01*
X76430264Y-125366287D01*
X76490602Y-125511958D01*
X76490609Y-125511971D01*
X76578210Y-125643074D01*
X76578213Y-125643078D01*
X78622301Y-127687166D01*
X78622305Y-127687169D01*
X78753408Y-127774770D01*
X78753412Y-127774772D01*
X78753415Y-127774774D01*
X78899097Y-127835118D01*
X79043439Y-127863828D01*
X79105347Y-127896212D01*
X79139922Y-127956927D01*
X79136183Y-128026697D01*
X79106927Y-128073126D01*
X76344727Y-130835325D01*
X76344726Y-130835326D01*
X76287090Y-130921587D01*
X76287088Y-130921590D01*
X76273536Y-130941870D01*
X76273533Y-130941875D01*
X76224499Y-131060255D01*
X76224497Y-131060261D01*
X76199500Y-131185928D01*
X76199500Y-131542876D01*
X76198903Y-131555029D01*
X76198500Y-131559121D01*
X76198500Y-133204571D01*
X76178815Y-133271610D01*
X76162181Y-133292252D01*
X75942727Y-133511705D01*
X75942724Y-133511708D01*
X75890780Y-133589448D01*
X75890781Y-133589449D01*
X75871534Y-133618254D01*
X75822499Y-133736635D01*
X75822497Y-133736641D01*
X75797500Y-133862308D01*
X75797500Y-135507761D01*
X75777815Y-135574800D01*
X75761181Y-135595442D01*
X75291727Y-136064895D01*
X75291726Y-136064896D01*
X75291723Y-136064901D01*
X75251148Y-136125628D01*
X75242801Y-136138120D01*
X75242799Y-136138122D01*
X75220539Y-136171434D01*
X75220533Y-136171445D01*
X75171499Y-136289825D01*
X75171497Y-136289831D01*
X75146500Y-136415498D01*
X75146500Y-136423581D01*
X75126815Y-136490620D01*
X75074011Y-136536375D01*
X75004853Y-136546319D01*
X74941297Y-136517294D01*
X74934819Y-136511262D01*
X74827213Y-136403656D01*
X74661614Y-136283343D01*
X74655006Y-136279976D01*
X74568917Y-136236111D01*
X74518123Y-136188139D01*
X74501328Y-136120318D01*
X74523865Y-136054183D01*
X74568917Y-136015144D01*
X74661610Y-135967915D01*
X74738809Y-135911827D01*
X74827213Y-135847599D01*
X74827215Y-135847596D01*
X74827219Y-135847594D01*
X74971966Y-135702847D01*
X74971968Y-135702843D01*
X74971971Y-135702841D01*
X75032350Y-135619735D01*
X75092287Y-135537238D01*
X75185220Y-135354847D01*
X75248477Y-135160162D01*
X75280500Y-134957980D01*
X75280500Y-134753276D01*
X75248477Y-134551094D01*
X75185220Y-134356409D01*
X75185218Y-134356406D01*
X75185218Y-134356404D01*
X75151503Y-134290235D01*
X75092287Y-134174018D01*
X75084556Y-134163377D01*
X74971971Y-134008414D01*
X74827213Y-133863656D01*
X74661613Y-133743343D01*
X74661612Y-133743342D01*
X74661610Y-133743341D01*
X74604653Y-133714319D01*
X74479223Y-133650409D01*
X74284534Y-133587150D01*
X74109995Y-133559506D01*
X74082352Y-133555128D01*
X73877648Y-133555128D01*
X73853329Y-133558979D01*
X73675465Y-133587150D01*
X73480776Y-133650409D01*
X73298390Y-133743340D01*
X73175385Y-133832708D01*
X73109578Y-133856187D01*
X73041524Y-133840361D01*
X72992830Y-133790255D01*
X72978500Y-133732389D01*
X72978500Y-130898866D01*
X72998185Y-130831827D01*
X73050989Y-130786072D01*
X73120147Y-130776128D01*
X73175385Y-130798548D01*
X73282539Y-130876399D01*
X73298390Y-130887915D01*
X73404292Y-130941875D01*
X73480776Y-130980846D01*
X73480778Y-130980846D01*
X73480781Y-130980848D01*
X73585137Y-131014755D01*
X73675465Y-131044105D01*
X73776557Y-131060116D01*
X73877648Y-131076128D01*
X73877649Y-131076128D01*
X74082351Y-131076128D01*
X74082352Y-131076128D01*
X74284534Y-131044105D01*
X74479219Y-130980848D01*
X74661610Y-130887915D01*
X74784614Y-130798548D01*
X74827213Y-130767599D01*
X74827215Y-130767596D01*
X74827219Y-130767594D01*
X74971966Y-130622847D01*
X74971968Y-130622843D01*
X74971971Y-130622841D01*
X75024732Y-130550218D01*
X75092287Y-130457238D01*
X75185220Y-130274847D01*
X75248477Y-130080162D01*
X75280500Y-129877980D01*
X75280500Y-129673276D01*
X75248477Y-129471094D01*
X75185220Y-129276409D01*
X75185218Y-129276406D01*
X75185218Y-129276404D01*
X75151503Y-129210235D01*
X75092287Y-129094018D01*
X75084556Y-129083377D01*
X74971971Y-128928414D01*
X74827213Y-128783656D01*
X74661614Y-128663343D01*
X74655006Y-128659976D01*
X74568917Y-128616111D01*
X74518123Y-128568139D01*
X74501328Y-128500318D01*
X74523865Y-128434183D01*
X74568917Y-128395144D01*
X74661610Y-128347915D01*
X74738809Y-128291827D01*
X74827213Y-128227599D01*
X74827215Y-128227596D01*
X74827219Y-128227594D01*
X74971966Y-128082847D01*
X74971968Y-128082843D01*
X74971971Y-128082841D01*
X75063451Y-127956927D01*
X75092287Y-127917238D01*
X75185220Y-127734847D01*
X75248477Y-127540162D01*
X75280500Y-127337980D01*
X75280500Y-127133276D01*
X75248477Y-126931094D01*
X75185220Y-126736409D01*
X75185218Y-126736406D01*
X75185218Y-126736404D01*
X75151503Y-126670235D01*
X75092287Y-126554018D01*
X75084556Y-126543377D01*
X74971971Y-126388414D01*
X74827213Y-126243656D01*
X74661614Y-126123343D01*
X74655006Y-126119976D01*
X74568917Y-126076111D01*
X74518123Y-126028139D01*
X74501328Y-125960318D01*
X74523865Y-125894183D01*
X74568917Y-125855144D01*
X74661610Y-125807915D01*
X74738809Y-125751827D01*
X74827213Y-125687599D01*
X74827215Y-125687596D01*
X74827219Y-125687594D01*
X74971966Y-125542847D01*
X74971968Y-125542843D01*
X74971971Y-125542841D01*
X75075598Y-125400208D01*
X75092287Y-125377238D01*
X75185220Y-125194847D01*
X75248477Y-125000162D01*
X75280500Y-124797980D01*
X75280500Y-124593276D01*
X75248477Y-124391094D01*
X75185220Y-124196409D01*
X75185218Y-124196406D01*
X75185218Y-124196404D01*
X75151503Y-124130235D01*
X75092287Y-124014018D01*
X75033134Y-123932600D01*
X74971971Y-123848414D01*
X74827213Y-123703656D01*
X74661614Y-123583343D01*
X74655006Y-123579976D01*
X74568917Y-123536111D01*
X74518123Y-123488139D01*
X74501328Y-123420318D01*
X74523865Y-123354183D01*
X74568917Y-123315144D01*
X74661610Y-123267915D01*
X74738809Y-123211827D01*
X74827213Y-123147599D01*
X74827215Y-123147596D01*
X74827219Y-123147594D01*
X74971966Y-123002847D01*
X74971968Y-123002843D01*
X74971971Y-123002841D01*
X75024732Y-122930218D01*
X75092287Y-122837238D01*
X75185220Y-122654847D01*
X75248477Y-122460162D01*
X75280500Y-122257980D01*
X75280500Y-122053276D01*
X75248477Y-121851094D01*
X75185220Y-121656409D01*
X75185218Y-121656406D01*
X75185218Y-121656404D01*
X75151503Y-121590235D01*
X75092287Y-121474018D01*
X75033134Y-121392600D01*
X74971971Y-121308414D01*
X74827213Y-121163656D01*
X74661613Y-121043343D01*
X74661612Y-121043342D01*
X74661610Y-121043341D01*
X74608947Y-121016508D01*
X74576245Y-120999845D01*
X74525449Y-120951870D01*
X74508654Y-120884049D01*
X74531192Y-120817914D01*
X74574083Y-120780004D01*
X74639783Y-120744887D01*
X74770811Y-120657337D01*
X74847412Y-120594471D01*
X74958843Y-120483040D01*
X75021709Y-120406439D01*
X75109259Y-120275411D01*
X75155972Y-120188017D01*
X75216278Y-120042426D01*
X75245044Y-119947596D01*
X75275787Y-119793038D01*
X75285500Y-119694421D01*
X75285500Y-119536835D01*
X75275787Y-119438218D01*
X75245044Y-119283660D01*
X75216278Y-119188830D01*
X75155972Y-119043239D01*
X75109259Y-118955845D01*
X75094116Y-118933182D01*
X75021721Y-118824834D01*
X75021712Y-118824822D01*
X75021709Y-118824817D01*
X74958843Y-118748216D01*
X74847412Y-118636785D01*
X74770811Y-118573919D01*
X74770804Y-118573914D01*
X74770793Y-118573906D01*
X74639799Y-118486379D01*
X74639788Y-118486372D01*
X74639783Y-118486369D01*
X74617645Y-118474536D01*
X74574086Y-118451253D01*
X74524242Y-118402290D01*
X74508782Y-118334152D01*
X74532614Y-118268473D01*
X74576246Y-118231410D01*
X74595523Y-118221588D01*
X74661610Y-118187915D01*
X74729531Y-118138568D01*
X74827213Y-118067599D01*
X74827215Y-118067596D01*
X74827219Y-118067594D01*
X74971966Y-117922847D01*
X74971968Y-117922843D01*
X74971971Y-117922841D01*
X75024732Y-117850218D01*
X75092287Y-117757238D01*
X75185220Y-117574847D01*
X75248477Y-117380162D01*
X75271111Y-117237253D01*
X75301040Y-117174120D01*
X75360351Y-117137188D01*
X75430214Y-117138186D01*
G37*
%TD.AperFunction*%
%TD*%
M02*
