%TF.GenerationSoftware,KiCad,Pcbnew,9.0.6*%
%TF.CreationDate,2026-03-18T15:19:40-04:00*%
%TF.ProjectId,CONTROL,434f4e54-524f-44c2-9e6b-696361645f70,rev?*%
%TF.SameCoordinates,Original*%
%TF.FileFunction,Legend,Bot*%
%TF.FilePolarity,Positive*%
%FSLAX46Y46*%
G04 Gerber Fmt 4.6, Leading zero omitted, Abs format (unit mm)*
G04 Created by KiCad (PCBNEW 9.0.6) date 2026-03-18 15:19:40*
%MOMM*%
%LPD*%
G01*
G04 APERTURE LIST*
%ADD10C,0.200000*%
%ADD11C,0.150000*%
%ADD12C,0.120000*%
G04 APERTURE END LIST*
D10*
X64058898Y-173502092D02*
X64106517Y-173549712D01*
X64106517Y-173549712D02*
X64249374Y-173597331D01*
X64249374Y-173597331D02*
X64344612Y-173597331D01*
X64344612Y-173597331D02*
X64487469Y-173549712D01*
X64487469Y-173549712D02*
X64582707Y-173454473D01*
X64582707Y-173454473D02*
X64630326Y-173359235D01*
X64630326Y-173359235D02*
X64677945Y-173168759D01*
X64677945Y-173168759D02*
X64677945Y-173025902D01*
X64677945Y-173025902D02*
X64630326Y-172835426D01*
X64630326Y-172835426D02*
X64582707Y-172740188D01*
X64582707Y-172740188D02*
X64487469Y-172644950D01*
X64487469Y-172644950D02*
X64344612Y-172597331D01*
X64344612Y-172597331D02*
X64249374Y-172597331D01*
X64249374Y-172597331D02*
X64106517Y-172644950D01*
X64106517Y-172644950D02*
X64058898Y-172692569D01*
X63439850Y-172597331D02*
X63249374Y-172597331D01*
X63249374Y-172597331D02*
X63154136Y-172644950D01*
X63154136Y-172644950D02*
X63058898Y-172740188D01*
X63058898Y-172740188D02*
X63011279Y-172930664D01*
X63011279Y-172930664D02*
X63011279Y-173263997D01*
X63011279Y-173263997D02*
X63058898Y-173454473D01*
X63058898Y-173454473D02*
X63154136Y-173549712D01*
X63154136Y-173549712D02*
X63249374Y-173597331D01*
X63249374Y-173597331D02*
X63439850Y-173597331D01*
X63439850Y-173597331D02*
X63535088Y-173549712D01*
X63535088Y-173549712D02*
X63630326Y-173454473D01*
X63630326Y-173454473D02*
X63677945Y-173263997D01*
X63677945Y-173263997D02*
X63677945Y-172930664D01*
X63677945Y-172930664D02*
X63630326Y-172740188D01*
X63630326Y-172740188D02*
X63535088Y-172644950D01*
X63535088Y-172644950D02*
X63439850Y-172597331D01*
X62582707Y-173597331D02*
X62582707Y-172597331D01*
X62582707Y-172597331D02*
X62011279Y-173597331D01*
X62011279Y-173597331D02*
X62011279Y-172597331D01*
X61677945Y-172597331D02*
X61106517Y-172597331D01*
X61392231Y-173597331D02*
X61392231Y-172597331D01*
X60201755Y-173597331D02*
X60535088Y-173121140D01*
X60773183Y-173597331D02*
X60773183Y-172597331D01*
X60773183Y-172597331D02*
X60392231Y-172597331D01*
X60392231Y-172597331D02*
X60296993Y-172644950D01*
X60296993Y-172644950D02*
X60249374Y-172692569D01*
X60249374Y-172692569D02*
X60201755Y-172787807D01*
X60201755Y-172787807D02*
X60201755Y-172930664D01*
X60201755Y-172930664D02*
X60249374Y-173025902D01*
X60249374Y-173025902D02*
X60296993Y-173073521D01*
X60296993Y-173073521D02*
X60392231Y-173121140D01*
X60392231Y-173121140D02*
X60773183Y-173121140D01*
X59582707Y-172597331D02*
X59392231Y-172597331D01*
X59392231Y-172597331D02*
X59296993Y-172644950D01*
X59296993Y-172644950D02*
X59201755Y-172740188D01*
X59201755Y-172740188D02*
X59154136Y-172930664D01*
X59154136Y-172930664D02*
X59154136Y-173263997D01*
X59154136Y-173263997D02*
X59201755Y-173454473D01*
X59201755Y-173454473D02*
X59296993Y-173549712D01*
X59296993Y-173549712D02*
X59392231Y-173597331D01*
X59392231Y-173597331D02*
X59582707Y-173597331D01*
X59582707Y-173597331D02*
X59677945Y-173549712D01*
X59677945Y-173549712D02*
X59773183Y-173454473D01*
X59773183Y-173454473D02*
X59820802Y-173263997D01*
X59820802Y-173263997D02*
X59820802Y-172930664D01*
X59820802Y-172930664D02*
X59773183Y-172740188D01*
X59773183Y-172740188D02*
X59677945Y-172644950D01*
X59677945Y-172644950D02*
X59582707Y-172597331D01*
X58249374Y-173597331D02*
X58725564Y-173597331D01*
X58725564Y-173597331D02*
X58725564Y-172597331D01*
X56820802Y-173073521D02*
X56677945Y-173121140D01*
X56677945Y-173121140D02*
X56630326Y-173168759D01*
X56630326Y-173168759D02*
X56582707Y-173263997D01*
X56582707Y-173263997D02*
X56582707Y-173406854D01*
X56582707Y-173406854D02*
X56630326Y-173502092D01*
X56630326Y-173502092D02*
X56677945Y-173549712D01*
X56677945Y-173549712D02*
X56773183Y-173597331D01*
X56773183Y-173597331D02*
X57154135Y-173597331D01*
X57154135Y-173597331D02*
X57154135Y-172597331D01*
X57154135Y-172597331D02*
X56820802Y-172597331D01*
X56820802Y-172597331D02*
X56725564Y-172644950D01*
X56725564Y-172644950D02*
X56677945Y-172692569D01*
X56677945Y-172692569D02*
X56630326Y-172787807D01*
X56630326Y-172787807D02*
X56630326Y-172883045D01*
X56630326Y-172883045D02*
X56677945Y-172978283D01*
X56677945Y-172978283D02*
X56725564Y-173025902D01*
X56725564Y-173025902D02*
X56820802Y-173073521D01*
X56820802Y-173073521D02*
X57154135Y-173073521D01*
X55963659Y-172597331D02*
X55773183Y-172597331D01*
X55773183Y-172597331D02*
X55677945Y-172644950D01*
X55677945Y-172644950D02*
X55582707Y-172740188D01*
X55582707Y-172740188D02*
X55535088Y-172930664D01*
X55535088Y-172930664D02*
X55535088Y-173263997D01*
X55535088Y-173263997D02*
X55582707Y-173454473D01*
X55582707Y-173454473D02*
X55677945Y-173549712D01*
X55677945Y-173549712D02*
X55773183Y-173597331D01*
X55773183Y-173597331D02*
X55963659Y-173597331D01*
X55963659Y-173597331D02*
X56058897Y-173549712D01*
X56058897Y-173549712D02*
X56154135Y-173454473D01*
X56154135Y-173454473D02*
X56201754Y-173263997D01*
X56201754Y-173263997D02*
X56201754Y-172930664D01*
X56201754Y-172930664D02*
X56154135Y-172740188D01*
X56154135Y-172740188D02*
X56058897Y-172644950D01*
X56058897Y-172644950D02*
X55963659Y-172597331D01*
X55154135Y-173311616D02*
X54677945Y-173311616D01*
X55249373Y-173597331D02*
X54916040Y-172597331D01*
X54916040Y-172597331D02*
X54582707Y-173597331D01*
X53677945Y-173597331D02*
X54011278Y-173121140D01*
X54249373Y-173597331D02*
X54249373Y-172597331D01*
X54249373Y-172597331D02*
X53868421Y-172597331D01*
X53868421Y-172597331D02*
X53773183Y-172644950D01*
X53773183Y-172644950D02*
X53725564Y-172692569D01*
X53725564Y-172692569D02*
X53677945Y-172787807D01*
X53677945Y-172787807D02*
X53677945Y-172930664D01*
X53677945Y-172930664D02*
X53725564Y-173025902D01*
X53725564Y-173025902D02*
X53773183Y-173073521D01*
X53773183Y-173073521D02*
X53868421Y-173121140D01*
X53868421Y-173121140D02*
X54249373Y-173121140D01*
X53249373Y-173597331D02*
X53249373Y-172597331D01*
X53249373Y-172597331D02*
X53011278Y-172597331D01*
X53011278Y-172597331D02*
X52868421Y-172644950D01*
X52868421Y-172644950D02*
X52773183Y-172740188D01*
X52773183Y-172740188D02*
X52725564Y-172835426D01*
X52725564Y-172835426D02*
X52677945Y-173025902D01*
X52677945Y-173025902D02*
X52677945Y-173168759D01*
X52677945Y-173168759D02*
X52725564Y-173359235D01*
X52725564Y-173359235D02*
X52773183Y-173454473D01*
X52773183Y-173454473D02*
X52868421Y-173549712D01*
X52868421Y-173549712D02*
X53011278Y-173597331D01*
X53011278Y-173597331D02*
X53249373Y-173597331D01*
X64058898Y-175207275D02*
X64392231Y-174731084D01*
X64630326Y-175207275D02*
X64630326Y-174207275D01*
X64630326Y-174207275D02*
X64249374Y-174207275D01*
X64249374Y-174207275D02*
X64154136Y-174254894D01*
X64154136Y-174254894D02*
X64106517Y-174302513D01*
X64106517Y-174302513D02*
X64058898Y-174397751D01*
X64058898Y-174397751D02*
X64058898Y-174540608D01*
X64058898Y-174540608D02*
X64106517Y-174635846D01*
X64106517Y-174635846D02*
X64154136Y-174683465D01*
X64154136Y-174683465D02*
X64249374Y-174731084D01*
X64249374Y-174731084D02*
X64630326Y-174731084D01*
X63630326Y-174683465D02*
X63296993Y-174683465D01*
X63154136Y-175207275D02*
X63630326Y-175207275D01*
X63630326Y-175207275D02*
X63630326Y-174207275D01*
X63630326Y-174207275D02*
X63154136Y-174207275D01*
X62868421Y-174207275D02*
X62535088Y-175207275D01*
X62535088Y-175207275D02*
X62201755Y-174207275D01*
X61344612Y-175207275D02*
X61916040Y-175207275D01*
X61630326Y-175207275D02*
X61630326Y-174207275D01*
X61630326Y-174207275D02*
X61725564Y-174350132D01*
X61725564Y-174350132D02*
X61820802Y-174445370D01*
X61820802Y-174445370D02*
X61916040Y-174492989D01*
X59963659Y-174207275D02*
X59868421Y-174207275D01*
X59868421Y-174207275D02*
X59773183Y-174254894D01*
X59773183Y-174254894D02*
X59725564Y-174302513D01*
X59725564Y-174302513D02*
X59677945Y-174397751D01*
X59677945Y-174397751D02*
X59630326Y-174588227D01*
X59630326Y-174588227D02*
X59630326Y-174826322D01*
X59630326Y-174826322D02*
X59677945Y-175016798D01*
X59677945Y-175016798D02*
X59725564Y-175112036D01*
X59725564Y-175112036D02*
X59773183Y-175159656D01*
X59773183Y-175159656D02*
X59868421Y-175207275D01*
X59868421Y-175207275D02*
X59963659Y-175207275D01*
X59963659Y-175207275D02*
X60058897Y-175159656D01*
X60058897Y-175159656D02*
X60106516Y-175112036D01*
X60106516Y-175112036D02*
X60154135Y-175016798D01*
X60154135Y-175016798D02*
X60201754Y-174826322D01*
X60201754Y-174826322D02*
X60201754Y-174588227D01*
X60201754Y-174588227D02*
X60154135Y-174397751D01*
X60154135Y-174397751D02*
X60106516Y-174302513D01*
X60106516Y-174302513D02*
X60058897Y-174254894D01*
X60058897Y-174254894D02*
X59963659Y-174207275D01*
X59296992Y-174207275D02*
X58677945Y-174207275D01*
X58677945Y-174207275D02*
X59011278Y-174588227D01*
X59011278Y-174588227D02*
X58868421Y-174588227D01*
X58868421Y-174588227D02*
X58773183Y-174635846D01*
X58773183Y-174635846D02*
X58725564Y-174683465D01*
X58725564Y-174683465D02*
X58677945Y-174778703D01*
X58677945Y-174778703D02*
X58677945Y-175016798D01*
X58677945Y-175016798D02*
X58725564Y-175112036D01*
X58725564Y-175112036D02*
X58773183Y-175159656D01*
X58773183Y-175159656D02*
X58868421Y-175207275D01*
X58868421Y-175207275D02*
X59154135Y-175207275D01*
X59154135Y-175207275D02*
X59249373Y-175159656D01*
X59249373Y-175159656D02*
X59296992Y-175112036D01*
X57535088Y-174159656D02*
X58392230Y-175445370D01*
X57249373Y-174302513D02*
X57201754Y-174254894D01*
X57201754Y-174254894D02*
X57106516Y-174207275D01*
X57106516Y-174207275D02*
X56868421Y-174207275D01*
X56868421Y-174207275D02*
X56773183Y-174254894D01*
X56773183Y-174254894D02*
X56725564Y-174302513D01*
X56725564Y-174302513D02*
X56677945Y-174397751D01*
X56677945Y-174397751D02*
X56677945Y-174492989D01*
X56677945Y-174492989D02*
X56725564Y-174635846D01*
X56725564Y-174635846D02*
X57296992Y-175207275D01*
X57296992Y-175207275D02*
X56677945Y-175207275D01*
X56058897Y-174207275D02*
X55963659Y-174207275D01*
X55963659Y-174207275D02*
X55868421Y-174254894D01*
X55868421Y-174254894D02*
X55820802Y-174302513D01*
X55820802Y-174302513D02*
X55773183Y-174397751D01*
X55773183Y-174397751D02*
X55725564Y-174588227D01*
X55725564Y-174588227D02*
X55725564Y-174826322D01*
X55725564Y-174826322D02*
X55773183Y-175016798D01*
X55773183Y-175016798D02*
X55820802Y-175112036D01*
X55820802Y-175112036D02*
X55868421Y-175159656D01*
X55868421Y-175159656D02*
X55963659Y-175207275D01*
X55963659Y-175207275D02*
X56058897Y-175207275D01*
X56058897Y-175207275D02*
X56154135Y-175159656D01*
X56154135Y-175159656D02*
X56201754Y-175112036D01*
X56201754Y-175112036D02*
X56249373Y-175016798D01*
X56249373Y-175016798D02*
X56296992Y-174826322D01*
X56296992Y-174826322D02*
X56296992Y-174588227D01*
X56296992Y-174588227D02*
X56249373Y-174397751D01*
X56249373Y-174397751D02*
X56201754Y-174302513D01*
X56201754Y-174302513D02*
X56154135Y-174254894D01*
X56154135Y-174254894D02*
X56058897Y-174207275D01*
X55344611Y-174302513D02*
X55296992Y-174254894D01*
X55296992Y-174254894D02*
X55201754Y-174207275D01*
X55201754Y-174207275D02*
X54963659Y-174207275D01*
X54963659Y-174207275D02*
X54868421Y-174254894D01*
X54868421Y-174254894D02*
X54820802Y-174302513D01*
X54820802Y-174302513D02*
X54773183Y-174397751D01*
X54773183Y-174397751D02*
X54773183Y-174492989D01*
X54773183Y-174492989D02*
X54820802Y-174635846D01*
X54820802Y-174635846D02*
X55392230Y-175207275D01*
X55392230Y-175207275D02*
X54773183Y-175207275D01*
X53916040Y-174207275D02*
X54106516Y-174207275D01*
X54106516Y-174207275D02*
X54201754Y-174254894D01*
X54201754Y-174254894D02*
X54249373Y-174302513D01*
X54249373Y-174302513D02*
X54344611Y-174445370D01*
X54344611Y-174445370D02*
X54392230Y-174635846D01*
X54392230Y-174635846D02*
X54392230Y-175016798D01*
X54392230Y-175016798D02*
X54344611Y-175112036D01*
X54344611Y-175112036D02*
X54296992Y-175159656D01*
X54296992Y-175159656D02*
X54201754Y-175207275D01*
X54201754Y-175207275D02*
X54011278Y-175207275D01*
X54011278Y-175207275D02*
X53916040Y-175159656D01*
X53916040Y-175159656D02*
X53868421Y-175112036D01*
X53868421Y-175112036D02*
X53820802Y-175016798D01*
X53820802Y-175016798D02*
X53820802Y-174778703D01*
X53820802Y-174778703D02*
X53868421Y-174683465D01*
X53868421Y-174683465D02*
X53916040Y-174635846D01*
X53916040Y-174635846D02*
X54011278Y-174588227D01*
X54011278Y-174588227D02*
X54201754Y-174588227D01*
X54201754Y-174588227D02*
X54296992Y-174635846D01*
X54296992Y-174635846D02*
X54344611Y-174683465D01*
X54344611Y-174683465D02*
X54392230Y-174778703D01*
X64296993Y-176293409D02*
X64154136Y-176341028D01*
X64154136Y-176341028D02*
X64106517Y-176388647D01*
X64106517Y-176388647D02*
X64058898Y-176483885D01*
X64058898Y-176483885D02*
X64058898Y-176626742D01*
X64058898Y-176626742D02*
X64106517Y-176721980D01*
X64106517Y-176721980D02*
X64154136Y-176769600D01*
X64154136Y-176769600D02*
X64249374Y-176817219D01*
X64249374Y-176817219D02*
X64630326Y-176817219D01*
X64630326Y-176817219D02*
X64630326Y-175817219D01*
X64630326Y-175817219D02*
X64296993Y-175817219D01*
X64296993Y-175817219D02*
X64201755Y-175864838D01*
X64201755Y-175864838D02*
X64154136Y-175912457D01*
X64154136Y-175912457D02*
X64106517Y-176007695D01*
X64106517Y-176007695D02*
X64106517Y-176102933D01*
X64106517Y-176102933D02*
X64154136Y-176198171D01*
X64154136Y-176198171D02*
X64201755Y-176245790D01*
X64201755Y-176245790D02*
X64296993Y-176293409D01*
X64296993Y-176293409D02*
X64630326Y-176293409D01*
X63725564Y-176150552D02*
X63487469Y-176817219D01*
X63249374Y-176150552D02*
X63487469Y-176817219D01*
X63487469Y-176817219D02*
X63582707Y-177055314D01*
X63582707Y-177055314D02*
X63630326Y-177102933D01*
X63630326Y-177102933D02*
X63725564Y-177150552D01*
X62154135Y-176769600D02*
X62011278Y-176817219D01*
X62011278Y-176817219D02*
X61773183Y-176817219D01*
X61773183Y-176817219D02*
X61677945Y-176769600D01*
X61677945Y-176769600D02*
X61630326Y-176721980D01*
X61630326Y-176721980D02*
X61582707Y-176626742D01*
X61582707Y-176626742D02*
X61582707Y-176531504D01*
X61582707Y-176531504D02*
X61630326Y-176436266D01*
X61630326Y-176436266D02*
X61677945Y-176388647D01*
X61677945Y-176388647D02*
X61773183Y-176341028D01*
X61773183Y-176341028D02*
X61963659Y-176293409D01*
X61963659Y-176293409D02*
X62058897Y-176245790D01*
X62058897Y-176245790D02*
X62106516Y-176198171D01*
X62106516Y-176198171D02*
X62154135Y-176102933D01*
X62154135Y-176102933D02*
X62154135Y-176007695D01*
X62154135Y-176007695D02*
X62106516Y-175912457D01*
X62106516Y-175912457D02*
X62058897Y-175864838D01*
X62058897Y-175864838D02*
X61963659Y-175817219D01*
X61963659Y-175817219D02*
X61725564Y-175817219D01*
X61725564Y-175817219D02*
X61582707Y-175864838D01*
X60725564Y-176817219D02*
X60725564Y-176293409D01*
X60725564Y-176293409D02*
X60773183Y-176198171D01*
X60773183Y-176198171D02*
X60868421Y-176150552D01*
X60868421Y-176150552D02*
X61058897Y-176150552D01*
X61058897Y-176150552D02*
X61154135Y-176198171D01*
X60725564Y-176769600D02*
X60820802Y-176817219D01*
X60820802Y-176817219D02*
X61058897Y-176817219D01*
X61058897Y-176817219D02*
X61154135Y-176769600D01*
X61154135Y-176769600D02*
X61201754Y-176674361D01*
X61201754Y-176674361D02*
X61201754Y-176579123D01*
X61201754Y-176579123D02*
X61154135Y-176483885D01*
X61154135Y-176483885D02*
X61058897Y-176436266D01*
X61058897Y-176436266D02*
X60820802Y-176436266D01*
X60820802Y-176436266D02*
X60725564Y-176388647D01*
X60249373Y-176817219D02*
X60249373Y-176150552D01*
X60249373Y-176245790D02*
X60201754Y-176198171D01*
X60201754Y-176198171D02*
X60106516Y-176150552D01*
X60106516Y-176150552D02*
X59963659Y-176150552D01*
X59963659Y-176150552D02*
X59868421Y-176198171D01*
X59868421Y-176198171D02*
X59820802Y-176293409D01*
X59820802Y-176293409D02*
X59820802Y-176817219D01*
X59820802Y-176293409D02*
X59773183Y-176198171D01*
X59773183Y-176198171D02*
X59677945Y-176150552D01*
X59677945Y-176150552D02*
X59535088Y-176150552D01*
X59535088Y-176150552D02*
X59439849Y-176198171D01*
X59439849Y-176198171D02*
X59392230Y-176293409D01*
X59392230Y-176293409D02*
X59392230Y-176817219D01*
X58487469Y-176817219D02*
X58487469Y-176293409D01*
X58487469Y-176293409D02*
X58535088Y-176198171D01*
X58535088Y-176198171D02*
X58630326Y-176150552D01*
X58630326Y-176150552D02*
X58820802Y-176150552D01*
X58820802Y-176150552D02*
X58916040Y-176198171D01*
X58487469Y-176769600D02*
X58582707Y-176817219D01*
X58582707Y-176817219D02*
X58820802Y-176817219D01*
X58820802Y-176817219D02*
X58916040Y-176769600D01*
X58916040Y-176769600D02*
X58963659Y-176674361D01*
X58963659Y-176674361D02*
X58963659Y-176579123D01*
X58963659Y-176579123D02*
X58916040Y-176483885D01*
X58916040Y-176483885D02*
X58820802Y-176436266D01*
X58820802Y-176436266D02*
X58582707Y-176436266D01*
X58582707Y-176436266D02*
X58487469Y-176388647D01*
X58011278Y-176150552D02*
X58011278Y-176817219D01*
X58011278Y-176245790D02*
X57963659Y-176198171D01*
X57963659Y-176198171D02*
X57868421Y-176150552D01*
X57868421Y-176150552D02*
X57725564Y-176150552D01*
X57725564Y-176150552D02*
X57630326Y-176198171D01*
X57630326Y-176198171D02*
X57582707Y-176293409D01*
X57582707Y-176293409D02*
X57582707Y-176817219D01*
X57249373Y-176150552D02*
X56868421Y-176150552D01*
X57106516Y-175817219D02*
X57106516Y-176674361D01*
X57106516Y-176674361D02*
X57058897Y-176769600D01*
X57058897Y-176769600D02*
X56963659Y-176817219D01*
X56963659Y-176817219D02*
X56868421Y-176817219D01*
X56535087Y-176817219D02*
X56535087Y-175817219D01*
X56106516Y-176817219D02*
X56106516Y-176293409D01*
X56106516Y-176293409D02*
X56154135Y-176198171D01*
X56154135Y-176198171D02*
X56249373Y-176150552D01*
X56249373Y-176150552D02*
X56392230Y-176150552D01*
X56392230Y-176150552D02*
X56487468Y-176198171D01*
X56487468Y-176198171D02*
X56535087Y-176245790D01*
X55201754Y-176817219D02*
X55201754Y-176293409D01*
X55201754Y-176293409D02*
X55249373Y-176198171D01*
X55249373Y-176198171D02*
X55344611Y-176150552D01*
X55344611Y-176150552D02*
X55535087Y-176150552D01*
X55535087Y-176150552D02*
X55630325Y-176198171D01*
X55201754Y-176769600D02*
X55296992Y-176817219D01*
X55296992Y-176817219D02*
X55535087Y-176817219D01*
X55535087Y-176817219D02*
X55630325Y-176769600D01*
X55630325Y-176769600D02*
X55677944Y-176674361D01*
X55677944Y-176674361D02*
X55677944Y-176579123D01*
X55677944Y-176579123D02*
X55630325Y-176483885D01*
X55630325Y-176483885D02*
X55535087Y-176436266D01*
X55535087Y-176436266D02*
X55296992Y-176436266D01*
X55296992Y-176436266D02*
X55201754Y-176388647D01*
X53392230Y-176721980D02*
X53439849Y-176769600D01*
X53439849Y-176769600D02*
X53582706Y-176817219D01*
X53582706Y-176817219D02*
X53677944Y-176817219D01*
X53677944Y-176817219D02*
X53820801Y-176769600D01*
X53820801Y-176769600D02*
X53916039Y-176674361D01*
X53916039Y-176674361D02*
X53963658Y-176579123D01*
X53963658Y-176579123D02*
X54011277Y-176388647D01*
X54011277Y-176388647D02*
X54011277Y-176245790D01*
X54011277Y-176245790D02*
X53963658Y-176055314D01*
X53963658Y-176055314D02*
X53916039Y-175960076D01*
X53916039Y-175960076D02*
X53820801Y-175864838D01*
X53820801Y-175864838D02*
X53677944Y-175817219D01*
X53677944Y-175817219D02*
X53582706Y-175817219D01*
X53582706Y-175817219D02*
X53439849Y-175864838D01*
X53439849Y-175864838D02*
X53392230Y-175912457D01*
X52963658Y-176817219D02*
X52963658Y-175817219D01*
X52535087Y-176817219D02*
X52535087Y-176293409D01*
X52535087Y-176293409D02*
X52582706Y-176198171D01*
X52582706Y-176198171D02*
X52677944Y-176150552D01*
X52677944Y-176150552D02*
X52820801Y-176150552D01*
X52820801Y-176150552D02*
X52916039Y-176198171D01*
X52916039Y-176198171D02*
X52963658Y-176245790D01*
X51916039Y-176817219D02*
X52011277Y-176769600D01*
X52011277Y-176769600D02*
X52058896Y-176721980D01*
X52058896Y-176721980D02*
X52106515Y-176626742D01*
X52106515Y-176626742D02*
X52106515Y-176341028D01*
X52106515Y-176341028D02*
X52058896Y-176245790D01*
X52058896Y-176245790D02*
X52011277Y-176198171D01*
X52011277Y-176198171D02*
X51916039Y-176150552D01*
X51916039Y-176150552D02*
X51773182Y-176150552D01*
X51773182Y-176150552D02*
X51677944Y-176198171D01*
X51677944Y-176198171D02*
X51630325Y-176245790D01*
X51630325Y-176245790D02*
X51582706Y-176341028D01*
X51582706Y-176341028D02*
X51582706Y-176626742D01*
X51582706Y-176626742D02*
X51630325Y-176721980D01*
X51630325Y-176721980D02*
X51677944Y-176769600D01*
X51677944Y-176769600D02*
X51773182Y-176817219D01*
X51773182Y-176817219D02*
X51916039Y-176817219D01*
X51154134Y-176150552D02*
X51154134Y-176817219D01*
X51154134Y-176245790D02*
X51106515Y-176198171D01*
X51106515Y-176198171D02*
X51011277Y-176150552D01*
X51011277Y-176150552D02*
X50868420Y-176150552D01*
X50868420Y-176150552D02*
X50773182Y-176198171D01*
X50773182Y-176198171D02*
X50725563Y-176293409D01*
X50725563Y-176293409D02*
X50725563Y-176817219D01*
X49820801Y-176150552D02*
X49820801Y-176960076D01*
X49820801Y-176960076D02*
X49868420Y-177055314D01*
X49868420Y-177055314D02*
X49916039Y-177102933D01*
X49916039Y-177102933D02*
X50011277Y-177150552D01*
X50011277Y-177150552D02*
X50154134Y-177150552D01*
X50154134Y-177150552D02*
X50249372Y-177102933D01*
X49820801Y-176769600D02*
X49916039Y-176817219D01*
X49916039Y-176817219D02*
X50106515Y-176817219D01*
X50106515Y-176817219D02*
X50201753Y-176769600D01*
X50201753Y-176769600D02*
X50249372Y-176721980D01*
X50249372Y-176721980D02*
X50296991Y-176626742D01*
X50296991Y-176626742D02*
X50296991Y-176341028D01*
X50296991Y-176341028D02*
X50249372Y-176245790D01*
X50249372Y-176245790D02*
X50201753Y-176198171D01*
X50201753Y-176198171D02*
X50106515Y-176150552D01*
X50106515Y-176150552D02*
X49916039Y-176150552D01*
X49916039Y-176150552D02*
X49820801Y-176198171D01*
D11*
X60138333Y-154681009D02*
X60471666Y-154681009D01*
X60471666Y-155204819D02*
X60471666Y-154204819D01*
X60471666Y-154204819D02*
X59995476Y-154204819D01*
X59281190Y-154681009D02*
X59138333Y-154728628D01*
X59138333Y-154728628D02*
X59090714Y-154776247D01*
X59090714Y-154776247D02*
X59043095Y-154871485D01*
X59043095Y-154871485D02*
X59043095Y-155014342D01*
X59043095Y-155014342D02*
X59090714Y-155109580D01*
X59090714Y-155109580D02*
X59138333Y-155157200D01*
X59138333Y-155157200D02*
X59233571Y-155204819D01*
X59233571Y-155204819D02*
X59614523Y-155204819D01*
X59614523Y-155204819D02*
X59614523Y-154204819D01*
X59614523Y-154204819D02*
X59281190Y-154204819D01*
X59281190Y-154204819D02*
X59185952Y-154252438D01*
X59185952Y-154252438D02*
X59138333Y-154300057D01*
X59138333Y-154300057D02*
X59090714Y-154395295D01*
X59090714Y-154395295D02*
X59090714Y-154490533D01*
X59090714Y-154490533D02*
X59138333Y-154585771D01*
X59138333Y-154585771D02*
X59185952Y-154633390D01*
X59185952Y-154633390D02*
X59281190Y-154681009D01*
X59281190Y-154681009D02*
X59614523Y-154681009D01*
X58090714Y-155204819D02*
X58662142Y-155204819D01*
X58376428Y-155204819D02*
X58376428Y-154204819D01*
X58376428Y-154204819D02*
X58471666Y-154347676D01*
X58471666Y-154347676D02*
X58566904Y-154442914D01*
X58566904Y-154442914D02*
X58662142Y-154490533D01*
X49866666Y-174329819D02*
X50199999Y-173853628D01*
X50438094Y-174329819D02*
X50438094Y-173329819D01*
X50438094Y-173329819D02*
X50057142Y-173329819D01*
X50057142Y-173329819D02*
X49961904Y-173377438D01*
X49961904Y-173377438D02*
X49914285Y-173425057D01*
X49914285Y-173425057D02*
X49866666Y-173520295D01*
X49866666Y-173520295D02*
X49866666Y-173663152D01*
X49866666Y-173663152D02*
X49914285Y-173758390D01*
X49914285Y-173758390D02*
X49961904Y-173806009D01*
X49961904Y-173806009D02*
X50057142Y-173853628D01*
X50057142Y-173853628D02*
X50438094Y-173853628D01*
X49009523Y-173663152D02*
X49009523Y-174329819D01*
X49247618Y-173282200D02*
X49485713Y-173996485D01*
X49485713Y-173996485D02*
X48866666Y-173996485D01*
X64467857Y-161684580D02*
X64515476Y-161732200D01*
X64515476Y-161732200D02*
X64658333Y-161779819D01*
X64658333Y-161779819D02*
X64753571Y-161779819D01*
X64753571Y-161779819D02*
X64896428Y-161732200D01*
X64896428Y-161732200D02*
X64991666Y-161636961D01*
X64991666Y-161636961D02*
X65039285Y-161541723D01*
X65039285Y-161541723D02*
X65086904Y-161351247D01*
X65086904Y-161351247D02*
X65086904Y-161208390D01*
X65086904Y-161208390D02*
X65039285Y-161017914D01*
X65039285Y-161017914D02*
X64991666Y-160922676D01*
X64991666Y-160922676D02*
X64896428Y-160827438D01*
X64896428Y-160827438D02*
X64753571Y-160779819D01*
X64753571Y-160779819D02*
X64658333Y-160779819D01*
X64658333Y-160779819D02*
X64515476Y-160827438D01*
X64515476Y-160827438D02*
X64467857Y-160875057D01*
X64086904Y-160875057D02*
X64039285Y-160827438D01*
X64039285Y-160827438D02*
X63944047Y-160779819D01*
X63944047Y-160779819D02*
X63705952Y-160779819D01*
X63705952Y-160779819D02*
X63610714Y-160827438D01*
X63610714Y-160827438D02*
X63563095Y-160875057D01*
X63563095Y-160875057D02*
X63515476Y-160970295D01*
X63515476Y-160970295D02*
X63515476Y-161065533D01*
X63515476Y-161065533D02*
X63563095Y-161208390D01*
X63563095Y-161208390D02*
X64134523Y-161779819D01*
X64134523Y-161779819D02*
X63515476Y-161779819D01*
X62896428Y-160779819D02*
X62801190Y-160779819D01*
X62801190Y-160779819D02*
X62705952Y-160827438D01*
X62705952Y-160827438D02*
X62658333Y-160875057D01*
X62658333Y-160875057D02*
X62610714Y-160970295D01*
X62610714Y-160970295D02*
X62563095Y-161160771D01*
X62563095Y-161160771D02*
X62563095Y-161398866D01*
X62563095Y-161398866D02*
X62610714Y-161589342D01*
X62610714Y-161589342D02*
X62658333Y-161684580D01*
X62658333Y-161684580D02*
X62705952Y-161732200D01*
X62705952Y-161732200D02*
X62801190Y-161779819D01*
X62801190Y-161779819D02*
X62896428Y-161779819D01*
X62896428Y-161779819D02*
X62991666Y-161732200D01*
X62991666Y-161732200D02*
X63039285Y-161684580D01*
X63039285Y-161684580D02*
X63086904Y-161589342D01*
X63086904Y-161589342D02*
X63134523Y-161398866D01*
X63134523Y-161398866D02*
X63134523Y-161160771D01*
X63134523Y-161160771D02*
X63086904Y-160970295D01*
X63086904Y-160970295D02*
X63039285Y-160875057D01*
X63039285Y-160875057D02*
X62991666Y-160827438D01*
X62991666Y-160827438D02*
X62896428Y-160779819D01*
X62441666Y-159959580D02*
X62489285Y-160007200D01*
X62489285Y-160007200D02*
X62632142Y-160054819D01*
X62632142Y-160054819D02*
X62727380Y-160054819D01*
X62727380Y-160054819D02*
X62870237Y-160007200D01*
X62870237Y-160007200D02*
X62965475Y-159911961D01*
X62965475Y-159911961D02*
X63013094Y-159816723D01*
X63013094Y-159816723D02*
X63060713Y-159626247D01*
X63060713Y-159626247D02*
X63060713Y-159483390D01*
X63060713Y-159483390D02*
X63013094Y-159292914D01*
X63013094Y-159292914D02*
X62965475Y-159197676D01*
X62965475Y-159197676D02*
X62870237Y-159102438D01*
X62870237Y-159102438D02*
X62727380Y-159054819D01*
X62727380Y-159054819D02*
X62632142Y-159054819D01*
X62632142Y-159054819D02*
X62489285Y-159102438D01*
X62489285Y-159102438D02*
X62441666Y-159150057D01*
X62060713Y-159150057D02*
X62013094Y-159102438D01*
X62013094Y-159102438D02*
X61917856Y-159054819D01*
X61917856Y-159054819D02*
X61679761Y-159054819D01*
X61679761Y-159054819D02*
X61584523Y-159102438D01*
X61584523Y-159102438D02*
X61536904Y-159150057D01*
X61536904Y-159150057D02*
X61489285Y-159245295D01*
X61489285Y-159245295D02*
X61489285Y-159340533D01*
X61489285Y-159340533D02*
X61536904Y-159483390D01*
X61536904Y-159483390D02*
X62108332Y-160054819D01*
X62108332Y-160054819D02*
X61489285Y-160054819D01*
X80191666Y-155254819D02*
X80524999Y-154778628D01*
X80763094Y-155254819D02*
X80763094Y-154254819D01*
X80763094Y-154254819D02*
X80382142Y-154254819D01*
X80382142Y-154254819D02*
X80286904Y-154302438D01*
X80286904Y-154302438D02*
X80239285Y-154350057D01*
X80239285Y-154350057D02*
X80191666Y-154445295D01*
X80191666Y-154445295D02*
X80191666Y-154588152D01*
X80191666Y-154588152D02*
X80239285Y-154683390D01*
X80239285Y-154683390D02*
X80286904Y-154731009D01*
X80286904Y-154731009D02*
X80382142Y-154778628D01*
X80382142Y-154778628D02*
X80763094Y-154778628D01*
X79858332Y-154254819D02*
X79239285Y-154254819D01*
X79239285Y-154254819D02*
X79572618Y-154635771D01*
X79572618Y-154635771D02*
X79429761Y-154635771D01*
X79429761Y-154635771D02*
X79334523Y-154683390D01*
X79334523Y-154683390D02*
X79286904Y-154731009D01*
X79286904Y-154731009D02*
X79239285Y-154826247D01*
X79239285Y-154826247D02*
X79239285Y-155064342D01*
X79239285Y-155064342D02*
X79286904Y-155159580D01*
X79286904Y-155159580D02*
X79334523Y-155207200D01*
X79334523Y-155207200D02*
X79429761Y-155254819D01*
X79429761Y-155254819D02*
X79715475Y-155254819D01*
X79715475Y-155254819D02*
X79810713Y-155207200D01*
X79810713Y-155207200D02*
X79858332Y-155159580D01*
X65966666Y-156534580D02*
X66014285Y-156582200D01*
X66014285Y-156582200D02*
X66157142Y-156629819D01*
X66157142Y-156629819D02*
X66252380Y-156629819D01*
X66252380Y-156629819D02*
X66395237Y-156582200D01*
X66395237Y-156582200D02*
X66490475Y-156486961D01*
X66490475Y-156486961D02*
X66538094Y-156391723D01*
X66538094Y-156391723D02*
X66585713Y-156201247D01*
X66585713Y-156201247D02*
X66585713Y-156058390D01*
X66585713Y-156058390D02*
X66538094Y-155867914D01*
X66538094Y-155867914D02*
X66490475Y-155772676D01*
X66490475Y-155772676D02*
X66395237Y-155677438D01*
X66395237Y-155677438D02*
X66252380Y-155629819D01*
X66252380Y-155629819D02*
X66157142Y-155629819D01*
X66157142Y-155629819D02*
X66014285Y-155677438D01*
X66014285Y-155677438D02*
X65966666Y-155725057D01*
X65633332Y-155629819D02*
X64966666Y-155629819D01*
X64966666Y-155629819D02*
X65395237Y-156629819D01*
X61506666Y-150759580D02*
X61554285Y-150807200D01*
X61554285Y-150807200D02*
X61697142Y-150854819D01*
X61697142Y-150854819D02*
X61792380Y-150854819D01*
X61792380Y-150854819D02*
X61935237Y-150807200D01*
X61935237Y-150807200D02*
X62030475Y-150711961D01*
X62030475Y-150711961D02*
X62078094Y-150616723D01*
X62078094Y-150616723D02*
X62125713Y-150426247D01*
X62125713Y-150426247D02*
X62125713Y-150283390D01*
X62125713Y-150283390D02*
X62078094Y-150092914D01*
X62078094Y-150092914D02*
X62030475Y-149997676D01*
X62030475Y-149997676D02*
X61935237Y-149902438D01*
X61935237Y-149902438D02*
X61792380Y-149854819D01*
X61792380Y-149854819D02*
X61697142Y-149854819D01*
X61697142Y-149854819D02*
X61554285Y-149902438D01*
X61554285Y-149902438D02*
X61506666Y-149950057D01*
X61030475Y-150854819D02*
X60839999Y-150854819D01*
X60839999Y-150854819D02*
X60744761Y-150807200D01*
X60744761Y-150807200D02*
X60697142Y-150759580D01*
X60697142Y-150759580D02*
X60601904Y-150616723D01*
X60601904Y-150616723D02*
X60554285Y-150426247D01*
X60554285Y-150426247D02*
X60554285Y-150045295D01*
X60554285Y-150045295D02*
X60601904Y-149950057D01*
X60601904Y-149950057D02*
X60649523Y-149902438D01*
X60649523Y-149902438D02*
X60744761Y-149854819D01*
X60744761Y-149854819D02*
X60935237Y-149854819D01*
X60935237Y-149854819D02*
X61030475Y-149902438D01*
X61030475Y-149902438D02*
X61078094Y-149950057D01*
X61078094Y-149950057D02*
X61125713Y-150045295D01*
X61125713Y-150045295D02*
X61125713Y-150283390D01*
X61125713Y-150283390D02*
X61078094Y-150378628D01*
X61078094Y-150378628D02*
X61030475Y-150426247D01*
X61030475Y-150426247D02*
X60935237Y-150473866D01*
X60935237Y-150473866D02*
X60744761Y-150473866D01*
X60744761Y-150473866D02*
X60649523Y-150426247D01*
X60649523Y-150426247D02*
X60601904Y-150378628D01*
X60601904Y-150378628D02*
X60554285Y-150283390D01*
X60466666Y-159959580D02*
X60514285Y-160007200D01*
X60514285Y-160007200D02*
X60657142Y-160054819D01*
X60657142Y-160054819D02*
X60752380Y-160054819D01*
X60752380Y-160054819D02*
X60895237Y-160007200D01*
X60895237Y-160007200D02*
X60990475Y-159911961D01*
X60990475Y-159911961D02*
X61038094Y-159816723D01*
X61038094Y-159816723D02*
X61085713Y-159626247D01*
X61085713Y-159626247D02*
X61085713Y-159483390D01*
X61085713Y-159483390D02*
X61038094Y-159292914D01*
X61038094Y-159292914D02*
X60990475Y-159197676D01*
X60990475Y-159197676D02*
X60895237Y-159102438D01*
X60895237Y-159102438D02*
X60752380Y-159054819D01*
X60752380Y-159054819D02*
X60657142Y-159054819D01*
X60657142Y-159054819D02*
X60514285Y-159102438D01*
X60514285Y-159102438D02*
X60466666Y-159150057D01*
X59609523Y-159054819D02*
X59799999Y-159054819D01*
X59799999Y-159054819D02*
X59895237Y-159102438D01*
X59895237Y-159102438D02*
X59942856Y-159150057D01*
X59942856Y-159150057D02*
X60038094Y-159292914D01*
X60038094Y-159292914D02*
X60085713Y-159483390D01*
X60085713Y-159483390D02*
X60085713Y-159864342D01*
X60085713Y-159864342D02*
X60038094Y-159959580D01*
X60038094Y-159959580D02*
X59990475Y-160007200D01*
X59990475Y-160007200D02*
X59895237Y-160054819D01*
X59895237Y-160054819D02*
X59704761Y-160054819D01*
X59704761Y-160054819D02*
X59609523Y-160007200D01*
X59609523Y-160007200D02*
X59561904Y-159959580D01*
X59561904Y-159959580D02*
X59514285Y-159864342D01*
X59514285Y-159864342D02*
X59514285Y-159626247D01*
X59514285Y-159626247D02*
X59561904Y-159531009D01*
X59561904Y-159531009D02*
X59609523Y-159483390D01*
X59609523Y-159483390D02*
X59704761Y-159435771D01*
X59704761Y-159435771D02*
X59895237Y-159435771D01*
X59895237Y-159435771D02*
X59990475Y-159483390D01*
X59990475Y-159483390D02*
X60038094Y-159531009D01*
X60038094Y-159531009D02*
X60085713Y-159626247D01*
X77092857Y-165004819D02*
X77426190Y-164528628D01*
X77664285Y-165004819D02*
X77664285Y-164004819D01*
X77664285Y-164004819D02*
X77283333Y-164004819D01*
X77283333Y-164004819D02*
X77188095Y-164052438D01*
X77188095Y-164052438D02*
X77140476Y-164100057D01*
X77140476Y-164100057D02*
X77092857Y-164195295D01*
X77092857Y-164195295D02*
X77092857Y-164338152D01*
X77092857Y-164338152D02*
X77140476Y-164433390D01*
X77140476Y-164433390D02*
X77188095Y-164481009D01*
X77188095Y-164481009D02*
X77283333Y-164528628D01*
X77283333Y-164528628D02*
X77664285Y-164528628D01*
X76140476Y-165004819D02*
X76711904Y-165004819D01*
X76426190Y-165004819D02*
X76426190Y-164004819D01*
X76426190Y-164004819D02*
X76521428Y-164147676D01*
X76521428Y-164147676D02*
X76616666Y-164242914D01*
X76616666Y-164242914D02*
X76711904Y-164290533D01*
X75521428Y-164004819D02*
X75426190Y-164004819D01*
X75426190Y-164004819D02*
X75330952Y-164052438D01*
X75330952Y-164052438D02*
X75283333Y-164100057D01*
X75283333Y-164100057D02*
X75235714Y-164195295D01*
X75235714Y-164195295D02*
X75188095Y-164385771D01*
X75188095Y-164385771D02*
X75188095Y-164623866D01*
X75188095Y-164623866D02*
X75235714Y-164814342D01*
X75235714Y-164814342D02*
X75283333Y-164909580D01*
X75283333Y-164909580D02*
X75330952Y-164957200D01*
X75330952Y-164957200D02*
X75426190Y-165004819D01*
X75426190Y-165004819D02*
X75521428Y-165004819D01*
X75521428Y-165004819D02*
X75616666Y-164957200D01*
X75616666Y-164957200D02*
X75664285Y-164909580D01*
X75664285Y-164909580D02*
X75711904Y-164814342D01*
X75711904Y-164814342D02*
X75759523Y-164623866D01*
X75759523Y-164623866D02*
X75759523Y-164385771D01*
X75759523Y-164385771D02*
X75711904Y-164195295D01*
X75711904Y-164195295D02*
X75664285Y-164100057D01*
X75664285Y-164100057D02*
X75616666Y-164052438D01*
X75616666Y-164052438D02*
X75521428Y-164004819D01*
X71441666Y-165004580D02*
X71489285Y-165052200D01*
X71489285Y-165052200D02*
X71632142Y-165099819D01*
X71632142Y-165099819D02*
X71727380Y-165099819D01*
X71727380Y-165099819D02*
X71870237Y-165052200D01*
X71870237Y-165052200D02*
X71965475Y-164956961D01*
X71965475Y-164956961D02*
X72013094Y-164861723D01*
X72013094Y-164861723D02*
X72060713Y-164671247D01*
X72060713Y-164671247D02*
X72060713Y-164528390D01*
X72060713Y-164528390D02*
X72013094Y-164337914D01*
X72013094Y-164337914D02*
X71965475Y-164242676D01*
X71965475Y-164242676D02*
X71870237Y-164147438D01*
X71870237Y-164147438D02*
X71727380Y-164099819D01*
X71727380Y-164099819D02*
X71632142Y-164099819D01*
X71632142Y-164099819D02*
X71489285Y-164147438D01*
X71489285Y-164147438D02*
X71441666Y-164195057D01*
X70584523Y-164433152D02*
X70584523Y-165099819D01*
X70822618Y-164052200D02*
X71060713Y-164766485D01*
X71060713Y-164766485D02*
X70441666Y-164766485D01*
X73641666Y-155159580D02*
X73689285Y-155207200D01*
X73689285Y-155207200D02*
X73832142Y-155254819D01*
X73832142Y-155254819D02*
X73927380Y-155254819D01*
X73927380Y-155254819D02*
X74070237Y-155207200D01*
X74070237Y-155207200D02*
X74165475Y-155111961D01*
X74165475Y-155111961D02*
X74213094Y-155016723D01*
X74213094Y-155016723D02*
X74260713Y-154826247D01*
X74260713Y-154826247D02*
X74260713Y-154683390D01*
X74260713Y-154683390D02*
X74213094Y-154492914D01*
X74213094Y-154492914D02*
X74165475Y-154397676D01*
X74165475Y-154397676D02*
X74070237Y-154302438D01*
X74070237Y-154302438D02*
X73927380Y-154254819D01*
X73927380Y-154254819D02*
X73832142Y-154254819D01*
X73832142Y-154254819D02*
X73689285Y-154302438D01*
X73689285Y-154302438D02*
X73641666Y-154350057D01*
X72736904Y-154254819D02*
X73213094Y-154254819D01*
X73213094Y-154254819D02*
X73260713Y-154731009D01*
X73260713Y-154731009D02*
X73213094Y-154683390D01*
X73213094Y-154683390D02*
X73117856Y-154635771D01*
X73117856Y-154635771D02*
X72879761Y-154635771D01*
X72879761Y-154635771D02*
X72784523Y-154683390D01*
X72784523Y-154683390D02*
X72736904Y-154731009D01*
X72736904Y-154731009D02*
X72689285Y-154826247D01*
X72689285Y-154826247D02*
X72689285Y-155064342D01*
X72689285Y-155064342D02*
X72736904Y-155159580D01*
X72736904Y-155159580D02*
X72784523Y-155207200D01*
X72784523Y-155207200D02*
X72879761Y-155254819D01*
X72879761Y-155254819D02*
X73117856Y-155254819D01*
X73117856Y-155254819D02*
X73213094Y-155207200D01*
X73213094Y-155207200D02*
X73260713Y-155159580D01*
X63411666Y-150759580D02*
X63459285Y-150807200D01*
X63459285Y-150807200D02*
X63602142Y-150854819D01*
X63602142Y-150854819D02*
X63697380Y-150854819D01*
X63697380Y-150854819D02*
X63840237Y-150807200D01*
X63840237Y-150807200D02*
X63935475Y-150711961D01*
X63935475Y-150711961D02*
X63983094Y-150616723D01*
X63983094Y-150616723D02*
X64030713Y-150426247D01*
X64030713Y-150426247D02*
X64030713Y-150283390D01*
X64030713Y-150283390D02*
X63983094Y-150092914D01*
X63983094Y-150092914D02*
X63935475Y-149997676D01*
X63935475Y-149997676D02*
X63840237Y-149902438D01*
X63840237Y-149902438D02*
X63697380Y-149854819D01*
X63697380Y-149854819D02*
X63602142Y-149854819D01*
X63602142Y-149854819D02*
X63459285Y-149902438D01*
X63459285Y-149902438D02*
X63411666Y-149950057D01*
X62840237Y-150283390D02*
X62935475Y-150235771D01*
X62935475Y-150235771D02*
X62983094Y-150188152D01*
X62983094Y-150188152D02*
X63030713Y-150092914D01*
X63030713Y-150092914D02*
X63030713Y-150045295D01*
X63030713Y-150045295D02*
X62983094Y-149950057D01*
X62983094Y-149950057D02*
X62935475Y-149902438D01*
X62935475Y-149902438D02*
X62840237Y-149854819D01*
X62840237Y-149854819D02*
X62649761Y-149854819D01*
X62649761Y-149854819D02*
X62554523Y-149902438D01*
X62554523Y-149902438D02*
X62506904Y-149950057D01*
X62506904Y-149950057D02*
X62459285Y-150045295D01*
X62459285Y-150045295D02*
X62459285Y-150092914D01*
X62459285Y-150092914D02*
X62506904Y-150188152D01*
X62506904Y-150188152D02*
X62554523Y-150235771D01*
X62554523Y-150235771D02*
X62649761Y-150283390D01*
X62649761Y-150283390D02*
X62840237Y-150283390D01*
X62840237Y-150283390D02*
X62935475Y-150331009D01*
X62935475Y-150331009D02*
X62983094Y-150378628D01*
X62983094Y-150378628D02*
X63030713Y-150473866D01*
X63030713Y-150473866D02*
X63030713Y-150664342D01*
X63030713Y-150664342D02*
X62983094Y-150759580D01*
X62983094Y-150759580D02*
X62935475Y-150807200D01*
X62935475Y-150807200D02*
X62840237Y-150854819D01*
X62840237Y-150854819D02*
X62649761Y-150854819D01*
X62649761Y-150854819D02*
X62554523Y-150807200D01*
X62554523Y-150807200D02*
X62506904Y-150759580D01*
X62506904Y-150759580D02*
X62459285Y-150664342D01*
X62459285Y-150664342D02*
X62459285Y-150473866D01*
X62459285Y-150473866D02*
X62506904Y-150378628D01*
X62506904Y-150378628D02*
X62554523Y-150331009D01*
X62554523Y-150331009D02*
X62649761Y-150283390D01*
X77166666Y-168504819D02*
X77499999Y-168028628D01*
X77738094Y-168504819D02*
X77738094Y-167504819D01*
X77738094Y-167504819D02*
X77357142Y-167504819D01*
X77357142Y-167504819D02*
X77261904Y-167552438D01*
X77261904Y-167552438D02*
X77214285Y-167600057D01*
X77214285Y-167600057D02*
X77166666Y-167695295D01*
X77166666Y-167695295D02*
X77166666Y-167838152D01*
X77166666Y-167838152D02*
X77214285Y-167933390D01*
X77214285Y-167933390D02*
X77261904Y-167981009D01*
X77261904Y-167981009D02*
X77357142Y-168028628D01*
X77357142Y-168028628D02*
X77738094Y-168028628D01*
X76595237Y-167933390D02*
X76690475Y-167885771D01*
X76690475Y-167885771D02*
X76738094Y-167838152D01*
X76738094Y-167838152D02*
X76785713Y-167742914D01*
X76785713Y-167742914D02*
X76785713Y-167695295D01*
X76785713Y-167695295D02*
X76738094Y-167600057D01*
X76738094Y-167600057D02*
X76690475Y-167552438D01*
X76690475Y-167552438D02*
X76595237Y-167504819D01*
X76595237Y-167504819D02*
X76404761Y-167504819D01*
X76404761Y-167504819D02*
X76309523Y-167552438D01*
X76309523Y-167552438D02*
X76261904Y-167600057D01*
X76261904Y-167600057D02*
X76214285Y-167695295D01*
X76214285Y-167695295D02*
X76214285Y-167742914D01*
X76214285Y-167742914D02*
X76261904Y-167838152D01*
X76261904Y-167838152D02*
X76309523Y-167885771D01*
X76309523Y-167885771D02*
X76404761Y-167933390D01*
X76404761Y-167933390D02*
X76595237Y-167933390D01*
X76595237Y-167933390D02*
X76690475Y-167981009D01*
X76690475Y-167981009D02*
X76738094Y-168028628D01*
X76738094Y-168028628D02*
X76785713Y-168123866D01*
X76785713Y-168123866D02*
X76785713Y-168314342D01*
X76785713Y-168314342D02*
X76738094Y-168409580D01*
X76738094Y-168409580D02*
X76690475Y-168457200D01*
X76690475Y-168457200D02*
X76595237Y-168504819D01*
X76595237Y-168504819D02*
X76404761Y-168504819D01*
X76404761Y-168504819D02*
X76309523Y-168457200D01*
X76309523Y-168457200D02*
X76261904Y-168409580D01*
X76261904Y-168409580D02*
X76214285Y-168314342D01*
X76214285Y-168314342D02*
X76214285Y-168123866D01*
X76214285Y-168123866D02*
X76261904Y-168028628D01*
X76261904Y-168028628D02*
X76309523Y-167981009D01*
X76309523Y-167981009D02*
X76404761Y-167933390D01*
X80166666Y-146748069D02*
X80499999Y-146271878D01*
X80738094Y-146748069D02*
X80738094Y-145748069D01*
X80738094Y-145748069D02*
X80357142Y-145748069D01*
X80357142Y-145748069D02*
X80261904Y-145795688D01*
X80261904Y-145795688D02*
X80214285Y-145843307D01*
X80214285Y-145843307D02*
X80166666Y-145938545D01*
X80166666Y-145938545D02*
X80166666Y-146081402D01*
X80166666Y-146081402D02*
X80214285Y-146176640D01*
X80214285Y-146176640D02*
X80261904Y-146224259D01*
X80261904Y-146224259D02*
X80357142Y-146271878D01*
X80357142Y-146271878D02*
X80738094Y-146271878D01*
X79785713Y-145843307D02*
X79738094Y-145795688D01*
X79738094Y-145795688D02*
X79642856Y-145748069D01*
X79642856Y-145748069D02*
X79404761Y-145748069D01*
X79404761Y-145748069D02*
X79309523Y-145795688D01*
X79309523Y-145795688D02*
X79261904Y-145843307D01*
X79261904Y-145843307D02*
X79214285Y-145938545D01*
X79214285Y-145938545D02*
X79214285Y-146033783D01*
X79214285Y-146033783D02*
X79261904Y-146176640D01*
X79261904Y-146176640D02*
X79833332Y-146748069D01*
X79833332Y-146748069D02*
X79214285Y-146748069D01*
X49866666Y-166829819D02*
X50199999Y-166353628D01*
X50438094Y-166829819D02*
X50438094Y-165829819D01*
X50438094Y-165829819D02*
X50057142Y-165829819D01*
X50057142Y-165829819D02*
X49961904Y-165877438D01*
X49961904Y-165877438D02*
X49914285Y-165925057D01*
X49914285Y-165925057D02*
X49866666Y-166020295D01*
X49866666Y-166020295D02*
X49866666Y-166163152D01*
X49866666Y-166163152D02*
X49914285Y-166258390D01*
X49914285Y-166258390D02*
X49961904Y-166306009D01*
X49961904Y-166306009D02*
X50057142Y-166353628D01*
X50057142Y-166353628D02*
X50438094Y-166353628D01*
X49009523Y-165829819D02*
X49199999Y-165829819D01*
X49199999Y-165829819D02*
X49295237Y-165877438D01*
X49295237Y-165877438D02*
X49342856Y-165925057D01*
X49342856Y-165925057D02*
X49438094Y-166067914D01*
X49438094Y-166067914D02*
X49485713Y-166258390D01*
X49485713Y-166258390D02*
X49485713Y-166639342D01*
X49485713Y-166639342D02*
X49438094Y-166734580D01*
X49438094Y-166734580D02*
X49390475Y-166782200D01*
X49390475Y-166782200D02*
X49295237Y-166829819D01*
X49295237Y-166829819D02*
X49104761Y-166829819D01*
X49104761Y-166829819D02*
X49009523Y-166782200D01*
X49009523Y-166782200D02*
X48961904Y-166734580D01*
X48961904Y-166734580D02*
X48914285Y-166639342D01*
X48914285Y-166639342D02*
X48914285Y-166401247D01*
X48914285Y-166401247D02*
X48961904Y-166306009D01*
X48961904Y-166306009D02*
X49009523Y-166258390D01*
X49009523Y-166258390D02*
X49104761Y-166210771D01*
X49104761Y-166210771D02*
X49295237Y-166210771D01*
X49295237Y-166210771D02*
X49390475Y-166258390D01*
X49390475Y-166258390D02*
X49438094Y-166306009D01*
X49438094Y-166306009D02*
X49485713Y-166401247D01*
X69217857Y-159609580D02*
X69265476Y-159657200D01*
X69265476Y-159657200D02*
X69408333Y-159704819D01*
X69408333Y-159704819D02*
X69503571Y-159704819D01*
X69503571Y-159704819D02*
X69646428Y-159657200D01*
X69646428Y-159657200D02*
X69741666Y-159561961D01*
X69741666Y-159561961D02*
X69789285Y-159466723D01*
X69789285Y-159466723D02*
X69836904Y-159276247D01*
X69836904Y-159276247D02*
X69836904Y-159133390D01*
X69836904Y-159133390D02*
X69789285Y-158942914D01*
X69789285Y-158942914D02*
X69741666Y-158847676D01*
X69741666Y-158847676D02*
X69646428Y-158752438D01*
X69646428Y-158752438D02*
X69503571Y-158704819D01*
X69503571Y-158704819D02*
X69408333Y-158704819D01*
X69408333Y-158704819D02*
X69265476Y-158752438D01*
X69265476Y-158752438D02*
X69217857Y-158800057D01*
X68265476Y-159704819D02*
X68836904Y-159704819D01*
X68551190Y-159704819D02*
X68551190Y-158704819D01*
X68551190Y-158704819D02*
X68646428Y-158847676D01*
X68646428Y-158847676D02*
X68741666Y-158942914D01*
X68741666Y-158942914D02*
X68836904Y-158990533D01*
X67646428Y-158704819D02*
X67551190Y-158704819D01*
X67551190Y-158704819D02*
X67455952Y-158752438D01*
X67455952Y-158752438D02*
X67408333Y-158800057D01*
X67408333Y-158800057D02*
X67360714Y-158895295D01*
X67360714Y-158895295D02*
X67313095Y-159085771D01*
X67313095Y-159085771D02*
X67313095Y-159323866D01*
X67313095Y-159323866D02*
X67360714Y-159514342D01*
X67360714Y-159514342D02*
X67408333Y-159609580D01*
X67408333Y-159609580D02*
X67455952Y-159657200D01*
X67455952Y-159657200D02*
X67551190Y-159704819D01*
X67551190Y-159704819D02*
X67646428Y-159704819D01*
X67646428Y-159704819D02*
X67741666Y-159657200D01*
X67741666Y-159657200D02*
X67789285Y-159609580D01*
X67789285Y-159609580D02*
X67836904Y-159514342D01*
X67836904Y-159514342D02*
X67884523Y-159323866D01*
X67884523Y-159323866D02*
X67884523Y-159085771D01*
X67884523Y-159085771D02*
X67836904Y-158895295D01*
X67836904Y-158895295D02*
X67789285Y-158800057D01*
X67789285Y-158800057D02*
X67741666Y-158752438D01*
X67741666Y-158752438D02*
X67646428Y-158704819D01*
X62291666Y-166459580D02*
X62339285Y-166507200D01*
X62339285Y-166507200D02*
X62482142Y-166554819D01*
X62482142Y-166554819D02*
X62577380Y-166554819D01*
X62577380Y-166554819D02*
X62720237Y-166507200D01*
X62720237Y-166507200D02*
X62815475Y-166411961D01*
X62815475Y-166411961D02*
X62863094Y-166316723D01*
X62863094Y-166316723D02*
X62910713Y-166126247D01*
X62910713Y-166126247D02*
X62910713Y-165983390D01*
X62910713Y-165983390D02*
X62863094Y-165792914D01*
X62863094Y-165792914D02*
X62815475Y-165697676D01*
X62815475Y-165697676D02*
X62720237Y-165602438D01*
X62720237Y-165602438D02*
X62577380Y-165554819D01*
X62577380Y-165554819D02*
X62482142Y-165554819D01*
X62482142Y-165554819D02*
X62339285Y-165602438D01*
X62339285Y-165602438D02*
X62291666Y-165650057D01*
X61958332Y-165554819D02*
X61339285Y-165554819D01*
X61339285Y-165554819D02*
X61672618Y-165935771D01*
X61672618Y-165935771D02*
X61529761Y-165935771D01*
X61529761Y-165935771D02*
X61434523Y-165983390D01*
X61434523Y-165983390D02*
X61386904Y-166031009D01*
X61386904Y-166031009D02*
X61339285Y-166126247D01*
X61339285Y-166126247D02*
X61339285Y-166364342D01*
X61339285Y-166364342D02*
X61386904Y-166459580D01*
X61386904Y-166459580D02*
X61434523Y-166507200D01*
X61434523Y-166507200D02*
X61529761Y-166554819D01*
X61529761Y-166554819D02*
X61815475Y-166554819D01*
X61815475Y-166554819D02*
X61910713Y-166507200D01*
X61910713Y-166507200D02*
X61958332Y-166459580D01*
X70817857Y-108575208D02*
X70865476Y-108622828D01*
X70865476Y-108622828D02*
X71008333Y-108670447D01*
X71008333Y-108670447D02*
X71103571Y-108670447D01*
X71103571Y-108670447D02*
X71246428Y-108622828D01*
X71246428Y-108622828D02*
X71341666Y-108527589D01*
X71341666Y-108527589D02*
X71389285Y-108432351D01*
X71389285Y-108432351D02*
X71436904Y-108241875D01*
X71436904Y-108241875D02*
X71436904Y-108099018D01*
X71436904Y-108099018D02*
X71389285Y-107908542D01*
X71389285Y-107908542D02*
X71341666Y-107813304D01*
X71341666Y-107813304D02*
X71246428Y-107718066D01*
X71246428Y-107718066D02*
X71103571Y-107670447D01*
X71103571Y-107670447D02*
X71008333Y-107670447D01*
X71008333Y-107670447D02*
X70865476Y-107718066D01*
X70865476Y-107718066D02*
X70817857Y-107765685D01*
X69865476Y-108670447D02*
X70436904Y-108670447D01*
X70151190Y-108670447D02*
X70151190Y-107670447D01*
X70151190Y-107670447D02*
X70246428Y-107813304D01*
X70246428Y-107813304D02*
X70341666Y-107908542D01*
X70341666Y-107908542D02*
X70436904Y-107956161D01*
X69389285Y-108670447D02*
X69198809Y-108670447D01*
X69198809Y-108670447D02*
X69103571Y-108622828D01*
X69103571Y-108622828D02*
X69055952Y-108575208D01*
X69055952Y-108575208D02*
X68960714Y-108432351D01*
X68960714Y-108432351D02*
X68913095Y-108241875D01*
X68913095Y-108241875D02*
X68913095Y-107860923D01*
X68913095Y-107860923D02*
X68960714Y-107765685D01*
X68960714Y-107765685D02*
X69008333Y-107718066D01*
X69008333Y-107718066D02*
X69103571Y-107670447D01*
X69103571Y-107670447D02*
X69294047Y-107670447D01*
X69294047Y-107670447D02*
X69389285Y-107718066D01*
X69389285Y-107718066D02*
X69436904Y-107765685D01*
X69436904Y-107765685D02*
X69484523Y-107860923D01*
X69484523Y-107860923D02*
X69484523Y-108099018D01*
X69484523Y-108099018D02*
X69436904Y-108194256D01*
X69436904Y-108194256D02*
X69389285Y-108241875D01*
X69389285Y-108241875D02*
X69294047Y-108289494D01*
X69294047Y-108289494D02*
X69103571Y-108289494D01*
X69103571Y-108289494D02*
X69008333Y-108241875D01*
X69008333Y-108241875D02*
X68960714Y-108194256D01*
X68960714Y-108194256D02*
X68913095Y-108099018D01*
X77166666Y-166754819D02*
X77499999Y-166278628D01*
X77738094Y-166754819D02*
X77738094Y-165754819D01*
X77738094Y-165754819D02*
X77357142Y-165754819D01*
X77357142Y-165754819D02*
X77261904Y-165802438D01*
X77261904Y-165802438D02*
X77214285Y-165850057D01*
X77214285Y-165850057D02*
X77166666Y-165945295D01*
X77166666Y-165945295D02*
X77166666Y-166088152D01*
X77166666Y-166088152D02*
X77214285Y-166183390D01*
X77214285Y-166183390D02*
X77261904Y-166231009D01*
X77261904Y-166231009D02*
X77357142Y-166278628D01*
X77357142Y-166278628D02*
X77738094Y-166278628D01*
X76690475Y-166754819D02*
X76499999Y-166754819D01*
X76499999Y-166754819D02*
X76404761Y-166707200D01*
X76404761Y-166707200D02*
X76357142Y-166659580D01*
X76357142Y-166659580D02*
X76261904Y-166516723D01*
X76261904Y-166516723D02*
X76214285Y-166326247D01*
X76214285Y-166326247D02*
X76214285Y-165945295D01*
X76214285Y-165945295D02*
X76261904Y-165850057D01*
X76261904Y-165850057D02*
X76309523Y-165802438D01*
X76309523Y-165802438D02*
X76404761Y-165754819D01*
X76404761Y-165754819D02*
X76595237Y-165754819D01*
X76595237Y-165754819D02*
X76690475Y-165802438D01*
X76690475Y-165802438D02*
X76738094Y-165850057D01*
X76738094Y-165850057D02*
X76785713Y-165945295D01*
X76785713Y-165945295D02*
X76785713Y-166183390D01*
X76785713Y-166183390D02*
X76738094Y-166278628D01*
X76738094Y-166278628D02*
X76690475Y-166326247D01*
X76690475Y-166326247D02*
X76595237Y-166373866D01*
X76595237Y-166373866D02*
X76404761Y-166373866D01*
X76404761Y-166373866D02*
X76309523Y-166326247D01*
X76309523Y-166326247D02*
X76261904Y-166278628D01*
X76261904Y-166278628D02*
X76214285Y-166183390D01*
X71742857Y-104275208D02*
X71790476Y-104322828D01*
X71790476Y-104322828D02*
X71933333Y-104370447D01*
X71933333Y-104370447D02*
X72028571Y-104370447D01*
X72028571Y-104370447D02*
X72171428Y-104322828D01*
X72171428Y-104322828D02*
X72266666Y-104227589D01*
X72266666Y-104227589D02*
X72314285Y-104132351D01*
X72314285Y-104132351D02*
X72361904Y-103941875D01*
X72361904Y-103941875D02*
X72361904Y-103799018D01*
X72361904Y-103799018D02*
X72314285Y-103608542D01*
X72314285Y-103608542D02*
X72266666Y-103513304D01*
X72266666Y-103513304D02*
X72171428Y-103418066D01*
X72171428Y-103418066D02*
X72028571Y-103370447D01*
X72028571Y-103370447D02*
X71933333Y-103370447D01*
X71933333Y-103370447D02*
X71790476Y-103418066D01*
X71790476Y-103418066D02*
X71742857Y-103465685D01*
X70790476Y-104370447D02*
X71361904Y-104370447D01*
X71076190Y-104370447D02*
X71076190Y-103370447D01*
X71076190Y-103370447D02*
X71171428Y-103513304D01*
X71171428Y-103513304D02*
X71266666Y-103608542D01*
X71266666Y-103608542D02*
X71361904Y-103656161D01*
X70219047Y-103799018D02*
X70314285Y-103751399D01*
X70314285Y-103751399D02*
X70361904Y-103703780D01*
X70361904Y-103703780D02*
X70409523Y-103608542D01*
X70409523Y-103608542D02*
X70409523Y-103560923D01*
X70409523Y-103560923D02*
X70361904Y-103465685D01*
X70361904Y-103465685D02*
X70314285Y-103418066D01*
X70314285Y-103418066D02*
X70219047Y-103370447D01*
X70219047Y-103370447D02*
X70028571Y-103370447D01*
X70028571Y-103370447D02*
X69933333Y-103418066D01*
X69933333Y-103418066D02*
X69885714Y-103465685D01*
X69885714Y-103465685D02*
X69838095Y-103560923D01*
X69838095Y-103560923D02*
X69838095Y-103608542D01*
X69838095Y-103608542D02*
X69885714Y-103703780D01*
X69885714Y-103703780D02*
X69933333Y-103751399D01*
X69933333Y-103751399D02*
X70028571Y-103799018D01*
X70028571Y-103799018D02*
X70219047Y-103799018D01*
X70219047Y-103799018D02*
X70314285Y-103846637D01*
X70314285Y-103846637D02*
X70361904Y-103894256D01*
X70361904Y-103894256D02*
X70409523Y-103989494D01*
X70409523Y-103989494D02*
X70409523Y-104179970D01*
X70409523Y-104179970D02*
X70361904Y-104275208D01*
X70361904Y-104275208D02*
X70314285Y-104322828D01*
X70314285Y-104322828D02*
X70219047Y-104370447D01*
X70219047Y-104370447D02*
X70028571Y-104370447D01*
X70028571Y-104370447D02*
X69933333Y-104322828D01*
X69933333Y-104322828D02*
X69885714Y-104275208D01*
X69885714Y-104275208D02*
X69838095Y-104179970D01*
X69838095Y-104179970D02*
X69838095Y-103989494D01*
X69838095Y-103989494D02*
X69885714Y-103894256D01*
X69885714Y-103894256D02*
X69933333Y-103846637D01*
X69933333Y-103846637D02*
X70028571Y-103799018D01*
X72924819Y-175557142D02*
X72448628Y-175223809D01*
X72924819Y-174985714D02*
X71924819Y-174985714D01*
X71924819Y-174985714D02*
X71924819Y-175366666D01*
X71924819Y-175366666D02*
X71972438Y-175461904D01*
X71972438Y-175461904D02*
X72020057Y-175509523D01*
X72020057Y-175509523D02*
X72115295Y-175557142D01*
X72115295Y-175557142D02*
X72258152Y-175557142D01*
X72258152Y-175557142D02*
X72353390Y-175509523D01*
X72353390Y-175509523D02*
X72401009Y-175461904D01*
X72401009Y-175461904D02*
X72448628Y-175366666D01*
X72448628Y-175366666D02*
X72448628Y-174985714D01*
X72924819Y-176509523D02*
X72924819Y-175938095D01*
X72924819Y-176223809D02*
X71924819Y-176223809D01*
X71924819Y-176223809D02*
X72067676Y-176128571D01*
X72067676Y-176128571D02*
X72162914Y-176033333D01*
X72162914Y-176033333D02*
X72210533Y-175938095D01*
X72924819Y-177461904D02*
X72924819Y-176890476D01*
X72924819Y-177176190D02*
X71924819Y-177176190D01*
X71924819Y-177176190D02*
X72067676Y-177080952D01*
X72067676Y-177080952D02*
X72162914Y-176985714D01*
X72162914Y-176985714D02*
X72210533Y-176890476D01*
X70466666Y-155309580D02*
X70514285Y-155357200D01*
X70514285Y-155357200D02*
X70657142Y-155404819D01*
X70657142Y-155404819D02*
X70752380Y-155404819D01*
X70752380Y-155404819D02*
X70895237Y-155357200D01*
X70895237Y-155357200D02*
X70990475Y-155261961D01*
X70990475Y-155261961D02*
X71038094Y-155166723D01*
X71038094Y-155166723D02*
X71085713Y-154976247D01*
X71085713Y-154976247D02*
X71085713Y-154833390D01*
X71085713Y-154833390D02*
X71038094Y-154642914D01*
X71038094Y-154642914D02*
X70990475Y-154547676D01*
X70990475Y-154547676D02*
X70895237Y-154452438D01*
X70895237Y-154452438D02*
X70752380Y-154404819D01*
X70752380Y-154404819D02*
X70657142Y-154404819D01*
X70657142Y-154404819D02*
X70514285Y-154452438D01*
X70514285Y-154452438D02*
X70466666Y-154500057D01*
X69514285Y-155404819D02*
X70085713Y-155404819D01*
X69799999Y-155404819D02*
X69799999Y-154404819D01*
X69799999Y-154404819D02*
X69895237Y-154547676D01*
X69895237Y-154547676D02*
X69990475Y-154642914D01*
X69990475Y-154642914D02*
X70085713Y-154690533D01*
X80284819Y-171357142D02*
X79808628Y-171023809D01*
X80284819Y-170785714D02*
X79284819Y-170785714D01*
X79284819Y-170785714D02*
X79284819Y-171166666D01*
X79284819Y-171166666D02*
X79332438Y-171261904D01*
X79332438Y-171261904D02*
X79380057Y-171309523D01*
X79380057Y-171309523D02*
X79475295Y-171357142D01*
X79475295Y-171357142D02*
X79618152Y-171357142D01*
X79618152Y-171357142D02*
X79713390Y-171309523D01*
X79713390Y-171309523D02*
X79761009Y-171261904D01*
X79761009Y-171261904D02*
X79808628Y-171166666D01*
X79808628Y-171166666D02*
X79808628Y-170785714D01*
X80284819Y-172309523D02*
X80284819Y-171738095D01*
X80284819Y-172023809D02*
X79284819Y-172023809D01*
X79284819Y-172023809D02*
X79427676Y-171928571D01*
X79427676Y-171928571D02*
X79522914Y-171833333D01*
X79522914Y-171833333D02*
X79570533Y-171738095D01*
X79380057Y-172690476D02*
X79332438Y-172738095D01*
X79332438Y-172738095D02*
X79284819Y-172833333D01*
X79284819Y-172833333D02*
X79284819Y-173071428D01*
X79284819Y-173071428D02*
X79332438Y-173166666D01*
X79332438Y-173166666D02*
X79380057Y-173214285D01*
X79380057Y-173214285D02*
X79475295Y-173261904D01*
X79475295Y-173261904D02*
X79570533Y-173261904D01*
X79570533Y-173261904D02*
X79713390Y-173214285D01*
X79713390Y-173214285D02*
X80284819Y-172642857D01*
X80284819Y-172642857D02*
X80284819Y-173261904D01*
X51616666Y-172629819D02*
X51949999Y-172153628D01*
X52188094Y-172629819D02*
X52188094Y-171629819D01*
X52188094Y-171629819D02*
X51807142Y-171629819D01*
X51807142Y-171629819D02*
X51711904Y-171677438D01*
X51711904Y-171677438D02*
X51664285Y-171725057D01*
X51664285Y-171725057D02*
X51616666Y-171820295D01*
X51616666Y-171820295D02*
X51616666Y-171963152D01*
X51616666Y-171963152D02*
X51664285Y-172058390D01*
X51664285Y-172058390D02*
X51711904Y-172106009D01*
X51711904Y-172106009D02*
X51807142Y-172153628D01*
X51807142Y-172153628D02*
X52188094Y-172153628D01*
X50711904Y-171629819D02*
X51188094Y-171629819D01*
X51188094Y-171629819D02*
X51235713Y-172106009D01*
X51235713Y-172106009D02*
X51188094Y-172058390D01*
X51188094Y-172058390D02*
X51092856Y-172010771D01*
X51092856Y-172010771D02*
X50854761Y-172010771D01*
X50854761Y-172010771D02*
X50759523Y-172058390D01*
X50759523Y-172058390D02*
X50711904Y-172106009D01*
X50711904Y-172106009D02*
X50664285Y-172201247D01*
X50664285Y-172201247D02*
X50664285Y-172439342D01*
X50664285Y-172439342D02*
X50711904Y-172534580D01*
X50711904Y-172534580D02*
X50759523Y-172582200D01*
X50759523Y-172582200D02*
X50854761Y-172629819D01*
X50854761Y-172629819D02*
X51092856Y-172629819D01*
X51092856Y-172629819D02*
X51188094Y-172582200D01*
X51188094Y-172582200D02*
X51235713Y-172534580D01*
X72442857Y-111775208D02*
X72490476Y-111822828D01*
X72490476Y-111822828D02*
X72633333Y-111870447D01*
X72633333Y-111870447D02*
X72728571Y-111870447D01*
X72728571Y-111870447D02*
X72871428Y-111822828D01*
X72871428Y-111822828D02*
X72966666Y-111727589D01*
X72966666Y-111727589D02*
X73014285Y-111632351D01*
X73014285Y-111632351D02*
X73061904Y-111441875D01*
X73061904Y-111441875D02*
X73061904Y-111299018D01*
X73061904Y-111299018D02*
X73014285Y-111108542D01*
X73014285Y-111108542D02*
X72966666Y-111013304D01*
X72966666Y-111013304D02*
X72871428Y-110918066D01*
X72871428Y-110918066D02*
X72728571Y-110870447D01*
X72728571Y-110870447D02*
X72633333Y-110870447D01*
X72633333Y-110870447D02*
X72490476Y-110918066D01*
X72490476Y-110918066D02*
X72442857Y-110965685D01*
X71490476Y-111870447D02*
X72061904Y-111870447D01*
X71776190Y-111870447D02*
X71776190Y-110870447D01*
X71776190Y-110870447D02*
X71871428Y-111013304D01*
X71871428Y-111013304D02*
X71966666Y-111108542D01*
X71966666Y-111108542D02*
X72061904Y-111156161D01*
X71157142Y-110870447D02*
X70490476Y-110870447D01*
X70490476Y-110870447D02*
X70919047Y-111870447D01*
D12*
%TO.C,FB1*%
X62412779Y-154240000D02*
X62087221Y-154240000D01*
X62412779Y-155260000D02*
X62087221Y-155260000D01*
%TO.C,R4*%
X49177500Y-171437742D02*
X49177500Y-171912258D01*
X50222500Y-171437742D02*
X50222500Y-171912258D01*
%TO.C,C20*%
X63315000Y-163565580D02*
X63315000Y-163284420D01*
X64335000Y-163565580D02*
X64335000Y-163284420D01*
%TO.C,C2*%
X61615000Y-157540580D02*
X61615000Y-157259420D01*
X62635000Y-157540580D02*
X62635000Y-157259420D01*
%TO.C,R3*%
X79477500Y-152837258D02*
X79477500Y-152362742D01*
X80522500Y-152837258D02*
X80522500Y-152362742D01*
%TO.C,C7*%
X65659420Y-154215000D02*
X65940580Y-154215000D01*
X65659420Y-155235000D02*
X65940580Y-155235000D01*
%TO.C,C9*%
X60885000Y-152640580D02*
X60885000Y-152359420D01*
X61905000Y-152640580D02*
X61905000Y-152359420D01*
%TO.C,C6*%
X59790000Y-157540580D02*
X59790000Y-157259420D01*
X60810000Y-157540580D02*
X60810000Y-157259420D01*
%TO.C,R10*%
X79687258Y-164027500D02*
X79212742Y-164027500D01*
X79687258Y-165072500D02*
X79212742Y-165072500D01*
%TO.C,C4*%
X71415580Y-165565000D02*
X71134420Y-165565000D01*
X71415580Y-166585000D02*
X71134420Y-166585000D01*
%TO.C,C5*%
X72965000Y-156759420D02*
X72965000Y-157040580D01*
X73985000Y-156759420D02*
X73985000Y-157040580D01*
%TO.C,C8*%
X62690000Y-152640580D02*
X62690000Y-152359420D01*
X63710000Y-152640580D02*
X63710000Y-152359420D01*
%TO.C,R8*%
X79687258Y-167527500D02*
X79212742Y-167527500D01*
X79687258Y-168572500D02*
X79212742Y-168572500D01*
%TO.C,R2*%
X79477500Y-148162742D02*
X79477500Y-148637258D01*
X80522500Y-148162742D02*
X80522500Y-148637258D01*
%TO.C,R6*%
X49177500Y-168712258D02*
X49177500Y-168237742D01*
X50222500Y-168712258D02*
X50222500Y-168237742D01*
%TO.C,C10*%
X68065000Y-157190580D02*
X68065000Y-156909420D01*
X69085000Y-157190580D02*
X69085000Y-156909420D01*
%TO.C,C3*%
X61615000Y-164040580D02*
X61615000Y-163759420D01*
X62635000Y-164040580D02*
X62635000Y-163759420D01*
%TO.C,C19*%
X69690000Y-105875048D02*
X69690000Y-106156208D01*
X70710000Y-105875048D02*
X70710000Y-106156208D01*
%TO.C,R9*%
X79687258Y-165777500D02*
X79212742Y-165777500D01*
X79687258Y-166822500D02*
X79212742Y-166822500D01*
%TO.C,C18*%
X71290000Y-105875048D02*
X71290000Y-106156208D01*
X72310000Y-105875048D02*
X72310000Y-106156208D01*
%TO.C,R11*%
X73377500Y-175962742D02*
X73377500Y-176437258D01*
X74422500Y-175962742D02*
X74422500Y-176437258D01*
%TO.C,C1*%
X69790000Y-156934420D02*
X69790000Y-157215580D01*
X70810000Y-156934420D02*
X70810000Y-157215580D01*
%TO.C,R12*%
X77877500Y-172237258D02*
X77877500Y-171762742D01*
X78922500Y-172237258D02*
X78922500Y-171762742D01*
%TO.C,R5*%
X50927500Y-170162258D02*
X50927500Y-169687742D01*
X51972500Y-170162258D02*
X51972500Y-169687742D01*
%TO.C,C17*%
X71290000Y-113806208D02*
X71290000Y-113525048D01*
X72310000Y-113806208D02*
X72310000Y-113525048D01*
%TD*%
M02*
