M48
; DRILL file KiCad 10.0.1 date 2026-06-19T14:16:59
; FORMAT={-:-/ absolute / metric / decimal}
; #@! TF.CreationDate,2026-06-19T14:16:59-04:00
; #@! TF.GenerationSoftware,Kicad,Pcbnew,10.0.1
; #@! TF.FileFunction,Plated,1,2,PTH
FMAT,2
METRIC
; #@! TA.AperFunction,Plated,PTH,ViaDrill
T1C0.150
; #@! TA.AperFunction,Plated,PTH,ViaDrill
T2C0.200
; #@! TA.AperFunction,Plated,PTH,ComponentDrill
T3C0.300
; #@! TA.AperFunction,Plated,PTH,ComponentDrill
T4C0.400
; #@! TA.AperFunction,Plated,PTH,ComponentDrill
T5C0.500
; #@! TA.AperFunction,Plated,PTH,ComponentDrill
T6C0.600
; #@! TA.AperFunction,Plated,PTH,ComponentDrill
T7C0.950
; #@! TA.AperFunction,Plated,PTH,ComponentDrill
T8C1.000
; #@! TA.AperFunction,Plated,PTH,ComponentDrill
T9C1.700
%
G90
G05
T1
X77.151Y-177.355
X77.226Y-50.675
X77.23Y-129.755
X77.24Y-170.955
X77.24Y-172.555
X77.24Y-174.155
X77.24Y-175.755
X77.315Y-44.275
X77.315Y-45.875
X77.315Y-47.475
X77.315Y-49.075
X77.319Y-123.355
X77.319Y-124.955
X77.319Y-126.555
X77.319Y-128.155
X77.325Y-169.355
X77.4Y-42.675
X77.404Y-121.755
X77.482Y-177.73
X77.557Y-51.05
X77.561Y-130.13
X77.571Y-171.33
X77.571Y-172.93
X77.571Y-174.53
X77.571Y-176.13
X77.646Y-44.65
X77.646Y-46.25
X77.646Y-47.85
X77.646Y-49.45
X77.65Y-123.73
X77.65Y-125.33
X77.65Y-126.93
X77.65Y-128.53
X77.656Y-169.73
X77.731Y-43.05
X77.735Y-122.13
X77.89Y-171.73
X77.89Y-173.33
X77.89Y-174.93
X77.89Y-176.53
X77.965Y-45.05
X77.965Y-46.65
X77.965Y-48.25
X77.965Y-49.85
X77.969Y-124.13
X77.969Y-125.73
X77.969Y-127.33
X77.969Y-128.93
X77.975Y-170.13
X78.05Y-43.45
X78.054Y-122.53
X78.215Y-172.109
X78.215Y-173.709
X78.215Y-175.309
X78.215Y-176.909
X78.29Y-45.429
X78.29Y-47.029
X78.29Y-48.629
X78.29Y-50.229
X78.295Y-124.509
X78.295Y-126.109
X78.295Y-127.709
X78.295Y-129.309
X78.3Y-170.509
X78.375Y-43.829
X78.38Y-122.909
X79.95Y-42.625
X109.206Y-49.475
X109.22Y-51.075
X109.236Y-176.155
X109.25Y-177.755
X109.295Y-43.075
X109.295Y-44.675
X109.295Y-46.275
X109.295Y-47.875
X109.315Y-128.555
X109.325Y-169.755
X109.325Y-171.355
X109.325Y-172.955
X109.325Y-174.555
X109.33Y-130.155
X109.38Y-41.475
X109.404Y-122.155
X109.404Y-123.755
X109.404Y-125.355
X109.404Y-126.955
X109.41Y-168.155
X109.489Y-120.555
X109.537Y-49.85
X109.567Y-176.53
X109.626Y-43.45
X109.626Y-45.05
X109.626Y-46.65
X109.626Y-48.25
X109.646Y-128.93
X109.656Y-170.13
X109.656Y-171.73
X109.656Y-173.33
X109.656Y-174.93
X109.711Y-41.85
X109.735Y-122.53
X109.735Y-124.13
X109.735Y-125.73
X109.735Y-127.33
X109.741Y-168.53
X109.82Y-120.93
X109.945Y-43.85
X109.945Y-45.45
X109.945Y-47.05
X109.945Y-48.65
X109.959Y-50.25
X109.975Y-170.53
X109.975Y-172.13
X109.975Y-173.73
X109.975Y-175.33
X109.989Y-176.93
X110.03Y-42.25
X110.054Y-122.93
X110.054Y-124.53
X110.054Y-126.13
X110.054Y-127.73
X110.06Y-168.93
X110.069Y-129.33
X110.139Y-121.33
X110.27Y-44.229
X110.27Y-45.829
X110.27Y-47.429
X110.27Y-49.029
X110.285Y-50.629
X110.3Y-170.909
X110.3Y-172.509
X110.3Y-174.109
X110.3Y-175.709
X110.315Y-177.309
X110.355Y-42.629
X110.38Y-123.309
X110.38Y-124.909
X110.38Y-126.509
X110.38Y-128.109
X110.385Y-169.309
X110.394Y-129.709
X110.465Y-121.709
X122.149Y-176.075
X122.238Y-169.675
X122.238Y-171.275
X122.238Y-172.875
X122.238Y-174.475
X122.311Y-50.32
X122.323Y-168.075
X122.4Y-43.92
X122.4Y-45.52
X122.4Y-47.12
X122.4Y-48.72
X122.421Y-120.375
X122.479Y-176.45
X122.485Y-42.32
X122.51Y-113.975
X122.51Y-115.575
X122.51Y-117.175
X122.51Y-118.775
X122.568Y-170.05
X122.568Y-171.65
X122.568Y-173.25
X122.568Y-174.85
X122.595Y-112.375
X122.642Y-50.695
X122.653Y-168.45
X122.731Y-44.295
X122.731Y-45.895
X122.731Y-47.495
X122.731Y-49.095
X122.752Y-120.75
X122.816Y-42.695
X122.841Y-114.35
X122.841Y-115.95
X122.841Y-117.55
X122.841Y-119.15
X122.888Y-170.45
X122.888Y-172.05
X122.888Y-173.65
X122.888Y-175.25
X122.926Y-112.75
X122.973Y-168.85
X123.05Y-44.695
X123.05Y-46.295
X123.05Y-47.895
X123.05Y-49.495
X123.135Y-43.095
X123.16Y-114.75
X123.16Y-116.35
X123.16Y-117.95
X123.16Y-119.55
X123.213Y-170.83
X123.213Y-172.43
X123.213Y-174.03
X123.213Y-175.63
X123.245Y-113.15
X123.298Y-169.23
X123.375Y-45.075
X123.375Y-46.675
X123.375Y-48.275
X123.375Y-49.875
X123.46Y-43.475
X123.485Y-115.13
X123.485Y-116.73
X123.485Y-118.33
X123.485Y-119.93
X123.57Y-113.53
X154.234Y-174.875
X154.248Y-176.475
X154.323Y-168.475
X154.323Y-170.075
X154.323Y-171.675
X154.323Y-173.275
X154.396Y-49.12
X154.408Y-166.875
X154.41Y-50.72
X154.456Y-119.175
X154.47Y-120.775
X154.485Y-42.72
X154.485Y-44.32
X154.485Y-45.92
X154.485Y-47.52
X154.545Y-112.775
X154.545Y-114.375
X154.545Y-115.975
X154.545Y-117.575
X154.564Y-175.25
X154.57Y-41.12
X154.63Y-111.175
X154.653Y-168.85
X154.653Y-170.45
X154.653Y-172.05
X154.653Y-173.65
X154.727Y-49.495
X154.738Y-167.25
X154.787Y-119.55
X154.816Y-43.095
X154.816Y-44.695
X154.816Y-46.295
X154.816Y-47.895
X154.876Y-113.15
X154.876Y-114.75
X154.876Y-116.35
X154.876Y-117.95
X154.901Y-41.495
X154.961Y-111.55
X154.973Y-169.25
X154.973Y-170.85
X154.973Y-172.45
X154.973Y-174.05
X154.987Y-175.65
X155.058Y-167.65
X155.135Y-43.495
X155.135Y-45.095
X155.135Y-46.695
X155.135Y-48.295
X155.149Y-49.895
X155.195Y-113.55
X155.195Y-115.15
X155.195Y-116.75
X155.195Y-118.35
X155.209Y-119.95
X155.22Y-41.895
X155.28Y-111.95
X155.298Y-169.63
X155.298Y-171.23
X155.298Y-172.83
X155.298Y-174.43
X155.312Y-176.03
X155.383Y-168.03
X155.46Y-43.875
X155.46Y-45.475
X155.46Y-47.075
X155.46Y-48.675
X155.475Y-50.275
X155.52Y-113.93
X155.52Y-115.53
X155.52Y-117.13
X155.52Y-118.73
X155.535Y-120.33
X155.545Y-42.275
X155.605Y-112.33
T2
X74.75Y-43.75
X75.05Y-48.75
X75.05Y-51.35
X75.2Y-46.25
X75.45Y-16.25
X75.45Y-18.75
X75.45Y-21.25
X75.45Y-23.75
X75.45Y-26.25
X75.45Y-28.75
X75.45Y-31.25
X75.45Y-33.75
X75.45Y-36.25
X75.45Y-38.75
X75.45Y-41.25
X75.45Y-53.75
X75.45Y-56.25
X75.45Y-58.75
X75.45Y-61.25
X75.45Y-63.75
X75.45Y-66.25
X75.45Y-68.75
X75.45Y-71.25
X75.45Y-73.75
X75.45Y-76.25
X75.609Y-87.88
X75.609Y-92.88
X75.609Y-100.38
X75.609Y-102.88
X75.609Y-105.38
X75.609Y-110.38
X75.609Y-115.38
X75.609Y-117.88
X75.609Y-120.38
X75.609Y-122.88
X75.609Y-125.38
X75.609Y-127.88
X75.609Y-130.38
X75.609Y-132.88
X75.609Y-135.38
X75.609Y-140.38
X75.609Y-142.88
X75.609Y-145.38
X75.959Y-121.305
X76.375Y-157.93
X76.375Y-162.93
X76.375Y-165.43
X76.375Y-180.43
X76.375Y-182.93
X76.375Y-187.93
X76.375Y-190.43
X76.55Y-41.65
X76.625Y-168.33
X76.709Y-120.73
X76.95Y-66.25
X76.95Y-68.75
X76.95Y-71.25
X77.25Y-41.65
X77.359Y-120.73
X77.45Y-31.25
X77.45Y-36.25
X77.45Y-38.75
X77.797Y-140.817
X77.797Y-143.317
X77.949Y-51.705
X77.95Y-16.25
X77.95Y-18.75
X77.95Y-21.25
X77.95Y-23.75
X77.95Y-26.25
X77.95Y-28.75
X77.95Y-41.65
X77.95Y-56.25
X77.95Y-71.25
X77.95Y-73.75
X77.95Y-76.25
X77.953Y-130.785
X77.959Y-120.73
X78.05Y-53.15
X78.109Y-85.38
X78.109Y-87.88
X78.109Y-92.88
X78.109Y-105.38
X78.109Y-110.38
X78.109Y-115.38
X78.109Y-117.88
X78.109Y-132.88
X78.109Y-135.38
X78.109Y-145.38
X78.109Y-147.88
X78.45Y-63.25
X78.45Y-64.75
X78.559Y-120.73
X78.65Y-41.65
X78.875Y-157.93
X78.875Y-180.43
X78.875Y-185.43
X78.875Y-187.93
X78.875Y-190.43
X78.875Y-192.93
X78.95Y-60.75
X78.95Y-69.75
X79.009Y-92.03
X79.009Y-100.03
X79.009Y-102.93
X79.009Y-106.03
X79.125Y-168.33
X79.209Y-120.73
X79.35Y-41.65
X79.45Y-31.25
X79.45Y-33.75
X79.45Y-36.25
X79.45Y-37.75
X79.45Y-40.25
X79.75Y-53.15
X79.95Y-70.75
X80.034Y-121.505
X80.25Y-50.35
X80.297Y-140.817
X80.297Y-143.317
X80.45Y-16.25
X80.45Y-18.75
X80.45Y-56.25
X80.45Y-58.75
X80.45Y-73.75
X80.45Y-76.25
X80.5Y-51.0
X80.5Y-72.0
X80.609Y-85.38
X80.609Y-87.88
X80.609Y-90.38
X80.609Y-92.88
X80.609Y-107.88
X80.609Y-110.38
X80.609Y-112.88
X80.609Y-115.38
X80.609Y-117.88
X80.609Y-122.88
X80.609Y-125.38
X80.609Y-127.88
X80.609Y-145.38
X80.609Y-147.88
X80.95Y-29.55
X80.95Y-34.25
X81.375Y-190.43
X81.375Y-192.93
X81.411Y-39.911
X81.95Y-20.0
X82.309Y-119.58
X82.679Y-46.878
X82.7Y-147.5
X82.797Y-138.317
X82.797Y-143.317
X82.797Y-145.817
X82.9Y-20.45
X82.9Y-58.55
X82.95Y-73.75
X82.95Y-76.25
X83.109Y-85.38
X83.109Y-87.88
X83.109Y-90.38
X83.109Y-92.88
X83.109Y-112.88
X83.109Y-127.88
X83.45Y-66.75
X83.45Y-69.75
X83.579Y-45.978
X83.875Y-157.93
X83.875Y-160.43
X83.875Y-162.93
X83.875Y-187.93
X83.875Y-190.43
X83.875Y-192.93
X83.95Y-65.25
X84.4Y-37.0
X84.45Y-67.5
X84.479Y-45.078
X84.6Y-61.9
X84.709Y-119.08
X84.95Y-31.75
X85.084Y-109.43
X85.275Y-72.05
X85.297Y-140.817
X85.297Y-145.817
X85.297Y-147.6
X85.3Y-36.25
X85.4Y-48.0
X85.45Y-16.25
X85.45Y-18.75
X85.45Y-21.25
X85.45Y-23.75
X85.45Y-26.25
X85.45Y-28.75
X85.45Y-33.75
X85.45Y-68.75
X85.45Y-73.75
X85.45Y-76.25
X85.609Y-85.38
X85.609Y-87.88
X85.609Y-90.38
X85.609Y-92.88
X85.609Y-107.88
X85.7Y-52.225
X85.8Y-35.4
X85.8Y-46.75
X85.809Y-120.68
X85.95Y-61.25
X85.95Y-64.25
X85.95Y-66.25
X86.15Y-57.65
X86.183Y-135.23
X86.2Y-34.75
X86.209Y-127.38
X86.3Y-46.175
X86.35Y-51.2
X86.375Y-157.93
X86.375Y-160.43
X86.375Y-162.93
X86.375Y-187.93
X86.375Y-190.43
X86.375Y-192.93
X86.45Y-43.5
X86.45Y-59.25
X86.7Y-41.15
X86.8Y-41.8
X86.85Y-42.55
X86.95Y-35.25
X86.95Y-36.75
X87.584Y-107.93
X87.7Y-43.5
X87.797Y-140.817
X87.797Y-143.317
X87.8Y-147.8
X87.909Y-121.08
X87.95Y-16.25
X87.95Y-18.75
X87.95Y-21.25
X87.95Y-23.75
X87.95Y-26.25
X87.95Y-28.75
X87.95Y-31.25
X87.95Y-54.225
X87.95Y-71.25
X87.95Y-73.75
X87.95Y-76.25
X88.109Y-85.38
X88.109Y-87.88
X88.109Y-90.38
X88.109Y-125.38
X88.2Y-41.775
X88.2Y-58.25
X88.2Y-59.25
X88.417Y-56.717
X88.45Y-34.75
X88.45Y-60.25
X88.45Y-61.75
X88.45Y-64.25
X88.45Y-66.25
X88.45Y-68.75
X88.7Y-36.6
X88.7Y-42.75
X88.75Y-38.7
X88.8Y-37.6
X88.875Y-157.93
X88.875Y-160.43
X88.875Y-162.93
X88.875Y-165.43
X88.875Y-167.93
X88.875Y-170.43
X88.875Y-187.93
X88.875Y-190.43
X88.875Y-192.93
X88.909Y-122.58
X88.997Y-92.55
X89.0Y-47.175
X89.05Y-57.05
X89.2Y-57.975
X89.35Y-38.2
X89.35Y-53.6
X89.4Y-37.1
X89.45Y-43.75
X89.45Y-46.25
X89.45Y-48.5
X89.45Y-50.5
X89.7Y-44.75
X89.759Y-106.03
X89.85Y-39.2
X89.95Y-33.75
X89.95Y-60.5
X90.009Y-103.78
X90.05Y-57.05
X90.05Y-58.65
X90.189Y-136.8
X90.297Y-140.817
X90.297Y-143.317
X90.297Y-148.317
X90.45Y-21.25
X90.45Y-23.75
X90.45Y-26.25
X90.45Y-28.75
X90.45Y-31.25
X90.45Y-35.75
X90.45Y-61.25
X90.45Y-66.25
X90.45Y-68.75
X90.45Y-71.25
X90.45Y-73.75
X90.45Y-76.25
X90.609Y-85.38
X90.609Y-87.88
X90.609Y-90.38
X90.609Y-92.88
X90.609Y-125.38
X90.9Y-60.55
X90.95Y-57.05
X91.009Y-111.58
X91.009Y-134.08
X91.1Y-57.95
X91.109Y-108.28
X91.109Y-118.08
X91.209Y-126.88
X91.309Y-102.08
X91.345Y-44.251
X91.375Y-157.93
X91.375Y-185.43
X91.375Y-187.93
X91.375Y-190.43
X91.375Y-192.93
X91.6Y-52.4
X91.609Y-128.78
X91.709Y-130.93
X91.909Y-119.38
X91.95Y-30.25
X91.95Y-36.0
X91.95Y-38.2
X91.95Y-40.85
X91.95Y-48.25
X91.95Y-49.75
X92.0Y-37.1
X92.109Y-121.78
X92.2Y-39.25
X92.2Y-46.25
X92.2Y-60.5
X92.259Y-107.63
X92.3Y-52.3
X92.45Y-32.0
X92.45Y-55.25
X92.45Y-56.5
X92.646Y-39.853
X92.65Y-37.65
X92.684Y-40.6
X92.75Y-38.7
X92.797Y-140.817
X92.797Y-148.317
X92.95Y-21.25
X92.95Y-23.75
X92.95Y-26.25
X92.95Y-28.75
X92.95Y-50.5
X92.95Y-51.925
X92.95Y-61.25
X92.95Y-66.25
X92.95Y-68.75
X92.95Y-71.25
X92.95Y-73.75
X92.95Y-76.25
X93.009Y-123.917
X93.009Y-133.73
X93.1Y-56.95
X93.109Y-85.38
X93.109Y-92.88
X93.109Y-115.38
X93.109Y-122.88
X93.2Y-34.25
X93.2Y-36.65
X93.2Y-48.25
X93.25Y-54.8
X93.3Y-59.55
X93.309Y-103.78
X93.409Y-124.78
X93.45Y-60.5
X93.609Y-134.38
X93.875Y-157.93
X93.875Y-160.43
X93.875Y-162.93
X93.875Y-165.43
X93.875Y-167.93
X93.875Y-170.43
X93.875Y-172.93
X93.875Y-175.43
X93.875Y-177.93
X93.875Y-180.43
X93.875Y-182.93
X93.875Y-185.43
X93.875Y-187.93
X93.875Y-190.43
X93.875Y-192.93
X93.95Y-55.35
X94.05Y-48.6
X94.1Y-44.65
X94.2Y-30.25
X94.2Y-46.75
X94.209Y-107.68
X94.25Y-49.75
X94.45Y-57.0
X94.45Y-58.85
X94.45Y-60.5
X94.599Y-135.349
X94.7Y-45.75
X94.809Y-125.88
X94.95Y-44.0
X94.95Y-47.5
X95.101Y-50.542
X95.175Y-51.207
X95.2Y-59.55
X95.203Y-119.757
X95.297Y-148.317
X95.45Y-31.25
X95.45Y-33.75
X95.45Y-36.25
X95.45Y-61.25
X95.45Y-66.25
X95.45Y-68.75
X95.45Y-71.25
X95.45Y-73.75
X95.45Y-76.25
X95.472Y-101.875
X95.55Y-57.05
X95.609Y-85.38
X95.609Y-90.88
X95.609Y-92.88
X95.609Y-108.68
X95.609Y-122.88
X95.609Y-125.38
X95.609Y-127.88
X95.609Y-130.38
X95.609Y-132.88
X95.7Y-44.75
X95.7Y-48.0
X95.75Y-49.3
X95.823Y-51.262
X95.95Y-59.35
X95.95Y-60.25
X96.1Y-51.85
X96.109Y-135.88
X96.109Y-138.88
X96.2Y-26.0
X96.2Y-28.25
X96.2Y-46.6
X96.2Y-58.25
X96.375Y-160.43
X96.375Y-162.93
X96.375Y-165.43
X96.375Y-167.93
X96.375Y-170.43
X96.375Y-172.93
X96.375Y-175.43
X96.375Y-177.93
X96.375Y-180.43
X96.375Y-182.93
X96.375Y-185.43
X96.375Y-187.93
X96.375Y-192.93
X96.45Y-43.25
X96.559Y-118.365
X96.575Y-190.53
X96.659Y-88.23
X96.7Y-31.25
X96.7Y-33.75
X96.7Y-36.25
X96.7Y-38.75
X96.745Y-52.388
X96.75Y-46.15
X97.022Y-101.875
X97.04Y-144.68
X97.109Y-92.38
X97.125Y-43.775
X97.2Y-21.25
X97.2Y-44.75
X97.3Y-47.05
X97.45Y-27.0
X97.609Y-88.88
X97.609Y-135.88
X97.609Y-138.88
X97.783Y-142.13
X97.797Y-145.817
X97.797Y-148.317
X97.95Y-16.25
X97.95Y-18.75
X97.95Y-23.75
X97.95Y-28.75
X97.95Y-31.25
X97.95Y-33.75
X97.95Y-36.25
X97.95Y-38.75
X97.95Y-41.65
X97.95Y-52.5
X97.95Y-53.15
X97.95Y-61.25
X97.95Y-63.75
X97.95Y-66.25
X97.95Y-68.75
X97.95Y-71.25
X97.95Y-73.75
X97.95Y-76.25
X97.997Y-93.47
X98.109Y-85.38
X98.109Y-122.88
X98.109Y-125.38
X98.109Y-127.88
X98.109Y-130.38
X98.109Y-132.88
X98.309Y-116.88
X98.525Y-57.25
X98.633Y-142.705
X98.65Y-55.5
X98.659Y-137.78
X98.7Y-21.25
X98.7Y-23.5
X98.7Y-25.75
X98.875Y-157.93
X98.875Y-160.43
X98.875Y-162.93
X98.875Y-165.43
X98.875Y-177.93
X98.875Y-180.43
X98.875Y-182.93
X98.875Y-185.43
X98.875Y-190.43
X98.875Y-192.93
X98.909Y-103.68
X99.029Y-52.35
X99.109Y-135.88
X99.45Y-29.25
X99.45Y-31.25
X99.609Y-120.88
X99.609Y-138.88
X99.7Y-57.5
X99.85Y-18.95
X99.85Y-43.25
X99.95Y-27.0
X99.95Y-33.75
X99.95Y-36.25
X99.95Y-38.75
X99.95Y-66.75
X100.05Y-48.75
X100.183Y-141.705
X100.2Y-58.0
X100.297Y-148.1
X100.45Y-16.25
X100.45Y-32.25
X100.45Y-68.75
X100.45Y-71.25
X100.45Y-73.75
X100.45Y-76.25
X100.575Y-133.613
X100.609Y-90.88
X100.609Y-102.88
X100.609Y-117.88
X100.609Y-120.38
X101.15Y-65.2
X101.2Y-58.0
X101.375Y-157.93
X101.375Y-160.43
X101.375Y-182.93
X101.375Y-187.93
X101.375Y-190.43
X101.375Y-192.93
X101.609Y-84.88
X101.609Y-87.38
X101.693Y-140.155
X101.998Y-115.191
X102.159Y-105.03
X102.159Y-121.88
X102.28Y-25.53
X102.28Y-33.15
X102.45Y-58.0
X102.659Y-120.205
X102.95Y-65.25
X102.95Y-66.25
X102.95Y-71.25
X102.95Y-76.25
X103.109Y-88.38
X103.109Y-92.88
X103.109Y-95.38
X103.109Y-97.88
X103.109Y-100.38
X103.109Y-107.88
X103.109Y-135.38
X103.109Y-137.88
X103.609Y-136.63
X103.681Y-58.981
X103.875Y-157.93
X103.875Y-160.43
X103.875Y-182.93
X103.875Y-187.93
X103.875Y-190.43
X103.875Y-192.93
X103.95Y-68.25
X104.175Y-22.725
X104.275Y-21.875
X104.45Y-40.25
X104.45Y-41.25
X104.45Y-42.75
X104.45Y-44.25
X104.45Y-45.25
X104.45Y-48.75
X104.45Y-54.25
X104.45Y-55.25
X104.45Y-57.75
X104.7Y-60.0
X104.747Y-110.82
X104.75Y-50.35
X104.833Y-146.13
X104.897Y-95.37
X105.225Y-133.613
X105.266Y-49.766
X105.297Y-140.817
X105.35Y-57.25
X105.45Y-16.25
X105.45Y-28.75
X105.45Y-31.25
X105.45Y-33.75
X105.45Y-36.25
X105.45Y-42.25
X105.45Y-44.25
X105.45Y-52.25
X105.45Y-54.25
X105.45Y-56.25
X105.45Y-63.75
X105.45Y-75.25
X105.45Y-76.25
X105.609Y-85.38
X105.609Y-90.38
X105.609Y-92.88
X105.609Y-120.38
X105.609Y-127.88
X105.7Y-61.0
X105.95Y-55.25
X105.95Y-58.75
X106.109Y-97.88
X106.159Y-107.88
X106.375Y-190.43
X106.375Y-192.93
X106.45Y-42.75
X106.609Y-114.38
X106.7Y-62.0
X106.95Y-33.75
X106.95Y-36.25
X106.95Y-38.75
X106.95Y-60.25
X107.109Y-90.38
X107.109Y-92.88
X107.109Y-95.88
X107.109Y-100.88
X107.109Y-104.88
X107.109Y-107.88
X107.659Y-116.83
X107.7Y-63.0
X107.75Y-64.95
X107.797Y-140.817
X107.797Y-148.317
X107.95Y-16.25
X107.95Y-18.75
X107.95Y-26.25
X107.95Y-28.75
X107.95Y-31.25
X107.95Y-53.75
X107.95Y-56.25
X107.95Y-58.75
X107.95Y-61.25
X107.95Y-76.25
X108.109Y-85.38
X108.109Y-117.88
X108.109Y-132.88
X108.109Y-135.38
X108.109Y-137.88
X108.375Y-66.75
X108.375Y-69.0
X108.375Y-71.25
X108.388Y-116.851
X108.45Y-23.75
X108.45Y-33.75
X108.45Y-36.25
X108.45Y-38.75
X108.45Y-40.25
X108.609Y-90.38
X108.609Y-92.88
X108.609Y-98.88
X108.609Y-104.88
X108.609Y-107.38
X108.609Y-112.38
X108.609Y-115.38
X108.875Y-157.93
X108.875Y-160.43
X108.875Y-162.93
X108.875Y-185.43
X108.875Y-187.93
X108.875Y-190.43
X108.875Y-192.93
X108.925Y-75.25
X108.95Y-62.25
X109.2Y-64.5
X109.6Y-22.05
X109.95Y-21.25
X109.95Y-23.75
X109.95Y-26.25
X109.95Y-28.75
X109.95Y-63.25
X110.2Y-65.75
X110.297Y-140.817
X110.297Y-143.317
X110.297Y-145.817
X110.45Y-16.25
X110.45Y-36.25
X110.45Y-38.75
X110.45Y-40.25
X110.45Y-51.75
X110.45Y-53.75
X110.45Y-56.25
X110.45Y-61.25
X110.45Y-75.25
X110.45Y-76.25
X110.609Y-85.38
X110.609Y-110.38
X110.609Y-115.38
X110.609Y-117.88
X110.609Y-132.88
X110.609Y-135.38
X110.925Y-165.717
X110.95Y-31.25
X111.109Y-90.38
X111.109Y-92.88
X111.375Y-157.93
X111.375Y-162.93
X111.375Y-182.93
X111.375Y-187.93
X111.375Y-190.43
X111.45Y-63.75
X111.875Y-166.23
X111.95Y-18.75
X111.95Y-21.25
X111.95Y-23.75
X111.95Y-26.25
X111.95Y-28.75
X111.95Y-67.85
X111.95Y-74.75
X111.962Y-64.575
X111.962Y-66.775
X111.962Y-68.975
X111.962Y-70.075
X111.962Y-71.175
X111.962Y-72.275
X112.797Y-140.817
X112.797Y-143.317
X112.797Y-145.817
X112.95Y-18.75
X112.95Y-21.25
X112.95Y-23.75
X112.95Y-26.25
X112.95Y-28.75
X112.95Y-31.25
X112.95Y-33.75
X112.95Y-36.25
X112.95Y-38.75
X112.95Y-41.25
X112.95Y-43.75
X112.95Y-46.25
X112.95Y-48.75
X112.95Y-51.25
X112.95Y-53.75
X112.95Y-56.25
X112.95Y-58.75
X112.95Y-63.75
X113.109Y-87.88
X113.109Y-90.38
X113.109Y-92.88
X113.109Y-95.38
X113.109Y-97.88
X113.109Y-100.38
X113.109Y-102.88
X113.109Y-105.38
X113.109Y-107.88
X113.109Y-110.38
X113.109Y-112.88
X113.109Y-115.38
X113.109Y-117.88
X113.109Y-120.38
X113.109Y-122.88
X113.109Y-125.38
X113.109Y-127.88
X113.109Y-130.38
X113.109Y-132.88
X113.109Y-135.38
X113.109Y-137.88
X113.15Y-61.05
X121.015Y-41.87
X121.05Y-111.925
X121.575Y-101.1
X121.575Y-106.1
X121.575Y-108.6
X121.575Y-123.6
X121.575Y-126.1
X121.575Y-131.1
X121.575Y-133.6
X121.575Y-136.1
X121.575Y-138.6
X121.575Y-141.1
X121.575Y-143.6
X121.575Y-146.1
X121.615Y-74.52
X121.615Y-78.02
X121.623Y-167.05
X121.635Y-17.917
X121.635Y-24.917
X121.635Y-27.417
X121.635Y-29.917
X121.635Y-37.417
X121.635Y-39.917
X121.635Y-52.417
X121.635Y-54.917
X121.635Y-59.917
X121.635Y-62.417
X121.635Y-64.917
X121.635Y-67.417
X121.635Y-69.917
X121.675Y-41.323
X121.825Y-111.35
X122.075Y-81.88
X122.075Y-86.96
X122.075Y-89.5
X122.075Y-92.04
X122.425Y-111.35
X123.065Y-51.445
X123.075Y-111.35
X123.144Y-121.405
X123.625Y-111.35
X124.075Y-101.1
X124.075Y-103.6
X124.075Y-106.1
X124.075Y-108.6
X124.075Y-123.6
X124.075Y-126.1
X124.075Y-128.6
X124.075Y-131.1
X124.075Y-133.6
X124.075Y-136.1
X124.075Y-138.6
X124.075Y-141.1
X124.075Y-143.6
X124.075Y-146.1
X124.123Y-167.05
X124.135Y-14.917
X124.135Y-17.417
X124.135Y-22.417
X124.135Y-41.323
X124.135Y-52.417
X124.135Y-69.917
X124.325Y-111.35
X124.365Y-74.52
X124.365Y-77.12
X124.615Y-81.88
X124.615Y-86.96
X124.615Y-89.5
X124.615Y-92.04
X125.115Y-42.12
X125.2Y-112.075
X125.515Y-55.217
X125.825Y-111.35
X126.035Y-66.817
X126.075Y-121.025
X126.135Y-17.917
X126.575Y-101.1
X126.575Y-103.6
X126.575Y-106.1
X126.575Y-108.6
X126.575Y-123.6
X126.575Y-126.1
X126.575Y-128.6
X126.575Y-131.1
X126.575Y-133.6
X126.575Y-136.1
X126.575Y-138.6
X126.575Y-141.1
X126.575Y-143.6
X126.575Y-146.1
X126.635Y-14.917
X126.635Y-24.917
X126.635Y-27.417
X126.635Y-34.917
X126.635Y-37.417
X126.635Y-39.917
X126.635Y-47.417
X126.635Y-49.917
X126.735Y-67.017
X126.753Y-178.4
X126.928Y-182.4
X127.115Y-72.02
X127.155Y-79.34
X127.155Y-81.88
X127.155Y-84.42
X127.155Y-89.5
X127.155Y-92.04
X127.535Y-66.817
X127.575Y-116.1
X127.575Y-119.1
X127.575Y-120.85
X127.99Y-55.067
X128.315Y-76.12
X128.635Y-29.967
X129.075Y-101.1
X129.075Y-103.6
X129.075Y-106.1
X129.075Y-108.6
X129.075Y-113.6
X129.075Y-123.6
X129.075Y-126.1
X129.075Y-128.6
X129.075Y-131.1
X129.075Y-133.6
X129.075Y-136.1
X129.075Y-138.6
X129.075Y-141.1
X129.075Y-143.6
X129.075Y-146.1
X129.115Y-70.02
X129.135Y-14.917
X129.135Y-24.917
X129.135Y-67.417
X129.635Y-21.917
X129.695Y-89.5
X129.695Y-92.04
X130.075Y-119.1
X130.075Y-120.85
X130.2Y-88.17
X130.435Y-40.617
X130.635Y-17.956
X130.825Y-134.35
X130.9Y-88.37
X131.135Y-41.117
X131.45Y-118.725
X131.575Y-101.1
X131.575Y-103.6
X131.575Y-106.1
X131.575Y-111.1
X131.575Y-113.6
X131.575Y-116.1
X131.575Y-123.6
X131.575Y-126.1
X131.575Y-128.6
X131.575Y-131.1
X131.575Y-133.6
X131.575Y-141.1
X131.575Y-143.6
X131.575Y-146.1
X131.615Y-70.02
X131.635Y-14.917
X131.635Y-17.417
X131.635Y-44.917
X131.635Y-67.417
X131.7Y-88.17
X131.935Y-40.617
X132.235Y-86.96
X132.235Y-89.5
X132.235Y-92.04
X132.325Y-138.6
X132.36Y-29.167
X133.115Y-73.02
X133.365Y-76.02
X133.792Y-135.017
X133.865Y-67.27
X134.075Y-101.1
X134.075Y-103.6
X134.075Y-106.1
X134.075Y-108.6
X134.075Y-111.1
X134.075Y-113.6
X134.075Y-116.1
X134.075Y-119.1
X134.075Y-126.1
X134.075Y-128.6
X134.075Y-131.1
X134.075Y-137.1
X134.075Y-138.6
X134.075Y-141.1
X134.075Y-143.6
X134.075Y-146.1
X134.135Y-19.917
X134.135Y-22.417
X134.135Y-39.917
X134.135Y-44.917
X134.135Y-47.417
X134.3Y-125.04
X134.575Y-123.125
X134.615Y-87.77
X134.775Y-71.72
X134.775Y-74.26
X134.775Y-81.88
X134.775Y-89.5
X134.775Y-92.04
X135.325Y-108.6
X135.325Y-133.6
X135.85Y-123.9
X135.885Y-67.267
X136.075Y-109.6
X136.075Y-119.1
X136.075Y-122.5
X136.575Y-101.1
X136.575Y-103.6
X136.575Y-126.1
X136.575Y-128.6
X136.575Y-136.1
X136.575Y-138.6
X136.575Y-141.1
X136.575Y-143.6
X136.575Y-146.1
X136.635Y-14.917
X136.635Y-22.417
X136.635Y-34.917
X136.635Y-39.917
X136.635Y-44.917
X136.635Y-47.417
X136.635Y-49.917
X136.635Y-52.417
X136.635Y-54.917
X136.635Y-57.417
X136.635Y-59.917
X136.825Y-106.35
X136.835Y-18.817
X136.838Y-107.837
X137.075Y-106.737
X137.075Y-120.85
X137.081Y-122.344
X137.315Y-81.88
X137.315Y-89.5
X137.315Y-92.04
X137.365Y-87.77
X137.515Y-80.12
X137.575Y-106.737
X137.575Y-131.35
X138.075Y-116.1
X138.175Y-113.4
X138.221Y-120.704
X138.425Y-124.4
X138.575Y-108.1
X138.825Y-122.262
X138.825Y-126.1
X138.825Y-128.6
X138.996Y-119.979
X139.075Y-101.1
X139.075Y-103.6
X139.075Y-106.1
X139.075Y-118.1
X139.075Y-133.6
X139.075Y-136.1
X139.075Y-138.6
X139.075Y-141.1
X139.075Y-143.6
X139.075Y-146.1
X139.115Y-68.02
X139.135Y-14.917
X139.135Y-34.917
X139.135Y-42.417
X139.135Y-44.917
X139.135Y-47.417
X139.135Y-49.917
X139.135Y-52.417
X139.135Y-54.917
X139.135Y-57.417
X139.135Y-59.917
X139.135Y-62.417
X139.841Y-81.856
X139.855Y-71.72
X139.855Y-74.26
X139.855Y-76.8
X139.855Y-89.5
X139.855Y-92.04
X140.115Y-66.64
X140.115Y-87.52
X140.325Y-120.6
X140.575Y-117.1
X140.865Y-68.02
X141.575Y-101.1
X141.575Y-103.6
X141.575Y-106.1
X141.575Y-108.6
X141.575Y-111.1
X141.575Y-113.6
X141.575Y-118.6
X141.575Y-121.1
X141.575Y-123.6
X141.575Y-126.1
X141.575Y-128.6
X141.575Y-131.1
X141.575Y-136.1
X141.575Y-138.6
X141.575Y-141.1
X141.575Y-143.6
X141.575Y-146.1
X141.615Y-71.52
X141.635Y-14.917
X141.635Y-24.917
X141.635Y-29.917
X141.635Y-39.917
X141.635Y-57.417
X141.635Y-64.917
X141.865Y-74.27
X142.395Y-66.64
X142.395Y-76.8
X142.395Y-79.34
X142.395Y-81.88
X142.395Y-84.42
X142.395Y-86.96
X142.395Y-89.5
X142.395Y-92.04
X142.785Y-21.967
X142.835Y-18.817
X143.135Y-60.317
X144.075Y-101.1
X144.075Y-103.6
X144.075Y-106.1
X144.075Y-108.6
X144.075Y-111.1
X144.075Y-113.6
X144.075Y-116.1
X144.075Y-118.6
X144.075Y-121.1
X144.075Y-123.6
X144.075Y-126.1
X144.075Y-128.6
X144.075Y-133.6
X144.075Y-141.1
X144.075Y-143.6
X144.075Y-146.1
X144.135Y-14.917
X144.135Y-62.417
X144.135Y-64.917
X144.935Y-66.64
X144.935Y-76.8
X144.935Y-79.34
X144.935Y-81.88
X144.935Y-84.42
X144.935Y-86.96
X144.935Y-89.5
X146.575Y-101.1
X146.575Y-103.6
X146.575Y-106.1
X146.575Y-108.6
X146.575Y-111.1
X146.575Y-113.6
X146.575Y-116.1
X146.575Y-118.6
X146.575Y-121.1
X146.575Y-123.6
X146.575Y-126.1
X146.575Y-128.6
X146.575Y-131.1
X146.575Y-136.1
X146.575Y-141.1
X146.575Y-143.6
X146.575Y-146.1
X146.635Y-14.917
X146.635Y-59.917
X146.835Y-27.667
X147.475Y-61.56
X147.475Y-64.1
X147.475Y-66.64
X147.475Y-84.42
X147.475Y-86.96
X147.475Y-89.5
X147.475Y-92.04
X148.05Y-137.575
X148.253Y-158.4
X148.253Y-162.4
X148.285Y-36.667
X149.075Y-101.1
X149.075Y-103.6
X149.075Y-106.1
X149.075Y-108.6
X149.075Y-111.1
X149.075Y-113.6
X149.075Y-116.1
X149.075Y-121.1
X149.075Y-123.6
X149.075Y-126.1
X149.075Y-128.6
X149.075Y-131.1
X149.075Y-133.6
X149.075Y-138.6
X149.075Y-141.1
X149.075Y-143.6
X149.075Y-146.1
X149.135Y-14.917
X149.135Y-27.417
X149.135Y-29.917
X149.135Y-32.417
X149.135Y-37.417
X149.135Y-39.917
X149.135Y-42.417
X149.135Y-59.917
X149.575Y-119.6
X150.015Y-61.56
X150.015Y-64.1
X150.015Y-66.64
X150.015Y-79.34
X150.015Y-81.88
X150.015Y-84.42
X150.015Y-86.96
X150.015Y-89.5
X150.015Y-92.04
X150.05Y-139.575
X150.135Y-46.692
X150.835Y-18.817
X151.575Y-101.1
X151.575Y-103.6
X151.575Y-106.1
X151.575Y-108.6
X151.575Y-111.1
X151.575Y-113.6
X151.575Y-116.1
X151.575Y-118.6
X151.575Y-121.1
X151.575Y-123.6
X151.575Y-126.1
X151.575Y-128.6
X151.575Y-131.1
X151.575Y-133.6
X151.575Y-136.1
X151.575Y-138.6
X151.575Y-141.1
X151.575Y-143.6
X151.575Y-146.1
X151.635Y-14.917
X151.635Y-17.417
X151.635Y-19.917
X151.635Y-22.417
X151.635Y-24.917
X151.635Y-27.417
X151.635Y-29.917
X151.635Y-32.417
X151.635Y-34.917
X151.635Y-37.417
X151.635Y-39.917
X151.635Y-42.417
X151.635Y-59.917
X152.555Y-61.56
X152.555Y-64.1
X152.555Y-66.64
X152.555Y-84.42
X152.555Y-86.96
X152.555Y-89.5
X152.555Y-92.04
X154.075Y-101.1
X154.075Y-103.6
X154.075Y-106.1
X154.075Y-108.6
X154.075Y-123.6
X154.075Y-126.1
X154.075Y-128.6
X154.075Y-131.1
X154.075Y-133.6
X154.075Y-136.1
X154.075Y-138.6
X154.075Y-141.1
X154.075Y-143.6
X154.075Y-146.1
X154.135Y-19.917
X154.135Y-22.417
X154.135Y-24.917
X154.135Y-27.417
X154.135Y-29.917
X154.135Y-32.417
X154.135Y-34.917
X154.135Y-37.417
X154.135Y-39.917
X154.135Y-52.417
X154.135Y-54.917
X154.135Y-57.417
X154.135Y-59.917
X155.095Y-61.56
X155.095Y-64.1
X155.095Y-66.64
X155.095Y-79.34
X155.095Y-81.88
X155.095Y-84.42
X155.095Y-86.96
X156.115Y-68.52
X156.575Y-101.1
X156.575Y-106.1
X156.575Y-108.6
X156.575Y-123.6
X156.575Y-126.1
X156.575Y-131.1
X156.575Y-133.6
X156.575Y-136.1
X156.575Y-138.6
X156.575Y-141.1
X156.575Y-143.6
X156.575Y-146.1
X156.635Y-14.917
X156.635Y-17.417
X156.635Y-19.917
X156.635Y-22.417
X156.635Y-24.917
X156.635Y-27.417
X156.635Y-29.917
X156.635Y-32.417
X156.635Y-37.417
X156.635Y-39.917
X156.635Y-52.417
X156.635Y-54.917
X156.635Y-59.917
X157.635Y-61.56
X157.635Y-64.1
X157.635Y-66.64
X157.635Y-69.18
X157.635Y-74.26
X157.635Y-79.34
X157.635Y-81.88
X157.635Y-84.42
X157.635Y-86.96
X157.635Y-89.5
T3
X125.57Y-59.217
X125.57Y-60.517
X126.87Y-59.217
X126.87Y-60.517
X128.17Y-59.217
X128.17Y-60.517
X129.4Y-80.77
X129.4Y-82.07
X129.47Y-59.217
X129.47Y-60.517
X130.035Y-33.317
X130.035Y-34.617
X130.7Y-80.77
X130.7Y-82.07
X131.335Y-33.317
X131.335Y-34.617
X132.0Y-80.77
X132.0Y-82.07
X132.635Y-33.317
X132.635Y-34.617
X133.3Y-80.77
X133.3Y-82.07
X133.935Y-33.317
X133.935Y-34.617
T4
X105.125Y-20.275
X105.125Y-21.125
X105.125Y-21.975
X105.125Y-22.825
X105.125Y-23.675
X105.125Y-24.525
X105.125Y-25.375
X105.125Y-26.225
X106.475Y-20.275
X106.475Y-21.125
X106.475Y-21.975
X106.475Y-22.825
X106.475Y-23.675
X106.475Y-24.525
X106.475Y-25.375
X106.475Y-26.225
T5
X77.45Y-62.0
X77.975Y-65.75
X77.975Y-66.75
X77.975Y-67.75
X77.975Y-68.75
X77.975Y-69.75
X77.975Y-70.75
X78.45Y-62.0
T7
X104.759Y-88.13
X107.259Y-88.13
X109.759Y-88.13
T8
X81.875Y-158.93
X81.875Y-161.47
X81.875Y-164.01
X81.875Y-166.55
X81.875Y-169.09
X81.875Y-171.63
X81.875Y-174.17
X81.875Y-176.71
X81.875Y-179.25
X81.875Y-181.79
X81.875Y-184.33
X81.875Y-186.87
X92.075Y-158.93
X92.075Y-161.47
X92.075Y-164.01
X92.075Y-166.55
X92.075Y-169.09
X92.075Y-171.63
X92.075Y-174.17
X92.075Y-176.71
X92.075Y-179.25
X92.075Y-181.79
X92.075Y-184.33
X92.075Y-186.87
X95.675Y-158.93
X95.675Y-161.47
X95.675Y-164.01
X95.675Y-166.55
X95.675Y-169.09
X95.675Y-171.63
X95.675Y-174.17
X95.675Y-176.71
X95.675Y-179.25
X95.675Y-181.79
X95.675Y-184.33
X95.675Y-186.87
X95.675Y-189.41
X105.875Y-158.93
X105.875Y-161.47
X105.875Y-164.01
X105.875Y-166.55
X105.875Y-169.09
X105.875Y-171.63
X105.875Y-174.17
X105.875Y-176.71
X105.875Y-179.25
X105.875Y-181.79
X105.875Y-184.33
X105.875Y-186.87
X131.118Y-157.4
X131.118Y-161.4
X131.118Y-165.4
X131.118Y-169.4
X131.118Y-173.4
X131.118Y-177.4
X131.118Y-181.4
X133.658Y-157.4
X133.658Y-161.4
X133.658Y-165.4
X133.658Y-169.4
X133.658Y-173.4
X133.658Y-177.4
X133.658Y-181.4
X136.198Y-157.4
X136.198Y-161.4
X136.198Y-165.4
X136.198Y-169.4
X136.198Y-173.4
X136.198Y-177.4
X136.198Y-181.4
X140.573Y-157.4
X140.573Y-161.4
X140.578Y-165.4
X140.578Y-169.4
X140.578Y-173.4
X140.578Y-177.4
X140.578Y-181.4
X143.113Y-157.4
X143.113Y-161.4
X143.118Y-165.4
X143.118Y-169.4
X143.118Y-173.4
X143.118Y-177.4
X143.118Y-181.4
X144.135Y-90.412
X145.653Y-157.4
X145.653Y-161.4
X145.658Y-165.4
X145.658Y-169.4
X145.658Y-173.4
X145.658Y-177.4
X145.658Y-181.4
X155.135Y-90.412
T9
X147.135Y-80.412
X152.135Y-80.412
T6
G00X105.355Y-18.925
M15
G01X106.855Y-18.925
M16
G05
G00X105.355Y-27.575
M15
G01X106.855Y-27.575
M16
G05
G00X109.085Y-18.925
M15
G01X109.885Y-18.925
M16
G05
G00X109.085Y-27.575
M15
G01X109.885Y-27.575
M16
G05
M30
