%TF.GenerationSoftware,KiCad,Pcbnew,10.0.1*%
%TF.CreationDate,2026-06-19T14:17:25-04:00*%
%TF.ProjectId,SWARM_PCB_Rev_2,53574152-4d5f-4504-9342-5f5265765f32,rev?*%
%TF.SameCoordinates,Original*%
%TF.FileFunction,Legend,Bot*%
%TF.FilePolarity,Positive*%
%FSLAX46Y46*%
G04 Gerber Fmt 4.6, Leading zero omitted, Abs format (unit mm)*
G04 Created by KiCad (PCBNEW 10.0.1) date 2026-06-19 14:17:25*
%MOMM*%
%LPD*%
G01*
G04 APERTURE LIST*
%ADD10C,0.100000*%
%ADD11C,0.127000*%
%ADD12C,0.200000*%
%ADD13C,0.120000*%
G04 APERTURE END LIST*
D10*
X155687142Y-108841764D02*
X155687142Y-109377478D01*
X155687142Y-109377478D02*
X155722857Y-109484621D01*
X155722857Y-109484621D02*
X155794285Y-109556050D01*
X155794285Y-109556050D02*
X155901428Y-109591764D01*
X155901428Y-109591764D02*
X155972857Y-109591764D01*
X154937142Y-109591764D02*
X155365713Y-109591764D01*
X155151428Y-109591764D02*
X155151428Y-108841764D01*
X155151428Y-108841764D02*
X155222856Y-108948907D01*
X155222856Y-108948907D02*
X155294285Y-109020335D01*
X155294285Y-109020335D02*
X155365713Y-109056050D01*
X154222856Y-109591764D02*
X154651427Y-109591764D01*
X154437142Y-109591764D02*
X154437142Y-108841764D01*
X154437142Y-108841764D02*
X154508570Y-108948907D01*
X154508570Y-108948907D02*
X154579999Y-109020335D01*
X154579999Y-109020335D02*
X154651427Y-109056050D01*
X93837873Y-106721385D02*
X93837873Y-105971385D01*
X93837873Y-106685671D02*
X93909301Y-106721385D01*
X93909301Y-106721385D02*
X94052158Y-106721385D01*
X94052158Y-106721385D02*
X94123587Y-106685671D01*
X94123587Y-106685671D02*
X94159301Y-106649956D01*
X94159301Y-106649956D02*
X94195015Y-106578528D01*
X94195015Y-106578528D02*
X94195015Y-106364242D01*
X94195015Y-106364242D02*
X94159301Y-106292813D01*
X94159301Y-106292813D02*
X94123587Y-106257099D01*
X94123587Y-106257099D02*
X94052158Y-106221385D01*
X94052158Y-106221385D02*
X93909301Y-106221385D01*
X93909301Y-106221385D02*
X93837873Y-106257099D01*
X93052159Y-106649956D02*
X93087873Y-106685671D01*
X93087873Y-106685671D02*
X93195016Y-106721385D01*
X93195016Y-106721385D02*
X93266444Y-106721385D01*
X93266444Y-106721385D02*
X93373587Y-106685671D01*
X93373587Y-106685671D02*
X93445016Y-106614242D01*
X93445016Y-106614242D02*
X93480730Y-106542813D01*
X93480730Y-106542813D02*
X93516444Y-106399956D01*
X93516444Y-106399956D02*
X93516444Y-106292813D01*
X93516444Y-106292813D02*
X93480730Y-106149956D01*
X93480730Y-106149956D02*
X93445016Y-106078528D01*
X93445016Y-106078528D02*
X93373587Y-106007099D01*
X93373587Y-106007099D02*
X93266444Y-105971385D01*
X93266444Y-105971385D02*
X93195016Y-105971385D01*
X93195016Y-105971385D02*
X93087873Y-106007099D01*
X93087873Y-106007099D02*
X93052159Y-106042813D01*
X92337873Y-106721385D02*
X92766444Y-106721385D01*
X92552159Y-106721385D02*
X92552159Y-105971385D01*
X92552159Y-105971385D02*
X92623587Y-106078528D01*
X92623587Y-106078528D02*
X92695016Y-106149956D01*
X92695016Y-106149956D02*
X92766444Y-106185671D01*
X91695016Y-105971385D02*
X91837873Y-105971385D01*
X91837873Y-105971385D02*
X91909301Y-106007099D01*
X91909301Y-106007099D02*
X91945016Y-106042813D01*
X91945016Y-106042813D02*
X92016444Y-106149956D01*
X92016444Y-106149956D02*
X92052158Y-106292813D01*
X92052158Y-106292813D02*
X92052158Y-106578528D01*
X92052158Y-106578528D02*
X92016444Y-106649956D01*
X92016444Y-106649956D02*
X91980730Y-106685671D01*
X91980730Y-106685671D02*
X91909301Y-106721385D01*
X91909301Y-106721385D02*
X91766444Y-106721385D01*
X91766444Y-106721385D02*
X91695016Y-106685671D01*
X91695016Y-106685671D02*
X91659301Y-106649956D01*
X91659301Y-106649956D02*
X91623587Y-106578528D01*
X91623587Y-106578528D02*
X91623587Y-106399956D01*
X91623587Y-106399956D02*
X91659301Y-106328528D01*
X91659301Y-106328528D02*
X91695016Y-106292813D01*
X91695016Y-106292813D02*
X91766444Y-106257099D01*
X91766444Y-106257099D02*
X91909301Y-106257099D01*
X91909301Y-106257099D02*
X91980730Y-106292813D01*
X91980730Y-106292813D02*
X92016444Y-106328528D01*
X92016444Y-106328528D02*
X92052158Y-106399956D01*
X106830730Y-121740135D02*
X106830730Y-120990135D01*
X106830730Y-121704421D02*
X106902158Y-121740135D01*
X106902158Y-121740135D02*
X107045015Y-121740135D01*
X107045015Y-121740135D02*
X107116444Y-121704421D01*
X107116444Y-121704421D02*
X107152158Y-121668706D01*
X107152158Y-121668706D02*
X107187872Y-121597278D01*
X107187872Y-121597278D02*
X107187872Y-121382992D01*
X107187872Y-121382992D02*
X107152158Y-121311563D01*
X107152158Y-121311563D02*
X107116444Y-121275849D01*
X107116444Y-121275849D02*
X107045015Y-121240135D01*
X107045015Y-121240135D02*
X106902158Y-121240135D01*
X106902158Y-121240135D02*
X106830730Y-121275849D01*
X106045016Y-121740135D02*
X106295016Y-121382992D01*
X106473587Y-121740135D02*
X106473587Y-120990135D01*
X106473587Y-120990135D02*
X106187873Y-120990135D01*
X106187873Y-120990135D02*
X106116444Y-121025849D01*
X106116444Y-121025849D02*
X106080730Y-121061563D01*
X106080730Y-121061563D02*
X106045016Y-121132992D01*
X106045016Y-121132992D02*
X106045016Y-121240135D01*
X106045016Y-121240135D02*
X106080730Y-121311563D01*
X106080730Y-121311563D02*
X106116444Y-121347278D01*
X106116444Y-121347278D02*
X106187873Y-121382992D01*
X106187873Y-121382992D02*
X106473587Y-121382992D01*
X105795016Y-120990135D02*
X105295016Y-120990135D01*
X105295016Y-120990135D02*
X105616444Y-121740135D01*
X100285373Y-102185635D02*
X100285373Y-101435635D01*
X100285373Y-102149921D02*
X100356801Y-102185635D01*
X100356801Y-102185635D02*
X100499658Y-102185635D01*
X100499658Y-102185635D02*
X100571087Y-102149921D01*
X100571087Y-102149921D02*
X100606801Y-102114206D01*
X100606801Y-102114206D02*
X100642515Y-102042778D01*
X100642515Y-102042778D02*
X100642515Y-101828492D01*
X100642515Y-101828492D02*
X100606801Y-101757063D01*
X100606801Y-101757063D02*
X100571087Y-101721349D01*
X100571087Y-101721349D02*
X100499658Y-101685635D01*
X100499658Y-101685635D02*
X100356801Y-101685635D01*
X100356801Y-101685635D02*
X100285373Y-101721349D01*
X99499659Y-102114206D02*
X99535373Y-102149921D01*
X99535373Y-102149921D02*
X99642516Y-102185635D01*
X99642516Y-102185635D02*
X99713944Y-102185635D01*
X99713944Y-102185635D02*
X99821087Y-102149921D01*
X99821087Y-102149921D02*
X99892516Y-102078492D01*
X99892516Y-102078492D02*
X99928230Y-102007063D01*
X99928230Y-102007063D02*
X99963944Y-101864206D01*
X99963944Y-101864206D02*
X99963944Y-101757063D01*
X99963944Y-101757063D02*
X99928230Y-101614206D01*
X99928230Y-101614206D02*
X99892516Y-101542778D01*
X99892516Y-101542778D02*
X99821087Y-101471349D01*
X99821087Y-101471349D02*
X99713944Y-101435635D01*
X99713944Y-101435635D02*
X99642516Y-101435635D01*
X99642516Y-101435635D02*
X99535373Y-101471349D01*
X99535373Y-101471349D02*
X99499659Y-101507063D01*
X98785373Y-102185635D02*
X99213944Y-102185635D01*
X98999659Y-102185635D02*
X98999659Y-101435635D01*
X98999659Y-101435635D02*
X99071087Y-101542778D01*
X99071087Y-101542778D02*
X99142516Y-101614206D01*
X99142516Y-101614206D02*
X99213944Y-101649921D01*
X98106801Y-101435635D02*
X98463944Y-101435635D01*
X98463944Y-101435635D02*
X98499658Y-101792778D01*
X98499658Y-101792778D02*
X98463944Y-101757063D01*
X98463944Y-101757063D02*
X98392516Y-101721349D01*
X98392516Y-101721349D02*
X98213944Y-101721349D01*
X98213944Y-101721349D02*
X98142516Y-101757063D01*
X98142516Y-101757063D02*
X98106801Y-101792778D01*
X98106801Y-101792778D02*
X98071087Y-101864206D01*
X98071087Y-101864206D02*
X98071087Y-102042778D01*
X98071087Y-102042778D02*
X98106801Y-102114206D01*
X98106801Y-102114206D02*
X98142516Y-102149921D01*
X98142516Y-102149921D02*
X98213944Y-102185635D01*
X98213944Y-102185635D02*
X98392516Y-102185635D01*
X98392516Y-102185635D02*
X98463944Y-102149921D01*
X98463944Y-102149921D02*
X98499658Y-102114206D01*
X93887873Y-104171385D02*
X93887873Y-103421385D01*
X93887873Y-104135671D02*
X93959301Y-104171385D01*
X93959301Y-104171385D02*
X94102158Y-104171385D01*
X94102158Y-104171385D02*
X94173587Y-104135671D01*
X94173587Y-104135671D02*
X94209301Y-104099956D01*
X94209301Y-104099956D02*
X94245015Y-104028528D01*
X94245015Y-104028528D02*
X94245015Y-103814242D01*
X94245015Y-103814242D02*
X94209301Y-103742813D01*
X94209301Y-103742813D02*
X94173587Y-103707099D01*
X94173587Y-103707099D02*
X94102158Y-103671385D01*
X94102158Y-103671385D02*
X93959301Y-103671385D01*
X93959301Y-103671385D02*
X93887873Y-103707099D01*
X93102159Y-104099956D02*
X93137873Y-104135671D01*
X93137873Y-104135671D02*
X93245016Y-104171385D01*
X93245016Y-104171385D02*
X93316444Y-104171385D01*
X93316444Y-104171385D02*
X93423587Y-104135671D01*
X93423587Y-104135671D02*
X93495016Y-104064242D01*
X93495016Y-104064242D02*
X93530730Y-103992813D01*
X93530730Y-103992813D02*
X93566444Y-103849956D01*
X93566444Y-103849956D02*
X93566444Y-103742813D01*
X93566444Y-103742813D02*
X93530730Y-103599956D01*
X93530730Y-103599956D02*
X93495016Y-103528528D01*
X93495016Y-103528528D02*
X93423587Y-103457099D01*
X93423587Y-103457099D02*
X93316444Y-103421385D01*
X93316444Y-103421385D02*
X93245016Y-103421385D01*
X93245016Y-103421385D02*
X93137873Y-103457099D01*
X93137873Y-103457099D02*
X93102159Y-103492813D01*
X92387873Y-104171385D02*
X92816444Y-104171385D01*
X92602159Y-104171385D02*
X92602159Y-103421385D01*
X92602159Y-103421385D02*
X92673587Y-103528528D01*
X92673587Y-103528528D02*
X92745016Y-103599956D01*
X92745016Y-103599956D02*
X92816444Y-103635671D01*
X91745016Y-103671385D02*
X91745016Y-104171385D01*
X91923587Y-103385671D02*
X92102158Y-103921385D01*
X92102158Y-103921385D02*
X91637873Y-103921385D01*
X110571444Y-118221385D02*
X110571444Y-118757099D01*
X110571444Y-118757099D02*
X110607159Y-118864242D01*
X110607159Y-118864242D02*
X110678587Y-118935671D01*
X110678587Y-118935671D02*
X110785730Y-118971385D01*
X110785730Y-118971385D02*
X110857159Y-118971385D01*
X109821444Y-118971385D02*
X110250015Y-118971385D01*
X110035730Y-118971385D02*
X110035730Y-118221385D01*
X110035730Y-118221385D02*
X110107158Y-118328528D01*
X110107158Y-118328528D02*
X110178587Y-118399956D01*
X110178587Y-118399956D02*
X110250015Y-118435671D01*
X109464301Y-118971385D02*
X109321444Y-118971385D01*
X109321444Y-118971385D02*
X109250015Y-118935671D01*
X109250015Y-118935671D02*
X109214301Y-118899956D01*
X109214301Y-118899956D02*
X109142872Y-118792813D01*
X109142872Y-118792813D02*
X109107158Y-118649956D01*
X109107158Y-118649956D02*
X109107158Y-118364242D01*
X109107158Y-118364242D02*
X109142872Y-118292813D01*
X109142872Y-118292813D02*
X109178587Y-118257099D01*
X109178587Y-118257099D02*
X109250015Y-118221385D01*
X109250015Y-118221385D02*
X109392872Y-118221385D01*
X109392872Y-118221385D02*
X109464301Y-118257099D01*
X109464301Y-118257099D02*
X109500015Y-118292813D01*
X109500015Y-118292813D02*
X109535729Y-118364242D01*
X109535729Y-118364242D02*
X109535729Y-118542813D01*
X109535729Y-118542813D02*
X109500015Y-118614242D01*
X109500015Y-118614242D02*
X109464301Y-118649956D01*
X109464301Y-118649956D02*
X109392872Y-118685671D01*
X109392872Y-118685671D02*
X109250015Y-118685671D01*
X109250015Y-118685671D02*
X109178587Y-118649956D01*
X109178587Y-118649956D02*
X109142872Y-118614242D01*
X109142872Y-118614242D02*
X109107158Y-118542813D01*
X110487142Y-165821385D02*
X110487142Y-166357099D01*
X110487142Y-166357099D02*
X110522857Y-166464242D01*
X110522857Y-166464242D02*
X110594285Y-166535671D01*
X110594285Y-166535671D02*
X110701428Y-166571385D01*
X110701428Y-166571385D02*
X110772857Y-166571385D01*
X110165713Y-165892813D02*
X110129999Y-165857099D01*
X110129999Y-165857099D02*
X110058571Y-165821385D01*
X110058571Y-165821385D02*
X109879999Y-165821385D01*
X109879999Y-165821385D02*
X109808571Y-165857099D01*
X109808571Y-165857099D02*
X109772856Y-165892813D01*
X109772856Y-165892813D02*
X109737142Y-165964242D01*
X109737142Y-165964242D02*
X109737142Y-166035671D01*
X109737142Y-166035671D02*
X109772856Y-166142813D01*
X109772856Y-166142813D02*
X110201428Y-166571385D01*
X110201428Y-166571385D02*
X109737142Y-166571385D01*
X109487142Y-165821385D02*
X109022856Y-165821385D01*
X109022856Y-165821385D02*
X109272856Y-166107099D01*
X109272856Y-166107099D02*
X109165713Y-166107099D01*
X109165713Y-166107099D02*
X109094285Y-166142813D01*
X109094285Y-166142813D02*
X109058570Y-166178528D01*
X109058570Y-166178528D02*
X109022856Y-166249956D01*
X109022856Y-166249956D02*
X109022856Y-166428528D01*
X109022856Y-166428528D02*
X109058570Y-166499956D01*
X109058570Y-166499956D02*
X109094285Y-166535671D01*
X109094285Y-166535671D02*
X109165713Y-166571385D01*
X109165713Y-166571385D02*
X109379999Y-166571385D01*
X109379999Y-166571385D02*
X109451427Y-166535671D01*
X109451427Y-166535671D02*
X109487142Y-166499956D01*
X105080730Y-119740135D02*
X105080730Y-118990135D01*
X105080730Y-119704421D02*
X105152158Y-119740135D01*
X105152158Y-119740135D02*
X105295015Y-119740135D01*
X105295015Y-119740135D02*
X105366444Y-119704421D01*
X105366444Y-119704421D02*
X105402158Y-119668706D01*
X105402158Y-119668706D02*
X105437872Y-119597278D01*
X105437872Y-119597278D02*
X105437872Y-119382992D01*
X105437872Y-119382992D02*
X105402158Y-119311563D01*
X105402158Y-119311563D02*
X105366444Y-119275849D01*
X105366444Y-119275849D02*
X105295015Y-119240135D01*
X105295015Y-119240135D02*
X105152158Y-119240135D01*
X105152158Y-119240135D02*
X105080730Y-119275849D01*
X104295016Y-119740135D02*
X104545016Y-119382992D01*
X104723587Y-119740135D02*
X104723587Y-118990135D01*
X104723587Y-118990135D02*
X104437873Y-118990135D01*
X104437873Y-118990135D02*
X104366444Y-119025849D01*
X104366444Y-119025849D02*
X104330730Y-119061563D01*
X104330730Y-119061563D02*
X104295016Y-119132992D01*
X104295016Y-119132992D02*
X104295016Y-119240135D01*
X104295016Y-119240135D02*
X104330730Y-119311563D01*
X104330730Y-119311563D02*
X104366444Y-119347278D01*
X104366444Y-119347278D02*
X104437873Y-119382992D01*
X104437873Y-119382992D02*
X104723587Y-119382992D01*
X103866444Y-119311563D02*
X103937873Y-119275849D01*
X103937873Y-119275849D02*
X103973587Y-119240135D01*
X103973587Y-119240135D02*
X104009301Y-119168706D01*
X104009301Y-119168706D02*
X104009301Y-119132992D01*
X104009301Y-119132992D02*
X103973587Y-119061563D01*
X103973587Y-119061563D02*
X103937873Y-119025849D01*
X103937873Y-119025849D02*
X103866444Y-118990135D01*
X103866444Y-118990135D02*
X103723587Y-118990135D01*
X103723587Y-118990135D02*
X103652159Y-119025849D01*
X103652159Y-119025849D02*
X103616444Y-119061563D01*
X103616444Y-119061563D02*
X103580730Y-119132992D01*
X103580730Y-119132992D02*
X103580730Y-119168706D01*
X103580730Y-119168706D02*
X103616444Y-119240135D01*
X103616444Y-119240135D02*
X103652159Y-119275849D01*
X103652159Y-119275849D02*
X103723587Y-119311563D01*
X103723587Y-119311563D02*
X103866444Y-119311563D01*
X103866444Y-119311563D02*
X103937873Y-119347278D01*
X103937873Y-119347278D02*
X103973587Y-119382992D01*
X103973587Y-119382992D02*
X104009301Y-119454421D01*
X104009301Y-119454421D02*
X104009301Y-119597278D01*
X104009301Y-119597278D02*
X103973587Y-119668706D01*
X103973587Y-119668706D02*
X103937873Y-119704421D01*
X103937873Y-119704421D02*
X103866444Y-119740135D01*
X103866444Y-119740135D02*
X103723587Y-119740135D01*
X103723587Y-119740135D02*
X103652159Y-119704421D01*
X103652159Y-119704421D02*
X103616444Y-119668706D01*
X103616444Y-119668706D02*
X103580730Y-119597278D01*
X103580730Y-119597278D02*
X103580730Y-119454421D01*
X103580730Y-119454421D02*
X103616444Y-119382992D01*
X103616444Y-119382992D02*
X103652159Y-119347278D01*
X103652159Y-119347278D02*
X103723587Y-119311563D01*
X107128571Y-73341385D02*
X107128571Y-72948528D01*
X107128571Y-72948528D02*
X107164285Y-72877099D01*
X107164285Y-72877099D02*
X107235713Y-72841385D01*
X107235713Y-72841385D02*
X107378571Y-72841385D01*
X107378571Y-72841385D02*
X107449999Y-72877099D01*
X107128571Y-73305671D02*
X107199999Y-73341385D01*
X107199999Y-73341385D02*
X107378571Y-73341385D01*
X107378571Y-73341385D02*
X107449999Y-73305671D01*
X107449999Y-73305671D02*
X107485713Y-73234242D01*
X107485713Y-73234242D02*
X107485713Y-73162813D01*
X107485713Y-73162813D02*
X107449999Y-73091385D01*
X107449999Y-73091385D02*
X107378571Y-73055671D01*
X107378571Y-73055671D02*
X107199999Y-73055671D01*
X107199999Y-73055671D02*
X107128571Y-73019956D01*
X106342857Y-73341385D02*
X106592857Y-72984242D01*
X106771428Y-73341385D02*
X106771428Y-72591385D01*
X106771428Y-72591385D02*
X106485714Y-72591385D01*
X106485714Y-72591385D02*
X106414285Y-72627099D01*
X106414285Y-72627099D02*
X106378571Y-72662813D01*
X106378571Y-72662813D02*
X106342857Y-72734242D01*
X106342857Y-72734242D02*
X106342857Y-72841385D01*
X106342857Y-72841385D02*
X106378571Y-72912813D01*
X106378571Y-72912813D02*
X106414285Y-72948528D01*
X106414285Y-72948528D02*
X106485714Y-72984242D01*
X106485714Y-72984242D02*
X106771428Y-72984242D01*
X105628571Y-73341385D02*
X106057142Y-73341385D01*
X105842857Y-73341385D02*
X105842857Y-72591385D01*
X105842857Y-72591385D02*
X105914285Y-72698528D01*
X105914285Y-72698528D02*
X105985714Y-72769956D01*
X105985714Y-72769956D02*
X106057142Y-72805671D01*
X104985714Y-72591385D02*
X105128571Y-72591385D01*
X105128571Y-72591385D02*
X105199999Y-72627099D01*
X105199999Y-72627099D02*
X105235714Y-72662813D01*
X105235714Y-72662813D02*
X105307142Y-72769956D01*
X105307142Y-72769956D02*
X105342856Y-72912813D01*
X105342856Y-72912813D02*
X105342856Y-73198528D01*
X105342856Y-73198528D02*
X105307142Y-73269956D01*
X105307142Y-73269956D02*
X105271428Y-73305671D01*
X105271428Y-73305671D02*
X105199999Y-73341385D01*
X105199999Y-73341385D02*
X105057142Y-73341385D01*
X105057142Y-73341385D02*
X104985714Y-73305671D01*
X104985714Y-73305671D02*
X104949999Y-73269956D01*
X104949999Y-73269956D02*
X104914285Y-73198528D01*
X104914285Y-73198528D02*
X104914285Y-73019956D01*
X104914285Y-73019956D02*
X104949999Y-72948528D01*
X104949999Y-72948528D02*
X104985714Y-72912813D01*
X104985714Y-72912813D02*
X105057142Y-72877099D01*
X105057142Y-72877099D02*
X105199999Y-72877099D01*
X105199999Y-72877099D02*
X105271428Y-72912813D01*
X105271428Y-72912813D02*
X105307142Y-72948528D01*
X105307142Y-72948528D02*
X105342856Y-73019956D01*
X155284516Y-38779767D02*
X155284516Y-39315481D01*
X155284516Y-39315481D02*
X155320231Y-39422624D01*
X155320231Y-39422624D02*
X155391659Y-39494053D01*
X155391659Y-39494053D02*
X155498802Y-39529767D01*
X155498802Y-39529767D02*
X155570231Y-39529767D01*
X154998802Y-38779767D02*
X154498802Y-38779767D01*
X154498802Y-38779767D02*
X154820230Y-39529767D01*
X107128571Y-64841385D02*
X107128571Y-64448528D01*
X107128571Y-64448528D02*
X107164285Y-64377099D01*
X107164285Y-64377099D02*
X107235713Y-64341385D01*
X107235713Y-64341385D02*
X107378571Y-64341385D01*
X107378571Y-64341385D02*
X107449999Y-64377099D01*
X107128571Y-64805671D02*
X107199999Y-64841385D01*
X107199999Y-64841385D02*
X107378571Y-64841385D01*
X107378571Y-64841385D02*
X107449999Y-64805671D01*
X107449999Y-64805671D02*
X107485713Y-64734242D01*
X107485713Y-64734242D02*
X107485713Y-64662813D01*
X107485713Y-64662813D02*
X107449999Y-64591385D01*
X107449999Y-64591385D02*
X107378571Y-64555671D01*
X107378571Y-64555671D02*
X107199999Y-64555671D01*
X107199999Y-64555671D02*
X107128571Y-64519956D01*
X106342857Y-64841385D02*
X106592857Y-64484242D01*
X106771428Y-64841385D02*
X106771428Y-64091385D01*
X106771428Y-64091385D02*
X106485714Y-64091385D01*
X106485714Y-64091385D02*
X106414285Y-64127099D01*
X106414285Y-64127099D02*
X106378571Y-64162813D01*
X106378571Y-64162813D02*
X106342857Y-64234242D01*
X106342857Y-64234242D02*
X106342857Y-64341385D01*
X106342857Y-64341385D02*
X106378571Y-64412813D01*
X106378571Y-64412813D02*
X106414285Y-64448528D01*
X106414285Y-64448528D02*
X106485714Y-64484242D01*
X106485714Y-64484242D02*
X106771428Y-64484242D01*
X105628571Y-64841385D02*
X106057142Y-64841385D01*
X105842857Y-64841385D02*
X105842857Y-64091385D01*
X105842857Y-64091385D02*
X105914285Y-64198528D01*
X105914285Y-64198528D02*
X105985714Y-64269956D01*
X105985714Y-64269956D02*
X106057142Y-64305671D01*
X105378571Y-64091385D02*
X104878571Y-64091385D01*
X104878571Y-64091385D02*
X105199999Y-64841385D01*
X77271428Y-27091385D02*
X77271428Y-26698528D01*
X77271428Y-26698528D02*
X77307142Y-26627099D01*
X77307142Y-26627099D02*
X77378570Y-26591385D01*
X77378570Y-26591385D02*
X77521428Y-26591385D01*
X77521428Y-26591385D02*
X77592856Y-26627099D01*
X77271428Y-27055671D02*
X77342856Y-27091385D01*
X77342856Y-27091385D02*
X77521428Y-27091385D01*
X77521428Y-27091385D02*
X77592856Y-27055671D01*
X77592856Y-27055671D02*
X77628570Y-26984242D01*
X77628570Y-26984242D02*
X77628570Y-26912813D01*
X77628570Y-26912813D02*
X77592856Y-26841385D01*
X77592856Y-26841385D02*
X77521428Y-26805671D01*
X77521428Y-26805671D02*
X77342856Y-26805671D01*
X77342856Y-26805671D02*
X77271428Y-26769956D01*
X76485714Y-27019956D02*
X76521428Y-27055671D01*
X76521428Y-27055671D02*
X76628571Y-27091385D01*
X76628571Y-27091385D02*
X76699999Y-27091385D01*
X76699999Y-27091385D02*
X76807142Y-27055671D01*
X76807142Y-27055671D02*
X76878571Y-26984242D01*
X76878571Y-26984242D02*
X76914285Y-26912813D01*
X76914285Y-26912813D02*
X76949999Y-26769956D01*
X76949999Y-26769956D02*
X76949999Y-26662813D01*
X76949999Y-26662813D02*
X76914285Y-26519956D01*
X76914285Y-26519956D02*
X76878571Y-26448528D01*
X76878571Y-26448528D02*
X76807142Y-26377099D01*
X76807142Y-26377099D02*
X76699999Y-26341385D01*
X76699999Y-26341385D02*
X76628571Y-26341385D01*
X76628571Y-26341385D02*
X76521428Y-26377099D01*
X76521428Y-26377099D02*
X76485714Y-26412813D01*
X76235714Y-26341385D02*
X75735714Y-26341385D01*
X75735714Y-26341385D02*
X76057142Y-27091385D01*
X155484860Y-164541764D02*
X155484860Y-165077478D01*
X155484860Y-165077478D02*
X155520575Y-165184621D01*
X155520575Y-165184621D02*
X155592003Y-165256050D01*
X155592003Y-165256050D02*
X155699146Y-165291764D01*
X155699146Y-165291764D02*
X155770575Y-165291764D01*
X155199146Y-164541764D02*
X154734860Y-164541764D01*
X154734860Y-164541764D02*
X154984860Y-164827478D01*
X154984860Y-164827478D02*
X154877717Y-164827478D01*
X154877717Y-164827478D02*
X154806289Y-164863192D01*
X154806289Y-164863192D02*
X154770574Y-164898907D01*
X154770574Y-164898907D02*
X154734860Y-164970335D01*
X154734860Y-164970335D02*
X154734860Y-165148907D01*
X154734860Y-165148907D02*
X154770574Y-165220335D01*
X154770574Y-165220335D02*
X154806289Y-165256050D01*
X154806289Y-165256050D02*
X154877717Y-165291764D01*
X154877717Y-165291764D02*
X155092003Y-165291764D01*
X155092003Y-165291764D02*
X155163431Y-165256050D01*
X155163431Y-165256050D02*
X155199146Y-165220335D01*
X154020574Y-165291764D02*
X154449145Y-165291764D01*
X154234860Y-165291764D02*
X154234860Y-164541764D01*
X154234860Y-164541764D02*
X154306288Y-164648907D01*
X154306288Y-164648907D02*
X154377717Y-164720335D01*
X154377717Y-164720335D02*
X154449145Y-164756050D01*
X107128571Y-69341385D02*
X107128571Y-68948528D01*
X107128571Y-68948528D02*
X107164285Y-68877099D01*
X107164285Y-68877099D02*
X107235713Y-68841385D01*
X107235713Y-68841385D02*
X107378571Y-68841385D01*
X107378571Y-68841385D02*
X107449999Y-68877099D01*
X107128571Y-69305671D02*
X107199999Y-69341385D01*
X107199999Y-69341385D02*
X107378571Y-69341385D01*
X107378571Y-69341385D02*
X107449999Y-69305671D01*
X107449999Y-69305671D02*
X107485713Y-69234242D01*
X107485713Y-69234242D02*
X107485713Y-69162813D01*
X107485713Y-69162813D02*
X107449999Y-69091385D01*
X107449999Y-69091385D02*
X107378571Y-69055671D01*
X107378571Y-69055671D02*
X107199999Y-69055671D01*
X107199999Y-69055671D02*
X107128571Y-69019956D01*
X106342857Y-69341385D02*
X106592857Y-68984242D01*
X106771428Y-69341385D02*
X106771428Y-68591385D01*
X106771428Y-68591385D02*
X106485714Y-68591385D01*
X106485714Y-68591385D02*
X106414285Y-68627099D01*
X106414285Y-68627099D02*
X106378571Y-68662813D01*
X106378571Y-68662813D02*
X106342857Y-68734242D01*
X106342857Y-68734242D02*
X106342857Y-68841385D01*
X106342857Y-68841385D02*
X106378571Y-68912813D01*
X106378571Y-68912813D02*
X106414285Y-68948528D01*
X106414285Y-68948528D02*
X106485714Y-68984242D01*
X106485714Y-68984242D02*
X106771428Y-68984242D01*
X105628571Y-69341385D02*
X106057142Y-69341385D01*
X105842857Y-69341385D02*
X105842857Y-68591385D01*
X105842857Y-68591385D02*
X105914285Y-68698528D01*
X105914285Y-68698528D02*
X105985714Y-68769956D01*
X105985714Y-68769956D02*
X106057142Y-68805671D01*
X104985714Y-68841385D02*
X104985714Y-69341385D01*
X105164285Y-68555671D02*
X105342856Y-69091385D01*
X105342856Y-69091385D02*
X104878571Y-69091385D01*
X77307159Y-118937856D02*
X77307159Y-118402142D01*
X77307159Y-118402142D02*
X77271444Y-118294999D01*
X77271444Y-118294999D02*
X77200016Y-118223571D01*
X77200016Y-118223571D02*
X77092873Y-118187856D01*
X77092873Y-118187856D02*
X77021444Y-118187856D01*
X78057159Y-118187856D02*
X77628588Y-118187856D01*
X77842873Y-118187856D02*
X77842873Y-118937856D01*
X77842873Y-118937856D02*
X77771445Y-118830713D01*
X77771445Y-118830713D02*
X77700016Y-118759285D01*
X77700016Y-118759285D02*
X77628588Y-118723571D01*
X78485731Y-118616428D02*
X78414302Y-118652142D01*
X78414302Y-118652142D02*
X78378588Y-118687856D01*
X78378588Y-118687856D02*
X78342874Y-118759285D01*
X78342874Y-118759285D02*
X78342874Y-118794999D01*
X78342874Y-118794999D02*
X78378588Y-118866428D01*
X78378588Y-118866428D02*
X78414302Y-118902142D01*
X78414302Y-118902142D02*
X78485731Y-118937856D01*
X78485731Y-118937856D02*
X78628588Y-118937856D01*
X78628588Y-118937856D02*
X78700017Y-118902142D01*
X78700017Y-118902142D02*
X78735731Y-118866428D01*
X78735731Y-118866428D02*
X78771445Y-118794999D01*
X78771445Y-118794999D02*
X78771445Y-118759285D01*
X78771445Y-118759285D02*
X78735731Y-118687856D01*
X78735731Y-118687856D02*
X78700017Y-118652142D01*
X78700017Y-118652142D02*
X78628588Y-118616428D01*
X78628588Y-118616428D02*
X78485731Y-118616428D01*
X78485731Y-118616428D02*
X78414302Y-118580713D01*
X78414302Y-118580713D02*
X78378588Y-118544999D01*
X78378588Y-118544999D02*
X78342874Y-118473571D01*
X78342874Y-118473571D02*
X78342874Y-118330713D01*
X78342874Y-118330713D02*
X78378588Y-118259285D01*
X78378588Y-118259285D02*
X78414302Y-118223571D01*
X78414302Y-118223571D02*
X78485731Y-118187856D01*
X78485731Y-118187856D02*
X78628588Y-118187856D01*
X78628588Y-118187856D02*
X78700017Y-118223571D01*
X78700017Y-118223571D02*
X78735731Y-118259285D01*
X78735731Y-118259285D02*
X78771445Y-118330713D01*
X78771445Y-118330713D02*
X78771445Y-118473571D01*
X78771445Y-118473571D02*
X78735731Y-118544999D01*
X78735731Y-118544999D02*
X78700017Y-118580713D01*
X78700017Y-118580713D02*
X78628588Y-118616428D01*
X77271428Y-25341385D02*
X77271428Y-24948528D01*
X77271428Y-24948528D02*
X77307142Y-24877099D01*
X77307142Y-24877099D02*
X77378570Y-24841385D01*
X77378570Y-24841385D02*
X77521428Y-24841385D01*
X77521428Y-24841385D02*
X77592856Y-24877099D01*
X77271428Y-25305671D02*
X77342856Y-25341385D01*
X77342856Y-25341385D02*
X77521428Y-25341385D01*
X77521428Y-25341385D02*
X77592856Y-25305671D01*
X77592856Y-25305671D02*
X77628570Y-25234242D01*
X77628570Y-25234242D02*
X77628570Y-25162813D01*
X77628570Y-25162813D02*
X77592856Y-25091385D01*
X77592856Y-25091385D02*
X77521428Y-25055671D01*
X77521428Y-25055671D02*
X77342856Y-25055671D01*
X77342856Y-25055671D02*
X77271428Y-25019956D01*
X76485714Y-25269956D02*
X76521428Y-25305671D01*
X76521428Y-25305671D02*
X76628571Y-25341385D01*
X76628571Y-25341385D02*
X76699999Y-25341385D01*
X76699999Y-25341385D02*
X76807142Y-25305671D01*
X76807142Y-25305671D02*
X76878571Y-25234242D01*
X76878571Y-25234242D02*
X76914285Y-25162813D01*
X76914285Y-25162813D02*
X76949999Y-25019956D01*
X76949999Y-25019956D02*
X76949999Y-24912813D01*
X76949999Y-24912813D02*
X76914285Y-24769956D01*
X76914285Y-24769956D02*
X76878571Y-24698528D01*
X76878571Y-24698528D02*
X76807142Y-24627099D01*
X76807142Y-24627099D02*
X76699999Y-24591385D01*
X76699999Y-24591385D02*
X76628571Y-24591385D01*
X76628571Y-24591385D02*
X76521428Y-24627099D01*
X76521428Y-24627099D02*
X76485714Y-24662813D01*
X75842857Y-24591385D02*
X75985714Y-24591385D01*
X75985714Y-24591385D02*
X76057142Y-24627099D01*
X76057142Y-24627099D02*
X76092857Y-24662813D01*
X76092857Y-24662813D02*
X76164285Y-24769956D01*
X76164285Y-24769956D02*
X76199999Y-24912813D01*
X76199999Y-24912813D02*
X76199999Y-25198528D01*
X76199999Y-25198528D02*
X76164285Y-25269956D01*
X76164285Y-25269956D02*
X76128571Y-25305671D01*
X76128571Y-25305671D02*
X76057142Y-25341385D01*
X76057142Y-25341385D02*
X75914285Y-25341385D01*
X75914285Y-25341385D02*
X75842857Y-25305671D01*
X75842857Y-25305671D02*
X75807142Y-25269956D01*
X75807142Y-25269956D02*
X75771428Y-25198528D01*
X75771428Y-25198528D02*
X75771428Y-25019956D01*
X75771428Y-25019956D02*
X75807142Y-24948528D01*
X75807142Y-24948528D02*
X75842857Y-24912813D01*
X75842857Y-24912813D02*
X75914285Y-24877099D01*
X75914285Y-24877099D02*
X76057142Y-24877099D01*
X76057142Y-24877099D02*
X76128571Y-24912813D01*
X76128571Y-24912813D02*
X76164285Y-24948528D01*
X76164285Y-24948528D02*
X76199999Y-25019956D01*
X123424860Y-164441764D02*
X123424860Y-164977478D01*
X123424860Y-164977478D02*
X123460575Y-165084621D01*
X123460575Y-165084621D02*
X123532003Y-165156050D01*
X123532003Y-165156050D02*
X123639146Y-165191764D01*
X123639146Y-165191764D02*
X123710575Y-165191764D01*
X123139146Y-164441764D02*
X122674860Y-164441764D01*
X122674860Y-164441764D02*
X122924860Y-164727478D01*
X122924860Y-164727478D02*
X122817717Y-164727478D01*
X122817717Y-164727478D02*
X122746289Y-164763192D01*
X122746289Y-164763192D02*
X122710574Y-164798907D01*
X122710574Y-164798907D02*
X122674860Y-164870335D01*
X122674860Y-164870335D02*
X122674860Y-165048907D01*
X122674860Y-165048907D02*
X122710574Y-165120335D01*
X122710574Y-165120335D02*
X122746289Y-165156050D01*
X122746289Y-165156050D02*
X122817717Y-165191764D01*
X122817717Y-165191764D02*
X123032003Y-165191764D01*
X123032003Y-165191764D02*
X123103431Y-165156050D01*
X123103431Y-165156050D02*
X123139146Y-165120335D01*
X122210574Y-164441764D02*
X122139145Y-164441764D01*
X122139145Y-164441764D02*
X122067717Y-164477478D01*
X122067717Y-164477478D02*
X122032003Y-164513192D01*
X122032003Y-164513192D02*
X121996288Y-164584621D01*
X121996288Y-164584621D02*
X121960574Y-164727478D01*
X121960574Y-164727478D02*
X121960574Y-164906050D01*
X121960574Y-164906050D02*
X121996288Y-165048907D01*
X121996288Y-165048907D02*
X122032003Y-165120335D01*
X122032003Y-165120335D02*
X122067717Y-165156050D01*
X122067717Y-165156050D02*
X122139145Y-165191764D01*
X122139145Y-165191764D02*
X122210574Y-165191764D01*
X122210574Y-165191764D02*
X122282003Y-165156050D01*
X122282003Y-165156050D02*
X122317717Y-165120335D01*
X122317717Y-165120335D02*
X122353431Y-165048907D01*
X122353431Y-165048907D02*
X122389145Y-164906050D01*
X122389145Y-164906050D02*
X122389145Y-164727478D01*
X122389145Y-164727478D02*
X122353431Y-164584621D01*
X122353431Y-164584621D02*
X122317717Y-164513192D01*
X122317717Y-164513192D02*
X122282003Y-164477478D01*
X122282003Y-164477478D02*
X122210574Y-164441764D01*
X100480730Y-123490135D02*
X100480730Y-122740135D01*
X100480730Y-123454421D02*
X100552158Y-123490135D01*
X100552158Y-123490135D02*
X100695015Y-123490135D01*
X100695015Y-123490135D02*
X100766444Y-123454421D01*
X100766444Y-123454421D02*
X100802158Y-123418706D01*
X100802158Y-123418706D02*
X100837872Y-123347278D01*
X100837872Y-123347278D02*
X100837872Y-123132992D01*
X100837872Y-123132992D02*
X100802158Y-123061563D01*
X100802158Y-123061563D02*
X100766444Y-123025849D01*
X100766444Y-123025849D02*
X100695015Y-122990135D01*
X100695015Y-122990135D02*
X100552158Y-122990135D01*
X100552158Y-122990135D02*
X100480730Y-123025849D01*
X99695016Y-123490135D02*
X99945016Y-123132992D01*
X100123587Y-123490135D02*
X100123587Y-122740135D01*
X100123587Y-122740135D02*
X99837873Y-122740135D01*
X99837873Y-122740135D02*
X99766444Y-122775849D01*
X99766444Y-122775849D02*
X99730730Y-122811563D01*
X99730730Y-122811563D02*
X99695016Y-122882992D01*
X99695016Y-122882992D02*
X99695016Y-122990135D01*
X99695016Y-122990135D02*
X99730730Y-123061563D01*
X99730730Y-123061563D02*
X99766444Y-123097278D01*
X99766444Y-123097278D02*
X99837873Y-123132992D01*
X99837873Y-123132992D02*
X100123587Y-123132992D01*
X99016444Y-122740135D02*
X99373587Y-122740135D01*
X99373587Y-122740135D02*
X99409301Y-123097278D01*
X99409301Y-123097278D02*
X99373587Y-123061563D01*
X99373587Y-123061563D02*
X99302159Y-123025849D01*
X99302159Y-123025849D02*
X99123587Y-123025849D01*
X99123587Y-123025849D02*
X99052159Y-123061563D01*
X99052159Y-123061563D02*
X99016444Y-123097278D01*
X99016444Y-123097278D02*
X98980730Y-123168706D01*
X98980730Y-123168706D02*
X98980730Y-123347278D01*
X98980730Y-123347278D02*
X99016444Y-123418706D01*
X99016444Y-123418706D02*
X99052159Y-123454421D01*
X99052159Y-123454421D02*
X99123587Y-123490135D01*
X99123587Y-123490135D02*
X99302159Y-123490135D01*
X99302159Y-123490135D02*
X99373587Y-123454421D01*
X99373587Y-123454421D02*
X99409301Y-123418706D01*
X101287873Y-104071385D02*
X101287873Y-103321385D01*
X101287873Y-104035671D02*
X101359301Y-104071385D01*
X101359301Y-104071385D02*
X101502158Y-104071385D01*
X101502158Y-104071385D02*
X101573587Y-104035671D01*
X101573587Y-104035671D02*
X101609301Y-103999956D01*
X101609301Y-103999956D02*
X101645015Y-103928528D01*
X101645015Y-103928528D02*
X101645015Y-103714242D01*
X101645015Y-103714242D02*
X101609301Y-103642813D01*
X101609301Y-103642813D02*
X101573587Y-103607099D01*
X101573587Y-103607099D02*
X101502158Y-103571385D01*
X101502158Y-103571385D02*
X101359301Y-103571385D01*
X101359301Y-103571385D02*
X101287873Y-103607099D01*
X100502159Y-104071385D02*
X100752159Y-103714242D01*
X100930730Y-104071385D02*
X100930730Y-103321385D01*
X100930730Y-103321385D02*
X100645016Y-103321385D01*
X100645016Y-103321385D02*
X100573587Y-103357099D01*
X100573587Y-103357099D02*
X100537873Y-103392813D01*
X100537873Y-103392813D02*
X100502159Y-103464242D01*
X100502159Y-103464242D02*
X100502159Y-103571385D01*
X100502159Y-103571385D02*
X100537873Y-103642813D01*
X100537873Y-103642813D02*
X100573587Y-103678528D01*
X100573587Y-103678528D02*
X100645016Y-103714242D01*
X100645016Y-103714242D02*
X100930730Y-103714242D01*
X99787873Y-104071385D02*
X100216444Y-104071385D01*
X100002159Y-104071385D02*
X100002159Y-103321385D01*
X100002159Y-103321385D02*
X100073587Y-103428528D01*
X100073587Y-103428528D02*
X100145016Y-103499956D01*
X100145016Y-103499956D02*
X100216444Y-103535671D01*
X99537873Y-103321385D02*
X99073587Y-103321385D01*
X99073587Y-103321385D02*
X99323587Y-103607099D01*
X99323587Y-103607099D02*
X99216444Y-103607099D01*
X99216444Y-103607099D02*
X99145016Y-103642813D01*
X99145016Y-103642813D02*
X99109301Y-103678528D01*
X99109301Y-103678528D02*
X99073587Y-103749956D01*
X99073587Y-103749956D02*
X99073587Y-103928528D01*
X99073587Y-103928528D02*
X99109301Y-103999956D01*
X99109301Y-103999956D02*
X99145016Y-104035671D01*
X99145016Y-104035671D02*
X99216444Y-104071385D01*
X99216444Y-104071385D02*
X99430730Y-104071385D01*
X99430730Y-104071385D02*
X99502158Y-104035671D01*
X99502158Y-104035671D02*
X99537873Y-103999956D01*
X105925373Y-117361385D02*
X105925373Y-116611385D01*
X105925373Y-117325671D02*
X105996801Y-117361385D01*
X105996801Y-117361385D02*
X106139658Y-117361385D01*
X106139658Y-117361385D02*
X106211087Y-117325671D01*
X106211087Y-117325671D02*
X106246801Y-117289956D01*
X106246801Y-117289956D02*
X106282515Y-117218528D01*
X106282515Y-117218528D02*
X106282515Y-117004242D01*
X106282515Y-117004242D02*
X106246801Y-116932813D01*
X106246801Y-116932813D02*
X106211087Y-116897099D01*
X106211087Y-116897099D02*
X106139658Y-116861385D01*
X106139658Y-116861385D02*
X105996801Y-116861385D01*
X105996801Y-116861385D02*
X105925373Y-116897099D01*
X105139659Y-117361385D02*
X105389659Y-117004242D01*
X105568230Y-117361385D02*
X105568230Y-116611385D01*
X105568230Y-116611385D02*
X105282516Y-116611385D01*
X105282516Y-116611385D02*
X105211087Y-116647099D01*
X105211087Y-116647099D02*
X105175373Y-116682813D01*
X105175373Y-116682813D02*
X105139659Y-116754242D01*
X105139659Y-116754242D02*
X105139659Y-116861385D01*
X105139659Y-116861385D02*
X105175373Y-116932813D01*
X105175373Y-116932813D02*
X105211087Y-116968528D01*
X105211087Y-116968528D02*
X105282516Y-117004242D01*
X105282516Y-117004242D02*
X105568230Y-117004242D01*
X104425373Y-117361385D02*
X104853944Y-117361385D01*
X104639659Y-117361385D02*
X104639659Y-116611385D01*
X104639659Y-116611385D02*
X104711087Y-116718528D01*
X104711087Y-116718528D02*
X104782516Y-116789956D01*
X104782516Y-116789956D02*
X104853944Y-116825671D01*
X104175373Y-116611385D02*
X103675373Y-116611385D01*
X103675373Y-116611385D02*
X103996801Y-117361385D01*
X96736087Y-112961385D02*
X96736087Y-112211385D01*
X96736087Y-112925671D02*
X96807515Y-112961385D01*
X96807515Y-112961385D02*
X96950372Y-112961385D01*
X96950372Y-112961385D02*
X97021801Y-112925671D01*
X97021801Y-112925671D02*
X97057515Y-112889956D01*
X97057515Y-112889956D02*
X97093229Y-112818528D01*
X97093229Y-112818528D02*
X97093229Y-112604242D01*
X97093229Y-112604242D02*
X97057515Y-112532813D01*
X97057515Y-112532813D02*
X97021801Y-112497099D01*
X97021801Y-112497099D02*
X96950372Y-112461385D01*
X96950372Y-112461385D02*
X96807515Y-112461385D01*
X96807515Y-112461385D02*
X96736087Y-112497099D01*
X96378944Y-112211385D02*
X96378944Y-112818528D01*
X96378944Y-112818528D02*
X96343230Y-112889956D01*
X96343230Y-112889956D02*
X96307516Y-112925671D01*
X96307516Y-112925671D02*
X96236087Y-112961385D01*
X96236087Y-112961385D02*
X96093230Y-112961385D01*
X96093230Y-112961385D02*
X96021801Y-112925671D01*
X96021801Y-112925671D02*
X95986087Y-112889956D01*
X95986087Y-112889956D02*
X95950373Y-112818528D01*
X95950373Y-112818528D02*
X95950373Y-112211385D01*
X95664659Y-112211385D02*
X95200373Y-112211385D01*
X95200373Y-112211385D02*
X95450373Y-112497099D01*
X95450373Y-112497099D02*
X95343230Y-112497099D01*
X95343230Y-112497099D02*
X95271802Y-112532813D01*
X95271802Y-112532813D02*
X95236087Y-112568528D01*
X95236087Y-112568528D02*
X95200373Y-112639956D01*
X95200373Y-112639956D02*
X95200373Y-112818528D01*
X95200373Y-112818528D02*
X95236087Y-112889956D01*
X95236087Y-112889956D02*
X95271802Y-112925671D01*
X95271802Y-112925671D02*
X95343230Y-112961385D01*
X95343230Y-112961385D02*
X95557516Y-112961385D01*
X95557516Y-112961385D02*
X95628944Y-112925671D01*
X95628944Y-112925671D02*
X95664659Y-112889956D01*
X79994211Y-15031385D02*
X79994211Y-14638528D01*
X79994211Y-14638528D02*
X80029925Y-14567099D01*
X80029925Y-14567099D02*
X80101353Y-14531385D01*
X80101353Y-14531385D02*
X80244211Y-14531385D01*
X80244211Y-14531385D02*
X80315639Y-14567099D01*
X79994211Y-14995671D02*
X80065639Y-15031385D01*
X80065639Y-15031385D02*
X80244211Y-15031385D01*
X80244211Y-15031385D02*
X80315639Y-14995671D01*
X80315639Y-14995671D02*
X80351353Y-14924242D01*
X80351353Y-14924242D02*
X80351353Y-14852813D01*
X80351353Y-14852813D02*
X80315639Y-14781385D01*
X80315639Y-14781385D02*
X80244211Y-14745671D01*
X80244211Y-14745671D02*
X80065639Y-14745671D01*
X80065639Y-14745671D02*
X79994211Y-14709956D01*
X79637068Y-14281385D02*
X79637068Y-14888528D01*
X79637068Y-14888528D02*
X79601354Y-14959956D01*
X79601354Y-14959956D02*
X79565640Y-14995671D01*
X79565640Y-14995671D02*
X79494211Y-15031385D01*
X79494211Y-15031385D02*
X79351354Y-15031385D01*
X79351354Y-15031385D02*
X79279925Y-14995671D01*
X79279925Y-14995671D02*
X79244211Y-14959956D01*
X79244211Y-14959956D02*
X79208497Y-14888528D01*
X79208497Y-14888528D02*
X79208497Y-14281385D01*
X78458497Y-15031385D02*
X78887068Y-15031385D01*
X78672783Y-15031385D02*
X78672783Y-14281385D01*
X78672783Y-14281385D02*
X78744211Y-14388528D01*
X78744211Y-14388528D02*
X78815640Y-14459956D01*
X78815640Y-14459956D02*
X78887068Y-14495671D01*
X123224516Y-38679767D02*
X123224516Y-39215481D01*
X123224516Y-39215481D02*
X123260231Y-39322624D01*
X123260231Y-39322624D02*
X123331659Y-39394053D01*
X123331659Y-39394053D02*
X123438802Y-39429767D01*
X123438802Y-39429767D02*
X123510231Y-39429767D01*
X122545945Y-38679767D02*
X122688802Y-38679767D01*
X122688802Y-38679767D02*
X122760230Y-38715481D01*
X122760230Y-38715481D02*
X122795945Y-38751195D01*
X122795945Y-38751195D02*
X122867373Y-38858338D01*
X122867373Y-38858338D02*
X122903087Y-39001195D01*
X122903087Y-39001195D02*
X122903087Y-39286910D01*
X122903087Y-39286910D02*
X122867373Y-39358338D01*
X122867373Y-39358338D02*
X122831659Y-39394053D01*
X122831659Y-39394053D02*
X122760230Y-39429767D01*
X122760230Y-39429767D02*
X122617373Y-39429767D01*
X122617373Y-39429767D02*
X122545945Y-39394053D01*
X122545945Y-39394053D02*
X122510230Y-39358338D01*
X122510230Y-39358338D02*
X122474516Y-39286910D01*
X122474516Y-39286910D02*
X122474516Y-39108338D01*
X122474516Y-39108338D02*
X122510230Y-39036910D01*
X122510230Y-39036910D02*
X122545945Y-39001195D01*
X122545945Y-39001195D02*
X122617373Y-38965481D01*
X122617373Y-38965481D02*
X122760230Y-38965481D01*
X122760230Y-38965481D02*
X122831659Y-39001195D01*
X122831659Y-39001195D02*
X122867373Y-39036910D01*
X122867373Y-39036910D02*
X122903087Y-39108338D01*
X78427142Y-165721385D02*
X78427142Y-166257099D01*
X78427142Y-166257099D02*
X78462857Y-166364242D01*
X78462857Y-166364242D02*
X78534285Y-166435671D01*
X78534285Y-166435671D02*
X78641428Y-166471385D01*
X78641428Y-166471385D02*
X78712857Y-166471385D01*
X78105713Y-165792813D02*
X78069999Y-165757099D01*
X78069999Y-165757099D02*
X77998571Y-165721385D01*
X77998571Y-165721385D02*
X77819999Y-165721385D01*
X77819999Y-165721385D02*
X77748571Y-165757099D01*
X77748571Y-165757099D02*
X77712856Y-165792813D01*
X77712856Y-165792813D02*
X77677142Y-165864242D01*
X77677142Y-165864242D02*
X77677142Y-165935671D01*
X77677142Y-165935671D02*
X77712856Y-166042813D01*
X77712856Y-166042813D02*
X78141428Y-166471385D01*
X78141428Y-166471385D02*
X77677142Y-166471385D01*
X77391427Y-165792813D02*
X77355713Y-165757099D01*
X77355713Y-165757099D02*
X77284285Y-165721385D01*
X77284285Y-165721385D02*
X77105713Y-165721385D01*
X77105713Y-165721385D02*
X77034285Y-165757099D01*
X77034285Y-165757099D02*
X76998570Y-165792813D01*
X76998570Y-165792813D02*
X76962856Y-165864242D01*
X76962856Y-165864242D02*
X76962856Y-165935671D01*
X76962856Y-165935671D02*
X76998570Y-166042813D01*
X76998570Y-166042813D02*
X77427142Y-166471385D01*
X77427142Y-166471385D02*
X76962856Y-166471385D01*
X99662873Y-119076385D02*
X99662873Y-118326385D01*
X99662873Y-119040671D02*
X99734301Y-119076385D01*
X99734301Y-119076385D02*
X99877158Y-119076385D01*
X99877158Y-119076385D02*
X99948587Y-119040671D01*
X99948587Y-119040671D02*
X99984301Y-119004956D01*
X99984301Y-119004956D02*
X100020015Y-118933528D01*
X100020015Y-118933528D02*
X100020015Y-118719242D01*
X100020015Y-118719242D02*
X99984301Y-118647813D01*
X99984301Y-118647813D02*
X99948587Y-118612099D01*
X99948587Y-118612099D02*
X99877158Y-118576385D01*
X99877158Y-118576385D02*
X99734301Y-118576385D01*
X99734301Y-118576385D02*
X99662873Y-118612099D01*
X98877159Y-119004956D02*
X98912873Y-119040671D01*
X98912873Y-119040671D02*
X99020016Y-119076385D01*
X99020016Y-119076385D02*
X99091444Y-119076385D01*
X99091444Y-119076385D02*
X99198587Y-119040671D01*
X99198587Y-119040671D02*
X99270016Y-118969242D01*
X99270016Y-118969242D02*
X99305730Y-118897813D01*
X99305730Y-118897813D02*
X99341444Y-118754956D01*
X99341444Y-118754956D02*
X99341444Y-118647813D01*
X99341444Y-118647813D02*
X99305730Y-118504956D01*
X99305730Y-118504956D02*
X99270016Y-118433528D01*
X99270016Y-118433528D02*
X99198587Y-118362099D01*
X99198587Y-118362099D02*
X99091444Y-118326385D01*
X99091444Y-118326385D02*
X99020016Y-118326385D01*
X99020016Y-118326385D02*
X98912873Y-118362099D01*
X98912873Y-118362099D02*
X98877159Y-118397813D01*
X98162873Y-119076385D02*
X98591444Y-119076385D01*
X98377159Y-119076385D02*
X98377159Y-118326385D01*
X98377159Y-118326385D02*
X98448587Y-118433528D01*
X98448587Y-118433528D02*
X98520016Y-118504956D01*
X98520016Y-118504956D02*
X98591444Y-118540671D01*
X97448587Y-119076385D02*
X97877158Y-119076385D01*
X97662873Y-119076385D02*
X97662873Y-118326385D01*
X97662873Y-118326385D02*
X97734301Y-118433528D01*
X97734301Y-118433528D02*
X97805730Y-118504956D01*
X97805730Y-118504956D02*
X97877158Y-118540671D01*
X95375373Y-109011385D02*
X95375373Y-108261385D01*
X95375373Y-108975671D02*
X95446801Y-109011385D01*
X95446801Y-109011385D02*
X95589658Y-109011385D01*
X95589658Y-109011385D02*
X95661087Y-108975671D01*
X95661087Y-108975671D02*
X95696801Y-108939956D01*
X95696801Y-108939956D02*
X95732515Y-108868528D01*
X95732515Y-108868528D02*
X95732515Y-108654242D01*
X95732515Y-108654242D02*
X95696801Y-108582813D01*
X95696801Y-108582813D02*
X95661087Y-108547099D01*
X95661087Y-108547099D02*
X95589658Y-108511385D01*
X95589658Y-108511385D02*
X95446801Y-108511385D01*
X95446801Y-108511385D02*
X95375373Y-108547099D01*
X94589659Y-109011385D02*
X94839659Y-108654242D01*
X95018230Y-109011385D02*
X95018230Y-108261385D01*
X95018230Y-108261385D02*
X94732516Y-108261385D01*
X94732516Y-108261385D02*
X94661087Y-108297099D01*
X94661087Y-108297099D02*
X94625373Y-108332813D01*
X94625373Y-108332813D02*
X94589659Y-108404242D01*
X94589659Y-108404242D02*
X94589659Y-108511385D01*
X94589659Y-108511385D02*
X94625373Y-108582813D01*
X94625373Y-108582813D02*
X94661087Y-108618528D01*
X94661087Y-108618528D02*
X94732516Y-108654242D01*
X94732516Y-108654242D02*
X95018230Y-108654242D01*
X93875373Y-109011385D02*
X94303944Y-109011385D01*
X94089659Y-109011385D02*
X94089659Y-108261385D01*
X94089659Y-108261385D02*
X94161087Y-108368528D01*
X94161087Y-108368528D02*
X94232516Y-108439956D01*
X94232516Y-108439956D02*
X94303944Y-108475671D01*
X93446801Y-108582813D02*
X93518230Y-108547099D01*
X93518230Y-108547099D02*
X93553944Y-108511385D01*
X93553944Y-108511385D02*
X93589658Y-108439956D01*
X93589658Y-108439956D02*
X93589658Y-108404242D01*
X93589658Y-108404242D02*
X93553944Y-108332813D01*
X93553944Y-108332813D02*
X93518230Y-108297099D01*
X93518230Y-108297099D02*
X93446801Y-108261385D01*
X93446801Y-108261385D02*
X93303944Y-108261385D01*
X93303944Y-108261385D02*
X93232516Y-108297099D01*
X93232516Y-108297099D02*
X93196801Y-108332813D01*
X93196801Y-108332813D02*
X93161087Y-108404242D01*
X93161087Y-108404242D02*
X93161087Y-108439956D01*
X93161087Y-108439956D02*
X93196801Y-108511385D01*
X93196801Y-108511385D02*
X93232516Y-108547099D01*
X93232516Y-108547099D02*
X93303944Y-108582813D01*
X93303944Y-108582813D02*
X93446801Y-108582813D01*
X93446801Y-108582813D02*
X93518230Y-108618528D01*
X93518230Y-108618528D02*
X93553944Y-108654242D01*
X93553944Y-108654242D02*
X93589658Y-108725671D01*
X93589658Y-108725671D02*
X93589658Y-108868528D01*
X93589658Y-108868528D02*
X93553944Y-108939956D01*
X93553944Y-108939956D02*
X93518230Y-108975671D01*
X93518230Y-108975671D02*
X93446801Y-109011385D01*
X93446801Y-109011385D02*
X93303944Y-109011385D01*
X93303944Y-109011385D02*
X93232516Y-108975671D01*
X93232516Y-108975671D02*
X93196801Y-108939956D01*
X93196801Y-108939956D02*
X93161087Y-108868528D01*
X93161087Y-108868528D02*
X93161087Y-108725671D01*
X93161087Y-108725671D02*
X93196801Y-108654242D01*
X93196801Y-108654242D02*
X93232516Y-108618528D01*
X93232516Y-108618528D02*
X93303944Y-108582813D01*
X107128571Y-71591385D02*
X107128571Y-71198528D01*
X107128571Y-71198528D02*
X107164285Y-71127099D01*
X107164285Y-71127099D02*
X107235713Y-71091385D01*
X107235713Y-71091385D02*
X107378571Y-71091385D01*
X107378571Y-71091385D02*
X107449999Y-71127099D01*
X107128571Y-71555671D02*
X107199999Y-71591385D01*
X107199999Y-71591385D02*
X107378571Y-71591385D01*
X107378571Y-71591385D02*
X107449999Y-71555671D01*
X107449999Y-71555671D02*
X107485713Y-71484242D01*
X107485713Y-71484242D02*
X107485713Y-71412813D01*
X107485713Y-71412813D02*
X107449999Y-71341385D01*
X107449999Y-71341385D02*
X107378571Y-71305671D01*
X107378571Y-71305671D02*
X107199999Y-71305671D01*
X107199999Y-71305671D02*
X107128571Y-71269956D01*
X106342857Y-71591385D02*
X106592857Y-71234242D01*
X106771428Y-71591385D02*
X106771428Y-70841385D01*
X106771428Y-70841385D02*
X106485714Y-70841385D01*
X106485714Y-70841385D02*
X106414285Y-70877099D01*
X106414285Y-70877099D02*
X106378571Y-70912813D01*
X106378571Y-70912813D02*
X106342857Y-70984242D01*
X106342857Y-70984242D02*
X106342857Y-71091385D01*
X106342857Y-71091385D02*
X106378571Y-71162813D01*
X106378571Y-71162813D02*
X106414285Y-71198528D01*
X106414285Y-71198528D02*
X106485714Y-71234242D01*
X106485714Y-71234242D02*
X106771428Y-71234242D01*
X105628571Y-71591385D02*
X106057142Y-71591385D01*
X105842857Y-71591385D02*
X105842857Y-70841385D01*
X105842857Y-70841385D02*
X105914285Y-70948528D01*
X105914285Y-70948528D02*
X105985714Y-71019956D01*
X105985714Y-71019956D02*
X106057142Y-71055671D01*
X105378571Y-70841385D02*
X104914285Y-70841385D01*
X104914285Y-70841385D02*
X105164285Y-71127099D01*
X105164285Y-71127099D02*
X105057142Y-71127099D01*
X105057142Y-71127099D02*
X104985714Y-71162813D01*
X104985714Y-71162813D02*
X104949999Y-71198528D01*
X104949999Y-71198528D02*
X104914285Y-71269956D01*
X104914285Y-71269956D02*
X104914285Y-71448528D01*
X104914285Y-71448528D02*
X104949999Y-71519956D01*
X104949999Y-71519956D02*
X104985714Y-71555671D01*
X104985714Y-71555671D02*
X105057142Y-71591385D01*
X105057142Y-71591385D02*
X105271428Y-71591385D01*
X105271428Y-71591385D02*
X105342856Y-71555671D01*
X105342856Y-71555671D02*
X105378571Y-71519956D01*
X99637873Y-117215635D02*
X99637873Y-116465635D01*
X99637873Y-117179921D02*
X99709301Y-117215635D01*
X99709301Y-117215635D02*
X99852158Y-117215635D01*
X99852158Y-117215635D02*
X99923587Y-117179921D01*
X99923587Y-117179921D02*
X99959301Y-117144206D01*
X99959301Y-117144206D02*
X99995015Y-117072778D01*
X99995015Y-117072778D02*
X99995015Y-116858492D01*
X99995015Y-116858492D02*
X99959301Y-116787063D01*
X99959301Y-116787063D02*
X99923587Y-116751349D01*
X99923587Y-116751349D02*
X99852158Y-116715635D01*
X99852158Y-116715635D02*
X99709301Y-116715635D01*
X99709301Y-116715635D02*
X99637873Y-116751349D01*
X98852159Y-117144206D02*
X98887873Y-117179921D01*
X98887873Y-117179921D02*
X98995016Y-117215635D01*
X98995016Y-117215635D02*
X99066444Y-117215635D01*
X99066444Y-117215635D02*
X99173587Y-117179921D01*
X99173587Y-117179921D02*
X99245016Y-117108492D01*
X99245016Y-117108492D02*
X99280730Y-117037063D01*
X99280730Y-117037063D02*
X99316444Y-116894206D01*
X99316444Y-116894206D02*
X99316444Y-116787063D01*
X99316444Y-116787063D02*
X99280730Y-116644206D01*
X99280730Y-116644206D02*
X99245016Y-116572778D01*
X99245016Y-116572778D02*
X99173587Y-116501349D01*
X99173587Y-116501349D02*
X99066444Y-116465635D01*
X99066444Y-116465635D02*
X98995016Y-116465635D01*
X98995016Y-116465635D02*
X98887873Y-116501349D01*
X98887873Y-116501349D02*
X98852159Y-116537063D01*
X98137873Y-117215635D02*
X98566444Y-117215635D01*
X98352159Y-117215635D02*
X98352159Y-116465635D01*
X98352159Y-116465635D02*
X98423587Y-116572778D01*
X98423587Y-116572778D02*
X98495016Y-116644206D01*
X98495016Y-116644206D02*
X98566444Y-116679921D01*
X97852158Y-116537063D02*
X97816444Y-116501349D01*
X97816444Y-116501349D02*
X97745016Y-116465635D01*
X97745016Y-116465635D02*
X97566444Y-116465635D01*
X97566444Y-116465635D02*
X97495016Y-116501349D01*
X97495016Y-116501349D02*
X97459301Y-116537063D01*
X97459301Y-116537063D02*
X97423587Y-116608492D01*
X97423587Y-116608492D02*
X97423587Y-116679921D01*
X97423587Y-116679921D02*
X97459301Y-116787063D01*
X97459301Y-116787063D02*
X97887873Y-117215635D01*
X97887873Y-117215635D02*
X97423587Y-117215635D01*
X110204999Y-39141385D02*
X110204999Y-39677099D01*
X110204999Y-39677099D02*
X110240714Y-39784242D01*
X110240714Y-39784242D02*
X110312142Y-39855671D01*
X110312142Y-39855671D02*
X110419285Y-39891385D01*
X110419285Y-39891385D02*
X110490714Y-39891385D01*
X109526428Y-39391385D02*
X109526428Y-39891385D01*
X109704999Y-39105671D02*
X109883570Y-39641385D01*
X109883570Y-39641385D02*
X109419285Y-39641385D01*
X123627142Y-108741764D02*
X123627142Y-109277478D01*
X123627142Y-109277478D02*
X123662857Y-109384621D01*
X123662857Y-109384621D02*
X123734285Y-109456050D01*
X123734285Y-109456050D02*
X123841428Y-109491764D01*
X123841428Y-109491764D02*
X123912857Y-109491764D01*
X122877142Y-109491764D02*
X123305713Y-109491764D01*
X123091428Y-109491764D02*
X123091428Y-108741764D01*
X123091428Y-108741764D02*
X123162856Y-108848907D01*
X123162856Y-108848907D02*
X123234285Y-108920335D01*
X123234285Y-108920335D02*
X123305713Y-108956050D01*
X122412856Y-108741764D02*
X122341427Y-108741764D01*
X122341427Y-108741764D02*
X122269999Y-108777478D01*
X122269999Y-108777478D02*
X122234285Y-108813192D01*
X122234285Y-108813192D02*
X122198570Y-108884621D01*
X122198570Y-108884621D02*
X122162856Y-109027478D01*
X122162856Y-109027478D02*
X122162856Y-109206050D01*
X122162856Y-109206050D02*
X122198570Y-109348907D01*
X122198570Y-109348907D02*
X122234285Y-109420335D01*
X122234285Y-109420335D02*
X122269999Y-109456050D01*
X122269999Y-109456050D02*
X122341427Y-109491764D01*
X122341427Y-109491764D02*
X122412856Y-109491764D01*
X122412856Y-109491764D02*
X122484285Y-109456050D01*
X122484285Y-109456050D02*
X122519999Y-109420335D01*
X122519999Y-109420335D02*
X122555713Y-109348907D01*
X122555713Y-109348907D02*
X122591427Y-109206050D01*
X122591427Y-109206050D02*
X122591427Y-109027478D01*
X122591427Y-109027478D02*
X122555713Y-108884621D01*
X122555713Y-108884621D02*
X122519999Y-108813192D01*
X122519999Y-108813192D02*
X122484285Y-108777478D01*
X122484285Y-108777478D02*
X122412856Y-108741764D01*
X103825373Y-108561385D02*
X103825373Y-107811385D01*
X103825373Y-108525671D02*
X103896801Y-108561385D01*
X103896801Y-108561385D02*
X104039658Y-108561385D01*
X104039658Y-108561385D02*
X104111087Y-108525671D01*
X104111087Y-108525671D02*
X104146801Y-108489956D01*
X104146801Y-108489956D02*
X104182515Y-108418528D01*
X104182515Y-108418528D02*
X104182515Y-108204242D01*
X104182515Y-108204242D02*
X104146801Y-108132813D01*
X104146801Y-108132813D02*
X104111087Y-108097099D01*
X104111087Y-108097099D02*
X104039658Y-108061385D01*
X104039658Y-108061385D02*
X103896801Y-108061385D01*
X103896801Y-108061385D02*
X103825373Y-108097099D01*
X103039659Y-108489956D02*
X103075373Y-108525671D01*
X103075373Y-108525671D02*
X103182516Y-108561385D01*
X103182516Y-108561385D02*
X103253944Y-108561385D01*
X103253944Y-108561385D02*
X103361087Y-108525671D01*
X103361087Y-108525671D02*
X103432516Y-108454242D01*
X103432516Y-108454242D02*
X103468230Y-108382813D01*
X103468230Y-108382813D02*
X103503944Y-108239956D01*
X103503944Y-108239956D02*
X103503944Y-108132813D01*
X103503944Y-108132813D02*
X103468230Y-107989956D01*
X103468230Y-107989956D02*
X103432516Y-107918528D01*
X103432516Y-107918528D02*
X103361087Y-107847099D01*
X103361087Y-107847099D02*
X103253944Y-107811385D01*
X103253944Y-107811385D02*
X103182516Y-107811385D01*
X103182516Y-107811385D02*
X103075373Y-107847099D01*
X103075373Y-107847099D02*
X103039659Y-107882813D01*
X102325373Y-108561385D02*
X102753944Y-108561385D01*
X102539659Y-108561385D02*
X102539659Y-107811385D01*
X102539659Y-107811385D02*
X102611087Y-107918528D01*
X102611087Y-107918528D02*
X102682516Y-107989956D01*
X102682516Y-107989956D02*
X102753944Y-108025671D01*
X101896801Y-108132813D02*
X101968230Y-108097099D01*
X101968230Y-108097099D02*
X102003944Y-108061385D01*
X102003944Y-108061385D02*
X102039658Y-107989956D01*
X102039658Y-107989956D02*
X102039658Y-107954242D01*
X102039658Y-107954242D02*
X102003944Y-107882813D01*
X102003944Y-107882813D02*
X101968230Y-107847099D01*
X101968230Y-107847099D02*
X101896801Y-107811385D01*
X101896801Y-107811385D02*
X101753944Y-107811385D01*
X101753944Y-107811385D02*
X101682516Y-107847099D01*
X101682516Y-107847099D02*
X101646801Y-107882813D01*
X101646801Y-107882813D02*
X101611087Y-107954242D01*
X101611087Y-107954242D02*
X101611087Y-107989956D01*
X101611087Y-107989956D02*
X101646801Y-108061385D01*
X101646801Y-108061385D02*
X101682516Y-108097099D01*
X101682516Y-108097099D02*
X101753944Y-108132813D01*
X101753944Y-108132813D02*
X101896801Y-108132813D01*
X101896801Y-108132813D02*
X101968230Y-108168528D01*
X101968230Y-108168528D02*
X102003944Y-108204242D01*
X102003944Y-108204242D02*
X102039658Y-108275671D01*
X102039658Y-108275671D02*
X102039658Y-108418528D01*
X102039658Y-108418528D02*
X102003944Y-108489956D01*
X102003944Y-108489956D02*
X101968230Y-108525671D01*
X101968230Y-108525671D02*
X101896801Y-108561385D01*
X101896801Y-108561385D02*
X101753944Y-108561385D01*
X101753944Y-108561385D02*
X101682516Y-108525671D01*
X101682516Y-108525671D02*
X101646801Y-108489956D01*
X101646801Y-108489956D02*
X101611087Y-108418528D01*
X101611087Y-108418528D02*
X101611087Y-108275671D01*
X101611087Y-108275671D02*
X101646801Y-108204242D01*
X101646801Y-108204242D02*
X101682516Y-108168528D01*
X101682516Y-108168528D02*
X101753944Y-108132813D01*
X106087873Y-104521385D02*
X106087873Y-103771385D01*
X106087873Y-104485671D02*
X106159301Y-104521385D01*
X106159301Y-104521385D02*
X106302158Y-104521385D01*
X106302158Y-104521385D02*
X106373587Y-104485671D01*
X106373587Y-104485671D02*
X106409301Y-104449956D01*
X106409301Y-104449956D02*
X106445015Y-104378528D01*
X106445015Y-104378528D02*
X106445015Y-104164242D01*
X106445015Y-104164242D02*
X106409301Y-104092813D01*
X106409301Y-104092813D02*
X106373587Y-104057099D01*
X106373587Y-104057099D02*
X106302158Y-104021385D01*
X106302158Y-104021385D02*
X106159301Y-104021385D01*
X106159301Y-104021385D02*
X106087873Y-104057099D01*
X105302159Y-104521385D02*
X105552159Y-104164242D01*
X105730730Y-104521385D02*
X105730730Y-103771385D01*
X105730730Y-103771385D02*
X105445016Y-103771385D01*
X105445016Y-103771385D02*
X105373587Y-103807099D01*
X105373587Y-103807099D02*
X105337873Y-103842813D01*
X105337873Y-103842813D02*
X105302159Y-103914242D01*
X105302159Y-103914242D02*
X105302159Y-104021385D01*
X105302159Y-104021385D02*
X105337873Y-104092813D01*
X105337873Y-104092813D02*
X105373587Y-104128528D01*
X105373587Y-104128528D02*
X105445016Y-104164242D01*
X105445016Y-104164242D02*
X105730730Y-104164242D01*
X104587873Y-104521385D02*
X105016444Y-104521385D01*
X104802159Y-104521385D02*
X104802159Y-103771385D01*
X104802159Y-103771385D02*
X104873587Y-103878528D01*
X104873587Y-103878528D02*
X104945016Y-103949956D01*
X104945016Y-103949956D02*
X105016444Y-103985671D01*
X103945016Y-104021385D02*
X103945016Y-104521385D01*
X104123587Y-103735671D02*
X104302158Y-104271385D01*
X104302158Y-104271385D02*
X103837873Y-104271385D01*
X77271428Y-28851385D02*
X77271428Y-28458528D01*
X77271428Y-28458528D02*
X77307142Y-28387099D01*
X77307142Y-28387099D02*
X77378570Y-28351385D01*
X77378570Y-28351385D02*
X77521428Y-28351385D01*
X77521428Y-28351385D02*
X77592856Y-28387099D01*
X77271428Y-28815671D02*
X77342856Y-28851385D01*
X77342856Y-28851385D02*
X77521428Y-28851385D01*
X77521428Y-28851385D02*
X77592856Y-28815671D01*
X77592856Y-28815671D02*
X77628570Y-28744242D01*
X77628570Y-28744242D02*
X77628570Y-28672813D01*
X77628570Y-28672813D02*
X77592856Y-28601385D01*
X77592856Y-28601385D02*
X77521428Y-28565671D01*
X77521428Y-28565671D02*
X77342856Y-28565671D01*
X77342856Y-28565671D02*
X77271428Y-28529956D01*
X76485714Y-28779956D02*
X76521428Y-28815671D01*
X76521428Y-28815671D02*
X76628571Y-28851385D01*
X76628571Y-28851385D02*
X76699999Y-28851385D01*
X76699999Y-28851385D02*
X76807142Y-28815671D01*
X76807142Y-28815671D02*
X76878571Y-28744242D01*
X76878571Y-28744242D02*
X76914285Y-28672813D01*
X76914285Y-28672813D02*
X76949999Y-28529956D01*
X76949999Y-28529956D02*
X76949999Y-28422813D01*
X76949999Y-28422813D02*
X76914285Y-28279956D01*
X76914285Y-28279956D02*
X76878571Y-28208528D01*
X76878571Y-28208528D02*
X76807142Y-28137099D01*
X76807142Y-28137099D02*
X76699999Y-28101385D01*
X76699999Y-28101385D02*
X76628571Y-28101385D01*
X76628571Y-28101385D02*
X76521428Y-28137099D01*
X76521428Y-28137099D02*
X76485714Y-28172813D01*
X76057142Y-28422813D02*
X76128571Y-28387099D01*
X76128571Y-28387099D02*
X76164285Y-28351385D01*
X76164285Y-28351385D02*
X76199999Y-28279956D01*
X76199999Y-28279956D02*
X76199999Y-28244242D01*
X76199999Y-28244242D02*
X76164285Y-28172813D01*
X76164285Y-28172813D02*
X76128571Y-28137099D01*
X76128571Y-28137099D02*
X76057142Y-28101385D01*
X76057142Y-28101385D02*
X75914285Y-28101385D01*
X75914285Y-28101385D02*
X75842857Y-28137099D01*
X75842857Y-28137099D02*
X75807142Y-28172813D01*
X75807142Y-28172813D02*
X75771428Y-28244242D01*
X75771428Y-28244242D02*
X75771428Y-28279956D01*
X75771428Y-28279956D02*
X75807142Y-28351385D01*
X75807142Y-28351385D02*
X75842857Y-28387099D01*
X75842857Y-28387099D02*
X75914285Y-28422813D01*
X75914285Y-28422813D02*
X76057142Y-28422813D01*
X76057142Y-28422813D02*
X76128571Y-28458528D01*
X76128571Y-28458528D02*
X76164285Y-28494242D01*
X76164285Y-28494242D02*
X76199999Y-28565671D01*
X76199999Y-28565671D02*
X76199999Y-28708528D01*
X76199999Y-28708528D02*
X76164285Y-28779956D01*
X76164285Y-28779956D02*
X76128571Y-28815671D01*
X76128571Y-28815671D02*
X76057142Y-28851385D01*
X76057142Y-28851385D02*
X75914285Y-28851385D01*
X75914285Y-28851385D02*
X75842857Y-28815671D01*
X75842857Y-28815671D02*
X75807142Y-28779956D01*
X75807142Y-28779956D02*
X75771428Y-28708528D01*
X75771428Y-28708528D02*
X75771428Y-28565671D01*
X75771428Y-28565671D02*
X75807142Y-28494242D01*
X75807142Y-28494242D02*
X75842857Y-28458528D01*
X75842857Y-28458528D02*
X75914285Y-28422813D01*
X107128571Y-67091385D02*
X107128571Y-66698528D01*
X107128571Y-66698528D02*
X107164285Y-66627099D01*
X107164285Y-66627099D02*
X107235713Y-66591385D01*
X107235713Y-66591385D02*
X107378571Y-66591385D01*
X107378571Y-66591385D02*
X107449999Y-66627099D01*
X107128571Y-67055671D02*
X107199999Y-67091385D01*
X107199999Y-67091385D02*
X107378571Y-67091385D01*
X107378571Y-67091385D02*
X107449999Y-67055671D01*
X107449999Y-67055671D02*
X107485713Y-66984242D01*
X107485713Y-66984242D02*
X107485713Y-66912813D01*
X107485713Y-66912813D02*
X107449999Y-66841385D01*
X107449999Y-66841385D02*
X107378571Y-66805671D01*
X107378571Y-66805671D02*
X107199999Y-66805671D01*
X107199999Y-66805671D02*
X107128571Y-66769956D01*
X106342857Y-67091385D02*
X106592857Y-66734242D01*
X106771428Y-67091385D02*
X106771428Y-66341385D01*
X106771428Y-66341385D02*
X106485714Y-66341385D01*
X106485714Y-66341385D02*
X106414285Y-66377099D01*
X106414285Y-66377099D02*
X106378571Y-66412813D01*
X106378571Y-66412813D02*
X106342857Y-66484242D01*
X106342857Y-66484242D02*
X106342857Y-66591385D01*
X106342857Y-66591385D02*
X106378571Y-66662813D01*
X106378571Y-66662813D02*
X106414285Y-66698528D01*
X106414285Y-66698528D02*
X106485714Y-66734242D01*
X106485714Y-66734242D02*
X106771428Y-66734242D01*
X105628571Y-67091385D02*
X106057142Y-67091385D01*
X105842857Y-67091385D02*
X105842857Y-66341385D01*
X105842857Y-66341385D02*
X105914285Y-66448528D01*
X105914285Y-66448528D02*
X105985714Y-66519956D01*
X105985714Y-66519956D02*
X106057142Y-66555671D01*
X104949999Y-66341385D02*
X105307142Y-66341385D01*
X105307142Y-66341385D02*
X105342856Y-66698528D01*
X105342856Y-66698528D02*
X105307142Y-66662813D01*
X105307142Y-66662813D02*
X105235714Y-66627099D01*
X105235714Y-66627099D02*
X105057142Y-66627099D01*
X105057142Y-66627099D02*
X104985714Y-66662813D01*
X104985714Y-66662813D02*
X104949999Y-66698528D01*
X104949999Y-66698528D02*
X104914285Y-66769956D01*
X104914285Y-66769956D02*
X104914285Y-66948528D01*
X104914285Y-66948528D02*
X104949999Y-67019956D01*
X104949999Y-67019956D02*
X104985714Y-67055671D01*
X104985714Y-67055671D02*
X105057142Y-67091385D01*
X105057142Y-67091385D02*
X105235714Y-67091385D01*
X105235714Y-67091385D02*
X105307142Y-67055671D01*
X105307142Y-67055671D02*
X105342856Y-67019956D01*
X103937873Y-106971385D02*
X103937873Y-106221385D01*
X103937873Y-106935671D02*
X104009301Y-106971385D01*
X104009301Y-106971385D02*
X104152158Y-106971385D01*
X104152158Y-106971385D02*
X104223587Y-106935671D01*
X104223587Y-106935671D02*
X104259301Y-106899956D01*
X104259301Y-106899956D02*
X104295015Y-106828528D01*
X104295015Y-106828528D02*
X104295015Y-106614242D01*
X104295015Y-106614242D02*
X104259301Y-106542813D01*
X104259301Y-106542813D02*
X104223587Y-106507099D01*
X104223587Y-106507099D02*
X104152158Y-106471385D01*
X104152158Y-106471385D02*
X104009301Y-106471385D01*
X104009301Y-106471385D02*
X103937873Y-106507099D01*
X103152159Y-106899956D02*
X103187873Y-106935671D01*
X103187873Y-106935671D02*
X103295016Y-106971385D01*
X103295016Y-106971385D02*
X103366444Y-106971385D01*
X103366444Y-106971385D02*
X103473587Y-106935671D01*
X103473587Y-106935671D02*
X103545016Y-106864242D01*
X103545016Y-106864242D02*
X103580730Y-106792813D01*
X103580730Y-106792813D02*
X103616444Y-106649956D01*
X103616444Y-106649956D02*
X103616444Y-106542813D01*
X103616444Y-106542813D02*
X103580730Y-106399956D01*
X103580730Y-106399956D02*
X103545016Y-106328528D01*
X103545016Y-106328528D02*
X103473587Y-106257099D01*
X103473587Y-106257099D02*
X103366444Y-106221385D01*
X103366444Y-106221385D02*
X103295016Y-106221385D01*
X103295016Y-106221385D02*
X103187873Y-106257099D01*
X103187873Y-106257099D02*
X103152159Y-106292813D01*
X102437873Y-106971385D02*
X102866444Y-106971385D01*
X102652159Y-106971385D02*
X102652159Y-106221385D01*
X102652159Y-106221385D02*
X102723587Y-106328528D01*
X102723587Y-106328528D02*
X102795016Y-106399956D01*
X102795016Y-106399956D02*
X102866444Y-106435671D01*
X102187873Y-106221385D02*
X101687873Y-106221385D01*
X101687873Y-106221385D02*
X102009301Y-106971385D01*
X78144999Y-39041385D02*
X78144999Y-39577099D01*
X78144999Y-39577099D02*
X78180714Y-39684242D01*
X78180714Y-39684242D02*
X78252142Y-39755671D01*
X78252142Y-39755671D02*
X78359285Y-39791385D01*
X78359285Y-39791385D02*
X78430714Y-39791385D01*
X77823570Y-39112813D02*
X77787856Y-39077099D01*
X77787856Y-39077099D02*
X77716428Y-39041385D01*
X77716428Y-39041385D02*
X77537856Y-39041385D01*
X77537856Y-39041385D02*
X77466428Y-39077099D01*
X77466428Y-39077099D02*
X77430713Y-39112813D01*
X77430713Y-39112813D02*
X77394999Y-39184242D01*
X77394999Y-39184242D02*
X77394999Y-39255671D01*
X77394999Y-39255671D02*
X77430713Y-39362813D01*
X77430713Y-39362813D02*
X77859285Y-39791385D01*
X77859285Y-39791385D02*
X77394999Y-39791385D01*
X104580730Y-124240135D02*
X104580730Y-123490135D01*
X104580730Y-124204421D02*
X104652158Y-124240135D01*
X104652158Y-124240135D02*
X104795015Y-124240135D01*
X104795015Y-124240135D02*
X104866444Y-124204421D01*
X104866444Y-124204421D02*
X104902158Y-124168706D01*
X104902158Y-124168706D02*
X104937872Y-124097278D01*
X104937872Y-124097278D02*
X104937872Y-123882992D01*
X104937872Y-123882992D02*
X104902158Y-123811563D01*
X104902158Y-123811563D02*
X104866444Y-123775849D01*
X104866444Y-123775849D02*
X104795015Y-123740135D01*
X104795015Y-123740135D02*
X104652158Y-123740135D01*
X104652158Y-123740135D02*
X104580730Y-123775849D01*
X103795016Y-124240135D02*
X104045016Y-123882992D01*
X104223587Y-124240135D02*
X104223587Y-123490135D01*
X104223587Y-123490135D02*
X103937873Y-123490135D01*
X103937873Y-123490135D02*
X103866444Y-123525849D01*
X103866444Y-123525849D02*
X103830730Y-123561563D01*
X103830730Y-123561563D02*
X103795016Y-123632992D01*
X103795016Y-123632992D02*
X103795016Y-123740135D01*
X103795016Y-123740135D02*
X103830730Y-123811563D01*
X103830730Y-123811563D02*
X103866444Y-123847278D01*
X103866444Y-123847278D02*
X103937873Y-123882992D01*
X103937873Y-123882992D02*
X104223587Y-123882992D01*
X103152159Y-123490135D02*
X103295016Y-123490135D01*
X103295016Y-123490135D02*
X103366444Y-123525849D01*
X103366444Y-123525849D02*
X103402159Y-123561563D01*
X103402159Y-123561563D02*
X103473587Y-123668706D01*
X103473587Y-123668706D02*
X103509301Y-123811563D01*
X103509301Y-123811563D02*
X103509301Y-124097278D01*
X103509301Y-124097278D02*
X103473587Y-124168706D01*
X103473587Y-124168706D02*
X103437873Y-124204421D01*
X103437873Y-124204421D02*
X103366444Y-124240135D01*
X103366444Y-124240135D02*
X103223587Y-124240135D01*
X103223587Y-124240135D02*
X103152159Y-124204421D01*
X103152159Y-124204421D02*
X103116444Y-124168706D01*
X103116444Y-124168706D02*
X103080730Y-124097278D01*
X103080730Y-124097278D02*
X103080730Y-123918706D01*
X103080730Y-123918706D02*
X103116444Y-123847278D01*
X103116444Y-123847278D02*
X103152159Y-123811563D01*
X103152159Y-123811563D02*
X103223587Y-123775849D01*
X103223587Y-123775849D02*
X103366444Y-123775849D01*
X103366444Y-123775849D02*
X103437873Y-123811563D01*
X103437873Y-123811563D02*
X103473587Y-123847278D01*
X103473587Y-123847278D02*
X103509301Y-123918706D01*
X109346428Y-23771385D02*
X109346428Y-23378528D01*
X109346428Y-23378528D02*
X109382142Y-23307099D01*
X109382142Y-23307099D02*
X109453570Y-23271385D01*
X109453570Y-23271385D02*
X109596428Y-23271385D01*
X109596428Y-23271385D02*
X109667856Y-23307099D01*
X109346428Y-23735671D02*
X109417856Y-23771385D01*
X109417856Y-23771385D02*
X109596428Y-23771385D01*
X109596428Y-23771385D02*
X109667856Y-23735671D01*
X109667856Y-23735671D02*
X109703570Y-23664242D01*
X109703570Y-23664242D02*
X109703570Y-23592813D01*
X109703570Y-23592813D02*
X109667856Y-23521385D01*
X109667856Y-23521385D02*
X109596428Y-23485671D01*
X109596428Y-23485671D02*
X109417856Y-23485671D01*
X109417856Y-23485671D02*
X109346428Y-23449956D01*
X108560714Y-23771385D02*
X108810714Y-23414242D01*
X108989285Y-23771385D02*
X108989285Y-23021385D01*
X108989285Y-23021385D02*
X108703571Y-23021385D01*
X108703571Y-23021385D02*
X108632142Y-23057099D01*
X108632142Y-23057099D02*
X108596428Y-23092813D01*
X108596428Y-23092813D02*
X108560714Y-23164242D01*
X108560714Y-23164242D02*
X108560714Y-23271385D01*
X108560714Y-23271385D02*
X108596428Y-23342813D01*
X108596428Y-23342813D02*
X108632142Y-23378528D01*
X108632142Y-23378528D02*
X108703571Y-23414242D01*
X108703571Y-23414242D02*
X108989285Y-23414242D01*
X108132142Y-23342813D02*
X108203571Y-23307099D01*
X108203571Y-23307099D02*
X108239285Y-23271385D01*
X108239285Y-23271385D02*
X108274999Y-23199956D01*
X108274999Y-23199956D02*
X108274999Y-23164242D01*
X108274999Y-23164242D02*
X108239285Y-23092813D01*
X108239285Y-23092813D02*
X108203571Y-23057099D01*
X108203571Y-23057099D02*
X108132142Y-23021385D01*
X108132142Y-23021385D02*
X107989285Y-23021385D01*
X107989285Y-23021385D02*
X107917857Y-23057099D01*
X107917857Y-23057099D02*
X107882142Y-23092813D01*
X107882142Y-23092813D02*
X107846428Y-23164242D01*
X107846428Y-23164242D02*
X107846428Y-23199956D01*
X107846428Y-23199956D02*
X107882142Y-23271385D01*
X107882142Y-23271385D02*
X107917857Y-23307099D01*
X107917857Y-23307099D02*
X107989285Y-23342813D01*
X107989285Y-23342813D02*
X108132142Y-23342813D01*
X108132142Y-23342813D02*
X108203571Y-23378528D01*
X108203571Y-23378528D02*
X108239285Y-23414242D01*
X108239285Y-23414242D02*
X108274999Y-23485671D01*
X108274999Y-23485671D02*
X108274999Y-23628528D01*
X108274999Y-23628528D02*
X108239285Y-23699956D01*
X108239285Y-23699956D02*
X108203571Y-23735671D01*
X108203571Y-23735671D02*
X108132142Y-23771385D01*
X108132142Y-23771385D02*
X107989285Y-23771385D01*
X107989285Y-23771385D02*
X107917857Y-23735671D01*
X107917857Y-23735671D02*
X107882142Y-23699956D01*
X107882142Y-23699956D02*
X107846428Y-23628528D01*
X107846428Y-23628528D02*
X107846428Y-23485671D01*
X107846428Y-23485671D02*
X107882142Y-23414242D01*
X107882142Y-23414242D02*
X107917857Y-23378528D01*
X107917857Y-23378528D02*
X107989285Y-23342813D01*
%TO.C,J11*%
D11*
X154150000Y-110190000D02*
X156000000Y-110190000D01*
X156000000Y-121710000D02*
X154150000Y-121710000D01*
D12*
X157475000Y-111150000D02*
G75*
G02*
X157275000Y-111150000I-100000J0D01*
G01*
X157275000Y-111150000D02*
G75*
G02*
X157475000Y-111150000I100000J0D01*
G01*
%TO.C,dC16*%
D13*
X95756222Y-105909621D02*
X96037382Y-105909621D01*
X95756222Y-106929621D02*
X96037382Y-106929621D01*
%TO.C,dR7*%
X103886802Y-121142363D02*
X103886802Y-121616879D01*
X104931802Y-121142363D02*
X104931802Y-121616879D01*
%TO.C,dC15*%
X96106222Y-101364621D02*
X96387382Y-101364621D01*
X96106222Y-102384621D02*
X96387382Y-102384621D01*
%TO.C,dC14*%
X95785550Y-103039621D02*
X96308054Y-103039621D01*
X95785550Y-104509621D02*
X96308054Y-104509621D01*
%TO.C,J19*%
D11*
X109034302Y-119569621D02*
X110884302Y-119569621D01*
X110884302Y-131089621D02*
X109034302Y-131089621D01*
D12*
X112359302Y-120529621D02*
G75*
G02*
X112159302Y-120529621I-100000J0D01*
G01*
X112159302Y-120529621D02*
G75*
G02*
X112359302Y-120529621I100000J0D01*
G01*
%TO.C,J23*%
D11*
X108950000Y-167169621D02*
X110800000Y-167169621D01*
X110800000Y-178689621D02*
X108950000Y-178689621D01*
D12*
X112275000Y-168129621D02*
G75*
G02*
X112075000Y-168129621I-100000J0D01*
G01*
X112075000Y-168129621D02*
G75*
G02*
X112275000Y-168129621I100000J0D01*
G01*
%TO.C,dR8*%
D13*
X102136802Y-119616879D02*
X102136802Y-119142363D01*
X103181802Y-119616879D02*
X103181802Y-119142363D01*
%TO.C,aR16*%
X109437258Y-72477121D02*
X108962742Y-72477121D01*
X109437258Y-73522121D02*
X108962742Y-73522121D01*
%TO.C,J7*%
D11*
X154104517Y-40128003D02*
X155954517Y-40128003D01*
X155954517Y-51648003D02*
X154104517Y-51648003D01*
D12*
X157429517Y-41088003D02*
G75*
G02*
X157229517Y-41088003I-100000J0D01*
G01*
X157229517Y-41088003D02*
G75*
G02*
X157429517Y-41088003I100000J0D01*
G01*
%TO.C,aR17*%
D13*
X109437258Y-63977121D02*
X108962742Y-63977121D01*
X109437258Y-65022121D02*
X108962742Y-65022121D01*
%TO.C,aC7*%
X79059420Y-26239621D02*
X79340580Y-26239621D01*
X79059420Y-27259621D02*
X79340580Y-27259621D01*
%TO.C,J31*%
D11*
X153947718Y-165890000D02*
X155797718Y-165890000D01*
X155797718Y-177410000D02*
X153947718Y-177410000D01*
D12*
X157272718Y-166850000D02*
G75*
G02*
X157072718Y-166850000I-100000J0D01*
G01*
X157072718Y-166850000D02*
G75*
G02*
X157272718Y-166850000I100000J0D01*
G01*
%TO.C,aR14*%
D13*
X109437258Y-68477121D02*
X108962742Y-68477121D01*
X109437258Y-69522121D02*
X108962742Y-69522121D01*
%TO.C,J18*%
D11*
X77034302Y-119569621D02*
X78884302Y-119569621D01*
X78884302Y-131089621D02*
X77034302Y-131089621D01*
D12*
X80359302Y-120529621D02*
G75*
G02*
X80159302Y-120529621I-100000J0D01*
G01*
X80159302Y-120529621D02*
G75*
G02*
X80359302Y-120529621I100000J0D01*
G01*
%TO.C,aC6*%
D13*
X79059420Y-24489621D02*
X79340580Y-24489621D01*
X79059420Y-25509621D02*
X79340580Y-25509621D01*
%TO.C,J30*%
D11*
X121947718Y-165890000D02*
X123797718Y-165890000D01*
X123797718Y-177410000D02*
X121947718Y-177410000D01*
D12*
X125272718Y-166850000D02*
G75*
G02*
X125072718Y-166850000I-100000J0D01*
G01*
X125072718Y-166850000D02*
G75*
G02*
X125272718Y-166850000I100000J0D01*
G01*
%TO.C,dR5*%
D13*
X100146560Y-121357121D02*
X99672044Y-121357121D01*
X100146560Y-122402121D02*
X99672044Y-122402121D01*
%TO.C,dR13*%
X100571560Y-104457121D02*
X100097044Y-104457121D01*
X100571560Y-105502121D02*
X100097044Y-105502121D01*
%TO.C,dR17*%
X103286802Y-114796685D02*
X103286802Y-110442557D01*
X106706802Y-114796685D02*
X106706802Y-110442557D01*
%TO.C,dU3*%
X97436802Y-110559621D02*
X97436802Y-114679621D01*
X97436802Y-114679621D02*
X97531802Y-114679621D01*
X97531802Y-110559621D02*
X97436802Y-110559621D01*
X102461802Y-114679621D02*
X102556802Y-114679621D01*
X102556802Y-110559621D02*
X102461802Y-110559621D01*
X102556802Y-114679621D02*
X102556802Y-110559621D01*
X102796802Y-115459621D02*
X102466802Y-115219621D01*
X102796802Y-114979621D01*
X102796802Y-115459621D01*
G36*
X102796802Y-115459621D02*
G01*
X102466802Y-115219621D01*
X102796802Y-114979621D01*
X102796802Y-115459621D01*
G37*
%TO.C,aU1*%
X81840000Y-16479621D02*
X81840000Y-16899621D01*
X81840000Y-19019621D02*
X81840000Y-19439621D01*
X81840000Y-21559621D02*
X81840000Y-21979621D01*
X81840000Y-24099621D02*
X81840000Y-24519621D01*
X81840000Y-26639621D02*
X81840000Y-27059621D01*
X81840000Y-29179621D02*
X81840000Y-29599621D01*
X81840000Y-31719621D02*
X81840000Y-32139621D01*
X81840000Y-34259621D02*
X81840000Y-34679621D01*
X81840000Y-36799621D02*
X81840000Y-37219621D01*
X81840000Y-39339621D02*
X81840000Y-39759621D01*
X81840000Y-41879621D02*
X81840000Y-42299621D01*
X81840000Y-44419621D02*
X81840000Y-44839621D01*
X81840000Y-46959621D02*
X81840000Y-47379621D01*
X81840000Y-49499621D02*
X81840000Y-49919621D01*
X81840000Y-52039621D02*
X81840000Y-52459621D01*
X81840000Y-54579621D02*
X81840000Y-54999621D01*
X81840000Y-57119621D02*
X81840000Y-57539621D01*
X81840000Y-59659621D02*
X81840000Y-60079621D01*
X81840000Y-62199621D02*
X81840000Y-62619621D01*
X82450000Y-13939621D02*
X84940000Y-13939621D01*
X86287939Y-13939621D02*
X84940000Y-13939621D01*
X86287939Y-65159621D02*
X82450000Y-65159621D01*
X87212061Y-65159621D02*
X88850000Y-65159621D01*
X88215000Y-13939621D02*
X87212061Y-13939621D01*
X91390000Y-65159621D02*
X90970000Y-65159621D01*
X93930000Y-65159621D02*
X93510000Y-65159621D01*
X96050000Y-65159621D02*
X97687939Y-65159621D01*
X96685000Y-13939621D02*
X88215000Y-13939621D01*
X97687939Y-13939621D02*
X96685000Y-13939621D01*
X99960000Y-13939621D02*
X98612060Y-13939621D01*
X102450000Y-13939621D02*
X99960000Y-13939621D01*
X102450000Y-65159621D02*
X98612061Y-65159621D01*
X103029676Y-14359621D02*
X103540000Y-14359621D01*
X103060000Y-16479621D02*
X103060000Y-16899621D01*
X103060000Y-16479621D02*
X103540000Y-16479621D01*
X103060000Y-19019621D02*
X103060000Y-19439621D01*
X103060000Y-21559621D02*
X103060000Y-21979621D01*
X103060000Y-24099621D02*
X103060000Y-24519621D01*
X103060000Y-26639621D02*
X103060000Y-27059621D01*
X103060000Y-29179621D02*
X103060000Y-29599621D01*
X103060000Y-31719621D02*
X103060000Y-32139621D01*
X103060000Y-34259621D02*
X103060000Y-34679621D01*
X103060000Y-36799621D02*
X103060000Y-37219621D01*
X103060000Y-39339621D02*
X103060000Y-39759621D01*
X103060000Y-41879621D02*
X103060000Y-42299621D01*
X103060000Y-44419621D02*
X103060000Y-44839621D01*
X103060000Y-46959621D02*
X103060000Y-47379621D01*
X103060000Y-49499621D02*
X103060000Y-49919621D01*
X103060000Y-52039621D02*
X103060000Y-52459621D01*
X103060000Y-54579621D02*
X103060000Y-54999621D01*
X103060000Y-57119621D02*
X103060000Y-57539621D01*
X103060000Y-59659621D02*
X103060000Y-60079621D01*
X103060000Y-62199621D02*
X103060000Y-62619621D01*
X81870324Y-14359684D02*
G75*
G02*
X82450000Y-13939621I579676J-189937D01*
G01*
X82450000Y-65159621D02*
G75*
G02*
X81870340Y-64739553I-200J609700D01*
G01*
X102450000Y-13939621D02*
G75*
G02*
X103029676Y-14359621I-16J-610051D01*
G01*
X103029676Y-64739558D02*
G75*
G02*
X102450000Y-65159621I-579677J189939D01*
G01*
%TO.C,J6*%
D11*
X122104517Y-40128003D02*
X123954517Y-40128003D01*
X123954517Y-51648003D02*
X122104517Y-51648003D01*
D12*
X125429517Y-41088003D02*
G75*
G02*
X125229517Y-41088003I-100000J0D01*
G01*
X125229517Y-41088003D02*
G75*
G02*
X125429517Y-41088003I100000J0D01*
G01*
%TO.C,J22*%
D11*
X76950000Y-167169621D02*
X78800000Y-167169621D01*
X78800000Y-178689621D02*
X76950000Y-178689621D01*
D12*
X80275000Y-168129621D02*
G75*
G02*
X80075000Y-168129621I-100000J0D01*
G01*
X80075000Y-168129621D02*
G75*
G02*
X80275000Y-168129621I100000J0D01*
G01*
%TO.C,dC11*%
D13*
X95348050Y-117963371D02*
X95870554Y-117963371D01*
X95348050Y-119433371D02*
X95870554Y-119433371D01*
%TO.C,dR18*%
X96174302Y-108482363D02*
X96174302Y-108956879D01*
X97219302Y-108482363D02*
X97219302Y-108956879D01*
%TO.C,aR13*%
X109437258Y-70727121D02*
X108962742Y-70727121D01*
X109437258Y-71772121D02*
X108962742Y-71772121D01*
%TO.C,dC12*%
X95668722Y-116388371D02*
X95949882Y-116388371D01*
X95668722Y-117408371D02*
X95949882Y-117408371D01*
%TO.C,J4*%
D11*
X109025000Y-40489621D02*
X110875000Y-40489621D01*
X110875000Y-52009621D02*
X109025000Y-52009621D01*
D12*
X112350000Y-41449621D02*
G75*
G02*
X112150000Y-41449621I-100000J0D01*
G01*
X112150000Y-41449621D02*
G75*
G02*
X112350000Y-41449621I100000J0D01*
G01*
%TO.C,J10*%
D11*
X122150000Y-110190000D02*
X124000000Y-110190000D01*
X124000000Y-121710000D02*
X122150000Y-121710000D01*
D12*
X125475000Y-111150000D02*
G75*
G02*
X125275000Y-111150000I-100000J0D01*
G01*
X125275000Y-111150000D02*
G75*
G02*
X125475000Y-111150000I100000J0D01*
G01*
%TO.C,dC18*%
D13*
X100112382Y-107609621D02*
X99831222Y-107609621D01*
X100112382Y-108629621D02*
X99831222Y-108629621D01*
%TO.C,dR14*%
X102286802Y-104416879D02*
X102286802Y-103942363D01*
X103331802Y-104416879D02*
X103331802Y-103942363D01*
%TO.C,aC8*%
X79059420Y-27989621D02*
X79340580Y-27989621D01*
X79059420Y-29009621D02*
X79340580Y-29009621D01*
%TO.C,aR15*%
X109437258Y-66227121D02*
X108962742Y-66227121D01*
X109437258Y-67272121D02*
X108962742Y-67272121D01*
%TO.C,dC17*%
X100112382Y-106109621D02*
X99831222Y-106109621D01*
X100112382Y-107129621D02*
X99831222Y-107129621D01*
%TO.C,J2*%
D11*
X77025000Y-40489621D02*
X78875000Y-40489621D01*
X78875000Y-52009621D02*
X77025000Y-52009621D01*
D12*
X80350000Y-41449621D02*
G75*
G02*
X80150000Y-41449621I-100000J0D01*
G01*
X80150000Y-41449621D02*
G75*
G02*
X80350000Y-41449621I100000J0D01*
G01*
%TO.C,dR6*%
D13*
X101636802Y-122467363D02*
X101636802Y-122941879D01*
X102681802Y-122467363D02*
X102681802Y-122941879D01*
%TO.C,aR8*%
X108537742Y-21477121D02*
X109012258Y-21477121D01*
X108537742Y-22522121D02*
X109012258Y-22522121D01*
%TD*%
M02*
