%TF.GenerationSoftware,KiCad,Pcbnew,9.0.6*%
%TF.CreationDate,2026-03-23T19:07:00-04:00*%
%TF.ProjectId,RX,52582e6b-6963-4616-945f-706362585858,rev?*%
%TF.SameCoordinates,Original*%
%TF.FileFunction,Copper,L1,Top*%
%TF.FilePolarity,Positive*%
%FSLAX46Y46*%
G04 Gerber Fmt 4.6, Leading zero omitted, Abs format (unit mm)*
G04 Created by KiCad (PCBNEW 9.0.6) date 2026-03-23 19:07:00*
%MOMM*%
%LPD*%
G01*
G04 APERTURE LIST*
G04 Aperture macros list*
%AMRoundRect*
0 Rectangle with rounded corners*
0 $1 Rounding radius*
0 $2 $3 $4 $5 $6 $7 $8 $9 X,Y pos of 4 corners*
0 Add a 4 corners polygon primitive as box body*
4,1,4,$2,$3,$4,$5,$6,$7,$8,$9,$2,$3,0*
0 Add four circle primitives for the rounded corners*
1,1,$1+$1,$2,$3*
1,1,$1+$1,$4,$5*
1,1,$1+$1,$6,$7*
1,1,$1+$1,$8,$9*
0 Add four rect primitives between the rounded corners*
20,1,$1+$1,$2,$3,$4,$5,0*
20,1,$1+$1,$4,$5,$6,$7,0*
20,1,$1+$1,$6,$7,$8,$9,0*
20,1,$1+$1,$8,$9,$2,$3,0*%
G04 Aperture macros list end*
%TA.AperFunction,SMDPad,CuDef*%
%ADD10RoundRect,0.200000X-0.200000X-0.275000X0.200000X-0.275000X0.200000X0.275000X-0.200000X0.275000X0*%
%TD*%
%TA.AperFunction,SMDPad,CuDef*%
%ADD11RoundRect,0.225000X-0.250000X0.225000X-0.250000X-0.225000X0.250000X-0.225000X0.250000X0.225000X0*%
%TD*%
%TA.AperFunction,SMDPad,CuDef*%
%ADD12RoundRect,0.225000X-0.225000X-0.250000X0.225000X-0.250000X0.225000X0.250000X-0.225000X0.250000X0*%
%TD*%
%TA.AperFunction,SMDPad,CuDef*%
%ADD13R,0.431800X1.422400*%
%TD*%
%TA.AperFunction,ComponentPad*%
%ADD14R,1.700000X1.700000*%
%TD*%
%TA.AperFunction,ComponentPad*%
%ADD15C,1.700000*%
%TD*%
%TA.AperFunction,SMDPad,CuDef*%
%ADD16RoundRect,0.200000X-0.275000X0.200000X-0.275000X-0.200000X0.275000X-0.200000X0.275000X0.200000X0*%
%TD*%
%TA.AperFunction,ComponentPad*%
%ADD17RoundRect,0.250001X-1.099999X-1.099999X1.099999X-1.099999X1.099999X1.099999X-1.099999X1.099999X0*%
%TD*%
%TA.AperFunction,ComponentPad*%
%ADD18C,2.700000*%
%TD*%
%TA.AperFunction,SMDPad,CuDef*%
%ADD19RoundRect,0.200000X0.200000X0.275000X-0.200000X0.275000X-0.200000X-0.275000X0.200000X-0.275000X0*%
%TD*%
%TA.AperFunction,SMDPad,CuDef*%
%ADD20R,1.000000X1.000000*%
%TD*%
%TA.AperFunction,SMDPad,CuDef*%
%ADD21R,0.304800X0.850900*%
%TD*%
%TA.AperFunction,SMDPad,CuDef*%
%ADD22RoundRect,0.225000X0.250000X-0.225000X0.250000X0.225000X-0.250000X0.225000X-0.250000X-0.225000X0*%
%TD*%
%TA.AperFunction,SMDPad,CuDef*%
%ADD23O,0.549999X1.250000*%
%TD*%
%TA.AperFunction,SMDPad,CuDef*%
%ADD24RoundRect,0.200000X0.275000X-0.200000X0.275000X0.200000X-0.275000X0.200000X-0.275000X-0.200000X0*%
%TD*%
%TA.AperFunction,SMDPad,CuDef*%
%ADD25RoundRect,0.250000X-0.650000X0.325000X-0.650000X-0.325000X0.650000X-0.325000X0.650000X0.325000X0*%
%TD*%
%TA.AperFunction,SMDPad,CuDef*%
%ADD26R,0.355600X1.168400*%
%TD*%
%TA.AperFunction,SMDPad,CuDef*%
%ADD27R,0.355600X1.460500*%
%TD*%
%TA.AperFunction,ViaPad*%
%ADD28C,0.600000*%
%TD*%
%TA.AperFunction,Conductor*%
%ADD29C,0.400000*%
%TD*%
%TA.AperFunction,Conductor*%
%ADD30C,0.600000*%
%TD*%
G04 APERTURE END LIST*
D10*
%TO.P,R1,1*%
%TO.N,GND*%
X145675000Y-57250000D03*
%TO.P,R1,2*%
%TO.N,AGND*%
X147325000Y-57250000D03*
%TD*%
D11*
%TO.P,C3,1*%
%TO.N,V_REF_HALF*%
X163000000Y-97975000D03*
%TO.P,C3,2*%
%TO.N,GND*%
X163000000Y-99525000D03*
%TD*%
D12*
%TO.P,C5,1*%
%TO.N,Net-(U1-IN+)*%
X164650000Y-82000000D03*
%TO.P,C5,2*%
%TO.N,AGND*%
X166200000Y-82000000D03*
%TD*%
%TO.P,C10,1*%
%TO.N,3.3V*%
X156725000Y-94624999D03*
%TO.P,C10,2*%
%TO.N,AGND*%
X158275000Y-94624999D03*
%TD*%
D13*
%TO.P,U4,1,OUTA*%
%TO.N,/HPF_OUT*%
X154974999Y-89953299D03*
%TO.P,U4,2,INA-*%
X154325001Y-89953299D03*
%TO.P,U4,3,INA+*%
%TO.N,Net-(U4-INA+)*%
X153674999Y-89953299D03*
%TO.P,U4,4,V-*%
%TO.N,AGND*%
X153025001Y-89953299D03*
%TO.P,U4,5,INB+*%
%TO.N,Net-(U4-INB+)*%
X153025001Y-94296699D03*
%TO.P,U4,6,INB-*%
%TO.N,/BPF_OUT*%
X153674999Y-94296699D03*
%TO.P,U4,7,OUTB*%
X154325001Y-94296699D03*
%TO.P,U4,8,V+*%
%TO.N,3.3V*%
X154974999Y-94296699D03*
%TD*%
D11*
%TO.P,C7,1*%
%TO.N,3.3V*%
X155250000Y-82099999D03*
%TO.P,C7,2*%
%TO.N,AGND*%
X155250000Y-83649999D03*
%TD*%
D14*
%TO.P,J3,1,Pin_1*%
%TO.N,GND*%
X166000000Y-99790000D03*
D15*
%TO.P,J3,2,Pin_2*%
%TO.N,V_REF_HALF*%
X166000000Y-97250000D03*
%TO.P,J3,3,Pin_3*%
%TO.N,GND*%
X166000000Y-94710000D03*
%TD*%
D12*
%TO.P,C6,1*%
%TO.N,/Piezo_P*%
X153725000Y-55874999D03*
%TO.P,C6,2*%
%TO.N,/Piezo_N*%
X155275000Y-55874999D03*
%TD*%
D16*
%TO.P,R8,1*%
%TO.N,Net-(U2-IO2)*%
X156250000Y-70049999D03*
%TO.P,R8,2*%
%TO.N,/RX_N*%
X156250000Y-71699999D03*
%TD*%
D14*
%TO.P,J2,1,Pin_1*%
%TO.N,unconnected-(J2-Pin_1-Pad1)*%
X172000000Y-48500000D03*
D15*
%TO.P,J2,2,Pin_2*%
%TO.N,unconnected-(J2-Pin_2-Pad2)*%
X172000000Y-51040000D03*
%TO.P,J2,3,Pin_3*%
%TO.N,unconnected-(J2-Pin_3-Pad3)*%
X172000000Y-53580000D03*
%TO.P,J2,4,Pin_4*%
%TO.N,unconnected-(J2-Pin_4-Pad4)*%
X172000000Y-56120000D03*
%TO.P,J2,5,Pin_5*%
%TO.N,unconnected-(J2-Pin_5-Pad5)*%
X172000000Y-58660000D03*
%TO.P,J2,6,Pin_6*%
%TO.N,unconnected-(J2-Pin_6-Pad6)*%
X172000000Y-61200000D03*
%TO.P,J2,7,Pin_7*%
%TO.N,unconnected-(J2-Pin_7-Pad7)*%
X172000000Y-63740000D03*
%TO.P,J2,8,Pin_8*%
%TO.N,unconnected-(J2-Pin_8-Pad8)*%
X172000000Y-66280000D03*
%TO.P,J2,9,Pin_9*%
%TO.N,unconnected-(J2-Pin_9-Pad9)*%
X172000000Y-68820000D03*
%TO.P,J2,10,Pin_10*%
%TO.N,unconnected-(J2-Pin_10-Pad10)*%
X172000000Y-71360000D03*
%TO.P,J2,11,Pin_11*%
%TO.N,unconnected-(J2-Pin_11-Pad11)*%
X172000000Y-73900000D03*
%TO.P,J2,12,Pin_12*%
%TO.N,unconnected-(J2-Pin_12-Pad12)*%
X172000000Y-76440000D03*
%TO.P,J2,13,Pin_13*%
%TO.N,unconnected-(J2-Pin_13-Pad13)*%
X172000000Y-78980000D03*
%TO.P,J2,14,Pin_14*%
%TO.N,unconnected-(J2-Pin_14-Pad14)*%
X172000000Y-81520000D03*
%TO.P,J2,15,Pin_15*%
%TO.N,unconnected-(J2-Pin_15-Pad15)*%
X172000000Y-84060000D03*
%TO.P,J2,16,Pin_16*%
%TO.N,unconnected-(J2-Pin_16-Pad16)*%
X172000000Y-86600000D03*
%TO.P,J2,17,Pin_17*%
%TO.N,unconnected-(J2-Pin_17-Pad17)*%
X172000000Y-89140000D03*
%TO.P,J2,18,Pin_18*%
%TO.N,unconnected-(J2-Pin_18-Pad18)*%
X172000000Y-91680000D03*
%TO.P,J2,19,Pin_19*%
%TO.N,unconnected-(J2-Pin_19-Pad19)*%
X172000000Y-94220000D03*
%TO.P,J2,20,Pin_20*%
%TO.N,unconnected-(J2-Pin_20-Pad20)*%
X172000000Y-96760000D03*
%TO.P,J2,21,Pin_21*%
%TO.N,unconnected-(J2-Pin_21-Pad21)*%
X172000000Y-99300000D03*
%TO.P,J2,22,Pin_22*%
%TO.N,unconnected-(J2-Pin_22-Pad22)*%
X172000000Y-101840000D03*
%TO.P,J2,23,Pin_23*%
%TO.N,unconnected-(J2-Pin_23-Pad23)*%
X172000000Y-104380000D03*
%TO.P,J2,24,Pin_24*%
%TO.N,unconnected-(J2-Pin_24-Pad24)*%
X172000000Y-106920000D03*
%TD*%
D17*
%TO.P,J5,1,Pin_1*%
%TO.N,/Piezo_P*%
X152500000Y-49624999D03*
D18*
%TO.P,J5,2,Pin_2*%
%TO.N,/Piezo_N*%
X156460000Y-49624999D03*
%TD*%
D19*
%TO.P,R20,1*%
%TO.N,/BPF_OUT*%
X146325000Y-91750000D03*
%TO.P,R20,2*%
%TO.N,/ADC_OUT*%
X144675000Y-91750000D03*
%TD*%
D16*
%TO.P,R15,1*%
%TO.N,Net-(C11-Pad2)*%
X152000000Y-86299999D03*
%TO.P,R15,2*%
%TO.N,AGND*%
X152000000Y-87949999D03*
%TD*%
D10*
%TO.P,R13,1*%
%TO.N,/Piezo_P*%
X153675000Y-57624999D03*
%TO.P,R13,2*%
%TO.N,/Piezo_N*%
X155325000Y-57624999D03*
%TD*%
D19*
%TO.P,R10,1*%
%TO.N,/Piezo_P*%
X151575000Y-60824999D03*
%TO.P,R10,2*%
%TO.N,/HYBRID_RX_P*%
X149925000Y-60824999D03*
%TD*%
%TO.P,R23,1*%
%TO.N,AGND*%
X157075000Y-73374999D03*
%TO.P,R23,2*%
%TO.N,/RX_N*%
X155425000Y-73374999D03*
%TD*%
D11*
%TO.P,C2,1*%
%TO.N,3.3V*%
X143000000Y-48975000D03*
%TO.P,C2,2*%
%TO.N,GND*%
X143000000Y-50525000D03*
%TD*%
D20*
%TO.P,TP5,1,1*%
%TO.N,/BPF_OUT*%
X148250000Y-90500000D03*
%TD*%
D16*
%TO.P,R14,1*%
%TO.N,Net-(R14-Pad1)*%
X158000000Y-76799999D03*
%TO.P,R14,2*%
%TO.N,Net-(R14-Pad2)*%
X158000000Y-78449999D03*
%TD*%
%TO.P,R17,1*%
%TO.N,Net-(C13-Pad1)*%
X153000000Y-99549999D03*
%TO.P,R17,2*%
%TO.N,/HPF_OUT*%
X153000000Y-101199999D03*
%TD*%
D14*
%TO.P,J4,1,Pin_1*%
%TO.N,GND*%
X150690000Y-63624999D03*
D15*
%TO.P,J4,2,Pin_2*%
%TO.N,/TX_A*%
X153230000Y-63624999D03*
%TO.P,J4,3,Pin_3*%
%TO.N,/TX_B*%
X155770000Y-63624999D03*
%TO.P,J4,4,Pin_4*%
%TO.N,GND*%
X158310000Y-63624999D03*
%TD*%
D16*
%TO.P,R4,1*%
%TO.N,Net-(U1-IN-)*%
X162675000Y-87675000D03*
%TO.P,R4,2*%
%TO.N,V_REF_HALF*%
X162675000Y-89325000D03*
%TD*%
%TO.P,R16,1*%
%TO.N,Net-(U4-INB+)*%
X153000000Y-96299999D03*
%TO.P,R16,2*%
%TO.N,Net-(C13-Pad1)*%
X153000000Y-97949999D03*
%TD*%
%TO.P,R7,1*%
%TO.N,/HYBRID_RX_N*%
X157250000Y-66549999D03*
%TO.P,R7,2*%
%TO.N,Net-(U2-IO2)*%
X157250000Y-68199999D03*
%TD*%
D21*
%TO.P,U1,1,IN+*%
%TO.N,Net-(U1-IN+)*%
X164224998Y-83750000D03*
%TO.P,U1,2,V-*%
%TO.N,AGND*%
X163574999Y-83750000D03*
%TO.P,U1,3,IN-*%
%TO.N,Net-(U1-IN-)*%
X162925000Y-83750000D03*
%TO.P,U1,4,OUT*%
X162925000Y-85997900D03*
%TO.P,U1,5,V+*%
%TO.N,3.3V*%
X164224998Y-85997900D03*
%TD*%
D20*
%TO.P,TP2,1,1*%
%TO.N,/RX_P*%
X149000000Y-71000000D03*
%TD*%
D22*
%TO.P,C14,1*%
%TO.N,/ADC_OUT*%
X144750000Y-90025000D03*
%TO.P,C14,2*%
%TO.N,AGND*%
X144750000Y-88475000D03*
%TD*%
D10*
%TO.P,R3,1*%
%TO.N,Net-(U1-IN+)*%
X165850000Y-84250000D03*
%TO.P,R3,2*%
%TO.N,AGND*%
X167500000Y-84250000D03*
%TD*%
D20*
%TO.P,TP3,1,1*%
%TO.N,/LNA_OUT*%
X150250000Y-79250000D03*
%TD*%
D16*
%TO.P,R5,1*%
%TO.N,/HYBRID_RX_P*%
X151750000Y-66549999D03*
%TO.P,R5,2*%
%TO.N,Net-(U2-IO1)*%
X151750000Y-68199999D03*
%TD*%
D12*
%TO.P,C9,1*%
%TO.N,3.3V*%
X156725000Y-92874999D03*
%TO.P,C9,2*%
%TO.N,AGND*%
X158275000Y-92874999D03*
%TD*%
D11*
%TO.P,C12,1*%
%TO.N,Net-(C11-Pad2)*%
X153750000Y-86349999D03*
%TO.P,C12,2*%
%TO.N,Net-(U4-INA+)*%
X153750000Y-87899999D03*
%TD*%
D10*
%TO.P,R19,1*%
%TO.N,Net-(U4-INB+)*%
X154675000Y-96374999D03*
%TO.P,R19,2*%
%TO.N,V_REF_HALF*%
X156325000Y-96374999D03*
%TD*%
D14*
%TO.P,J1,1,Pin_1*%
%TO.N,3.3V*%
X137000000Y-48500000D03*
D15*
%TO.P,J1,2,Pin_2*%
%TO.N,GND*%
X137000000Y-51040000D03*
%TO.P,J1,3,Pin_3*%
%TO.N,unconnected-(J1-Pin_3-Pad3)*%
X137000000Y-53580000D03*
%TO.P,J1,4,Pin_4*%
%TO.N,GND*%
X137000000Y-56120000D03*
%TO.P,J1,5,Pin_5*%
%TO.N,unconnected-(J1-Pin_5-Pad5)*%
X137000000Y-58660000D03*
%TO.P,J1,6,Pin_6*%
%TO.N,GND*%
X137000000Y-61200000D03*
%TO.P,J1,7,Pin_7*%
%TO.N,unconnected-(J1-Pin_7-Pad7)*%
X137000000Y-63740000D03*
%TO.P,J1,8,Pin_8*%
%TO.N,unconnected-(J1-Pin_8-Pad8)*%
X137000000Y-66280000D03*
%TO.P,J1,9,Pin_9*%
%TO.N,unconnected-(J1-Pin_9-Pad9)*%
X137000000Y-68820000D03*
%TO.P,J1,10,Pin_10*%
%TO.N,unconnected-(J1-Pin_10-Pad10)*%
X137000000Y-71360000D03*
%TO.P,J1,11,Pin_11*%
%TO.N,unconnected-(J1-Pin_11-Pad11)*%
X137000000Y-73900000D03*
%TO.P,J1,12,Pin_12*%
%TO.N,unconnected-(J1-Pin_12-Pad12)*%
X137000000Y-76440000D03*
%TO.P,J1,13,Pin_13*%
%TO.N,unconnected-(J1-Pin_13-Pad13)*%
X137000000Y-78980000D03*
%TO.P,J1,14,Pin_14*%
%TO.N,unconnected-(J1-Pin_14-Pad14)*%
X137000000Y-81520000D03*
%TO.P,J1,15,Pin_15*%
%TO.N,unconnected-(J1-Pin_15-Pad15)*%
X137000000Y-84060000D03*
%TO.P,J1,16,Pin_16*%
%TO.N,/ADC_OUT*%
X137000000Y-86600000D03*
%TO.P,J1,17,Pin_17*%
%TO.N,unconnected-(J1-Pin_17-Pad17)*%
X137000000Y-89140000D03*
%TO.P,J1,18,Pin_18*%
%TO.N,unconnected-(J1-Pin_18-Pad18)*%
X137000000Y-91680000D03*
%TO.P,J1,19,Pin_19*%
%TO.N,unconnected-(J1-Pin_19-Pad19)*%
X137000000Y-94220000D03*
%TO.P,J1,20,Pin_20*%
%TO.N,unconnected-(J1-Pin_20-Pad20)*%
X137000000Y-96760000D03*
%TO.P,J1,21,Pin_21*%
%TO.N,unconnected-(J1-Pin_21-Pad21)*%
X137000000Y-99300000D03*
%TO.P,J1,22,Pin_22*%
%TO.N,unconnected-(J1-Pin_22-Pad22)*%
X137000000Y-101840000D03*
%TO.P,J1,23,Pin_23*%
%TO.N,unconnected-(J1-Pin_23-Pad23)*%
X137000000Y-104380000D03*
%TO.P,J1,24,Pin_24*%
%TO.N,unconnected-(J1-Pin_24-Pad24)*%
X137000000Y-106920000D03*
%TD*%
D19*
%TO.P,R18,1*%
%TO.N,V_REF_HALF*%
X157075000Y-87874999D03*
%TO.P,R18,2*%
%TO.N,Net-(U4-INA+)*%
X155425000Y-87874999D03*
%TD*%
D23*
%TO.P,U3,1,RG*%
%TO.N,Net-(R14-Pad1)*%
X156405000Y-75124999D03*
%TO.P,U3,2,IN-*%
%TO.N,/RX_N*%
X155135000Y-75124999D03*
%TO.P,U3,3,IN+*%
%TO.N,/RX_P*%
X153865000Y-75124999D03*
%TO.P,U3,4,V-*%
%TO.N,AGND*%
X152595000Y-75124999D03*
%TO.P,U3,5,REF*%
%TO.N,V_REF_HALF*%
X152595000Y-80374999D03*
%TO.P,U3,6,OUT*%
%TO.N,/LNA_OUT*%
X153865000Y-80374999D03*
%TO.P,U3,7,V+*%
%TO.N,3.3V*%
X155135000Y-80374999D03*
%TO.P,U3,8,RG*%
%TO.N,Net-(R14-Pad2)*%
X156405000Y-80374999D03*
%TD*%
D20*
%TO.P,TP4,1,1*%
%TO.N,/HPF_OUT*%
X158750000Y-100000000D03*
%TD*%
D24*
%TO.P,R11,1*%
%TO.N,/TX_B*%
X155500000Y-60949999D03*
%TO.P,R11,2*%
%TO.N,/Piezo_N*%
X155500000Y-59299999D03*
%TD*%
D19*
%TO.P,R21,1*%
%TO.N,V_REF_HALF*%
X146325000Y-93500000D03*
%TO.P,R21,2*%
%TO.N,/ADC_OUT*%
X144675000Y-93500000D03*
%TD*%
D11*
%TO.P,C11,1*%
%TO.N,/LNA_OUT*%
X153750000Y-82099999D03*
%TO.P,C11,2*%
%TO.N,Net-(C11-Pad2)*%
X153750000Y-83649999D03*
%TD*%
D10*
%TO.P,R2,1*%
%TO.N,3.3V*%
X165850000Y-86000000D03*
%TO.P,R2,2*%
%TO.N,Net-(U1-IN+)*%
X167500000Y-86000000D03*
%TD*%
D25*
%TO.P,C1,1*%
%TO.N,3.3V*%
X145250000Y-48275000D03*
%TO.P,C1,2*%
%TO.N,GND*%
X145250000Y-51225000D03*
%TD*%
D20*
%TO.P,TP1,1,1*%
%TO.N,/RX_N*%
X160000000Y-71250000D03*
%TD*%
D19*
%TO.P,R22,1*%
%TO.N,/RX_P*%
X153575000Y-73374999D03*
%TO.P,R22,2*%
%TO.N,AGND*%
X151925000Y-73374999D03*
%TD*%
D24*
%TO.P,R9,1*%
%TO.N,/TX_A*%
X153500000Y-60949999D03*
%TO.P,R9,2*%
%TO.N,/Piezo_P*%
X153500000Y-59299999D03*
%TD*%
D11*
%TO.P,C8,1*%
%TO.N,3.3V*%
X157000000Y-82099999D03*
%TO.P,C8,2*%
%TO.N,AGND*%
X157000000Y-83649999D03*
%TD*%
D16*
%TO.P,R6,1*%
%TO.N,Net-(U2-IO1)*%
X152750000Y-70049999D03*
%TO.P,R6,2*%
%TO.N,/RX_P*%
X152750000Y-71699999D03*
%TD*%
D10*
%TO.P,R12,1*%
%TO.N,/Piezo_N*%
X157425000Y-60824999D03*
%TO.P,R12,2*%
%TO.N,/HYBRID_RX_N*%
X159075000Y-60824999D03*
%TD*%
D12*
%TO.P,C4,1*%
%TO.N,3.3V*%
X164400000Y-87750000D03*
%TO.P,C4,2*%
%TO.N,AGND*%
X165950000Y-87750000D03*
%TD*%
D26*
%TO.P,U2,1,IO1*%
%TO.N,Net-(U2-IO1)*%
X153850001Y-68340199D03*
%TO.P,U2,2,IO2*%
%TO.N,Net-(U2-IO2)*%
X155149999Y-68340199D03*
D27*
%TO.P,U2,3,GND*%
%TO.N,AGND*%
X154500000Y-66555849D03*
%TD*%
D12*
%TO.P,C13,1*%
%TO.N,Net-(C13-Pad1)*%
X154725000Y-99624999D03*
%TO.P,C13,2*%
%TO.N,AGND*%
X156275000Y-99624999D03*
%TD*%
D28*
%TO.N,3.3V*%
X164400000Y-87750000D03*
X157000000Y-82099999D03*
X156725000Y-92874999D03*
%TO.N,GND*%
X139480000Y-56576749D03*
X144560000Y-46416749D03*
X142020000Y-59116749D03*
X139480000Y-54036749D03*
X144560000Y-54036749D03*
X142020000Y-46416749D03*
X144560000Y-59116749D03*
X142020000Y-54036749D03*
X136940000Y-46416749D03*
X139480000Y-46416749D03*
X142020000Y-56576749D03*
X139480000Y-59116749D03*
X139480000Y-51496749D03*
%TO.N,V_REF_HALF*%
X152595000Y-80374999D03*
X146250000Y-93500000D03*
X158500000Y-87874999D03*
X156325000Y-96374999D03*
%TO.N,AGND*%
X142020000Y-79436749D03*
X142020000Y-99756749D03*
X169960000Y-87056749D03*
X167420000Y-51496749D03*
X167420000Y-104836749D03*
X147100000Y-81976749D03*
X167420000Y-66736749D03*
X169960000Y-92136749D03*
X144560000Y-81976749D03*
X169960000Y-97216749D03*
X159800000Y-104836749D03*
X139480000Y-92136749D03*
X169960000Y-66736749D03*
X149640000Y-48956749D03*
X142020000Y-104836749D03*
X169960000Y-74356749D03*
X142020000Y-66736749D03*
X164880000Y-89596749D03*
X169960000Y-64196749D03*
X167420000Y-61656749D03*
X169960000Y-99756749D03*
X169960000Y-107376749D03*
X139480000Y-97216749D03*
X162340000Y-81976749D03*
X167420000Y-59116749D03*
X142020000Y-107376749D03*
X144560000Y-71816749D03*
X149640000Y-97216749D03*
X164880000Y-54036749D03*
X159800000Y-79436749D03*
X154720000Y-107376749D03*
X169960000Y-79436749D03*
X144560000Y-87056749D03*
X142020000Y-69276749D03*
X162340000Y-64196749D03*
X164880000Y-56576749D03*
X154720000Y-46416749D03*
X159800000Y-94676749D03*
X139480000Y-76896749D03*
X152180000Y-56576749D03*
X169960000Y-89596749D03*
X152180000Y-46416749D03*
X164880000Y-74356749D03*
X144560000Y-69276749D03*
X142020000Y-102296749D03*
X152180000Y-107376749D03*
X149640000Y-46416749D03*
X149640000Y-69276749D03*
X159800000Y-102296749D03*
X164880000Y-102296749D03*
X162340000Y-104836749D03*
X144560000Y-102296749D03*
X164880000Y-64196749D03*
X147100000Y-74356749D03*
X147100000Y-79436749D03*
X144560000Y-64196749D03*
X159800000Y-46416749D03*
X139480000Y-71816749D03*
X144560000Y-104836749D03*
X167420000Y-79436749D03*
X167420000Y-64196749D03*
X144560000Y-99756749D03*
X167420000Y-54036749D03*
X142020000Y-71816749D03*
X159800000Y-48956749D03*
X147100000Y-104836749D03*
X159800000Y-69276749D03*
X162340000Y-56576749D03*
X157260000Y-56576749D03*
X142020000Y-84516749D03*
X172500000Y-46416749D03*
X144560000Y-66736749D03*
X139480000Y-79436749D03*
X139480000Y-104836749D03*
X139480000Y-102296749D03*
X144560000Y-79436749D03*
X147100000Y-76896749D03*
X162340000Y-71816749D03*
X164880000Y-46416749D03*
X169960000Y-56576749D03*
X167420000Y-48956749D03*
X162340000Y-79436749D03*
X157260000Y-46416749D03*
X152180000Y-84516749D03*
X159800000Y-107376749D03*
X169960000Y-54036749D03*
X147100000Y-87056749D03*
X149640000Y-87056749D03*
X164880000Y-79436749D03*
X164880000Y-107376749D03*
X147100000Y-97216749D03*
X149640000Y-89596749D03*
X169960000Y-84516749D03*
X142020000Y-64196749D03*
X167420000Y-69276749D03*
X154720000Y-76896749D03*
X167420000Y-89596749D03*
X162340000Y-102296749D03*
X157260000Y-104836749D03*
X159800000Y-81976749D03*
X144560000Y-76896749D03*
X149640000Y-76896749D03*
X167420000Y-102296749D03*
X147100000Y-84516749D03*
X149640000Y-84516749D03*
X169960000Y-76896749D03*
X164880000Y-76896749D03*
X167420000Y-56576749D03*
X159800000Y-74356749D03*
X142020000Y-92136749D03*
X169960000Y-51496749D03*
X142020000Y-76896749D03*
X144560000Y-84516749D03*
X159800000Y-54036749D03*
X139480000Y-84516749D03*
X139480000Y-94676749D03*
X142020000Y-97216749D03*
X169960000Y-46416749D03*
X149640000Y-99756749D03*
X152180000Y-104836749D03*
X142020000Y-74356749D03*
X147100000Y-107376749D03*
X167420000Y-76896749D03*
X162340000Y-107376749D03*
X164880000Y-92136749D03*
X149640000Y-107376749D03*
X139480000Y-69276749D03*
X162340000Y-51496749D03*
X162340000Y-48956749D03*
X142020000Y-81976749D03*
X169960000Y-81976749D03*
X167420000Y-74356749D03*
X164880000Y-59116749D03*
X144560000Y-97216749D03*
X169960000Y-94676749D03*
X169960000Y-69276749D03*
X164880000Y-66736749D03*
X139480000Y-66736749D03*
X162340000Y-54036749D03*
X169960000Y-104836749D03*
X164880000Y-104836749D03*
X144560000Y-74356749D03*
X149640000Y-81976749D03*
X164880000Y-61656749D03*
X164880000Y-48956749D03*
X159800000Y-51496749D03*
X149640000Y-94676749D03*
X147100000Y-102296749D03*
X157260000Y-54036749D03*
X139480000Y-81976749D03*
X149640000Y-102296749D03*
X139480000Y-64196749D03*
X167420000Y-71816749D03*
X152180000Y-54036749D03*
X164880000Y-51496749D03*
X149640000Y-104836749D03*
X142020000Y-87056749D03*
X167420000Y-92136749D03*
X139480000Y-107376749D03*
X167420000Y-107376749D03*
X162340000Y-61656749D03*
X159800000Y-59116749D03*
X159800000Y-76896749D03*
X169960000Y-61656749D03*
X169960000Y-48956749D03*
X162340000Y-74356749D03*
X139480000Y-99756749D03*
X162340000Y-46416749D03*
X167420000Y-46416749D03*
X154720000Y-104836749D03*
X139480000Y-74356749D03*
X162340000Y-59116749D03*
X169960000Y-59116749D03*
X169960000Y-71816749D03*
X162340000Y-76896749D03*
X157260000Y-107376749D03*
X144560000Y-107376749D03*
X169960000Y-102296749D03*
X147100000Y-99756749D03*
X142020000Y-94676749D03*
X159800000Y-56576749D03*
%TD*%
D29*
%TO.N,3.3V*%
X154974999Y-94296699D02*
X156396700Y-94296699D01*
D30*
X149750000Y-52775000D02*
X145250000Y-48275000D01*
X164400000Y-86172902D02*
X164224998Y-85997900D01*
X164227098Y-86000000D02*
X164224998Y-85997900D01*
X146750000Y-62250000D02*
X149750000Y-59250000D01*
X143700000Y-48275000D02*
X143000000Y-48975000D01*
X155135000Y-80374999D02*
X155135000Y-81984999D01*
X157000000Y-82099999D02*
X155250000Y-82099999D01*
X155135000Y-81984999D02*
X155250000Y-82099999D01*
X149750000Y-59250000D02*
X149750000Y-52775000D01*
D29*
X156396700Y-94296699D02*
X156725000Y-94624999D01*
D30*
X137000000Y-48500000D02*
X142525000Y-48500000D01*
X155135000Y-80024999D02*
X146750000Y-71639999D01*
X156725000Y-92874999D02*
X156725000Y-94624999D01*
X165850000Y-86000000D02*
X164227098Y-86000000D01*
X142525000Y-48500000D02*
X143000000Y-48975000D01*
X164400000Y-87750000D02*
X164400000Y-86172902D01*
X145250000Y-48275000D02*
X143700000Y-48275000D01*
X146750000Y-71639999D02*
X146750000Y-62250000D01*
X155135000Y-80374999D02*
X155135000Y-80024999D01*
%TO.N,GND*%
X166000000Y-94710000D02*
X167351000Y-96061000D01*
X167351000Y-98439000D02*
X166000000Y-99790000D01*
X165735000Y-99525000D02*
X166000000Y-99790000D01*
X163000000Y-99525000D02*
X165735000Y-99525000D01*
X167351000Y-96061000D02*
X167351000Y-98439000D01*
%TO.N,V_REF_HALF*%
X162675000Y-89325000D02*
X161224999Y-87874999D01*
X161224999Y-87874999D02*
X157075000Y-87874999D01*
X165275000Y-97975000D02*
X166000000Y-97250000D01*
X162675000Y-97650000D02*
X163000000Y-97975000D01*
X146325000Y-93500000D02*
X146250000Y-93500000D01*
X163000000Y-97975000D02*
X165275000Y-97975000D01*
X162675000Y-89325000D02*
X162675000Y-97650000D01*
%TO.N,Net-(U1-IN+)*%
X165850000Y-84250000D02*
X165571601Y-84250000D01*
X167500000Y-86000000D02*
X167500000Y-85900000D01*
X164650000Y-83328399D02*
X164228399Y-83750000D01*
X165571601Y-84250000D02*
X164650000Y-83328399D01*
X167500000Y-85900000D02*
X165850000Y-84250000D01*
X164650000Y-82000000D02*
X164650000Y-83328399D01*
%TO.N,/Piezo_N*%
X155500000Y-59299999D02*
X155900000Y-59299999D01*
X155900000Y-59299999D02*
X157425000Y-60824999D01*
X155275000Y-57574999D02*
X155325000Y-57624999D01*
X155275000Y-55874999D02*
X155275000Y-57574999D01*
X155275000Y-50809999D02*
X156460000Y-49624999D01*
X155325000Y-59124999D02*
X155500000Y-59299999D01*
X155325000Y-57624999D02*
X155325000Y-59124999D01*
X155275000Y-55874999D02*
X155275000Y-50809999D01*
%TO.N,/Piezo_P*%
X153725000Y-55874999D02*
X153725000Y-57574999D01*
X153675000Y-57624999D02*
X153675000Y-59124999D01*
X153725000Y-57574999D02*
X153675000Y-57624999D01*
X153725000Y-55874999D02*
X153725000Y-50849999D01*
X153500000Y-59299999D02*
X153100000Y-59299999D01*
X153725000Y-50849999D02*
X152500000Y-49624999D01*
X153675000Y-59124999D02*
X153500000Y-59299999D01*
X153100000Y-59299999D02*
X151575000Y-60824999D01*
%TO.N,Net-(C11-Pad2)*%
X152000000Y-86299999D02*
X153700000Y-86299999D01*
X153700000Y-86299999D02*
X153750000Y-86349999D01*
X153750000Y-83649999D02*
X153750000Y-86349999D01*
%TO.N,/LNA_OUT*%
X153865000Y-81984999D02*
X153750000Y-82099999D01*
X153865000Y-80197569D02*
X152917431Y-79250000D01*
X152917431Y-79250000D02*
X150250000Y-79250000D01*
X153865000Y-80374999D02*
X153865000Y-81984999D01*
X153865000Y-80374999D02*
X153865000Y-80197569D01*
%TO.N,Net-(U4-INA+)*%
X155425000Y-87874999D02*
X153775000Y-87874999D01*
D29*
X153674999Y-87975000D02*
X153750000Y-87899999D01*
D30*
X153775000Y-87874999D02*
X153750000Y-87899999D01*
D29*
X153674999Y-89953299D02*
X153674999Y-87975000D01*
D30*
%TO.N,Net-(C13-Pad1)*%
X153000000Y-99549999D02*
X153000000Y-97949999D01*
X153075000Y-99624999D02*
X153000000Y-99549999D01*
X154725000Y-99624999D02*
X153075000Y-99624999D01*
%TO.N,/ADC_OUT*%
X144750000Y-90025000D02*
X140425000Y-90025000D01*
X140425000Y-90025000D02*
X137000000Y-86600000D01*
X144675000Y-93500000D02*
X144675000Y-90100000D01*
X144675000Y-90100000D02*
X144750000Y-90025000D01*
%TO.N,/TX_B*%
X155500000Y-60949999D02*
X155500000Y-63354999D01*
X155500000Y-63354999D02*
X155770000Y-63624999D01*
%TO.N,/TX_A*%
X153500000Y-60949999D02*
X153500000Y-63354999D01*
X153500000Y-63354999D02*
X153230000Y-63624999D01*
%TO.N,Net-(U1-IN-)*%
X162925000Y-85997900D02*
X162921599Y-85994499D01*
X162675000Y-86247900D02*
X162925000Y-85997900D01*
X162675000Y-87675000D02*
X162675000Y-86247900D01*
X162921599Y-85994499D02*
X162921599Y-83750000D01*
%TO.N,/HYBRID_RX_P*%
X149925000Y-60824999D02*
X148750000Y-61999999D01*
X148750000Y-65374999D02*
X149925000Y-66549999D01*
X149925000Y-66549999D02*
X151750000Y-66549999D01*
X148750000Y-61999999D02*
X148750000Y-65374999D01*
%TO.N,Net-(U2-IO1)*%
X153709801Y-68199999D02*
X153850001Y-68340199D01*
X151750000Y-68199999D02*
X153709801Y-68199999D01*
X153850001Y-68340199D02*
X153850001Y-68949998D01*
X153850001Y-68949998D02*
X152750000Y-70049999D01*
%TO.N,/RX_P*%
X152750000Y-71699999D02*
X149699999Y-71699999D01*
X153575000Y-72524999D02*
X152750000Y-71699999D01*
X153575000Y-73374999D02*
X153575000Y-72524999D01*
X153865000Y-73664999D02*
X153575000Y-73374999D01*
X153865000Y-75124999D02*
X153865000Y-73664999D01*
X149699999Y-71699999D02*
X149000000Y-71000000D01*
%TO.N,/HYBRID_RX_N*%
X160250000Y-61999999D02*
X159075000Y-60824999D01*
X159075000Y-66549999D02*
X160250000Y-65374999D01*
X157250000Y-66549999D02*
X159075000Y-66549999D01*
X160250000Y-65374999D02*
X160250000Y-61999999D01*
%TO.N,Net-(U2-IO2)*%
X155290199Y-68199999D02*
X155149999Y-68340199D01*
X155149999Y-68340199D02*
X155149999Y-68949998D01*
X157250000Y-68199999D02*
X155290199Y-68199999D01*
X155149999Y-68949998D02*
X156250000Y-70049999D01*
%TO.N,/RX_N*%
X159550001Y-71699999D02*
X160000000Y-71250000D01*
X155425000Y-72524999D02*
X156250000Y-71699999D01*
X155135000Y-73664999D02*
X155425000Y-73374999D01*
X156250000Y-71699999D02*
X159550001Y-71699999D01*
X155135000Y-75124999D02*
X155135000Y-73664999D01*
X155425000Y-73374999D02*
X155425000Y-72524999D01*
%TO.N,Net-(R14-Pad2)*%
X156405000Y-80374999D02*
X156405000Y-79219999D01*
X156405000Y-79219999D02*
X157175000Y-78449999D01*
X157175000Y-78449999D02*
X158000000Y-78449999D01*
%TO.N,Net-(R14-Pad1)*%
X157175000Y-76799999D02*
X158000000Y-76799999D01*
X156405000Y-76029999D02*
X157175000Y-76799999D01*
X156405000Y-75124999D02*
X156405000Y-76029999D01*
%TO.N,Net-(U4-INB+)*%
X154675000Y-96374999D02*
X153075000Y-96374999D01*
X153075000Y-96374999D02*
X153000000Y-96299999D01*
D29*
X153025001Y-96274998D02*
X153000000Y-96299999D01*
X153025001Y-94296699D02*
X153025001Y-96274998D01*
D30*
%TO.N,/HPF_OUT*%
X161000000Y-97750000D02*
X161000000Y-92500000D01*
X157550001Y-101199999D02*
X161000000Y-97750000D01*
X161000000Y-92500000D02*
X158453299Y-89953299D01*
X158453299Y-89953299D02*
X154974999Y-89953299D01*
X153000000Y-101199999D02*
X157550001Y-101199999D01*
D29*
X154325001Y-89953299D02*
X154974999Y-89953299D01*
%TO.N,/BPF_OUT*%
X153674999Y-94296699D02*
X153674999Y-93185499D01*
X148250000Y-90500000D02*
X148250000Y-91250000D01*
X147750000Y-91750000D02*
X146325000Y-91750000D01*
X153674999Y-94296699D02*
X154325001Y-94296699D01*
X148250000Y-91250000D02*
X147750000Y-91750000D01*
X152239500Y-91750000D02*
X147750000Y-91750000D01*
X153674999Y-93185499D02*
X152239500Y-91750000D01*
%TD*%
%TA.AperFunction,Conductor*%
%TO.N,AGND*%
G36*
X173942539Y-45520185D02*
G01*
X173988294Y-45572989D01*
X173999500Y-45624500D01*
X173999500Y-109375500D01*
X173979815Y-109442539D01*
X173927011Y-109488294D01*
X173875500Y-109499500D01*
X135124500Y-109499500D01*
X135057461Y-109479815D01*
X135011706Y-109427011D01*
X135000500Y-109375500D01*
X135000500Y-62374000D01*
X135020185Y-62306961D01*
X135072989Y-62261206D01*
X135124500Y-62250000D01*
X136107303Y-62250000D01*
X136126665Y-62255685D01*
X136146830Y-62256469D01*
X136169933Y-62268390D01*
X136174342Y-62269685D01*
X136178341Y-62272366D01*
X136179291Y-62273030D01*
X136292184Y-62355051D01*
X136308618Y-62363424D01*
X136315688Y-62368366D01*
X136332353Y-62389179D01*
X136351742Y-62407491D01*
X136353857Y-62416035D01*
X136359359Y-62422906D01*
X136362126Y-62449426D01*
X136368536Y-62475312D01*
X136365696Y-62483643D01*
X136366610Y-62492398D01*
X136354600Y-62516202D01*
X136345998Y-62541447D01*
X136338656Y-62547808D01*
X136335140Y-62554779D01*
X136320993Y-62563112D01*
X136300946Y-62580484D01*
X136292182Y-62584949D01*
X136120213Y-62709890D01*
X135969890Y-62860213D01*
X135844951Y-63032179D01*
X135748444Y-63221585D01*
X135682753Y-63423760D01*
X135649500Y-63633713D01*
X135649500Y-63846287D01*
X135682754Y-64056243D01*
X135747809Y-64256462D01*
X135748444Y-64258414D01*
X135844951Y-64447820D01*
X135969890Y-64619786D01*
X136120213Y-64770109D01*
X136292182Y-64895050D01*
X136300946Y-64899516D01*
X136351742Y-64947491D01*
X136368536Y-65015312D01*
X136345998Y-65081447D01*
X136300946Y-65120484D01*
X136292182Y-65124949D01*
X136120213Y-65249890D01*
X135969890Y-65400213D01*
X135844951Y-65572179D01*
X135748444Y-65761585D01*
X135682753Y-65963760D01*
X135649500Y-66173713D01*
X135649500Y-66386286D01*
X135682753Y-66596239D01*
X135748444Y-66798414D01*
X135844951Y-66987820D01*
X135969890Y-67159786D01*
X136120213Y-67310109D01*
X136292182Y-67435050D01*
X136300946Y-67439516D01*
X136351742Y-67487491D01*
X136368536Y-67555312D01*
X136345998Y-67621447D01*
X136300946Y-67660484D01*
X136292182Y-67664949D01*
X136120213Y-67789890D01*
X135969890Y-67940213D01*
X135844951Y-68112179D01*
X135748444Y-68301585D01*
X135682753Y-68503760D01*
X135649500Y-68713713D01*
X135649500Y-68926286D01*
X135677142Y-69100815D01*
X135682754Y-69136243D01*
X135694693Y-69172988D01*
X135748444Y-69338414D01*
X135844951Y-69527820D01*
X135969890Y-69699786D01*
X136120213Y-69850109D01*
X136292182Y-69975050D01*
X136300946Y-69979516D01*
X136351742Y-70027491D01*
X136368536Y-70095312D01*
X136345998Y-70161447D01*
X136300946Y-70200484D01*
X136292182Y-70204949D01*
X136120213Y-70329890D01*
X135969890Y-70480213D01*
X135844951Y-70652179D01*
X135748444Y-70841585D01*
X135682753Y-71043760D01*
X135656361Y-71210392D01*
X135649500Y-71253713D01*
X135649500Y-71466287D01*
X135682754Y-71676243D01*
X135741663Y-71857546D01*
X135748444Y-71878414D01*
X135844951Y-72067820D01*
X135969890Y-72239786D01*
X136120213Y-72390109D01*
X136292182Y-72515050D01*
X136300946Y-72519516D01*
X136351742Y-72567491D01*
X136368536Y-72635312D01*
X136345998Y-72701447D01*
X136300946Y-72740484D01*
X136292182Y-72744949D01*
X136120213Y-72869890D01*
X135969890Y-73020213D01*
X135844951Y-73192179D01*
X135748444Y-73381585D01*
X135682753Y-73583760D01*
X135663295Y-73706615D01*
X135649500Y-73793713D01*
X135649500Y-74006287D01*
X135682754Y-74216243D01*
X135734337Y-74374999D01*
X135748444Y-74418414D01*
X135844951Y-74607820D01*
X135969890Y-74779786D01*
X136120213Y-74930109D01*
X136292182Y-75055050D01*
X136300946Y-75059516D01*
X136351742Y-75107491D01*
X136368536Y-75175312D01*
X136345998Y-75241447D01*
X136300946Y-75280484D01*
X136292182Y-75284949D01*
X136120213Y-75409890D01*
X135969890Y-75560213D01*
X135844951Y-75732179D01*
X135748444Y-75921585D01*
X135748443Y-75921587D01*
X135748443Y-75921588D01*
X135725916Y-75990918D01*
X135682753Y-76123760D01*
X135649500Y-76333713D01*
X135649500Y-76546286D01*
X135682753Y-76756239D01*
X135748444Y-76958414D01*
X135844951Y-77147820D01*
X135969890Y-77319786D01*
X136120213Y-77470109D01*
X136292182Y-77595050D01*
X136300946Y-77599516D01*
X136351742Y-77647491D01*
X136368536Y-77715312D01*
X136345998Y-77781447D01*
X136300946Y-77820484D01*
X136292182Y-77824949D01*
X136120213Y-77949890D01*
X135969890Y-78100213D01*
X135844951Y-78272179D01*
X135748444Y-78461585D01*
X135682753Y-78663760D01*
X135649500Y-78873713D01*
X135649500Y-79086286D01*
X135682753Y-79296239D01*
X135748444Y-79498414D01*
X135844951Y-79687820D01*
X135969890Y-79859786D01*
X136120213Y-80010109D01*
X136292182Y-80135050D01*
X136300946Y-80139516D01*
X136351742Y-80187491D01*
X136368536Y-80255312D01*
X136345998Y-80321447D01*
X136300946Y-80360484D01*
X136292182Y-80364949D01*
X136120213Y-80489890D01*
X135969890Y-80640213D01*
X135844951Y-80812179D01*
X135748444Y-81001585D01*
X135682753Y-81203760D01*
X135661701Y-81336680D01*
X135649500Y-81413713D01*
X135649500Y-81626287D01*
X135655223Y-81662422D01*
X135682753Y-81836239D01*
X135748444Y-82038414D01*
X135844951Y-82227820D01*
X135969890Y-82399786D01*
X136120213Y-82550109D01*
X136292182Y-82675050D01*
X136300946Y-82679516D01*
X136351742Y-82727491D01*
X136368536Y-82795312D01*
X136345998Y-82861447D01*
X136300946Y-82900484D01*
X136292182Y-82904949D01*
X136120213Y-83029890D01*
X135969890Y-83180213D01*
X135844951Y-83352179D01*
X135748444Y-83541585D01*
X135682753Y-83743760D01*
X135649500Y-83953713D01*
X135649500Y-84166286D01*
X135675828Y-84332519D01*
X135682754Y-84376243D01*
X135735400Y-84538271D01*
X135748444Y-84578414D01*
X135844951Y-84767820D01*
X135969890Y-84939786D01*
X136120213Y-85090109D01*
X136292182Y-85215050D01*
X136300946Y-85219516D01*
X136351742Y-85267491D01*
X136368536Y-85335312D01*
X136345998Y-85401447D01*
X136300946Y-85440484D01*
X136292182Y-85444949D01*
X136120213Y-85569890D01*
X135969890Y-85720213D01*
X135844951Y-85892179D01*
X135748444Y-86081585D01*
X135682753Y-86283760D01*
X135663995Y-86402196D01*
X135649500Y-86493713D01*
X135649500Y-86706287D01*
X135650118Y-86710188D01*
X135681117Y-86905912D01*
X135682754Y-86916243D01*
X135748433Y-87118382D01*
X135748444Y-87118414D01*
X135844951Y-87307820D01*
X135969890Y-87479786D01*
X136120213Y-87630109D01*
X136292182Y-87755050D01*
X136300946Y-87759516D01*
X136351742Y-87807491D01*
X136368536Y-87875312D01*
X136345998Y-87941447D01*
X136300946Y-87980484D01*
X136292182Y-87984949D01*
X136120213Y-88109890D01*
X135969890Y-88260213D01*
X135844951Y-88432179D01*
X135748444Y-88621585D01*
X135682753Y-88823760D01*
X135649500Y-89033713D01*
X135649500Y-89246286D01*
X135682753Y-89456239D01*
X135682753Y-89456241D01*
X135682754Y-89456243D01*
X135746454Y-89652292D01*
X135748444Y-89658414D01*
X135844951Y-89847820D01*
X135969890Y-90019786D01*
X136120213Y-90170109D01*
X136292182Y-90295050D01*
X136300946Y-90299516D01*
X136351742Y-90347491D01*
X136368536Y-90415312D01*
X136345998Y-90481447D01*
X136300946Y-90520484D01*
X136292182Y-90524949D01*
X136120213Y-90649890D01*
X135969890Y-90800213D01*
X135844951Y-90972179D01*
X135748444Y-91161585D01*
X135682753Y-91363760D01*
X135649500Y-91573713D01*
X135649500Y-91786287D01*
X135682754Y-91996243D01*
X135739846Y-92171954D01*
X135748444Y-92198414D01*
X135844951Y-92387820D01*
X135969890Y-92559786D01*
X136120213Y-92710109D01*
X136292182Y-92835050D01*
X136300946Y-92839516D01*
X136351742Y-92887491D01*
X136368536Y-92955312D01*
X136345998Y-93021447D01*
X136300946Y-93060484D01*
X136292182Y-93064949D01*
X136120213Y-93189890D01*
X135969890Y-93340213D01*
X135844951Y-93512179D01*
X135748444Y-93701585D01*
X135682753Y-93903760D01*
X135657278Y-94064606D01*
X135649500Y-94113713D01*
X135649500Y-94326287D01*
X135650163Y-94330472D01*
X135664101Y-94418477D01*
X135682754Y-94536243D01*
X135704676Y-94603713D01*
X135748444Y-94738414D01*
X135844951Y-94927820D01*
X135969890Y-95099786D01*
X136120213Y-95250109D01*
X136292182Y-95375050D01*
X136300946Y-95379516D01*
X136351742Y-95427491D01*
X136368536Y-95495312D01*
X136345998Y-95561447D01*
X136300946Y-95600484D01*
X136292182Y-95604949D01*
X136120213Y-95729890D01*
X135969890Y-95880213D01*
X135844951Y-96052179D01*
X135748444Y-96241585D01*
X135682753Y-96443760D01*
X135649500Y-96653713D01*
X135649500Y-96866286D01*
X135674882Y-97026545D01*
X135682754Y-97076243D01*
X135735821Y-97239567D01*
X135748444Y-97278414D01*
X135844951Y-97467820D01*
X135969890Y-97639786D01*
X136120213Y-97790109D01*
X136292182Y-97915050D01*
X136300946Y-97919516D01*
X136351742Y-97967491D01*
X136368536Y-98035312D01*
X136345998Y-98101447D01*
X136300946Y-98140484D01*
X136292182Y-98144949D01*
X136120213Y-98269890D01*
X135969890Y-98420213D01*
X135844951Y-98592179D01*
X135748444Y-98781585D01*
X135748443Y-98781587D01*
X135748443Y-98781588D01*
X135736555Y-98818175D01*
X135682753Y-98983760D01*
X135649500Y-99193713D01*
X135649500Y-99406286D01*
X135675679Y-99571578D01*
X135682754Y-99616243D01*
X135748003Y-99817059D01*
X135748444Y-99818414D01*
X135844951Y-100007820D01*
X135969890Y-100179786D01*
X136120213Y-100330109D01*
X136292182Y-100455050D01*
X136300946Y-100459516D01*
X136351742Y-100507491D01*
X136368536Y-100575312D01*
X136345998Y-100641447D01*
X136300946Y-100680484D01*
X136292182Y-100684949D01*
X136120213Y-100809890D01*
X135969890Y-100960213D01*
X135844951Y-101132179D01*
X135748444Y-101321585D01*
X135682753Y-101523760D01*
X135649500Y-101733713D01*
X135649500Y-101946286D01*
X135682753Y-102156239D01*
X135748444Y-102358414D01*
X135844951Y-102547820D01*
X135969890Y-102719786D01*
X136120213Y-102870109D01*
X136292182Y-102995050D01*
X136300946Y-102999516D01*
X136351742Y-103047491D01*
X136368536Y-103115312D01*
X136345998Y-103181447D01*
X136300946Y-103220484D01*
X136292182Y-103224949D01*
X136120213Y-103349890D01*
X135969890Y-103500213D01*
X135844951Y-103672179D01*
X135748444Y-103861585D01*
X135682753Y-104063760D01*
X135649500Y-104273713D01*
X135649500Y-104486286D01*
X135682753Y-104696239D01*
X135748444Y-104898414D01*
X135844951Y-105087820D01*
X135969890Y-105259786D01*
X136120213Y-105410109D01*
X136292182Y-105535050D01*
X136300946Y-105539516D01*
X136351742Y-105587491D01*
X136368536Y-105655312D01*
X136345998Y-105721447D01*
X136300946Y-105760484D01*
X136292182Y-105764949D01*
X136120213Y-105889890D01*
X135969890Y-106040213D01*
X135844951Y-106212179D01*
X135748444Y-106401585D01*
X135682753Y-106603760D01*
X135649500Y-106813713D01*
X135649500Y-107026286D01*
X135682753Y-107236239D01*
X135748444Y-107438414D01*
X135844951Y-107627820D01*
X135969890Y-107799786D01*
X136120213Y-107950109D01*
X136292179Y-108075048D01*
X136292181Y-108075049D01*
X136292184Y-108075051D01*
X136481588Y-108171557D01*
X136683757Y-108237246D01*
X136893713Y-108270500D01*
X136893714Y-108270500D01*
X137106286Y-108270500D01*
X137106287Y-108270500D01*
X137316243Y-108237246D01*
X137518412Y-108171557D01*
X137707816Y-108075051D01*
X137729789Y-108059086D01*
X137879786Y-107950109D01*
X137879788Y-107950106D01*
X137879792Y-107950104D01*
X138030104Y-107799792D01*
X138030106Y-107799788D01*
X138030109Y-107799786D01*
X138155048Y-107627820D01*
X138155047Y-107627820D01*
X138155051Y-107627816D01*
X138251557Y-107438412D01*
X138317246Y-107236243D01*
X138350500Y-107026287D01*
X138350500Y-106813713D01*
X138317246Y-106603757D01*
X138251557Y-106401588D01*
X138155051Y-106212184D01*
X138155049Y-106212181D01*
X138155048Y-106212179D01*
X138030109Y-106040213D01*
X137879786Y-105889890D01*
X137707820Y-105764951D01*
X137707115Y-105764591D01*
X137699054Y-105760485D01*
X137648259Y-105712512D01*
X137631463Y-105644692D01*
X137653999Y-105578556D01*
X137699054Y-105539515D01*
X137707816Y-105535051D01*
X137729789Y-105519086D01*
X137879786Y-105410109D01*
X137879788Y-105410106D01*
X137879792Y-105410104D01*
X138030104Y-105259792D01*
X138030106Y-105259788D01*
X138030109Y-105259786D01*
X138155048Y-105087820D01*
X138155047Y-105087820D01*
X138155051Y-105087816D01*
X138251557Y-104898412D01*
X138317246Y-104696243D01*
X138350500Y-104486287D01*
X138350500Y-104273713D01*
X138317246Y-104063757D01*
X138251557Y-103861588D01*
X138155051Y-103672184D01*
X138155049Y-103672181D01*
X138155048Y-103672179D01*
X138030109Y-103500213D01*
X137879786Y-103349890D01*
X137707820Y-103224951D01*
X137707115Y-103224591D01*
X137699054Y-103220485D01*
X137648259Y-103172512D01*
X137631463Y-103104692D01*
X137653999Y-103038556D01*
X137699054Y-102999515D01*
X137707816Y-102995051D01*
X137729789Y-102979086D01*
X137879786Y-102870109D01*
X137879788Y-102870106D01*
X137879792Y-102870104D01*
X138030104Y-102719792D01*
X138030106Y-102719788D01*
X138030109Y-102719786D01*
X138155048Y-102547820D01*
X138155047Y-102547820D01*
X138155051Y-102547816D01*
X138251557Y-102358412D01*
X138317246Y-102156243D01*
X138350500Y-101946287D01*
X138350500Y-101733713D01*
X138317246Y-101523757D01*
X138251557Y-101321588D01*
X138155051Y-101132184D01*
X138155049Y-101132181D01*
X138155048Y-101132179D01*
X138030109Y-100960213D01*
X137879786Y-100809890D01*
X137707820Y-100684951D01*
X137707115Y-100684591D01*
X137699054Y-100680485D01*
X137648259Y-100632512D01*
X137631463Y-100564692D01*
X137653999Y-100498556D01*
X137699054Y-100459515D01*
X137707816Y-100455051D01*
X137729789Y-100439086D01*
X137879786Y-100330109D01*
X137879788Y-100330106D01*
X137879792Y-100330104D01*
X138030104Y-100179792D01*
X138030106Y-100179788D01*
X138030109Y-100179786D01*
X138155048Y-100007820D01*
X138155047Y-100007820D01*
X138155051Y-100007816D01*
X138251557Y-99818412D01*
X138317246Y-99616243D01*
X138350500Y-99406287D01*
X138350500Y-99193713D01*
X138317246Y-98983757D01*
X138251557Y-98781588D01*
X138155051Y-98592184D01*
X138155049Y-98592181D01*
X138155048Y-98592179D01*
X138030109Y-98420213D01*
X137879786Y-98269890D01*
X137707820Y-98144951D01*
X137707115Y-98144591D01*
X137699054Y-98140485D01*
X137648259Y-98092512D01*
X137631463Y-98024692D01*
X137653999Y-97958556D01*
X137699054Y-97919515D01*
X137707816Y-97915051D01*
X137751247Y-97883497D01*
X137879786Y-97790109D01*
X137879788Y-97790106D01*
X137879792Y-97790104D01*
X138030104Y-97639792D01*
X138030106Y-97639788D01*
X138030109Y-97639786D01*
X138155048Y-97467820D01*
X138155047Y-97467820D01*
X138155051Y-97467816D01*
X138251557Y-97278412D01*
X138317246Y-97076243D01*
X138350500Y-96866287D01*
X138350500Y-96653713D01*
X138317246Y-96443757D01*
X138251557Y-96241588D01*
X138155051Y-96052184D01*
X138155049Y-96052181D01*
X138155048Y-96052179D01*
X138030109Y-95880213D01*
X137879786Y-95729890D01*
X137707820Y-95604951D01*
X137707115Y-95604591D01*
X137699054Y-95600485D01*
X137648259Y-95552512D01*
X137631463Y-95484692D01*
X137653999Y-95418556D01*
X137699054Y-95379515D01*
X137707816Y-95375051D01*
X137729789Y-95359086D01*
X137879786Y-95250109D01*
X137879788Y-95250106D01*
X137879792Y-95250104D01*
X138030104Y-95099792D01*
X138030106Y-95099788D01*
X138030109Y-95099786D01*
X138155048Y-94927820D01*
X138155047Y-94927820D01*
X138155051Y-94927816D01*
X138251557Y-94738412D01*
X138317246Y-94536243D01*
X138350500Y-94326287D01*
X138350500Y-94113713D01*
X138317246Y-93903757D01*
X138251557Y-93701588D01*
X138155051Y-93512184D01*
X138155049Y-93512181D01*
X138155048Y-93512179D01*
X138030109Y-93340213D01*
X137879786Y-93189890D01*
X137707820Y-93064951D01*
X137705406Y-93063721D01*
X137699054Y-93060485D01*
X137648259Y-93012512D01*
X137631463Y-92944692D01*
X137653999Y-92878556D01*
X137699054Y-92839515D01*
X137707816Y-92835051D01*
X137729789Y-92819086D01*
X137879786Y-92710109D01*
X137879788Y-92710106D01*
X137879792Y-92710104D01*
X138030104Y-92559792D01*
X138030106Y-92559788D01*
X138030109Y-92559786D01*
X138155048Y-92387820D01*
X138155047Y-92387820D01*
X138155051Y-92387816D01*
X138251557Y-92198412D01*
X138317246Y-91996243D01*
X138350500Y-91786287D01*
X138350500Y-91573713D01*
X138317246Y-91363757D01*
X138251557Y-91161588D01*
X138155051Y-90972184D01*
X138155049Y-90972181D01*
X138155048Y-90972179D01*
X138030109Y-90800213D01*
X137879786Y-90649890D01*
X137707820Y-90524951D01*
X137707115Y-90524591D01*
X137699054Y-90520485D01*
X137648259Y-90472512D01*
X137631463Y-90404692D01*
X137653999Y-90338556D01*
X137699054Y-90299515D01*
X137707816Y-90295051D01*
X137729789Y-90279086D01*
X137879786Y-90170109D01*
X137879788Y-90170106D01*
X137879792Y-90170104D01*
X138030104Y-90019792D01*
X138030106Y-90019788D01*
X138030109Y-90019786D01*
X138155048Y-89847820D01*
X138155047Y-89847820D01*
X138155051Y-89847816D01*
X138251557Y-89658412D01*
X138317246Y-89456243D01*
X138334813Y-89345326D01*
X138364742Y-89282194D01*
X138424053Y-89245262D01*
X138493916Y-89246260D01*
X138544967Y-89277045D01*
X139803211Y-90535289D01*
X139914711Y-90646789D01*
X139914712Y-90646790D01*
X140045814Y-90734390D01*
X140045827Y-90734397D01*
X140136566Y-90771982D01*
X140136567Y-90771982D01*
X140191502Y-90794737D01*
X140346152Y-90825499D01*
X140346155Y-90825500D01*
X140346157Y-90825500D01*
X140346158Y-90825500D01*
X143750500Y-90825500D01*
X143759185Y-90828050D01*
X143768147Y-90826762D01*
X143792187Y-90837740D01*
X143817539Y-90845185D01*
X143823466Y-90852025D01*
X143831703Y-90855787D01*
X143845992Y-90878021D01*
X143863294Y-90897989D01*
X143865581Y-90908503D01*
X143869477Y-90914565D01*
X143874500Y-90949500D01*
X143874500Y-91079732D01*
X143856617Y-91143881D01*
X143831523Y-91185391D01*
X143780913Y-91347807D01*
X143775782Y-91404275D01*
X143774500Y-91418384D01*
X143774500Y-92081616D01*
X143776423Y-92102778D01*
X143780913Y-92152192D01*
X143780913Y-92152194D01*
X143780914Y-92152196D01*
X143831522Y-92314606D01*
X143831523Y-92314607D01*
X143831524Y-92314611D01*
X143856616Y-92356116D01*
X143874500Y-92420267D01*
X143874500Y-92829732D01*
X143856617Y-92893881D01*
X143831523Y-92935391D01*
X143780913Y-93097807D01*
X143774500Y-93168386D01*
X143774500Y-93831613D01*
X143780913Y-93902192D01*
X143780913Y-93902194D01*
X143780914Y-93902196D01*
X143788350Y-93926059D01*
X143831522Y-94064606D01*
X143919530Y-94210188D01*
X144039811Y-94330469D01*
X144039813Y-94330470D01*
X144039815Y-94330472D01*
X144185394Y-94418478D01*
X144347804Y-94469086D01*
X144418384Y-94475500D01*
X144418387Y-94475500D01*
X144931613Y-94475500D01*
X144931616Y-94475500D01*
X145002196Y-94469086D01*
X145164606Y-94418478D01*
X145310185Y-94330472D01*
X145314371Y-94326286D01*
X145412319Y-94228339D01*
X145473642Y-94194854D01*
X145543334Y-94199838D01*
X145587681Y-94228339D01*
X145689811Y-94330469D01*
X145689813Y-94330470D01*
X145689815Y-94330472D01*
X145835394Y-94418478D01*
X145997804Y-94469086D01*
X146068384Y-94475500D01*
X146068387Y-94475500D01*
X146581613Y-94475500D01*
X146581616Y-94475500D01*
X146652196Y-94469086D01*
X146814606Y-94418478D01*
X146960185Y-94330472D01*
X147080472Y-94210185D01*
X147168478Y-94064606D01*
X147219086Y-93902196D01*
X147225500Y-93831616D01*
X147225500Y-93168384D01*
X147219086Y-93097804D01*
X147168478Y-92935394D01*
X147080472Y-92789815D01*
X147080470Y-92789813D01*
X147080469Y-92789811D01*
X147003339Y-92712681D01*
X146999000Y-92704735D01*
X146991753Y-92699310D01*
X146982518Y-92674550D01*
X146969854Y-92651358D01*
X146970499Y-92642328D01*
X146967336Y-92633846D01*
X146972952Y-92608025D01*
X146974838Y-92581666D01*
X146980656Y-92572612D01*
X146982188Y-92565573D01*
X147003339Y-92537319D01*
X147053839Y-92486819D01*
X147115162Y-92453334D01*
X147141520Y-92450500D01*
X147681006Y-92450500D01*
X147681007Y-92450500D01*
X151897981Y-92450500D01*
X151965020Y-92470185D01*
X151985662Y-92486819D01*
X152507772Y-93008929D01*
X152541257Y-93070252D01*
X152536273Y-93139944D01*
X152494404Y-93195875D01*
X152451555Y-93227952D01*
X152451553Y-93227954D01*
X152365307Y-93343163D01*
X152365303Y-93343170D01*
X152315009Y-93478016D01*
X152308602Y-93537615D01*
X152308601Y-93537634D01*
X152308601Y-95055769D01*
X152308602Y-95055775D01*
X152315009Y-95115380D01*
X152316682Y-95119864D01*
X152324501Y-95163201D01*
X152324501Y-95458478D01*
X152304816Y-95525517D01*
X152288182Y-95546159D01*
X152169531Y-95664809D01*
X152169530Y-95664810D01*
X152081522Y-95810392D01*
X152030913Y-95972806D01*
X152024500Y-96043385D01*
X152024500Y-96556612D01*
X152030913Y-96627191D01*
X152030913Y-96627193D01*
X152030914Y-96627195D01*
X152081522Y-96789605D01*
X152168665Y-96933757D01*
X152169530Y-96935187D01*
X152271661Y-97037318D01*
X152305146Y-97098641D01*
X152300162Y-97168333D01*
X152271661Y-97212680D01*
X152169531Y-97314809D01*
X152169530Y-97314810D01*
X152081522Y-97460392D01*
X152030913Y-97622806D01*
X152024500Y-97693385D01*
X152024500Y-98206612D01*
X152030913Y-98277191D01*
X152030913Y-98277193D01*
X152030914Y-98277195D01*
X152081522Y-98439605D01*
X152169528Y-98585184D01*
X152169531Y-98585187D01*
X152173112Y-98589758D01*
X152181792Y-98611556D01*
X152194477Y-98631295D01*
X152197203Y-98650260D01*
X152198960Y-98654671D01*
X152199500Y-98666230D01*
X152199500Y-98833767D01*
X152179815Y-98900806D01*
X152173115Y-98910234D01*
X152169533Y-98914806D01*
X152081522Y-99060392D01*
X152030913Y-99222806D01*
X152024500Y-99293385D01*
X152024500Y-99806612D01*
X152030913Y-99877191D01*
X152030913Y-99877193D01*
X152030914Y-99877195D01*
X152081522Y-100039605D01*
X152168628Y-100183696D01*
X152169530Y-100185187D01*
X152271661Y-100287318D01*
X152305146Y-100348641D01*
X152300162Y-100418333D01*
X152271661Y-100462680D01*
X152169531Y-100564809D01*
X152169530Y-100564810D01*
X152081522Y-100710392D01*
X152030913Y-100872806D01*
X152024500Y-100943385D01*
X152024500Y-101456612D01*
X152030913Y-101527191D01*
X152081522Y-101689605D01*
X152169530Y-101835187D01*
X152289811Y-101955468D01*
X152289813Y-101955469D01*
X152289815Y-101955471D01*
X152435394Y-102043477D01*
X152597804Y-102094085D01*
X152668384Y-102100499D01*
X152668387Y-102100499D01*
X153331613Y-102100499D01*
X153331616Y-102100499D01*
X153402196Y-102094085D01*
X153564606Y-102043477D01*
X153588422Y-102029079D01*
X153606119Y-102018382D01*
X153670268Y-102000499D01*
X157628845Y-102000499D01*
X157628846Y-102000498D01*
X157783498Y-101969736D01*
X157929180Y-101909393D01*
X158060290Y-101821788D01*
X158845259Y-101036817D01*
X158906582Y-101003333D01*
X158932940Y-101000499D01*
X159297871Y-101000499D01*
X159297872Y-101000499D01*
X159357483Y-100994091D01*
X159492331Y-100943796D01*
X159607546Y-100857546D01*
X159693796Y-100742331D01*
X159744091Y-100607483D01*
X159750500Y-100547873D01*
X159750499Y-100182938D01*
X159770183Y-100115900D01*
X159786813Y-100095263D01*
X161621788Y-98260290D01*
X161621789Y-98260289D01*
X161709394Y-98129179D01*
X161744263Y-98044995D01*
X161750671Y-98037044D01*
X161753381Y-98027198D01*
X161772222Y-98010301D01*
X161788102Y-97990596D01*
X161797792Y-97987370D01*
X161805398Y-97980550D01*
X161830386Y-97976521D01*
X161854396Y-97968530D01*
X161864292Y-97971055D01*
X161874377Y-97969430D01*
X161897575Y-97979550D01*
X161922095Y-97985809D01*
X161930759Y-97994027D01*
X161938418Y-97997369D01*
X161952363Y-98014520D01*
X161961982Y-98023645D01*
X161965495Y-98028913D01*
X161965606Y-98029179D01*
X162003629Y-98086085D01*
X162003659Y-98086130D01*
X162014139Y-98119696D01*
X162024480Y-98152724D01*
X162024480Y-98152820D01*
X162024482Y-98152824D01*
X162024480Y-98152827D01*
X162024500Y-98154935D01*
X162024500Y-98248336D01*
X162024501Y-98248355D01*
X162034650Y-98347707D01*
X162034651Y-98347710D01*
X162087996Y-98508694D01*
X162088001Y-98508705D01*
X162177029Y-98653040D01*
X162177032Y-98653044D01*
X162186307Y-98662319D01*
X162219792Y-98723642D01*
X162214808Y-98793334D01*
X162186307Y-98837681D01*
X162177032Y-98846955D01*
X162177029Y-98846959D01*
X162088001Y-98991294D01*
X162087996Y-98991305D01*
X162034651Y-99152290D01*
X162024500Y-99251647D01*
X162024500Y-99798337D01*
X162024501Y-99798355D01*
X162034650Y-99897707D01*
X162034651Y-99897710D01*
X162087996Y-100058694D01*
X162088001Y-100058705D01*
X162177029Y-100203040D01*
X162177032Y-100203044D01*
X162296955Y-100322967D01*
X162296959Y-100322970D01*
X162441294Y-100411998D01*
X162441297Y-100411999D01*
X162441303Y-100412003D01*
X162602292Y-100465349D01*
X162701655Y-100475500D01*
X163298344Y-100475499D01*
X163298352Y-100475498D01*
X163298355Y-100475498D01*
X163352760Y-100469940D01*
X163397708Y-100465349D01*
X163558697Y-100412003D01*
X163669008Y-100343961D01*
X163734105Y-100325500D01*
X164525501Y-100325500D01*
X164592540Y-100345185D01*
X164638295Y-100397989D01*
X164649501Y-100449500D01*
X164649501Y-100687876D01*
X164655908Y-100747483D01*
X164706202Y-100882328D01*
X164706206Y-100882335D01*
X164792452Y-100997544D01*
X164792455Y-100997547D01*
X164907664Y-101083793D01*
X164907671Y-101083797D01*
X165042517Y-101134091D01*
X165042516Y-101134091D01*
X165049444Y-101134835D01*
X165102127Y-101140500D01*
X166897872Y-101140499D01*
X166957483Y-101134091D01*
X167092331Y-101083796D01*
X167207546Y-100997546D01*
X167293796Y-100882331D01*
X167344091Y-100747483D01*
X167350500Y-100687873D01*
X167350499Y-99622939D01*
X167370183Y-99555901D01*
X167386818Y-99535259D01*
X167664407Y-99257671D01*
X167972789Y-98949289D01*
X168060394Y-98818179D01*
X168120738Y-98672497D01*
X168151500Y-98517842D01*
X168151500Y-98360157D01*
X168151500Y-95982158D01*
X168139299Y-95920820D01*
X168120738Y-95827503D01*
X168060394Y-95681821D01*
X168060392Y-95681818D01*
X168060390Y-95681814D01*
X167972789Y-95550711D01*
X167972786Y-95550707D01*
X167379843Y-94957765D01*
X167346358Y-94896442D01*
X167345051Y-94850687D01*
X167350500Y-94816287D01*
X167350500Y-94603713D01*
X167317246Y-94393757D01*
X167251557Y-94191588D01*
X167155051Y-94002184D01*
X167155049Y-94002181D01*
X167155048Y-94002179D01*
X167030109Y-93830213D01*
X166879786Y-93679890D01*
X166707820Y-93554951D01*
X166518414Y-93458444D01*
X166518413Y-93458443D01*
X166518412Y-93458443D01*
X166316243Y-93392754D01*
X166316241Y-93392753D01*
X166316240Y-93392753D01*
X166154957Y-93367208D01*
X166106287Y-93359500D01*
X165893713Y-93359500D01*
X165845042Y-93367208D01*
X165683760Y-93392753D01*
X165481585Y-93458444D01*
X165292179Y-93554951D01*
X165120213Y-93679890D01*
X164969890Y-93830213D01*
X164844951Y-94002179D01*
X164748444Y-94191585D01*
X164682753Y-94393760D01*
X164649500Y-94603713D01*
X164649500Y-94816286D01*
X164667164Y-94927816D01*
X164682754Y-95026243D01*
X164733916Y-95183704D01*
X164748444Y-95228414D01*
X164844951Y-95417820D01*
X164969890Y-95589786D01*
X165120213Y-95740109D01*
X165292182Y-95865050D01*
X165300946Y-95869516D01*
X165351742Y-95917491D01*
X165368536Y-95985312D01*
X165345998Y-96051447D01*
X165300946Y-96090484D01*
X165292182Y-96094949D01*
X165120213Y-96219890D01*
X164969890Y-96370213D01*
X164844951Y-96542179D01*
X164748444Y-96731585D01*
X164682753Y-96933760D01*
X164661191Y-97069898D01*
X164631262Y-97133033D01*
X164571950Y-97169964D01*
X164538718Y-97174500D01*
X163734105Y-97174500D01*
X163718203Y-97170149D01*
X163703605Y-97170691D01*
X163673352Y-97157878D01*
X163670979Y-97157229D01*
X163669995Y-97156647D01*
X163558697Y-97087997D01*
X163547846Y-97084401D01*
X163536374Y-97077616D01*
X163521259Y-97061426D01*
X163503047Y-97048816D01*
X163497879Y-97036384D01*
X163488693Y-97026545D01*
X163484730Y-97004753D01*
X163476227Y-96984299D01*
X163475500Y-96970887D01*
X163475500Y-90041231D01*
X163495185Y-89974192D01*
X163501888Y-89964759D01*
X163505463Y-89960193D01*
X163505472Y-89960185D01*
X163593478Y-89814606D01*
X163644086Y-89652196D01*
X163650500Y-89581616D01*
X163650500Y-89068384D01*
X163644086Y-88997804D01*
X163593478Y-88835394D01*
X163524268Y-88720908D01*
X163506433Y-88653356D01*
X163527950Y-88586882D01*
X163581991Y-88542594D01*
X163651396Y-88534553D01*
X163714131Y-88565312D01*
X163718067Y-88569079D01*
X163721955Y-88572967D01*
X163721959Y-88572970D01*
X163866294Y-88661998D01*
X163866297Y-88661999D01*
X163866303Y-88662003D01*
X164027292Y-88715349D01*
X164126655Y-88725500D01*
X164673344Y-88725499D01*
X164673352Y-88725498D01*
X164673355Y-88725498D01*
X164727760Y-88719940D01*
X164772708Y-88715349D01*
X164933697Y-88662003D01*
X165078044Y-88572968D01*
X165197968Y-88453044D01*
X165287003Y-88308697D01*
X165340349Y-88147708D01*
X165350500Y-88048345D01*
X165350499Y-87451656D01*
X165340349Y-87352292D01*
X165287003Y-87191303D01*
X165235209Y-87107333D01*
X165216770Y-87039941D01*
X165237693Y-86973278D01*
X165291335Y-86928508D01*
X165360665Y-86919847D01*
X165377630Y-86923848D01*
X165522804Y-86969086D01*
X165593384Y-86975500D01*
X165593387Y-86975500D01*
X166106613Y-86975500D01*
X166106616Y-86975500D01*
X166177196Y-86969086D01*
X166339606Y-86918478D01*
X166485185Y-86830472D01*
X166529215Y-86786442D01*
X166587319Y-86728339D01*
X166648642Y-86694854D01*
X166718334Y-86699838D01*
X166762681Y-86728339D01*
X166864811Y-86830469D01*
X166864813Y-86830470D01*
X166864815Y-86830472D01*
X167010394Y-86918478D01*
X167172804Y-86969086D01*
X167243384Y-86975500D01*
X167243387Y-86975500D01*
X167756613Y-86975500D01*
X167756616Y-86975500D01*
X167827196Y-86969086D01*
X167989606Y-86918478D01*
X168135185Y-86830472D01*
X168255472Y-86710185D01*
X168343478Y-86564606D01*
X168394086Y-86402196D01*
X168400500Y-86331616D01*
X168400500Y-85668384D01*
X168394086Y-85597804D01*
X168343478Y-85435394D01*
X168255472Y-85289815D01*
X168255470Y-85289813D01*
X168255469Y-85289811D01*
X168135188Y-85169530D01*
X167989606Y-85081522D01*
X167986236Y-85080472D01*
X167827196Y-85030914D01*
X167810095Y-85029359D01*
X167801283Y-85028559D01*
X167736301Y-85002887D01*
X167724827Y-84992749D01*
X166786819Y-84054741D01*
X166753334Y-83993418D01*
X166750500Y-83967060D01*
X166750500Y-83918386D01*
X166744086Y-83847807D01*
X166744086Y-83847804D01*
X166693478Y-83685394D01*
X166605472Y-83539815D01*
X166605470Y-83539813D01*
X166605469Y-83539811D01*
X166485188Y-83419530D01*
X166339606Y-83331522D01*
X166177196Y-83280914D01*
X166177194Y-83280913D01*
X166177192Y-83280913D01*
X166127778Y-83276423D01*
X166106616Y-83274500D01*
X166106613Y-83274500D01*
X165779541Y-83274500D01*
X165712502Y-83254815D01*
X165691860Y-83238181D01*
X165486819Y-83033140D01*
X165472115Y-83006212D01*
X165455523Y-82980394D01*
X165454631Y-82974193D01*
X165453334Y-82971817D01*
X165450500Y-82945459D01*
X165450500Y-82734104D01*
X165468961Y-82669009D01*
X165537003Y-82558697D01*
X165590349Y-82397708D01*
X165600500Y-82298345D01*
X165600499Y-81701656D01*
X165590349Y-81602292D01*
X165537003Y-81441303D01*
X165536999Y-81441297D01*
X165536998Y-81441294D01*
X165447970Y-81296959D01*
X165447967Y-81296955D01*
X165328044Y-81177032D01*
X165328040Y-81177029D01*
X165183705Y-81088001D01*
X165183699Y-81087998D01*
X165183697Y-81087997D01*
X165183694Y-81087996D01*
X165022709Y-81034651D01*
X164923346Y-81024500D01*
X164376662Y-81024500D01*
X164376644Y-81024501D01*
X164277292Y-81034650D01*
X164277289Y-81034651D01*
X164116305Y-81087996D01*
X164116294Y-81088001D01*
X163971959Y-81177029D01*
X163971955Y-81177032D01*
X163852032Y-81296955D01*
X163852029Y-81296959D01*
X163763001Y-81441294D01*
X163762996Y-81441305D01*
X163709651Y-81602290D01*
X163699500Y-81701647D01*
X163699500Y-82298337D01*
X163699501Y-82298355D01*
X163709650Y-82397707D01*
X163709651Y-82397710D01*
X163760150Y-82550104D01*
X163762997Y-82558697D01*
X163831038Y-82669009D01*
X163835734Y-82685564D01*
X163844477Y-82699169D01*
X163849500Y-82734104D01*
X163849500Y-82804286D01*
X163829815Y-82871325D01*
X163799812Y-82903552D01*
X163715052Y-82967004D01*
X163674265Y-83021488D01*
X163618331Y-83063358D01*
X163548639Y-83068342D01*
X163487317Y-83034856D01*
X163475733Y-83021488D01*
X163457267Y-82996821D01*
X163434946Y-82967004D01*
X163434944Y-82967003D01*
X163434944Y-82967002D01*
X163319735Y-82880756D01*
X163319728Y-82880752D01*
X163184886Y-82830460D01*
X163184885Y-82830459D01*
X163184883Y-82830459D01*
X163125273Y-82824050D01*
X163125263Y-82824050D01*
X162724729Y-82824050D01*
X162724723Y-82824051D01*
X162665116Y-82830458D01*
X162530271Y-82880752D01*
X162530264Y-82880756D01*
X162415055Y-82967002D01*
X162415052Y-82967005D01*
X162328806Y-83082214D01*
X162328802Y-83082221D01*
X162278508Y-83217066D01*
X162274780Y-83251746D01*
X162254594Y-83307379D01*
X162212210Y-83370812D01*
X162212201Y-83370828D01*
X162151863Y-83516498D01*
X162151860Y-83516510D01*
X162121099Y-83671153D01*
X162121099Y-85618360D01*
X162101414Y-85685399D01*
X162084780Y-85706041D01*
X162053213Y-85737607D01*
X162053210Y-85737611D01*
X161965609Y-85868714D01*
X161965602Y-85868727D01*
X161905264Y-86014398D01*
X161905261Y-86014410D01*
X161874500Y-86169053D01*
X161874500Y-86958768D01*
X161869741Y-86975438D01*
X161869989Y-86991908D01*
X161858600Y-87014466D01*
X161855813Y-87024230D01*
X161848749Y-87035593D01*
X161844528Y-87039815D01*
X161787959Y-87133389D01*
X161787532Y-87134078D01*
X161762023Y-87156861D01*
X161736807Y-87179954D01*
X161736018Y-87180089D01*
X161735422Y-87180622D01*
X161701645Y-87185998D01*
X161667947Y-87191792D01*
X161667132Y-87191492D01*
X161666421Y-87191606D01*
X161661149Y-87189293D01*
X161613329Y-87171719D01*
X161604182Y-87165607D01*
X161604171Y-87165601D01*
X161458500Y-87105263D01*
X161458488Y-87105260D01*
X161303844Y-87074499D01*
X161303841Y-87074499D01*
X157791232Y-87074499D01*
X157724193Y-87054814D01*
X157714765Y-87048114D01*
X157710192Y-87044532D01*
X157710186Y-87044528D01*
X157710185Y-87044527D01*
X157564606Y-86956521D01*
X157402196Y-86905913D01*
X157402194Y-86905912D01*
X157402192Y-86905912D01*
X157352778Y-86901422D01*
X157331616Y-86899499D01*
X156818384Y-86899499D01*
X156799145Y-86901247D01*
X156747807Y-86905912D01*
X156585393Y-86956521D01*
X156439811Y-87044529D01*
X156439810Y-87044530D01*
X156337681Y-87146660D01*
X156276358Y-87180145D01*
X156206666Y-87175161D01*
X156162319Y-87146660D01*
X156060188Y-87044529D01*
X155914606Y-86956521D01*
X155846141Y-86935187D01*
X155752196Y-86905913D01*
X155752194Y-86905912D01*
X155752192Y-86905912D01*
X155702778Y-86901422D01*
X155681616Y-86899499D01*
X155168384Y-86899499D01*
X155149145Y-86901247D01*
X155097807Y-86905912D01*
X154935393Y-86956521D01*
X154850886Y-87007608D01*
X154783331Y-87025444D01*
X154716857Y-87003926D01*
X154672570Y-86949886D01*
X154664529Y-86880480D01*
X154669027Y-86862498D01*
X154715349Y-86722707D01*
X154725500Y-86623344D01*
X154725499Y-86076655D01*
X154722100Y-86043385D01*
X154715349Y-85977291D01*
X154715348Y-85977288D01*
X154713862Y-85972803D01*
X154662003Y-85816302D01*
X154661999Y-85816296D01*
X154661998Y-85816293D01*
X154569177Y-85665808D01*
X154571896Y-85664130D01*
X154551091Y-85612533D01*
X154550500Y-85600439D01*
X154550500Y-84399558D01*
X154569615Y-84334460D01*
X154569177Y-84334190D01*
X154570164Y-84332589D01*
X154570185Y-84332519D01*
X154570349Y-84332288D01*
X154572966Y-84328044D01*
X154572968Y-84328043D01*
X154662003Y-84183696D01*
X154715349Y-84022707D01*
X154725500Y-83923344D01*
X154725499Y-83376655D01*
X154718422Y-83307379D01*
X154715349Y-83277291D01*
X154715348Y-83277288D01*
X154695393Y-83217067D01*
X154687920Y-83194517D01*
X154685519Y-83124691D01*
X154721251Y-83064649D01*
X154783771Y-83033456D01*
X154844635Y-83037810D01*
X154852292Y-83040348D01*
X154951655Y-83050499D01*
X155548344Y-83050498D01*
X155548352Y-83050497D01*
X155548355Y-83050497D01*
X155602760Y-83044939D01*
X155647708Y-83040348D01*
X155808697Y-82987002D01*
X155919008Y-82918960D01*
X155984105Y-82900499D01*
X156265895Y-82900499D01*
X156330991Y-82918960D01*
X156441303Y-82987002D01*
X156602292Y-83040348D01*
X156701655Y-83050499D01*
X157298344Y-83050498D01*
X157298352Y-83050497D01*
X157298355Y-83050497D01*
X157352760Y-83044939D01*
X157397708Y-83040348D01*
X157558697Y-82987002D01*
X157703044Y-82897967D01*
X157822968Y-82778043D01*
X157912003Y-82633696D01*
X157965349Y-82472707D01*
X157975500Y-82373344D01*
X157975499Y-81826655D01*
X157965349Y-81727291D01*
X157912003Y-81566302D01*
X157911999Y-81566296D01*
X157911998Y-81566293D01*
X157822970Y-81421958D01*
X157822967Y-81421954D01*
X157737693Y-81336680D01*
X157704208Y-81275357D01*
X157709192Y-81205665D01*
X157751064Y-81149732D01*
X157816528Y-81125315D01*
X157825374Y-81124999D01*
X160000000Y-81124999D01*
X160000000Y-74374999D01*
X157136693Y-74374999D01*
X157069654Y-74355314D01*
X157033591Y-74319890D01*
X157007367Y-74280643D01*
X156899355Y-74172631D01*
X156899351Y-74172628D01*
X156772342Y-74087763D01*
X156772332Y-74087758D01*
X156631205Y-74029301D01*
X156631197Y-74029299D01*
X156481384Y-73999499D01*
X156481380Y-73999499D01*
X156418334Y-73999499D01*
X156351295Y-73979814D01*
X156305540Y-73927010D01*
X156295596Y-73857852D01*
X156299945Y-73838620D01*
X156319086Y-73777195D01*
X156325500Y-73706615D01*
X156325500Y-73043383D01*
X156319086Y-72972803D01*
X156291538Y-72884400D01*
X156291300Y-72869925D01*
X156286240Y-72856358D01*
X156290735Y-72835691D01*
X156290387Y-72814544D01*
X156298288Y-72800973D01*
X156301092Y-72788085D01*
X156322236Y-72759839D01*
X156445260Y-72636816D01*
X156506583Y-72603333D01*
X156532940Y-72600499D01*
X156581613Y-72600499D01*
X156581616Y-72600499D01*
X156652196Y-72594085D01*
X156814606Y-72543477D01*
X156838422Y-72529079D01*
X156856119Y-72518382D01*
X156920268Y-72500499D01*
X159628845Y-72500499D01*
X159628846Y-72500498D01*
X159783498Y-72469736D01*
X159929180Y-72409393D01*
X160060290Y-72321788D01*
X160095260Y-72286818D01*
X160156583Y-72253333D01*
X160182941Y-72250499D01*
X160547871Y-72250499D01*
X160547872Y-72250499D01*
X160607483Y-72244091D01*
X160742331Y-72193796D01*
X160857546Y-72107546D01*
X160943796Y-71992331D01*
X160994091Y-71857483D01*
X161000500Y-71797873D01*
X161000499Y-70702128D01*
X160994091Y-70642517D01*
X160955707Y-70539605D01*
X160943797Y-70507671D01*
X160943793Y-70507664D01*
X160857547Y-70392455D01*
X160857544Y-70392452D01*
X160742335Y-70306206D01*
X160742328Y-70306202D01*
X160607482Y-70255908D01*
X160607483Y-70255908D01*
X160547883Y-70249501D01*
X160547881Y-70249500D01*
X160547873Y-70249500D01*
X160547864Y-70249500D01*
X159452129Y-70249500D01*
X159452123Y-70249501D01*
X159392516Y-70255908D01*
X159257671Y-70306202D01*
X159257664Y-70306206D01*
X159142455Y-70392452D01*
X159142452Y-70392455D01*
X159056206Y-70507664D01*
X159056202Y-70507671D01*
X159005908Y-70642517D01*
X159000686Y-70691093D01*
X158999501Y-70702123D01*
X158999500Y-70702135D01*
X158999500Y-70775499D01*
X158979815Y-70842538D01*
X158927011Y-70888293D01*
X158875500Y-70899499D01*
X157165520Y-70899499D01*
X157098481Y-70879814D01*
X157052726Y-70827010D01*
X157042782Y-70757852D01*
X157071807Y-70694296D01*
X157077839Y-70687818D01*
X157080468Y-70685188D01*
X157080469Y-70685187D01*
X157080472Y-70685184D01*
X157168478Y-70539605D01*
X157219086Y-70377195D01*
X157225500Y-70306615D01*
X157225500Y-69793383D01*
X157219086Y-69722803D01*
X157168478Y-69560393D01*
X157080472Y-69414814D01*
X157080470Y-69414812D01*
X157080469Y-69414810D01*
X156977839Y-69312180D01*
X156944354Y-69250857D01*
X156949338Y-69181165D01*
X156991210Y-69125232D01*
X157056674Y-69100815D01*
X157065520Y-69100499D01*
X157581613Y-69100499D01*
X157581616Y-69100499D01*
X157652196Y-69094085D01*
X157814606Y-69043477D01*
X157960185Y-68955471D01*
X158080472Y-68835184D01*
X158168478Y-68689605D01*
X158219086Y-68527195D01*
X158225500Y-68456615D01*
X158225500Y-67943383D01*
X158219086Y-67872803D01*
X158168478Y-67710393D01*
X158080472Y-67564814D01*
X158080470Y-67564812D01*
X158080469Y-67564810D01*
X158077839Y-67562180D01*
X158076528Y-67559780D01*
X158075843Y-67558905D01*
X158075988Y-67558791D01*
X158044354Y-67500857D01*
X158049338Y-67431165D01*
X158091210Y-67375232D01*
X158156674Y-67350815D01*
X158165520Y-67350499D01*
X159153844Y-67350499D01*
X159153845Y-67350498D01*
X159308497Y-67319736D01*
X159454179Y-67259393D01*
X159585289Y-67171788D01*
X160871789Y-65885288D01*
X160959394Y-65754178D01*
X161019737Y-65608496D01*
X161050500Y-65453841D01*
X161050500Y-65296157D01*
X161050500Y-61921157D01*
X161050500Y-61921154D01*
X161050499Y-61921152D01*
X161026499Y-61800499D01*
X161019737Y-61766502D01*
X161010200Y-61743477D01*
X160959397Y-61620826D01*
X160959390Y-61620813D01*
X160871790Y-61489711D01*
X160817994Y-61435915D01*
X160760289Y-61378210D01*
X160011819Y-60629740D01*
X159978334Y-60568417D01*
X159975500Y-60542059D01*
X159975500Y-60493385D01*
X159975391Y-60492184D01*
X159969086Y-60422803D01*
X159918478Y-60260393D01*
X159830472Y-60114814D01*
X159830470Y-60114812D01*
X159830469Y-60114810D01*
X159710188Y-59994529D01*
X159706851Y-59992512D01*
X159564606Y-59906521D01*
X159402196Y-59855913D01*
X159402194Y-59855912D01*
X159402192Y-59855912D01*
X159352778Y-59851422D01*
X159331616Y-59849499D01*
X158818384Y-59849499D01*
X158799145Y-59851247D01*
X158747807Y-59855912D01*
X158585393Y-59906521D01*
X158439811Y-59994529D01*
X158439810Y-59994530D01*
X158337681Y-60096660D01*
X158276358Y-60130145D01*
X158206666Y-60125161D01*
X158162319Y-60096660D01*
X158060188Y-59994529D01*
X158056851Y-59992512D01*
X157914606Y-59906521D01*
X157752196Y-59855913D01*
X157752194Y-59855912D01*
X157752192Y-59855912D01*
X157702778Y-59851422D01*
X157681616Y-59849499D01*
X157681613Y-59849499D01*
X157632940Y-59849499D01*
X157565901Y-59829814D01*
X157545259Y-59813180D01*
X156410292Y-58678212D01*
X156410288Y-58678209D01*
X156279185Y-58590608D01*
X156279173Y-58590602D01*
X156262844Y-58583838D01*
X156235605Y-58568257D01*
X156228716Y-58563058D01*
X156210185Y-58544527D01*
X156179896Y-58526216D01*
X156174806Y-58522375D01*
X156157623Y-58499236D01*
X156138162Y-58477983D01*
X156136490Y-58470775D01*
X156133151Y-58466279D01*
X156132206Y-58452306D01*
X156125500Y-58423396D01*
X156125500Y-58295266D01*
X156143384Y-58231115D01*
X156168475Y-58189610D01*
X156168475Y-58189609D01*
X156168478Y-58189605D01*
X156219086Y-58027195D01*
X156225500Y-57956615D01*
X156225500Y-57293383D01*
X156219086Y-57222803D01*
X156168478Y-57060393D01*
X156093382Y-56936170D01*
X156075500Y-56872022D01*
X156075500Y-56609103D01*
X156093961Y-56544008D01*
X156162003Y-56433696D01*
X156215349Y-56272707D01*
X156225500Y-56173344D01*
X156225499Y-55576655D01*
X156215349Y-55477291D01*
X156162003Y-55316302D01*
X156093960Y-55205988D01*
X156075500Y-55140892D01*
X156075500Y-51582241D01*
X156095185Y-51515202D01*
X156147989Y-51469447D01*
X156215683Y-51459302D01*
X156338712Y-51475499D01*
X156581289Y-51475499D01*
X156661052Y-51464998D01*
X156821789Y-51443837D01*
X157056100Y-51381053D01*
X157280212Y-51288223D01*
X157490289Y-51166935D01*
X157682738Y-51019264D01*
X157682740Y-51019261D01*
X157682745Y-51019258D01*
X157854260Y-50847742D01*
X157854265Y-50847737D01*
X158001936Y-50655288D01*
X158123224Y-50445211D01*
X158216054Y-50221099D01*
X158278838Y-49986788D01*
X158310500Y-49746287D01*
X158310500Y-49503711D01*
X158278838Y-49263210D01*
X158216054Y-49028899D01*
X158123224Y-48804787D01*
X158001936Y-48594710D01*
X157910073Y-48474991D01*
X157854266Y-48402262D01*
X157854260Y-48402255D01*
X157682743Y-48230738D01*
X157682736Y-48230732D01*
X157490293Y-48083066D01*
X157490292Y-48083065D01*
X157490289Y-48083063D01*
X157280212Y-47961775D01*
X157280205Y-47961772D01*
X157056104Y-47868946D01*
X156821785Y-47806160D01*
X156581289Y-47774499D01*
X156581288Y-47774499D01*
X156338712Y-47774499D01*
X156338711Y-47774499D01*
X156098214Y-47806160D01*
X155863895Y-47868946D01*
X155639794Y-47961772D01*
X155639785Y-47961776D01*
X155429706Y-48083066D01*
X155237263Y-48230732D01*
X155237256Y-48230738D01*
X155065739Y-48402255D01*
X155065733Y-48402262D01*
X154918067Y-48594705D01*
X154796777Y-48804784D01*
X154796773Y-48804793D01*
X154703947Y-49028894D01*
X154641161Y-49263213D01*
X154609500Y-49503710D01*
X154609500Y-49746287D01*
X154640972Y-49985350D01*
X154641162Y-49986788D01*
X154691307Y-50173933D01*
X154691056Y-50184503D01*
X154694980Y-50194324D01*
X154690239Y-50218830D01*
X154689645Y-50243781D01*
X154683366Y-50254354D01*
X154681709Y-50262922D01*
X154663405Y-50287970D01*
X154661217Y-50291657D01*
X154660224Y-50292696D01*
X154653211Y-50299710D01*
X154652474Y-50300812D01*
X154652471Y-50300816D01*
X154589738Y-50394702D01*
X154536125Y-50439507D01*
X154466800Y-50448214D01*
X154403773Y-50418059D01*
X154383535Y-50394704D01*
X154383534Y-50394702D01*
X154371398Y-50376539D01*
X154362322Y-50347557D01*
X154351053Y-50319350D01*
X154351983Y-50314539D01*
X154350520Y-50309865D01*
X154350500Y-50307649D01*
X154350500Y-48474996D01*
X154350499Y-48474983D01*
X154339999Y-48372203D01*
X154339999Y-48372202D01*
X154284814Y-48205665D01*
X154209193Y-48083066D01*
X154192713Y-48056347D01*
X154192710Y-48056343D01*
X154068655Y-47932288D01*
X154068651Y-47932285D01*
X153919337Y-47840186D01*
X153919335Y-47840185D01*
X153836065Y-47812592D01*
X153752797Y-47785000D01*
X153752795Y-47784999D01*
X153650015Y-47774499D01*
X153650008Y-47774499D01*
X151349992Y-47774499D01*
X151349984Y-47774499D01*
X151247204Y-47784999D01*
X151247203Y-47785000D01*
X151080664Y-47840185D01*
X151080662Y-47840186D01*
X150931348Y-47932285D01*
X150931344Y-47932288D01*
X150807289Y-48056343D01*
X150807286Y-48056347D01*
X150715187Y-48205661D01*
X150715186Y-48205663D01*
X150660001Y-48372202D01*
X150660000Y-48372203D01*
X150649500Y-48474983D01*
X150649500Y-50775014D01*
X150660000Y-50877794D01*
X150660001Y-50877795D01*
X150715186Y-51044334D01*
X150715187Y-51044336D01*
X150807286Y-51193650D01*
X150807289Y-51193654D01*
X150931344Y-51317709D01*
X150931348Y-51317712D01*
X151080662Y-51409811D01*
X151080664Y-51409812D01*
X151080666Y-51409813D01*
X151247203Y-51464998D01*
X151349992Y-51475499D01*
X152800500Y-51475499D01*
X152867539Y-51495184D01*
X152913294Y-51547988D01*
X152924500Y-51599499D01*
X152924500Y-55140892D01*
X152906039Y-55205989D01*
X152837998Y-55316299D01*
X152837996Y-55316304D01*
X152784651Y-55477289D01*
X152774500Y-55576646D01*
X152774500Y-56173336D01*
X152774501Y-56173354D01*
X152784650Y-56272706D01*
X152784651Y-56272709D01*
X152837996Y-56433693D01*
X152837999Y-56433700D01*
X152839568Y-56436243D01*
X152906038Y-56544008D01*
X152924500Y-56609103D01*
X152924500Y-56872022D01*
X152906617Y-56936172D01*
X152831522Y-57060392D01*
X152780913Y-57222806D01*
X152776166Y-57275048D01*
X152774500Y-57293383D01*
X152774500Y-57956615D01*
X152776423Y-57977777D01*
X152780913Y-58027191D01*
X152780913Y-58027193D01*
X152780914Y-58027195D01*
X152831522Y-58189605D01*
X152831523Y-58189606D01*
X152831524Y-58189610D01*
X152856616Y-58231115D01*
X152861147Y-58247370D01*
X152869477Y-58260331D01*
X152874500Y-58295266D01*
X152874500Y-58423396D01*
X152854815Y-58490435D01*
X152814653Y-58529511D01*
X152789814Y-58544527D01*
X152789807Y-58544533D01*
X152777375Y-58556964D01*
X152737158Y-58583836D01*
X152720827Y-58590601D01*
X152720818Y-58590605D01*
X152589715Y-58678206D01*
X152589707Y-58678212D01*
X151454741Y-59813180D01*
X151393418Y-59846665D01*
X151367060Y-59849499D01*
X151318384Y-59849499D01*
X151299145Y-59851247D01*
X151247807Y-59855912D01*
X151085393Y-59906521D01*
X150939811Y-59994529D01*
X150939810Y-59994530D01*
X150837681Y-60096660D01*
X150776358Y-60130145D01*
X150706666Y-60125161D01*
X150662319Y-60096660D01*
X150560188Y-59994529D01*
X150560185Y-59994527D01*
X150425547Y-59913135D01*
X150378360Y-59861608D01*
X150366522Y-59792748D01*
X150386594Y-59738130D01*
X150459394Y-59629179D01*
X150519738Y-59483497D01*
X150550500Y-59328842D01*
X150550500Y-59171157D01*
X150550500Y-52696158D01*
X150550500Y-52696155D01*
X150550499Y-52696153D01*
X150519738Y-52541510D01*
X150519737Y-52541503D01*
X150471460Y-52424951D01*
X150459397Y-52395827D01*
X150459390Y-52395814D01*
X150371790Y-52264712D01*
X150341892Y-52234814D01*
X150260289Y-52153211D01*
X146686818Y-48579740D01*
X146653333Y-48518417D01*
X146650499Y-48492059D01*
X146650499Y-47899998D01*
X146650498Y-47899981D01*
X146639999Y-47797203D01*
X146639998Y-47797200D01*
X146607623Y-47699500D01*
X146584814Y-47630666D01*
X146567216Y-47602135D01*
X170649500Y-47602135D01*
X170649500Y-49397870D01*
X170649501Y-49397876D01*
X170655908Y-49457483D01*
X170706202Y-49592328D01*
X170706206Y-49592335D01*
X170792452Y-49707544D01*
X170792455Y-49707547D01*
X170907664Y-49793793D01*
X170907671Y-49793797D01*
X171039082Y-49842810D01*
X171095016Y-49884681D01*
X171119433Y-49950145D01*
X171104582Y-50018418D01*
X171083431Y-50046673D01*
X170969889Y-50160215D01*
X170844951Y-50332179D01*
X170748444Y-50521585D01*
X170682753Y-50723760D01*
X170658356Y-50877796D01*
X170649500Y-50933713D01*
X170649500Y-51146287D01*
X170659534Y-51209644D01*
X170677483Y-51322968D01*
X170682754Y-51356243D01*
X170721502Y-51475498D01*
X170748444Y-51558414D01*
X170844951Y-51747820D01*
X170969890Y-51919786D01*
X171120213Y-52070109D01*
X171292182Y-52195050D01*
X171300946Y-52199516D01*
X171351742Y-52247491D01*
X171368536Y-52315312D01*
X171345998Y-52381447D01*
X171300946Y-52420484D01*
X171292182Y-52424949D01*
X171120213Y-52549890D01*
X170969890Y-52700213D01*
X170844951Y-52872179D01*
X170748444Y-53061585D01*
X170682753Y-53263760D01*
X170649500Y-53473713D01*
X170649500Y-53686286D01*
X170682753Y-53896239D01*
X170748444Y-54098414D01*
X170844951Y-54287820D01*
X170969890Y-54459786D01*
X171120213Y-54610109D01*
X171292182Y-54735050D01*
X171300946Y-54739516D01*
X171351742Y-54787491D01*
X171368536Y-54855312D01*
X171345998Y-54921447D01*
X171300946Y-54960484D01*
X171292182Y-54964949D01*
X171120213Y-55089890D01*
X170969890Y-55240213D01*
X170844951Y-55412179D01*
X170748444Y-55601585D01*
X170682753Y-55803760D01*
X170649500Y-56013713D01*
X170649500Y-56226286D01*
X170682753Y-56436239D01*
X170748444Y-56638414D01*
X170844951Y-56827820D01*
X170969890Y-56999786D01*
X171120213Y-57150109D01*
X171292182Y-57275050D01*
X171300946Y-57279516D01*
X171351742Y-57327491D01*
X171368536Y-57395312D01*
X171345998Y-57461447D01*
X171300946Y-57500484D01*
X171292182Y-57504949D01*
X171120213Y-57629890D01*
X170969890Y-57780213D01*
X170844951Y-57952179D01*
X170748444Y-58141585D01*
X170682753Y-58343760D01*
X170649500Y-58553713D01*
X170649500Y-58766286D01*
X170668025Y-58883252D01*
X170682754Y-58976243D01*
X170704569Y-59043383D01*
X170748444Y-59178414D01*
X170844951Y-59367820D01*
X170969890Y-59539786D01*
X171120213Y-59690109D01*
X171292182Y-59815050D01*
X171300946Y-59819516D01*
X171351742Y-59867491D01*
X171368536Y-59935312D01*
X171345998Y-60001447D01*
X171300946Y-60040484D01*
X171292182Y-60044949D01*
X171120213Y-60169890D01*
X170969890Y-60320213D01*
X170844951Y-60492179D01*
X170748444Y-60681585D01*
X170682753Y-60883760D01*
X170649500Y-61093713D01*
X170649500Y-61306286D01*
X170678551Y-61489711D01*
X170682754Y-61516243D01*
X170729597Y-61660411D01*
X170748444Y-61718414D01*
X170844951Y-61907820D01*
X170969890Y-62079786D01*
X171120213Y-62230109D01*
X171292182Y-62355050D01*
X171300946Y-62359516D01*
X171351742Y-62407491D01*
X171368536Y-62475312D01*
X171345998Y-62541447D01*
X171300946Y-62580484D01*
X171292182Y-62584949D01*
X171120213Y-62709890D01*
X170969890Y-62860213D01*
X170844951Y-63032179D01*
X170748444Y-63221585D01*
X170682753Y-63423760D01*
X170649500Y-63633713D01*
X170649500Y-63846287D01*
X170682754Y-64056243D01*
X170747809Y-64256462D01*
X170748444Y-64258414D01*
X170844951Y-64447820D01*
X170969890Y-64619786D01*
X171120213Y-64770109D01*
X171292182Y-64895050D01*
X171300946Y-64899516D01*
X171351742Y-64947491D01*
X171368536Y-65015312D01*
X171345998Y-65081447D01*
X171300946Y-65120484D01*
X171292182Y-65124949D01*
X171120213Y-65249890D01*
X170969890Y-65400213D01*
X170844951Y-65572179D01*
X170748444Y-65761585D01*
X170682753Y-65963760D01*
X170649500Y-66173713D01*
X170649500Y-66386286D01*
X170682753Y-66596239D01*
X170748444Y-66798414D01*
X170844951Y-66987820D01*
X170969890Y-67159786D01*
X171120213Y-67310109D01*
X171292182Y-67435050D01*
X171300946Y-67439516D01*
X171351742Y-67487491D01*
X171368536Y-67555312D01*
X171345998Y-67621447D01*
X171300946Y-67660484D01*
X171292182Y-67664949D01*
X171120213Y-67789890D01*
X170969890Y-67940213D01*
X170844951Y-68112179D01*
X170748444Y-68301585D01*
X170682753Y-68503760D01*
X170649500Y-68713713D01*
X170649500Y-68926286D01*
X170677142Y-69100815D01*
X170682754Y-69136243D01*
X170694693Y-69172988D01*
X170748444Y-69338414D01*
X170844951Y-69527820D01*
X170969890Y-69699786D01*
X171120213Y-69850109D01*
X171292182Y-69975050D01*
X171300946Y-69979516D01*
X171351742Y-70027491D01*
X171368536Y-70095312D01*
X171345998Y-70161447D01*
X171300946Y-70200484D01*
X171292182Y-70204949D01*
X171120213Y-70329890D01*
X170969890Y-70480213D01*
X170844951Y-70652179D01*
X170748444Y-70841585D01*
X170682753Y-71043760D01*
X170656361Y-71210392D01*
X170649500Y-71253713D01*
X170649500Y-71466287D01*
X170682754Y-71676243D01*
X170741663Y-71857546D01*
X170748444Y-71878414D01*
X170844951Y-72067820D01*
X170969890Y-72239786D01*
X171120213Y-72390109D01*
X171292182Y-72515050D01*
X171300946Y-72519516D01*
X171351742Y-72567491D01*
X171368536Y-72635312D01*
X171345998Y-72701447D01*
X171300946Y-72740484D01*
X171292182Y-72744949D01*
X171120213Y-72869890D01*
X170969890Y-73020213D01*
X170844951Y-73192179D01*
X170748444Y-73381585D01*
X170682753Y-73583760D01*
X170663295Y-73706615D01*
X170649500Y-73793713D01*
X170649500Y-74006287D01*
X170682754Y-74216243D01*
X170734337Y-74374999D01*
X170748444Y-74418414D01*
X170844951Y-74607820D01*
X170969890Y-74779786D01*
X171120213Y-74930109D01*
X171292182Y-75055050D01*
X171300946Y-75059516D01*
X171351742Y-75107491D01*
X171368536Y-75175312D01*
X171345998Y-75241447D01*
X171300946Y-75280484D01*
X171292182Y-75284949D01*
X171120213Y-75409890D01*
X170969890Y-75560213D01*
X170844951Y-75732179D01*
X170748444Y-75921585D01*
X170748443Y-75921587D01*
X170748443Y-75921588D01*
X170725916Y-75990918D01*
X170682753Y-76123760D01*
X170649500Y-76333713D01*
X170649500Y-76546286D01*
X170682753Y-76756239D01*
X170748444Y-76958414D01*
X170844951Y-77147820D01*
X170969890Y-77319786D01*
X171120213Y-77470109D01*
X171292182Y-77595050D01*
X171300946Y-77599516D01*
X171351742Y-77647491D01*
X171368536Y-77715312D01*
X171345998Y-77781447D01*
X171300946Y-77820484D01*
X171292182Y-77824949D01*
X171120213Y-77949890D01*
X170969890Y-78100213D01*
X170844951Y-78272179D01*
X170748444Y-78461585D01*
X170682753Y-78663760D01*
X170649500Y-78873713D01*
X170649500Y-79086286D01*
X170682753Y-79296239D01*
X170748444Y-79498414D01*
X170844951Y-79687820D01*
X170969890Y-79859786D01*
X171120213Y-80010109D01*
X171292182Y-80135050D01*
X171300946Y-80139516D01*
X171351742Y-80187491D01*
X171368536Y-80255312D01*
X171345998Y-80321447D01*
X171300946Y-80360484D01*
X171292182Y-80364949D01*
X171120213Y-80489890D01*
X170969890Y-80640213D01*
X170844951Y-80812179D01*
X170748444Y-81001585D01*
X170682753Y-81203760D01*
X170661701Y-81336680D01*
X170649500Y-81413713D01*
X170649500Y-81626287D01*
X170655223Y-81662422D01*
X170682753Y-81836239D01*
X170748444Y-82038414D01*
X170844951Y-82227820D01*
X170969890Y-82399786D01*
X171120213Y-82550109D01*
X171292182Y-82675050D01*
X171300946Y-82679516D01*
X171351742Y-82727491D01*
X171368536Y-82795312D01*
X171345998Y-82861447D01*
X171300946Y-82900484D01*
X171292182Y-82904949D01*
X171120213Y-83029890D01*
X170969890Y-83180213D01*
X170844951Y-83352179D01*
X170748444Y-83541585D01*
X170682753Y-83743760D01*
X170649500Y-83953713D01*
X170649500Y-84166286D01*
X170675828Y-84332519D01*
X170682754Y-84376243D01*
X170735400Y-84538271D01*
X170748444Y-84578414D01*
X170844951Y-84767820D01*
X170969890Y-84939786D01*
X171120213Y-85090109D01*
X171292182Y-85215050D01*
X171300946Y-85219516D01*
X171351742Y-85267491D01*
X171368536Y-85335312D01*
X171345998Y-85401447D01*
X171300946Y-85440484D01*
X171292182Y-85444949D01*
X171120213Y-85569890D01*
X170969890Y-85720213D01*
X170844951Y-85892179D01*
X170748444Y-86081585D01*
X170682753Y-86283760D01*
X170663995Y-86402196D01*
X170649500Y-86493713D01*
X170649500Y-86706287D01*
X170650118Y-86710188D01*
X170681117Y-86905912D01*
X170682754Y-86916243D01*
X170748433Y-87118382D01*
X170748444Y-87118414D01*
X170844951Y-87307820D01*
X170969890Y-87479786D01*
X171120213Y-87630109D01*
X171292182Y-87755050D01*
X171300946Y-87759516D01*
X171351742Y-87807491D01*
X171368536Y-87875312D01*
X171345998Y-87941447D01*
X171300946Y-87980484D01*
X171292182Y-87984949D01*
X171120213Y-88109890D01*
X170969890Y-88260213D01*
X170844951Y-88432179D01*
X170748444Y-88621585D01*
X170682753Y-88823760D01*
X170649500Y-89033713D01*
X170649500Y-89246286D01*
X170682753Y-89456239D01*
X170682753Y-89456241D01*
X170682754Y-89456243D01*
X170746454Y-89652292D01*
X170748444Y-89658414D01*
X170844951Y-89847820D01*
X170969890Y-90019786D01*
X171120213Y-90170109D01*
X171292182Y-90295050D01*
X171300946Y-90299516D01*
X171351742Y-90347491D01*
X171368536Y-90415312D01*
X171345998Y-90481447D01*
X171300946Y-90520484D01*
X171292182Y-90524949D01*
X171120213Y-90649890D01*
X170969890Y-90800213D01*
X170844951Y-90972179D01*
X170748444Y-91161585D01*
X170682753Y-91363760D01*
X170649500Y-91573713D01*
X170649500Y-91786287D01*
X170682754Y-91996243D01*
X170739846Y-92171954D01*
X170748444Y-92198414D01*
X170844951Y-92387820D01*
X170969890Y-92559786D01*
X171120213Y-92710109D01*
X171292182Y-92835050D01*
X171300946Y-92839516D01*
X171351742Y-92887491D01*
X171368536Y-92955312D01*
X171345998Y-93021447D01*
X171300946Y-93060484D01*
X171292182Y-93064949D01*
X171120213Y-93189890D01*
X170969890Y-93340213D01*
X170844951Y-93512179D01*
X170748444Y-93701585D01*
X170682753Y-93903760D01*
X170657278Y-94064606D01*
X170649500Y-94113713D01*
X170649500Y-94326287D01*
X170650163Y-94330472D01*
X170664101Y-94418477D01*
X170682754Y-94536243D01*
X170704676Y-94603713D01*
X170748444Y-94738414D01*
X170844951Y-94927820D01*
X170969890Y-95099786D01*
X171120213Y-95250109D01*
X171292182Y-95375050D01*
X171300946Y-95379516D01*
X171351742Y-95427491D01*
X171368536Y-95495312D01*
X171345998Y-95561447D01*
X171300946Y-95600484D01*
X171292182Y-95604949D01*
X171120213Y-95729890D01*
X170969890Y-95880213D01*
X170844951Y-96052179D01*
X170748444Y-96241585D01*
X170682753Y-96443760D01*
X170649500Y-96653713D01*
X170649500Y-96866286D01*
X170674882Y-97026545D01*
X170682754Y-97076243D01*
X170735821Y-97239567D01*
X170748444Y-97278414D01*
X170844951Y-97467820D01*
X170969890Y-97639786D01*
X171120213Y-97790109D01*
X171292182Y-97915050D01*
X171300946Y-97919516D01*
X171351742Y-97967491D01*
X171368536Y-98035312D01*
X171345998Y-98101447D01*
X171300946Y-98140484D01*
X171292182Y-98144949D01*
X171120213Y-98269890D01*
X170969890Y-98420213D01*
X170844951Y-98592179D01*
X170748444Y-98781585D01*
X170748443Y-98781587D01*
X170748443Y-98781588D01*
X170736555Y-98818175D01*
X170682753Y-98983760D01*
X170649500Y-99193713D01*
X170649500Y-99406286D01*
X170675679Y-99571578D01*
X170682754Y-99616243D01*
X170748003Y-99817059D01*
X170748444Y-99818414D01*
X170844951Y-100007820D01*
X170969890Y-100179786D01*
X171120213Y-100330109D01*
X171292182Y-100455050D01*
X171300946Y-100459516D01*
X171351742Y-100507491D01*
X171368536Y-100575312D01*
X171345998Y-100641447D01*
X171300946Y-100680484D01*
X171292182Y-100684949D01*
X171120213Y-100809890D01*
X170969890Y-100960213D01*
X170844951Y-101132179D01*
X170748444Y-101321585D01*
X170682753Y-101523760D01*
X170649500Y-101733713D01*
X170649500Y-101946286D01*
X170682753Y-102156239D01*
X170748444Y-102358414D01*
X170844951Y-102547820D01*
X170969890Y-102719786D01*
X171120213Y-102870109D01*
X171292182Y-102995050D01*
X171300946Y-102999516D01*
X171351742Y-103047491D01*
X171368536Y-103115312D01*
X171345998Y-103181447D01*
X171300946Y-103220484D01*
X171292182Y-103224949D01*
X171120213Y-103349890D01*
X170969890Y-103500213D01*
X170844951Y-103672179D01*
X170748444Y-103861585D01*
X170682753Y-104063760D01*
X170649500Y-104273713D01*
X170649500Y-104486286D01*
X170682753Y-104696239D01*
X170748444Y-104898414D01*
X170844951Y-105087820D01*
X170969890Y-105259786D01*
X171120213Y-105410109D01*
X171292182Y-105535050D01*
X171300946Y-105539516D01*
X171351742Y-105587491D01*
X171368536Y-105655312D01*
X171345998Y-105721447D01*
X171300946Y-105760484D01*
X171292182Y-105764949D01*
X171120213Y-105889890D01*
X170969890Y-106040213D01*
X170844951Y-106212179D01*
X170748444Y-106401585D01*
X170682753Y-106603760D01*
X170649500Y-106813713D01*
X170649500Y-107026286D01*
X170682753Y-107236239D01*
X170748444Y-107438414D01*
X170844951Y-107627820D01*
X170969890Y-107799786D01*
X171120213Y-107950109D01*
X171292179Y-108075048D01*
X171292181Y-108075049D01*
X171292184Y-108075051D01*
X171481588Y-108171557D01*
X171683757Y-108237246D01*
X171893713Y-108270500D01*
X171893714Y-108270500D01*
X172106286Y-108270500D01*
X172106287Y-108270500D01*
X172316243Y-108237246D01*
X172518412Y-108171557D01*
X172707816Y-108075051D01*
X172729789Y-108059086D01*
X172879786Y-107950109D01*
X172879788Y-107950106D01*
X172879792Y-107950104D01*
X173030104Y-107799792D01*
X173030106Y-107799788D01*
X173030109Y-107799786D01*
X173155048Y-107627820D01*
X173155047Y-107627820D01*
X173155051Y-107627816D01*
X173251557Y-107438412D01*
X173317246Y-107236243D01*
X173350500Y-107026287D01*
X173350500Y-106813713D01*
X173317246Y-106603757D01*
X173251557Y-106401588D01*
X173155051Y-106212184D01*
X173155049Y-106212181D01*
X173155048Y-106212179D01*
X173030109Y-106040213D01*
X172879786Y-105889890D01*
X172707820Y-105764951D01*
X172707115Y-105764591D01*
X172699054Y-105760485D01*
X172648259Y-105712512D01*
X172631463Y-105644692D01*
X172653999Y-105578556D01*
X172699054Y-105539515D01*
X172707816Y-105535051D01*
X172729789Y-105519086D01*
X172879786Y-105410109D01*
X172879788Y-105410106D01*
X172879792Y-105410104D01*
X173030104Y-105259792D01*
X173030106Y-105259788D01*
X173030109Y-105259786D01*
X173155048Y-105087820D01*
X173155047Y-105087820D01*
X173155051Y-105087816D01*
X173251557Y-104898412D01*
X173317246Y-104696243D01*
X173350500Y-104486287D01*
X173350500Y-104273713D01*
X173317246Y-104063757D01*
X173251557Y-103861588D01*
X173155051Y-103672184D01*
X173155049Y-103672181D01*
X173155048Y-103672179D01*
X173030109Y-103500213D01*
X172879786Y-103349890D01*
X172707820Y-103224951D01*
X172707115Y-103224591D01*
X172699054Y-103220485D01*
X172648259Y-103172512D01*
X172631463Y-103104692D01*
X172653999Y-103038556D01*
X172699054Y-102999515D01*
X172707816Y-102995051D01*
X172729789Y-102979086D01*
X172879786Y-102870109D01*
X172879788Y-102870106D01*
X172879792Y-102870104D01*
X173030104Y-102719792D01*
X173030106Y-102719788D01*
X173030109Y-102719786D01*
X173155048Y-102547820D01*
X173155047Y-102547820D01*
X173155051Y-102547816D01*
X173251557Y-102358412D01*
X173317246Y-102156243D01*
X173350500Y-101946287D01*
X173350500Y-101733713D01*
X173317246Y-101523757D01*
X173251557Y-101321588D01*
X173155051Y-101132184D01*
X173155049Y-101132181D01*
X173155048Y-101132179D01*
X173030109Y-100960213D01*
X172879786Y-100809890D01*
X172707820Y-100684951D01*
X172707115Y-100684591D01*
X172699054Y-100680485D01*
X172648259Y-100632512D01*
X172631463Y-100564692D01*
X172653999Y-100498556D01*
X172699054Y-100459515D01*
X172707816Y-100455051D01*
X172729789Y-100439086D01*
X172879786Y-100330109D01*
X172879788Y-100330106D01*
X172879792Y-100330104D01*
X173030104Y-100179792D01*
X173030106Y-100179788D01*
X173030109Y-100179786D01*
X173155048Y-100007820D01*
X173155047Y-100007820D01*
X173155051Y-100007816D01*
X173251557Y-99818412D01*
X173317246Y-99616243D01*
X173350500Y-99406287D01*
X173350500Y-99193713D01*
X173317246Y-98983757D01*
X173251557Y-98781588D01*
X173155051Y-98592184D01*
X173155049Y-98592181D01*
X173155048Y-98592179D01*
X173030109Y-98420213D01*
X172879786Y-98269890D01*
X172707820Y-98144951D01*
X172707115Y-98144591D01*
X172699054Y-98140485D01*
X172648259Y-98092512D01*
X172631463Y-98024692D01*
X172653999Y-97958556D01*
X172699054Y-97919515D01*
X172707816Y-97915051D01*
X172751247Y-97883497D01*
X172879786Y-97790109D01*
X172879788Y-97790106D01*
X172879792Y-97790104D01*
X173030104Y-97639792D01*
X173030106Y-97639788D01*
X173030109Y-97639786D01*
X173155048Y-97467820D01*
X173155047Y-97467820D01*
X173155051Y-97467816D01*
X173251557Y-97278412D01*
X173317246Y-97076243D01*
X173350500Y-96866287D01*
X173350500Y-96653713D01*
X173317246Y-96443757D01*
X173251557Y-96241588D01*
X173155051Y-96052184D01*
X173155049Y-96052181D01*
X173155048Y-96052179D01*
X173030109Y-95880213D01*
X172879786Y-95729890D01*
X172707820Y-95604951D01*
X172707115Y-95604591D01*
X172699054Y-95600485D01*
X172648259Y-95552512D01*
X172631463Y-95484692D01*
X172653999Y-95418556D01*
X172699054Y-95379515D01*
X172707816Y-95375051D01*
X172729789Y-95359086D01*
X172879786Y-95250109D01*
X172879788Y-95250106D01*
X172879792Y-95250104D01*
X173030104Y-95099792D01*
X173030106Y-95099788D01*
X173030109Y-95099786D01*
X173155048Y-94927820D01*
X173155047Y-94927820D01*
X173155051Y-94927816D01*
X173251557Y-94738412D01*
X173317246Y-94536243D01*
X173350500Y-94326287D01*
X173350500Y-94113713D01*
X173317246Y-93903757D01*
X173251557Y-93701588D01*
X173155051Y-93512184D01*
X173155049Y-93512181D01*
X173155048Y-93512179D01*
X173030109Y-93340213D01*
X172879786Y-93189890D01*
X172707820Y-93064951D01*
X172705406Y-93063721D01*
X172699054Y-93060485D01*
X172648259Y-93012512D01*
X172631463Y-92944692D01*
X172653999Y-92878556D01*
X172699054Y-92839515D01*
X172707816Y-92835051D01*
X172729789Y-92819086D01*
X172879786Y-92710109D01*
X172879788Y-92710106D01*
X172879792Y-92710104D01*
X173030104Y-92559792D01*
X173030106Y-92559788D01*
X173030109Y-92559786D01*
X173155048Y-92387820D01*
X173155047Y-92387820D01*
X173155051Y-92387816D01*
X173251557Y-92198412D01*
X173317246Y-91996243D01*
X173350500Y-91786287D01*
X173350500Y-91573713D01*
X173317246Y-91363757D01*
X173251557Y-91161588D01*
X173155051Y-90972184D01*
X173155049Y-90972181D01*
X173155048Y-90972179D01*
X173030109Y-90800213D01*
X172879786Y-90649890D01*
X172707820Y-90524951D01*
X172707115Y-90524591D01*
X172699054Y-90520485D01*
X172648259Y-90472512D01*
X172631463Y-90404692D01*
X172653999Y-90338556D01*
X172699054Y-90299515D01*
X172707816Y-90295051D01*
X172729789Y-90279086D01*
X172879786Y-90170109D01*
X172879788Y-90170106D01*
X172879792Y-90170104D01*
X173030104Y-90019792D01*
X173030106Y-90019788D01*
X173030109Y-90019786D01*
X173155048Y-89847820D01*
X173155047Y-89847820D01*
X173155051Y-89847816D01*
X173251557Y-89658412D01*
X173317246Y-89456243D01*
X173350500Y-89246287D01*
X173350500Y-89033713D01*
X173317246Y-88823757D01*
X173251557Y-88621588D01*
X173155051Y-88432184D01*
X173155049Y-88432181D01*
X173155048Y-88432179D01*
X173030109Y-88260213D01*
X172879786Y-88109890D01*
X172707820Y-87984951D01*
X172707115Y-87984591D01*
X172699054Y-87980485D01*
X172648259Y-87932512D01*
X172631463Y-87864692D01*
X172653999Y-87798556D01*
X172699054Y-87759515D01*
X172707816Y-87755051D01*
X172729789Y-87739086D01*
X172879786Y-87630109D01*
X172879788Y-87630106D01*
X172879792Y-87630104D01*
X173030104Y-87479792D01*
X173030106Y-87479788D01*
X173030109Y-87479786D01*
X173155048Y-87307820D01*
X173155047Y-87307820D01*
X173155051Y-87307816D01*
X173251557Y-87118412D01*
X173317246Y-86916243D01*
X173350500Y-86706287D01*
X173350500Y-86493713D01*
X173317246Y-86283757D01*
X173251557Y-86081588D01*
X173155051Y-85892184D01*
X173155049Y-85892181D01*
X173155048Y-85892179D01*
X173030109Y-85720213D01*
X172879786Y-85569890D01*
X172707820Y-85444951D01*
X172703084Y-85442538D01*
X172699054Y-85440485D01*
X172648259Y-85392512D01*
X172631463Y-85324692D01*
X172653999Y-85258556D01*
X172699054Y-85219515D01*
X172707816Y-85215051D01*
X172770471Y-85169530D01*
X172879786Y-85090109D01*
X172879788Y-85090106D01*
X172879792Y-85090104D01*
X173030104Y-84939792D01*
X173030106Y-84939788D01*
X173030109Y-84939786D01*
X173155048Y-84767820D01*
X173155047Y-84767820D01*
X173155051Y-84767816D01*
X173251557Y-84578412D01*
X173317246Y-84376243D01*
X173350500Y-84166287D01*
X173350500Y-83953713D01*
X173317246Y-83743757D01*
X173251557Y-83541588D01*
X173155051Y-83352184D01*
X173155049Y-83352181D01*
X173155048Y-83352179D01*
X173030109Y-83180213D01*
X172879786Y-83029890D01*
X172707820Y-82904951D01*
X172699082Y-82900499D01*
X172699054Y-82900485D01*
X172648259Y-82852512D01*
X172631463Y-82784692D01*
X172653999Y-82718556D01*
X172699054Y-82679515D01*
X172707816Y-82675051D01*
X172764741Y-82633693D01*
X172879786Y-82550109D01*
X172879788Y-82550106D01*
X172879792Y-82550104D01*
X173030104Y-82399792D01*
X173030106Y-82399788D01*
X173030109Y-82399786D01*
X173155048Y-82227820D01*
X173155047Y-82227820D01*
X173155051Y-82227816D01*
X173251557Y-82038412D01*
X173317246Y-81836243D01*
X173350500Y-81626287D01*
X173350500Y-81413713D01*
X173317246Y-81203757D01*
X173251557Y-81001588D01*
X173155051Y-80812184D01*
X173155049Y-80812181D01*
X173155048Y-80812179D01*
X173030109Y-80640213D01*
X172879786Y-80489890D01*
X172707820Y-80364951D01*
X172707115Y-80364591D01*
X172699054Y-80360485D01*
X172648259Y-80312512D01*
X172631463Y-80244692D01*
X172653999Y-80178556D01*
X172699054Y-80139515D01*
X172707816Y-80135051D01*
X172797097Y-80070185D01*
X172879786Y-80010109D01*
X172879788Y-80010106D01*
X172879792Y-80010104D01*
X173030104Y-79859792D01*
X173030106Y-79859788D01*
X173030109Y-79859786D01*
X173155048Y-79687820D01*
X173155047Y-79687820D01*
X173155051Y-79687816D01*
X173251557Y-79498412D01*
X173317246Y-79296243D01*
X173350500Y-79086287D01*
X173350500Y-78873713D01*
X173317246Y-78663757D01*
X173251557Y-78461588D01*
X173155051Y-78272184D01*
X173155049Y-78272181D01*
X173155048Y-78272179D01*
X173030109Y-78100213D01*
X172879786Y-77949890D01*
X172707820Y-77824951D01*
X172707115Y-77824591D01*
X172699054Y-77820485D01*
X172648259Y-77772512D01*
X172631463Y-77704692D01*
X172653999Y-77638556D01*
X172699054Y-77599515D01*
X172707816Y-77595051D01*
X172729789Y-77579086D01*
X172879786Y-77470109D01*
X172879788Y-77470106D01*
X172879792Y-77470104D01*
X173030104Y-77319792D01*
X173030106Y-77319788D01*
X173030109Y-77319786D01*
X173155048Y-77147820D01*
X173155047Y-77147820D01*
X173155051Y-77147816D01*
X173251557Y-76958412D01*
X173317246Y-76756243D01*
X173350500Y-76546287D01*
X173350500Y-76333713D01*
X173317246Y-76123757D01*
X173251557Y-75921588D01*
X173155051Y-75732184D01*
X173155049Y-75732181D01*
X173155048Y-75732179D01*
X173030109Y-75560213D01*
X172879786Y-75409890D01*
X172707820Y-75284951D01*
X172707115Y-75284591D01*
X172699054Y-75280485D01*
X172648259Y-75232512D01*
X172631463Y-75164692D01*
X172653999Y-75098556D01*
X172699054Y-75059515D01*
X172707816Y-75055051D01*
X172729789Y-75039086D01*
X172879786Y-74930109D01*
X172879788Y-74930106D01*
X172879792Y-74930104D01*
X173030104Y-74779792D01*
X173030106Y-74779788D01*
X173030109Y-74779786D01*
X173155048Y-74607820D01*
X173155047Y-74607820D01*
X173155051Y-74607816D01*
X173251557Y-74418412D01*
X173317246Y-74216243D01*
X173350500Y-74006287D01*
X173350500Y-73793713D01*
X173317246Y-73583757D01*
X173251557Y-73381588D01*
X173155051Y-73192184D01*
X173155049Y-73192181D01*
X173155048Y-73192179D01*
X173030109Y-73020213D01*
X172879786Y-72869890D01*
X172707820Y-72744951D01*
X172705443Y-72743740D01*
X172699054Y-72740485D01*
X172648259Y-72692512D01*
X172631463Y-72624692D01*
X172653999Y-72558556D01*
X172699054Y-72519515D01*
X172707816Y-72515051D01*
X172770190Y-72469734D01*
X172879786Y-72390109D01*
X172879788Y-72390106D01*
X172879792Y-72390104D01*
X173030104Y-72239792D01*
X173030106Y-72239788D01*
X173030109Y-72239786D01*
X173155048Y-72067820D01*
X173155047Y-72067820D01*
X173155051Y-72067816D01*
X173251557Y-71878412D01*
X173317246Y-71676243D01*
X173350500Y-71466287D01*
X173350500Y-71253713D01*
X173317246Y-71043757D01*
X173251557Y-70841588D01*
X173155051Y-70652184D01*
X173155049Y-70652181D01*
X173155048Y-70652179D01*
X173030109Y-70480213D01*
X172879786Y-70329890D01*
X172707820Y-70204951D01*
X172707115Y-70204591D01*
X172699054Y-70200485D01*
X172648259Y-70152512D01*
X172631463Y-70084692D01*
X172653999Y-70018556D01*
X172699054Y-69979515D01*
X172707816Y-69975051D01*
X172729789Y-69959086D01*
X172879786Y-69850109D01*
X172879788Y-69850106D01*
X172879792Y-69850104D01*
X173030104Y-69699792D01*
X173030106Y-69699788D01*
X173030109Y-69699786D01*
X173155048Y-69527820D01*
X173155047Y-69527820D01*
X173155051Y-69527816D01*
X173251557Y-69338412D01*
X173317246Y-69136243D01*
X173350500Y-68926287D01*
X173350500Y-68713713D01*
X173317246Y-68503757D01*
X173251557Y-68301588D01*
X173155051Y-68112184D01*
X173155049Y-68112181D01*
X173155048Y-68112179D01*
X173030109Y-67940213D01*
X172879786Y-67789890D01*
X172707820Y-67664951D01*
X172707115Y-67664591D01*
X172699054Y-67660485D01*
X172648259Y-67612512D01*
X172631463Y-67544692D01*
X172653999Y-67478556D01*
X172699054Y-67439515D01*
X172707816Y-67435051D01*
X172729897Y-67419008D01*
X172879786Y-67310109D01*
X172879788Y-67310106D01*
X172879792Y-67310104D01*
X173030104Y-67159792D01*
X173030106Y-67159788D01*
X173030109Y-67159786D01*
X173155048Y-66987820D01*
X173155047Y-66987820D01*
X173155051Y-66987816D01*
X173251557Y-66798412D01*
X173317246Y-66596243D01*
X173350500Y-66386287D01*
X173350500Y-66173713D01*
X173317246Y-65963757D01*
X173251557Y-65761588D01*
X173155051Y-65572184D01*
X173155049Y-65572181D01*
X173155048Y-65572179D01*
X173030109Y-65400213D01*
X172879786Y-65249890D01*
X172707820Y-65124951D01*
X172707115Y-65124591D01*
X172699054Y-65120485D01*
X172648259Y-65072512D01*
X172631463Y-65004692D01*
X172653999Y-64938556D01*
X172699054Y-64899515D01*
X172707816Y-64895051D01*
X172733275Y-64876554D01*
X172879786Y-64770109D01*
X172879788Y-64770106D01*
X172879792Y-64770104D01*
X173030104Y-64619792D01*
X173030106Y-64619788D01*
X173030109Y-64619786D01*
X173155048Y-64447820D01*
X173155047Y-64447820D01*
X173155051Y-64447816D01*
X173251557Y-64258412D01*
X173317246Y-64056243D01*
X173350500Y-63846287D01*
X173350500Y-63633713D01*
X173317246Y-63423757D01*
X173251557Y-63221588D01*
X173155051Y-63032184D01*
X173155049Y-63032181D01*
X173155048Y-63032179D01*
X173030109Y-62860213D01*
X172879786Y-62709890D01*
X172707820Y-62584951D01*
X172707115Y-62584591D01*
X172699054Y-62580485D01*
X172648259Y-62532512D01*
X172631463Y-62464692D01*
X172653999Y-62398556D01*
X172699054Y-62359515D01*
X172707816Y-62355051D01*
X172752634Y-62322489D01*
X172879786Y-62230109D01*
X172879788Y-62230106D01*
X172879792Y-62230104D01*
X173030104Y-62079792D01*
X173030106Y-62079788D01*
X173030109Y-62079786D01*
X173155048Y-61907820D01*
X173155047Y-61907820D01*
X173155051Y-61907816D01*
X173251557Y-61718412D01*
X173317246Y-61516243D01*
X173350500Y-61306287D01*
X173350500Y-61093713D01*
X173317246Y-60883757D01*
X173251557Y-60681588D01*
X173155051Y-60492184D01*
X173155049Y-60492181D01*
X173155048Y-60492179D01*
X173030109Y-60320213D01*
X172879786Y-60169890D01*
X172707820Y-60044951D01*
X172707115Y-60044591D01*
X172699054Y-60040485D01*
X172648259Y-59992512D01*
X172631463Y-59924692D01*
X172653999Y-59858556D01*
X172699054Y-59819515D01*
X172707816Y-59815051D01*
X172751792Y-59783101D01*
X172879786Y-59690109D01*
X172879788Y-59690106D01*
X172879792Y-59690104D01*
X173030104Y-59539792D01*
X173030106Y-59539788D01*
X173030109Y-59539786D01*
X173155048Y-59367820D01*
X173155047Y-59367820D01*
X173155051Y-59367816D01*
X173251557Y-59178412D01*
X173317246Y-58976243D01*
X173350500Y-58766287D01*
X173350500Y-58553713D01*
X173317246Y-58343757D01*
X173251557Y-58141588D01*
X173155051Y-57952184D01*
X173155049Y-57952181D01*
X173155048Y-57952179D01*
X173030109Y-57780213D01*
X172879786Y-57629890D01*
X172707820Y-57504951D01*
X172707115Y-57504591D01*
X172699054Y-57500485D01*
X172648259Y-57452512D01*
X172631463Y-57384692D01*
X172653999Y-57318556D01*
X172699054Y-57279515D01*
X172707816Y-57275051D01*
X172813128Y-57198538D01*
X172879786Y-57150109D01*
X172879788Y-57150106D01*
X172879792Y-57150104D01*
X173030104Y-56999792D01*
X173030106Y-56999788D01*
X173030109Y-56999786D01*
X173155048Y-56827820D01*
X173155047Y-56827820D01*
X173155051Y-56827816D01*
X173251557Y-56638412D01*
X173317246Y-56436243D01*
X173350500Y-56226287D01*
X173350500Y-56013713D01*
X173317246Y-55803757D01*
X173251557Y-55601588D01*
X173155051Y-55412184D01*
X173155049Y-55412181D01*
X173155048Y-55412179D01*
X173030109Y-55240213D01*
X172879786Y-55089890D01*
X172707820Y-54964951D01*
X172707115Y-54964591D01*
X172699054Y-54960485D01*
X172648259Y-54912512D01*
X172631463Y-54844692D01*
X172653999Y-54778556D01*
X172699054Y-54739515D01*
X172707816Y-54735051D01*
X172813128Y-54658538D01*
X172879786Y-54610109D01*
X172879788Y-54610106D01*
X172879792Y-54610104D01*
X173030104Y-54459792D01*
X173030106Y-54459788D01*
X173030109Y-54459786D01*
X173155048Y-54287820D01*
X173155047Y-54287820D01*
X173155051Y-54287816D01*
X173251557Y-54098412D01*
X173317246Y-53896243D01*
X173350500Y-53686287D01*
X173350500Y-53473713D01*
X173317246Y-53263757D01*
X173251557Y-53061588D01*
X173155051Y-52872184D01*
X173155049Y-52872181D01*
X173155048Y-52872179D01*
X173030109Y-52700213D01*
X172879786Y-52549890D01*
X172707820Y-52424951D01*
X172707115Y-52424591D01*
X172699054Y-52420485D01*
X172648259Y-52372512D01*
X172631463Y-52304692D01*
X172653999Y-52238556D01*
X172699054Y-52199515D01*
X172707816Y-52195051D01*
X172813128Y-52118538D01*
X172879786Y-52070109D01*
X172879788Y-52070106D01*
X172879792Y-52070104D01*
X173030104Y-51919792D01*
X173030106Y-51919788D01*
X173030109Y-51919786D01*
X173155048Y-51747820D01*
X173155047Y-51747820D01*
X173155051Y-51747816D01*
X173251557Y-51558412D01*
X173317246Y-51356243D01*
X173350500Y-51146287D01*
X173350500Y-50933713D01*
X173317246Y-50723757D01*
X173251557Y-50521588D01*
X173155051Y-50332184D01*
X173155049Y-50332181D01*
X173155048Y-50332179D01*
X173030109Y-50160213D01*
X172916569Y-50046673D01*
X172883084Y-49985350D01*
X172888068Y-49915658D01*
X172929940Y-49859725D01*
X172960915Y-49842810D01*
X173092331Y-49793796D01*
X173207546Y-49707546D01*
X173293796Y-49592331D01*
X173344091Y-49457483D01*
X173350500Y-49397873D01*
X173350499Y-47602128D01*
X173344091Y-47542517D01*
X173330196Y-47505263D01*
X173293797Y-47407671D01*
X173293793Y-47407664D01*
X173207547Y-47292455D01*
X173207544Y-47292452D01*
X173092335Y-47206206D01*
X173092328Y-47206202D01*
X172957482Y-47155908D01*
X172957483Y-47155908D01*
X172897883Y-47149501D01*
X172897881Y-47149500D01*
X172897873Y-47149500D01*
X172897864Y-47149500D01*
X171102129Y-47149500D01*
X171102123Y-47149501D01*
X171042516Y-47155908D01*
X170907671Y-47206202D01*
X170907664Y-47206206D01*
X170792455Y-47292452D01*
X170792452Y-47292455D01*
X170706206Y-47407664D01*
X170706202Y-47407671D01*
X170655908Y-47542517D01*
X170649501Y-47602116D01*
X170649501Y-47602123D01*
X170649500Y-47602135D01*
X146567216Y-47602135D01*
X146517450Y-47521451D01*
X146516477Y-47519757D01*
X146510714Y-47495774D01*
X146500000Y-47457993D01*
X146500000Y-45624500D01*
X146519685Y-45557461D01*
X146572489Y-45511706D01*
X146624000Y-45500500D01*
X173875500Y-45500500D01*
X173942539Y-45520185D01*
G37*
%TD.AperFunction*%
%TA.AperFunction,Conductor*%
G36*
X145892539Y-62269685D02*
G01*
X145938294Y-62322489D01*
X145949500Y-62374000D01*
X145949500Y-71718845D01*
X145980261Y-71873488D01*
X145980264Y-71873500D01*
X146040602Y-72019171D01*
X146040609Y-72019184D01*
X146128210Y-72150287D01*
X146128213Y-72150291D01*
X152215742Y-78237819D01*
X152249227Y-78299142D01*
X152244243Y-78368834D01*
X152202371Y-78424767D01*
X152136907Y-78449184D01*
X152128061Y-78449500D01*
X151212320Y-78449500D01*
X151145281Y-78429815D01*
X151113052Y-78399809D01*
X151107548Y-78392457D01*
X151107546Y-78392454D01*
X151075994Y-78368834D01*
X150992335Y-78306206D01*
X150992328Y-78306202D01*
X150857482Y-78255908D01*
X150857483Y-78255908D01*
X150797883Y-78249501D01*
X150797881Y-78249500D01*
X150797873Y-78249500D01*
X150797864Y-78249500D01*
X149702129Y-78249500D01*
X149702123Y-78249501D01*
X149642516Y-78255908D01*
X149507671Y-78306202D01*
X149507664Y-78306206D01*
X149392455Y-78392452D01*
X149392452Y-78392455D01*
X149306206Y-78507664D01*
X149306202Y-78507671D01*
X149255908Y-78642517D01*
X149249501Y-78702116D01*
X149249500Y-78702135D01*
X149249500Y-79797870D01*
X149249501Y-79797876D01*
X149255908Y-79857483D01*
X149306202Y-79992328D01*
X149306206Y-79992335D01*
X149392452Y-80107544D01*
X149392455Y-80107547D01*
X149507664Y-80193793D01*
X149507671Y-80193797D01*
X149642517Y-80244091D01*
X149642516Y-80244091D01*
X149648107Y-80244692D01*
X149702127Y-80250500D01*
X150797872Y-80250499D01*
X150857483Y-80244091D01*
X150992331Y-80193796D01*
X151107546Y-80107546D01*
X151113052Y-80100191D01*
X151168985Y-80058319D01*
X151212320Y-80050500D01*
X151692270Y-80050500D01*
X151759309Y-80070185D01*
X151805064Y-80122989D01*
X151815008Y-80192147D01*
X151813887Y-80198692D01*
X151794500Y-80296154D01*
X151794500Y-80296157D01*
X151794500Y-80453841D01*
X151794500Y-80453843D01*
X151794499Y-80453843D01*
X151817118Y-80567547D01*
X151819501Y-80591739D01*
X151819501Y-80801384D01*
X151849301Y-80951197D01*
X151849303Y-80951205D01*
X151907760Y-81092332D01*
X151907765Y-81092342D01*
X151992630Y-81219351D01*
X151992633Y-81219355D01*
X152100644Y-81327366D01*
X152100648Y-81327369D01*
X152227657Y-81412234D01*
X152227661Y-81412236D01*
X152227664Y-81412238D01*
X152368795Y-81470697D01*
X152516192Y-81500016D01*
X152518615Y-81500498D01*
X152518619Y-81500499D01*
X152518620Y-81500499D01*
X152671377Y-81500499D01*
X152671380Y-81500499D01*
X152671382Y-81500498D01*
X152676278Y-81500016D01*
X152744925Y-81513030D01*
X152795638Y-81561092D01*
X152812317Y-81628941D01*
X152806146Y-81662422D01*
X152784651Y-81727289D01*
X152774500Y-81826646D01*
X152774500Y-82373336D01*
X152774501Y-82373354D01*
X152784650Y-82472706D01*
X152784651Y-82472709D01*
X152837996Y-82633693D01*
X152838001Y-82633704D01*
X152927029Y-82778039D01*
X152927032Y-82778043D01*
X152936307Y-82787318D01*
X152969792Y-82848641D01*
X152964808Y-82918333D01*
X152936307Y-82962680D01*
X152927032Y-82971954D01*
X152927029Y-82971958D01*
X152838001Y-83116293D01*
X152837996Y-83116304D01*
X152784651Y-83277289D01*
X152774500Y-83376646D01*
X152774500Y-83923336D01*
X152774501Y-83923354D01*
X152784650Y-84022706D01*
X152784651Y-84022709D01*
X152837996Y-84183693D01*
X152838001Y-84183704D01*
X152930823Y-84334190D01*
X152928071Y-84335886D01*
X152948887Y-84387243D01*
X152949500Y-84399558D01*
X152949500Y-85375499D01*
X152946949Y-85384184D01*
X152948238Y-85393146D01*
X152937259Y-85417186D01*
X152929815Y-85442538D01*
X152922974Y-85448465D01*
X152919213Y-85456702D01*
X152896978Y-85470991D01*
X152877011Y-85488293D01*
X152866496Y-85490580D01*
X152860435Y-85494476D01*
X152825500Y-85499499D01*
X152670268Y-85499499D01*
X152606119Y-85481616D01*
X152564608Y-85456522D01*
X152564607Y-85456521D01*
X152564606Y-85456521D01*
X152402196Y-85405913D01*
X152402194Y-85405912D01*
X152402192Y-85405912D01*
X152352778Y-85401422D01*
X152331616Y-85399499D01*
X151668384Y-85399499D01*
X151649145Y-85401247D01*
X151597807Y-85405912D01*
X151435393Y-85456521D01*
X151289811Y-85544529D01*
X151169530Y-85664810D01*
X151081522Y-85810392D01*
X151030913Y-85972806D01*
X151024500Y-86043385D01*
X151024500Y-86556612D01*
X151030913Y-86627191D01*
X151030913Y-86627193D01*
X151030914Y-86627195D01*
X151081522Y-86789605D01*
X151160256Y-86919847D01*
X151169530Y-86935187D01*
X151289811Y-87055468D01*
X151289813Y-87055469D01*
X151289815Y-87055471D01*
X151435394Y-87143477D01*
X151597804Y-87194085D01*
X151668384Y-87200499D01*
X151668387Y-87200499D01*
X152331613Y-87200499D01*
X152331616Y-87200499D01*
X152402196Y-87194085D01*
X152564606Y-87143477D01*
X152588422Y-87129079D01*
X152606119Y-87118382D01*
X152622372Y-87113850D01*
X152635333Y-87105522D01*
X152670268Y-87100499D01*
X152779772Y-87100499D01*
X152846811Y-87120184D01*
X152892566Y-87172988D01*
X152902510Y-87242146D01*
X152885310Y-87289597D01*
X152837999Y-87366297D01*
X152837996Y-87366304D01*
X152784651Y-87527289D01*
X152774500Y-87626646D01*
X152774500Y-88173336D01*
X152774501Y-88173354D01*
X152784650Y-88272706D01*
X152784651Y-88272709D01*
X152837996Y-88433693D01*
X152838001Y-88433704D01*
X152927029Y-88578039D01*
X152927032Y-88578043D01*
X152938180Y-88589191D01*
X152971665Y-88650514D01*
X152974499Y-88676872D01*
X152974499Y-89086796D01*
X152966682Y-89130126D01*
X152965008Y-89134614D01*
X152965007Y-89134615D01*
X152958600Y-89194215D01*
X152958599Y-89194234D01*
X152958599Y-90712369D01*
X152958600Y-90712375D01*
X152965007Y-90771982D01*
X153015301Y-90906827D01*
X153015305Y-90906834D01*
X153101551Y-91022043D01*
X153101554Y-91022046D01*
X153216763Y-91108292D01*
X153216770Y-91108296D01*
X153232868Y-91114300D01*
X153351616Y-91158590D01*
X153411226Y-91164999D01*
X153938771Y-91164998D01*
X153986753Y-91159840D01*
X154013253Y-91159840D01*
X154061228Y-91164999D01*
X154588773Y-91164998D01*
X154588775Y-91164997D01*
X154588788Y-91164997D01*
X154618626Y-91161788D01*
X154636746Y-91159841D01*
X154663252Y-91159841D01*
X154711226Y-91164999D01*
X155238771Y-91164998D01*
X155298382Y-91158590D01*
X155433230Y-91108295D01*
X155548445Y-91022045D01*
X155634695Y-90906830D01*
X155636970Y-90900730D01*
X155661685Y-90834467D01*
X155703556Y-90778533D01*
X155769020Y-90754115D01*
X155777867Y-90753799D01*
X158070359Y-90753799D01*
X158137398Y-90773484D01*
X158158040Y-90790118D01*
X160163181Y-92795259D01*
X160196666Y-92856582D01*
X160199500Y-92882940D01*
X160199500Y-97367059D01*
X160179815Y-97434098D01*
X160163181Y-97454740D01*
X158654739Y-98963181D01*
X158593416Y-98996666D01*
X158567058Y-98999500D01*
X158202130Y-98999500D01*
X158202123Y-98999501D01*
X158142516Y-99005908D01*
X158007671Y-99056202D01*
X158007664Y-99056206D01*
X157892455Y-99142452D01*
X157892452Y-99142455D01*
X157806206Y-99257664D01*
X157806202Y-99257671D01*
X157755908Y-99392517D01*
X157749501Y-99452116D01*
X157749500Y-99452135D01*
X157749500Y-99817059D01*
X157729815Y-99884098D01*
X157713181Y-99904740D01*
X157254742Y-100363180D01*
X157193419Y-100396665D01*
X157167061Y-100399499D01*
X155701069Y-100399499D01*
X155634030Y-100379814D01*
X155588275Y-100327010D01*
X155578331Y-100257852D01*
X155595530Y-100210402D01*
X155612003Y-100183696D01*
X155665349Y-100022707D01*
X155675500Y-99923344D01*
X155675499Y-99326655D01*
X155672100Y-99293385D01*
X155665349Y-99227291D01*
X155665348Y-99227288D01*
X155637236Y-99142452D01*
X155612003Y-99066302D01*
X155611999Y-99066296D01*
X155611998Y-99066293D01*
X155522970Y-98921958D01*
X155522967Y-98921954D01*
X155403044Y-98802031D01*
X155403040Y-98802028D01*
X155258705Y-98713000D01*
X155258699Y-98712997D01*
X155258697Y-98712996D01*
X155220983Y-98700499D01*
X155097709Y-98659650D01*
X154998346Y-98649499D01*
X154451662Y-98649499D01*
X154451644Y-98649500D01*
X154352292Y-98659649D01*
X154352289Y-98659650D01*
X154191305Y-98712995D01*
X154191294Y-98713000D01*
X154040809Y-98805822D01*
X154039131Y-98803102D01*
X154030331Y-98806651D01*
X154010375Y-98819476D01*
X153991958Y-98822123D01*
X153987534Y-98823908D01*
X153975440Y-98824499D01*
X153924500Y-98824499D01*
X153857461Y-98804814D01*
X153811706Y-98752010D01*
X153800500Y-98700499D01*
X153800500Y-98666230D01*
X153820185Y-98599191D01*
X153826888Y-98589758D01*
X153830463Y-98585192D01*
X153830472Y-98585184D01*
X153918478Y-98439605D01*
X153969086Y-98277195D01*
X153975500Y-98206615D01*
X153975500Y-97693383D01*
X153969086Y-97622803D01*
X153918478Y-97460393D01*
X153866006Y-97373595D01*
X153848171Y-97306041D01*
X153869689Y-97239567D01*
X153923729Y-97195280D01*
X153993135Y-97187239D01*
X154036275Y-97203330D01*
X154039812Y-97205468D01*
X154039815Y-97205471D01*
X154185394Y-97293477D01*
X154347804Y-97344085D01*
X154418384Y-97350499D01*
X154418387Y-97350499D01*
X154931613Y-97350499D01*
X154931616Y-97350499D01*
X155002196Y-97344085D01*
X155164606Y-97293477D01*
X155310185Y-97205471D01*
X155358427Y-97157229D01*
X155412319Y-97103338D01*
X155473642Y-97069853D01*
X155543334Y-97074837D01*
X155587681Y-97103338D01*
X155689811Y-97205468D01*
X155689813Y-97205469D01*
X155689815Y-97205471D01*
X155835394Y-97293477D01*
X155997804Y-97344085D01*
X156068384Y-97350499D01*
X156068387Y-97350499D01*
X156581613Y-97350499D01*
X156581616Y-97350499D01*
X156652196Y-97344085D01*
X156814606Y-97293477D01*
X156960185Y-97205471D01*
X157080472Y-97085184D01*
X157168478Y-96939605D01*
X157219086Y-96777195D01*
X157225500Y-96706615D01*
X157225500Y-96043383D01*
X157219086Y-95972803D01*
X157168478Y-95810393D01*
X157126232Y-95740511D01*
X157108397Y-95672957D01*
X157129915Y-95606484D01*
X157183955Y-95562196D01*
X157193332Y-95558661D01*
X157258697Y-95537002D01*
X157403044Y-95447967D01*
X157522968Y-95328043D01*
X157612003Y-95183696D01*
X157665349Y-95022707D01*
X157675500Y-94923344D01*
X157675499Y-94326655D01*
X157675461Y-94326287D01*
X157665349Y-94227291D01*
X157665348Y-94227288D01*
X157656252Y-94199838D01*
X157612003Y-94066302D01*
X157543960Y-93955988D01*
X157525500Y-93890892D01*
X157525500Y-93609103D01*
X157543961Y-93544008D01*
X157612003Y-93433696D01*
X157665349Y-93272707D01*
X157675500Y-93173344D01*
X157675499Y-92576655D01*
X157673776Y-92559792D01*
X157665349Y-92477291D01*
X157665348Y-92477288D01*
X157659681Y-92460185D01*
X157612003Y-92316302D01*
X157611999Y-92316296D01*
X157611998Y-92316293D01*
X157522970Y-92171958D01*
X157522967Y-92171954D01*
X157403044Y-92052031D01*
X157403040Y-92052028D01*
X157258705Y-91963000D01*
X157258699Y-91962997D01*
X157258697Y-91962996D01*
X157247075Y-91959145D01*
X157097709Y-91909650D01*
X156998346Y-91899499D01*
X156451662Y-91899499D01*
X156451644Y-91899500D01*
X156352292Y-91909649D01*
X156352289Y-91909650D01*
X156191305Y-91962995D01*
X156191294Y-91963000D01*
X156046959Y-92052028D01*
X156046955Y-92052031D01*
X155927032Y-92171954D01*
X155927029Y-92171958D01*
X155838001Y-92316293D01*
X155837996Y-92316304D01*
X155784651Y-92477289D01*
X155774500Y-92576646D01*
X155774500Y-93157368D01*
X155754815Y-93224407D01*
X155702011Y-93270162D01*
X155632853Y-93280106D01*
X155569297Y-93251081D01*
X155551236Y-93231681D01*
X155548445Y-93227953D01*
X155548443Y-93227951D01*
X155548442Y-93227950D01*
X155433234Y-93141705D01*
X155433227Y-93141701D01*
X155298385Y-93091409D01*
X155298384Y-93091408D01*
X155298382Y-93091408D01*
X155238772Y-93084999D01*
X155238762Y-93084999D01*
X154711228Y-93084999D01*
X154711224Y-93085000D01*
X154678952Y-93088469D01*
X154663252Y-93090157D01*
X154645938Y-93090800D01*
X154641321Y-93090648D01*
X154588774Y-93084999D01*
X154468977Y-93084999D01*
X154466933Y-93084932D01*
X154435602Y-93074606D01*
X154403957Y-93065314D01*
X154402577Y-93063721D01*
X154400575Y-93063062D01*
X154379790Y-93037424D01*
X154358202Y-93012510D01*
X154357281Y-93009659D01*
X154356574Y-93008787D01*
X154356352Y-93006784D01*
X154349379Y-92985191D01*
X154348580Y-92981176D01*
X154348579Y-92981175D01*
X154348579Y-92981171D01*
X154337868Y-92955312D01*
X154331158Y-92939113D01*
X154331138Y-92939066D01*
X154295777Y-92853694D01*
X154295775Y-92853691D01*
X154295774Y-92853688D01*
X154219113Y-92738956D01*
X154219111Y-92738953D01*
X152686045Y-91205887D01*
X152571307Y-91129222D01*
X152443832Y-91076421D01*
X152443822Y-91076418D01*
X152308496Y-91049500D01*
X152308494Y-91049500D01*
X152308493Y-91049500D01*
X149374500Y-91049500D01*
X149307461Y-91029815D01*
X149261706Y-90977011D01*
X149250500Y-90925500D01*
X149250499Y-89952129D01*
X149250498Y-89952123D01*
X149250497Y-89952116D01*
X149244091Y-89892517D01*
X149193796Y-89757669D01*
X149193795Y-89757668D01*
X149193793Y-89757664D01*
X149107547Y-89642455D01*
X149107544Y-89642452D01*
X148992335Y-89556206D01*
X148992328Y-89556202D01*
X148857482Y-89505908D01*
X148857483Y-89505908D01*
X148797883Y-89499501D01*
X148797881Y-89499500D01*
X148797873Y-89499500D01*
X148797864Y-89499500D01*
X147702129Y-89499500D01*
X147702123Y-89499501D01*
X147642516Y-89505908D01*
X147507671Y-89556202D01*
X147507664Y-89556206D01*
X147392455Y-89642452D01*
X147392452Y-89642455D01*
X147306206Y-89757664D01*
X147306202Y-89757671D01*
X147255908Y-89892517D01*
X147249501Y-89952116D01*
X147249501Y-89952123D01*
X147249500Y-89952135D01*
X147249500Y-90909480D01*
X147229815Y-90976519D01*
X147177011Y-91022274D01*
X147107853Y-91032218D01*
X147044297Y-91003193D01*
X147037819Y-90997161D01*
X146960188Y-90919530D01*
X146958593Y-90918566D01*
X146814606Y-90831522D01*
X146652196Y-90780914D01*
X146652194Y-90780913D01*
X146652192Y-90780913D01*
X146602778Y-90776423D01*
X146581616Y-90774500D01*
X146068384Y-90774500D01*
X146049145Y-90776248D01*
X145997807Y-90780913D01*
X145835393Y-90831522D01*
X145720910Y-90900730D01*
X145653355Y-90918566D01*
X145586881Y-90897048D01*
X145542594Y-90843008D01*
X145534553Y-90773602D01*
X145565312Y-90710867D01*
X145569061Y-90706950D01*
X145572968Y-90703044D01*
X145662003Y-90558697D01*
X145715349Y-90397708D01*
X145725500Y-90298345D01*
X145725499Y-89751656D01*
X145715349Y-89652292D01*
X145662003Y-89491303D01*
X145661999Y-89491297D01*
X145661998Y-89491294D01*
X145572970Y-89346959D01*
X145572967Y-89346955D01*
X145453044Y-89227032D01*
X145453040Y-89227029D01*
X145308705Y-89138001D01*
X145308699Y-89137998D01*
X145308697Y-89137997D01*
X145243464Y-89116381D01*
X145147709Y-89084651D01*
X145048346Y-89074500D01*
X144451662Y-89074500D01*
X144451644Y-89074501D01*
X144352292Y-89084650D01*
X144352289Y-89084651D01*
X144191305Y-89137996D01*
X144191298Y-89137999D01*
X144117431Y-89183562D01*
X144080991Y-89206038D01*
X144015895Y-89224500D01*
X140807940Y-89224500D01*
X140740901Y-89204815D01*
X140720259Y-89188181D01*
X138379843Y-86847765D01*
X138346358Y-86786442D01*
X138345051Y-86740687D01*
X138350500Y-86706287D01*
X138350500Y-86493713D01*
X138317246Y-86283757D01*
X138251557Y-86081588D01*
X138155051Y-85892184D01*
X138155049Y-85892181D01*
X138155048Y-85892179D01*
X138030109Y-85720213D01*
X137879786Y-85569890D01*
X137707820Y-85444951D01*
X137703084Y-85442538D01*
X137699054Y-85440485D01*
X137648259Y-85392512D01*
X137631463Y-85324692D01*
X137653999Y-85258556D01*
X137699054Y-85219515D01*
X137707816Y-85215051D01*
X137770471Y-85169530D01*
X137879786Y-85090109D01*
X137879788Y-85090106D01*
X137879792Y-85090104D01*
X138030104Y-84939792D01*
X138030106Y-84939788D01*
X138030109Y-84939786D01*
X138155048Y-84767820D01*
X138155047Y-84767820D01*
X138155051Y-84767816D01*
X138251557Y-84578412D01*
X138317246Y-84376243D01*
X138350500Y-84166287D01*
X138350500Y-83953713D01*
X138317246Y-83743757D01*
X138251557Y-83541588D01*
X138155051Y-83352184D01*
X138155049Y-83352181D01*
X138155048Y-83352179D01*
X138030109Y-83180213D01*
X137879786Y-83029890D01*
X137707820Y-82904951D01*
X137699082Y-82900499D01*
X137699054Y-82900485D01*
X137648259Y-82852512D01*
X137631463Y-82784692D01*
X137653999Y-82718556D01*
X137699054Y-82679515D01*
X137707816Y-82675051D01*
X137764741Y-82633693D01*
X137879786Y-82550109D01*
X137879788Y-82550106D01*
X137879792Y-82550104D01*
X138030104Y-82399792D01*
X138030106Y-82399788D01*
X138030109Y-82399786D01*
X138155048Y-82227820D01*
X138155047Y-82227820D01*
X138155051Y-82227816D01*
X138251557Y-82038412D01*
X138317246Y-81836243D01*
X138350500Y-81626287D01*
X138350500Y-81413713D01*
X138317246Y-81203757D01*
X138251557Y-81001588D01*
X138155051Y-80812184D01*
X138155049Y-80812181D01*
X138155048Y-80812179D01*
X138030109Y-80640213D01*
X137879786Y-80489890D01*
X137707820Y-80364951D01*
X137707115Y-80364591D01*
X137699054Y-80360485D01*
X137648259Y-80312512D01*
X137631463Y-80244692D01*
X137653999Y-80178556D01*
X137699054Y-80139515D01*
X137707816Y-80135051D01*
X137797097Y-80070185D01*
X137879786Y-80010109D01*
X137879788Y-80010106D01*
X137879792Y-80010104D01*
X138030104Y-79859792D01*
X138030106Y-79859788D01*
X138030109Y-79859786D01*
X138155048Y-79687820D01*
X138155047Y-79687820D01*
X138155051Y-79687816D01*
X138251557Y-79498412D01*
X138317246Y-79296243D01*
X138350500Y-79086287D01*
X138350500Y-78873713D01*
X138317246Y-78663757D01*
X138251557Y-78461588D01*
X138155051Y-78272184D01*
X138155049Y-78272181D01*
X138155048Y-78272179D01*
X138030109Y-78100213D01*
X137879786Y-77949890D01*
X137707820Y-77824951D01*
X137707115Y-77824591D01*
X137699054Y-77820485D01*
X137648259Y-77772512D01*
X137631463Y-77704692D01*
X137653999Y-77638556D01*
X137699054Y-77599515D01*
X137707816Y-77595051D01*
X137729789Y-77579086D01*
X137879786Y-77470109D01*
X137879788Y-77470106D01*
X137879792Y-77470104D01*
X138030104Y-77319792D01*
X138030106Y-77319788D01*
X138030109Y-77319786D01*
X138155048Y-77147820D01*
X138155047Y-77147820D01*
X138155051Y-77147816D01*
X138251557Y-76958412D01*
X138317246Y-76756243D01*
X138350500Y-76546287D01*
X138350500Y-76333713D01*
X138317246Y-76123757D01*
X138251557Y-75921588D01*
X138155051Y-75732184D01*
X138155049Y-75732181D01*
X138155048Y-75732179D01*
X138030109Y-75560213D01*
X137879786Y-75409890D01*
X137707820Y-75284951D01*
X137707115Y-75284591D01*
X137699054Y-75280485D01*
X137648259Y-75232512D01*
X137631463Y-75164692D01*
X137653999Y-75098556D01*
X137699054Y-75059515D01*
X137707816Y-75055051D01*
X137729789Y-75039086D01*
X137879786Y-74930109D01*
X137879788Y-74930106D01*
X137879792Y-74930104D01*
X138030104Y-74779792D01*
X138030106Y-74779788D01*
X138030109Y-74779786D01*
X138155048Y-74607820D01*
X138155047Y-74607820D01*
X138155051Y-74607816D01*
X138251557Y-74418412D01*
X138317246Y-74216243D01*
X138350500Y-74006287D01*
X138350500Y-73793713D01*
X138317246Y-73583757D01*
X138251557Y-73381588D01*
X138155051Y-73192184D01*
X138155049Y-73192181D01*
X138155048Y-73192179D01*
X138030109Y-73020213D01*
X137879786Y-72869890D01*
X137707820Y-72744951D01*
X137705443Y-72743740D01*
X137699054Y-72740485D01*
X137648259Y-72692512D01*
X137631463Y-72624692D01*
X137653999Y-72558556D01*
X137699054Y-72519515D01*
X137707816Y-72515051D01*
X137770190Y-72469734D01*
X137879786Y-72390109D01*
X137879788Y-72390106D01*
X137879792Y-72390104D01*
X138030104Y-72239792D01*
X138030106Y-72239788D01*
X138030109Y-72239786D01*
X138155048Y-72067820D01*
X138155047Y-72067820D01*
X138155051Y-72067816D01*
X138251557Y-71878412D01*
X138317246Y-71676243D01*
X138350500Y-71466287D01*
X138350500Y-71253713D01*
X138317246Y-71043757D01*
X138251557Y-70841588D01*
X138155051Y-70652184D01*
X138155049Y-70652181D01*
X138155048Y-70652179D01*
X138030109Y-70480213D01*
X137879786Y-70329890D01*
X137707820Y-70204951D01*
X137707115Y-70204591D01*
X137699054Y-70200485D01*
X137648259Y-70152512D01*
X137631463Y-70084692D01*
X137653999Y-70018556D01*
X137699054Y-69979515D01*
X137707816Y-69975051D01*
X137729789Y-69959086D01*
X137879786Y-69850109D01*
X137879788Y-69850106D01*
X137879792Y-69850104D01*
X138030104Y-69699792D01*
X138030106Y-69699788D01*
X138030109Y-69699786D01*
X138155048Y-69527820D01*
X138155047Y-69527820D01*
X138155051Y-69527816D01*
X138251557Y-69338412D01*
X138317246Y-69136243D01*
X138350500Y-68926287D01*
X138350500Y-68713713D01*
X138317246Y-68503757D01*
X138251557Y-68301588D01*
X138155051Y-68112184D01*
X138155049Y-68112181D01*
X138155048Y-68112179D01*
X138030109Y-67940213D01*
X137879786Y-67789890D01*
X137707820Y-67664951D01*
X137707115Y-67664591D01*
X137699054Y-67660485D01*
X137648259Y-67612512D01*
X137631463Y-67544692D01*
X137653999Y-67478556D01*
X137699054Y-67439515D01*
X137707816Y-67435051D01*
X137729897Y-67419008D01*
X137879786Y-67310109D01*
X137879788Y-67310106D01*
X137879792Y-67310104D01*
X138030104Y-67159792D01*
X138030106Y-67159788D01*
X138030109Y-67159786D01*
X138155048Y-66987820D01*
X138155047Y-66987820D01*
X138155051Y-66987816D01*
X138251557Y-66798412D01*
X138317246Y-66596243D01*
X138350500Y-66386287D01*
X138350500Y-66173713D01*
X138317246Y-65963757D01*
X138251557Y-65761588D01*
X138155051Y-65572184D01*
X138155049Y-65572181D01*
X138155048Y-65572179D01*
X138030109Y-65400213D01*
X137879786Y-65249890D01*
X137707820Y-65124951D01*
X137707115Y-65124591D01*
X137699054Y-65120485D01*
X137648259Y-65072512D01*
X137631463Y-65004692D01*
X137653999Y-64938556D01*
X137699054Y-64899515D01*
X137707816Y-64895051D01*
X137733275Y-64876554D01*
X137879786Y-64770109D01*
X137879788Y-64770106D01*
X137879792Y-64770104D01*
X138030104Y-64619792D01*
X138030106Y-64619788D01*
X138030109Y-64619786D01*
X138155048Y-64447820D01*
X138155047Y-64447820D01*
X138155051Y-64447816D01*
X138251557Y-64258412D01*
X138317246Y-64056243D01*
X138350500Y-63846287D01*
X138350500Y-63633713D01*
X138317246Y-63423757D01*
X138251557Y-63221588D01*
X138155051Y-63032184D01*
X138155049Y-63032181D01*
X138155048Y-63032179D01*
X138030109Y-62860213D01*
X137879786Y-62709890D01*
X137707820Y-62584951D01*
X137707115Y-62584591D01*
X137699054Y-62580485D01*
X137696207Y-62577795D01*
X137692409Y-62576839D01*
X137671011Y-62553999D01*
X137648259Y-62532512D01*
X137647317Y-62528709D01*
X137644639Y-62525851D01*
X137638986Y-62495070D01*
X137631463Y-62464692D01*
X137632726Y-62460983D01*
X137632019Y-62457130D01*
X137643904Y-62428181D01*
X137653999Y-62398556D01*
X137657497Y-62395071D01*
X137658555Y-62392496D01*
X137666934Y-62385672D01*
X137684311Y-62368365D01*
X137691372Y-62363429D01*
X137707816Y-62355051D01*
X137820745Y-62273003D01*
X137821659Y-62272365D01*
X137853758Y-62261569D01*
X137885618Y-62250202D01*
X137887739Y-62250141D01*
X137887884Y-62250093D01*
X137888042Y-62250132D01*
X137892697Y-62250000D01*
X145825500Y-62250000D01*
X145892539Y-62269685D01*
G37*
%TD.AperFunction*%
%TA.AperFunction,Conductor*%
G36*
X148884098Y-72020184D02*
G01*
X148904740Y-72036818D01*
X149189706Y-72321785D01*
X149189710Y-72321788D01*
X149320813Y-72409389D01*
X149320826Y-72409396D01*
X149466497Y-72469734D01*
X149466502Y-72469736D01*
X149621152Y-72500498D01*
X149621155Y-72500499D01*
X149621157Y-72500499D01*
X149778841Y-72500499D01*
X152079732Y-72500499D01*
X152143881Y-72518382D01*
X152175394Y-72537432D01*
X152185394Y-72543477D01*
X152347804Y-72594085D01*
X152418384Y-72600499D01*
X152467060Y-72600499D01*
X152496500Y-72609143D01*
X152526487Y-72615667D01*
X152531502Y-72619421D01*
X152534099Y-72620184D01*
X152554740Y-72636817D01*
X152677755Y-72759832D01*
X152711240Y-72821155D01*
X152708460Y-72884402D01*
X152680914Y-72972804D01*
X152674500Y-73043385D01*
X152674500Y-73706612D01*
X152680913Y-73777191D01*
X152731522Y-73939605D01*
X152819530Y-74085187D01*
X152939811Y-74205468D01*
X152939813Y-74205469D01*
X152939815Y-74205471D01*
X153004650Y-74244665D01*
X153051838Y-74296193D01*
X153064500Y-74350782D01*
X153064500Y-75203841D01*
X153064500Y-75203843D01*
X153064499Y-75203843D01*
X153087118Y-75317547D01*
X153089501Y-75341739D01*
X153089501Y-75551384D01*
X153119301Y-75701197D01*
X153119303Y-75701205D01*
X153177760Y-75842332D01*
X153177765Y-75842342D01*
X153262630Y-75969351D01*
X153262633Y-75969355D01*
X153370644Y-76077366D01*
X153370648Y-76077369D01*
X153497657Y-76162234D01*
X153497661Y-76162236D01*
X153497664Y-76162238D01*
X153638795Y-76220697D01*
X153788615Y-76250498D01*
X153788619Y-76250499D01*
X153788620Y-76250499D01*
X153941381Y-76250499D01*
X153941382Y-76250498D01*
X154091205Y-76220697D01*
X154232336Y-76162238D01*
X154359352Y-76077369D01*
X154359355Y-76077366D01*
X154412319Y-76024403D01*
X154473642Y-75990918D01*
X154543334Y-75995902D01*
X154587681Y-76024403D01*
X154640644Y-76077366D01*
X154640648Y-76077369D01*
X154767657Y-76162234D01*
X154767661Y-76162236D01*
X154767664Y-76162238D01*
X154908795Y-76220697D01*
X155058615Y-76250498D01*
X155058619Y-76250499D01*
X155058620Y-76250499D01*
X155211381Y-76250499D01*
X155211382Y-76250498D01*
X155361205Y-76220697D01*
X155466945Y-76176897D01*
X155536411Y-76169429D01*
X155598890Y-76200703D01*
X155632810Y-76257871D01*
X155633494Y-76257664D01*
X155634338Y-76260446D01*
X155634543Y-76260792D01*
X155634840Y-76262103D01*
X155635264Y-76263500D01*
X155695602Y-76409171D01*
X155695606Y-76409178D01*
X155735302Y-76468587D01*
X155756180Y-76535264D01*
X155756200Y-76537478D01*
X155756200Y-78712519D01*
X155736515Y-78779558D01*
X155735303Y-78781409D01*
X155695608Y-78840816D01*
X155695602Y-78840827D01*
X155635264Y-78986497D01*
X155635262Y-78986506D01*
X155613047Y-79098182D01*
X155580661Y-79160092D01*
X155519945Y-79194666D01*
X155450176Y-79190925D01*
X155403749Y-79161670D01*
X148454259Y-72212180D01*
X148420774Y-72150857D01*
X148425758Y-72081165D01*
X148467630Y-72025232D01*
X148533094Y-72000815D01*
X148541918Y-72000499D01*
X148817059Y-72000499D01*
X148884098Y-72020184D01*
G37*
%TD.AperFunction*%
%TA.AperFunction,Conductor*%
G36*
X147868834Y-62365758D02*
G01*
X147924767Y-62407630D01*
X147949184Y-62473094D01*
X147949500Y-62481940D01*
X147949500Y-65453845D01*
X147980261Y-65608488D01*
X147980264Y-65608500D01*
X148040602Y-65754171D01*
X148040609Y-65754184D01*
X148128210Y-65885287D01*
X148128213Y-65885291D01*
X149303211Y-67060288D01*
X149402709Y-67159786D01*
X149414712Y-67171789D01*
X149545814Y-67259389D01*
X149545827Y-67259396D01*
X149673321Y-67312205D01*
X149691503Y-67319736D01*
X149846153Y-67350498D01*
X149846156Y-67350499D01*
X149846158Y-67350499D01*
X150834480Y-67350499D01*
X150901519Y-67370184D01*
X150947274Y-67422988D01*
X150957218Y-67492146D01*
X150928193Y-67555702D01*
X150922161Y-67562180D01*
X150919531Y-67564809D01*
X150919530Y-67564810D01*
X150831522Y-67710392D01*
X150780913Y-67872806D01*
X150774500Y-67943385D01*
X150774500Y-68456612D01*
X150780913Y-68527191D01*
X150831522Y-68689605D01*
X150919530Y-68835187D01*
X151039811Y-68955468D01*
X151039813Y-68955469D01*
X151039815Y-68955471D01*
X151185394Y-69043477D01*
X151347804Y-69094085D01*
X151418384Y-69100499D01*
X151418387Y-69100499D01*
X151934480Y-69100499D01*
X152001519Y-69120184D01*
X152047274Y-69172988D01*
X152057218Y-69242146D01*
X152028193Y-69305702D01*
X152022161Y-69312180D01*
X151919531Y-69414809D01*
X151919530Y-69414810D01*
X151831522Y-69560392D01*
X151780913Y-69722806D01*
X151774500Y-69793385D01*
X151774500Y-70306612D01*
X151780913Y-70377191D01*
X151780913Y-70377193D01*
X151780914Y-70377195D01*
X151804260Y-70452116D01*
X151831522Y-70539605D01*
X151919530Y-70685187D01*
X151922161Y-70687818D01*
X151923471Y-70690217D01*
X151924157Y-70691093D01*
X151924011Y-70691206D01*
X151955646Y-70749141D01*
X151950662Y-70818833D01*
X151908790Y-70874766D01*
X151843326Y-70899183D01*
X151834480Y-70899499D01*
X150124499Y-70899499D01*
X150057460Y-70879814D01*
X150011705Y-70827010D01*
X150000499Y-70775499D01*
X150000499Y-70452129D01*
X150000498Y-70452123D01*
X150000497Y-70452116D01*
X149994091Y-70392517D01*
X149988376Y-70377195D01*
X149943797Y-70257671D01*
X149943793Y-70257664D01*
X149857547Y-70142455D01*
X149857544Y-70142452D01*
X149742335Y-70056206D01*
X149742328Y-70056202D01*
X149607482Y-70005908D01*
X149607483Y-70005908D01*
X149547883Y-69999501D01*
X149547881Y-69999500D01*
X149547873Y-69999500D01*
X149547864Y-69999500D01*
X148452129Y-69999500D01*
X148452123Y-69999501D01*
X148392516Y-70005908D01*
X148257671Y-70056202D01*
X148257664Y-70056206D01*
X148142455Y-70142452D01*
X148142452Y-70142455D01*
X148056206Y-70257664D01*
X148056202Y-70257671D01*
X148005908Y-70392517D01*
X147999501Y-70452116D01*
X147999501Y-70452123D01*
X147999500Y-70452135D01*
X147999500Y-71458059D01*
X147979815Y-71525098D01*
X147927011Y-71570853D01*
X147857853Y-71580797D01*
X147794297Y-71551772D01*
X147787819Y-71545740D01*
X147586819Y-71344740D01*
X147553334Y-71283417D01*
X147550500Y-71257059D01*
X147550500Y-62632940D01*
X147559144Y-62603499D01*
X147565668Y-62573513D01*
X147569422Y-62568497D01*
X147570185Y-62565901D01*
X147586819Y-62545259D01*
X147737819Y-62394259D01*
X147799142Y-62360774D01*
X147868834Y-62365758D01*
G37*
%TD.AperFunction*%
%TA.AperFunction,Conductor*%
G36*
X157111444Y-64278998D02*
G01*
X157150486Y-64324055D01*
X157154951Y-64332819D01*
X157279890Y-64504785D01*
X157430213Y-64655108D01*
X157602179Y-64780047D01*
X157602181Y-64780048D01*
X157602184Y-64780050D01*
X157791588Y-64876556D01*
X157993757Y-64942245D01*
X158203713Y-64975499D01*
X158203714Y-64975499D01*
X158416286Y-64975499D01*
X158416287Y-64975499D01*
X158626243Y-64942245D01*
X158828412Y-64876556D01*
X159017816Y-64780050D01*
X159104138Y-64717334D01*
X159189786Y-64655108D01*
X159189788Y-64655105D01*
X159189792Y-64655103D01*
X159237819Y-64607076D01*
X159299142Y-64573591D01*
X159368834Y-64578575D01*
X159424767Y-64620447D01*
X159449184Y-64685911D01*
X159449500Y-64694757D01*
X159449500Y-64992059D01*
X159429815Y-65059098D01*
X159413181Y-65079740D01*
X158779741Y-65713180D01*
X158718418Y-65746665D01*
X158692060Y-65749499D01*
X157920268Y-65749499D01*
X157856119Y-65731616D01*
X157814608Y-65706522D01*
X157814607Y-65706521D01*
X157814606Y-65706521D01*
X157652196Y-65655913D01*
X157652194Y-65655912D01*
X157652192Y-65655912D01*
X157602778Y-65651422D01*
X157581616Y-65649499D01*
X156918384Y-65649499D01*
X156899145Y-65651247D01*
X156847807Y-65655912D01*
X156685393Y-65706521D01*
X156539811Y-65794529D01*
X156419530Y-65914810D01*
X156331522Y-66060392D01*
X156280913Y-66222806D01*
X156274500Y-66293385D01*
X156274500Y-66806612D01*
X156280913Y-66877191D01*
X156280913Y-66877193D01*
X156280914Y-66877195D01*
X156331522Y-67039605D01*
X156411430Y-67171789D01*
X156419530Y-67185187D01*
X156422161Y-67187818D01*
X156423471Y-67190217D01*
X156424157Y-67191093D01*
X156424011Y-67191206D01*
X156455646Y-67249141D01*
X156450662Y-67318833D01*
X156408790Y-67374766D01*
X156343326Y-67399183D01*
X156334480Y-67399499D01*
X155728014Y-67399499D01*
X155660975Y-67379814D01*
X155653703Y-67374766D01*
X155647582Y-67370184D01*
X155570130Y-67312203D01*
X155570129Y-67312202D01*
X155570127Y-67312201D01*
X155435285Y-67261909D01*
X155435284Y-67261908D01*
X155435282Y-67261908D01*
X155375672Y-67255499D01*
X155375662Y-67255499D01*
X154924328Y-67255499D01*
X154924322Y-67255500D01*
X154864715Y-67261907D01*
X154729870Y-67312201D01*
X154729863Y-67312205D01*
X154614654Y-67398451D01*
X154614653Y-67398452D01*
X154599265Y-67419008D01*
X154543331Y-67460878D01*
X154473639Y-67465861D01*
X154412317Y-67432374D01*
X154400735Y-67419008D01*
X154385346Y-67398452D01*
X154385345Y-67398451D01*
X154270136Y-67312205D01*
X154270129Y-67312201D01*
X154135287Y-67261909D01*
X154135286Y-67261908D01*
X154135284Y-67261908D01*
X154075674Y-67255499D01*
X154075664Y-67255499D01*
X153624330Y-67255499D01*
X153624324Y-67255500D01*
X153564717Y-67261907D01*
X153429872Y-67312201D01*
X153429870Y-67312202D01*
X153378713Y-67350499D01*
X153352418Y-67370184D01*
X153346297Y-67374766D01*
X153280833Y-67399183D01*
X153271986Y-67399499D01*
X152665520Y-67399499D01*
X152598481Y-67379814D01*
X152552726Y-67327010D01*
X152542782Y-67257852D01*
X152571807Y-67194296D01*
X152577839Y-67187818D01*
X152580468Y-67185188D01*
X152580469Y-67185187D01*
X152580472Y-67185184D01*
X152668478Y-67039605D01*
X152719086Y-66877195D01*
X152725500Y-66806615D01*
X152725500Y-66293383D01*
X152719086Y-66222803D01*
X152668478Y-66060393D01*
X152580472Y-65914814D01*
X152580470Y-65914812D01*
X152580469Y-65914810D01*
X152460188Y-65794529D01*
X152405697Y-65761588D01*
X152314606Y-65706521D01*
X152152196Y-65655913D01*
X152152194Y-65655912D01*
X152152192Y-65655912D01*
X152102778Y-65651422D01*
X152081616Y-65649499D01*
X151418384Y-65649499D01*
X151399145Y-65651247D01*
X151347807Y-65655912D01*
X151185391Y-65706522D01*
X151143881Y-65731616D01*
X151079732Y-65749499D01*
X150307940Y-65749499D01*
X150240901Y-65729814D01*
X150220259Y-65713180D01*
X149693832Y-65186753D01*
X149660347Y-65125430D01*
X149665331Y-65055738D01*
X149707203Y-64999805D01*
X149772667Y-64975388D01*
X149788799Y-64975676D01*
X149788806Y-64975563D01*
X149788806Y-64975499D01*
X149788809Y-64975498D01*
X149788819Y-64975321D01*
X149792100Y-64975496D01*
X149792127Y-64975499D01*
X151587872Y-64975498D01*
X151647483Y-64969090D01*
X151782331Y-64918795D01*
X151897546Y-64832545D01*
X151983796Y-64717330D01*
X152032810Y-64585915D01*
X152074681Y-64529983D01*
X152140145Y-64505565D01*
X152208418Y-64520416D01*
X152236673Y-64541568D01*
X152350213Y-64655108D01*
X152522179Y-64780047D01*
X152522181Y-64780048D01*
X152522184Y-64780050D01*
X152711588Y-64876556D01*
X152913757Y-64942245D01*
X153123713Y-64975499D01*
X153123714Y-64975499D01*
X153336286Y-64975499D01*
X153336287Y-64975499D01*
X153546243Y-64942245D01*
X153748412Y-64876556D01*
X153937816Y-64780050D01*
X154024138Y-64717334D01*
X154109786Y-64655108D01*
X154109788Y-64655105D01*
X154109792Y-64655103D01*
X154260104Y-64504791D01*
X154260106Y-64504787D01*
X154260109Y-64504785D01*
X154385048Y-64332819D01*
X154385047Y-64332819D01*
X154385051Y-64332815D01*
X154389514Y-64324053D01*
X154437488Y-64273258D01*
X154505308Y-64256462D01*
X154571444Y-64278998D01*
X154610486Y-64324055D01*
X154614951Y-64332819D01*
X154739890Y-64504785D01*
X154890213Y-64655108D01*
X155062179Y-64780047D01*
X155062181Y-64780048D01*
X155062184Y-64780050D01*
X155251588Y-64876556D01*
X155453757Y-64942245D01*
X155663713Y-64975499D01*
X155663714Y-64975499D01*
X155876286Y-64975499D01*
X155876287Y-64975499D01*
X156086243Y-64942245D01*
X156288412Y-64876556D01*
X156477816Y-64780050D01*
X156564138Y-64717334D01*
X156649786Y-64655108D01*
X156649788Y-64655105D01*
X156649792Y-64655103D01*
X156800104Y-64504791D01*
X156800106Y-64504787D01*
X156800109Y-64504785D01*
X156925048Y-64332819D01*
X156925047Y-64332819D01*
X156925051Y-64332815D01*
X156929514Y-64324053D01*
X156977488Y-64273258D01*
X157045308Y-64256462D01*
X157111444Y-64278998D01*
G37*
%TD.AperFunction*%
%TA.AperFunction,Conductor*%
G36*
X146855702Y-51013226D02*
G01*
X146862180Y-51019258D01*
X148913181Y-53070259D01*
X148946666Y-53131582D01*
X148949500Y-53157940D01*
X148949500Y-58867060D01*
X148929815Y-58934099D01*
X148913181Y-58954741D01*
X146711681Y-61156241D01*
X146650358Y-61189726D01*
X146580666Y-61184742D01*
X146524733Y-61142870D01*
X146500316Y-61077406D01*
X146500000Y-61068560D01*
X146500000Y-57879739D01*
X146516156Y-57821785D01*
X146515400Y-57821445D01*
X146517637Y-57816473D01*
X146517884Y-57815587D01*
X146518478Y-57814606D01*
X146569086Y-57652196D01*
X146575500Y-57581616D01*
X146575500Y-56918384D01*
X146569086Y-56847804D01*
X146518478Y-56685394D01*
X146517880Y-56684404D01*
X146517631Y-56683513D01*
X146515399Y-56678552D01*
X146516154Y-56678212D01*
X146500000Y-56620259D01*
X146500000Y-52042006D01*
X146518460Y-51976910D01*
X146584814Y-51869334D01*
X146639999Y-51702797D01*
X146650500Y-51600009D01*
X146650499Y-51106937D01*
X146670183Y-51039900D01*
X146722987Y-50994145D01*
X146792146Y-50984201D01*
X146855702Y-51013226D01*
G37*
%TD.AperFunction*%
%TD*%
%TA.AperFunction,Conductor*%
%TO.N,GND*%
G36*
X145937539Y-45520185D02*
G01*
X145983294Y-45572989D01*
X145994500Y-45624500D01*
X145994500Y-47075500D01*
X145974815Y-47142539D01*
X145922011Y-47188294D01*
X145870500Y-47199500D01*
X144549998Y-47199500D01*
X144549981Y-47199501D01*
X144447203Y-47210000D01*
X144447200Y-47210001D01*
X144280668Y-47265185D01*
X144280663Y-47265187D01*
X144131342Y-47357289D01*
X144050451Y-47438181D01*
X143989128Y-47471666D01*
X143962770Y-47474500D01*
X143621154Y-47474500D01*
X143466509Y-47505261D01*
X143466497Y-47505264D01*
X143423832Y-47522936D01*
X143423833Y-47522937D01*
X143320823Y-47565604D01*
X143320814Y-47565609D01*
X143189713Y-47653208D01*
X143189711Y-47653210D01*
X143189711Y-47653211D01*
X143189710Y-47653212D01*
X143143422Y-47699500D01*
X143064938Y-47777983D01*
X143003614Y-47811467D01*
X142933923Y-47806482D01*
X142908366Y-47793403D01*
X142904185Y-47790609D01*
X142904172Y-47790602D01*
X142758501Y-47730264D01*
X142758489Y-47730261D01*
X142603845Y-47699500D01*
X142603842Y-47699500D01*
X138472351Y-47699500D01*
X138405312Y-47679815D01*
X138359557Y-47627011D01*
X138349061Y-47588752D01*
X138344091Y-47542516D01*
X138293797Y-47407671D01*
X138293793Y-47407664D01*
X138207547Y-47292455D01*
X138207544Y-47292452D01*
X138092335Y-47206206D01*
X138092328Y-47206202D01*
X137957482Y-47155908D01*
X137957483Y-47155908D01*
X137897883Y-47149501D01*
X137897881Y-47149500D01*
X137897873Y-47149500D01*
X137897864Y-47149500D01*
X136102129Y-47149500D01*
X136102123Y-47149501D01*
X136042516Y-47155908D01*
X135907671Y-47206202D01*
X135907664Y-47206206D01*
X135792455Y-47292452D01*
X135792452Y-47292455D01*
X135706206Y-47407664D01*
X135706202Y-47407671D01*
X135655908Y-47542517D01*
X135649501Y-47602116D01*
X135649500Y-47602135D01*
X135649500Y-49397870D01*
X135649501Y-49397876D01*
X135655908Y-49457483D01*
X135706202Y-49592328D01*
X135706206Y-49592335D01*
X135792452Y-49707544D01*
X135792455Y-49707547D01*
X135907664Y-49793793D01*
X135907671Y-49793797D01*
X136042517Y-49844091D01*
X136042516Y-49844091D01*
X136049444Y-49844835D01*
X136102127Y-49850500D01*
X137897872Y-49850499D01*
X137957483Y-49844091D01*
X138092331Y-49793796D01*
X138207546Y-49707546D01*
X138293796Y-49592331D01*
X138344091Y-49457483D01*
X138349062Y-49411242D01*
X138375799Y-49346694D01*
X138433191Y-49306846D01*
X138472351Y-49300500D01*
X141929466Y-49300500D01*
X141996505Y-49320185D01*
X142042260Y-49372989D01*
X142047172Y-49385496D01*
X142087996Y-49508694D01*
X142088001Y-49508705D01*
X142177029Y-49653040D01*
X142177032Y-49653044D01*
X142296955Y-49772967D01*
X142296959Y-49772970D01*
X142441294Y-49861998D01*
X142441297Y-49861999D01*
X142441303Y-49862003D01*
X142602292Y-49915349D01*
X142701655Y-49925500D01*
X143298344Y-49925499D01*
X143298352Y-49925498D01*
X143298355Y-49925498D01*
X143352760Y-49919940D01*
X143397708Y-49915349D01*
X143558697Y-49862003D01*
X143703044Y-49772968D01*
X143822968Y-49653044D01*
X143912003Y-49508697D01*
X143965349Y-49347708D01*
X143969981Y-49302358D01*
X143996376Y-49237669D01*
X144053556Y-49197516D01*
X144123367Y-49194652D01*
X144158435Y-49209422D01*
X144280659Y-49284810D01*
X144280660Y-49284810D01*
X144280666Y-49284814D01*
X144447203Y-49339999D01*
X144549991Y-49350500D01*
X145142059Y-49350499D01*
X145209098Y-49370183D01*
X145229740Y-49386818D01*
X146332556Y-50489634D01*
X146366041Y-50550957D01*
X146361057Y-50620649D01*
X146338588Y-50658518D01*
X146244931Y-50766603D01*
X146244926Y-50766611D01*
X146185161Y-50897479D01*
X146185160Y-50897482D01*
X146165788Y-50963453D01*
X146165485Y-50964451D01*
X146144999Y-51106939D01*
X146144999Y-51567933D01*
X146144356Y-51580542D01*
X146144121Y-51582841D01*
X146138469Y-51609237D01*
X146128112Y-51640491D01*
X146115947Y-51666581D01*
X146088226Y-51711524D01*
X146088221Y-51711533D01*
X146032136Y-51838998D01*
X146032135Y-51839001D01*
X146013676Y-51904094D01*
X145994500Y-52042001D01*
X145994500Y-56620264D01*
X146013062Y-56755983D01*
X146013061Y-56755983D01*
X146013063Y-56755989D01*
X146017045Y-56770274D01*
X146022321Y-56789285D01*
X146022278Y-56792173D01*
X146029977Y-56816882D01*
X146031037Y-56820475D01*
X146039464Y-56850710D01*
X146043661Y-56860798D01*
X146064385Y-56927304D01*
X146070000Y-56964194D01*
X146070000Y-57535805D01*
X146069793Y-57537161D01*
X146069983Y-57537848D01*
X146064386Y-57572695D01*
X146035923Y-57664037D01*
X146033966Y-57669811D01*
X146029562Y-57681826D01*
X146028094Y-57687719D01*
X146027639Y-57690047D01*
X146023024Y-57708159D01*
X146022696Y-57708711D01*
X146022309Y-57710838D01*
X146013068Y-57743986D01*
X146013065Y-57744000D01*
X145994500Y-57879741D01*
X145994500Y-61068579D01*
X145994820Y-61086561D01*
X145995139Y-61095477D01*
X145996103Y-61113463D01*
X145996105Y-61113478D01*
X146026686Y-61254054D01*
X146026688Y-61254061D01*
X146041847Y-61294705D01*
X146051105Y-61319526D01*
X146051107Y-61319530D01*
X146120056Y-61445800D01*
X146120057Y-61445801D01*
X146183408Y-61509155D01*
X146187745Y-61517098D01*
X146194993Y-61522524D01*
X146204228Y-61547286D01*
X146216892Y-61570479D01*
X146216246Y-61579508D01*
X146219409Y-61587989D01*
X146213791Y-61613810D01*
X146211906Y-61640170D01*
X146206088Y-61649221D01*
X146204557Y-61656262D01*
X146183405Y-61684516D01*
X146124319Y-61743601D01*
X146062996Y-61777085D01*
X146001705Y-61774896D01*
X145967928Y-61764978D01*
X145967922Y-61764977D01*
X145967917Y-61764976D01*
X145967916Y-61764976D01*
X145825500Y-61744500D01*
X137892697Y-61744500D01*
X137878368Y-61744703D01*
X137877584Y-61744725D01*
X137876034Y-61744733D01*
X137875898Y-61744693D01*
X137867174Y-61745016D01*
X137866114Y-61745050D01*
X137847863Y-61745567D01*
X137843515Y-61748100D01*
X137838450Y-61749237D01*
X137780877Y-61760901D01*
X137778076Y-61761435D01*
X137729029Y-61770202D01*
X137729014Y-61770206D01*
X137726689Y-61770976D01*
X137719638Y-61773309D01*
X137715753Y-61774097D01*
X137696384Y-61781006D01*
X137695006Y-61781463D01*
X137694982Y-61781472D01*
X137682549Y-61785588D01*
X137680555Y-61786497D01*
X137660511Y-61793239D01*
X137532325Y-61857858D01*
X137532320Y-61857861D01*
X137531359Y-61858531D01*
X137523632Y-61864034D01*
X137434708Y-61928639D01*
X137434626Y-61928700D01*
X137429198Y-61932645D01*
X137401751Y-61949123D01*
X137394690Y-61954059D01*
X137328086Y-62009787D01*
X137327706Y-62010077D01*
X137300679Y-62037004D01*
X137300669Y-62037014D01*
X137285752Y-62051871D01*
X137274350Y-62066049D01*
X137264051Y-62076431D01*
X137264040Y-62076445D01*
X137262780Y-62078583D01*
X137250764Y-62095533D01*
X137240835Y-62107306D01*
X137240829Y-62107315D01*
X137210613Y-62166621D01*
X137206952Y-62173292D01*
X137197714Y-62188965D01*
X137146715Y-62236723D01*
X137090890Y-62250000D01*
X136911314Y-62250000D01*
X136844275Y-62230315D01*
X136798520Y-62177511D01*
X136796417Y-62172634D01*
X136793976Y-62166621D01*
X136788310Y-62152660D01*
X136764878Y-62123154D01*
X136757044Y-62112101D01*
X136756074Y-62110561D01*
X136753942Y-62106941D01*
X136753258Y-62106086D01*
X136753255Y-62106082D01*
X136710283Y-62052415D01*
X136707279Y-62049168D01*
X136707320Y-62049129D01*
X136701873Y-62043218D01*
X136701833Y-62043256D01*
X136698837Y-62039993D01*
X136698836Y-62039992D01*
X136698832Y-62039987D01*
X136679443Y-62021675D01*
X136679442Y-62021675D01*
X136651694Y-61995468D01*
X136640281Y-61986828D01*
X136605297Y-61954051D01*
X136598231Y-61949112D01*
X136598216Y-61949102D01*
X136575456Y-61935439D01*
X136566393Y-61929443D01*
X136476423Y-61864076D01*
X136468892Y-61858709D01*
X136467878Y-61858000D01*
X136459883Y-61852527D01*
X136455819Y-61849803D01*
X136447671Y-61844453D01*
X136444858Y-61842899D01*
X136444028Y-61842061D01*
X136443716Y-61841856D01*
X136443759Y-61841789D01*
X136441864Y-61839875D01*
X136378635Y-61807250D01*
X136377529Y-61806782D01*
X136345534Y-61793239D01*
X136307982Y-61777344D01*
X136307978Y-61777343D01*
X136271217Y-61770590D01*
X136264872Y-61769425D01*
X136249714Y-61764975D01*
X136207968Y-61758973D01*
X136205589Y-61758536D01*
X136205587Y-61758535D01*
X136166477Y-61751352D01*
X136166466Y-61751350D01*
X136157125Y-61750987D01*
X136144308Y-61749819D01*
X136107310Y-61744500D01*
X136107303Y-61744500D01*
X135124500Y-61744500D01*
X135057461Y-61724815D01*
X135011706Y-61672011D01*
X135000500Y-61620500D01*
X135000500Y-58553713D01*
X135649500Y-58553713D01*
X135649500Y-58766287D01*
X135650431Y-58772165D01*
X135681218Y-58966550D01*
X135682754Y-58976243D01*
X135723901Y-59102881D01*
X135748444Y-59178414D01*
X135844951Y-59367820D01*
X135969890Y-59539786D01*
X136120213Y-59690109D01*
X136292179Y-59815048D01*
X136292181Y-59815049D01*
X136292184Y-59815051D01*
X136481588Y-59911557D01*
X136683757Y-59977246D01*
X136893713Y-60010500D01*
X136893714Y-60010500D01*
X137106286Y-60010500D01*
X137106287Y-60010500D01*
X137316243Y-59977246D01*
X137518412Y-59911557D01*
X137707816Y-59815051D01*
X137735336Y-59795057D01*
X137879786Y-59690109D01*
X137879788Y-59690106D01*
X137879792Y-59690104D01*
X138030104Y-59539792D01*
X138030106Y-59539788D01*
X138030109Y-59539786D01*
X138155048Y-59367820D01*
X138155047Y-59367820D01*
X138155051Y-59367816D01*
X138251557Y-59178412D01*
X138317246Y-58976243D01*
X138350500Y-58766287D01*
X138350500Y-58553713D01*
X138317246Y-58343757D01*
X138251557Y-58141588D01*
X138155051Y-57952184D01*
X138155049Y-57952181D01*
X138155048Y-57952179D01*
X138030109Y-57780213D01*
X137879786Y-57629890D01*
X137707820Y-57504951D01*
X137518414Y-57408444D01*
X137518413Y-57408443D01*
X137518412Y-57408443D01*
X137316243Y-57342754D01*
X137316241Y-57342753D01*
X137316240Y-57342753D01*
X137154957Y-57317208D01*
X137106287Y-57309500D01*
X136893713Y-57309500D01*
X136845042Y-57317208D01*
X136683760Y-57342753D01*
X136481585Y-57408444D01*
X136292179Y-57504951D01*
X136120213Y-57629890D01*
X135969890Y-57780213D01*
X135844951Y-57952179D01*
X135748444Y-58141585D01*
X135682753Y-58343760D01*
X135657978Y-58500186D01*
X135649500Y-58553713D01*
X135000500Y-58553713D01*
X135000500Y-53473713D01*
X135649500Y-53473713D01*
X135649500Y-53686287D01*
X135682754Y-53896243D01*
X135723901Y-54022881D01*
X135748444Y-54098414D01*
X135844951Y-54287820D01*
X135969890Y-54459786D01*
X136120213Y-54610109D01*
X136292179Y-54735048D01*
X136292181Y-54735049D01*
X136292184Y-54735051D01*
X136481588Y-54831557D01*
X136683757Y-54897246D01*
X136893713Y-54930500D01*
X136893714Y-54930500D01*
X137106286Y-54930500D01*
X137106287Y-54930500D01*
X137316243Y-54897246D01*
X137518412Y-54831557D01*
X137707816Y-54735051D01*
X137729789Y-54719086D01*
X137879786Y-54610109D01*
X137879788Y-54610106D01*
X137879792Y-54610104D01*
X138030104Y-54459792D01*
X138030106Y-54459788D01*
X138030109Y-54459786D01*
X138155048Y-54287820D01*
X138155047Y-54287820D01*
X138155051Y-54287816D01*
X138251557Y-54098412D01*
X138317246Y-53896243D01*
X138350500Y-53686287D01*
X138350500Y-53473713D01*
X138317246Y-53263757D01*
X138251557Y-53061588D01*
X138155051Y-52872184D01*
X138155049Y-52872181D01*
X138155048Y-52872179D01*
X138030109Y-52700213D01*
X137879786Y-52549890D01*
X137707820Y-52424951D01*
X137518414Y-52328444D01*
X137518413Y-52328443D01*
X137518412Y-52328443D01*
X137316243Y-52262754D01*
X137316241Y-52262753D01*
X137316240Y-52262753D01*
X137154957Y-52237208D01*
X137106287Y-52229500D01*
X136893713Y-52229500D01*
X136845042Y-52237208D01*
X136683760Y-52262753D01*
X136481585Y-52328444D01*
X136292179Y-52424951D01*
X136120213Y-52549890D01*
X135969890Y-52700213D01*
X135844951Y-52872179D01*
X135748444Y-53061585D01*
X135682753Y-53263760D01*
X135664005Y-53382130D01*
X135649500Y-53473713D01*
X135000500Y-53473713D01*
X135000500Y-45624500D01*
X135020185Y-45557461D01*
X135072989Y-45511706D01*
X135124500Y-45500500D01*
X145870500Y-45500500D01*
X145937539Y-45520185D01*
G37*
%TD.AperFunction*%
%TD*%
M02*
