M48
; DRILL file {KiCad 8.0.6} date 2025-10-30T10:56:44-0400
; FORMAT={-:-/ absolute / inch / decimal}
; #@! TF.CreationDate,2025-10-30T10:56:44-04:00
; #@! TF.GenerationSoftware,Kicad,Pcbnew,8.0.6
; #@! TF.FileFunction,Plated,1,4,PTH
FMAT,2
INCH
; #@! TA.AperFunction,Plated,PTH,ViaDrill
T1C0.0118
; #@! TA.AperFunction,Plated,PTH,ComponentDrill
T2C0.0315
; #@! TA.AperFunction,Plated,PTH,ComponentDrill
T3C0.0394
; #@! TA.AperFunction,Plated,PTH,ComponentDrill
T4C0.1063
%
G90
G05
T1
X5.5039Y-4.3996
X5.5217Y-5.5413
X5.5315Y-5.7579
X5.5413Y-4.8425
X5.5512Y-4.2913
X5.561Y-4.5177
X5.5709Y-4.685
X5.5906Y-5.8957
X5.6398Y-5.4823
X5.6496Y-4.0748
X5.6496Y-5.2559
X5.6594Y-4.9902
X5.7106Y-5.7677
X5.748Y-5.0787
X5.7776Y-4.4783
X5.7972Y-5.3642
X5.8169Y-4.7539
X5.8169Y-4.9902
X5.8268Y-5.2461
X5.9252Y-5.9154
X5.9547Y-5.2165
X6.0138Y-4.626
X6.0157Y-5.2657
X6.0236Y-5.502
X6.1811Y-5.6496
X6.1909Y-4.9606
X6.2106Y-5.0886
X6.2402Y-4.7441
X6.25Y-4.498
X6.2598Y-5.3839
X6.2992Y-4.9803
X6.3103Y-4.6863
X6.3189Y-5.5315
X6.3189Y-5.6791
X6.3406Y-5.3543
X6.3484Y-4.0748
X6.3681Y-4.1929
X6.3681Y-5.8858
X6.378Y-4.5669
X6.3878Y-5.2067
X6.4567Y-4.7835
X6.5059Y-5.4232
X6.5059Y-5.876
X6.5079Y-4.9016
X6.5551Y-4.4488
X6.565Y-4.2717
X6.565Y-4.5965
X6.565Y-5.1476
X6.5669Y-5.7677
X6.6142Y-4.9114
X6.624Y-5.2165
X6.626Y-4.0551
X6.626Y-4.1634
X6.6358Y-4.4685
X6.6437Y-4.7638
X6.6831Y-5.374
X6.7047Y-4.6358
X6.7047Y-5.3346
X6.711Y-5.5102
X6.7126Y-5.2067
X6.7126Y-5.7283
X6.7146Y-5.6299
X6.7224Y-4.8524
X6.7323Y-5.8858
X6.752Y-5.0591
X6.813Y-5.4528
X6.8602Y-4.7047
X6.8602Y-5.4921
X6.9045Y-5.4675
X6.9114Y-4.7441
X6.9291Y-5.0591
X6.9291Y-5.2362
X6.939Y-4.4488
X6.9606Y-4.872
X6.9882Y-4.0354
X6.998Y-5.8858
X7.0177Y-5.4921
X7.0394Y-5.4134
X7.0472Y-5.1575
X7.0669Y-4.9902
X7.1063Y-4.6752
X7.1063Y-4.7638
X7.128Y-5.3051
X7.1752Y-5.5906
X7.185Y-5.4331
X7.1949Y-5.2067
X7.2146Y-5.8858
X7.2244Y-4.9803
X7.2362Y-5.1673
X7.2441Y-4.0157
X7.2835Y-4.7835
X7.3031Y-4.3602
X7.3327Y-5.6594
X7.4331Y-4.7343
X7.4409Y-4.0157
X7.4508Y-4.6752
X7.4508Y-5.8858
X7.4705Y-4.4783
X7.4705Y-5.3346
X7.5098Y-5.6299
X7.5197Y-4.8425
X7.5217Y-5.561
X7.5394Y-4.3406
X7.5463Y-4.877
X7.5984Y-5.4429
X7.6181Y-4.1535
X7.6201Y-4.9705
X7.6378Y-4.0157
X7.6378Y-5.7087
X7.6398Y-5.2854
X7.6476Y-5.1083
X7.6476Y-5.8858
X7.689Y-5.4232
X7.7382Y-5.4331
X7.8248Y-5.7185
X7.8248Y-5.8858
X7.8346Y-4.0157
X7.8346Y-4.2126
T2
X7.2559Y-5.6004
X7.2559Y-5.7004
X7.2559Y-5.8004
T3
X5.5236Y-4.9362
X5.5236Y-5.0362
X5.5236Y-5.1362
X5.5236Y-5.2362
X5.5236Y-5.3362
X5.5236Y-5.4362
X7.7382Y-4.0933
X7.7382Y-4.1933
X7.7382Y-4.2933
X7.7382Y-4.3933
X7.7382Y-4.4933
X7.7382Y-4.5933
X7.7382Y-4.6933
X7.7382Y-4.7933
X7.7382Y-4.8933
T4
X5.8091Y-4.3041
X6.2028Y-4.3041
M30
