%TF.GenerationSoftware,KiCad,Pcbnew,9.0.6*%
%TF.CreationDate,2026-04-16T11:51:10-04:00*%
%TF.ProjectId,OUTPUTs,4f555450-5554-4732-9e6b-696361645f70,rev?*%
%TF.SameCoordinates,Original*%
%TF.FileFunction,Copper,L1,Top*%
%TF.FilePolarity,Positive*%
%FSLAX46Y46*%
G04 Gerber Fmt 4.6, Leading zero omitted, Abs format (unit mm)*
G04 Created by KiCad (PCBNEW 9.0.6) date 2026-04-16 11:51:10*
%MOMM*%
%LPD*%
G01*
G04 APERTURE LIST*
G04 Aperture macros list*
%AMRoundRect*
0 Rectangle with rounded corners*
0 $1 Rounding radius*
0 $2 $3 $4 $5 $6 $7 $8 $9 X,Y pos of 4 corners*
0 Add a 4 corners polygon primitive as box body*
4,1,4,$2,$3,$4,$5,$6,$7,$8,$9,$2,$3,0*
0 Add four circle primitives for the rounded corners*
1,1,$1+$1,$2,$3*
1,1,$1+$1,$4,$5*
1,1,$1+$1,$6,$7*
1,1,$1+$1,$8,$9*
0 Add four rect primitives between the rounded corners*
20,1,$1+$1,$2,$3,$4,$5,0*
20,1,$1+$1,$4,$5,$6,$7,0*
20,1,$1+$1,$6,$7,$8,$9,0*
20,1,$1+$1,$8,$9,$2,$3,0*%
%AMFreePoly0*
4,1,6,1.000000,0.000000,0.500000,-0.750000,-0.500000,-0.750000,-0.500000,0.750000,0.500000,0.750000,1.000000,0.000000,1.000000,0.000000,$1*%
%AMFreePoly1*
4,1,6,0.500000,-0.750000,-0.650000,-0.750000,-0.150000,0.000000,-0.650000,0.750000,0.500000,0.750000,0.500000,-0.750000,0.500000,-0.750000,$1*%
G04 Aperture macros list end*
%TA.AperFunction,SMDPad,CuDef*%
%ADD10RoundRect,0.087500X-0.250000X-0.087500X0.250000X-0.087500X0.250000X0.087500X-0.250000X0.087500X0*%
%TD*%
%TA.AperFunction,SMDPad,CuDef*%
%ADD11RoundRect,0.200000X-0.200000X-0.275000X0.200000X-0.275000X0.200000X0.275000X-0.200000X0.275000X0*%
%TD*%
%TA.AperFunction,SMDPad,CuDef*%
%ADD12RoundRect,0.250000X0.375000X0.850000X-0.375000X0.850000X-0.375000X-0.850000X0.375000X-0.850000X0*%
%TD*%
%TA.AperFunction,SMDPad,CuDef*%
%ADD13RoundRect,0.225000X0.250000X-0.225000X0.250000X0.225000X-0.250000X0.225000X-0.250000X-0.225000X0*%
%TD*%
%TA.AperFunction,SMDPad,CuDef*%
%ADD14RoundRect,0.225000X-0.250000X0.225000X-0.250000X-0.225000X0.250000X-0.225000X0.250000X0.225000X0*%
%TD*%
%TA.AperFunction,ComponentPad*%
%ADD15C,0.700000*%
%TD*%
%TA.AperFunction,ComponentPad*%
%ADD16C,4.400000*%
%TD*%
%TA.AperFunction,SMDPad,CuDef*%
%ADD17FreePoly0,90.000000*%
%TD*%
%TA.AperFunction,SMDPad,CuDef*%
%ADD18FreePoly1,90.000000*%
%TD*%
%TA.AperFunction,SMDPad,CuDef*%
%ADD19RoundRect,0.200000X-0.275000X0.200000X-0.275000X-0.200000X0.275000X-0.200000X0.275000X0.200000X0*%
%TD*%
%TA.AperFunction,ComponentPad*%
%ADD20R,1.700000X1.700000*%
%TD*%
%TA.AperFunction,ComponentPad*%
%ADD21C,1.700000*%
%TD*%
%TA.AperFunction,SMDPad,CuDef*%
%ADD22RoundRect,0.200000X0.200000X0.275000X-0.200000X0.275000X-0.200000X-0.275000X0.200000X-0.275000X0*%
%TD*%
%TA.AperFunction,SMDPad,CuDef*%
%ADD23FreePoly0,180.000000*%
%TD*%
%TA.AperFunction,SMDPad,CuDef*%
%ADD24FreePoly1,180.000000*%
%TD*%
%TA.AperFunction,SMDPad,CuDef*%
%ADD25FreePoly0,0.000000*%
%TD*%
%TA.AperFunction,SMDPad,CuDef*%
%ADD26FreePoly1,0.000000*%
%TD*%
%TA.AperFunction,ViaPad*%
%ADD27C,0.600000*%
%TD*%
%TA.AperFunction,Conductor*%
%ADD28C,0.600000*%
%TD*%
%TA.AperFunction,Conductor*%
%ADD29C,0.200000*%
%TD*%
G04 APERTURE END LIST*
D10*
%TO.P,U1,1,VIN*%
%TO.N,12V*%
X151862500Y-115500000D03*
%TO.P,U1,2,SW*%
%TO.N,Net-(U1-SW)*%
X151862500Y-116000000D03*
%TO.P,U1,3,GND*%
%TO.N,GND*%
X151862500Y-116500000D03*
%TO.P,U1,4,BST*%
%TO.N,Net-(U1-BST)*%
X153287500Y-116500000D03*
%TO.P,U1,5,EN*%
%TO.N,unconnected-(U1-EN-Pad5)*%
X153287500Y-116000000D03*
%TO.P,U1,6,FB*%
%TO.N,Net-(U1-FB)*%
X153287500Y-115500000D03*
%TD*%
D11*
%TO.P,R28,1*%
%TO.N,GND*%
X153325000Y-112750000D03*
%TO.P,R28,2*%
%TO.N,Net-(U1-FB)*%
X154975000Y-112750000D03*
%TD*%
%TO.P,R27,1*%
%TO.N,Net-(U1-FB)*%
X154825000Y-114750000D03*
%TO.P,R27,2*%
%TO.N,+5V*%
X156475000Y-114750000D03*
%TD*%
D12*
%TO.P,L1,1,1*%
%TO.N,Net-(U1-SW)*%
X153900000Y-118750000D03*
%TO.P,L1,2,2*%
%TO.N,+5V*%
X151750000Y-118750000D03*
%TD*%
D13*
%TO.P,C4,1*%
%TO.N,+5V*%
X147825000Y-118750000D03*
%TO.P,C4,2*%
%TO.N,GND*%
X147825000Y-117200000D03*
%TD*%
%TO.P,C3,1*%
%TO.N,+5V*%
X149825000Y-118750000D03*
%TO.P,C3,2*%
%TO.N,GND*%
X149825000Y-117200000D03*
%TD*%
%TO.P,C2,1*%
%TO.N,Net-(U1-SW)*%
X155825000Y-118025000D03*
%TO.P,C2,2*%
%TO.N,Net-(U1-BST)*%
X155825000Y-116475000D03*
%TD*%
D14*
%TO.P,C1,1*%
%TO.N,12V*%
X149825000Y-113950000D03*
%TO.P,C1,2*%
%TO.N,GND*%
X149825000Y-115500000D03*
%TD*%
D15*
%TO.P,5V1,1,1*%
%TO.N,+5V_EXT*%
X134650000Y-121750000D03*
X134166726Y-122916726D03*
X134166726Y-120583274D03*
X133000000Y-123400000D03*
D16*
X133000000Y-121750000D03*
D15*
X133000000Y-120100000D03*
X131833274Y-122916726D03*
X131833274Y-120583274D03*
X131350000Y-121750000D03*
%TD*%
%TO.P,GND1,1,1*%
%TO.N,GND*%
X134650000Y-127700000D03*
X134166726Y-128866726D03*
X134166726Y-126533274D03*
X133000000Y-129350000D03*
D16*
X133000000Y-127700000D03*
D15*
X133000000Y-126050000D03*
X131833274Y-128866726D03*
X131833274Y-126533274D03*
X131350000Y-127700000D03*
%TD*%
D17*
%TO.P,INT1,1,A*%
%TO.N,+5V*%
X139500000Y-118700000D03*
D18*
%TO.P,INT1,2,B*%
%TO.N,/5V_LIGHT*%
X139500000Y-117250000D03*
%TD*%
D17*
%TO.P,EXT1,1,A*%
%TO.N,+5V_EXT*%
X136400000Y-118700000D03*
D18*
%TO.P,EXT1,2,B*%
%TO.N,/5V_LIGHT*%
X136400000Y-117250000D03*
%TD*%
D19*
%TO.P,R26,1*%
%TO.N,/GPIO_13*%
X139400000Y-112175000D03*
%TO.P,R26,2*%
%TO.N,/5V_LIGHT*%
X139400000Y-113825000D03*
%TD*%
%TO.P,R25,1*%
%TO.N,/GPIO_14*%
X136500000Y-112175000D03*
%TO.P,R25,2*%
%TO.N,/5V_LIGHT*%
X136500000Y-113825000D03*
%TD*%
D20*
%TO.P,LIGHT_2,1,Pin_1*%
%TO.N,GND*%
X142500000Y-108960000D03*
D21*
%TO.P,LIGHT_2,2,Pin_2*%
%TO.N,/GPIO_13*%
X142500000Y-111500000D03*
%TO.P,LIGHT_2,3,Pin_3*%
%TO.N,/5V_LIGHT*%
X142500000Y-114040000D03*
%TD*%
D20*
%TO.P,LIGHT_1,1,Pin_1*%
%TO.N,GND*%
X133250000Y-108960000D03*
D21*
%TO.P,LIGHT_1,2,Pin_2*%
%TO.N,/GPIO_14*%
X133250000Y-111500000D03*
%TO.P,LIGHT_1,3,Pin_3*%
%TO.N,/5V_LIGHT*%
X133250000Y-114040000D03*
%TD*%
D22*
%TO.P,R22,2*%
%TO.N,Net-(SERVO_11-A)*%
X158635000Y-94500000D03*
%TO.P,R22,1*%
%TO.N,/GPIO_16*%
X160285000Y-94500000D03*
%TD*%
D23*
%TO.P,SERVO_12,1,A*%
%TO.N,Net-(SERVO_12-A)*%
X156935000Y-100300000D03*
D24*
%TO.P,SERVO_12,2,B*%
%TO.N,Net-(ESC_12-B)*%
X155485000Y-100300000D03*
%TD*%
D23*
%TO.P,SERVO_11,1,A*%
%TO.N,Net-(SERVO_11-A)*%
X156935000Y-94000000D03*
D24*
%TO.P,SERVO_11,2,B*%
%TO.N,Net-(ESC_11-B)*%
X155485000Y-94000000D03*
%TD*%
D23*
%TO.P,SERVO_10,1,A*%
%TO.N,Net-(SERVO_10-A)*%
X156955903Y-87750000D03*
D24*
%TO.P,SERVO_10,2,B*%
%TO.N,Net-(ESC_10-B)*%
X155505903Y-87750000D03*
%TD*%
D23*
%TO.P,SERVO_9,1,A*%
%TO.N,Net-(SERVO_9-A)*%
X156950000Y-81500000D03*
D24*
%TO.P,SERVO_9,2,B*%
%TO.N,Net-(ESC_9-B)*%
X155500000Y-81500000D03*
%TD*%
D23*
%TO.P,SERVO_8,1,A*%
%TO.N,Net-(SERVO_8-A)*%
X156960000Y-75225000D03*
D24*
%TO.P,SERVO_8,2,B*%
%TO.N,Net-(ESC_8-B)*%
X155510000Y-75225000D03*
%TD*%
D22*
%TO.P,R24,1*%
%TO.N,/GPIO_12*%
X160285000Y-100800000D03*
%TO.P,R24,2*%
%TO.N,Net-(SERVO_12-A)*%
X158635000Y-100800000D03*
%TD*%
%TO.P,R23,1*%
%TO.N,/GPIO_12*%
X160285000Y-103049999D03*
%TO.P,R23,2*%
%TO.N,Net-(ESC_12-A)*%
X158635000Y-103049999D03*
%TD*%
%TO.P,R21,1*%
%TO.N,/GPIO_16*%
X160285000Y-96749999D03*
%TO.P,R21,2*%
%TO.N,Net-(ESC_11-A)*%
X158635000Y-96749999D03*
%TD*%
%TO.P,R20,1*%
%TO.N,/GPIO_17*%
X160305903Y-88250000D03*
%TO.P,R20,2*%
%TO.N,Net-(SERVO_10-A)*%
X158655903Y-88250000D03*
%TD*%
%TO.P,R19,1*%
%TO.N,/GPIO_17*%
X160305903Y-90499999D03*
%TO.P,R19,2*%
%TO.N,Net-(ESC_10-A)*%
X158655903Y-90499999D03*
%TD*%
%TO.P,R18,1*%
%TO.N,/GPIO_26*%
X160300000Y-82000000D03*
%TO.P,R18,2*%
%TO.N,Net-(SERVO_9-A)*%
X158650000Y-82000000D03*
%TD*%
%TO.P,R17,1*%
%TO.N,/GPIO_26*%
X160300000Y-84249999D03*
%TO.P,R17,2*%
%TO.N,Net-(ESC_9-A)*%
X158650000Y-84249999D03*
%TD*%
%TO.P,R16,1*%
%TO.N,/GPIO_27*%
X160310000Y-75725000D03*
%TO.P,R16,2*%
%TO.N,Net-(SERVO_8-A)*%
X158660000Y-75725000D03*
%TD*%
%TO.P,R15,1*%
%TO.N,/GPIO_27*%
X160310000Y-77974999D03*
%TO.P,R15,2*%
%TO.N,Net-(ESC_8-A)*%
X158660000Y-77974999D03*
%TD*%
D20*
%TO.P,OUT_12,1,Pin_1*%
%TO.N,GND*%
X147420000Y-101800000D03*
D21*
%TO.P,OUT_12,2,Pin_2*%
%TO.N,+5V*%
X149960000Y-101800000D03*
%TO.P,OUT_12,3,Pin_3*%
%TO.N,Net-(ESC_12-B)*%
X152500000Y-101800000D03*
%TD*%
D20*
%TO.P,OUT_11,1,Pin_1*%
%TO.N,GND*%
X147420000Y-95500000D03*
D21*
%TO.P,OUT_11,2,Pin_2*%
%TO.N,+5V*%
X149960000Y-95500000D03*
%TO.P,OUT_11,3,Pin_3*%
%TO.N,Net-(ESC_11-B)*%
X152500000Y-95500000D03*
%TD*%
D20*
%TO.P,OUT_10,1,Pin_1*%
%TO.N,GND*%
X147440903Y-89250000D03*
D21*
%TO.P,OUT_10,2,Pin_2*%
%TO.N,+5V*%
X149980903Y-89250000D03*
%TO.P,OUT_10,3,Pin_3*%
%TO.N,Net-(ESC_10-B)*%
X152520903Y-89250000D03*
%TD*%
D20*
%TO.P,OUT_9,1,Pin_1*%
%TO.N,GND*%
X147435000Y-83000000D03*
D21*
%TO.P,OUT_9,2,Pin_2*%
%TO.N,+5V*%
X149975000Y-83000000D03*
%TO.P,OUT_9,3,Pin_3*%
%TO.N,Net-(ESC_9-B)*%
X152515000Y-83000000D03*
%TD*%
D20*
%TO.P,OUT_8,1,Pin_1*%
%TO.N,GND*%
X147445000Y-76725000D03*
D21*
%TO.P,OUT_8,2,Pin_2*%
%TO.N,+5V*%
X149985000Y-76725000D03*
%TO.P,OUT_8,3,Pin_3*%
%TO.N,Net-(ESC_8-B)*%
X152525000Y-76725000D03*
%TD*%
D23*
%TO.P,ESC_12,1,A*%
%TO.N,Net-(ESC_12-A)*%
X156935000Y-103549999D03*
D24*
%TO.P,ESC_12,2,B*%
%TO.N,Net-(ESC_12-B)*%
X155485000Y-103549999D03*
%TD*%
D23*
%TO.P,ESC_11,1,A*%
%TO.N,Net-(ESC_11-A)*%
X156935000Y-97249999D03*
D24*
%TO.P,ESC_11,2,B*%
%TO.N,Net-(ESC_11-B)*%
X155485000Y-97249999D03*
%TD*%
D23*
%TO.P,ESC_10,1,A*%
%TO.N,Net-(ESC_10-A)*%
X156955903Y-90999999D03*
D24*
%TO.P,ESC_10,2,B*%
%TO.N,Net-(ESC_10-B)*%
X155505903Y-90999999D03*
%TD*%
D23*
%TO.P,ESC_9,1,A*%
%TO.N,Net-(ESC_9-A)*%
X156950000Y-84749999D03*
D24*
%TO.P,ESC_9,2,B*%
%TO.N,Net-(ESC_9-B)*%
X155500000Y-84749999D03*
%TD*%
D23*
%TO.P,ESC_8,1,A*%
%TO.N,Net-(ESC_8-A)*%
X156960000Y-78474999D03*
D24*
%TO.P,ESC_8,2,B*%
%TO.N,Net-(ESC_8-B)*%
X155510000Y-78474999D03*
%TD*%
D25*
%TO.P,SERVO_6,1,A*%
%TO.N,Net-(SERVO_6-A)*%
X133975000Y-100300000D03*
D26*
%TO.P,SERVO_6,2,B*%
%TO.N,Net-(ESC_6-B)*%
X135425000Y-100300000D03*
%TD*%
D25*
%TO.P,SERVO_1,1,A*%
%TO.N,Net-(SERVO_1-A)*%
X134050000Y-69000000D03*
D26*
%TO.P,SERVO_1,2,B*%
%TO.N,Net-(ESC_1-B)*%
X135500000Y-69000000D03*
%TD*%
D22*
%TO.P,R13,1*%
%TO.N,/GPIO_28*%
X160325000Y-71750000D03*
%TO.P,R13,2*%
%TO.N,Net-(ESC_7-A)*%
X158675000Y-71750000D03*
%TD*%
D25*
%TO.P,SERVO_3,1,A*%
%TO.N,Net-(SERVO_3-A)*%
X134050000Y-81500000D03*
D26*
%TO.P,SERVO_3,2,B*%
%TO.N,Net-(ESC_3-B)*%
X135500000Y-81500000D03*
%TD*%
D20*
%TO.P,J1,1,Pin_1*%
%TO.N,3.3V*%
X128000000Y-69450000D03*
D21*
%TO.P,J1,2,Pin_2*%
%TO.N,GND*%
X128000000Y-71990000D03*
%TO.P,J1,3,Pin_3*%
%TO.N,12V*%
X128000000Y-74530000D03*
%TO.P,J1,4,Pin_4*%
%TO.N,GND*%
X128000000Y-77070000D03*
%TO.P,J1,5,Pin_5*%
%TO.N,V_Piezo*%
X128000000Y-79610000D03*
%TO.P,J1,6,Pin_6*%
%TO.N,GND*%
X128000000Y-82150000D03*
%TO.P,J1,7,Pin_7*%
%TO.N,/GPIO_6*%
X128000000Y-84690000D03*
%TO.P,J1,8,Pin_8*%
%TO.N,/GPIO_7*%
X128000000Y-87230000D03*
%TO.P,J1,9,Pin_9*%
%TO.N,/GPIO_8*%
X128000000Y-89770000D03*
%TO.P,J1,10,Pin_10*%
%TO.N,/GPIO_9*%
X128000000Y-92310000D03*
%TO.P,J1,11,Pin_11*%
%TO.N,/GPIO_10*%
X128000000Y-94850000D03*
%TO.P,J1,12,Pin_12*%
%TO.N,/GPIO_11*%
X128000000Y-97390000D03*
%TO.P,J1,13,Pin_13*%
%TO.N,/GPIO_12*%
X128000000Y-99930000D03*
%TO.P,J1,14,Pin_14*%
%TO.N,/GPIO_13*%
X128000000Y-102470000D03*
%TO.P,J1,15,Pin_15*%
%TO.N,/GPIO_14*%
X128000000Y-105010000D03*
%TO.P,J1,16,Pin_16*%
%TO.N,unconnected-(J1-Pin_16-Pad16)*%
X128000000Y-107550000D03*
%TO.P,J1,17,Pin_17*%
%TO.N,unconnected-(J1-Pin_17-Pad17)*%
X128000000Y-110090000D03*
%TO.P,J1,18,Pin_18*%
%TO.N,/ADC1_IN2*%
X128000000Y-112630000D03*
%TO.P,J1,19,Pin_19*%
%TO.N,/ADC1_IN3*%
X128000000Y-115170000D03*
%TO.P,J1,20,Pin_20*%
%TO.N,/PC5*%
X128000000Y-117710000D03*
%TO.P,J1,21,Pin_21*%
%TO.N,/PB0*%
X128000000Y-120250000D03*
%TO.P,J1,22,Pin_22*%
%TO.N,/PB1*%
X128000000Y-122790000D03*
%TO.P,J1,23,Pin_23*%
%TO.N,unconnected-(J1-Pin_23-Pad23)*%
X128000000Y-125330000D03*
%TO.P,J1,24,Pin_24*%
%TO.N,unconnected-(J1-Pin_24-Pad24)*%
X128000000Y-127870000D03*
%TD*%
D25*
%TO.P,ESC_1,1,A*%
%TO.N,Net-(ESC_1-A)*%
X134025000Y-72000000D03*
D26*
%TO.P,ESC_1,2,B*%
%TO.N,Net-(ESC_1-B)*%
X135475000Y-72000000D03*
%TD*%
D25*
%TO.P,SERVO_5,1,A*%
%TO.N,Net-(SERVO_5-A)*%
X134000000Y-94000000D03*
D26*
%TO.P,SERVO_5,2,B*%
%TO.N,Net-(ESC_5-B)*%
X135450000Y-94000000D03*
%TD*%
D11*
%TO.P,R6,1*%
%TO.N,/GPIO_8*%
X130675000Y-82000000D03*
%TO.P,R6,2*%
%TO.N,Net-(SERVO_3-A)*%
X132325000Y-82000000D03*
%TD*%
D20*
%TO.P,OUT_6,1,Pin_1*%
%TO.N,GND*%
X143415000Y-101800000D03*
D21*
%TO.P,OUT_6,2,Pin_2*%
%TO.N,+5V*%
X140875000Y-101800000D03*
%TO.P,OUT_6,3,Pin_3*%
%TO.N,Net-(ESC_6-B)*%
X138335000Y-101800000D03*
%TD*%
D25*
%TO.P,SERVO_4,1,A*%
%TO.N,Net-(SERVO_4-A)*%
X134025000Y-87750000D03*
D26*
%TO.P,SERVO_4,2,B*%
%TO.N,Net-(ESC_4-B)*%
X135475000Y-87750000D03*
%TD*%
D22*
%TO.P,R14,1*%
%TO.N,/GPIO_28*%
X160325000Y-69500000D03*
%TO.P,R14,2*%
%TO.N,Net-(SERVO_7-A)*%
X158675000Y-69500000D03*
%TD*%
D20*
%TO.P,OUT_7,1,Pin_1*%
%TO.N,GND*%
X147460000Y-70500000D03*
D21*
%TO.P,OUT_7,2,Pin_2*%
%TO.N,+5V*%
X150000000Y-70500000D03*
%TO.P,OUT_7,3,Pin_3*%
%TO.N,Net-(ESC_7-B)*%
X152540000Y-70500000D03*
%TD*%
D20*
%TO.P,J2,1,Pin_1*%
%TO.N,unconnected-(J2-Pin_1-Pad1)*%
X163000000Y-69450000D03*
D21*
%TO.P,J2,2,Pin_2*%
%TO.N,unconnected-(J2-Pin_2-Pad2)*%
X163000000Y-71990000D03*
%TO.P,J2,3,Pin_3*%
%TO.N,unconnected-(J2-Pin_3-Pad3)*%
X163000000Y-74530000D03*
%TO.P,J2,4,Pin_4*%
%TO.N,/GPIO_28*%
X163000000Y-77070000D03*
%TO.P,J2,5,Pin_5*%
%TO.N,/GPIO_27*%
X163000000Y-79610000D03*
%TO.P,J2,6,Pin_6*%
%TO.N,/GPIO_26*%
X163000000Y-82150000D03*
%TO.P,J2,7,Pin_7*%
%TO.N,/GPIO_17*%
X163000000Y-84690000D03*
%TO.P,J2,8,Pin_8*%
%TO.N,/GPIO_16*%
X163000000Y-87230000D03*
%TO.P,J2,9,Pin_9*%
%TO.N,unconnected-(J2-Pin_9-Pad9)*%
X163000000Y-89770000D03*
%TO.P,J2,10,Pin_10*%
%TO.N,unconnected-(J2-Pin_10-Pad10)*%
X163000000Y-92310000D03*
%TO.P,J2,11,Pin_11*%
%TO.N,/PB14*%
X163000000Y-94850000D03*
%TO.P,J2,12,Pin_12*%
%TO.N,/PB15*%
X163000000Y-97390000D03*
%TO.P,J2,13,Pin_13*%
%TO.N,/PC6*%
X163000000Y-99930000D03*
%TO.P,J2,14,Pin_14*%
%TO.N,/PC7*%
X163000000Y-102470000D03*
%TO.P,J2,15,Pin_15*%
%TO.N,/PC8*%
X163000000Y-105010000D03*
%TO.P,J2,16,Pin_16*%
%TO.N,/PC9*%
X163000000Y-107550000D03*
%TO.P,J2,17,Pin_17*%
%TO.N,/PA9*%
X163000000Y-110090000D03*
%TO.P,J2,18,Pin_18*%
%TO.N,/PA10*%
X163000000Y-112630000D03*
%TO.P,J2,19,Pin_19*%
%TO.N,/SCL*%
X163000000Y-115170000D03*
%TO.P,J2,20,Pin_20*%
%TO.N,/SDA*%
X163000000Y-117710000D03*
%TO.P,J2,21,Pin_21*%
%TO.N,unconnected-(J2-Pin_21-Pad21)*%
X163000000Y-120250000D03*
%TO.P,J2,22,Pin_22*%
%TO.N,unconnected-(J2-Pin_22-Pad22)*%
X163000000Y-122790000D03*
%TO.P,J2,23,Pin_23*%
%TO.N,unconnected-(J2-Pin_23-Pad23)*%
X163000000Y-125330000D03*
%TO.P,J2,24,Pin_24*%
%TO.N,unconnected-(J2-Pin_24-Pad24)*%
X163000000Y-127870000D03*
%TD*%
D20*
%TO.P,OUT_5,1,Pin_1*%
%TO.N,GND*%
X143440000Y-95500000D03*
D21*
%TO.P,OUT_5,2,Pin_2*%
%TO.N,+5V*%
X140900000Y-95500000D03*
%TO.P,OUT_5,3,Pin_3*%
%TO.N,Net-(ESC_5-B)*%
X138360000Y-95500000D03*
%TD*%
D25*
%TO.P,SERVO_2,1,A*%
%TO.N,Net-(SERVO_2-A)*%
X134025000Y-75250000D03*
D26*
%TO.P,SERVO_2,2,B*%
%TO.N,Net-(ESC_2-B)*%
X135475000Y-75250000D03*
%TD*%
D11*
%TO.P,R2,1*%
%TO.N,/GPIO_6*%
X130675000Y-69500000D03*
%TO.P,R2,2*%
%TO.N,Net-(SERVO_1-A)*%
X132325000Y-69500000D03*
%TD*%
%TO.P,R4,1*%
%TO.N,/GPIO_7*%
X130650000Y-75750000D03*
%TO.P,R4,2*%
%TO.N,Net-(SERVO_2-A)*%
X132300000Y-75750000D03*
%TD*%
D23*
%TO.P,SERVO_7,1,A*%
%TO.N,Net-(SERVO_7-A)*%
X156975000Y-69000000D03*
D24*
%TO.P,SERVO_7,2,B*%
%TO.N,Net-(ESC_7-B)*%
X155525000Y-69000000D03*
%TD*%
D11*
%TO.P,R10,1*%
%TO.N,/GPIO_10*%
X130625000Y-94500000D03*
%TO.P,R10,2*%
%TO.N,Net-(SERVO_5-A)*%
X132275000Y-94500000D03*
%TD*%
D25*
%TO.P,ESC_5,1,A*%
%TO.N,Net-(ESC_5-A)*%
X133975000Y-97000000D03*
D26*
%TO.P,ESC_5,2,B*%
%TO.N,Net-(ESC_5-B)*%
X135425000Y-97000000D03*
%TD*%
D11*
%TO.P,R11,1*%
%TO.N,/GPIO_11*%
X130600000Y-102800000D03*
%TO.P,R11,2*%
%TO.N,Net-(ESC_6-A)*%
X132250000Y-102800000D03*
%TD*%
D20*
%TO.P,OUT_3,1,Pin_1*%
%TO.N,GND*%
X143490000Y-83000000D03*
D21*
%TO.P,OUT_3,2,Pin_2*%
%TO.N,+5V*%
X140950000Y-83000000D03*
%TO.P,OUT_3,3,Pin_3*%
%TO.N,Net-(ESC_3-B)*%
X138410000Y-83000000D03*
%TD*%
D20*
%TO.P,OUT_4,1,Pin_1*%
%TO.N,GND*%
X143465000Y-89250000D03*
D21*
%TO.P,OUT_4,2,Pin_2*%
%TO.N,+5V*%
X140925000Y-89250000D03*
%TO.P,OUT_4,3,Pin_3*%
%TO.N,Net-(ESC_4-B)*%
X138385000Y-89250000D03*
%TD*%
D11*
%TO.P,R3,1*%
%TO.N,/GPIO_7*%
X130650000Y-77750000D03*
%TO.P,R3,2*%
%TO.N,Net-(ESC_2-A)*%
X132300000Y-77750000D03*
%TD*%
D23*
%TO.P,ESC_7,1,A*%
%TO.N,Net-(ESC_7-A)*%
X156975000Y-72250000D03*
D24*
%TO.P,ESC_7,2,B*%
%TO.N,Net-(ESC_7-B)*%
X155525000Y-72250000D03*
%TD*%
D11*
%TO.P,R8,1*%
%TO.N,/GPIO_9*%
X130650000Y-88250000D03*
%TO.P,R8,2*%
%TO.N,Net-(SERVO_4-A)*%
X132300000Y-88250000D03*
%TD*%
D25*
%TO.P,ESC_3,1,A*%
%TO.N,Net-(ESC_3-A)*%
X134025000Y-84500000D03*
D26*
%TO.P,ESC_3,2,B*%
%TO.N,Net-(ESC_3-B)*%
X135475000Y-84500000D03*
%TD*%
D11*
%TO.P,R12,1*%
%TO.N,/GPIO_11*%
X130600000Y-100800000D03*
%TO.P,R12,2*%
%TO.N,Net-(SERVO_6-A)*%
X132250000Y-100800000D03*
%TD*%
D25*
%TO.P,ESC_2,1,A*%
%TO.N,Net-(ESC_2-A)*%
X134000000Y-78250000D03*
D26*
%TO.P,ESC_2,2,B*%
%TO.N,Net-(ESC_2-B)*%
X135450000Y-78250000D03*
%TD*%
D11*
%TO.P,R5,1*%
%TO.N,/GPIO_8*%
X130675000Y-84000000D03*
%TO.P,R5,2*%
%TO.N,Net-(ESC_3-A)*%
X132325000Y-84000000D03*
%TD*%
%TO.P,R7,1*%
%TO.N,/GPIO_9*%
X130650000Y-90250000D03*
%TO.P,R7,2*%
%TO.N,Net-(ESC_4-A)*%
X132300000Y-90250000D03*
%TD*%
%TO.P,R1,1*%
%TO.N,/GPIO_6*%
X130675000Y-71500000D03*
%TO.P,R1,2*%
%TO.N,Net-(ESC_1-A)*%
X132325000Y-71500000D03*
%TD*%
D20*
%TO.P,OUT_1,1,Pin_1*%
%TO.N,GND*%
X143490000Y-70500000D03*
D21*
%TO.P,OUT_1,2,Pin_2*%
%TO.N,+5V*%
X140950000Y-70500000D03*
%TO.P,OUT_1,3,Pin_3*%
%TO.N,Net-(ESC_1-B)*%
X138410000Y-70500000D03*
%TD*%
D25*
%TO.P,ESC_6,1,A*%
%TO.N,Net-(ESC_6-A)*%
X133950000Y-103300000D03*
D26*
%TO.P,ESC_6,2,B*%
%TO.N,Net-(ESC_6-B)*%
X135400000Y-103300000D03*
%TD*%
D20*
%TO.P,OUT_2,1,Pin_1*%
%TO.N,GND*%
X143465000Y-76750000D03*
D21*
%TO.P,OUT_2,2,Pin_2*%
%TO.N,+5V*%
X140925000Y-76750000D03*
%TO.P,OUT_2,3,Pin_3*%
%TO.N,Net-(ESC_2-B)*%
X138385000Y-76750000D03*
%TD*%
D25*
%TO.P,ESC_4,1,A*%
%TO.N,Net-(ESC_4-A)*%
X134000000Y-90750000D03*
D26*
%TO.P,ESC_4,2,B*%
%TO.N,Net-(ESC_4-B)*%
X135450000Y-90750000D03*
%TD*%
D11*
%TO.P,R9,1*%
%TO.N,/GPIO_10*%
X130625000Y-96500000D03*
%TO.P,R9,2*%
%TO.N,Net-(ESC_5-A)*%
X132275000Y-96500000D03*
%TD*%
D27*
%TO.N,GND*%
X153325000Y-112750000D03*
X147825000Y-117200000D03*
X149825000Y-117200000D03*
X149825000Y-115500000D03*
X151750000Y-116750000D03*
X160960000Y-129350000D03*
X160960000Y-126810000D03*
X160960000Y-124270000D03*
X160960000Y-121730000D03*
X160960000Y-119190000D03*
X160960000Y-116650000D03*
X160960000Y-114110000D03*
X160960000Y-111570000D03*
X160960000Y-109030000D03*
X160960000Y-106490000D03*
X160960000Y-98870000D03*
X158420000Y-129350000D03*
X158420000Y-126810000D03*
X158420000Y-124270000D03*
X158420000Y-121730000D03*
X158420000Y-119190000D03*
X158420000Y-116650000D03*
X158420000Y-114110000D03*
X158420000Y-111570000D03*
X158420000Y-109030000D03*
X158420000Y-106490000D03*
X158420000Y-86170000D03*
X158420000Y-73470000D03*
X155880000Y-129350000D03*
X155880000Y-126810000D03*
X155880000Y-124270000D03*
X155880000Y-121730000D03*
X155880000Y-109030000D03*
X155880000Y-106490000D03*
X153340000Y-129350000D03*
X153340000Y-126810000D03*
X153340000Y-124270000D03*
X153340000Y-121730000D03*
X153340000Y-109030000D03*
X153340000Y-106490000D03*
X153340000Y-86170000D03*
X153340000Y-73470000D03*
X150800000Y-129350000D03*
X150800000Y-126810000D03*
X150800000Y-124270000D03*
X150800000Y-121730000D03*
X150800000Y-111570000D03*
X150800000Y-109030000D03*
X150800000Y-106490000D03*
X148260000Y-129350000D03*
X148260000Y-126810000D03*
X148260000Y-124270000D03*
X148260000Y-121730000D03*
X148260000Y-109030000D03*
X148260000Y-106490000D03*
X145720000Y-129350000D03*
X145720000Y-126810000D03*
X145720000Y-124270000D03*
X145720000Y-121730000D03*
X143180000Y-129350000D03*
X143180000Y-126810000D03*
X143180000Y-124270000D03*
X143180000Y-121730000D03*
X143180000Y-106490000D03*
X140640000Y-129350000D03*
X140640000Y-126810000D03*
X140640000Y-124270000D03*
X140640000Y-121730000D03*
X140640000Y-109030000D03*
X138100000Y-129350000D03*
X138100000Y-126810000D03*
X138100000Y-111570000D03*
X138100000Y-86170000D03*
X138100000Y-73470000D03*
X135560000Y-86170000D03*
X133020000Y-86170000D03*
X130480000Y-116650000D03*
X130480000Y-114110000D03*
X130480000Y-111570000D03*
X130480000Y-109030000D03*
%TO.N,+5V*%
X151750000Y-118750000D03*
X156500000Y-114750000D03*
%TO.N,12V*%
X149825000Y-113950000D03*
X131500000Y-99500000D03*
X131500000Y-97500000D03*
%TO.N,/GPIO_12*%
X160285000Y-100800000D03*
%TO.N,/GPIO_7*%
X130650000Y-77750000D03*
%TD*%
D28*
%TO.N,+5V*%
X156475000Y-114750000D02*
X156500000Y-114750000D01*
%TO.N,12V*%
X131500000Y-97500000D02*
X131500000Y-99500000D01*
%TO.N,+5V*%
X151750000Y-118750000D02*
X149825000Y-118750000D01*
X147825000Y-118750000D02*
X149825000Y-118750000D01*
D29*
%TO.N,12V*%
X151375000Y-115500000D02*
X149825000Y-113950000D01*
X151862500Y-115500000D02*
X151375000Y-115500000D01*
%TO.N,Net-(U1-FB)*%
X154037500Y-114750000D02*
X153287500Y-115500000D01*
X154825000Y-114750000D02*
X154037500Y-114750000D01*
%TO.N,Net-(U1-BST)*%
X155800000Y-116500000D02*
X155825000Y-116475000D01*
X153287500Y-116500000D02*
X155800000Y-116500000D01*
%TO.N,Net-(U1-SW)*%
X152649000Y-116397152D02*
X152649000Y-117149000D01*
X152251848Y-116000000D02*
X152649000Y-116397152D01*
X151862500Y-116000000D02*
X152251848Y-116000000D01*
D28*
%TO.N,/GPIO_13*%
X135750000Y-105000000D02*
X139400000Y-108650000D01*
X130530000Y-105000000D02*
X135750000Y-105000000D01*
X128000000Y-102470000D02*
X130530000Y-105000000D01*
X139400000Y-108650000D02*
X139400000Y-112175000D01*
%TO.N,/GPIO_14*%
X136500000Y-107129000D02*
X136500000Y-112175000D01*
X128850000Y-105860000D02*
X135231000Y-105860000D01*
X135231000Y-105860000D02*
X136500000Y-107129000D01*
X128000000Y-105010000D02*
X128850000Y-105860000D01*
X135825000Y-111500000D02*
X136500000Y-112175000D01*
X133250000Y-111500000D02*
X135825000Y-111500000D01*
%TO.N,/GPIO_13*%
X142500000Y-111500000D02*
X140075000Y-111500000D01*
X140075000Y-111500000D02*
X139400000Y-112175000D01*
%TO.N,/GPIO_28*%
X161649000Y-73074000D02*
X160325000Y-71750000D01*
X161649000Y-75719000D02*
X161649000Y-73074000D01*
X163000000Y-77070000D02*
X161649000Y-75719000D01*
%TO.N,/GPIO_27*%
X161945001Y-79610000D02*
X160310000Y-77974999D01*
X163000000Y-79610000D02*
X161945001Y-79610000D01*
%TO.N,/GPIO_26*%
X160300000Y-82000000D02*
X162850000Y-82000000D01*
X162850000Y-82000000D02*
X163000000Y-82150000D01*
%TO.N,/GPIO_17*%
X160305903Y-88250000D02*
X160305903Y-87384097D01*
X160305903Y-87384097D02*
X163000000Y-84690000D01*
%TO.N,/GPIO_16*%
X161206903Y-89023097D02*
X163000000Y-87230000D01*
X161206903Y-93578097D02*
X161206903Y-89023097D01*
X160285000Y-94500000D02*
X161206903Y-93578097D01*
%TO.N,/GPIO_6*%
X129749000Y-72426000D02*
X130675000Y-71500000D01*
X129749000Y-82941000D02*
X129749000Y-72426000D01*
X128000000Y-84690000D02*
X129749000Y-82941000D01*
%TO.N,/GPIO_8*%
X129750000Y-84925000D02*
X130675000Y-84000000D01*
X129750000Y-88020000D02*
X129750000Y-84925000D01*
X128000000Y-89770000D02*
X129750000Y-88020000D01*
%TO.N,/GPIO_9*%
X128590000Y-92310000D02*
X130650000Y-90250000D01*
X128000000Y-92310000D02*
X128590000Y-92310000D01*
%TO.N,/GPIO_10*%
X130275000Y-94850000D02*
X130625000Y-94500000D01*
X128000000Y-94850000D02*
X130275000Y-94850000D01*
%TO.N,/GPIO_11*%
X130600000Y-99990000D02*
X130600000Y-100800000D01*
X128000000Y-97390000D02*
X130600000Y-99990000D01*
%TO.N,Net-(ESC_9-B)*%
X152515000Y-83000000D02*
X154015000Y-81500000D01*
X154015000Y-81500000D02*
X155444097Y-81500000D01*
X152515000Y-83000000D02*
X154265000Y-84750000D01*
X154265000Y-84750000D02*
X155444097Y-84750000D01*
%TO.N,Net-(SERVO_9-A)*%
X158650000Y-82000000D02*
X157450000Y-82000000D01*
X157450000Y-82000000D02*
X156950000Y-81500000D01*
%TO.N,Net-(ESC_9-A)*%
X158650000Y-84250000D02*
X157450000Y-84250000D01*
X157450000Y-84250000D02*
X156950000Y-84750000D01*
%TO.N,/GPIO_26*%
X160300000Y-82000000D02*
X160300000Y-84250000D01*
%TO.N,Net-(ESC_8-B)*%
X152525000Y-76725000D02*
X154025000Y-75225000D01*
X154025000Y-75225000D02*
X155454097Y-75225000D01*
X152525000Y-76725000D02*
X154275000Y-78475000D01*
X154275000Y-78475000D02*
X155454097Y-78475000D01*
%TO.N,Net-(SERVO_8-A)*%
X158660000Y-75725000D02*
X157460000Y-75725000D01*
X157460000Y-75725000D02*
X156960000Y-75225000D01*
%TO.N,Net-(ESC_8-A)*%
X158660000Y-77975000D02*
X157460000Y-77975000D01*
X157460000Y-77975000D02*
X156960000Y-78475000D01*
%TO.N,/GPIO_27*%
X160310000Y-75725000D02*
X160310000Y-77975000D01*
%TO.N,Net-(ESC_12-B)*%
X152500000Y-101800000D02*
X154000000Y-100300000D01*
X154000000Y-100300000D02*
X155429097Y-100300000D01*
X152500000Y-101800000D02*
X154250000Y-103550000D01*
X154250000Y-103550000D02*
X155429097Y-103550000D01*
%TO.N,Net-(SERVO_12-A)*%
X158635000Y-100800000D02*
X157435000Y-100800000D01*
X157435000Y-100800000D02*
X156935000Y-100300000D01*
%TO.N,Net-(ESC_12-A)*%
X158635000Y-103050000D02*
X157435000Y-103050000D01*
X157435000Y-103050000D02*
X156935000Y-103550000D01*
%TO.N,/GPIO_12*%
X160285000Y-100800000D02*
X160285000Y-103050000D01*
%TO.N,Net-(ESC_11-B)*%
X152500000Y-95500000D02*
X154000000Y-94000000D01*
X154000000Y-94000000D02*
X155429097Y-94000000D01*
X152500000Y-95500000D02*
X154250000Y-97250000D01*
X154250000Y-97250000D02*
X155429097Y-97250000D01*
%TO.N,Net-(SERVO_11-A)*%
X158635000Y-94500000D02*
X157435000Y-94500000D01*
X157435000Y-94500000D02*
X156935000Y-94000000D01*
%TO.N,Net-(ESC_11-A)*%
X158635000Y-96750000D02*
X157435000Y-96750000D01*
X157435000Y-96750000D02*
X156935000Y-97250000D01*
%TO.N,/GPIO_16*%
X160285000Y-94500000D02*
X160285000Y-96750000D01*
%TO.N,Net-(ESC_10-B)*%
X152520903Y-89250000D02*
X154020903Y-87750000D01*
X154020903Y-87750000D02*
X155450000Y-87750000D01*
X152520903Y-89250000D02*
X154270903Y-91000000D01*
X154270903Y-91000000D02*
X155450000Y-91000000D01*
%TO.N,Net-(SERVO_10-A)*%
X158655903Y-88250000D02*
X157455903Y-88250000D01*
X157455903Y-88250000D02*
X156955903Y-87750000D01*
%TO.N,Net-(ESC_10-A)*%
X158655903Y-90500000D02*
X157455903Y-90500000D01*
X157455903Y-90500000D02*
X156955903Y-91000000D01*
%TO.N,/GPIO_17*%
X160305903Y-88250000D02*
X160305903Y-90500000D01*
%TO.N,/GPIO_28*%
X160325000Y-69500000D02*
X160325000Y-71750000D01*
%TO.N,Net-(ESC_7-A)*%
X157475000Y-71750000D02*
X156975000Y-72250000D01*
X158675000Y-71750000D02*
X157475000Y-71750000D01*
%TO.N,Net-(SERVO_7-A)*%
X157475000Y-69500000D02*
X156975000Y-69000000D01*
X158675000Y-69500000D02*
X157475000Y-69500000D01*
%TO.N,Net-(ESC_7-B)*%
X154290000Y-72250000D02*
X155469097Y-72250000D01*
X152540000Y-70500000D02*
X154290000Y-72250000D01*
X154040000Y-69000000D02*
X155469097Y-69000000D01*
X152540000Y-70500000D02*
X154040000Y-69000000D01*
%TO.N,Net-(ESC_1-B)*%
X136910000Y-69000000D02*
X135555903Y-69000000D01*
X136910000Y-72000000D02*
X135530903Y-72000000D01*
X138410000Y-70500000D02*
X136910000Y-69000000D01*
X138410000Y-70500000D02*
X136910000Y-72000000D01*
%TO.N,Net-(ESC_1-A)*%
X133525000Y-71500000D02*
X134025000Y-72000000D01*
X132325000Y-71500000D02*
X133525000Y-71500000D01*
%TO.N,Net-(SERVO_1-A)*%
X132325000Y-69500000D02*
X133550000Y-69500000D01*
X133550000Y-69500000D02*
X134050000Y-69000000D01*
%TO.N,Net-(ESC_2-B)*%
X138385000Y-76750000D02*
X136885000Y-75250000D01*
X136885000Y-78250000D02*
X135505903Y-78250000D01*
X136885000Y-75250000D02*
X135530903Y-75250000D01*
X138385000Y-76750000D02*
X136885000Y-78250000D01*
%TO.N,Net-(ESC_2-A)*%
X133500000Y-77750000D02*
X134000000Y-78250000D01*
X132300000Y-77750000D02*
X133500000Y-77750000D01*
%TO.N,Net-(ESC_3-A)*%
X133525000Y-84000000D02*
X134025000Y-84500000D01*
X132325000Y-84000000D02*
X133525000Y-84000000D01*
%TO.N,Net-(ESC_3-B)*%
X136910000Y-81500000D02*
X135555903Y-81500000D01*
X138410000Y-83000000D02*
X136910000Y-84500000D01*
X138410000Y-83000000D02*
X136910000Y-81500000D01*
X136910000Y-84500000D02*
X135530903Y-84500000D01*
%TO.N,Net-(ESC_4-B)*%
X136885000Y-87750000D02*
X135530903Y-87750000D01*
X136885000Y-90750000D02*
X135505903Y-90750000D01*
X138385000Y-89250000D02*
X136885000Y-87750000D01*
X138385000Y-89250000D02*
X136885000Y-90750000D01*
%TO.N,Net-(ESC_4-A)*%
X133500000Y-90250000D02*
X134000000Y-90750000D01*
X132300000Y-90250000D02*
X133500000Y-90250000D01*
%TO.N,Net-(ESC_5-A)*%
X133475000Y-96500000D02*
X133975000Y-97000000D01*
X132275000Y-96500000D02*
X133475000Y-96500000D01*
%TO.N,Net-(ESC_5-B)*%
X136860000Y-94000000D02*
X135505903Y-94000000D01*
X136860000Y-97000000D02*
X135480903Y-97000000D01*
X138360000Y-95500000D02*
X136860000Y-94000000D01*
X138360000Y-95500000D02*
X136860000Y-97000000D01*
%TO.N,Net-(ESC_6-B)*%
X136835000Y-103300000D02*
X135455903Y-103300000D01*
X136835000Y-100300000D02*
X135480903Y-100300000D01*
X138335000Y-101800000D02*
X136835000Y-103300000D01*
X138335000Y-101800000D02*
X136835000Y-100300000D01*
%TO.N,Net-(ESC_6-A)*%
X133450000Y-102800000D02*
X133950000Y-103300000D01*
X132250000Y-102800000D02*
X133450000Y-102800000D01*
%TO.N,/GPIO_6*%
X130675000Y-69500000D02*
X130675000Y-71500000D01*
%TO.N,/GPIO_7*%
X130650000Y-75750000D02*
X130650000Y-77750000D01*
%TO.N,Net-(SERVO_2-A)*%
X132300000Y-75750000D02*
X133525000Y-75750000D01*
X133525000Y-75750000D02*
X134025000Y-75250000D01*
%TO.N,/GPIO_8*%
X130675000Y-82000000D02*
X130675000Y-84000000D01*
%TO.N,Net-(SERVO_3-A)*%
X133550000Y-82000000D02*
X134050000Y-81500000D01*
X132325000Y-82000000D02*
X133550000Y-82000000D01*
%TO.N,/GPIO_9*%
X130650000Y-88250000D02*
X130650000Y-90250000D01*
%TO.N,Net-(SERVO_4-A)*%
X132300000Y-88250000D02*
X133525000Y-88250000D01*
X133525000Y-88250000D02*
X134025000Y-87750000D01*
%TO.N,/GPIO_10*%
X130625000Y-94500000D02*
X130625000Y-96500000D01*
%TO.N,Net-(SERVO_5-A)*%
X132275000Y-94500000D02*
X133500000Y-94500000D01*
X133500000Y-94500000D02*
X134000000Y-94000000D01*
%TO.N,/GPIO_11*%
X130675000Y-100750000D02*
X130675000Y-102750000D01*
%TO.N,Net-(SERVO_6-A)*%
X133475000Y-100800000D02*
X133975000Y-100300000D01*
X132250000Y-100800000D02*
X133475000Y-100800000D01*
%TD*%
%TA.AperFunction,Conductor*%
%TO.N,/5V_LIGHT*%
G36*
X137093039Y-116769685D02*
G01*
X137138794Y-116822489D01*
X137150000Y-116874000D01*
X137150000Y-117360768D01*
X137130315Y-117427807D01*
X137077511Y-117473562D01*
X137008353Y-117483506D01*
X136957217Y-117463942D01*
X136680414Y-117279407D01*
X136666109Y-117270213D01*
X136534244Y-117212651D01*
X136391509Y-117194570D01*
X136249454Y-117217438D01*
X136249451Y-117217439D01*
X136119598Y-117279399D01*
X135842675Y-117464014D01*
X135775975Y-117484822D01*
X135708615Y-117466267D01*
X135661979Y-117414239D01*
X135651604Y-117359336D01*
X135650000Y-117359336D01*
X135650000Y-116874000D01*
X135669685Y-116806961D01*
X135722489Y-116761206D01*
X135774000Y-116750000D01*
X137026000Y-116750000D01*
X137093039Y-116769685D01*
G37*
%TD.AperFunction*%
%TA.AperFunction,Conductor*%
G36*
X140193039Y-116769685D02*
G01*
X140238794Y-116822489D01*
X140250000Y-116874000D01*
X140250000Y-117360768D01*
X140230315Y-117427807D01*
X140177511Y-117473562D01*
X140108353Y-117483506D01*
X140057217Y-117463942D01*
X139780414Y-117279407D01*
X139766109Y-117270213D01*
X139634244Y-117212651D01*
X139491509Y-117194570D01*
X139349454Y-117217438D01*
X139349451Y-117217439D01*
X139219598Y-117279399D01*
X138942783Y-117463942D01*
X138876083Y-117484750D01*
X138808723Y-117466195D01*
X138762087Y-117414167D01*
X138750000Y-117360768D01*
X138750000Y-116874000D01*
X138769685Y-116806961D01*
X138822489Y-116761206D01*
X138874000Y-116750000D01*
X140126000Y-116750000D01*
X140193039Y-116769685D01*
G37*
%TD.AperFunction*%
%TA.AperFunction,Conductor*%
G36*
X133409784Y-113019685D02*
G01*
X133455539Y-113072489D01*
X133457641Y-113077365D01*
X133461689Y-113087339D01*
X133461695Y-113087350D01*
X133551165Y-113200011D01*
X133551169Y-113200016D01*
X133572316Y-113219987D01*
X133601966Y-113247990D01*
X133602011Y-113248033D01*
X133618878Y-113259920D01*
X133620677Y-113261288D01*
X133626302Y-113268922D01*
X133660697Y-113293910D01*
X133660697Y-113293911D01*
X133792585Y-113389732D01*
X133792587Y-113389733D01*
X133807383Y-113402371D01*
X133887626Y-113482614D01*
X133900263Y-113497410D01*
X133966967Y-113589221D01*
X133977133Y-113605809D01*
X133999904Y-113650500D01*
X134028661Y-113706939D01*
X134036105Y-113724911D01*
X134036107Y-113724915D01*
X134071179Y-113832853D01*
X134075721Y-113851774D01*
X134093473Y-113963853D01*
X134095000Y-113983251D01*
X134095000Y-114096747D01*
X134093473Y-114116145D01*
X134075721Y-114228224D01*
X134071179Y-114247145D01*
X134036106Y-114355086D01*
X134028660Y-114373062D01*
X133977140Y-114474175D01*
X133966974Y-114490764D01*
X133900259Y-114582592D01*
X133887621Y-114597389D01*
X133807387Y-114677623D01*
X133792591Y-114690261D01*
X133700770Y-114756972D01*
X133684180Y-114767138D01*
X133583062Y-114818660D01*
X133565086Y-114826106D01*
X133457145Y-114861179D01*
X133438225Y-114865721D01*
X133382186Y-114874597D01*
X133326145Y-114883473D01*
X133306749Y-114885000D01*
X133193252Y-114885000D01*
X133173854Y-114883473D01*
X133061774Y-114865721D01*
X133042853Y-114861179D01*
X132934912Y-114826106D01*
X132916936Y-114818660D01*
X132815819Y-114767138D01*
X132799230Y-114756972D01*
X132707409Y-114690262D01*
X132692612Y-114677624D01*
X132612369Y-114597381D01*
X132599732Y-114582585D01*
X132559047Y-114526586D01*
X132533028Y-114490774D01*
X132522868Y-114474194D01*
X132471337Y-114373060D01*
X132463893Y-114355087D01*
X132463491Y-114353851D01*
X132428820Y-114247143D01*
X132424278Y-114228222D01*
X132406527Y-114116144D01*
X132405000Y-114096747D01*
X132405000Y-113983254D01*
X132406525Y-113963869D01*
X132424282Y-113851751D01*
X132428816Y-113832865D01*
X132463896Y-113724899D01*
X132471334Y-113706943D01*
X132522871Y-113605797D01*
X132533024Y-113589228D01*
X132599735Y-113497407D01*
X132612363Y-113482622D01*
X132692621Y-113402364D01*
X132707405Y-113389737D01*
X132839305Y-113293909D01*
X132839304Y-113293908D01*
X132879119Y-113264983D01*
X132878985Y-113264807D01*
X132881979Y-113262515D01*
X132906040Y-113241666D01*
X132927026Y-113223482D01*
X133009156Y-113132705D01*
X133042276Y-113067703D01*
X133052724Y-113056640D01*
X133059047Y-113042797D01*
X133076227Y-113031755D01*
X133090250Y-113016909D01*
X133105929Y-113012667D01*
X133117825Y-113005023D01*
X133152760Y-113000000D01*
X133342745Y-113000000D01*
X133409784Y-113019685D01*
G37*
%TD.AperFunction*%
%TA.AperFunction,Conductor*%
G36*
X142659784Y-113019685D02*
G01*
X142705539Y-113072489D01*
X142707641Y-113077365D01*
X142711689Y-113087339D01*
X142711695Y-113087350D01*
X142801165Y-113200011D01*
X142801169Y-113200016D01*
X142822316Y-113219987D01*
X142851966Y-113247990D01*
X142852011Y-113248033D01*
X142868878Y-113259920D01*
X142870677Y-113261288D01*
X142876302Y-113268922D01*
X142910697Y-113293910D01*
X142910697Y-113293911D01*
X143042585Y-113389732D01*
X143042587Y-113389733D01*
X143057377Y-113402365D01*
X143175377Y-113520365D01*
X143188339Y-113532874D01*
X143194817Y-113538906D01*
X143208265Y-113550987D01*
X143329305Y-113628774D01*
X143329310Y-113628776D01*
X143329315Y-113628779D01*
X143344640Y-113635777D01*
X143392861Y-113657799D01*
X143392864Y-113657801D01*
X143530917Y-113698335D01*
X143543078Y-113698334D01*
X143559517Y-113702950D01*
X143575227Y-113712784D01*
X143593013Y-113718002D01*
X143604227Y-113730937D01*
X143618740Y-113740022D01*
X143626639Y-113756789D01*
X143638781Y-113770794D01*
X143643541Y-113792662D01*
X143648519Y-113803228D01*
X143647509Y-113810893D01*
X143650000Y-113822334D01*
X143650000Y-114262516D01*
X143630315Y-114329555D01*
X143577511Y-114375310D01*
X143534846Y-114386199D01*
X143502348Y-114388524D01*
X143486689Y-114389644D01*
X143351883Y-114439925D01*
X143290558Y-114473410D01*
X143290553Y-114473414D01*
X143205388Y-114537155D01*
X143205334Y-114537196D01*
X143175442Y-114559569D01*
X143172864Y-114562145D01*
X143172860Y-114562149D01*
X143170444Y-114564564D01*
X143170398Y-114564613D01*
X143057383Y-114677626D01*
X143042589Y-114690261D01*
X143042588Y-114690262D01*
X142950770Y-114756971D01*
X142934180Y-114767138D01*
X142833062Y-114818660D01*
X142815086Y-114826106D01*
X142707145Y-114861179D01*
X142688225Y-114865721D01*
X142632186Y-114874597D01*
X142576145Y-114883473D01*
X142556749Y-114885000D01*
X142443252Y-114885000D01*
X142423854Y-114883473D01*
X142311774Y-114865721D01*
X142292853Y-114861179D01*
X142184912Y-114826106D01*
X142166936Y-114818660D01*
X142065819Y-114767138D01*
X142049230Y-114756972D01*
X141957409Y-114690262D01*
X141942612Y-114677624D01*
X141862369Y-114597381D01*
X141849732Y-114582585D01*
X141809047Y-114526586D01*
X141783028Y-114490774D01*
X141772868Y-114474194D01*
X141721337Y-114373060D01*
X141713893Y-114355087D01*
X141713491Y-114353851D01*
X141678820Y-114247143D01*
X141674278Y-114228222D01*
X141656527Y-114116144D01*
X141655000Y-114096747D01*
X141655000Y-113983254D01*
X141656525Y-113963869D01*
X141674282Y-113851751D01*
X141678816Y-113832865D01*
X141713896Y-113724899D01*
X141721334Y-113706943D01*
X141772871Y-113605797D01*
X141783024Y-113589228D01*
X141849735Y-113497407D01*
X141862363Y-113482622D01*
X141942621Y-113402364D01*
X141957405Y-113389737D01*
X142089305Y-113293909D01*
X142089304Y-113293908D01*
X142129119Y-113264983D01*
X142128985Y-113264807D01*
X142131979Y-113262515D01*
X142156040Y-113241666D01*
X142177026Y-113223482D01*
X142259156Y-113132705D01*
X142292276Y-113067703D01*
X142302724Y-113056640D01*
X142309047Y-113042797D01*
X142326227Y-113031755D01*
X142340250Y-113016909D01*
X142355929Y-113012667D01*
X142367825Y-113005023D01*
X142402760Y-113000000D01*
X142592745Y-113000000D01*
X142659784Y-113019685D01*
G37*
%TD.AperFunction*%
%TA.AperFunction,Conductor*%
G36*
X136660102Y-113095185D02*
G01*
X136705857Y-113147989D01*
X136709239Y-113156153D01*
X136751188Y-113268619D01*
X136784673Y-113329942D01*
X136870897Y-113445123D01*
X136870898Y-113445124D01*
X136870906Y-113445133D01*
X136918977Y-113493203D01*
X136937413Y-113516734D01*
X136946336Y-113531494D01*
X136958605Y-113558753D01*
X136964385Y-113577301D01*
X136970000Y-113614193D01*
X136970000Y-114035805D01*
X136964383Y-114072702D01*
X136958602Y-114091250D01*
X136946339Y-114118498D01*
X136937419Y-114133255D01*
X136918980Y-114156791D01*
X136906791Y-114168980D01*
X136883258Y-114187417D01*
X136868502Y-114196337D01*
X136841250Y-114208603D01*
X136822701Y-114214384D01*
X136785805Y-114220000D01*
X136214193Y-114220000D01*
X136212834Y-114219793D01*
X136212147Y-114219983D01*
X136177300Y-114214384D01*
X136158753Y-114208604D01*
X136131495Y-114196336D01*
X136116740Y-114187416D01*
X136093210Y-114168981D01*
X136081019Y-114156790D01*
X136062585Y-114133261D01*
X136053663Y-114118503D01*
X136041392Y-114091238D01*
X136035614Y-114072694D01*
X136030000Y-114035807D01*
X136030000Y-113614189D01*
X136030205Y-113612837D01*
X136030017Y-113612154D01*
X136035611Y-113577310D01*
X136041392Y-113558755D01*
X136053661Y-113531497D01*
X136062586Y-113516734D01*
X136081014Y-113493212D01*
X136129102Y-113445125D01*
X136196911Y-113360981D01*
X136225412Y-113316634D01*
X136273791Y-113219985D01*
X136283980Y-113173142D01*
X136298685Y-113146213D01*
X136311434Y-113118297D01*
X136315276Y-113115827D01*
X136317465Y-113111820D01*
X136344395Y-113097114D01*
X136370212Y-113080523D01*
X136376410Y-113079631D01*
X136378787Y-113078334D01*
X136405147Y-113075500D01*
X136593063Y-113075500D01*
X136660102Y-113095185D01*
G37*
%TD.AperFunction*%
%TA.AperFunction,Conductor*%
G36*
X139560102Y-113095185D02*
G01*
X139605857Y-113147989D01*
X139609239Y-113156153D01*
X139651188Y-113268619D01*
X139684673Y-113329942D01*
X139770897Y-113445123D01*
X139770898Y-113445124D01*
X139770906Y-113445133D01*
X139818977Y-113493203D01*
X139837413Y-113516734D01*
X139846336Y-113531494D01*
X139858605Y-113558753D01*
X139864385Y-113577301D01*
X139870000Y-113614193D01*
X139870000Y-114035805D01*
X139864383Y-114072702D01*
X139858602Y-114091250D01*
X139846339Y-114118498D01*
X139837419Y-114133255D01*
X139818980Y-114156791D01*
X139806791Y-114168980D01*
X139783258Y-114187417D01*
X139768502Y-114196337D01*
X139741250Y-114208603D01*
X139722701Y-114214384D01*
X139685805Y-114220000D01*
X139114193Y-114220000D01*
X139112834Y-114219793D01*
X139112147Y-114219983D01*
X139077300Y-114214384D01*
X139058753Y-114208604D01*
X139031495Y-114196336D01*
X139016740Y-114187416D01*
X138993210Y-114168981D01*
X138981019Y-114156790D01*
X138962585Y-114133261D01*
X138953663Y-114118503D01*
X138941392Y-114091238D01*
X138935614Y-114072694D01*
X138930000Y-114035807D01*
X138930000Y-113614189D01*
X138930205Y-113612837D01*
X138930017Y-113612154D01*
X138935611Y-113577310D01*
X138941392Y-113558755D01*
X138953661Y-113531497D01*
X138962586Y-113516734D01*
X138981014Y-113493212D01*
X139029102Y-113445125D01*
X139096911Y-113360981D01*
X139125412Y-113316634D01*
X139173791Y-113219985D01*
X139183980Y-113173142D01*
X139198685Y-113146213D01*
X139211434Y-113118297D01*
X139215276Y-113115827D01*
X139217465Y-113111820D01*
X139244395Y-113097114D01*
X139270212Y-113080523D01*
X139276410Y-113079631D01*
X139278787Y-113078334D01*
X139305147Y-113075500D01*
X139493063Y-113075500D01*
X139560102Y-113095185D01*
G37*
%TD.AperFunction*%
%TD*%
%TA.AperFunction,Conductor*%
%TO.N,+5V_EXT*%
G36*
X135127621Y-118003726D02*
G01*
X135173558Y-118056372D01*
X135179315Y-118071342D01*
X135193774Y-118117690D01*
X135193775Y-118117691D01*
X135273585Y-118237405D01*
X135383890Y-118329786D01*
X135383893Y-118329787D01*
X135383894Y-118329788D01*
X135515754Y-118387348D01*
X135658490Y-118405429D01*
X135658491Y-118405428D01*
X135658494Y-118405429D01*
X135800546Y-118382562D01*
X135930401Y-118320601D01*
X136331218Y-118053389D01*
X136397915Y-118032582D01*
X136465276Y-118051137D01*
X136468782Y-118053390D01*
X136666355Y-118185105D01*
X136869599Y-118320601D01*
X136940008Y-118359819D01*
X136991473Y-118374930D01*
X137078059Y-118400355D01*
X137078060Y-118400355D01*
X137221941Y-118400355D01*
X137266237Y-118387348D01*
X137359992Y-118359819D01*
X137481032Y-118282031D01*
X137532289Y-118222877D01*
X137591065Y-118185105D01*
X137660935Y-118185105D01*
X137719713Y-118222879D01*
X137748738Y-118286435D01*
X137750000Y-118304082D01*
X137750000Y-124126000D01*
X137730315Y-124193039D01*
X137677511Y-124238794D01*
X137626000Y-124250000D01*
X130624000Y-124250000D01*
X130556961Y-124230315D01*
X130511206Y-124177511D01*
X130500000Y-124126000D01*
X130500000Y-118123572D01*
X130519685Y-118056533D01*
X130572489Y-118010778D01*
X130623567Y-117999573D01*
X135060517Y-117984274D01*
X135127621Y-118003726D01*
G37*
%TD.AperFunction*%
%TD*%
%TA.AperFunction,Conductor*%
%TO.N,Net-(U1-SW)*%
G36*
X152652117Y-117034048D02*
G01*
X152664316Y-117042304D01*
X152740963Y-117101117D01*
X152740964Y-117101117D01*
X152740965Y-117101118D01*
X152762261Y-117109939D01*
X152884001Y-117160365D01*
X152998960Y-117175500D01*
X152998967Y-117175500D01*
X153576033Y-117175500D01*
X153576040Y-117175500D01*
X153690999Y-117160365D01*
X153812739Y-117109938D01*
X153860191Y-117100500D01*
X154900453Y-117100500D01*
X154967492Y-117120185D01*
X154997724Y-117147595D01*
X155002032Y-117153044D01*
X155121956Y-117272968D01*
X155121958Y-117272969D01*
X155121959Y-117272970D01*
X155266294Y-117361998D01*
X155266297Y-117361999D01*
X155266303Y-117362003D01*
X155427292Y-117415349D01*
X155526655Y-117425500D01*
X156123344Y-117425499D01*
X156123352Y-117425498D01*
X156123355Y-117425498D01*
X156177760Y-117419940D01*
X156222708Y-117415349D01*
X156336999Y-117377476D01*
X156406824Y-117375075D01*
X156466866Y-117410806D01*
X156498059Y-117473326D01*
X156500000Y-117495183D01*
X156500000Y-120126000D01*
X156480315Y-120193039D01*
X156427511Y-120238794D01*
X156376000Y-120250000D01*
X152828033Y-120250000D01*
X152760994Y-120230315D01*
X152715239Y-120177511D01*
X152705295Y-120108353D01*
X152722494Y-120060904D01*
X152809810Y-119919340D01*
X152809814Y-119919334D01*
X152864999Y-119752797D01*
X152875500Y-119650009D01*
X152875499Y-117849992D01*
X152864999Y-117747203D01*
X152809814Y-117580666D01*
X152717712Y-117431344D01*
X152593656Y-117307288D01*
X152593655Y-117307287D01*
X152538014Y-117272968D01*
X152517826Y-117260516D01*
X152495150Y-117235306D01*
X152472038Y-117210481D01*
X152471841Y-117209392D01*
X152471102Y-117208570D01*
X152465652Y-117175082D01*
X152459634Y-117141721D01*
X152459993Y-117140311D01*
X152459879Y-117139607D01*
X152468361Y-117107529D01*
X152474283Y-117093232D01*
X152518124Y-117038832D01*
X152584418Y-117016768D01*
X152652117Y-117034048D01*
G37*
%TD.AperFunction*%
%TD*%
%TA.AperFunction,Conductor*%
%TO.N,Net-(U1-FB)*%
G36*
X155693039Y-112019685D02*
G01*
X155738794Y-112072489D01*
X155750000Y-112124000D01*
X155750000Y-113958130D01*
X155730315Y-114025169D01*
X155723614Y-114034599D01*
X155719530Y-114039811D01*
X155631522Y-114185393D01*
X155580913Y-114347807D01*
X155574500Y-114418386D01*
X155574500Y-115081613D01*
X155580913Y-115152192D01*
X155631522Y-115314606D01*
X155644667Y-115336350D01*
X155662503Y-115403905D01*
X155640985Y-115470379D01*
X155586945Y-115514666D01*
X155538558Y-115524500D01*
X155526666Y-115524500D01*
X155526644Y-115524501D01*
X155427292Y-115534650D01*
X155427289Y-115534651D01*
X155266305Y-115587996D01*
X155266294Y-115588001D01*
X155121959Y-115677029D01*
X155121955Y-115677032D01*
X155085307Y-115713681D01*
X155023984Y-115747166D01*
X154997626Y-115750000D01*
X154189491Y-115750000D01*
X154122452Y-115730315D01*
X154076697Y-115677511D01*
X154074930Y-115673453D01*
X154051116Y-115615961D01*
X154018281Y-115573169D01*
X153956867Y-115493133D01*
X153834037Y-115398883D01*
X153834036Y-115398882D01*
X153834037Y-115398882D01*
X153691002Y-115339636D01*
X153691000Y-115339635D01*
X153690999Y-115339635D01*
X153665452Y-115336271D01*
X153576047Y-115324500D01*
X153576040Y-115324500D01*
X152998960Y-115324500D01*
X152998954Y-115324500D01*
X152998949Y-115324501D01*
X152890185Y-115338820D01*
X152821150Y-115328054D01*
X152768894Y-115281674D01*
X152750000Y-115215881D01*
X152750000Y-113810388D01*
X152769685Y-113743349D01*
X152822489Y-113697594D01*
X152891647Y-113687650D01*
X152910877Y-113691999D01*
X152997804Y-113719086D01*
X153068384Y-113725500D01*
X153068387Y-113725500D01*
X153581613Y-113725500D01*
X153581616Y-113725500D01*
X153652196Y-113719086D01*
X153814606Y-113668478D01*
X153960185Y-113580472D01*
X154080472Y-113460185D01*
X154168478Y-113314606D01*
X154219086Y-113152196D01*
X154225500Y-113081616D01*
X154225500Y-112418384D01*
X154219086Y-112347804D01*
X154168478Y-112185394D01*
X154168475Y-112185389D01*
X154165400Y-112178555D01*
X154167374Y-112177666D01*
X154152308Y-112120586D01*
X154173831Y-112054114D01*
X154227874Y-112009830D01*
X154276261Y-112000000D01*
X155626000Y-112000000D01*
X155693039Y-112019685D01*
G37*
%TD.AperFunction*%
%TD*%
%TA.AperFunction,Conductor*%
%TO.N,+5V*%
G36*
X150943039Y-68769685D02*
G01*
X150988794Y-68822489D01*
X151000000Y-68874000D01*
X151000000Y-103376000D01*
X150980315Y-103443039D01*
X150927511Y-103488794D01*
X150876000Y-103500000D01*
X147250000Y-103500000D01*
X147250000Y-116253845D01*
X147230315Y-116320884D01*
X147191098Y-116359383D01*
X147121957Y-116402030D01*
X147002029Y-116521959D01*
X146913001Y-116666294D01*
X146912996Y-116666305D01*
X146859651Y-116827290D01*
X146849500Y-116926647D01*
X146849500Y-117473337D01*
X146849501Y-117473355D01*
X146859650Y-117572707D01*
X146859651Y-117572710D01*
X146912996Y-117733694D01*
X146913001Y-117733705D01*
X147002029Y-117878040D01*
X147002032Y-117878044D01*
X147121955Y-117997967D01*
X147121959Y-117997970D01*
X147266294Y-118086998D01*
X147266297Y-118086999D01*
X147266303Y-118087003D01*
X147427292Y-118140349D01*
X147526655Y-118150500D01*
X148123344Y-118150499D01*
X148123352Y-118150498D01*
X148123355Y-118150498D01*
X148177760Y-118144940D01*
X148222708Y-118140349D01*
X148383697Y-118087003D01*
X148528044Y-117997968D01*
X148647968Y-117878044D01*
X148690616Y-117808900D01*
X148698201Y-117802078D01*
X148702440Y-117792797D01*
X148723739Y-117779108D01*
X148742562Y-117762179D01*
X148754197Y-117759534D01*
X148761218Y-117755023D01*
X148796153Y-117750000D01*
X148853847Y-117750000D01*
X148920886Y-117769685D01*
X148959383Y-117808900D01*
X148996730Y-117869448D01*
X149002033Y-117878045D01*
X149121955Y-117997967D01*
X149121959Y-117997970D01*
X149266294Y-118086998D01*
X149266297Y-118086999D01*
X149266303Y-118087003D01*
X149427292Y-118140349D01*
X149526655Y-118150500D01*
X150123344Y-118150499D01*
X150123352Y-118150498D01*
X150123355Y-118150498D01*
X150177760Y-118144940D01*
X150222708Y-118140349D01*
X150383697Y-118087003D01*
X150528044Y-117997968D01*
X150647968Y-117878044D01*
X150690616Y-117808900D01*
X150742562Y-117762179D01*
X150796153Y-117750000D01*
X152243854Y-117750000D01*
X152267235Y-117756865D01*
X152291464Y-117759504D01*
X152300163Y-117766534D01*
X152310893Y-117769685D01*
X152326850Y-117788100D01*
X152345807Y-117803420D01*
X152353517Y-117818876D01*
X152356648Y-117822489D01*
X152361562Y-117835002D01*
X152363472Y-117840767D01*
X152369121Y-117867150D01*
X152369356Y-117869448D01*
X152369999Y-117882063D01*
X152369999Y-119617933D01*
X152369356Y-119630542D01*
X152369121Y-119632841D01*
X152363472Y-119659230D01*
X152361561Y-119664998D01*
X152321791Y-119722445D01*
X152257277Y-119749271D01*
X152243853Y-119750000D01*
X138374000Y-119750000D01*
X138306961Y-119730315D01*
X138261206Y-119677511D01*
X138250000Y-119626000D01*
X138250000Y-118399495D01*
X138269685Y-118332456D01*
X138322489Y-118286701D01*
X138391647Y-118276757D01*
X138453613Y-118304429D01*
X138483890Y-118329786D01*
X138483891Y-118329786D01*
X138483893Y-118329788D01*
X138615754Y-118387348D01*
X138758490Y-118405429D01*
X138758491Y-118405428D01*
X138758494Y-118405429D01*
X138900546Y-118382562D01*
X139030401Y-118320601D01*
X139431218Y-118053389D01*
X139497915Y-118032582D01*
X139565276Y-118051137D01*
X139568782Y-118053390D01*
X139748646Y-118173299D01*
X139969599Y-118320601D01*
X140040008Y-118359819D01*
X140091473Y-118374930D01*
X140178059Y-118400355D01*
X140178060Y-118400355D01*
X140321941Y-118400355D01*
X140366237Y-118387348D01*
X140459992Y-118359819D01*
X140581032Y-118282031D01*
X140675254Y-118173294D01*
X140721291Y-118072488D01*
X140767046Y-118019684D01*
X140834085Y-118000000D01*
X144250000Y-118000000D01*
X144250000Y-103500000D01*
X139874000Y-103500000D01*
X139806961Y-103480315D01*
X139761206Y-103427511D01*
X139750000Y-103376000D01*
X139750000Y-100902135D01*
X142064500Y-100902135D01*
X142064500Y-102697870D01*
X142064501Y-102697876D01*
X142070908Y-102757483D01*
X142121202Y-102892328D01*
X142121206Y-102892335D01*
X142207452Y-103007544D01*
X142207455Y-103007547D01*
X142322664Y-103093793D01*
X142322671Y-103093797D01*
X142457517Y-103144091D01*
X142457516Y-103144091D01*
X142464444Y-103144835D01*
X142517127Y-103150500D01*
X144312872Y-103150499D01*
X144372483Y-103144091D01*
X144507331Y-103093796D01*
X144622546Y-103007546D01*
X144708796Y-102892331D01*
X144759091Y-102757483D01*
X144765500Y-102697873D01*
X144765499Y-100902135D01*
X146069500Y-100902135D01*
X146069500Y-102697870D01*
X146069501Y-102697876D01*
X146075908Y-102757483D01*
X146126202Y-102892328D01*
X146126206Y-102892335D01*
X146212452Y-103007544D01*
X146212455Y-103007547D01*
X146327664Y-103093793D01*
X146327671Y-103093797D01*
X146462517Y-103144091D01*
X146462516Y-103144091D01*
X146469444Y-103144835D01*
X146522127Y-103150500D01*
X148317872Y-103150499D01*
X148377483Y-103144091D01*
X148512331Y-103093796D01*
X148627546Y-103007546D01*
X148713796Y-102892331D01*
X148764091Y-102757483D01*
X148770500Y-102697873D01*
X148770499Y-100902128D01*
X148764091Y-100842517D01*
X148713796Y-100707669D01*
X148713795Y-100707668D01*
X148713793Y-100707664D01*
X148627547Y-100592455D01*
X148627544Y-100592452D01*
X148512335Y-100506206D01*
X148512328Y-100506202D01*
X148377482Y-100455908D01*
X148377483Y-100455908D01*
X148317883Y-100449501D01*
X148317881Y-100449500D01*
X148317873Y-100449500D01*
X148317864Y-100449500D01*
X146522129Y-100449500D01*
X146522123Y-100449501D01*
X146462516Y-100455908D01*
X146327671Y-100506202D01*
X146327664Y-100506206D01*
X146212455Y-100592452D01*
X146212452Y-100592455D01*
X146126206Y-100707664D01*
X146126202Y-100707671D01*
X146075908Y-100842517D01*
X146069501Y-100902116D01*
X146069501Y-100902123D01*
X146069500Y-100902135D01*
X144765499Y-100902135D01*
X144765499Y-100902128D01*
X144759091Y-100842517D01*
X144708796Y-100707669D01*
X144708795Y-100707668D01*
X144708793Y-100707664D01*
X144622547Y-100592455D01*
X144622544Y-100592452D01*
X144507335Y-100506206D01*
X144507328Y-100506202D01*
X144372482Y-100455908D01*
X144372483Y-100455908D01*
X144312883Y-100449501D01*
X144312881Y-100449500D01*
X144312873Y-100449500D01*
X144312864Y-100449500D01*
X142517129Y-100449500D01*
X142517123Y-100449501D01*
X142457516Y-100455908D01*
X142322671Y-100506202D01*
X142322664Y-100506206D01*
X142207455Y-100592452D01*
X142207452Y-100592455D01*
X142121206Y-100707664D01*
X142121202Y-100707671D01*
X142070908Y-100842517D01*
X142064501Y-100902116D01*
X142064501Y-100902123D01*
X142064500Y-100902135D01*
X139750000Y-100902135D01*
X139750000Y-94602135D01*
X142089500Y-94602135D01*
X142089500Y-96397870D01*
X142089501Y-96397876D01*
X142095908Y-96457483D01*
X142146202Y-96592328D01*
X142146206Y-96592335D01*
X142232452Y-96707544D01*
X142232455Y-96707547D01*
X142347664Y-96793793D01*
X142347671Y-96793797D01*
X142482517Y-96844091D01*
X142482516Y-96844091D01*
X142489444Y-96844835D01*
X142542127Y-96850500D01*
X144337872Y-96850499D01*
X144397483Y-96844091D01*
X144532331Y-96793796D01*
X144647546Y-96707546D01*
X144733796Y-96592331D01*
X144784091Y-96457483D01*
X144790500Y-96397873D01*
X144790499Y-94602135D01*
X146069500Y-94602135D01*
X146069500Y-96397870D01*
X146069501Y-96397876D01*
X146075908Y-96457483D01*
X146126202Y-96592328D01*
X146126206Y-96592335D01*
X146212452Y-96707544D01*
X146212455Y-96707547D01*
X146327664Y-96793793D01*
X146327671Y-96793797D01*
X146462517Y-96844091D01*
X146462516Y-96844091D01*
X146469444Y-96844835D01*
X146522127Y-96850500D01*
X148317872Y-96850499D01*
X148377483Y-96844091D01*
X148512331Y-96793796D01*
X148627546Y-96707546D01*
X148713796Y-96592331D01*
X148764091Y-96457483D01*
X148770500Y-96397873D01*
X148770499Y-94602128D01*
X148764091Y-94542517D01*
X148713796Y-94407669D01*
X148713795Y-94407668D01*
X148713793Y-94407664D01*
X148627547Y-94292455D01*
X148627544Y-94292452D01*
X148512335Y-94206206D01*
X148512328Y-94206202D01*
X148377482Y-94155908D01*
X148377483Y-94155908D01*
X148317883Y-94149501D01*
X148317881Y-94149500D01*
X148317873Y-94149500D01*
X148317864Y-94149500D01*
X146522129Y-94149500D01*
X146522123Y-94149501D01*
X146462516Y-94155908D01*
X146327671Y-94206202D01*
X146327664Y-94206206D01*
X146212455Y-94292452D01*
X146212452Y-94292455D01*
X146126206Y-94407664D01*
X146126202Y-94407671D01*
X146075908Y-94542517D01*
X146069501Y-94602116D01*
X146069501Y-94602123D01*
X146069500Y-94602135D01*
X144790499Y-94602135D01*
X144790499Y-94602128D01*
X144784091Y-94542517D01*
X144733796Y-94407669D01*
X144733795Y-94407668D01*
X144733793Y-94407664D01*
X144647547Y-94292455D01*
X144647544Y-94292452D01*
X144532335Y-94206206D01*
X144532328Y-94206202D01*
X144397482Y-94155908D01*
X144397483Y-94155908D01*
X144337883Y-94149501D01*
X144337881Y-94149500D01*
X144337873Y-94149500D01*
X144337864Y-94149500D01*
X142542129Y-94149500D01*
X142542123Y-94149501D01*
X142482516Y-94155908D01*
X142347671Y-94206202D01*
X142347664Y-94206206D01*
X142232455Y-94292452D01*
X142232452Y-94292455D01*
X142146206Y-94407664D01*
X142146202Y-94407671D01*
X142095908Y-94542517D01*
X142089501Y-94602116D01*
X142089501Y-94602123D01*
X142089500Y-94602135D01*
X139750000Y-94602135D01*
X139750000Y-88352135D01*
X142114500Y-88352135D01*
X142114500Y-90147870D01*
X142114501Y-90147876D01*
X142120908Y-90207483D01*
X142171202Y-90342328D01*
X142171206Y-90342335D01*
X142257452Y-90457544D01*
X142257455Y-90457547D01*
X142372664Y-90543793D01*
X142372671Y-90543797D01*
X142507517Y-90594091D01*
X142507516Y-90594091D01*
X142514444Y-90594835D01*
X142567127Y-90600500D01*
X144362872Y-90600499D01*
X144422483Y-90594091D01*
X144557331Y-90543796D01*
X144672546Y-90457546D01*
X144758796Y-90342331D01*
X144809091Y-90207483D01*
X144815500Y-90147873D01*
X144815499Y-88352135D01*
X146090403Y-88352135D01*
X146090403Y-90147870D01*
X146090404Y-90147876D01*
X146096811Y-90207483D01*
X146147105Y-90342328D01*
X146147109Y-90342335D01*
X146233355Y-90457544D01*
X146233358Y-90457547D01*
X146348567Y-90543793D01*
X146348574Y-90543797D01*
X146483420Y-90594091D01*
X146483419Y-90594091D01*
X146490347Y-90594835D01*
X146543030Y-90600500D01*
X148338775Y-90600499D01*
X148398386Y-90594091D01*
X148533234Y-90543796D01*
X148648449Y-90457546D01*
X148734699Y-90342331D01*
X148784994Y-90207483D01*
X148791403Y-90147873D01*
X148791402Y-88352128D01*
X148784994Y-88292517D01*
X148734699Y-88157669D01*
X148734698Y-88157668D01*
X148734696Y-88157664D01*
X148648450Y-88042455D01*
X148648447Y-88042452D01*
X148533238Y-87956206D01*
X148533231Y-87956202D01*
X148398385Y-87905908D01*
X148398386Y-87905908D01*
X148338786Y-87899501D01*
X148338784Y-87899500D01*
X148338776Y-87899500D01*
X148338767Y-87899500D01*
X146543032Y-87899500D01*
X146543026Y-87899501D01*
X146483419Y-87905908D01*
X146348574Y-87956202D01*
X146348567Y-87956206D01*
X146233358Y-88042452D01*
X146233355Y-88042455D01*
X146147109Y-88157664D01*
X146147105Y-88157671D01*
X146096811Y-88292517D01*
X146090404Y-88352116D01*
X146090404Y-88352123D01*
X146090403Y-88352135D01*
X144815499Y-88352135D01*
X144815499Y-88352128D01*
X144809091Y-88292517D01*
X144758796Y-88157669D01*
X144758795Y-88157668D01*
X144758793Y-88157664D01*
X144672547Y-88042455D01*
X144672544Y-88042452D01*
X144557335Y-87956206D01*
X144557328Y-87956202D01*
X144422482Y-87905908D01*
X144422483Y-87905908D01*
X144362883Y-87899501D01*
X144362881Y-87899500D01*
X144362873Y-87899500D01*
X144362864Y-87899500D01*
X142567129Y-87899500D01*
X142567123Y-87899501D01*
X142507516Y-87905908D01*
X142372671Y-87956202D01*
X142372664Y-87956206D01*
X142257455Y-88042452D01*
X142257452Y-88042455D01*
X142171206Y-88157664D01*
X142171202Y-88157671D01*
X142120908Y-88292517D01*
X142114501Y-88352116D01*
X142114501Y-88352123D01*
X142114500Y-88352135D01*
X139750000Y-88352135D01*
X139750000Y-83182336D01*
X139751527Y-83162938D01*
X139760500Y-83106285D01*
X139760500Y-82893713D01*
X139751527Y-82837060D01*
X139750000Y-82817662D01*
X139750000Y-82102135D01*
X142139500Y-82102135D01*
X142139500Y-83897870D01*
X142139501Y-83897876D01*
X142145908Y-83957483D01*
X142196202Y-84092328D01*
X142196206Y-84092335D01*
X142282452Y-84207544D01*
X142282455Y-84207547D01*
X142397664Y-84293793D01*
X142397671Y-84293797D01*
X142532517Y-84344091D01*
X142532516Y-84344091D01*
X142539444Y-84344835D01*
X142592127Y-84350500D01*
X144387872Y-84350499D01*
X144447483Y-84344091D01*
X144582331Y-84293796D01*
X144697546Y-84207546D01*
X144783796Y-84092331D01*
X144834091Y-83957483D01*
X144840500Y-83897873D01*
X144840499Y-82102135D01*
X146084500Y-82102135D01*
X146084500Y-83897870D01*
X146084501Y-83897876D01*
X146090908Y-83957483D01*
X146141202Y-84092328D01*
X146141206Y-84092335D01*
X146227452Y-84207544D01*
X146227455Y-84207547D01*
X146342664Y-84293793D01*
X146342671Y-84293797D01*
X146477517Y-84344091D01*
X146477516Y-84344091D01*
X146484444Y-84344835D01*
X146537127Y-84350500D01*
X148332872Y-84350499D01*
X148392483Y-84344091D01*
X148527331Y-84293796D01*
X148642546Y-84207546D01*
X148728796Y-84092331D01*
X148779091Y-83957483D01*
X148785500Y-83897873D01*
X148785499Y-82102128D01*
X148779091Y-82042517D01*
X148728796Y-81907669D01*
X148728795Y-81907668D01*
X148728793Y-81907664D01*
X148642547Y-81792455D01*
X148642544Y-81792452D01*
X148527335Y-81706206D01*
X148527328Y-81706202D01*
X148392482Y-81655908D01*
X148392483Y-81655908D01*
X148332883Y-81649501D01*
X148332881Y-81649500D01*
X148332873Y-81649500D01*
X148332864Y-81649500D01*
X146537129Y-81649500D01*
X146537123Y-81649501D01*
X146477516Y-81655908D01*
X146342671Y-81706202D01*
X146342664Y-81706206D01*
X146227455Y-81792452D01*
X146227452Y-81792455D01*
X146141206Y-81907664D01*
X146141202Y-81907671D01*
X146090908Y-82042517D01*
X146084501Y-82102116D01*
X146084501Y-82102123D01*
X146084500Y-82102135D01*
X144840499Y-82102135D01*
X144840499Y-82102128D01*
X144834091Y-82042517D01*
X144783796Y-81907669D01*
X144783795Y-81907668D01*
X144783793Y-81907664D01*
X144697547Y-81792455D01*
X144697544Y-81792452D01*
X144582335Y-81706206D01*
X144582328Y-81706202D01*
X144447482Y-81655908D01*
X144447483Y-81655908D01*
X144387883Y-81649501D01*
X144387881Y-81649500D01*
X144387873Y-81649500D01*
X144387864Y-81649500D01*
X142592129Y-81649500D01*
X142592123Y-81649501D01*
X142532516Y-81655908D01*
X142397671Y-81706202D01*
X142397664Y-81706206D01*
X142282455Y-81792452D01*
X142282452Y-81792455D01*
X142196206Y-81907664D01*
X142196202Y-81907671D01*
X142145908Y-82042517D01*
X142139501Y-82102116D01*
X142139501Y-82102123D01*
X142139500Y-82102135D01*
X139750000Y-82102135D01*
X139750000Y-75852135D01*
X142114500Y-75852135D01*
X142114500Y-77647870D01*
X142114501Y-77647876D01*
X142120908Y-77707483D01*
X142171202Y-77842328D01*
X142171206Y-77842335D01*
X142257452Y-77957544D01*
X142257455Y-77957547D01*
X142372664Y-78043793D01*
X142372671Y-78043797D01*
X142507517Y-78094091D01*
X142507516Y-78094091D01*
X142514444Y-78094835D01*
X142567127Y-78100500D01*
X144362872Y-78100499D01*
X144422483Y-78094091D01*
X144557331Y-78043796D01*
X144672546Y-77957546D01*
X144758796Y-77842331D01*
X144809091Y-77707483D01*
X144815500Y-77647873D01*
X144815499Y-75852128D01*
X144812812Y-75827135D01*
X146094500Y-75827135D01*
X146094500Y-77622870D01*
X146094501Y-77622876D01*
X146100908Y-77682483D01*
X146151202Y-77817328D01*
X146151206Y-77817335D01*
X146237452Y-77932544D01*
X146237455Y-77932547D01*
X146352664Y-78018793D01*
X146352671Y-78018797D01*
X146487517Y-78069091D01*
X146487516Y-78069091D01*
X146494444Y-78069835D01*
X146547127Y-78075500D01*
X148342872Y-78075499D01*
X148402483Y-78069091D01*
X148537331Y-78018796D01*
X148652546Y-77932546D01*
X148738796Y-77817331D01*
X148789091Y-77682483D01*
X148795500Y-77622873D01*
X148795499Y-75827128D01*
X148789091Y-75767517D01*
X148748120Y-75657669D01*
X148738797Y-75632671D01*
X148738793Y-75632664D01*
X148652547Y-75517455D01*
X148652544Y-75517452D01*
X148537335Y-75431206D01*
X148537328Y-75431202D01*
X148402482Y-75380908D01*
X148402483Y-75380908D01*
X148342883Y-75374501D01*
X148342881Y-75374500D01*
X148342873Y-75374500D01*
X148342864Y-75374500D01*
X146547129Y-75374500D01*
X146547123Y-75374501D01*
X146487516Y-75380908D01*
X146352671Y-75431202D01*
X146352664Y-75431206D01*
X146237455Y-75517452D01*
X146237452Y-75517455D01*
X146151206Y-75632664D01*
X146151202Y-75632671D01*
X146100908Y-75767517D01*
X146094501Y-75827116D01*
X146094501Y-75827123D01*
X146094500Y-75827135D01*
X144812812Y-75827135D01*
X144809091Y-75792517D01*
X144799766Y-75767516D01*
X144758797Y-75657671D01*
X144758793Y-75657664D01*
X144672547Y-75542455D01*
X144672544Y-75542452D01*
X144557335Y-75456206D01*
X144557328Y-75456202D01*
X144422482Y-75405908D01*
X144422483Y-75405908D01*
X144362883Y-75399501D01*
X144362881Y-75399500D01*
X144362873Y-75399500D01*
X144362864Y-75399500D01*
X142567129Y-75399500D01*
X142567123Y-75399501D01*
X142507516Y-75405908D01*
X142372671Y-75456202D01*
X142372664Y-75456206D01*
X142257455Y-75542452D01*
X142257452Y-75542455D01*
X142171206Y-75657664D01*
X142171202Y-75657671D01*
X142120908Y-75792517D01*
X142114501Y-75852116D01*
X142114500Y-75852135D01*
X139750000Y-75852135D01*
X139750000Y-70682336D01*
X139751527Y-70662938D01*
X139760500Y-70606285D01*
X139760500Y-70393713D01*
X139751527Y-70337060D01*
X139750000Y-70317662D01*
X139750000Y-69602135D01*
X142139500Y-69602135D01*
X142139500Y-71397870D01*
X142139501Y-71397876D01*
X142145908Y-71457483D01*
X142196202Y-71592328D01*
X142196206Y-71592335D01*
X142282452Y-71707544D01*
X142282455Y-71707547D01*
X142397664Y-71793793D01*
X142397671Y-71793797D01*
X142532517Y-71844091D01*
X142532516Y-71844091D01*
X142539444Y-71844835D01*
X142592127Y-71850500D01*
X144387872Y-71850499D01*
X144447483Y-71844091D01*
X144582331Y-71793796D01*
X144697546Y-71707546D01*
X144783796Y-71592331D01*
X144834091Y-71457483D01*
X144840500Y-71397873D01*
X144840499Y-69602135D01*
X146109500Y-69602135D01*
X146109500Y-71397870D01*
X146109501Y-71397876D01*
X146115908Y-71457483D01*
X146166202Y-71592328D01*
X146166206Y-71592335D01*
X146252452Y-71707544D01*
X146252455Y-71707547D01*
X146367664Y-71793793D01*
X146367671Y-71793797D01*
X146502517Y-71844091D01*
X146502516Y-71844091D01*
X146509444Y-71844835D01*
X146562127Y-71850500D01*
X148357872Y-71850499D01*
X148417483Y-71844091D01*
X148552331Y-71793796D01*
X148667546Y-71707546D01*
X148753796Y-71592331D01*
X148804091Y-71457483D01*
X148810500Y-71397873D01*
X148810499Y-69602128D01*
X148804091Y-69542517D01*
X148753796Y-69407669D01*
X148753795Y-69407668D01*
X148753793Y-69407664D01*
X148667547Y-69292455D01*
X148667544Y-69292452D01*
X148552335Y-69206206D01*
X148552328Y-69206202D01*
X148417482Y-69155908D01*
X148417483Y-69155908D01*
X148357883Y-69149501D01*
X148357881Y-69149500D01*
X148357873Y-69149500D01*
X148357864Y-69149500D01*
X146562129Y-69149500D01*
X146562123Y-69149501D01*
X146502516Y-69155908D01*
X146367671Y-69206202D01*
X146367664Y-69206206D01*
X146252455Y-69292452D01*
X146252452Y-69292455D01*
X146166206Y-69407664D01*
X146166202Y-69407671D01*
X146115908Y-69542517D01*
X146109501Y-69602116D01*
X146109501Y-69602123D01*
X146109500Y-69602135D01*
X144840499Y-69602135D01*
X144840499Y-69602128D01*
X144834091Y-69542517D01*
X144783796Y-69407669D01*
X144783795Y-69407668D01*
X144783793Y-69407664D01*
X144697547Y-69292455D01*
X144697544Y-69292452D01*
X144582335Y-69206206D01*
X144582328Y-69206202D01*
X144447482Y-69155908D01*
X144447483Y-69155908D01*
X144387883Y-69149501D01*
X144387881Y-69149500D01*
X144387873Y-69149500D01*
X144387864Y-69149500D01*
X142592129Y-69149500D01*
X142592123Y-69149501D01*
X142532516Y-69155908D01*
X142397671Y-69206202D01*
X142397664Y-69206206D01*
X142282455Y-69292452D01*
X142282452Y-69292455D01*
X142196206Y-69407664D01*
X142196202Y-69407671D01*
X142145908Y-69542517D01*
X142139501Y-69602116D01*
X142139501Y-69602123D01*
X142139500Y-69602135D01*
X139750000Y-69602135D01*
X139750000Y-68874000D01*
X139769685Y-68806961D01*
X139822489Y-68761206D01*
X139874000Y-68750000D01*
X150876000Y-68750000D01*
X150943039Y-68769685D01*
G37*
%TD.AperFunction*%
%TD*%
%TA.AperFunction,Conductor*%
%TO.N,GND*%
G36*
X139181475Y-102943910D02*
G01*
X139230170Y-102994016D01*
X139244500Y-103051883D01*
X139244500Y-103376000D01*
X139244501Y-103376009D01*
X139256052Y-103483450D01*
X139256054Y-103483462D01*
X139267260Y-103534972D01*
X139301383Y-103637497D01*
X139301386Y-103637503D01*
X139379171Y-103758537D01*
X139379179Y-103758548D01*
X139424923Y-103811340D01*
X139424926Y-103811343D01*
X139424930Y-103811347D01*
X139533664Y-103905567D01*
X139533667Y-103905568D01*
X139533668Y-103905569D01*
X139649250Y-103958355D01*
X139664541Y-103965338D01*
X139731580Y-103985023D01*
X139731584Y-103985024D01*
X139874000Y-104005500D01*
X143620500Y-104005500D01*
X143687539Y-104025185D01*
X143733294Y-104077989D01*
X143744500Y-104129500D01*
X143744500Y-110535242D01*
X143724815Y-110602281D01*
X143672011Y-110648036D01*
X143602853Y-110657980D01*
X143539297Y-110628955D01*
X143532819Y-110622923D01*
X143379786Y-110469890D01*
X143207820Y-110344951D01*
X143018414Y-110248444D01*
X143018413Y-110248443D01*
X143018412Y-110248443D01*
X142816243Y-110182754D01*
X142816241Y-110182753D01*
X142816240Y-110182753D01*
X142654957Y-110157208D01*
X142606287Y-110149500D01*
X142393713Y-110149500D01*
X142345042Y-110157208D01*
X142183760Y-110182753D01*
X141981585Y-110248444D01*
X141792179Y-110344951D01*
X141620213Y-110469890D01*
X141469898Y-110620205D01*
X141469898Y-110620206D01*
X141469896Y-110620208D01*
X141449422Y-110648386D01*
X141394094Y-110691051D01*
X141349106Y-110699500D01*
X140324500Y-110699500D01*
X140257461Y-110679815D01*
X140211706Y-110627011D01*
X140200500Y-110575500D01*
X140200500Y-108571157D01*
X140200499Y-108571156D01*
X140188743Y-108512051D01*
X140188743Y-108512048D01*
X140169739Y-108416510D01*
X140169738Y-108416503D01*
X140109394Y-108270821D01*
X140109392Y-108270818D01*
X140109390Y-108270814D01*
X140021789Y-108139711D01*
X140021786Y-108139707D01*
X136348548Y-104466470D01*
X136338224Y-104447563D01*
X136323954Y-104431423D01*
X136321810Y-104417504D01*
X136315063Y-104405147D01*
X136316599Y-104383660D01*
X136313321Y-104362368D01*
X136319706Y-104340212D01*
X136320047Y-104335455D01*
X136322926Y-104328406D01*
X136325141Y-104323423D01*
X136325254Y-104323294D01*
X136385024Y-104192416D01*
X136385800Y-104187011D01*
X136391535Y-104174117D01*
X136409024Y-104153521D01*
X136423631Y-104130791D01*
X136431302Y-104127287D01*
X136436761Y-104120859D01*
X136462607Y-104112988D01*
X136487185Y-104101763D01*
X136503246Y-104100613D01*
X136503601Y-104100506D01*
X136503833Y-104100571D01*
X136504838Y-104100500D01*
X136913844Y-104100500D01*
X136913845Y-104100499D01*
X137068497Y-104069737D01*
X137214179Y-104009394D01*
X137345289Y-103921789D01*
X138087235Y-103179841D01*
X138148556Y-103146358D01*
X138194311Y-103145051D01*
X138228713Y-103150500D01*
X138228714Y-103150500D01*
X138441286Y-103150500D01*
X138441287Y-103150500D01*
X138651243Y-103117246D01*
X138853412Y-103051557D01*
X139042816Y-102955051D01*
X139047614Y-102951564D01*
X139113421Y-102928085D01*
X139181475Y-102943910D01*
G37*
%TD.AperFunction*%
%TA.AperFunction,Conductor*%
G36*
X144203038Y-100974685D02*
G01*
X144248793Y-101027489D01*
X144259999Y-101079000D01*
X144259999Y-102520999D01*
X144240314Y-102588038D01*
X144187510Y-102633793D01*
X144135999Y-102644999D01*
X142694000Y-102644999D01*
X142626961Y-102625314D01*
X142581206Y-102572510D01*
X142570000Y-102520999D01*
X142570000Y-101079000D01*
X142589685Y-101011961D01*
X142642489Y-100966206D01*
X142694000Y-100955000D01*
X144135999Y-100955000D01*
X144203038Y-100974685D01*
G37*
%TD.AperFunction*%
%TA.AperFunction,Conductor*%
G36*
X148208038Y-100974685D02*
G01*
X148253793Y-101027489D01*
X148264999Y-101079000D01*
X148264999Y-102520999D01*
X148245314Y-102588038D01*
X148192510Y-102633793D01*
X148140999Y-102644999D01*
X146699000Y-102644999D01*
X146631961Y-102625314D01*
X146586206Y-102572510D01*
X146575000Y-102520999D01*
X146575000Y-101079000D01*
X146594685Y-101011961D01*
X146647489Y-100966206D01*
X146699000Y-100955000D01*
X148140999Y-100955000D01*
X148208038Y-100974685D01*
G37*
%TD.AperFunction*%
%TA.AperFunction,Conductor*%
G36*
X144228038Y-94674685D02*
G01*
X144273793Y-94727489D01*
X144284999Y-94779000D01*
X144284999Y-96220999D01*
X144265314Y-96288038D01*
X144212510Y-96333793D01*
X144160999Y-96344999D01*
X142719000Y-96344999D01*
X142651961Y-96325314D01*
X142606206Y-96272510D01*
X142595000Y-96220999D01*
X142595000Y-94779000D01*
X142614685Y-94711961D01*
X142667489Y-94666206D01*
X142719000Y-94655000D01*
X144160999Y-94655000D01*
X144228038Y-94674685D01*
G37*
%TD.AperFunction*%
%TA.AperFunction,Conductor*%
G36*
X148208038Y-94674685D02*
G01*
X148253793Y-94727489D01*
X148264999Y-94779000D01*
X148264999Y-96220999D01*
X148245314Y-96288038D01*
X148192510Y-96333793D01*
X148140999Y-96344999D01*
X146699000Y-96344999D01*
X146631961Y-96325314D01*
X146586206Y-96272510D01*
X146575000Y-96220999D01*
X146575000Y-94779000D01*
X146594685Y-94711961D01*
X146647489Y-94666206D01*
X146699000Y-94655000D01*
X148140999Y-94655000D01*
X148208038Y-94674685D01*
G37*
%TD.AperFunction*%
%TA.AperFunction,Conductor*%
G36*
X144253038Y-88424685D02*
G01*
X144298793Y-88477489D01*
X144309999Y-88529000D01*
X144309999Y-89970999D01*
X144290314Y-90038038D01*
X144237510Y-90083793D01*
X144185999Y-90094999D01*
X142744000Y-90094999D01*
X142676961Y-90075314D01*
X142631206Y-90022510D01*
X142620000Y-89970999D01*
X142620000Y-88529000D01*
X142639685Y-88461961D01*
X142692489Y-88416206D01*
X142744000Y-88405000D01*
X144185999Y-88405000D01*
X144253038Y-88424685D01*
G37*
%TD.AperFunction*%
%TA.AperFunction,Conductor*%
G36*
X148228941Y-88424685D02*
G01*
X148274696Y-88477489D01*
X148285902Y-88529000D01*
X148285902Y-89970999D01*
X148266217Y-90038038D01*
X148213413Y-90083793D01*
X148161902Y-90094999D01*
X146719903Y-90094999D01*
X146652864Y-90075314D01*
X146607109Y-90022510D01*
X146595903Y-89970999D01*
X146595903Y-88529000D01*
X146615588Y-88461961D01*
X146668392Y-88416206D01*
X146719903Y-88405000D01*
X148161902Y-88405000D01*
X148228941Y-88424685D01*
G37*
%TD.AperFunction*%
%TA.AperFunction,Conductor*%
G36*
X161750344Y-82803425D02*
G01*
X161760651Y-82802168D01*
X161783295Y-82813101D01*
X161807421Y-82820185D01*
X161815891Y-82828838D01*
X161823571Y-82832546D01*
X161841575Y-82854245D01*
X161842085Y-82853875D01*
X161969890Y-83029786D01*
X162120213Y-83180109D01*
X162292182Y-83305050D01*
X162300946Y-83309516D01*
X162351742Y-83357491D01*
X162368536Y-83425312D01*
X162345998Y-83491447D01*
X162300946Y-83530484D01*
X162292182Y-83534949D01*
X162120213Y-83659890D01*
X161969890Y-83810213D01*
X161844951Y-83982179D01*
X161748444Y-84171585D01*
X161682753Y-84373760D01*
X161649500Y-84583713D01*
X161649500Y-84796287D01*
X161649499Y-84796287D01*
X161654948Y-84830686D01*
X161645993Y-84899979D01*
X161620156Y-84937764D01*
X160207714Y-86350208D01*
X159795614Y-86762308D01*
X159739863Y-86818059D01*
X159684112Y-86873809D01*
X159596512Y-87004911D01*
X159596505Y-87004924D01*
X159536167Y-87150595D01*
X159536164Y-87150607D01*
X159505403Y-87305250D01*
X159505403Y-87334480D01*
X159485718Y-87401519D01*
X159432914Y-87447274D01*
X159363756Y-87457218D01*
X159300200Y-87428193D01*
X159293722Y-87422161D01*
X159291091Y-87419530D01*
X159261297Y-87401519D01*
X159145509Y-87331522D01*
X158983099Y-87280914D01*
X158983097Y-87280913D01*
X158983095Y-87280913D01*
X158933681Y-87276423D01*
X158912519Y-87274500D01*
X158399287Y-87274500D01*
X158380048Y-87276248D01*
X158328710Y-87280913D01*
X158328707Y-87280914D01*
X158166297Y-87331522D01*
X158166295Y-87331522D01*
X158166295Y-87331523D01*
X158149551Y-87341645D01*
X158081996Y-87359480D01*
X158015523Y-87337961D01*
X157971236Y-87283920D01*
X157961403Y-87235527D01*
X157961403Y-87000000D01*
X157961403Y-86999999D01*
X157956258Y-86928060D01*
X157915722Y-86790008D01*
X157875036Y-86726700D01*
X157837935Y-86668969D01*
X157837931Y-86668965D01*
X157729202Y-86574750D01*
X157729200Y-86574748D01*
X157729197Y-86574746D01*
X157729193Y-86574744D01*
X157598322Y-86514976D01*
X157598317Y-86514975D01*
X157455903Y-86494500D01*
X156455903Y-86494500D01*
X156455887Y-86494500D01*
X156392384Y-86498506D01*
X156383610Y-86500923D01*
X156345792Y-86511340D01*
X156295219Y-86514530D01*
X156155903Y-86494500D01*
X155005903Y-86494500D01*
X155005900Y-86494500D01*
X154933962Y-86499644D01*
X154795908Y-86540182D01*
X154674872Y-86617967D01*
X154674868Y-86617971D01*
X154580653Y-86726700D01*
X154580647Y-86726709D01*
X154520880Y-86857579D01*
X154520044Y-86860429D01*
X154518437Y-86862928D01*
X154517194Y-86865652D01*
X154516802Y-86865473D01*
X154482272Y-86919209D01*
X154418718Y-86948237D01*
X154401065Y-86949500D01*
X153942057Y-86949500D01*
X153787412Y-86980261D01*
X153787400Y-86980264D01*
X153748197Y-86996502D01*
X153748198Y-86996503D01*
X153641726Y-87040604D01*
X153641717Y-87040609D01*
X153517349Y-87123709D01*
X153517350Y-87123710D01*
X153510615Y-87128210D01*
X153510610Y-87128214D01*
X152768667Y-87870156D01*
X152707344Y-87903641D01*
X152661589Y-87904948D01*
X152627190Y-87899500D01*
X152414616Y-87899500D01*
X152388471Y-87903641D01*
X152204663Y-87932753D01*
X152002488Y-87998444D01*
X151813087Y-88094948D01*
X151702385Y-88175378D01*
X151636578Y-88198857D01*
X151568524Y-88183031D01*
X151519830Y-88132925D01*
X151505500Y-88075059D01*
X151505500Y-84179229D01*
X151525185Y-84112190D01*
X151577989Y-84066435D01*
X151647147Y-84056491D01*
X151702385Y-84078911D01*
X151748190Y-84112190D01*
X151807184Y-84155051D01*
X151996588Y-84251557D01*
X152198757Y-84317246D01*
X152408713Y-84350500D01*
X152408714Y-84350500D01*
X152621285Y-84350500D01*
X152621287Y-84350500D01*
X152655686Y-84345051D01*
X152724977Y-84354005D01*
X152762765Y-84379843D01*
X153754707Y-85371786D01*
X153754711Y-85371789D01*
X153885814Y-85459390D01*
X153885818Y-85459392D01*
X153885821Y-85459394D01*
X154031503Y-85519738D01*
X154186153Y-85550499D01*
X154186157Y-85550500D01*
X154186158Y-85550500D01*
X154400525Y-85550500D01*
X154467564Y-85570185D01*
X154513319Y-85622989D01*
X154519500Y-85639559D01*
X154540130Y-85709819D01*
X154540182Y-85709993D01*
X154617967Y-85831029D01*
X154617971Y-85831033D01*
X154684356Y-85888556D01*
X154726706Y-85925253D01*
X154762407Y-85941557D01*
X154857580Y-85985022D01*
X154857583Y-85985022D01*
X154857584Y-85985023D01*
X155000000Y-86005499D01*
X155000003Y-86005499D01*
X156149998Y-86005499D01*
X156150000Y-86005499D01*
X156150002Y-86005498D01*
X156150021Y-86005498D01*
X156230326Y-85999075D01*
X156230326Y-85999074D01*
X156230338Y-85999074D01*
X156258740Y-85990212D01*
X156313316Y-85985847D01*
X156450000Y-86005499D01*
X156450003Y-86005499D01*
X157450000Y-86005499D01*
X157521940Y-86000354D01*
X157659992Y-85959818D01*
X157781032Y-85882030D01*
X157875254Y-85773293D01*
X157916542Y-85682883D01*
X157935023Y-85642418D01*
X157935024Y-85642413D01*
X157935434Y-85639564D01*
X157955500Y-85499999D01*
X157955500Y-85264471D01*
X157975185Y-85197432D01*
X158027989Y-85151677D01*
X158097147Y-85141733D01*
X158143649Y-85158354D01*
X158160394Y-85168477D01*
X158322804Y-85219085D01*
X158393384Y-85225499D01*
X158393387Y-85225499D01*
X158906613Y-85225499D01*
X158906616Y-85225499D01*
X158977196Y-85219085D01*
X159139606Y-85168477D01*
X159285185Y-85080471D01*
X159315156Y-85050500D01*
X159387319Y-84978338D01*
X159448642Y-84944853D01*
X159518334Y-84949837D01*
X159562681Y-84978338D01*
X159664811Y-85080468D01*
X159664813Y-85080469D01*
X159664815Y-85080471D01*
X159810394Y-85168477D01*
X159972804Y-85219085D01*
X160043384Y-85225499D01*
X160043387Y-85225499D01*
X160556613Y-85225499D01*
X160556616Y-85225499D01*
X160627196Y-85219085D01*
X160789606Y-85168477D01*
X160935185Y-85080471D01*
X161055472Y-84960184D01*
X161143478Y-84814605D01*
X161194086Y-84652195D01*
X161200500Y-84581615D01*
X161200500Y-83918383D01*
X161194086Y-83847803D01*
X161143478Y-83685393D01*
X161128135Y-83660013D01*
X161118383Y-83643880D01*
X161100500Y-83579731D01*
X161100500Y-82924500D01*
X161120185Y-82857461D01*
X161172989Y-82811706D01*
X161224500Y-82800500D01*
X161740382Y-82800500D01*
X161750344Y-82803425D01*
G37*
%TD.AperFunction*%
%TA.AperFunction,Conductor*%
G36*
X139197615Y-84195747D02*
G01*
X139237872Y-84252854D01*
X139244500Y-84292852D01*
X139244500Y-87969886D01*
X139224815Y-88036925D01*
X139172011Y-88082680D01*
X139102853Y-88092624D01*
X139064205Y-88080371D01*
X138903414Y-87998444D01*
X138903413Y-87998443D01*
X138903412Y-87998443D01*
X138701243Y-87932754D01*
X138701241Y-87932753D01*
X138701240Y-87932753D01*
X138517432Y-87903641D01*
X138491287Y-87899500D01*
X138278713Y-87899500D01*
X138278711Y-87899500D01*
X138244310Y-87904948D01*
X138175016Y-87895992D01*
X138137233Y-87870155D01*
X137395292Y-87128213D01*
X137395288Y-87128210D01*
X137264185Y-87040609D01*
X137264172Y-87040602D01*
X137118501Y-86980264D01*
X137118489Y-86980261D01*
X136963845Y-86949500D01*
X136963842Y-86949500D01*
X136574475Y-86949500D01*
X136507436Y-86929815D01*
X136461681Y-86877011D01*
X136455498Y-86860435D01*
X136434819Y-86790008D01*
X136394133Y-86726700D01*
X136357032Y-86668969D01*
X136357028Y-86668965D01*
X136248299Y-86574750D01*
X136248297Y-86574748D01*
X136248294Y-86574746D01*
X136248290Y-86574744D01*
X136117419Y-86514976D01*
X136117414Y-86514975D01*
X135975000Y-86494500D01*
X134825000Y-86494500D01*
X134824978Y-86494500D01*
X134744669Y-86500923D01*
X134744658Y-86500925D01*
X134716253Y-86509787D01*
X134661680Y-86514151D01*
X134525000Y-86494500D01*
X133525000Y-86494500D01*
X133524997Y-86494500D01*
X133453059Y-86499644D01*
X133315005Y-86540182D01*
X133193969Y-86617967D01*
X133193965Y-86617971D01*
X133099750Y-86726700D01*
X133099744Y-86726709D01*
X133039976Y-86857580D01*
X133039975Y-86857585D01*
X133019500Y-86999999D01*
X133019500Y-87250640D01*
X132999815Y-87317679D01*
X132947011Y-87363434D01*
X132877853Y-87373378D01*
X132831351Y-87356757D01*
X132789608Y-87331523D01*
X132789607Y-87331522D01*
X132789606Y-87331522D01*
X132627196Y-87280914D01*
X132627194Y-87280913D01*
X132627192Y-87280913D01*
X132577778Y-87276423D01*
X132556616Y-87274500D01*
X132043384Y-87274500D01*
X132024145Y-87276248D01*
X131972807Y-87280913D01*
X131810393Y-87331522D01*
X131664811Y-87419530D01*
X131664810Y-87419531D01*
X131562681Y-87521661D01*
X131501358Y-87555146D01*
X131431666Y-87550162D01*
X131387319Y-87521661D01*
X131285188Y-87419530D01*
X131255394Y-87401519D01*
X131139606Y-87331522D01*
X130977196Y-87280914D01*
X130977194Y-87280913D01*
X130977192Y-87280913D01*
X130927778Y-87276423D01*
X130906616Y-87274500D01*
X130906613Y-87274500D01*
X130674500Y-87274500D01*
X130607461Y-87254815D01*
X130561706Y-87202011D01*
X130550500Y-87150500D01*
X130550500Y-85307940D01*
X130570185Y-85240901D01*
X130586819Y-85220259D01*
X130795259Y-85011819D01*
X130856582Y-84978334D01*
X130882940Y-84975500D01*
X130931613Y-84975500D01*
X130931616Y-84975500D01*
X131002196Y-84969086D01*
X131164606Y-84918478D01*
X131310185Y-84830472D01*
X131344371Y-84796286D01*
X131412319Y-84728339D01*
X131473642Y-84694854D01*
X131543334Y-84699838D01*
X131587681Y-84728339D01*
X131689811Y-84830469D01*
X131689813Y-84830470D01*
X131689815Y-84830472D01*
X131835394Y-84918478D01*
X131997804Y-84969086D01*
X132068384Y-84975500D01*
X132068387Y-84975500D01*
X132581613Y-84975500D01*
X132581616Y-84975500D01*
X132652196Y-84969086D01*
X132814606Y-84918478D01*
X132831350Y-84908355D01*
X132898903Y-84890519D01*
X132965377Y-84912036D01*
X133009666Y-84966075D01*
X133019500Y-85014472D01*
X133019500Y-85250002D01*
X133024644Y-85321940D01*
X133053338Y-85419660D01*
X133065005Y-85459394D01*
X133065182Y-85459994D01*
X133142967Y-85581030D01*
X133142971Y-85581034D01*
X133251700Y-85675249D01*
X133251706Y-85675254D01*
X133292174Y-85693735D01*
X133382580Y-85735023D01*
X133382583Y-85735023D01*
X133382584Y-85735024D01*
X133525000Y-85755500D01*
X133525003Y-85755500D01*
X134524984Y-85755500D01*
X134525000Y-85755500D01*
X134588522Y-85751493D01*
X134588526Y-85751492D01*
X134588527Y-85751492D01*
X134608755Y-85745919D01*
X134635104Y-85738660D01*
X134685680Y-85735469D01*
X134825000Y-85755500D01*
X134825003Y-85755500D01*
X135975000Y-85755500D01*
X136046940Y-85750355D01*
X136184992Y-85709819D01*
X136306032Y-85632031D01*
X136400254Y-85523294D01*
X136460024Y-85392416D01*
X136460024Y-85392410D01*
X136460859Y-85389571D01*
X136462465Y-85387071D01*
X136463709Y-85384348D01*
X136464100Y-85384526D01*
X136498631Y-85330791D01*
X136562185Y-85301763D01*
X136579838Y-85300500D01*
X136988844Y-85300500D01*
X136988845Y-85300499D01*
X137143497Y-85269737D01*
X137289179Y-85209394D01*
X137420289Y-85121789D01*
X138162235Y-84379841D01*
X138223556Y-84346358D01*
X138269311Y-84345051D01*
X138303713Y-84350500D01*
X138303714Y-84350500D01*
X138516286Y-84350500D01*
X138516287Y-84350500D01*
X138726243Y-84317246D01*
X138928412Y-84251557D01*
X139064205Y-84182366D01*
X139132874Y-84169471D01*
X139197615Y-84195747D01*
G37*
%TD.AperFunction*%
%TA.AperFunction,Conductor*%
G36*
X144278038Y-82174685D02*
G01*
X144323793Y-82227489D01*
X144334999Y-82279000D01*
X144334999Y-83720999D01*
X144315314Y-83788038D01*
X144262510Y-83833793D01*
X144210999Y-83844999D01*
X142769000Y-83844999D01*
X142701961Y-83825314D01*
X142656206Y-83772510D01*
X142645000Y-83720999D01*
X142645000Y-82279000D01*
X142664685Y-82211961D01*
X142717489Y-82166206D01*
X142769000Y-82155000D01*
X144210999Y-82155000D01*
X144278038Y-82174685D01*
G37*
%TD.AperFunction*%
%TA.AperFunction,Conductor*%
G36*
X148223038Y-82174685D02*
G01*
X148268793Y-82227489D01*
X148279999Y-82279000D01*
X148279999Y-83720999D01*
X148260314Y-83788038D01*
X148207510Y-83833793D01*
X148155999Y-83844999D01*
X146714000Y-83844999D01*
X146646961Y-83825314D01*
X146601206Y-83772510D01*
X146590000Y-83720999D01*
X146590000Y-82279000D01*
X146609685Y-82211961D01*
X146662489Y-82166206D01*
X146714000Y-82155000D01*
X148155999Y-82155000D01*
X148223038Y-82174685D01*
G37*
%TD.AperFunction*%
%TA.AperFunction,Conductor*%
G36*
X144253038Y-75924685D02*
G01*
X144298793Y-75977489D01*
X144309999Y-76029000D01*
X144309999Y-77470999D01*
X144290314Y-77538038D01*
X144237510Y-77583793D01*
X144185999Y-77594999D01*
X142744000Y-77594999D01*
X142676961Y-77575314D01*
X142631206Y-77522510D01*
X142620000Y-77470999D01*
X142620000Y-76029000D01*
X142639685Y-75961961D01*
X142692489Y-75916206D01*
X142744000Y-75905000D01*
X144185999Y-75905000D01*
X144253038Y-75924685D01*
G37*
%TD.AperFunction*%
%TA.AperFunction,Conductor*%
G36*
X148233038Y-75899685D02*
G01*
X148278793Y-75952489D01*
X148289999Y-76004000D01*
X148289999Y-77445999D01*
X148270314Y-77513038D01*
X148217510Y-77558793D01*
X148165999Y-77569999D01*
X146724000Y-77569999D01*
X146656961Y-77550314D01*
X146611206Y-77497510D01*
X146600000Y-77445999D01*
X146600000Y-76004000D01*
X146619685Y-75936961D01*
X146672489Y-75891206D01*
X146724000Y-75880000D01*
X148165999Y-75880000D01*
X148233038Y-75899685D01*
G37*
%TD.AperFunction*%
%TA.AperFunction,Conductor*%
G36*
X151660268Y-71543653D02*
G01*
X151671170Y-71544277D01*
X151702385Y-71560748D01*
X151778565Y-71616095D01*
X151832184Y-71655051D01*
X152021588Y-71751557D01*
X152223757Y-71817246D01*
X152433713Y-71850500D01*
X152433714Y-71850500D01*
X152646285Y-71850500D01*
X152646287Y-71850500D01*
X152680686Y-71845051D01*
X152749977Y-71854005D01*
X152787765Y-71879843D01*
X153779707Y-72871786D01*
X153779711Y-72871789D01*
X153910814Y-72959390D01*
X153910818Y-72959392D01*
X153910821Y-72959394D01*
X154056503Y-73019738D01*
X154211153Y-73050499D01*
X154211157Y-73050500D01*
X154211158Y-73050500D01*
X154368843Y-73050500D01*
X154425525Y-73050500D01*
X154492564Y-73070185D01*
X154538319Y-73122989D01*
X154544500Y-73139560D01*
X154554981Y-73175254D01*
X154565181Y-73209992D01*
X154565182Y-73209994D01*
X154642967Y-73331030D01*
X154642971Y-73331034D01*
X154744771Y-73419245D01*
X154751706Y-73425254D01*
X154763373Y-73430582D01*
X154882580Y-73485023D01*
X154882583Y-73485023D01*
X154882584Y-73485024D01*
X155025000Y-73505500D01*
X155025003Y-73505500D01*
X156174998Y-73505500D01*
X156175000Y-73505500D01*
X156175002Y-73505499D01*
X156175021Y-73505499D01*
X156255326Y-73499076D01*
X156255326Y-73499075D01*
X156255338Y-73499075D01*
X156283740Y-73490213D01*
X156338316Y-73485848D01*
X156475000Y-73505500D01*
X156475003Y-73505500D01*
X157475000Y-73505500D01*
X157546940Y-73500355D01*
X157684992Y-73459819D01*
X157806032Y-73382031D01*
X157900254Y-73273294D01*
X157945030Y-73175249D01*
X157960023Y-73142419D01*
X157960024Y-73142414D01*
X157961517Y-73132031D01*
X157980500Y-73000000D01*
X157980500Y-72764472D01*
X158000185Y-72697433D01*
X158052989Y-72651678D01*
X158122147Y-72641734D01*
X158168649Y-72658355D01*
X158185394Y-72668478D01*
X158347804Y-72719086D01*
X158418384Y-72725500D01*
X158418387Y-72725500D01*
X158931613Y-72725500D01*
X158931616Y-72725500D01*
X159002196Y-72719086D01*
X159164606Y-72668478D01*
X159310185Y-72580472D01*
X159340157Y-72550500D01*
X159412319Y-72478339D01*
X159473642Y-72444854D01*
X159543334Y-72449838D01*
X159587681Y-72478339D01*
X159689811Y-72580469D01*
X159689813Y-72580470D01*
X159689815Y-72580472D01*
X159835394Y-72668478D01*
X159997804Y-72719086D01*
X160068384Y-72725500D01*
X160117060Y-72725500D01*
X160184099Y-72745185D01*
X160204741Y-72761819D01*
X160812181Y-73369259D01*
X160845666Y-73430582D01*
X160848500Y-73456940D01*
X160848500Y-74653238D01*
X160828815Y-74720277D01*
X160776011Y-74766032D01*
X160706853Y-74775976D01*
X160687615Y-74771624D01*
X160637196Y-74755914D01*
X160566616Y-74749500D01*
X160053384Y-74749500D01*
X160034145Y-74751248D01*
X159982807Y-74755913D01*
X159820393Y-74806522D01*
X159674811Y-74894530D01*
X159674810Y-74894531D01*
X159572681Y-74996661D01*
X159511358Y-75030146D01*
X159441666Y-75025162D01*
X159397319Y-74996661D01*
X159295188Y-74894530D01*
X159215305Y-74846239D01*
X159149606Y-74806522D01*
X158987196Y-74755914D01*
X158987194Y-74755913D01*
X158987192Y-74755913D01*
X158937778Y-74751423D01*
X158916616Y-74749500D01*
X158403384Y-74749500D01*
X158384145Y-74751248D01*
X158332807Y-74755913D01*
X158332804Y-74755914D01*
X158170394Y-74806522D01*
X158170392Y-74806522D01*
X158170392Y-74806523D01*
X158153648Y-74816645D01*
X158086093Y-74834480D01*
X158019620Y-74812961D01*
X157975333Y-74758920D01*
X157965500Y-74710527D01*
X157965500Y-74475000D01*
X157960355Y-74403060D01*
X157919819Y-74265008D01*
X157879133Y-74201700D01*
X157842032Y-74143969D01*
X157842028Y-74143965D01*
X157733299Y-74049750D01*
X157733297Y-74049748D01*
X157733294Y-74049746D01*
X157733290Y-74049744D01*
X157602419Y-73989976D01*
X157602414Y-73989975D01*
X157460000Y-73969500D01*
X156460000Y-73969500D01*
X156459984Y-73969500D01*
X156396481Y-73973506D01*
X156385613Y-73976499D01*
X156349889Y-73986340D01*
X156299316Y-73989530D01*
X156160000Y-73969500D01*
X155010000Y-73969500D01*
X155009997Y-73969500D01*
X154938059Y-73974644D01*
X154818378Y-74009787D01*
X154800707Y-74014976D01*
X154800005Y-74015182D01*
X154678969Y-74092967D01*
X154678965Y-74092971D01*
X154584750Y-74201700D01*
X154584744Y-74201709D01*
X154524977Y-74332579D01*
X154524141Y-74335429D01*
X154522534Y-74337928D01*
X154521291Y-74340652D01*
X154520899Y-74340473D01*
X154486369Y-74394209D01*
X154422815Y-74423237D01*
X154405162Y-74424500D01*
X153946154Y-74424500D01*
X153791509Y-74455261D01*
X153791497Y-74455264D01*
X153748832Y-74472936D01*
X153748833Y-74472937D01*
X153645823Y-74515604D01*
X153645814Y-74515609D01*
X153514712Y-74603209D01*
X153514710Y-74603212D01*
X152772764Y-75345156D01*
X152711441Y-75378641D01*
X152665686Y-75379948D01*
X152631287Y-75374500D01*
X152418713Y-75374500D01*
X152392568Y-75378641D01*
X152208760Y-75407753D01*
X152006585Y-75473444D01*
X151817181Y-75569950D01*
X151702384Y-75653354D01*
X151636578Y-75676833D01*
X151568524Y-75661007D01*
X151519830Y-75610901D01*
X151505500Y-75553035D01*
X151505500Y-71661066D01*
X151509047Y-71648985D01*
X151507970Y-71636441D01*
X151518704Y-71616095D01*
X151525185Y-71594027D01*
X151534698Y-71585783D01*
X151540575Y-71574646D01*
X151560607Y-71563333D01*
X151577989Y-71548272D01*
X151590450Y-71546480D01*
X151601414Y-71540289D01*
X151624378Y-71541601D01*
X151647147Y-71538328D01*
X151660268Y-71543653D01*
G37*
%TD.AperFunction*%
%TA.AperFunction,Conductor*%
G36*
X139197615Y-71695747D02*
G01*
X139237872Y-71752854D01*
X139244500Y-71792852D01*
X139244500Y-75469886D01*
X139224815Y-75536925D01*
X139172011Y-75582680D01*
X139102853Y-75592624D01*
X139064205Y-75580371D01*
X138903414Y-75498444D01*
X138903413Y-75498443D01*
X138903412Y-75498443D01*
X138701243Y-75432754D01*
X138701241Y-75432753D01*
X138701240Y-75432753D01*
X138525684Y-75404948D01*
X138491287Y-75399500D01*
X138278713Y-75399500D01*
X138278711Y-75399500D01*
X138244310Y-75404948D01*
X138175016Y-75395992D01*
X138137233Y-75370155D01*
X137395292Y-74628213D01*
X137395288Y-74628210D01*
X137264185Y-74540609D01*
X137264172Y-74540602D01*
X137118501Y-74480264D01*
X137118489Y-74480261D01*
X136963845Y-74449500D01*
X136963842Y-74449500D01*
X136574475Y-74449500D01*
X136507436Y-74429815D01*
X136461681Y-74377011D01*
X136455498Y-74360435D01*
X136434819Y-74290008D01*
X136385815Y-74213757D01*
X136357032Y-74168969D01*
X136357028Y-74168965D01*
X136248299Y-74074750D01*
X136248297Y-74074748D01*
X136248294Y-74074746D01*
X136248290Y-74074744D01*
X136117419Y-74014976D01*
X136117414Y-74014975D01*
X135975000Y-73994500D01*
X134825000Y-73994500D01*
X134824978Y-73994500D01*
X134744669Y-74000923D01*
X134744658Y-74000925D01*
X134716253Y-74009787D01*
X134661680Y-74014151D01*
X134525000Y-73994500D01*
X133525000Y-73994500D01*
X133524997Y-73994500D01*
X133453059Y-73999644D01*
X133315005Y-74040182D01*
X133193969Y-74117967D01*
X133193965Y-74117971D01*
X133099750Y-74226700D01*
X133099744Y-74226709D01*
X133039976Y-74357580D01*
X133039975Y-74357585D01*
X133019500Y-74499999D01*
X133019500Y-74750640D01*
X132999815Y-74817679D01*
X132947011Y-74863434D01*
X132877853Y-74873378D01*
X132831351Y-74856757D01*
X132789608Y-74831523D01*
X132789607Y-74831522D01*
X132789606Y-74831522D01*
X132627196Y-74780914D01*
X132627194Y-74780913D01*
X132627192Y-74780913D01*
X132577778Y-74776423D01*
X132556616Y-74774500D01*
X132043384Y-74774500D01*
X132027142Y-74775976D01*
X131972807Y-74780913D01*
X131810393Y-74831522D01*
X131664811Y-74919530D01*
X131664810Y-74919531D01*
X131562681Y-75021661D01*
X131501358Y-75055146D01*
X131431666Y-75050162D01*
X131387319Y-75021661D01*
X131285188Y-74919530D01*
X131181349Y-74856757D01*
X131139606Y-74831522D01*
X130977196Y-74780914D01*
X130977194Y-74780913D01*
X130977192Y-74780913D01*
X130927778Y-74776423D01*
X130906616Y-74774500D01*
X130906613Y-74774500D01*
X130673500Y-74774500D01*
X130606461Y-74754815D01*
X130560706Y-74702011D01*
X130549500Y-74650500D01*
X130549500Y-72808940D01*
X130569185Y-72741901D01*
X130585819Y-72721259D01*
X130795259Y-72511819D01*
X130856582Y-72478334D01*
X130882940Y-72475500D01*
X130931613Y-72475500D01*
X130931616Y-72475500D01*
X131002196Y-72469086D01*
X131164606Y-72418478D01*
X131310185Y-72330472D01*
X131340157Y-72300500D01*
X131412319Y-72228339D01*
X131473642Y-72194854D01*
X131543334Y-72199838D01*
X131587681Y-72228339D01*
X131689811Y-72330469D01*
X131689813Y-72330470D01*
X131689815Y-72330472D01*
X131835394Y-72418478D01*
X131997804Y-72469086D01*
X132068384Y-72475500D01*
X132068387Y-72475500D01*
X132581613Y-72475500D01*
X132581616Y-72475500D01*
X132652196Y-72469086D01*
X132814606Y-72418478D01*
X132831350Y-72408355D01*
X132898903Y-72390519D01*
X132965377Y-72412036D01*
X133009666Y-72466075D01*
X133019500Y-72514472D01*
X133019500Y-72750002D01*
X133024644Y-72821940D01*
X133045340Y-72892420D01*
X133065005Y-72959394D01*
X133065182Y-72959994D01*
X133142967Y-73081030D01*
X133142971Y-73081034D01*
X133251700Y-73175249D01*
X133251706Y-73175254D01*
X133292174Y-73193735D01*
X133382580Y-73235023D01*
X133382583Y-73235023D01*
X133382584Y-73235024D01*
X133525000Y-73255500D01*
X133525003Y-73255500D01*
X134524984Y-73255500D01*
X134525000Y-73255500D01*
X134588522Y-73251493D01*
X134588526Y-73251492D01*
X134588527Y-73251492D01*
X134608755Y-73245919D01*
X134635104Y-73238660D01*
X134685680Y-73235469D01*
X134825000Y-73255500D01*
X134825003Y-73255500D01*
X135975000Y-73255500D01*
X136046940Y-73250355D01*
X136184992Y-73209819D01*
X136306032Y-73132031D01*
X136400254Y-73023294D01*
X136460024Y-72892416D01*
X136460024Y-72892410D01*
X136460859Y-72889571D01*
X136462465Y-72887071D01*
X136463709Y-72884348D01*
X136464100Y-72884526D01*
X136498631Y-72830791D01*
X136562185Y-72801763D01*
X136579838Y-72800500D01*
X136988844Y-72800500D01*
X136988845Y-72800499D01*
X137143497Y-72769737D01*
X137289179Y-72709394D01*
X137420289Y-72621789D01*
X138162235Y-71879841D01*
X138223556Y-71846358D01*
X138269311Y-71845051D01*
X138303713Y-71850500D01*
X138303714Y-71850500D01*
X138516286Y-71850500D01*
X138516287Y-71850500D01*
X138726243Y-71817246D01*
X138928412Y-71751557D01*
X139064205Y-71682366D01*
X139132874Y-71669471D01*
X139197615Y-71695747D01*
G37*
%TD.AperFunction*%
%TA.AperFunction,Conductor*%
G36*
X144278038Y-69674685D02*
G01*
X144323793Y-69727489D01*
X144334999Y-69779000D01*
X144334999Y-71220999D01*
X144315314Y-71288038D01*
X144262510Y-71333793D01*
X144210999Y-71344999D01*
X142769000Y-71344999D01*
X142701961Y-71325314D01*
X142656206Y-71272510D01*
X142645000Y-71220999D01*
X142645000Y-69779000D01*
X142664685Y-69711961D01*
X142717489Y-69666206D01*
X142769000Y-69655000D01*
X144210999Y-69655000D01*
X144278038Y-69674685D01*
G37*
%TD.AperFunction*%
%TA.AperFunction,Conductor*%
G36*
X148248038Y-69674685D02*
G01*
X148293793Y-69727489D01*
X148304999Y-69779000D01*
X148304999Y-71220999D01*
X148285314Y-71288038D01*
X148232510Y-71333793D01*
X148180999Y-71344999D01*
X146739000Y-71344999D01*
X146671961Y-71325314D01*
X146626206Y-71272510D01*
X146615000Y-71220999D01*
X146615000Y-69779000D01*
X146634685Y-69711961D01*
X146687489Y-69666206D01*
X146739000Y-69655000D01*
X148180999Y-69655000D01*
X148248038Y-69674685D01*
G37*
%TD.AperFunction*%
%TA.AperFunction,Conductor*%
G36*
X164942539Y-66470185D02*
G01*
X164988294Y-66522989D01*
X164999500Y-66574500D01*
X164999500Y-130325500D01*
X164979815Y-130392539D01*
X164927011Y-130438294D01*
X164875500Y-130449500D01*
X126124500Y-130449500D01*
X126057461Y-130429815D01*
X126011706Y-130377011D01*
X126000500Y-130325500D01*
X126000500Y-74423713D01*
X126649500Y-74423713D01*
X126649500Y-74636286D01*
X126680422Y-74831523D01*
X126682754Y-74846243D01*
X126716304Y-74949500D01*
X126748444Y-75048414D01*
X126844951Y-75237820D01*
X126969890Y-75409786D01*
X127120213Y-75560109D01*
X127292179Y-75685048D01*
X127292181Y-75685049D01*
X127292184Y-75685051D01*
X127481588Y-75781557D01*
X127683757Y-75847246D01*
X127893713Y-75880500D01*
X127893714Y-75880500D01*
X128106286Y-75880500D01*
X128106287Y-75880500D01*
X128316243Y-75847246D01*
X128518412Y-75781557D01*
X128707816Y-75685051D01*
X128740910Y-75661007D01*
X128751615Y-75653230D01*
X128817421Y-75629750D01*
X128885475Y-75645576D01*
X128934170Y-75695681D01*
X128948500Y-75753548D01*
X128948500Y-78386451D01*
X128928815Y-78453490D01*
X128876011Y-78499245D01*
X128806853Y-78509189D01*
X128751616Y-78486770D01*
X128707819Y-78454950D01*
X128518414Y-78358444D01*
X128518413Y-78358443D01*
X128518412Y-78358443D01*
X128316243Y-78292754D01*
X128316241Y-78292753D01*
X128316240Y-78292753D01*
X128154957Y-78267208D01*
X128106287Y-78259500D01*
X127893713Y-78259500D01*
X127845042Y-78267208D01*
X127683760Y-78292753D01*
X127481585Y-78358444D01*
X127292179Y-78454951D01*
X127120213Y-78579890D01*
X126969890Y-78730213D01*
X126844951Y-78902179D01*
X126748444Y-79091585D01*
X126682753Y-79293760D01*
X126649500Y-79503713D01*
X126649500Y-79716286D01*
X126682753Y-79926239D01*
X126748444Y-80128414D01*
X126844951Y-80317820D01*
X126969890Y-80489786D01*
X127120213Y-80640109D01*
X127292179Y-80765048D01*
X127292181Y-80765049D01*
X127292184Y-80765051D01*
X127481588Y-80861557D01*
X127683757Y-80927246D01*
X127893713Y-80960500D01*
X127893714Y-80960500D01*
X128106286Y-80960500D01*
X128106287Y-80960500D01*
X128316243Y-80927246D01*
X128518412Y-80861557D01*
X128707816Y-80765051D01*
X128732891Y-80746832D01*
X128751615Y-80733230D01*
X128817421Y-80709750D01*
X128885475Y-80725576D01*
X128934170Y-80775681D01*
X128948500Y-80833548D01*
X128948500Y-82558059D01*
X128928815Y-82625098D01*
X128912181Y-82645740D01*
X128247764Y-83310156D01*
X128186441Y-83343641D01*
X128140686Y-83344948D01*
X128106287Y-83339500D01*
X127893713Y-83339500D01*
X127867568Y-83343641D01*
X127683760Y-83372753D01*
X127481585Y-83438444D01*
X127292179Y-83534951D01*
X127120213Y-83659890D01*
X126969890Y-83810213D01*
X126844951Y-83982179D01*
X126748444Y-84171585D01*
X126682753Y-84373760D01*
X126649500Y-84583713D01*
X126649500Y-84796286D01*
X126678333Y-84978334D01*
X126682754Y-85006243D01*
X126744875Y-85197432D01*
X126748444Y-85208414D01*
X126844951Y-85397820D01*
X126969890Y-85569786D01*
X127120213Y-85720109D01*
X127292182Y-85845050D01*
X127300946Y-85849516D01*
X127351742Y-85897491D01*
X127368536Y-85965312D01*
X127345998Y-86031447D01*
X127300946Y-86070484D01*
X127292182Y-86074949D01*
X127120213Y-86199890D01*
X126969890Y-86350213D01*
X126844951Y-86522179D01*
X126748444Y-86711585D01*
X126682753Y-86913760D01*
X126662663Y-87040604D01*
X126649500Y-87123713D01*
X126649500Y-87336287D01*
X126653800Y-87363434D01*
X126678860Y-87521661D01*
X126682754Y-87546243D01*
X126718035Y-87654827D01*
X126748444Y-87748414D01*
X126844951Y-87937820D01*
X126969890Y-88109786D01*
X127120213Y-88260109D01*
X127292182Y-88385050D01*
X127300946Y-88389516D01*
X127351742Y-88437491D01*
X127368536Y-88505312D01*
X127345998Y-88571447D01*
X127300946Y-88610484D01*
X127292182Y-88614949D01*
X127120213Y-88739890D01*
X126969890Y-88890213D01*
X126844951Y-89062179D01*
X126748444Y-89251585D01*
X126682753Y-89453760D01*
X126649500Y-89663713D01*
X126649500Y-89876286D01*
X126682753Y-90086239D01*
X126748444Y-90288414D01*
X126844951Y-90477820D01*
X126969890Y-90649786D01*
X127120213Y-90800109D01*
X127292182Y-90925050D01*
X127300946Y-90929516D01*
X127351742Y-90977491D01*
X127368536Y-91045312D01*
X127345998Y-91111447D01*
X127300946Y-91150484D01*
X127292182Y-91154949D01*
X127120213Y-91279890D01*
X126969890Y-91430213D01*
X126844951Y-91602179D01*
X126748444Y-91791585D01*
X126682753Y-91993760D01*
X126660853Y-92132031D01*
X126649500Y-92203713D01*
X126649500Y-92416287D01*
X126682754Y-92626243D01*
X126748441Y-92828407D01*
X126748444Y-92828414D01*
X126844951Y-93017820D01*
X126969890Y-93189786D01*
X127120213Y-93340109D01*
X127292182Y-93465050D01*
X127300946Y-93469516D01*
X127351742Y-93517491D01*
X127368536Y-93585312D01*
X127345998Y-93651447D01*
X127300946Y-93690484D01*
X127292182Y-93694949D01*
X127120213Y-93819890D01*
X126969890Y-93970213D01*
X126844951Y-94142179D01*
X126748444Y-94331585D01*
X126682753Y-94533760D01*
X126663551Y-94655000D01*
X126649500Y-94743713D01*
X126649500Y-94956287D01*
X126682754Y-95166243D01*
X126739604Y-95341210D01*
X126748444Y-95368414D01*
X126844951Y-95557820D01*
X126969890Y-95729786D01*
X127120213Y-95880109D01*
X127292182Y-96005050D01*
X127300946Y-96009516D01*
X127351742Y-96057491D01*
X127368536Y-96125312D01*
X127345998Y-96191447D01*
X127300946Y-96230484D01*
X127292182Y-96234949D01*
X127120213Y-96359890D01*
X126969890Y-96510213D01*
X126844951Y-96682179D01*
X126748444Y-96871585D01*
X126682753Y-97073760D01*
X126661146Y-97210185D01*
X126649500Y-97283713D01*
X126649500Y-97496287D01*
X126657689Y-97547989D01*
X126674111Y-97651677D01*
X126682754Y-97706243D01*
X126742321Y-97889571D01*
X126748444Y-97908414D01*
X126844951Y-98097820D01*
X126969890Y-98269786D01*
X127120213Y-98420109D01*
X127292182Y-98545050D01*
X127300946Y-98549516D01*
X127351742Y-98597491D01*
X127368536Y-98665312D01*
X127345998Y-98731447D01*
X127300946Y-98770484D01*
X127292182Y-98774949D01*
X127120213Y-98899890D01*
X126969890Y-99050213D01*
X126844951Y-99222179D01*
X126748444Y-99411585D01*
X126682753Y-99613760D01*
X126649500Y-99823713D01*
X126649500Y-100036286D01*
X126682753Y-100246239D01*
X126682753Y-100246241D01*
X126682754Y-100246243D01*
X126732000Y-100397807D01*
X126748444Y-100448414D01*
X126844951Y-100637820D01*
X126969890Y-100809786D01*
X127120213Y-100960109D01*
X127292182Y-101085050D01*
X127300946Y-101089516D01*
X127351742Y-101137491D01*
X127368536Y-101205312D01*
X127345998Y-101271447D01*
X127300946Y-101310484D01*
X127292182Y-101314949D01*
X127120213Y-101439890D01*
X126969890Y-101590213D01*
X126844951Y-101762179D01*
X126748444Y-101951585D01*
X126682753Y-102153760D01*
X126649500Y-102363713D01*
X126649500Y-102576286D01*
X126681985Y-102781393D01*
X126682754Y-102786243D01*
X126737603Y-102955051D01*
X126748444Y-102988414D01*
X126844951Y-103177820D01*
X126969890Y-103349786D01*
X127120213Y-103500109D01*
X127292182Y-103625050D01*
X127300946Y-103629516D01*
X127351742Y-103677491D01*
X127368536Y-103745312D01*
X127345998Y-103811447D01*
X127300946Y-103850484D01*
X127292182Y-103854949D01*
X127120213Y-103979890D01*
X126969890Y-104130213D01*
X126844951Y-104302179D01*
X126748444Y-104491585D01*
X126682753Y-104693760D01*
X126649500Y-104903713D01*
X126649500Y-105116286D01*
X126682753Y-105326239D01*
X126748444Y-105528414D01*
X126844951Y-105717820D01*
X126969890Y-105889786D01*
X127120213Y-106040109D01*
X127292182Y-106165050D01*
X127300946Y-106169516D01*
X127351742Y-106217491D01*
X127368536Y-106285312D01*
X127345998Y-106351447D01*
X127300946Y-106390484D01*
X127292182Y-106394949D01*
X127120213Y-106519890D01*
X126969890Y-106670213D01*
X126844951Y-106842179D01*
X126748444Y-107031585D01*
X126682753Y-107233760D01*
X126649500Y-107443713D01*
X126649500Y-107656286D01*
X126681638Y-107859202D01*
X126682754Y-107866243D01*
X126720346Y-107981940D01*
X126748444Y-108068414D01*
X126844951Y-108257820D01*
X126969890Y-108429786D01*
X127120213Y-108580109D01*
X127292182Y-108705050D01*
X127300946Y-108709516D01*
X127351742Y-108757491D01*
X127368536Y-108825312D01*
X127345998Y-108891447D01*
X127300946Y-108930484D01*
X127292182Y-108934949D01*
X127120213Y-109059890D01*
X126969890Y-109210213D01*
X126844951Y-109382179D01*
X126748444Y-109571585D01*
X126682753Y-109773760D01*
X126649500Y-109983713D01*
X126649500Y-110196287D01*
X126682754Y-110406243D01*
X126737749Y-110575500D01*
X126748444Y-110608414D01*
X126844951Y-110797820D01*
X126969890Y-110969786D01*
X127120213Y-111120109D01*
X127292182Y-111245050D01*
X127300946Y-111249516D01*
X127351742Y-111297491D01*
X127368536Y-111365312D01*
X127345998Y-111431447D01*
X127300946Y-111470484D01*
X127292182Y-111474949D01*
X127120213Y-111599890D01*
X126969890Y-111750213D01*
X126844951Y-111922179D01*
X126748444Y-112111585D01*
X126682753Y-112313760D01*
X126652909Y-112502192D01*
X126649500Y-112523713D01*
X126649500Y-112736287D01*
X126682754Y-112946243D01*
X126747706Y-113146145D01*
X126748444Y-113148414D01*
X126844951Y-113337820D01*
X126969890Y-113509786D01*
X127120213Y-113660109D01*
X127292182Y-113785050D01*
X127300946Y-113789516D01*
X127351742Y-113837491D01*
X127368536Y-113905312D01*
X127345998Y-113971447D01*
X127300946Y-114010484D01*
X127292182Y-114014949D01*
X127120213Y-114139890D01*
X126969890Y-114290213D01*
X126844951Y-114462179D01*
X126748444Y-114651585D01*
X126682753Y-114853760D01*
X126649500Y-115063713D01*
X126649500Y-115276286D01*
X126682753Y-115486239D01*
X126748444Y-115688414D01*
X126844951Y-115877820D01*
X126969890Y-116049786D01*
X127120213Y-116200109D01*
X127292182Y-116325050D01*
X127300946Y-116329516D01*
X127351742Y-116377491D01*
X127368536Y-116445312D01*
X127345998Y-116511447D01*
X127300946Y-116550484D01*
X127292182Y-116554949D01*
X127120213Y-116679890D01*
X126969890Y-116830213D01*
X126844951Y-117002179D01*
X126748444Y-117191585D01*
X126682753Y-117393760D01*
X126650287Y-117598744D01*
X126649500Y-117603713D01*
X126649500Y-117816287D01*
X126651178Y-117826882D01*
X126675612Y-117981154D01*
X126682754Y-118026243D01*
X126714378Y-118123572D01*
X126748444Y-118228414D01*
X126844951Y-118417820D01*
X126969890Y-118589786D01*
X127120213Y-118740109D01*
X127292182Y-118865050D01*
X127300946Y-118869516D01*
X127351742Y-118917491D01*
X127368536Y-118985312D01*
X127345998Y-119051447D01*
X127300946Y-119090484D01*
X127292182Y-119094949D01*
X127120213Y-119219890D01*
X126969890Y-119370213D01*
X126844951Y-119542179D01*
X126748444Y-119731585D01*
X126682753Y-119933760D01*
X126649500Y-120143713D01*
X126649500Y-120356286D01*
X126681978Y-120561347D01*
X126682754Y-120566243D01*
X126744247Y-120755499D01*
X126748444Y-120768414D01*
X126844951Y-120957820D01*
X126969890Y-121129786D01*
X127120213Y-121280109D01*
X127292182Y-121405050D01*
X127300946Y-121409516D01*
X127351742Y-121457491D01*
X127368536Y-121525312D01*
X127345998Y-121591447D01*
X127300946Y-121630484D01*
X127292182Y-121634949D01*
X127120213Y-121759890D01*
X126969890Y-121910213D01*
X126844951Y-122082179D01*
X126748444Y-122271585D01*
X126682753Y-122473760D01*
X126649500Y-122683713D01*
X126649500Y-122896286D01*
X126682753Y-123106239D01*
X126748444Y-123308414D01*
X126844951Y-123497820D01*
X126969890Y-123669786D01*
X127120213Y-123820109D01*
X127292182Y-123945050D01*
X127300946Y-123949516D01*
X127351742Y-123997491D01*
X127368536Y-124065312D01*
X127345998Y-124131447D01*
X127300946Y-124170484D01*
X127292182Y-124174949D01*
X127120213Y-124299890D01*
X126969890Y-124450213D01*
X126844951Y-124622179D01*
X126748444Y-124811585D01*
X126682753Y-125013760D01*
X126649500Y-125223713D01*
X126649500Y-125436286D01*
X126682753Y-125646239D01*
X126748444Y-125848414D01*
X126844951Y-126037820D01*
X126969890Y-126209786D01*
X127120213Y-126360109D01*
X127292182Y-126485050D01*
X127300946Y-126489516D01*
X127351742Y-126537491D01*
X127368536Y-126605312D01*
X127345998Y-126671447D01*
X127300946Y-126710484D01*
X127292182Y-126714949D01*
X127120213Y-126839890D01*
X126969890Y-126990213D01*
X126844951Y-127162179D01*
X126748444Y-127351585D01*
X126682753Y-127553760D01*
X126649500Y-127763713D01*
X126649500Y-127976286D01*
X126682753Y-128186239D01*
X126748444Y-128388414D01*
X126844951Y-128577820D01*
X126969890Y-128749786D01*
X127120213Y-128900109D01*
X127292179Y-129025048D01*
X127292181Y-129025049D01*
X127292184Y-129025051D01*
X127481588Y-129121557D01*
X127683757Y-129187246D01*
X127893713Y-129220500D01*
X127893714Y-129220500D01*
X128106286Y-129220500D01*
X128106287Y-129220500D01*
X128316243Y-129187246D01*
X128518412Y-129121557D01*
X128707816Y-129025051D01*
X128729789Y-129009086D01*
X128879786Y-128900109D01*
X128879788Y-128900106D01*
X128879792Y-128900104D01*
X129030104Y-128749792D01*
X129030106Y-128749788D01*
X129030109Y-128749786D01*
X129155048Y-128577820D01*
X129155047Y-128577820D01*
X129155051Y-128577816D01*
X129251557Y-128388412D01*
X129317246Y-128186243D01*
X129350500Y-127976287D01*
X129350500Y-127763713D01*
X129317246Y-127553757D01*
X129251557Y-127351588D01*
X129155051Y-127162184D01*
X129155049Y-127162181D01*
X129155048Y-127162179D01*
X129030109Y-126990213D01*
X128879786Y-126839890D01*
X128707820Y-126714951D01*
X128707115Y-126714591D01*
X128699054Y-126710485D01*
X128648259Y-126662512D01*
X128631463Y-126594692D01*
X128653999Y-126528556D01*
X128699054Y-126489515D01*
X128707816Y-126485051D01*
X128729789Y-126469086D01*
X128879786Y-126360109D01*
X128879788Y-126360106D01*
X128879792Y-126360104D01*
X129030104Y-126209792D01*
X129030106Y-126209788D01*
X129030109Y-126209786D01*
X129155048Y-126037820D01*
X129155047Y-126037820D01*
X129155051Y-126037816D01*
X129251557Y-125848412D01*
X129317246Y-125646243D01*
X129350500Y-125436287D01*
X129350500Y-125223713D01*
X129317246Y-125013757D01*
X129251557Y-124811588D01*
X129155051Y-124622184D01*
X129155049Y-124622181D01*
X129155048Y-124622179D01*
X129030109Y-124450213D01*
X128879786Y-124299890D01*
X128707820Y-124174951D01*
X128707115Y-124174591D01*
X128699054Y-124170485D01*
X128648259Y-124122512D01*
X128631463Y-124054692D01*
X128653999Y-123988556D01*
X128699054Y-123949515D01*
X128707816Y-123945051D01*
X128729789Y-123929086D01*
X128879786Y-123820109D01*
X128879788Y-123820106D01*
X128879792Y-123820104D01*
X129030104Y-123669792D01*
X129030106Y-123669788D01*
X129030109Y-123669786D01*
X129155048Y-123497820D01*
X129155047Y-123497820D01*
X129155051Y-123497816D01*
X129251557Y-123308412D01*
X129317246Y-123106243D01*
X129350500Y-122896287D01*
X129350500Y-122683713D01*
X129317246Y-122473757D01*
X129251557Y-122271588D01*
X129155051Y-122082184D01*
X129155049Y-122082181D01*
X129155048Y-122082179D01*
X129030109Y-121910213D01*
X128879786Y-121759890D01*
X128707820Y-121634951D01*
X128707115Y-121634591D01*
X128699054Y-121630485D01*
X128648259Y-121582512D01*
X128631463Y-121514692D01*
X128653999Y-121448556D01*
X128699054Y-121409515D01*
X128707816Y-121405051D01*
X128729789Y-121389086D01*
X128879786Y-121280109D01*
X128879788Y-121280106D01*
X128879792Y-121280104D01*
X129030104Y-121129792D01*
X129030106Y-121129788D01*
X129030109Y-121129786D01*
X129155048Y-120957820D01*
X129155047Y-120957820D01*
X129155051Y-120957816D01*
X129251557Y-120768412D01*
X129317246Y-120566243D01*
X129350500Y-120356287D01*
X129350500Y-120143713D01*
X129317246Y-119933757D01*
X129251557Y-119731588D01*
X129155051Y-119542184D01*
X129155049Y-119542181D01*
X129155048Y-119542179D01*
X129030109Y-119370213D01*
X128879786Y-119219890D01*
X128707820Y-119094951D01*
X128707115Y-119094591D01*
X128699054Y-119090485D01*
X128648259Y-119042512D01*
X128631463Y-118974692D01*
X128653999Y-118908556D01*
X128699054Y-118869515D01*
X128707816Y-118865051D01*
X128729789Y-118849086D01*
X128879786Y-118740109D01*
X128879788Y-118740106D01*
X128879792Y-118740104D01*
X129030104Y-118589792D01*
X129030106Y-118589788D01*
X129030109Y-118589786D01*
X129155048Y-118417820D01*
X129155047Y-118417820D01*
X129155051Y-118417816D01*
X129251557Y-118228412D01*
X129317246Y-118026243D01*
X129350500Y-117816287D01*
X129350500Y-117603713D01*
X129317246Y-117393757D01*
X129251557Y-117191588D01*
X129155051Y-117002184D01*
X129155049Y-117002181D01*
X129155048Y-117002179D01*
X129030109Y-116830213D01*
X128879786Y-116679890D01*
X128707820Y-116554951D01*
X128707115Y-116554591D01*
X128699054Y-116550485D01*
X128648259Y-116502512D01*
X128631463Y-116434692D01*
X128653999Y-116368556D01*
X128699054Y-116329515D01*
X128707816Y-116325051D01*
X128729789Y-116309086D01*
X128879786Y-116200109D01*
X128879788Y-116200106D01*
X128879792Y-116200104D01*
X129030104Y-116049792D01*
X129030106Y-116049788D01*
X129030109Y-116049786D01*
X129155048Y-115877820D01*
X129155047Y-115877820D01*
X129155051Y-115877816D01*
X129251557Y-115688412D01*
X129317246Y-115486243D01*
X129350500Y-115276287D01*
X129350500Y-115063713D01*
X129317246Y-114853757D01*
X129251557Y-114651588D01*
X129155051Y-114462184D01*
X129155049Y-114462181D01*
X129155048Y-114462179D01*
X129030109Y-114290213D01*
X128879786Y-114139890D01*
X128707820Y-114014951D01*
X128707115Y-114014591D01*
X128699054Y-114010485D01*
X128648259Y-113962512D01*
X128631463Y-113894692D01*
X128653999Y-113828556D01*
X128699054Y-113789515D01*
X128707816Y-113785051D01*
X128749433Y-113754815D01*
X128879786Y-113660109D01*
X128879788Y-113660106D01*
X128879792Y-113660104D01*
X129030104Y-113509792D01*
X129030106Y-113509788D01*
X129030109Y-113509786D01*
X129155048Y-113337820D01*
X129155047Y-113337820D01*
X129155051Y-113337816D01*
X129251557Y-113148412D01*
X129317246Y-112946243D01*
X129350500Y-112736287D01*
X129350500Y-112523713D01*
X129317246Y-112313757D01*
X129251557Y-112111588D01*
X129155051Y-111922184D01*
X129155049Y-111922181D01*
X129155048Y-111922179D01*
X129030109Y-111750213D01*
X128879786Y-111599890D01*
X128707820Y-111474951D01*
X128707115Y-111474591D01*
X128699054Y-111470485D01*
X128648259Y-111422512D01*
X128631463Y-111354692D01*
X128653999Y-111288556D01*
X128699054Y-111249515D01*
X128707816Y-111245051D01*
X128729789Y-111229086D01*
X128879786Y-111120109D01*
X128879788Y-111120106D01*
X128879792Y-111120104D01*
X129030104Y-110969792D01*
X129030106Y-110969788D01*
X129030109Y-110969786D01*
X129155048Y-110797820D01*
X129155047Y-110797820D01*
X129155051Y-110797816D01*
X129251557Y-110608412D01*
X129317246Y-110406243D01*
X129350500Y-110196287D01*
X129350500Y-109983713D01*
X129317246Y-109773757D01*
X129251557Y-109571588D01*
X129155051Y-109382184D01*
X129155049Y-109382181D01*
X129155048Y-109382179D01*
X129030109Y-109210213D01*
X128879786Y-109059890D01*
X128707820Y-108934951D01*
X128707115Y-108934591D01*
X128699054Y-108930485D01*
X128648259Y-108882512D01*
X128631463Y-108814692D01*
X128653999Y-108748556D01*
X128699054Y-108709515D01*
X128707816Y-108705051D01*
X128729789Y-108689086D01*
X128879786Y-108580109D01*
X128879788Y-108580106D01*
X128879792Y-108580104D01*
X129030104Y-108429792D01*
X129030106Y-108429788D01*
X129030109Y-108429786D01*
X129155048Y-108257820D01*
X129155047Y-108257820D01*
X129155051Y-108257816D01*
X129251557Y-108068412D01*
X129317246Y-107866243D01*
X129350500Y-107656287D01*
X129350500Y-107443713D01*
X129317246Y-107233757D01*
X129251557Y-107031588D01*
X129155051Y-106842184D01*
X129155050Y-106842182D01*
X129154343Y-106840795D01*
X129141447Y-106772126D01*
X129167723Y-106707385D01*
X129224830Y-106667128D01*
X129264828Y-106660500D01*
X134848060Y-106660500D01*
X134915099Y-106680185D01*
X134935741Y-106696819D01*
X135663181Y-107424259D01*
X135696666Y-107485582D01*
X135699500Y-107511940D01*
X135699500Y-110575500D01*
X135679815Y-110642539D01*
X135627011Y-110688294D01*
X135575500Y-110699500D01*
X134400894Y-110699500D01*
X134333855Y-110679815D01*
X134300577Y-110648387D01*
X134280104Y-110620208D01*
X134129792Y-110469896D01*
X134129786Y-110469890D01*
X133957820Y-110344951D01*
X133768414Y-110248444D01*
X133768413Y-110248443D01*
X133768412Y-110248443D01*
X133566243Y-110182754D01*
X133566241Y-110182753D01*
X133566240Y-110182753D01*
X133404957Y-110157208D01*
X133356287Y-110149500D01*
X133143713Y-110149500D01*
X133095042Y-110157208D01*
X132933760Y-110182753D01*
X132731585Y-110248444D01*
X132542179Y-110344951D01*
X132370213Y-110469890D01*
X132219890Y-110620213D01*
X132094951Y-110792179D01*
X131998444Y-110981585D01*
X131932753Y-111183760D01*
X131899500Y-111393713D01*
X131899500Y-111606286D01*
X131912546Y-111688659D01*
X131932754Y-111816243D01*
X131981049Y-111964880D01*
X131998444Y-112018414D01*
X132094951Y-112207820D01*
X132219890Y-112379786D01*
X132370213Y-112530109D01*
X132542182Y-112655050D01*
X132550946Y-112659516D01*
X132601742Y-112707491D01*
X132618536Y-112775312D01*
X132595998Y-112841447D01*
X132550946Y-112880484D01*
X132542182Y-112884949D01*
X132370213Y-113009890D01*
X132219890Y-113160213D01*
X132094951Y-113332179D01*
X131998444Y-113521585D01*
X131932753Y-113723760D01*
X131899500Y-113933713D01*
X131899500Y-114146286D01*
X131927442Y-114322708D01*
X131932754Y-114356243D01*
X131967176Y-114462184D01*
X131998444Y-114558414D01*
X132094951Y-114747820D01*
X132219890Y-114919786D01*
X132370213Y-115070109D01*
X132542179Y-115195048D01*
X132542181Y-115195049D01*
X132542184Y-115195051D01*
X132731588Y-115291557D01*
X132933757Y-115357246D01*
X133143713Y-115390500D01*
X133143714Y-115390500D01*
X133356286Y-115390500D01*
X133356287Y-115390500D01*
X133566243Y-115357246D01*
X133768412Y-115291557D01*
X133957816Y-115195051D01*
X134016807Y-115152192D01*
X134129786Y-115070109D01*
X134129788Y-115070106D01*
X134129792Y-115070104D01*
X134280104Y-114919792D01*
X134280106Y-114919788D01*
X134280109Y-114919786D01*
X134389086Y-114769789D01*
X134405051Y-114747816D01*
X134501557Y-114558412D01*
X134567246Y-114356243D01*
X134600500Y-114146287D01*
X134600500Y-113933713D01*
X134567246Y-113723757D01*
X134501557Y-113521588D01*
X134405051Y-113332184D01*
X134405049Y-113332181D01*
X134405048Y-113332179D01*
X134280109Y-113160213D01*
X134129786Y-113009890D01*
X133957820Y-112884951D01*
X133957115Y-112884591D01*
X133949054Y-112880485D01*
X133898259Y-112832512D01*
X133881463Y-112764692D01*
X133903999Y-112698556D01*
X133949054Y-112659515D01*
X133957816Y-112655051D01*
X133979789Y-112639086D01*
X134129786Y-112530109D01*
X134129788Y-112530106D01*
X134129792Y-112530104D01*
X134280104Y-112379792D01*
X134300577Y-112351613D01*
X134355906Y-112308949D01*
X134400894Y-112300500D01*
X135400500Y-112300500D01*
X135467539Y-112320185D01*
X135513294Y-112372989D01*
X135524500Y-112424500D01*
X135524500Y-112431616D01*
X135526423Y-112452778D01*
X135530913Y-112502192D01*
X135530913Y-112502194D01*
X135530914Y-112502196D01*
X135581522Y-112664606D01*
X135656384Y-112788443D01*
X135669530Y-112810188D01*
X135771661Y-112912319D01*
X135805146Y-112973642D01*
X135800162Y-113043334D01*
X135771661Y-113087681D01*
X135669531Y-113189810D01*
X135669530Y-113189811D01*
X135581522Y-113335393D01*
X135530913Y-113497807D01*
X135524500Y-113568386D01*
X135524500Y-114081613D01*
X135530913Y-114152192D01*
X135530913Y-114152194D01*
X135530914Y-114152196D01*
X135541259Y-114185394D01*
X135581522Y-114314606D01*
X135669530Y-114460188D01*
X135789811Y-114580469D01*
X135789813Y-114580470D01*
X135789815Y-114580472D01*
X135935394Y-114668478D01*
X136097804Y-114719086D01*
X136168384Y-114725500D01*
X136168387Y-114725500D01*
X136831613Y-114725500D01*
X136831616Y-114725500D01*
X136902196Y-114719086D01*
X137064606Y-114668478D01*
X137210185Y-114580472D01*
X137330472Y-114460185D01*
X137418478Y-114314606D01*
X137469086Y-114152196D01*
X137475500Y-114081616D01*
X137475500Y-113568384D01*
X137469086Y-113497804D01*
X137418478Y-113335394D01*
X137330472Y-113189815D01*
X137330470Y-113189813D01*
X137330469Y-113189811D01*
X137228339Y-113087681D01*
X137194854Y-113026358D01*
X137199838Y-112956666D01*
X137228339Y-112912319D01*
X137330468Y-112810189D01*
X137330469Y-112810188D01*
X137330472Y-112810185D01*
X137418478Y-112664606D01*
X137469086Y-112502196D01*
X137475500Y-112431616D01*
X137475500Y-111918384D01*
X137469086Y-111847804D01*
X137418478Y-111685394D01*
X137330472Y-111539815D01*
X137330469Y-111539812D01*
X137330466Y-111539807D01*
X137326885Y-111535235D01*
X137301039Y-111470322D01*
X137300500Y-111458768D01*
X137300500Y-107981940D01*
X137320185Y-107914901D01*
X137372989Y-107869146D01*
X137442147Y-107859202D01*
X137505703Y-107888227D01*
X137512181Y-107894259D01*
X138563181Y-108945259D01*
X138596666Y-109006582D01*
X138599500Y-109032940D01*
X138599500Y-111458768D01*
X138579815Y-111525807D01*
X138573115Y-111535235D01*
X138569533Y-111539807D01*
X138481522Y-111685393D01*
X138430913Y-111847807D01*
X138425782Y-111904275D01*
X138424500Y-111918384D01*
X138424500Y-112431616D01*
X138426423Y-112452778D01*
X138430913Y-112502192D01*
X138430913Y-112502194D01*
X138430914Y-112502196D01*
X138481522Y-112664606D01*
X138556384Y-112788443D01*
X138569530Y-112810188D01*
X138671661Y-112912319D01*
X138705146Y-112973642D01*
X138700162Y-113043334D01*
X138671661Y-113087681D01*
X138569531Y-113189810D01*
X138569530Y-113189811D01*
X138481522Y-113335393D01*
X138430913Y-113497807D01*
X138424500Y-113568386D01*
X138424500Y-114081613D01*
X138430913Y-114152192D01*
X138430913Y-114152194D01*
X138430914Y-114152196D01*
X138441259Y-114185394D01*
X138481522Y-114314606D01*
X138569530Y-114460188D01*
X138689811Y-114580469D01*
X138689813Y-114580470D01*
X138689815Y-114580472D01*
X138835394Y-114668478D01*
X138997804Y-114719086D01*
X139068384Y-114725500D01*
X139068387Y-114725500D01*
X139731613Y-114725500D01*
X139731616Y-114725500D01*
X139802196Y-114719086D01*
X139964606Y-114668478D01*
X140110185Y-114580472D01*
X140230472Y-114460185D01*
X140318478Y-114314606D01*
X140369086Y-114152196D01*
X140375500Y-114081616D01*
X140375500Y-113568384D01*
X140369086Y-113497804D01*
X140318478Y-113335394D01*
X140230472Y-113189815D01*
X140230470Y-113189813D01*
X140230469Y-113189811D01*
X140128339Y-113087681D01*
X140094854Y-113026358D01*
X140099838Y-112956666D01*
X140128339Y-112912319D01*
X140230468Y-112810189D01*
X140230469Y-112810188D01*
X140230472Y-112810185D01*
X140318478Y-112664606D01*
X140369086Y-112502196D01*
X140375500Y-112431616D01*
X140375500Y-112424500D01*
X140395185Y-112357461D01*
X140447989Y-112311706D01*
X140499500Y-112300500D01*
X141349106Y-112300500D01*
X141416145Y-112320185D01*
X141449422Y-112351612D01*
X141469896Y-112379792D01*
X141469898Y-112379794D01*
X141620213Y-112530109D01*
X141792182Y-112655050D01*
X141800946Y-112659516D01*
X141851742Y-112707491D01*
X141868536Y-112775312D01*
X141845998Y-112841447D01*
X141800946Y-112880484D01*
X141792182Y-112884949D01*
X141620213Y-113009890D01*
X141469890Y-113160213D01*
X141344951Y-113332179D01*
X141248444Y-113521585D01*
X141182753Y-113723760D01*
X141149500Y-113933713D01*
X141149500Y-114146286D01*
X141177442Y-114322708D01*
X141182754Y-114356243D01*
X141217176Y-114462184D01*
X141248444Y-114558414D01*
X141344951Y-114747820D01*
X141469890Y-114919786D01*
X141620213Y-115070109D01*
X141792179Y-115195048D01*
X141792181Y-115195049D01*
X141792184Y-115195051D01*
X141981588Y-115291557D01*
X142183757Y-115357246D01*
X142393713Y-115390500D01*
X142393714Y-115390500D01*
X142606286Y-115390500D01*
X142606287Y-115390500D01*
X142816243Y-115357246D01*
X143018412Y-115291557D01*
X143207816Y-115195051D01*
X143266807Y-115152192D01*
X143379786Y-115070109D01*
X143379788Y-115070106D01*
X143379792Y-115070104D01*
X143530104Y-114919792D01*
X143530104Y-114919791D01*
X143532819Y-114917077D01*
X143594142Y-114883592D01*
X143663834Y-114888576D01*
X143719767Y-114930448D01*
X143744184Y-114995912D01*
X143744500Y-115004758D01*
X143744500Y-117370500D01*
X143724815Y-117437539D01*
X143672011Y-117483294D01*
X143620500Y-117494500D01*
X140879500Y-117494500D01*
X140812461Y-117474815D01*
X140766706Y-117422011D01*
X140755500Y-117370500D01*
X140755500Y-116750000D01*
X140755500Y-116749999D01*
X140750355Y-116678060D01*
X140749603Y-116675500D01*
X140741929Y-116649365D01*
X140709819Y-116540008D01*
X140691464Y-116511447D01*
X140632032Y-116418969D01*
X140632028Y-116418965D01*
X140523299Y-116324750D01*
X140523297Y-116324748D01*
X140523294Y-116324746D01*
X140523290Y-116324744D01*
X140392419Y-116264976D01*
X140392414Y-116264975D01*
X140250000Y-116244500D01*
X138750000Y-116244500D01*
X138749997Y-116244500D01*
X138678059Y-116249644D01*
X138540005Y-116290182D01*
X138418969Y-116367967D01*
X138418965Y-116367971D01*
X138324750Y-116476700D01*
X138324744Y-116476709D01*
X138264976Y-116607580D01*
X138264975Y-116607585D01*
X138244500Y-116749999D01*
X138244500Y-117695296D01*
X138237055Y-117720647D01*
X138233295Y-117746806D01*
X138227365Y-117753649D01*
X138224815Y-117762335D01*
X138204846Y-117779637D01*
X138187540Y-117799611D01*
X138175395Y-117805157D01*
X138172011Y-117808090D01*
X138155436Y-117814273D01*
X138113435Y-117826606D01*
X138043565Y-117826606D01*
X137997298Y-117801343D01*
X137993015Y-117797632D01*
X137993010Y-117797628D01*
X137993005Y-117797624D01*
X137934227Y-117759850D01*
X137934209Y-117759840D01*
X137803357Y-117700082D01*
X137803350Y-117700080D01*
X137761852Y-117694114D01*
X137698297Y-117665088D01*
X137660523Y-117606310D01*
X137655500Y-117571376D01*
X137655500Y-116750000D01*
X137655500Y-116749999D01*
X137650355Y-116678060D01*
X137649603Y-116675500D01*
X137641929Y-116649365D01*
X137609819Y-116540008D01*
X137591464Y-116511447D01*
X137532032Y-116418969D01*
X137532028Y-116418965D01*
X137423299Y-116324750D01*
X137423297Y-116324748D01*
X137423294Y-116324746D01*
X137423290Y-116324744D01*
X137292419Y-116264976D01*
X137292414Y-116264975D01*
X137150000Y-116244500D01*
X135650000Y-116244500D01*
X135649997Y-116244500D01*
X135578059Y-116249644D01*
X135440005Y-116290182D01*
X135318969Y-116367967D01*
X135318965Y-116367971D01*
X135224750Y-116476700D01*
X135224744Y-116476709D01*
X135164976Y-116607580D01*
X135164975Y-116607585D01*
X135144500Y-116749999D01*
X135144500Y-117354907D01*
X135124815Y-117421946D01*
X135072011Y-117467701D01*
X135020928Y-117478906D01*
X130621832Y-117494075D01*
X130515249Y-117505814D01*
X130464168Y-117517020D01*
X130464164Y-117517021D01*
X130362503Y-117550956D01*
X130362493Y-117550960D01*
X130241462Y-117628743D01*
X130241451Y-117628751D01*
X130188659Y-117674495D01*
X130094433Y-117783236D01*
X130094430Y-117783240D01*
X130034664Y-117914106D01*
X130014976Y-117981154D01*
X130001325Y-118076100D01*
X129994500Y-118123572D01*
X129994500Y-124126000D01*
X129994501Y-124126009D01*
X130006052Y-124233450D01*
X130006054Y-124233462D01*
X130017260Y-124284972D01*
X130051383Y-124387497D01*
X130051386Y-124387503D01*
X130129171Y-124508537D01*
X130129179Y-124508548D01*
X130174923Y-124561340D01*
X130174926Y-124561343D01*
X130174930Y-124561347D01*
X130283664Y-124655567D01*
X130283667Y-124655568D01*
X130283668Y-124655569D01*
X130377925Y-124698616D01*
X130414541Y-124715338D01*
X130481580Y-124735023D01*
X130481584Y-124735024D01*
X130624000Y-124755500D01*
X130624003Y-124755500D01*
X137625990Y-124755500D01*
X137626000Y-124755500D01*
X137733456Y-124743947D01*
X137784967Y-124732741D01*
X137819197Y-124721347D01*
X137887497Y-124698616D01*
X137887501Y-124698613D01*
X137887504Y-124698613D01*
X138008543Y-124620825D01*
X138061347Y-124575070D01*
X138155567Y-124466336D01*
X138215338Y-124335459D01*
X138235023Y-124268420D01*
X138235024Y-124268416D01*
X138255500Y-124126000D01*
X138255500Y-120379500D01*
X138275185Y-120312461D01*
X138327989Y-120266706D01*
X138379500Y-120255500D01*
X150972974Y-120255500D01*
X151038070Y-120273961D01*
X151055659Y-120284810D01*
X151055660Y-120284810D01*
X151055666Y-120284814D01*
X151222203Y-120339999D01*
X151324991Y-120350500D01*
X152163929Y-120350499D01*
X152230968Y-120370183D01*
X152268244Y-120407459D01*
X152333203Y-120508537D01*
X152333212Y-120508548D01*
X152378956Y-120561340D01*
X152378959Y-120561343D01*
X152378963Y-120561347D01*
X152487697Y-120655567D01*
X152487700Y-120655568D01*
X152487701Y-120655569D01*
X152581958Y-120698616D01*
X152618574Y-120715338D01*
X152685613Y-120735023D01*
X152685617Y-120735024D01*
X152828033Y-120755500D01*
X152828036Y-120755500D01*
X156375990Y-120755500D01*
X156376000Y-120755500D01*
X156483456Y-120743947D01*
X156534967Y-120732741D01*
X156569197Y-120721347D01*
X156637497Y-120698616D01*
X156637501Y-120698613D01*
X156637504Y-120698613D01*
X156758543Y-120620825D01*
X156811347Y-120575070D01*
X156905567Y-120466336D01*
X156965338Y-120335459D01*
X156985023Y-120268420D01*
X156985024Y-120268416D01*
X157005500Y-120126000D01*
X157005500Y-117495183D01*
X157004773Y-117478777D01*
X157003519Y-117450479D01*
X157003262Y-117447588D01*
X157001577Y-117428611D01*
X156995644Y-117384224D01*
X156994906Y-117381998D01*
X156962652Y-117284663D01*
X156950386Y-117247647D01*
X156919193Y-117185127D01*
X156919191Y-117185124D01*
X156919186Y-117185116D01*
X156837289Y-117066833D01*
X156809766Y-117044594D01*
X156769993Y-116987150D01*
X156767590Y-116917321D01*
X156769992Y-116909140D01*
X156790349Y-116847708D01*
X156800500Y-116748345D01*
X156800499Y-116201656D01*
X156800340Y-116200104D01*
X156790349Y-116102292D01*
X156790348Y-116102289D01*
X156764319Y-116023739D01*
X156737003Y-115941303D01*
X156736999Y-115941297D01*
X156736998Y-115941294D01*
X156715732Y-115906817D01*
X156697291Y-115839425D01*
X156718213Y-115772761D01*
X156771855Y-115727992D01*
X156797087Y-115720101D01*
X156802184Y-115719087D01*
X156802196Y-115719086D01*
X156964606Y-115668478D01*
X157110185Y-115580472D01*
X157230472Y-115460185D01*
X157318478Y-115314606D01*
X157369086Y-115152196D01*
X157375500Y-115081616D01*
X157375500Y-114418384D01*
X157369086Y-114347804D01*
X157318478Y-114185394D01*
X157230472Y-114039815D01*
X157230470Y-114039813D01*
X157230469Y-114039811D01*
X157110188Y-113919530D01*
X157047373Y-113881557D01*
X156964606Y-113831522D01*
X156802196Y-113780914D01*
X156802194Y-113780913D01*
X156802192Y-113780913D01*
X156752778Y-113776423D01*
X156731616Y-113774500D01*
X156731613Y-113774500D01*
X156379500Y-113774500D01*
X156312461Y-113754815D01*
X156266706Y-113702011D01*
X156255500Y-113650500D01*
X156255500Y-112124010D01*
X156255500Y-112124000D01*
X156243947Y-112016544D01*
X156232741Y-111965033D01*
X156232637Y-111964722D01*
X156198616Y-111862502D01*
X156198613Y-111862496D01*
X156168885Y-111816239D01*
X156120825Y-111741457D01*
X156120820Y-111741451D01*
X156075076Y-111688659D01*
X156075072Y-111688656D01*
X156075070Y-111688653D01*
X155966336Y-111594433D01*
X155966333Y-111594431D01*
X155966331Y-111594430D01*
X155835465Y-111534664D01*
X155835460Y-111534662D01*
X155835459Y-111534662D01*
X155768420Y-111514977D01*
X155768422Y-111514977D01*
X155768417Y-111514976D01*
X155696373Y-111504618D01*
X155626000Y-111494500D01*
X154276261Y-111494500D01*
X154276254Y-111494500D01*
X154175625Y-111504618D01*
X154175624Y-111504618D01*
X154175623Y-111504619D01*
X154127236Y-111514449D01*
X154030616Y-111544406D01*
X153907483Y-111618831D01*
X153853442Y-111663112D01*
X153756265Y-111769212D01*
X153756264Y-111769213D01*
X153692913Y-111898396D01*
X153692909Y-111898406D01*
X153671390Y-111964869D01*
X153671387Y-111964880D01*
X153647000Y-112106662D01*
X153646999Y-112106666D01*
X153663546Y-112249587D01*
X153663546Y-112249589D01*
X153673855Y-112288645D01*
X153673855Y-112288646D01*
X153686262Y-112335655D01*
X153685866Y-112335779D01*
X153688670Y-112344779D01*
X153689372Y-112347437D01*
X153689840Y-112349209D01*
X153690730Y-112351392D01*
X153714385Y-112427304D01*
X153720000Y-112464194D01*
X153720000Y-113035805D01*
X153719792Y-113037165D01*
X153719983Y-113037855D01*
X153714383Y-113072702D01*
X153708602Y-113091250D01*
X153696339Y-113118498D01*
X153687419Y-113133255D01*
X153668980Y-113156791D01*
X153656791Y-113168980D01*
X153633258Y-113187417D01*
X153618502Y-113196337D01*
X153591250Y-113208603D01*
X153572701Y-113214384D01*
X153535805Y-113220000D01*
X153114193Y-113220000D01*
X153077305Y-113214386D01*
X153061254Y-113209384D01*
X153022400Y-113198955D01*
X153022386Y-113198951D01*
X153022383Y-113198951D01*
X153010825Y-113196337D01*
X153003136Y-113194598D01*
X152963584Y-113187295D01*
X152819706Y-113187295D01*
X152788846Y-113191732D01*
X152750545Y-113197240D01*
X152750540Y-113197241D01*
X152750536Y-113197242D01*
X152612498Y-113237774D01*
X152612492Y-113237777D01*
X152491462Y-113315559D01*
X152491451Y-113315567D01*
X152438659Y-113361311D01*
X152344433Y-113470052D01*
X152344430Y-113470056D01*
X152284664Y-113600922D01*
X152264976Y-113667970D01*
X152244500Y-113810389D01*
X152244500Y-114700500D01*
X152224815Y-114767539D01*
X152172011Y-114813294D01*
X152120500Y-114824500D01*
X151600097Y-114824500D01*
X151533058Y-114804815D01*
X151512416Y-114788181D01*
X150836818Y-114112583D01*
X150803333Y-114051260D01*
X150800499Y-114024902D01*
X150800499Y-113676662D01*
X150800498Y-113676644D01*
X150790349Y-113577292D01*
X150790348Y-113577289D01*
X150787397Y-113568384D01*
X150737003Y-113416303D01*
X150736999Y-113416297D01*
X150736998Y-113416294D01*
X150647970Y-113271959D01*
X150647967Y-113271955D01*
X150528044Y-113152032D01*
X150528040Y-113152029D01*
X150383705Y-113063001D01*
X150383699Y-113062998D01*
X150383697Y-113062997D01*
X150358592Y-113054678D01*
X150222709Y-113009651D01*
X150123346Y-112999500D01*
X149526662Y-112999500D01*
X149526644Y-112999501D01*
X149427292Y-113009650D01*
X149427289Y-113009651D01*
X149266305Y-113062996D01*
X149266294Y-113063001D01*
X149121959Y-113152029D01*
X149121955Y-113152032D01*
X149002032Y-113271955D01*
X149002029Y-113271959D01*
X148913001Y-113416294D01*
X148912996Y-113416305D01*
X148859651Y-113577290D01*
X148849500Y-113676647D01*
X148849500Y-114223337D01*
X148849501Y-114223355D01*
X148859650Y-114322707D01*
X148859651Y-114322710D01*
X148912996Y-114483694D01*
X148913001Y-114483705D01*
X149002029Y-114628040D01*
X149002032Y-114628044D01*
X149121955Y-114747967D01*
X149121959Y-114747970D01*
X149266294Y-114836998D01*
X149266297Y-114836999D01*
X149266303Y-114837003D01*
X149427292Y-114890349D01*
X149526655Y-114900500D01*
X149874902Y-114900499D01*
X149941941Y-114920183D01*
X149962583Y-114936818D01*
X150894478Y-115868713D01*
X150894480Y-115868716D01*
X150988182Y-115962418D01*
X151021666Y-116023739D01*
X151024500Y-116050098D01*
X151024500Y-116126047D01*
X151039635Y-116240997D01*
X151039636Y-116241002D01*
X151098882Y-116384036D01*
X151098883Y-116384037D01*
X151193133Y-116506867D01*
X151315963Y-116601117D01*
X151315962Y-116601117D01*
X151394189Y-116633519D01*
X151459001Y-116660365D01*
X151573960Y-116675500D01*
X151922580Y-116675500D01*
X151955126Y-116685056D01*
X151987872Y-116694082D01*
X151988589Y-116694882D01*
X151989619Y-116695185D01*
X152011825Y-116720813D01*
X152034500Y-116746116D01*
X152034670Y-116747177D01*
X152035374Y-116747989D01*
X152040204Y-116781586D01*
X152045595Y-116815100D01*
X152045192Y-116816272D01*
X152045318Y-116817147D01*
X152036217Y-116849125D01*
X152033141Y-116856168D01*
X152007262Y-116899786D01*
X152001340Y-116914083D01*
X151979657Y-116978307D01*
X151979432Y-116979154D01*
X151979348Y-116979349D01*
X151978622Y-116982202D01*
X151978336Y-116983301D01*
X151971178Y-117010369D01*
X151971172Y-117010399D01*
X151970975Y-117011412D01*
X151970974Y-117011411D01*
X151970161Y-117015594D01*
X151970122Y-117015585D01*
X151969763Y-117016995D01*
X151968151Y-117025942D01*
X151967972Y-117026864D01*
X151967961Y-117026928D01*
X151963650Y-117049133D01*
X151931550Y-117111192D01*
X151870993Y-117146044D01*
X151841923Y-117149500D01*
X151324998Y-117149500D01*
X151324980Y-117149501D01*
X151222203Y-117160000D01*
X151222200Y-117160001D01*
X151055668Y-117215185D01*
X151055659Y-117215189D01*
X151038070Y-117226039D01*
X150972974Y-117244500D01*
X150796153Y-117244500D01*
X150684130Y-117257069D01*
X150684126Y-117257069D01*
X150684125Y-117257070D01*
X150630535Y-117269249D01*
X150524102Y-117306322D01*
X150417409Y-117377711D01*
X150404522Y-117386334D01*
X150364928Y-117421946D01*
X150352564Y-117433066D01*
X150260374Y-117543526D01*
X150260372Y-117543529D01*
X150256348Y-117550054D01*
X150238494Y-117572632D01*
X150222632Y-117588494D01*
X150200048Y-117606351D01*
X150180940Y-117618137D01*
X150154849Y-117630304D01*
X150129501Y-117638704D01*
X150090495Y-117644999D01*
X149559505Y-117644999D01*
X149556711Y-117644548D01*
X149555239Y-117644926D01*
X149520498Y-117638704D01*
X149495142Y-117630301D01*
X149469056Y-117618137D01*
X149449961Y-117606360D01*
X149427376Y-117588502D01*
X149411497Y-117572624D01*
X149393642Y-117550041D01*
X149389620Y-117543521D01*
X149320113Y-117454775D01*
X149303193Y-117437539D01*
X149281618Y-117415562D01*
X149281612Y-117415557D01*
X149266492Y-117403257D01*
X149194183Y-117344433D01*
X149063309Y-117284663D01*
X148996264Y-117264976D01*
X148924568Y-117254668D01*
X148853847Y-117244500D01*
X148796153Y-117244500D01*
X148796152Y-117244500D01*
X148760182Y-117247072D01*
X148724211Y-117249645D01*
X148717224Y-117250649D01*
X148689272Y-117254668D01*
X148618855Y-117269983D01*
X148593328Y-117281637D01*
X148593113Y-117281735D01*
X148588074Y-117284036D01*
X148524112Y-117306318D01*
X148491549Y-117328104D01*
X148487972Y-117329738D01*
X148486784Y-117330501D01*
X148486765Y-117330510D01*
X148472068Y-117339956D01*
X148472056Y-117339964D01*
X148441292Y-117359729D01*
X148441213Y-117359786D01*
X148429132Y-117367552D01*
X148419667Y-117375752D01*
X148415857Y-117378576D01*
X148415136Y-117378840D01*
X148410999Y-117381998D01*
X148404529Y-117386327D01*
X148352575Y-117433054D01*
X148351819Y-117433843D01*
X148343527Y-117441727D01*
X148320427Y-117461744D01*
X148320420Y-117461752D01*
X148297111Y-117498017D01*
X148290678Y-117507102D01*
X148289350Y-117508809D01*
X148260375Y-117543527D01*
X148252825Y-117555766D01*
X148248690Y-117561083D01*
X148246219Y-117562861D01*
X148238494Y-117572632D01*
X148222632Y-117588494D01*
X148200048Y-117606351D01*
X148180940Y-117618137D01*
X148154849Y-117630304D01*
X148129501Y-117638704D01*
X148090495Y-117644999D01*
X147559505Y-117644999D01*
X147556711Y-117644548D01*
X147555239Y-117644926D01*
X147520498Y-117638704D01*
X147495142Y-117630301D01*
X147469053Y-117618135D01*
X147449959Y-117606358D01*
X147427374Y-117588500D01*
X147411500Y-117572626D01*
X147393644Y-117550044D01*
X147381862Y-117530942D01*
X147369693Y-117504846D01*
X147369579Y-117504503D01*
X147361293Y-117479494D01*
X147355000Y-117440494D01*
X147355000Y-116959502D01*
X147355450Y-116956711D01*
X147355073Y-116955242D01*
X147361291Y-116920507D01*
X147369697Y-116895139D01*
X147381862Y-116869053D01*
X147393642Y-116849955D01*
X147411493Y-116827378D01*
X147427373Y-116811498D01*
X147449958Y-116793641D01*
X147456475Y-116789622D01*
X147545223Y-116720112D01*
X147584440Y-116681613D01*
X147655567Y-116594181D01*
X147715338Y-116463304D01*
X147735023Y-116396265D01*
X147735024Y-116396261D01*
X147755500Y-116253845D01*
X147755500Y-104129500D01*
X147775185Y-104062461D01*
X147827989Y-104016706D01*
X147879500Y-104005500D01*
X150875990Y-104005500D01*
X150876000Y-104005500D01*
X150983456Y-103993947D01*
X151034967Y-103982741D01*
X151077829Y-103968475D01*
X151137497Y-103948616D01*
X151137501Y-103948613D01*
X151137504Y-103948613D01*
X151258543Y-103870825D01*
X151311347Y-103825070D01*
X151405567Y-103716336D01*
X151465338Y-103585459D01*
X151485023Y-103518420D01*
X151485024Y-103518416D01*
X151505500Y-103376000D01*
X151505500Y-102990127D01*
X151525185Y-102923088D01*
X151577989Y-102877333D01*
X151647147Y-102867389D01*
X151702386Y-102889809D01*
X151792184Y-102955051D01*
X151981588Y-103051557D01*
X152183757Y-103117246D01*
X152393713Y-103150500D01*
X152393714Y-103150500D01*
X152606285Y-103150500D01*
X152606287Y-103150500D01*
X152640686Y-103145051D01*
X152709977Y-103154005D01*
X152747765Y-103179843D01*
X153739707Y-104171786D01*
X153739711Y-104171789D01*
X153870814Y-104259390D01*
X153870818Y-104259392D01*
X153870821Y-104259394D01*
X154016503Y-104319738D01*
X154171153Y-104350499D01*
X154171157Y-104350500D01*
X154171158Y-104350500D01*
X154385525Y-104350500D01*
X154452564Y-104370185D01*
X154498319Y-104422989D01*
X154504500Y-104439559D01*
X154519777Y-104491588D01*
X154525182Y-104509993D01*
X154602967Y-104631029D01*
X154602971Y-104631033D01*
X154675358Y-104693757D01*
X154711706Y-104725253D01*
X154752174Y-104743734D01*
X154842580Y-104785022D01*
X154842583Y-104785022D01*
X154842584Y-104785023D01*
X154985000Y-104805499D01*
X154985003Y-104805499D01*
X156134998Y-104805499D01*
X156135000Y-104805499D01*
X156135002Y-104805498D01*
X156135021Y-104805498D01*
X156215326Y-104799075D01*
X156215326Y-104799074D01*
X156215338Y-104799074D01*
X156243740Y-104790212D01*
X156298316Y-104785847D01*
X156435000Y-104805499D01*
X156435003Y-104805499D01*
X157435000Y-104805499D01*
X157506940Y-104800354D01*
X157644992Y-104759818D01*
X157766032Y-104682030D01*
X157860254Y-104573293D01*
X157901542Y-104482883D01*
X157920023Y-104442418D01*
X157920024Y-104442413D01*
X157922817Y-104422989D01*
X157940500Y-104299999D01*
X157940500Y-104064471D01*
X157960185Y-103997432D01*
X158012989Y-103951677D01*
X158082147Y-103941733D01*
X158128649Y-103958354D01*
X158145394Y-103968477D01*
X158307804Y-104019085D01*
X158378384Y-104025499D01*
X158378387Y-104025499D01*
X158891613Y-104025499D01*
X158891616Y-104025499D01*
X158962196Y-104019085D01*
X159124606Y-103968477D01*
X159270185Y-103880471D01*
X159300172Y-103850484D01*
X159372319Y-103778338D01*
X159433642Y-103744853D01*
X159503334Y-103749837D01*
X159547681Y-103778338D01*
X159649811Y-103880468D01*
X159649813Y-103880469D01*
X159649815Y-103880471D01*
X159795394Y-103968477D01*
X159957804Y-104019085D01*
X160028384Y-104025499D01*
X160028387Y-104025499D01*
X160541613Y-104025499D01*
X160541616Y-104025499D01*
X160612196Y-104019085D01*
X160774606Y-103968477D01*
X160920185Y-103880471D01*
X161040472Y-103760184D01*
X161128478Y-103614605D01*
X161179086Y-103452195D01*
X161185500Y-103381615D01*
X161185500Y-102718383D01*
X161179086Y-102647803D01*
X161128478Y-102485393D01*
X161113135Y-102460013D01*
X161103383Y-102443880D01*
X161085500Y-102379731D01*
X161085500Y-101470267D01*
X161103384Y-101406116D01*
X161128475Y-101364611D01*
X161128475Y-101364610D01*
X161128478Y-101364606D01*
X161179086Y-101202196D01*
X161185500Y-101131616D01*
X161185500Y-100468384D01*
X161179086Y-100397804D01*
X161128478Y-100235394D01*
X161040472Y-100089815D01*
X161040470Y-100089813D01*
X161040469Y-100089811D01*
X160920188Y-99969530D01*
X160816349Y-99906757D01*
X160774606Y-99881522D01*
X160612196Y-99830914D01*
X160612194Y-99830913D01*
X160612192Y-99830913D01*
X160562778Y-99826423D01*
X160541616Y-99824500D01*
X160028384Y-99824500D01*
X160009145Y-99826248D01*
X159957807Y-99830913D01*
X159795393Y-99881522D01*
X159649811Y-99969530D01*
X159649810Y-99969531D01*
X159547681Y-100071661D01*
X159486358Y-100105146D01*
X159416666Y-100100162D01*
X159372319Y-100071661D01*
X159270188Y-99969530D01*
X159166349Y-99906757D01*
X159124606Y-99881522D01*
X158962196Y-99830914D01*
X158962194Y-99830913D01*
X158962192Y-99830913D01*
X158912778Y-99826423D01*
X158891616Y-99824500D01*
X158378384Y-99824500D01*
X158359145Y-99826248D01*
X158307807Y-99830913D01*
X158307804Y-99830914D01*
X158145394Y-99881522D01*
X158145392Y-99881522D01*
X158145392Y-99881523D01*
X158128648Y-99891645D01*
X158061093Y-99909480D01*
X157994620Y-99887961D01*
X157950333Y-99833920D01*
X157940500Y-99785527D01*
X157940500Y-99550000D01*
X157940500Y-99549999D01*
X157935355Y-99478060D01*
X157894819Y-99340008D01*
X157817031Y-99218968D01*
X157758173Y-99167967D01*
X157708299Y-99124750D01*
X157708297Y-99124748D01*
X157708294Y-99124746D01*
X157708290Y-99124744D01*
X157577419Y-99064976D01*
X157577414Y-99064975D01*
X157435000Y-99044500D01*
X156435000Y-99044500D01*
X156434984Y-99044500D01*
X156371481Y-99048506D01*
X156362707Y-99050923D01*
X156324889Y-99061340D01*
X156274316Y-99064530D01*
X156135000Y-99044500D01*
X154985000Y-99044500D01*
X154984997Y-99044500D01*
X154913059Y-99049644D01*
X154775005Y-99090182D01*
X154653969Y-99167967D01*
X154653965Y-99167971D01*
X154559750Y-99276700D01*
X154559744Y-99276709D01*
X154499977Y-99407579D01*
X154499141Y-99410429D01*
X154497534Y-99412928D01*
X154496291Y-99415652D01*
X154495899Y-99415473D01*
X154461369Y-99469209D01*
X154397815Y-99498237D01*
X154380162Y-99499500D01*
X153921154Y-99499500D01*
X153766509Y-99530261D01*
X153766497Y-99530264D01*
X153723832Y-99547936D01*
X153723833Y-99547937D01*
X153620823Y-99590604D01*
X153620814Y-99590609D01*
X153489712Y-99678209D01*
X153489710Y-99678212D01*
X152747764Y-100420156D01*
X152686441Y-100453641D01*
X152640686Y-100454948D01*
X152606287Y-100449500D01*
X152393713Y-100449500D01*
X152367568Y-100453641D01*
X152183760Y-100482753D01*
X151981585Y-100548444D01*
X151792184Y-100644948D01*
X151702385Y-100710191D01*
X151636578Y-100733670D01*
X151568524Y-100717844D01*
X151519830Y-100667738D01*
X151505500Y-100609872D01*
X151505500Y-96690127D01*
X151525185Y-96623088D01*
X151577989Y-96577333D01*
X151647147Y-96567389D01*
X151702386Y-96589809D01*
X151792184Y-96655051D01*
X151981588Y-96751557D01*
X152183757Y-96817246D01*
X152393713Y-96850500D01*
X152393714Y-96850500D01*
X152606285Y-96850500D01*
X152606287Y-96850500D01*
X152640686Y-96845051D01*
X152709977Y-96854005D01*
X152747765Y-96879843D01*
X153739707Y-97871786D01*
X153739711Y-97871789D01*
X153870814Y-97959390D01*
X153870818Y-97959392D01*
X153870821Y-97959394D01*
X154016503Y-98019738D01*
X154171153Y-98050499D01*
X154171157Y-98050500D01*
X154171158Y-98050500D01*
X154385525Y-98050500D01*
X154452564Y-98070185D01*
X154498319Y-98122989D01*
X154504500Y-98139559D01*
X154525130Y-98209819D01*
X154525182Y-98209993D01*
X154602967Y-98331029D01*
X154602971Y-98331033D01*
X154711700Y-98425248D01*
X154711706Y-98425253D01*
X154752174Y-98443734D01*
X154842580Y-98485022D01*
X154842583Y-98485022D01*
X154842584Y-98485023D01*
X154985000Y-98505499D01*
X154985003Y-98505499D01*
X156134998Y-98505499D01*
X156135000Y-98505499D01*
X156135002Y-98505498D01*
X156135021Y-98505498D01*
X156215326Y-98499075D01*
X156215326Y-98499074D01*
X156215338Y-98499074D01*
X156243740Y-98490212D01*
X156298316Y-98485847D01*
X156435000Y-98505499D01*
X156435003Y-98505499D01*
X157435000Y-98505499D01*
X157506940Y-98500354D01*
X157644992Y-98459818D01*
X157766032Y-98382030D01*
X157860254Y-98273293D01*
X157901542Y-98182883D01*
X157920023Y-98142418D01*
X157920024Y-98142413D01*
X157920434Y-98139564D01*
X157940500Y-97999999D01*
X157940500Y-97764471D01*
X157960185Y-97697432D01*
X158012989Y-97651677D01*
X158082147Y-97641733D01*
X158128649Y-97658354D01*
X158145394Y-97668477D01*
X158307804Y-97719085D01*
X158378384Y-97725499D01*
X158378387Y-97725499D01*
X158891613Y-97725499D01*
X158891616Y-97725499D01*
X158962196Y-97719085D01*
X159124606Y-97668477D01*
X159270185Y-97580471D01*
X159319972Y-97530684D01*
X159372319Y-97478338D01*
X159433642Y-97444853D01*
X159503334Y-97449837D01*
X159547681Y-97478338D01*
X159649811Y-97580468D01*
X159649813Y-97580469D01*
X159649815Y-97580471D01*
X159795394Y-97668477D01*
X159957804Y-97719085D01*
X160028384Y-97725499D01*
X160028387Y-97725499D01*
X160541613Y-97725499D01*
X160541616Y-97725499D01*
X160612196Y-97719085D01*
X160774606Y-97668477D01*
X160920185Y-97580471D01*
X161040472Y-97460184D01*
X161128478Y-97314605D01*
X161179086Y-97152195D01*
X161185500Y-97081615D01*
X161185500Y-96418383D01*
X161179086Y-96347803D01*
X161128478Y-96185393D01*
X161113135Y-96160013D01*
X161103383Y-96143880D01*
X161085500Y-96079731D01*
X161085500Y-95170267D01*
X161103384Y-95106116D01*
X161128475Y-95064611D01*
X161128475Y-95064610D01*
X161128478Y-95064606D01*
X161179086Y-94902196D01*
X161185500Y-94831616D01*
X161185500Y-94782940D01*
X161205185Y-94715901D01*
X161221819Y-94695259D01*
X161332474Y-94584604D01*
X161469251Y-94447826D01*
X161530572Y-94414343D01*
X161600263Y-94419327D01*
X161656197Y-94461198D01*
X161680614Y-94526663D01*
X161679403Y-94554906D01*
X161651422Y-94731578D01*
X161649500Y-94743713D01*
X161649500Y-94956287D01*
X161682754Y-95166243D01*
X161739604Y-95341210D01*
X161748444Y-95368414D01*
X161844951Y-95557820D01*
X161969890Y-95729786D01*
X162120213Y-95880109D01*
X162292182Y-96005050D01*
X162300946Y-96009516D01*
X162351742Y-96057491D01*
X162368536Y-96125312D01*
X162345998Y-96191447D01*
X162300946Y-96230484D01*
X162292182Y-96234949D01*
X162120213Y-96359890D01*
X161969890Y-96510213D01*
X161844951Y-96682179D01*
X161748444Y-96871585D01*
X161682753Y-97073760D01*
X161661146Y-97210185D01*
X161649500Y-97283713D01*
X161649500Y-97496287D01*
X161657689Y-97547989D01*
X161674111Y-97651677D01*
X161682754Y-97706243D01*
X161742321Y-97889571D01*
X161748444Y-97908414D01*
X161844951Y-98097820D01*
X161969890Y-98269786D01*
X162120213Y-98420109D01*
X162292182Y-98545050D01*
X162300946Y-98549516D01*
X162351742Y-98597491D01*
X162368536Y-98665312D01*
X162345998Y-98731447D01*
X162300946Y-98770484D01*
X162292182Y-98774949D01*
X162120213Y-98899890D01*
X161969890Y-99050213D01*
X161844951Y-99222179D01*
X161748444Y-99411585D01*
X161682753Y-99613760D01*
X161649500Y-99823713D01*
X161649500Y-100036286D01*
X161682753Y-100246239D01*
X161682753Y-100246241D01*
X161682754Y-100246243D01*
X161732000Y-100397807D01*
X161748444Y-100448414D01*
X161844951Y-100637820D01*
X161969890Y-100809786D01*
X162120213Y-100960109D01*
X162292182Y-101085050D01*
X162300946Y-101089516D01*
X162351742Y-101137491D01*
X162368536Y-101205312D01*
X162345998Y-101271447D01*
X162300946Y-101310484D01*
X162292182Y-101314949D01*
X162120213Y-101439890D01*
X161969890Y-101590213D01*
X161844951Y-101762179D01*
X161748444Y-101951585D01*
X161682753Y-102153760D01*
X161649500Y-102363713D01*
X161649500Y-102576286D01*
X161681985Y-102781393D01*
X161682754Y-102786243D01*
X161737603Y-102955051D01*
X161748444Y-102988414D01*
X161844951Y-103177820D01*
X161969890Y-103349786D01*
X162120213Y-103500109D01*
X162292182Y-103625050D01*
X162300946Y-103629516D01*
X162351742Y-103677491D01*
X162368536Y-103745312D01*
X162345998Y-103811447D01*
X162300946Y-103850484D01*
X162292182Y-103854949D01*
X162120213Y-103979890D01*
X161969890Y-104130213D01*
X161844951Y-104302179D01*
X161748444Y-104491585D01*
X161682753Y-104693760D01*
X161649500Y-104903713D01*
X161649500Y-105116286D01*
X161682753Y-105326239D01*
X161748444Y-105528414D01*
X161844951Y-105717820D01*
X161969890Y-105889786D01*
X162120213Y-106040109D01*
X162292182Y-106165050D01*
X162300946Y-106169516D01*
X162351742Y-106217491D01*
X162368536Y-106285312D01*
X162345998Y-106351447D01*
X162300946Y-106390484D01*
X162292182Y-106394949D01*
X162120213Y-106519890D01*
X161969890Y-106670213D01*
X161844951Y-106842179D01*
X161748444Y-107031585D01*
X161682753Y-107233760D01*
X161649500Y-107443713D01*
X161649500Y-107656286D01*
X161681638Y-107859202D01*
X161682754Y-107866243D01*
X161720346Y-107981940D01*
X161748444Y-108068414D01*
X161844951Y-108257820D01*
X161969890Y-108429786D01*
X162120213Y-108580109D01*
X162292182Y-108705050D01*
X162300946Y-108709516D01*
X162351742Y-108757491D01*
X162368536Y-108825312D01*
X162345998Y-108891447D01*
X162300946Y-108930484D01*
X162292182Y-108934949D01*
X162120213Y-109059890D01*
X161969890Y-109210213D01*
X161844951Y-109382179D01*
X161748444Y-109571585D01*
X161682753Y-109773760D01*
X161649500Y-109983713D01*
X161649500Y-110196287D01*
X161682754Y-110406243D01*
X161737749Y-110575500D01*
X161748444Y-110608414D01*
X161844951Y-110797820D01*
X161969890Y-110969786D01*
X162120213Y-111120109D01*
X162292182Y-111245050D01*
X162300946Y-111249516D01*
X162351742Y-111297491D01*
X162368536Y-111365312D01*
X162345998Y-111431447D01*
X162300946Y-111470484D01*
X162292182Y-111474949D01*
X162120213Y-111599890D01*
X161969890Y-111750213D01*
X161844951Y-111922179D01*
X161748444Y-112111585D01*
X161682753Y-112313760D01*
X161652909Y-112502192D01*
X161649500Y-112523713D01*
X161649500Y-112736287D01*
X161682754Y-112946243D01*
X161747706Y-113146145D01*
X161748444Y-113148414D01*
X161844951Y-113337820D01*
X161969890Y-113509786D01*
X162120213Y-113660109D01*
X162292182Y-113785050D01*
X162300946Y-113789516D01*
X162351742Y-113837491D01*
X162368536Y-113905312D01*
X162345998Y-113971447D01*
X162300946Y-114010484D01*
X162292182Y-114014949D01*
X162120213Y-114139890D01*
X161969890Y-114290213D01*
X161844951Y-114462179D01*
X161748444Y-114651585D01*
X161682753Y-114853760D01*
X161649500Y-115063713D01*
X161649500Y-115276286D01*
X161682753Y-115486239D01*
X161748444Y-115688414D01*
X161844951Y-115877820D01*
X161969890Y-116049786D01*
X162120213Y-116200109D01*
X162292182Y-116325050D01*
X162300946Y-116329516D01*
X162351742Y-116377491D01*
X162368536Y-116445312D01*
X162345998Y-116511447D01*
X162300946Y-116550484D01*
X162292182Y-116554949D01*
X162120213Y-116679890D01*
X161969890Y-116830213D01*
X161844951Y-117002179D01*
X161748444Y-117191585D01*
X161682753Y-117393760D01*
X161650287Y-117598744D01*
X161649500Y-117603713D01*
X161649500Y-117816287D01*
X161651178Y-117826882D01*
X161675612Y-117981154D01*
X161682754Y-118026243D01*
X161714378Y-118123572D01*
X161748444Y-118228414D01*
X161844951Y-118417820D01*
X161969890Y-118589786D01*
X162120213Y-118740109D01*
X162292182Y-118865050D01*
X162300946Y-118869516D01*
X162351742Y-118917491D01*
X162368536Y-118985312D01*
X162345998Y-119051447D01*
X162300946Y-119090484D01*
X162292182Y-119094949D01*
X162120213Y-119219890D01*
X161969890Y-119370213D01*
X161844951Y-119542179D01*
X161748444Y-119731585D01*
X161682753Y-119933760D01*
X161649500Y-120143713D01*
X161649500Y-120356286D01*
X161681978Y-120561347D01*
X161682754Y-120566243D01*
X161744247Y-120755499D01*
X161748444Y-120768414D01*
X161844951Y-120957820D01*
X161969890Y-121129786D01*
X162120213Y-121280109D01*
X162292182Y-121405050D01*
X162300946Y-121409516D01*
X162351742Y-121457491D01*
X162368536Y-121525312D01*
X162345998Y-121591447D01*
X162300946Y-121630484D01*
X162292182Y-121634949D01*
X162120213Y-121759890D01*
X161969890Y-121910213D01*
X161844951Y-122082179D01*
X161748444Y-122271585D01*
X161682753Y-122473760D01*
X161649500Y-122683713D01*
X161649500Y-122896286D01*
X161682753Y-123106239D01*
X161748444Y-123308414D01*
X161844951Y-123497820D01*
X161969890Y-123669786D01*
X162120213Y-123820109D01*
X162292182Y-123945050D01*
X162300946Y-123949516D01*
X162351742Y-123997491D01*
X162368536Y-124065312D01*
X162345998Y-124131447D01*
X162300946Y-124170484D01*
X162292182Y-124174949D01*
X162120213Y-124299890D01*
X161969890Y-124450213D01*
X161844951Y-124622179D01*
X161748444Y-124811585D01*
X161682753Y-125013760D01*
X161649500Y-125223713D01*
X161649500Y-125436286D01*
X161682753Y-125646239D01*
X161748444Y-125848414D01*
X161844951Y-126037820D01*
X161969890Y-126209786D01*
X162120213Y-126360109D01*
X162292182Y-126485050D01*
X162300946Y-126489516D01*
X162351742Y-126537491D01*
X162368536Y-126605312D01*
X162345998Y-126671447D01*
X162300946Y-126710484D01*
X162292182Y-126714949D01*
X162120213Y-126839890D01*
X161969890Y-126990213D01*
X161844951Y-127162179D01*
X161748444Y-127351585D01*
X161682753Y-127553760D01*
X161649500Y-127763713D01*
X161649500Y-127976286D01*
X161682753Y-128186239D01*
X161748444Y-128388414D01*
X161844951Y-128577820D01*
X161969890Y-128749786D01*
X162120213Y-128900109D01*
X162292179Y-129025048D01*
X162292181Y-129025049D01*
X162292184Y-129025051D01*
X162481588Y-129121557D01*
X162683757Y-129187246D01*
X162893713Y-129220500D01*
X162893714Y-129220500D01*
X163106286Y-129220500D01*
X163106287Y-129220500D01*
X163316243Y-129187246D01*
X163518412Y-129121557D01*
X163707816Y-129025051D01*
X163729789Y-129009086D01*
X163879786Y-128900109D01*
X163879788Y-128900106D01*
X163879792Y-128900104D01*
X164030104Y-128749792D01*
X164030106Y-128749788D01*
X164030109Y-128749786D01*
X164155048Y-128577820D01*
X164155047Y-128577820D01*
X164155051Y-128577816D01*
X164251557Y-128388412D01*
X164317246Y-128186243D01*
X164350500Y-127976287D01*
X164350500Y-127763713D01*
X164317246Y-127553757D01*
X164251557Y-127351588D01*
X164155051Y-127162184D01*
X164155049Y-127162181D01*
X164155048Y-127162179D01*
X164030109Y-126990213D01*
X163879786Y-126839890D01*
X163707820Y-126714951D01*
X163707115Y-126714591D01*
X163699054Y-126710485D01*
X163648259Y-126662512D01*
X163631463Y-126594692D01*
X163653999Y-126528556D01*
X163699054Y-126489515D01*
X163707816Y-126485051D01*
X163729789Y-126469086D01*
X163879786Y-126360109D01*
X163879788Y-126360106D01*
X163879792Y-126360104D01*
X164030104Y-126209792D01*
X164030106Y-126209788D01*
X164030109Y-126209786D01*
X164155048Y-126037820D01*
X164155047Y-126037820D01*
X164155051Y-126037816D01*
X164251557Y-125848412D01*
X164317246Y-125646243D01*
X164350500Y-125436287D01*
X164350500Y-125223713D01*
X164317246Y-125013757D01*
X164251557Y-124811588D01*
X164155051Y-124622184D01*
X164155049Y-124622181D01*
X164155048Y-124622179D01*
X164030109Y-124450213D01*
X163879786Y-124299890D01*
X163707820Y-124174951D01*
X163707115Y-124174591D01*
X163699054Y-124170485D01*
X163648259Y-124122512D01*
X163631463Y-124054692D01*
X163653999Y-123988556D01*
X163699054Y-123949515D01*
X163707816Y-123945051D01*
X163729789Y-123929086D01*
X163879786Y-123820109D01*
X163879788Y-123820106D01*
X163879792Y-123820104D01*
X164030104Y-123669792D01*
X164030106Y-123669788D01*
X164030109Y-123669786D01*
X164155048Y-123497820D01*
X164155047Y-123497820D01*
X164155051Y-123497816D01*
X164251557Y-123308412D01*
X164317246Y-123106243D01*
X164350500Y-122896287D01*
X164350500Y-122683713D01*
X164317246Y-122473757D01*
X164251557Y-122271588D01*
X164155051Y-122082184D01*
X164155049Y-122082181D01*
X164155048Y-122082179D01*
X164030109Y-121910213D01*
X163879786Y-121759890D01*
X163707820Y-121634951D01*
X163707115Y-121634591D01*
X163699054Y-121630485D01*
X163648259Y-121582512D01*
X163631463Y-121514692D01*
X163653999Y-121448556D01*
X163699054Y-121409515D01*
X163707816Y-121405051D01*
X163729789Y-121389086D01*
X163879786Y-121280109D01*
X163879788Y-121280106D01*
X163879792Y-121280104D01*
X164030104Y-121129792D01*
X164030106Y-121129788D01*
X164030109Y-121129786D01*
X164155048Y-120957820D01*
X164155047Y-120957820D01*
X164155051Y-120957816D01*
X164251557Y-120768412D01*
X164317246Y-120566243D01*
X164350500Y-120356287D01*
X164350500Y-120143713D01*
X164317246Y-119933757D01*
X164251557Y-119731588D01*
X164155051Y-119542184D01*
X164155049Y-119542181D01*
X164155048Y-119542179D01*
X164030109Y-119370213D01*
X163879786Y-119219890D01*
X163707820Y-119094951D01*
X163707115Y-119094591D01*
X163699054Y-119090485D01*
X163648259Y-119042512D01*
X163631463Y-118974692D01*
X163653999Y-118908556D01*
X163699054Y-118869515D01*
X163707816Y-118865051D01*
X163729789Y-118849086D01*
X163879786Y-118740109D01*
X163879788Y-118740106D01*
X163879792Y-118740104D01*
X164030104Y-118589792D01*
X164030106Y-118589788D01*
X164030109Y-118589786D01*
X164155048Y-118417820D01*
X164155047Y-118417820D01*
X164155051Y-118417816D01*
X164251557Y-118228412D01*
X164317246Y-118026243D01*
X164350500Y-117816287D01*
X164350500Y-117603713D01*
X164317246Y-117393757D01*
X164251557Y-117191588D01*
X164155051Y-117002184D01*
X164155049Y-117002181D01*
X164155048Y-117002179D01*
X164030109Y-116830213D01*
X163879786Y-116679890D01*
X163707820Y-116554951D01*
X163707115Y-116554591D01*
X163699054Y-116550485D01*
X163648259Y-116502512D01*
X163631463Y-116434692D01*
X163653999Y-116368556D01*
X163699054Y-116329515D01*
X163707816Y-116325051D01*
X163729789Y-116309086D01*
X163879786Y-116200109D01*
X163879788Y-116200106D01*
X163879792Y-116200104D01*
X164030104Y-116049792D01*
X164030106Y-116049788D01*
X164030109Y-116049786D01*
X164155048Y-115877820D01*
X164155047Y-115877820D01*
X164155051Y-115877816D01*
X164251557Y-115688412D01*
X164317246Y-115486243D01*
X164350500Y-115276287D01*
X164350500Y-115063713D01*
X164317246Y-114853757D01*
X164251557Y-114651588D01*
X164155051Y-114462184D01*
X164155049Y-114462181D01*
X164155048Y-114462179D01*
X164030109Y-114290213D01*
X163879786Y-114139890D01*
X163707820Y-114014951D01*
X163707115Y-114014591D01*
X163699054Y-114010485D01*
X163648259Y-113962512D01*
X163631463Y-113894692D01*
X163653999Y-113828556D01*
X163699054Y-113789515D01*
X163707816Y-113785051D01*
X163749433Y-113754815D01*
X163879786Y-113660109D01*
X163879788Y-113660106D01*
X163879792Y-113660104D01*
X164030104Y-113509792D01*
X164030106Y-113509788D01*
X164030109Y-113509786D01*
X164155048Y-113337820D01*
X164155047Y-113337820D01*
X164155051Y-113337816D01*
X164251557Y-113148412D01*
X164317246Y-112946243D01*
X164350500Y-112736287D01*
X164350500Y-112523713D01*
X164317246Y-112313757D01*
X164251557Y-112111588D01*
X164155051Y-111922184D01*
X164155049Y-111922181D01*
X164155048Y-111922179D01*
X164030109Y-111750213D01*
X163879786Y-111599890D01*
X163707820Y-111474951D01*
X163707115Y-111474591D01*
X163699054Y-111470485D01*
X163648259Y-111422512D01*
X163631463Y-111354692D01*
X163653999Y-111288556D01*
X163699054Y-111249515D01*
X163707816Y-111245051D01*
X163729789Y-111229086D01*
X163879786Y-111120109D01*
X163879788Y-111120106D01*
X163879792Y-111120104D01*
X164030104Y-110969792D01*
X164030106Y-110969788D01*
X164030109Y-110969786D01*
X164155048Y-110797820D01*
X164155047Y-110797820D01*
X164155051Y-110797816D01*
X164251557Y-110608412D01*
X164317246Y-110406243D01*
X164350500Y-110196287D01*
X164350500Y-109983713D01*
X164317246Y-109773757D01*
X164251557Y-109571588D01*
X164155051Y-109382184D01*
X164155049Y-109382181D01*
X164155048Y-109382179D01*
X164030109Y-109210213D01*
X163879786Y-109059890D01*
X163707820Y-108934951D01*
X163707115Y-108934591D01*
X163699054Y-108930485D01*
X163648259Y-108882512D01*
X163631463Y-108814692D01*
X163653999Y-108748556D01*
X163699054Y-108709515D01*
X163707816Y-108705051D01*
X163729789Y-108689086D01*
X163879786Y-108580109D01*
X163879788Y-108580106D01*
X163879792Y-108580104D01*
X164030104Y-108429792D01*
X164030106Y-108429788D01*
X164030109Y-108429786D01*
X164155048Y-108257820D01*
X164155047Y-108257820D01*
X164155051Y-108257816D01*
X164251557Y-108068412D01*
X164317246Y-107866243D01*
X164350500Y-107656287D01*
X164350500Y-107443713D01*
X164317246Y-107233757D01*
X164251557Y-107031588D01*
X164155051Y-106842184D01*
X164155049Y-106842181D01*
X164155048Y-106842179D01*
X164030109Y-106670213D01*
X163879786Y-106519890D01*
X163707820Y-106394951D01*
X163707115Y-106394591D01*
X163699054Y-106390485D01*
X163648259Y-106342512D01*
X163631463Y-106274692D01*
X163653999Y-106208556D01*
X163699054Y-106169515D01*
X163707816Y-106165051D01*
X163729789Y-106149086D01*
X163879786Y-106040109D01*
X163879788Y-106040106D01*
X163879792Y-106040104D01*
X164030104Y-105889792D01*
X164030106Y-105889788D01*
X164030109Y-105889786D01*
X164155048Y-105717820D01*
X164155047Y-105717820D01*
X164155051Y-105717816D01*
X164251557Y-105528412D01*
X164317246Y-105326243D01*
X164350500Y-105116287D01*
X164350500Y-104903713D01*
X164317246Y-104693757D01*
X164251557Y-104491588D01*
X164155051Y-104302184D01*
X164155049Y-104302181D01*
X164155048Y-104302179D01*
X164030109Y-104130213D01*
X163879786Y-103979890D01*
X163707820Y-103854951D01*
X163707115Y-103854591D01*
X163699054Y-103850485D01*
X163648259Y-103802512D01*
X163631463Y-103734692D01*
X163653999Y-103668556D01*
X163699054Y-103629515D01*
X163707816Y-103625051D01*
X163762310Y-103585459D01*
X163879786Y-103500109D01*
X163879788Y-103500106D01*
X163879792Y-103500104D01*
X164030104Y-103349792D01*
X164030106Y-103349788D01*
X164030109Y-103349786D01*
X164155048Y-103177820D01*
X164155047Y-103177820D01*
X164155051Y-103177816D01*
X164251557Y-102988412D01*
X164317246Y-102786243D01*
X164350500Y-102576287D01*
X164350500Y-102363713D01*
X164317246Y-102153757D01*
X164251557Y-101951588D01*
X164155051Y-101762184D01*
X164155049Y-101762181D01*
X164155048Y-101762179D01*
X164030109Y-101590213D01*
X163879786Y-101439890D01*
X163707820Y-101314951D01*
X163707115Y-101314591D01*
X163699054Y-101310485D01*
X163648259Y-101262512D01*
X163631463Y-101194692D01*
X163653999Y-101128556D01*
X163699054Y-101089515D01*
X163707816Y-101085051D01*
X163787044Y-101027489D01*
X163879786Y-100960109D01*
X163879788Y-100960106D01*
X163879792Y-100960104D01*
X164030104Y-100809792D01*
X164030106Y-100809788D01*
X164030109Y-100809786D01*
X164155048Y-100637820D01*
X164155047Y-100637820D01*
X164155051Y-100637816D01*
X164251557Y-100448412D01*
X164317246Y-100246243D01*
X164350500Y-100036287D01*
X164350500Y-99823713D01*
X164317246Y-99613757D01*
X164251557Y-99411588D01*
X164155051Y-99222184D01*
X164155049Y-99222181D01*
X164155048Y-99222179D01*
X164030109Y-99050213D01*
X163879786Y-98899890D01*
X163707820Y-98774951D01*
X163707115Y-98774591D01*
X163699054Y-98770485D01*
X163648259Y-98722512D01*
X163631463Y-98654692D01*
X163653999Y-98588556D01*
X163699054Y-98549515D01*
X163707816Y-98545051D01*
X163762255Y-98505499D01*
X163879786Y-98420109D01*
X163879788Y-98420106D01*
X163879792Y-98420104D01*
X164030104Y-98269792D01*
X164030106Y-98269788D01*
X164030109Y-98269786D01*
X164155048Y-98097820D01*
X164155047Y-98097820D01*
X164155051Y-98097816D01*
X164251557Y-97908412D01*
X164317246Y-97706243D01*
X164350500Y-97496287D01*
X164350500Y-97283713D01*
X164317246Y-97073757D01*
X164251557Y-96871588D01*
X164155051Y-96682184D01*
X164155049Y-96682181D01*
X164155048Y-96682179D01*
X164030109Y-96510213D01*
X163879786Y-96359890D01*
X163707820Y-96234951D01*
X163707115Y-96234591D01*
X163699054Y-96230485D01*
X163648259Y-96182512D01*
X163631463Y-96114692D01*
X163653999Y-96048556D01*
X163699054Y-96009515D01*
X163707816Y-96005051D01*
X163741938Y-95980260D01*
X163879786Y-95880109D01*
X163879788Y-95880106D01*
X163879792Y-95880104D01*
X164030104Y-95729792D01*
X164030106Y-95729788D01*
X164030109Y-95729786D01*
X164155048Y-95557820D01*
X164155047Y-95557820D01*
X164155051Y-95557816D01*
X164251557Y-95368412D01*
X164317246Y-95166243D01*
X164350500Y-94956287D01*
X164350500Y-94743713D01*
X164317246Y-94533757D01*
X164251557Y-94331588D01*
X164155051Y-94142184D01*
X164155049Y-94142181D01*
X164155048Y-94142179D01*
X164030109Y-93970213D01*
X163879786Y-93819890D01*
X163707820Y-93694951D01*
X163707115Y-93694591D01*
X163699054Y-93690485D01*
X163648259Y-93642512D01*
X163631463Y-93574692D01*
X163653999Y-93508556D01*
X163699054Y-93469515D01*
X163707816Y-93465051D01*
X163729789Y-93449086D01*
X163879786Y-93340109D01*
X163879788Y-93340106D01*
X163879792Y-93340104D01*
X164030104Y-93189792D01*
X164030106Y-93189788D01*
X164030109Y-93189786D01*
X164155048Y-93017820D01*
X164155047Y-93017820D01*
X164155051Y-93017816D01*
X164251557Y-92828412D01*
X164317246Y-92626243D01*
X164350500Y-92416287D01*
X164350500Y-92203713D01*
X164317246Y-91993757D01*
X164251557Y-91791588D01*
X164155051Y-91602184D01*
X164155049Y-91602181D01*
X164155048Y-91602179D01*
X164030109Y-91430213D01*
X163879786Y-91279890D01*
X163707820Y-91154951D01*
X163707115Y-91154591D01*
X163699054Y-91150485D01*
X163648259Y-91102512D01*
X163631463Y-91034692D01*
X163653999Y-90968556D01*
X163699054Y-90929515D01*
X163707816Y-90925051D01*
X163817761Y-90845172D01*
X163879786Y-90800109D01*
X163879788Y-90800106D01*
X163879792Y-90800104D01*
X164030104Y-90649792D01*
X164030106Y-90649788D01*
X164030109Y-90649786D01*
X164155048Y-90477820D01*
X164155047Y-90477820D01*
X164155051Y-90477816D01*
X164251557Y-90288412D01*
X164317246Y-90086243D01*
X164350500Y-89876287D01*
X164350500Y-89663713D01*
X164317246Y-89453757D01*
X164251557Y-89251588D01*
X164155051Y-89062184D01*
X164155049Y-89062181D01*
X164155048Y-89062179D01*
X164030109Y-88890213D01*
X163879786Y-88739890D01*
X163707820Y-88614951D01*
X163707115Y-88614591D01*
X163699054Y-88610485D01*
X163648259Y-88562512D01*
X163631463Y-88494692D01*
X163653999Y-88428556D01*
X163699054Y-88389515D01*
X163707816Y-88385051D01*
X163748480Y-88355507D01*
X163879786Y-88260109D01*
X163879788Y-88260106D01*
X163879792Y-88260104D01*
X164030104Y-88109792D01*
X164030106Y-88109788D01*
X164030109Y-88109786D01*
X164155048Y-87937820D01*
X164155047Y-87937820D01*
X164155051Y-87937816D01*
X164251557Y-87748412D01*
X164317246Y-87546243D01*
X164350500Y-87336287D01*
X164350500Y-87123713D01*
X164317246Y-86913757D01*
X164251557Y-86711588D01*
X164155051Y-86522184D01*
X164155049Y-86522181D01*
X164155048Y-86522179D01*
X164030109Y-86350213D01*
X163879786Y-86199890D01*
X163707820Y-86074951D01*
X163707115Y-86074591D01*
X163699054Y-86070485D01*
X163648259Y-86022512D01*
X163631463Y-85954692D01*
X163653999Y-85888556D01*
X163699054Y-85849515D01*
X163707816Y-85845051D01*
X163729789Y-85829086D01*
X163879786Y-85720109D01*
X163879788Y-85720106D01*
X163879792Y-85720104D01*
X164030104Y-85569792D01*
X164030106Y-85569788D01*
X164030109Y-85569786D01*
X164155048Y-85397820D01*
X164155047Y-85397820D01*
X164155051Y-85397816D01*
X164251557Y-85208412D01*
X164317246Y-85006243D01*
X164350500Y-84796287D01*
X164350500Y-84583713D01*
X164317246Y-84373757D01*
X164251557Y-84171588D01*
X164155051Y-83982184D01*
X164155049Y-83982181D01*
X164155048Y-83982179D01*
X164030109Y-83810213D01*
X163879786Y-83659890D01*
X163707820Y-83534951D01*
X163707115Y-83534591D01*
X163699054Y-83530485D01*
X163648259Y-83482512D01*
X163631463Y-83414692D01*
X163653999Y-83348556D01*
X163699054Y-83309515D01*
X163707816Y-83305051D01*
X163762976Y-83264975D01*
X163879786Y-83180109D01*
X163879788Y-83180106D01*
X163879792Y-83180104D01*
X164030104Y-83029792D01*
X164030106Y-83029788D01*
X164030109Y-83029786D01*
X164153963Y-82859313D01*
X164155051Y-82857816D01*
X164251557Y-82668412D01*
X164317246Y-82466243D01*
X164350500Y-82256287D01*
X164350500Y-82043713D01*
X164317246Y-81833757D01*
X164251557Y-81631588D01*
X164155051Y-81442184D01*
X164155049Y-81442181D01*
X164155048Y-81442179D01*
X164030109Y-81270213D01*
X163879786Y-81119890D01*
X163707820Y-80994951D01*
X163707115Y-80994591D01*
X163699054Y-80990485D01*
X163648259Y-80942512D01*
X163631463Y-80874692D01*
X163653999Y-80808556D01*
X163699054Y-80769515D01*
X163707816Y-80765051D01*
X163798040Y-80699500D01*
X163879786Y-80640109D01*
X163879788Y-80640106D01*
X163879792Y-80640104D01*
X164030104Y-80489792D01*
X164030106Y-80489788D01*
X164030109Y-80489786D01*
X164150016Y-80324746D01*
X164155051Y-80317816D01*
X164251557Y-80128412D01*
X164317246Y-79926243D01*
X164350500Y-79716287D01*
X164350500Y-79503713D01*
X164317246Y-79293757D01*
X164251557Y-79091588D01*
X164155051Y-78902184D01*
X164155049Y-78902181D01*
X164155048Y-78902179D01*
X164030109Y-78730213D01*
X163879786Y-78579890D01*
X163707820Y-78454951D01*
X163707115Y-78454591D01*
X163699054Y-78450485D01*
X163648259Y-78402512D01*
X163631463Y-78334692D01*
X163653999Y-78268556D01*
X163699054Y-78229515D01*
X163707816Y-78225051D01*
X163729789Y-78209086D01*
X163879786Y-78100109D01*
X163879788Y-78100106D01*
X163879792Y-78100104D01*
X164030104Y-77949792D01*
X164030106Y-77949788D01*
X164030109Y-77949786D01*
X164150435Y-77784170D01*
X164155051Y-77777816D01*
X164251557Y-77588412D01*
X164317246Y-77386243D01*
X164350500Y-77176287D01*
X164350500Y-76963713D01*
X164317246Y-76753757D01*
X164251557Y-76551588D01*
X164155051Y-76362184D01*
X164155049Y-76362181D01*
X164155048Y-76362179D01*
X164030109Y-76190213D01*
X163879786Y-76039890D01*
X163707820Y-75914951D01*
X163707115Y-75914591D01*
X163699054Y-75910485D01*
X163648259Y-75862512D01*
X163631463Y-75794692D01*
X163653999Y-75728556D01*
X163699054Y-75689515D01*
X163707816Y-75685051D01*
X163740910Y-75661007D01*
X163879786Y-75560109D01*
X163879788Y-75560106D01*
X163879792Y-75560104D01*
X164030104Y-75409792D01*
X164030106Y-75409788D01*
X164030109Y-75409786D01*
X164155048Y-75237820D01*
X164155047Y-75237820D01*
X164155051Y-75237816D01*
X164251557Y-75048412D01*
X164317246Y-74846243D01*
X164350500Y-74636287D01*
X164350500Y-74423713D01*
X164317246Y-74213757D01*
X164251557Y-74011588D01*
X164155051Y-73822184D01*
X164155049Y-73822181D01*
X164155048Y-73822179D01*
X164030109Y-73650213D01*
X163879786Y-73499890D01*
X163707820Y-73374951D01*
X163707115Y-73374591D01*
X163699054Y-73370485D01*
X163648259Y-73322512D01*
X163631463Y-73254692D01*
X163653999Y-73188556D01*
X163699054Y-73149515D01*
X163707816Y-73145051D01*
X163738182Y-73122989D01*
X163879786Y-73020109D01*
X163879788Y-73020106D01*
X163879792Y-73020104D01*
X164030104Y-72869792D01*
X164030106Y-72869788D01*
X164030109Y-72869786D01*
X164155048Y-72697820D01*
X164155047Y-72697820D01*
X164155051Y-72697816D01*
X164251557Y-72508412D01*
X164317246Y-72306243D01*
X164350500Y-72096287D01*
X164350500Y-71883713D01*
X164317246Y-71673757D01*
X164251557Y-71471588D01*
X164155051Y-71282184D01*
X164155049Y-71282181D01*
X164155048Y-71282179D01*
X164030109Y-71110213D01*
X163916569Y-70996673D01*
X163883084Y-70935350D01*
X163888068Y-70865658D01*
X163929940Y-70809725D01*
X163960915Y-70792810D01*
X164092331Y-70743796D01*
X164207546Y-70657546D01*
X164293796Y-70542331D01*
X164344091Y-70407483D01*
X164350500Y-70347873D01*
X164350499Y-68552128D01*
X164344091Y-68492517D01*
X164343693Y-68491451D01*
X164293797Y-68357671D01*
X164293793Y-68357664D01*
X164207547Y-68242455D01*
X164207544Y-68242452D01*
X164092335Y-68156206D01*
X164092328Y-68156202D01*
X163957482Y-68105908D01*
X163957483Y-68105908D01*
X163897883Y-68099501D01*
X163897881Y-68099500D01*
X163897873Y-68099500D01*
X163897864Y-68099500D01*
X162102129Y-68099500D01*
X162102123Y-68099501D01*
X162042516Y-68105908D01*
X161907671Y-68156202D01*
X161907664Y-68156206D01*
X161792455Y-68242452D01*
X161792452Y-68242455D01*
X161706206Y-68357664D01*
X161706202Y-68357671D01*
X161655908Y-68492517D01*
X161649501Y-68552116D01*
X161649501Y-68552123D01*
X161649500Y-68552135D01*
X161649500Y-70347870D01*
X161649501Y-70347876D01*
X161655908Y-70407483D01*
X161706202Y-70542328D01*
X161706206Y-70542335D01*
X161792452Y-70657544D01*
X161792455Y-70657547D01*
X161907664Y-70743793D01*
X161907671Y-70743797D01*
X162039082Y-70792810D01*
X162095016Y-70834681D01*
X162119433Y-70900145D01*
X162104582Y-70968418D01*
X162083431Y-70996673D01*
X161969889Y-71110215D01*
X161844951Y-71282179D01*
X161748444Y-71471585D01*
X161682753Y-71673759D01*
X161679543Y-71694029D01*
X161649613Y-71757163D01*
X161590301Y-71794094D01*
X161520439Y-71793096D01*
X161469389Y-71762311D01*
X161261819Y-71554741D01*
X161228334Y-71493418D01*
X161225500Y-71467060D01*
X161225500Y-71418386D01*
X161219086Y-71347807D01*
X161219086Y-71347804D01*
X161168478Y-71185394D01*
X161150000Y-71154827D01*
X161143383Y-71143881D01*
X161125500Y-71079732D01*
X161125500Y-70170267D01*
X161143384Y-70106116D01*
X161168475Y-70064611D01*
X161168475Y-70064610D01*
X161168478Y-70064606D01*
X161219086Y-69902196D01*
X161225500Y-69831616D01*
X161225500Y-69168384D01*
X161219086Y-69097804D01*
X161168478Y-68935394D01*
X161080472Y-68789815D01*
X161080470Y-68789813D01*
X161080469Y-68789811D01*
X160960188Y-68669530D01*
X160951935Y-68664541D01*
X160814606Y-68581522D01*
X160652196Y-68530914D01*
X160652194Y-68530913D01*
X160652192Y-68530913D01*
X160602778Y-68526423D01*
X160581616Y-68524500D01*
X160068384Y-68524500D01*
X160049145Y-68526248D01*
X159997807Y-68530913D01*
X159835393Y-68581522D01*
X159689811Y-68669530D01*
X159689810Y-68669531D01*
X159587681Y-68771661D01*
X159526358Y-68805146D01*
X159456666Y-68800162D01*
X159412319Y-68771661D01*
X159310188Y-68669530D01*
X159301935Y-68664541D01*
X159164606Y-68581522D01*
X159002196Y-68530914D01*
X159002194Y-68530913D01*
X159002192Y-68530913D01*
X158952778Y-68526423D01*
X158931616Y-68524500D01*
X158418384Y-68524500D01*
X158399145Y-68526248D01*
X158347807Y-68530913D01*
X158347804Y-68530914D01*
X158185394Y-68581522D01*
X158185392Y-68581522D01*
X158185392Y-68581523D01*
X158168648Y-68591645D01*
X158101093Y-68609480D01*
X158034620Y-68587961D01*
X157990333Y-68533920D01*
X157980500Y-68485527D01*
X157980500Y-68250000D01*
X157980500Y-68249999D01*
X157975355Y-68178060D01*
X157968937Y-68156204D01*
X157966929Y-68149365D01*
X157934819Y-68040008D01*
X157857031Y-67918968D01*
X157798173Y-67867967D01*
X157748299Y-67824750D01*
X157748297Y-67824748D01*
X157748294Y-67824746D01*
X157748290Y-67824744D01*
X157617419Y-67764976D01*
X157617414Y-67764975D01*
X157475000Y-67744500D01*
X156475000Y-67744500D01*
X156474984Y-67744500D01*
X156411481Y-67748506D01*
X156402707Y-67750923D01*
X156364889Y-67761340D01*
X156314316Y-67764530D01*
X156175000Y-67744500D01*
X155025000Y-67744500D01*
X155024997Y-67744500D01*
X154953059Y-67749644D01*
X154815005Y-67790182D01*
X154693969Y-67867967D01*
X154693965Y-67867971D01*
X154599750Y-67976700D01*
X154599744Y-67976709D01*
X154539977Y-68107579D01*
X154539141Y-68110429D01*
X154537534Y-68112928D01*
X154536291Y-68115652D01*
X154535899Y-68115473D01*
X154501369Y-68169209D01*
X154437815Y-68198237D01*
X154420162Y-68199500D01*
X153961154Y-68199500D01*
X153806509Y-68230261D01*
X153806497Y-68230264D01*
X153763832Y-68247936D01*
X153763833Y-68247937D01*
X153660823Y-68290604D01*
X153660814Y-68290609D01*
X153529712Y-68378209D01*
X153529710Y-68378212D01*
X152787764Y-69120156D01*
X152726441Y-69153641D01*
X152680686Y-69154948D01*
X152646287Y-69149500D01*
X152433713Y-69149500D01*
X152407568Y-69153641D01*
X152223760Y-69182753D01*
X152021585Y-69248444D01*
X151832181Y-69344950D01*
X151702384Y-69439252D01*
X151636578Y-69462731D01*
X151568524Y-69446905D01*
X151519830Y-69396799D01*
X151505500Y-69338933D01*
X151505500Y-68874010D01*
X151505500Y-68874000D01*
X151493947Y-68766544D01*
X151482741Y-68715033D01*
X151477571Y-68699500D01*
X151448616Y-68612502D01*
X151448613Y-68612496D01*
X151428707Y-68581522D01*
X151370825Y-68491457D01*
X151365687Y-68485527D01*
X151325076Y-68438659D01*
X151325072Y-68438656D01*
X151325070Y-68438653D01*
X151216336Y-68344433D01*
X151216333Y-68344431D01*
X151216331Y-68344430D01*
X151085465Y-68284664D01*
X151085460Y-68284662D01*
X151085459Y-68284662D01*
X151018420Y-68264977D01*
X151018422Y-68264977D01*
X151018417Y-68264976D01*
X150956347Y-68256052D01*
X150876000Y-68244500D01*
X139874000Y-68244500D01*
X139873991Y-68244500D01*
X139873990Y-68244501D01*
X139766549Y-68256052D01*
X139766537Y-68256054D01*
X139715027Y-68267260D01*
X139612502Y-68301383D01*
X139612496Y-68301386D01*
X139491462Y-68379171D01*
X139491451Y-68379179D01*
X139438659Y-68424923D01*
X139344433Y-68533664D01*
X139344430Y-68533668D01*
X139284664Y-68664534D01*
X139264976Y-68731582D01*
X139251325Y-68826528D01*
X139244502Y-68873990D01*
X139244500Y-68874001D01*
X139244500Y-69207147D01*
X139224815Y-69274186D01*
X139172011Y-69319941D01*
X139102853Y-69329885D01*
X139064206Y-69317632D01*
X138928417Y-69248445D01*
X138928414Y-69248444D01*
X138928412Y-69248443D01*
X138726243Y-69182754D01*
X138726241Y-69182753D01*
X138726240Y-69182753D01*
X138542432Y-69153641D01*
X138516287Y-69149500D01*
X138303713Y-69149500D01*
X138303711Y-69149500D01*
X138269310Y-69154948D01*
X138200016Y-69145992D01*
X138162233Y-69120155D01*
X137420291Y-68378212D01*
X137420288Y-68378210D01*
X137289185Y-68290609D01*
X137289172Y-68290602D01*
X137143501Y-68230264D01*
X137143489Y-68230261D01*
X136988845Y-68199500D01*
X136988842Y-68199500D01*
X136599475Y-68199500D01*
X136532436Y-68179815D01*
X136486681Y-68127011D01*
X136480498Y-68110435D01*
X136459819Y-68040008D01*
X136382031Y-67918968D01*
X136323173Y-67867967D01*
X136273299Y-67824750D01*
X136273297Y-67824748D01*
X136273294Y-67824746D01*
X136273290Y-67824744D01*
X136142419Y-67764976D01*
X136142414Y-67764975D01*
X136000000Y-67744500D01*
X134850000Y-67744500D01*
X134849978Y-67744500D01*
X134769669Y-67750923D01*
X134769658Y-67750925D01*
X134741253Y-67759787D01*
X134686680Y-67764151D01*
X134550000Y-67744500D01*
X133550000Y-67744500D01*
X133549997Y-67744500D01*
X133478059Y-67749644D01*
X133340005Y-67790182D01*
X133218969Y-67867967D01*
X133218965Y-67867971D01*
X133124750Y-67976700D01*
X133124744Y-67976709D01*
X133064976Y-68107580D01*
X133064975Y-68107585D01*
X133044500Y-68249999D01*
X133044500Y-68500640D01*
X133024815Y-68567679D01*
X132972011Y-68613434D01*
X132902853Y-68623378D01*
X132856351Y-68606757D01*
X132814608Y-68581523D01*
X132814607Y-68581522D01*
X132814606Y-68581522D01*
X132652196Y-68530914D01*
X132652194Y-68530913D01*
X132652192Y-68530913D01*
X132602778Y-68526423D01*
X132581616Y-68524500D01*
X132068384Y-68524500D01*
X132049145Y-68526248D01*
X131997807Y-68530913D01*
X131835393Y-68581522D01*
X131689811Y-68669530D01*
X131689810Y-68669531D01*
X131587681Y-68771661D01*
X131526358Y-68805146D01*
X131456666Y-68800162D01*
X131412319Y-68771661D01*
X131310188Y-68669530D01*
X131301935Y-68664541D01*
X131164606Y-68581522D01*
X131002196Y-68530914D01*
X131002194Y-68530913D01*
X131002192Y-68530913D01*
X130952778Y-68526423D01*
X130931616Y-68524500D01*
X130418384Y-68524500D01*
X130399145Y-68526248D01*
X130347807Y-68530913D01*
X130185393Y-68581522D01*
X130039811Y-68669530D01*
X129919530Y-68789811D01*
X129831522Y-68935393D01*
X129780913Y-69097807D01*
X129776535Y-69145992D01*
X129774500Y-69168384D01*
X129774500Y-69831616D01*
X129774973Y-69836819D01*
X129780913Y-69902192D01*
X129780913Y-69902194D01*
X129780914Y-69902196D01*
X129831522Y-70064606D01*
X129831523Y-70064607D01*
X129831524Y-70064611D01*
X129856616Y-70106116D01*
X129874500Y-70170267D01*
X129874500Y-70829732D01*
X129856617Y-70893881D01*
X129831523Y-70935391D01*
X129831522Y-70935393D01*
X129831522Y-70935394D01*
X129824722Y-70957218D01*
X129780913Y-71097807D01*
X129774500Y-71168386D01*
X129774500Y-71217060D01*
X129754815Y-71284099D01*
X129738181Y-71304741D01*
X129238711Y-71804211D01*
X129207755Y-71835167D01*
X129127209Y-71915712D01*
X129039609Y-72046814D01*
X129039602Y-72046827D01*
X128979264Y-72192498D01*
X128979261Y-72192510D01*
X128948500Y-72347153D01*
X128948500Y-73306451D01*
X128928815Y-73373490D01*
X128876011Y-73419245D01*
X128806853Y-73429189D01*
X128751616Y-73406770D01*
X128707819Y-73374950D01*
X128518414Y-73278444D01*
X128518413Y-73278443D01*
X128518412Y-73278443D01*
X128316243Y-73212754D01*
X128316241Y-73212753D01*
X128316240Y-73212753D01*
X128154957Y-73187208D01*
X128106287Y-73179500D01*
X127893713Y-73179500D01*
X127845042Y-73187208D01*
X127683760Y-73212753D01*
X127481585Y-73278444D01*
X127292179Y-73374951D01*
X127120213Y-73499890D01*
X126969890Y-73650213D01*
X126844951Y-73822179D01*
X126748444Y-74011585D01*
X126748443Y-74011587D01*
X126748443Y-74011588D01*
X126747342Y-74014976D01*
X126682753Y-74213760D01*
X126649500Y-74423713D01*
X126000500Y-74423713D01*
X126000500Y-68552135D01*
X126649500Y-68552135D01*
X126649500Y-70347870D01*
X126649501Y-70347876D01*
X126655908Y-70407483D01*
X126706202Y-70542328D01*
X126706206Y-70542335D01*
X126792452Y-70657544D01*
X126792455Y-70657547D01*
X126907664Y-70743793D01*
X126907671Y-70743797D01*
X127042517Y-70794091D01*
X127042516Y-70794091D01*
X127049444Y-70794835D01*
X127102127Y-70800500D01*
X128897872Y-70800499D01*
X128957483Y-70794091D01*
X129092331Y-70743796D01*
X129207546Y-70657546D01*
X129293796Y-70542331D01*
X129344091Y-70407483D01*
X129350500Y-70347873D01*
X129350499Y-68552128D01*
X129344091Y-68492517D01*
X129343693Y-68491451D01*
X129293797Y-68357671D01*
X129293793Y-68357664D01*
X129207547Y-68242455D01*
X129207544Y-68242452D01*
X129092335Y-68156206D01*
X129092328Y-68156202D01*
X128957482Y-68105908D01*
X128957483Y-68105908D01*
X128897883Y-68099501D01*
X128897881Y-68099500D01*
X128897873Y-68099500D01*
X128897864Y-68099500D01*
X127102129Y-68099500D01*
X127102123Y-68099501D01*
X127042516Y-68105908D01*
X126907671Y-68156202D01*
X126907664Y-68156206D01*
X126792455Y-68242452D01*
X126792452Y-68242455D01*
X126706206Y-68357664D01*
X126706202Y-68357671D01*
X126655908Y-68492517D01*
X126649501Y-68552116D01*
X126649501Y-68552123D01*
X126649500Y-68552135D01*
X126000500Y-68552135D01*
X126000500Y-66574500D01*
X126020185Y-66507461D01*
X126072989Y-66461706D01*
X126124500Y-66450500D01*
X164875500Y-66450500D01*
X164942539Y-66470185D01*
G37*
%TD.AperFunction*%
%TD*%
M02*
