M48
; DRILL file {KiCad 9.0.6} date 2026-04-16T11:50:59-0400
; FORMAT={-:-/ absolute / inch / decimal}
; #@! TF.CreationDate,2026-04-16T11:50:59-04:00
; #@! TF.GenerationSoftware,Kicad,Pcbnew,9.0.6
; #@! TF.FileFunction,Plated,1,2,PTH
FMAT,2
INCH
; #@! TA.AperFunction,Plated,PTH,ViaDrill
T1C0.0118
; #@! TA.AperFunction,Plated,PTH,ComponentDrill
T2C0.0157
; #@! TA.AperFunction,Plated,PTH,ComponentDrill
T3C0.0394
; #@! TA.AperFunction,Plated,PTH,ComponentDrill
T4C0.0866
%
G90
G05
T1
X5.137Y-4.2925
X5.137Y-4.3925
X5.137Y-4.4925
X5.137Y-4.5925
X5.1437Y-3.061
X5.1772Y-3.8386
X5.1772Y-3.9173
X5.237Y-3.3925
X5.337Y-3.3925
X5.437Y-2.8925
X5.437Y-3.3925
X5.437Y-4.3925
X5.437Y-4.9925
X5.437Y-5.0925
X5.537Y-4.2925
X5.537Y-4.7925
X5.537Y-4.8925
X5.537Y-4.9925
X5.537Y-5.0925
X5.637Y-4.1925
X5.637Y-4.7925
X5.637Y-4.8925
X5.637Y-4.9925
X5.637Y-5.0925
X5.737Y-4.7925
X5.737Y-4.8925
X5.737Y-4.9925
X5.737Y-5.0925
X5.8199Y-4.6142
X5.837Y-4.1925
X5.837Y-4.2925
X5.837Y-4.7925
X5.837Y-4.8925
X5.837Y-4.9925
X5.837Y-5.0925
X5.8986Y-4.4862
X5.8986Y-4.5472
X5.8986Y-4.6142
X5.937Y-4.1925
X5.937Y-4.2925
X5.937Y-4.3925
X5.937Y-4.7925
X5.937Y-4.8925
X5.937Y-4.9925
X5.937Y-5.0925
X5.9744Y-4.5965
X5.9744Y-4.6752
X6.0364Y-4.439
X6.037Y-2.8925
X6.037Y-3.3925
X6.037Y-4.1925
X6.037Y-4.2925
X6.037Y-4.7925
X6.037Y-4.8925
X6.037Y-4.9925
X6.037Y-5.0925
X6.137Y-4.1925
X6.137Y-4.2925
X6.137Y-4.7925
X6.137Y-4.8925
X6.137Y-4.9925
X6.137Y-5.0925
X6.1614Y-4.5177
X6.237Y-2.8925
X6.237Y-3.3925
X6.237Y-4.1925
X6.237Y-4.2925
X6.237Y-4.3925
X6.237Y-4.4925
X6.237Y-4.5925
X6.237Y-4.6925
X6.237Y-4.7925
X6.237Y-4.8925
X6.237Y-4.9925
X6.237Y-5.0925
X6.3104Y-3.9685
X6.337Y-3.8925
X6.337Y-4.1925
X6.337Y-4.2925
X6.337Y-4.3925
X6.337Y-4.4925
X6.337Y-4.5925
X6.337Y-4.6925
X6.337Y-4.7925
X6.337Y-4.8925
X6.337Y-4.9925
X6.337Y-5.0925
T2
X5.1713Y-4.7933
X5.1713Y-5.0276
X5.1903Y-4.7474
X5.1903Y-4.8392
X5.1903Y-4.9816
X5.1903Y-5.0735
X5.2362Y-4.7283
X5.2362Y-4.8583
X5.2362Y-4.9626
X5.2362Y-5.0925
X5.2822Y-4.7474
X5.2822Y-4.8392
X5.2822Y-4.9816
X5.2822Y-5.0735
X5.3012Y-4.7933
X5.3012Y-5.0276
T3
X5.0394Y-2.7343
X5.0394Y-2.8343
X5.0394Y-2.9343
X5.0394Y-3.0343
X5.0394Y-3.1343
X5.0394Y-3.2343
X5.0394Y-3.3343
X5.0394Y-3.4343
X5.0394Y-3.5343
X5.0394Y-3.6343
X5.0394Y-3.7343
X5.0394Y-3.8343
X5.0394Y-3.9343
X5.0394Y-4.0343
X5.0394Y-4.1343
X5.0394Y-4.2343
X5.0394Y-4.3343
X5.0394Y-4.4343
X5.0394Y-4.5343
X5.0394Y-4.6343
X5.0394Y-4.7343
X5.0394Y-4.8343
X5.0394Y-4.9343
X5.0394Y-5.0343
X5.2461Y-4.2898
X5.2461Y-4.3898
X5.2461Y-4.4898
X5.4463Y-4.0079
X5.4472Y-3.7598
X5.4482Y-3.0217
X5.4482Y-3.5138
X5.4492Y-2.7756
X5.4492Y-3.2677
X5.5463Y-4.0079
X5.5472Y-3.7598
X5.5482Y-3.0217
X5.5482Y-3.5138
X5.5492Y-2.7756
X5.5492Y-3.2677
X5.6102Y-4.2898
X5.6102Y-4.3898
X5.6102Y-4.4898
X5.6463Y-4.0079
X5.6472Y-3.7598
X5.6482Y-3.0217
X5.6482Y-3.5138
X5.6492Y-2.7756
X5.6492Y-3.2677
X5.8039Y-3.7598
X5.8039Y-4.0079
X5.8045Y-3.2677
X5.8048Y-3.5138
X5.8049Y-3.0207
X5.8055Y-2.7756
X5.9039Y-3.7598
X5.9039Y-4.0079
X5.9045Y-3.2677
X5.9048Y-3.5138
X5.9049Y-3.0207
X5.9055Y-2.7756
X6.0039Y-3.7598
X6.0039Y-4.0079
X6.0045Y-3.2677
X6.0048Y-3.5138
X6.0049Y-3.0207
X6.0055Y-2.7756
X6.4173Y-2.7343
X6.4173Y-2.8343
X6.4173Y-2.9343
X6.4173Y-3.0343
X6.4173Y-3.1343
X6.4173Y-3.2343
X6.4173Y-3.3343
X6.4173Y-3.4343
X6.4173Y-3.5343
X6.4173Y-3.6343
X6.4173Y-3.7343
X6.4173Y-3.8343
X6.4173Y-3.9343
X6.4173Y-4.0343
X6.4173Y-4.1343
X6.4173Y-4.2343
X6.4173Y-4.3343
X6.4173Y-4.4343
X6.4173Y-4.5343
X6.4173Y-4.6343
X6.4173Y-4.7343
X6.4173Y-4.8343
X6.4173Y-4.9343
X6.4173Y-5.0343
T4
X5.2362Y-4.7933
X5.2362Y-5.0276
M30
