%TF.GenerationSoftware,KiCad,Pcbnew,9.0.6*%
%TF.CreationDate,2026-04-16T11:51:10-04:00*%
%TF.ProjectId,OUTPUTs,4f555450-5554-4732-9e6b-696361645f70,rev?*%
%TF.SameCoordinates,Original*%
%TF.FileFunction,Paste,Top*%
%TF.FilePolarity,Positive*%
%FSLAX46Y46*%
G04 Gerber Fmt 4.6, Leading zero omitted, Abs format (unit mm)*
G04 Created by KiCad (PCBNEW 9.0.6) date 2026-04-16 11:51:10*
%MOMM*%
%LPD*%
G01*
G04 APERTURE LIST*
G04 Aperture macros list*
%AMRoundRect*
0 Rectangle with rounded corners*
0 $1 Rounding radius*
0 $2 $3 $4 $5 $6 $7 $8 $9 X,Y pos of 4 corners*
0 Add a 4 corners polygon primitive as box body*
4,1,4,$2,$3,$4,$5,$6,$7,$8,$9,$2,$3,0*
0 Add four circle primitives for the rounded corners*
1,1,$1+$1,$2,$3*
1,1,$1+$1,$4,$5*
1,1,$1+$1,$6,$7*
1,1,$1+$1,$8,$9*
0 Add four rect primitives between the rounded corners*
20,1,$1+$1,$2,$3,$4,$5,0*
20,1,$1+$1,$4,$5,$6,$7,0*
20,1,$1+$1,$6,$7,$8,$9,0*
20,1,$1+$1,$8,$9,$2,$3,0*%
G04 Aperture macros list end*
%ADD10RoundRect,0.087500X-0.250000X-0.087500X0.250000X-0.087500X0.250000X0.087500X-0.250000X0.087500X0*%
%ADD11RoundRect,0.200000X-0.200000X-0.275000X0.200000X-0.275000X0.200000X0.275000X-0.200000X0.275000X0*%
%ADD12RoundRect,0.250000X0.375000X0.850000X-0.375000X0.850000X-0.375000X-0.850000X0.375000X-0.850000X0*%
%ADD13RoundRect,0.225000X0.250000X-0.225000X0.250000X0.225000X-0.250000X0.225000X-0.250000X-0.225000X0*%
%ADD14RoundRect,0.225000X-0.250000X0.225000X-0.250000X-0.225000X0.250000X-0.225000X0.250000X0.225000X0*%
%ADD15RoundRect,0.200000X-0.275000X0.200000X-0.275000X-0.200000X0.275000X-0.200000X0.275000X0.200000X0*%
%ADD16RoundRect,0.200000X0.200000X0.275000X-0.200000X0.275000X-0.200000X-0.275000X0.200000X-0.275000X0*%
G04 APERTURE END LIST*
D10*
%TO.C,U1*%
X151862500Y-115500000D03*
X151862500Y-116000000D03*
X151862500Y-116500000D03*
X153287500Y-116500000D03*
X153287500Y-116000000D03*
X153287500Y-115500000D03*
%TD*%
D11*
%TO.C,R28*%
X153325000Y-112750000D03*
X154975000Y-112750000D03*
%TD*%
%TO.C,R27*%
X154825000Y-114750000D03*
X156475000Y-114750000D03*
%TD*%
D12*
%TO.C,L1*%
X153900000Y-118750000D03*
X151750000Y-118750000D03*
%TD*%
D13*
%TO.C,C4*%
X147825000Y-118750000D03*
X147825000Y-117200000D03*
%TD*%
%TO.C,C3*%
X149825000Y-118750000D03*
X149825000Y-117200000D03*
%TD*%
%TO.C,C2*%
X155825000Y-118025000D03*
X155825000Y-116475000D03*
%TD*%
D14*
%TO.C,C1*%
X149825000Y-113950000D03*
X149825000Y-115500000D03*
%TD*%
D15*
%TO.C,R26*%
X139400000Y-112175000D03*
X139400000Y-113825000D03*
%TD*%
%TO.C,R25*%
X136500000Y-112175000D03*
X136500000Y-113825000D03*
%TD*%
D16*
%TO.C,R22*%
X158635000Y-94500000D03*
X160285000Y-94500000D03*
%TD*%
%TO.C,R24*%
X160285000Y-100800000D03*
X158635000Y-100800000D03*
%TD*%
%TO.C,R23*%
X160285000Y-103049999D03*
X158635000Y-103049999D03*
%TD*%
%TO.C,R21*%
X160285000Y-96749999D03*
X158635000Y-96749999D03*
%TD*%
%TO.C,R20*%
X160305903Y-88250000D03*
X158655903Y-88250000D03*
%TD*%
%TO.C,R19*%
X160305903Y-90499999D03*
X158655903Y-90499999D03*
%TD*%
%TO.C,R18*%
X160300000Y-82000000D03*
X158650000Y-82000000D03*
%TD*%
%TO.C,R17*%
X160300000Y-84249999D03*
X158650000Y-84249999D03*
%TD*%
%TO.C,R16*%
X160310000Y-75725000D03*
X158660000Y-75725000D03*
%TD*%
%TO.C,R15*%
X160310000Y-77974999D03*
X158660000Y-77974999D03*
%TD*%
%TO.C,R13*%
X160325000Y-71750000D03*
X158675000Y-71750000D03*
%TD*%
D11*
%TO.C,R6*%
X130675000Y-82000000D03*
X132325000Y-82000000D03*
%TD*%
D16*
%TO.C,R14*%
X160325000Y-69500000D03*
X158675000Y-69500000D03*
%TD*%
D11*
%TO.C,R2*%
X130675000Y-69500000D03*
X132325000Y-69500000D03*
%TD*%
%TO.C,R4*%
X130650000Y-75750000D03*
X132300000Y-75750000D03*
%TD*%
%TO.C,R10*%
X130625000Y-94500000D03*
X132275000Y-94500000D03*
%TD*%
%TO.C,R11*%
X130600000Y-102800000D03*
X132250000Y-102800000D03*
%TD*%
%TO.C,R3*%
X130650000Y-77750000D03*
X132300000Y-77750000D03*
%TD*%
%TO.C,R8*%
X130650000Y-88250000D03*
X132300000Y-88250000D03*
%TD*%
%TO.C,R12*%
X130600000Y-100800000D03*
X132250000Y-100800000D03*
%TD*%
%TO.C,R5*%
X130675000Y-84000000D03*
X132325000Y-84000000D03*
%TD*%
%TO.C,R7*%
X130650000Y-90250000D03*
X132300000Y-90250000D03*
%TD*%
%TO.C,R1*%
X130675000Y-71500000D03*
X132325000Y-71500000D03*
%TD*%
%TO.C,R9*%
X130625000Y-96500000D03*
X132275000Y-96500000D03*
%TD*%
M02*
