%TF.GenerationSoftware,KiCad,Pcbnew,9.0.6*%
%TF.CreationDate,2026-04-16T11:51:10-04:00*%
%TF.ProjectId,OUTPUTs,4f555450-5554-4732-9e6b-696361645f70,rev?*%
%TF.SameCoordinates,Original*%
%TF.FileFunction,Soldermask,Bot*%
%TF.FilePolarity,Negative*%
%FSLAX46Y46*%
G04 Gerber Fmt 4.6, Leading zero omitted, Abs format (unit mm)*
G04 Created by KiCad (PCBNEW 9.0.6) date 2026-04-16 11:51:10*
%MOMM*%
%LPD*%
G01*
G04 APERTURE LIST*
%ADD10C,0.700000*%
%ADD11C,4.400000*%
%ADD12R,1.700000X1.700000*%
%ADD13C,1.700000*%
G04 APERTURE END LIST*
D10*
%TO.C,5V1*%
X134650000Y-121750000D03*
X134166726Y-122916726D03*
X134166726Y-120583274D03*
X133000000Y-123400000D03*
D11*
X133000000Y-121750000D03*
D10*
X133000000Y-120100000D03*
X131833274Y-122916726D03*
X131833274Y-120583274D03*
X131350000Y-121750000D03*
%TD*%
%TO.C,GND1*%
X134650000Y-127700000D03*
X134166726Y-128866726D03*
X134166726Y-126533274D03*
X133000000Y-129350000D03*
D11*
X133000000Y-127700000D03*
D10*
X133000000Y-126050000D03*
X131833274Y-128866726D03*
X131833274Y-126533274D03*
X131350000Y-127700000D03*
%TD*%
D12*
%TO.C,LIGHT_2*%
X142500000Y-108960000D03*
D13*
X142500000Y-111500000D03*
X142500000Y-114040000D03*
%TD*%
D12*
%TO.C,LIGHT_1*%
X133250000Y-108960000D03*
D13*
X133250000Y-111500000D03*
X133250000Y-114040000D03*
%TD*%
D12*
%TO.C,OUT_12*%
X147420000Y-101800000D03*
D13*
X149960000Y-101800000D03*
X152500000Y-101800000D03*
%TD*%
D12*
%TO.C,OUT_11*%
X147420000Y-95500000D03*
D13*
X149960000Y-95500000D03*
X152500000Y-95500000D03*
%TD*%
D12*
%TO.C,OUT_10*%
X147440903Y-89250000D03*
D13*
X149980903Y-89250000D03*
X152520903Y-89250000D03*
%TD*%
D12*
%TO.C,OUT_9*%
X147435000Y-83000000D03*
D13*
X149975000Y-83000000D03*
X152515000Y-83000000D03*
%TD*%
D12*
%TO.C,OUT_8*%
X147445000Y-76725000D03*
D13*
X149985000Y-76725000D03*
X152525000Y-76725000D03*
%TD*%
D12*
%TO.C,J1*%
X128000000Y-69450000D03*
D13*
X128000000Y-71990000D03*
X128000000Y-74530000D03*
X128000000Y-77070000D03*
X128000000Y-79610000D03*
X128000000Y-82150000D03*
X128000000Y-84690000D03*
X128000000Y-87230000D03*
X128000000Y-89770000D03*
X128000000Y-92310000D03*
X128000000Y-94850000D03*
X128000000Y-97390000D03*
X128000000Y-99930000D03*
X128000000Y-102470000D03*
X128000000Y-105010000D03*
X128000000Y-107550000D03*
X128000000Y-110090000D03*
X128000000Y-112630000D03*
X128000000Y-115170000D03*
X128000000Y-117710000D03*
X128000000Y-120250000D03*
X128000000Y-122790000D03*
X128000000Y-125330000D03*
X128000000Y-127870000D03*
%TD*%
D12*
%TO.C,OUT_6*%
X143415000Y-101800000D03*
D13*
X140875000Y-101800000D03*
X138335000Y-101800000D03*
%TD*%
D12*
%TO.C,OUT_7*%
X147460000Y-70500000D03*
D13*
X150000000Y-70500000D03*
X152540000Y-70500000D03*
%TD*%
D12*
%TO.C,J2*%
X163000000Y-69450000D03*
D13*
X163000000Y-71990000D03*
X163000000Y-74530000D03*
X163000000Y-77070000D03*
X163000000Y-79610000D03*
X163000000Y-82150000D03*
X163000000Y-84690000D03*
X163000000Y-87230000D03*
X163000000Y-89770000D03*
X163000000Y-92310000D03*
X163000000Y-94850000D03*
X163000000Y-97390000D03*
X163000000Y-99930000D03*
X163000000Y-102470000D03*
X163000000Y-105010000D03*
X163000000Y-107550000D03*
X163000000Y-110090000D03*
X163000000Y-112630000D03*
X163000000Y-115170000D03*
X163000000Y-117710000D03*
X163000000Y-120250000D03*
X163000000Y-122790000D03*
X163000000Y-125330000D03*
X163000000Y-127870000D03*
%TD*%
D12*
%TO.C,OUT_5*%
X143440000Y-95500000D03*
D13*
X140900000Y-95500000D03*
X138360000Y-95500000D03*
%TD*%
D12*
%TO.C,OUT_3*%
X143490000Y-83000000D03*
D13*
X140950000Y-83000000D03*
X138410000Y-83000000D03*
%TD*%
D12*
%TO.C,OUT_4*%
X143465000Y-89250000D03*
D13*
X140925000Y-89250000D03*
X138385000Y-89250000D03*
%TD*%
D12*
%TO.C,OUT_1*%
X143490000Y-70500000D03*
D13*
X140950000Y-70500000D03*
X138410000Y-70500000D03*
%TD*%
D12*
%TO.C,OUT_2*%
X143465000Y-76750000D03*
D13*
X140925000Y-76750000D03*
X138385000Y-76750000D03*
%TD*%
M02*
