%TF.GenerationSoftware,KiCad,Pcbnew,9.0.6*%
%TF.CreationDate,2026-04-16T11:51:10-04:00*%
%TF.ProjectId,OUTPUTs,4f555450-5554-4732-9e6b-696361645f70,rev?*%
%TF.SameCoordinates,Original*%
%TF.FileFunction,Copper,L2,Bot*%
%TF.FilePolarity,Positive*%
%FSLAX46Y46*%
G04 Gerber Fmt 4.6, Leading zero omitted, Abs format (unit mm)*
G04 Created by KiCad (PCBNEW 9.0.6) date 2026-04-16 11:51:10*
%MOMM*%
%LPD*%
G01*
G04 APERTURE LIST*
%TA.AperFunction,ComponentPad*%
%ADD10C,0.700000*%
%TD*%
%TA.AperFunction,ComponentPad*%
%ADD11C,4.400000*%
%TD*%
%TA.AperFunction,ComponentPad*%
%ADD12R,1.700000X1.700000*%
%TD*%
%TA.AperFunction,ComponentPad*%
%ADD13C,1.700000*%
%TD*%
%TA.AperFunction,ViaPad*%
%ADD14C,0.600000*%
%TD*%
%TA.AperFunction,Conductor*%
%ADD15C,0.600000*%
%TD*%
G04 APERTURE END LIST*
D10*
%TO.P,5V1,1,1*%
%TO.N,+5V_EXT*%
X134650000Y-121750000D03*
X134166726Y-122916726D03*
X134166726Y-120583274D03*
X133000000Y-123400000D03*
D11*
X133000000Y-121750000D03*
D10*
X133000000Y-120100000D03*
X131833274Y-122916726D03*
X131833274Y-120583274D03*
X131350000Y-121750000D03*
%TD*%
%TO.P,GND1,1,1*%
%TO.N,GND*%
X134650000Y-127700000D03*
X134166726Y-128866726D03*
X134166726Y-126533274D03*
X133000000Y-129350000D03*
D11*
X133000000Y-127700000D03*
D10*
X133000000Y-126050000D03*
X131833274Y-128866726D03*
X131833274Y-126533274D03*
X131350000Y-127700000D03*
%TD*%
D12*
%TO.P,LIGHT_2,1,Pin_1*%
%TO.N,GND*%
X142500000Y-108960000D03*
D13*
%TO.P,LIGHT_2,2,Pin_2*%
%TO.N,/GPIO_13*%
X142500000Y-111500000D03*
%TO.P,LIGHT_2,3,Pin_3*%
%TO.N,/5V_LIGHT*%
X142500000Y-114040000D03*
%TD*%
D12*
%TO.P,LIGHT_1,1,Pin_1*%
%TO.N,GND*%
X133250000Y-108960000D03*
D13*
%TO.P,LIGHT_1,2,Pin_2*%
%TO.N,/GPIO_14*%
X133250000Y-111500000D03*
%TO.P,LIGHT_1,3,Pin_3*%
%TO.N,/5V_LIGHT*%
X133250000Y-114040000D03*
%TD*%
D12*
%TO.P,OUT_12,1,Pin_1*%
%TO.N,GND*%
X147420000Y-101800000D03*
D13*
%TO.P,OUT_12,2,Pin_2*%
%TO.N,+5V*%
X149960000Y-101800000D03*
%TO.P,OUT_12,3,Pin_3*%
%TO.N,Net-(ESC_12-B)*%
X152500000Y-101800000D03*
%TD*%
D12*
%TO.P,OUT_11,1,Pin_1*%
%TO.N,GND*%
X147420000Y-95500000D03*
D13*
%TO.P,OUT_11,2,Pin_2*%
%TO.N,+5V*%
X149960000Y-95500000D03*
%TO.P,OUT_11,3,Pin_3*%
%TO.N,Net-(ESC_11-B)*%
X152500000Y-95500000D03*
%TD*%
D12*
%TO.P,OUT_10,1,Pin_1*%
%TO.N,GND*%
X147440903Y-89250000D03*
D13*
%TO.P,OUT_10,2,Pin_2*%
%TO.N,+5V*%
X149980903Y-89250000D03*
%TO.P,OUT_10,3,Pin_3*%
%TO.N,Net-(ESC_10-B)*%
X152520903Y-89250000D03*
%TD*%
D12*
%TO.P,OUT_9,1,Pin_1*%
%TO.N,GND*%
X147435000Y-83000000D03*
D13*
%TO.P,OUT_9,2,Pin_2*%
%TO.N,+5V*%
X149975000Y-83000000D03*
%TO.P,OUT_9,3,Pin_3*%
%TO.N,Net-(ESC_9-B)*%
X152515000Y-83000000D03*
%TD*%
D12*
%TO.P,OUT_8,1,Pin_1*%
%TO.N,GND*%
X147445000Y-76725000D03*
D13*
%TO.P,OUT_8,2,Pin_2*%
%TO.N,+5V*%
X149985000Y-76725000D03*
%TO.P,OUT_8,3,Pin_3*%
%TO.N,Net-(ESC_8-B)*%
X152525000Y-76725000D03*
%TD*%
D12*
%TO.P,J1,1,Pin_1*%
%TO.N,3.3V*%
X128000000Y-69450000D03*
D13*
%TO.P,J1,2,Pin_2*%
%TO.N,GND*%
X128000000Y-71990000D03*
%TO.P,J1,3,Pin_3*%
%TO.N,12V*%
X128000000Y-74530000D03*
%TO.P,J1,4,Pin_4*%
%TO.N,GND*%
X128000000Y-77070000D03*
%TO.P,J1,5,Pin_5*%
%TO.N,V_Piezo*%
X128000000Y-79610000D03*
%TO.P,J1,6,Pin_6*%
%TO.N,GND*%
X128000000Y-82150000D03*
%TO.P,J1,7,Pin_7*%
%TO.N,/GPIO_6*%
X128000000Y-84690000D03*
%TO.P,J1,8,Pin_8*%
%TO.N,/GPIO_7*%
X128000000Y-87230000D03*
%TO.P,J1,9,Pin_9*%
%TO.N,/GPIO_8*%
X128000000Y-89770000D03*
%TO.P,J1,10,Pin_10*%
%TO.N,/GPIO_9*%
X128000000Y-92310000D03*
%TO.P,J1,11,Pin_11*%
%TO.N,/GPIO_10*%
X128000000Y-94850000D03*
%TO.P,J1,12,Pin_12*%
%TO.N,/GPIO_11*%
X128000000Y-97390000D03*
%TO.P,J1,13,Pin_13*%
%TO.N,/GPIO_12*%
X128000000Y-99930000D03*
%TO.P,J1,14,Pin_14*%
%TO.N,/GPIO_13*%
X128000000Y-102470000D03*
%TO.P,J1,15,Pin_15*%
%TO.N,/GPIO_14*%
X128000000Y-105010000D03*
%TO.P,J1,16,Pin_16*%
%TO.N,unconnected-(J1-Pin_16-Pad16)*%
X128000000Y-107550000D03*
%TO.P,J1,17,Pin_17*%
%TO.N,unconnected-(J1-Pin_17-Pad17)*%
X128000000Y-110090000D03*
%TO.P,J1,18,Pin_18*%
%TO.N,/ADC1_IN2*%
X128000000Y-112630000D03*
%TO.P,J1,19,Pin_19*%
%TO.N,/ADC1_IN3*%
X128000000Y-115170000D03*
%TO.P,J1,20,Pin_20*%
%TO.N,/PC5*%
X128000000Y-117710000D03*
%TO.P,J1,21,Pin_21*%
%TO.N,/PB0*%
X128000000Y-120250000D03*
%TO.P,J1,22,Pin_22*%
%TO.N,/PB1*%
X128000000Y-122790000D03*
%TO.P,J1,23,Pin_23*%
%TO.N,unconnected-(J1-Pin_23-Pad23)*%
X128000000Y-125330000D03*
%TO.P,J1,24,Pin_24*%
%TO.N,unconnected-(J1-Pin_24-Pad24)*%
X128000000Y-127870000D03*
%TD*%
D12*
%TO.P,OUT_6,1,Pin_1*%
%TO.N,GND*%
X143415000Y-101800000D03*
D13*
%TO.P,OUT_6,2,Pin_2*%
%TO.N,+5V*%
X140875000Y-101800000D03*
%TO.P,OUT_6,3,Pin_3*%
%TO.N,Net-(ESC_6-B)*%
X138335000Y-101800000D03*
%TD*%
D12*
%TO.P,OUT_7,1,Pin_1*%
%TO.N,GND*%
X147460000Y-70500000D03*
D13*
%TO.P,OUT_7,2,Pin_2*%
%TO.N,+5V*%
X150000000Y-70500000D03*
%TO.P,OUT_7,3,Pin_3*%
%TO.N,Net-(ESC_7-B)*%
X152540000Y-70500000D03*
%TD*%
D12*
%TO.P,J2,1,Pin_1*%
%TO.N,unconnected-(J2-Pin_1-Pad1)*%
X163000000Y-69450000D03*
D13*
%TO.P,J2,2,Pin_2*%
%TO.N,unconnected-(J2-Pin_2-Pad2)*%
X163000000Y-71990000D03*
%TO.P,J2,3,Pin_3*%
%TO.N,unconnected-(J2-Pin_3-Pad3)*%
X163000000Y-74530000D03*
%TO.P,J2,4,Pin_4*%
%TO.N,/GPIO_28*%
X163000000Y-77070000D03*
%TO.P,J2,5,Pin_5*%
%TO.N,/GPIO_27*%
X163000000Y-79610000D03*
%TO.P,J2,6,Pin_6*%
%TO.N,/GPIO_26*%
X163000000Y-82150000D03*
%TO.P,J2,7,Pin_7*%
%TO.N,/GPIO_17*%
X163000000Y-84690000D03*
%TO.P,J2,8,Pin_8*%
%TO.N,/GPIO_16*%
X163000000Y-87230000D03*
%TO.P,J2,9,Pin_9*%
%TO.N,unconnected-(J2-Pin_9-Pad9)*%
X163000000Y-89770000D03*
%TO.P,J2,10,Pin_10*%
%TO.N,unconnected-(J2-Pin_10-Pad10)*%
X163000000Y-92310000D03*
%TO.P,J2,11,Pin_11*%
%TO.N,/PB14*%
X163000000Y-94850000D03*
%TO.P,J2,12,Pin_12*%
%TO.N,/PB15*%
X163000000Y-97390000D03*
%TO.P,J2,13,Pin_13*%
%TO.N,/PC6*%
X163000000Y-99930000D03*
%TO.P,J2,14,Pin_14*%
%TO.N,/PC7*%
X163000000Y-102470000D03*
%TO.P,J2,15,Pin_15*%
%TO.N,/PC8*%
X163000000Y-105010000D03*
%TO.P,J2,16,Pin_16*%
%TO.N,/PC9*%
X163000000Y-107550000D03*
%TO.P,J2,17,Pin_17*%
%TO.N,/PA9*%
X163000000Y-110090000D03*
%TO.P,J2,18,Pin_18*%
%TO.N,/PA10*%
X163000000Y-112630000D03*
%TO.P,J2,19,Pin_19*%
%TO.N,/SCL*%
X163000000Y-115170000D03*
%TO.P,J2,20,Pin_20*%
%TO.N,/SDA*%
X163000000Y-117710000D03*
%TO.P,J2,21,Pin_21*%
%TO.N,unconnected-(J2-Pin_21-Pad21)*%
X163000000Y-120250000D03*
%TO.P,J2,22,Pin_22*%
%TO.N,unconnected-(J2-Pin_22-Pad22)*%
X163000000Y-122790000D03*
%TO.P,J2,23,Pin_23*%
%TO.N,unconnected-(J2-Pin_23-Pad23)*%
X163000000Y-125330000D03*
%TO.P,J2,24,Pin_24*%
%TO.N,unconnected-(J2-Pin_24-Pad24)*%
X163000000Y-127870000D03*
%TD*%
D12*
%TO.P,OUT_5,1,Pin_1*%
%TO.N,GND*%
X143440000Y-95500000D03*
D13*
%TO.P,OUT_5,2,Pin_2*%
%TO.N,+5V*%
X140900000Y-95500000D03*
%TO.P,OUT_5,3,Pin_3*%
%TO.N,Net-(ESC_5-B)*%
X138360000Y-95500000D03*
%TD*%
D12*
%TO.P,OUT_3,1,Pin_1*%
%TO.N,GND*%
X143490000Y-83000000D03*
D13*
%TO.P,OUT_3,2,Pin_2*%
%TO.N,+5V*%
X140950000Y-83000000D03*
%TO.P,OUT_3,3,Pin_3*%
%TO.N,Net-(ESC_3-B)*%
X138410000Y-83000000D03*
%TD*%
D12*
%TO.P,OUT_4,1,Pin_1*%
%TO.N,GND*%
X143465000Y-89250000D03*
D13*
%TO.P,OUT_4,2,Pin_2*%
%TO.N,+5V*%
X140925000Y-89250000D03*
%TO.P,OUT_4,3,Pin_3*%
%TO.N,Net-(ESC_4-B)*%
X138385000Y-89250000D03*
%TD*%
D12*
%TO.P,OUT_1,1,Pin_1*%
%TO.N,GND*%
X143490000Y-70500000D03*
D13*
%TO.P,OUT_1,2,Pin_2*%
%TO.N,+5V*%
X140950000Y-70500000D03*
%TO.P,OUT_1,3,Pin_3*%
%TO.N,Net-(ESC_1-B)*%
X138410000Y-70500000D03*
%TD*%
D12*
%TO.P,OUT_2,1,Pin_1*%
%TO.N,GND*%
X143465000Y-76750000D03*
D13*
%TO.P,OUT_2,2,Pin_2*%
%TO.N,+5V*%
X140925000Y-76750000D03*
%TO.P,OUT_2,3,Pin_3*%
%TO.N,Net-(ESC_2-B)*%
X138385000Y-76750000D03*
%TD*%
D14*
%TO.N,GND*%
X153325000Y-112750000D03*
X147825000Y-117200000D03*
X149825000Y-117200000D03*
X149825000Y-115500000D03*
X151750000Y-116750000D03*
X160960000Y-129350000D03*
X160960000Y-126810000D03*
X160960000Y-124270000D03*
X160960000Y-121730000D03*
X160960000Y-119190000D03*
X160960000Y-116650000D03*
X160960000Y-114110000D03*
X160960000Y-111570000D03*
X160960000Y-109030000D03*
X160960000Y-106490000D03*
X160960000Y-98870000D03*
X158420000Y-129350000D03*
X158420000Y-126810000D03*
X158420000Y-124270000D03*
X158420000Y-121730000D03*
X158420000Y-119190000D03*
X158420000Y-116650000D03*
X158420000Y-114110000D03*
X158420000Y-111570000D03*
X158420000Y-109030000D03*
X158420000Y-106490000D03*
X158420000Y-86170000D03*
X158420000Y-73470000D03*
X155880000Y-129350000D03*
X155880000Y-126810000D03*
X155880000Y-124270000D03*
X155880000Y-121730000D03*
X155880000Y-109030000D03*
X155880000Y-106490000D03*
X153340000Y-129350000D03*
X153340000Y-126810000D03*
X153340000Y-124270000D03*
X153340000Y-121730000D03*
X153340000Y-109030000D03*
X153340000Y-106490000D03*
X153340000Y-86170000D03*
X153340000Y-73470000D03*
X150800000Y-129350000D03*
X150800000Y-126810000D03*
X150800000Y-124270000D03*
X150800000Y-121730000D03*
X150800000Y-111570000D03*
X150800000Y-109030000D03*
X150800000Y-106490000D03*
X148260000Y-129350000D03*
X148260000Y-126810000D03*
X148260000Y-124270000D03*
X148260000Y-121730000D03*
X148260000Y-109030000D03*
X148260000Y-106490000D03*
X145720000Y-129350000D03*
X145720000Y-126810000D03*
X145720000Y-124270000D03*
X145720000Y-121730000D03*
X143180000Y-129350000D03*
X143180000Y-126810000D03*
X143180000Y-124270000D03*
X143180000Y-121730000D03*
X143180000Y-106490000D03*
X140640000Y-129350000D03*
X140640000Y-126810000D03*
X140640000Y-124270000D03*
X140640000Y-121730000D03*
X140640000Y-109030000D03*
X138100000Y-129350000D03*
X138100000Y-126810000D03*
X138100000Y-111570000D03*
X138100000Y-86170000D03*
X138100000Y-73470000D03*
X135560000Y-86170000D03*
X133020000Y-86170000D03*
X130480000Y-116650000D03*
X130480000Y-114110000D03*
X130480000Y-111570000D03*
X130480000Y-109030000D03*
%TO.N,+5V*%
X151750000Y-118750000D03*
X156500000Y-114750000D03*
%TO.N,12V*%
X149825000Y-113950000D03*
X131500000Y-99500000D03*
X131500000Y-97500000D03*
%TO.N,/GPIO_12*%
X160285000Y-100800000D03*
%TO.N,/GPIO_7*%
X130650000Y-77750000D03*
%TD*%
D15*
%TO.N,+5V*%
X152500000Y-118750000D02*
X151750000Y-118750000D01*
X156500000Y-114750000D02*
X152500000Y-118750000D01*
%TO.N,12V*%
X139609000Y-107609000D02*
X143851000Y-107609000D01*
X131500000Y-99500000D02*
X139609000Y-107609000D01*
X143851000Y-107609000D02*
X149825000Y-113583000D01*
X149825000Y-113583000D02*
X149825000Y-113950000D01*
%TO.N,/GPIO_12*%
X157985000Y-98500000D02*
X160285000Y-100800000D01*
X129430000Y-98500000D02*
X157985000Y-98500000D01*
X128000000Y-99930000D02*
X129430000Y-98500000D01*
%TO.N,12V*%
X131500000Y-77467215D02*
X131500000Y-97500000D01*
X128562785Y-74530000D02*
X131500000Y-77467215D01*
X128000000Y-74530000D02*
X128562785Y-74530000D01*
%TO.N,/GPIO_7*%
X130650000Y-84580000D02*
X130650000Y-77750000D01*
X128000000Y-87230000D02*
X130650000Y-84580000D01*
%TD*%
%TA.AperFunction,Conductor*%
%TO.N,GND*%
G36*
X164942539Y-66470185D02*
G01*
X164988294Y-66522989D01*
X164999500Y-66574500D01*
X164999500Y-130325500D01*
X164979815Y-130392539D01*
X164927011Y-130438294D01*
X164875500Y-130449500D01*
X126124500Y-130449500D01*
X126057461Y-130429815D01*
X126011706Y-130377011D01*
X126000500Y-130325500D01*
X126000500Y-79503713D01*
X126649500Y-79503713D01*
X126649500Y-79716286D01*
X126682753Y-79926239D01*
X126748444Y-80128414D01*
X126844951Y-80317820D01*
X126969890Y-80489786D01*
X127120213Y-80640109D01*
X127292179Y-80765048D01*
X127292181Y-80765049D01*
X127292184Y-80765051D01*
X127481588Y-80861557D01*
X127683757Y-80927246D01*
X127893713Y-80960500D01*
X127893714Y-80960500D01*
X128106286Y-80960500D01*
X128106287Y-80960500D01*
X128316243Y-80927246D01*
X128518412Y-80861557D01*
X128707816Y-80765051D01*
X128729789Y-80749086D01*
X128879786Y-80640109D01*
X128879788Y-80640106D01*
X128879792Y-80640104D01*
X129030104Y-80489792D01*
X129030106Y-80489788D01*
X129030109Y-80489786D01*
X129155048Y-80317820D01*
X129155047Y-80317820D01*
X129155051Y-80317816D01*
X129251557Y-80128412D01*
X129317246Y-79926243D01*
X129350500Y-79716287D01*
X129350500Y-79503713D01*
X129317246Y-79293757D01*
X129251557Y-79091588D01*
X129155051Y-78902184D01*
X129155049Y-78902181D01*
X129155048Y-78902179D01*
X129030109Y-78730213D01*
X128879786Y-78579890D01*
X128707820Y-78454951D01*
X128518414Y-78358444D01*
X128518413Y-78358443D01*
X128518412Y-78358443D01*
X128316243Y-78292754D01*
X128316241Y-78292753D01*
X128316240Y-78292753D01*
X128154957Y-78267208D01*
X128106287Y-78259500D01*
X127893713Y-78259500D01*
X127845042Y-78267208D01*
X127683760Y-78292753D01*
X127481585Y-78358444D01*
X127292179Y-78454951D01*
X127120213Y-78579890D01*
X126969890Y-78730213D01*
X126844951Y-78902179D01*
X126748444Y-79091585D01*
X126682753Y-79293760D01*
X126649500Y-79503713D01*
X126000500Y-79503713D01*
X126000500Y-74423713D01*
X126649500Y-74423713D01*
X126649500Y-74636286D01*
X126682753Y-74846239D01*
X126748444Y-75048414D01*
X126844951Y-75237820D01*
X126969890Y-75409786D01*
X127120213Y-75560109D01*
X127292179Y-75685048D01*
X127292181Y-75685049D01*
X127292184Y-75685051D01*
X127481588Y-75781557D01*
X127683757Y-75847246D01*
X127893713Y-75880500D01*
X127893714Y-75880500D01*
X128106286Y-75880500D01*
X128106287Y-75880500D01*
X128316243Y-75847246D01*
X128518412Y-75781557D01*
X128546685Y-75767150D01*
X128615353Y-75754254D01*
X128680094Y-75780530D01*
X128690661Y-75789954D01*
X130001196Y-77100489D01*
X130034681Y-77161812D01*
X130029697Y-77231504D01*
X130016617Y-77257061D01*
X129940609Y-77370814D01*
X129940602Y-77370827D01*
X129880264Y-77516498D01*
X129880261Y-77516510D01*
X129849500Y-77671153D01*
X129849500Y-84197060D01*
X129829815Y-84264099D01*
X129813181Y-84284741D01*
X129544967Y-84552954D01*
X129483644Y-84586439D01*
X129413952Y-84581455D01*
X129358019Y-84539583D01*
X129334813Y-84484671D01*
X129317246Y-84373759D01*
X129317246Y-84373757D01*
X129251557Y-84171588D01*
X129155051Y-83982184D01*
X129155049Y-83982181D01*
X129155048Y-83982179D01*
X129030109Y-83810213D01*
X128879786Y-83659890D01*
X128707820Y-83534951D01*
X128518414Y-83438444D01*
X128518413Y-83438443D01*
X128518412Y-83438443D01*
X128316243Y-83372754D01*
X128316241Y-83372753D01*
X128316240Y-83372753D01*
X128154957Y-83347208D01*
X128106287Y-83339500D01*
X127893713Y-83339500D01*
X127845042Y-83347208D01*
X127683760Y-83372753D01*
X127481585Y-83438444D01*
X127292179Y-83534951D01*
X127120213Y-83659890D01*
X126969890Y-83810213D01*
X126844951Y-83982179D01*
X126748444Y-84171585D01*
X126682753Y-84373760D01*
X126649500Y-84583713D01*
X126649500Y-84796286D01*
X126682753Y-85006239D01*
X126748444Y-85208414D01*
X126844951Y-85397820D01*
X126969890Y-85569786D01*
X127120213Y-85720109D01*
X127292182Y-85845050D01*
X127300946Y-85849516D01*
X127351742Y-85897491D01*
X127368536Y-85965312D01*
X127345998Y-86031447D01*
X127300946Y-86070484D01*
X127292182Y-86074949D01*
X127120213Y-86199890D01*
X126969890Y-86350213D01*
X126844951Y-86522179D01*
X126748444Y-86711585D01*
X126682753Y-86913760D01*
X126649500Y-87123713D01*
X126649500Y-87336286D01*
X126682753Y-87546239D01*
X126748444Y-87748414D01*
X126844951Y-87937820D01*
X126969890Y-88109786D01*
X127120213Y-88260109D01*
X127292182Y-88385050D01*
X127300946Y-88389516D01*
X127351742Y-88437491D01*
X127368536Y-88505312D01*
X127345998Y-88571447D01*
X127300946Y-88610484D01*
X127292182Y-88614949D01*
X127120213Y-88739890D01*
X126969890Y-88890213D01*
X126844951Y-89062179D01*
X126748444Y-89251585D01*
X126682753Y-89453760D01*
X126664938Y-89566239D01*
X126649500Y-89663713D01*
X126649500Y-89876287D01*
X126682754Y-90086243D01*
X126745745Y-90280109D01*
X126748444Y-90288414D01*
X126844951Y-90477820D01*
X126969890Y-90649786D01*
X127120213Y-90800109D01*
X127292182Y-90925050D01*
X127300946Y-90929516D01*
X127351742Y-90977491D01*
X127368536Y-91045312D01*
X127345998Y-91111447D01*
X127300946Y-91150484D01*
X127292182Y-91154949D01*
X127120213Y-91279890D01*
X126969890Y-91430213D01*
X126844951Y-91602179D01*
X126748444Y-91791585D01*
X126682753Y-91993760D01*
X126649500Y-92203713D01*
X126649500Y-92416286D01*
X126682753Y-92626239D01*
X126748444Y-92828414D01*
X126844951Y-93017820D01*
X126969890Y-93189786D01*
X127120213Y-93340109D01*
X127292182Y-93465050D01*
X127300946Y-93469516D01*
X127351742Y-93517491D01*
X127368536Y-93585312D01*
X127345998Y-93651447D01*
X127300946Y-93690484D01*
X127292182Y-93694949D01*
X127120213Y-93819890D01*
X126969890Y-93970213D01*
X126844951Y-94142179D01*
X126748444Y-94331585D01*
X126682753Y-94533760D01*
X126649500Y-94743713D01*
X126649500Y-94956286D01*
X126682753Y-95166239D01*
X126748444Y-95368414D01*
X126844951Y-95557820D01*
X126969890Y-95729786D01*
X127120213Y-95880109D01*
X127292182Y-96005050D01*
X127300946Y-96009516D01*
X127351742Y-96057491D01*
X127368536Y-96125312D01*
X127345998Y-96191447D01*
X127300946Y-96230484D01*
X127292182Y-96234949D01*
X127120213Y-96359890D01*
X126969890Y-96510213D01*
X126844951Y-96682179D01*
X126748444Y-96871585D01*
X126682753Y-97073760D01*
X126649500Y-97283713D01*
X126649500Y-97496286D01*
X126662575Y-97578842D01*
X126682754Y-97706243D01*
X126710166Y-97790609D01*
X126748444Y-97908414D01*
X126844951Y-98097820D01*
X126969890Y-98269786D01*
X127120213Y-98420109D01*
X127292182Y-98545050D01*
X127300946Y-98549516D01*
X127351742Y-98597491D01*
X127368536Y-98665312D01*
X127345998Y-98731447D01*
X127300946Y-98770484D01*
X127292182Y-98774949D01*
X127120213Y-98899890D01*
X126969890Y-99050213D01*
X126844951Y-99222179D01*
X126748444Y-99411585D01*
X126682753Y-99613760D01*
X126671908Y-99682233D01*
X126649500Y-99823713D01*
X126649500Y-100036287D01*
X126682754Y-100246243D01*
X126739480Y-100420828D01*
X126748444Y-100448414D01*
X126844951Y-100637820D01*
X126969890Y-100809786D01*
X127120213Y-100960109D01*
X127292182Y-101085050D01*
X127300946Y-101089516D01*
X127351742Y-101137491D01*
X127368536Y-101205312D01*
X127345998Y-101271447D01*
X127300946Y-101310484D01*
X127292182Y-101314949D01*
X127120213Y-101439890D01*
X126969890Y-101590213D01*
X126844951Y-101762179D01*
X126748444Y-101951585D01*
X126682753Y-102153760D01*
X126665665Y-102261650D01*
X126649500Y-102363713D01*
X126649500Y-102576287D01*
X126682754Y-102786243D01*
X126737603Y-102955051D01*
X126748444Y-102988414D01*
X126844951Y-103177820D01*
X126969890Y-103349786D01*
X127120213Y-103500109D01*
X127292182Y-103625050D01*
X127300946Y-103629516D01*
X127351742Y-103677491D01*
X127368536Y-103745312D01*
X127345998Y-103811447D01*
X127300946Y-103850484D01*
X127292182Y-103854949D01*
X127120213Y-103979890D01*
X126969890Y-104130213D01*
X126844951Y-104302179D01*
X126748444Y-104491585D01*
X126682753Y-104693760D01*
X126649500Y-104903713D01*
X126649500Y-105116286D01*
X126682753Y-105326239D01*
X126748444Y-105528414D01*
X126844951Y-105717820D01*
X126969890Y-105889786D01*
X127120213Y-106040109D01*
X127292182Y-106165050D01*
X127300946Y-106169516D01*
X127351742Y-106217491D01*
X127368536Y-106285312D01*
X127345998Y-106351447D01*
X127300946Y-106390484D01*
X127292182Y-106394949D01*
X127120213Y-106519890D01*
X126969890Y-106670213D01*
X126844951Y-106842179D01*
X126748444Y-107031585D01*
X126682753Y-107233760D01*
X126649500Y-107443713D01*
X126649500Y-107656286D01*
X126682753Y-107866239D01*
X126748444Y-108068414D01*
X126844951Y-108257820D01*
X126969890Y-108429786D01*
X127120213Y-108580109D01*
X127292182Y-108705050D01*
X127300946Y-108709516D01*
X127351742Y-108757491D01*
X127368536Y-108825312D01*
X127345998Y-108891447D01*
X127300946Y-108930484D01*
X127292182Y-108934949D01*
X127120213Y-109059890D01*
X126969890Y-109210213D01*
X126844951Y-109382179D01*
X126748444Y-109571585D01*
X126682753Y-109773760D01*
X126649500Y-109983713D01*
X126649500Y-110196287D01*
X126682754Y-110406243D01*
X126703436Y-110469896D01*
X126748444Y-110608414D01*
X126844951Y-110797820D01*
X126969890Y-110969786D01*
X127120213Y-111120109D01*
X127292182Y-111245050D01*
X127300946Y-111249516D01*
X127351742Y-111297491D01*
X127368536Y-111365312D01*
X127345998Y-111431447D01*
X127300946Y-111470484D01*
X127292182Y-111474949D01*
X127120213Y-111599890D01*
X126969890Y-111750213D01*
X126844951Y-111922179D01*
X126748444Y-112111585D01*
X126682753Y-112313760D01*
X126672296Y-112379786D01*
X126649500Y-112523713D01*
X126649500Y-112736287D01*
X126682754Y-112946243D01*
X126723846Y-113072712D01*
X126748444Y-113148414D01*
X126844951Y-113337820D01*
X126969890Y-113509786D01*
X127120213Y-113660109D01*
X127292182Y-113785050D01*
X127300946Y-113789516D01*
X127351742Y-113837491D01*
X127368536Y-113905312D01*
X127345998Y-113971447D01*
X127300946Y-114010484D01*
X127292182Y-114014949D01*
X127120213Y-114139890D01*
X126969890Y-114290213D01*
X126844951Y-114462179D01*
X126748444Y-114651585D01*
X126682753Y-114853760D01*
X126649500Y-115063713D01*
X126649500Y-115276286D01*
X126682753Y-115486239D01*
X126748444Y-115688414D01*
X126844951Y-115877820D01*
X126969890Y-116049786D01*
X127120213Y-116200109D01*
X127292182Y-116325050D01*
X127300946Y-116329516D01*
X127351742Y-116377491D01*
X127368536Y-116445312D01*
X127345998Y-116511447D01*
X127300946Y-116550484D01*
X127292182Y-116554949D01*
X127120213Y-116679890D01*
X126969890Y-116830213D01*
X126844951Y-117002179D01*
X126748444Y-117191585D01*
X126682753Y-117393760D01*
X126649500Y-117603713D01*
X126649500Y-117816286D01*
X126675471Y-117980264D01*
X126682754Y-118026243D01*
X126715886Y-118128213D01*
X126748444Y-118228414D01*
X126844951Y-118417820D01*
X126969890Y-118589786D01*
X127120213Y-118740109D01*
X127292182Y-118865050D01*
X127300946Y-118869516D01*
X127351742Y-118917491D01*
X127368536Y-118985312D01*
X127345998Y-119051447D01*
X127300946Y-119090484D01*
X127292182Y-119094949D01*
X127120213Y-119219890D01*
X126969890Y-119370213D01*
X126844951Y-119542179D01*
X126748444Y-119731585D01*
X126682753Y-119933760D01*
X126680546Y-119947696D01*
X126649500Y-120143713D01*
X126649500Y-120356287D01*
X126682754Y-120566243D01*
X126731067Y-120714935D01*
X126748444Y-120768414D01*
X126844951Y-120957820D01*
X126969890Y-121129786D01*
X127120213Y-121280109D01*
X127292182Y-121405050D01*
X127300946Y-121409516D01*
X127351742Y-121457491D01*
X127368536Y-121525312D01*
X127345998Y-121591447D01*
X127300946Y-121630484D01*
X127292182Y-121634949D01*
X127120213Y-121759890D01*
X126969890Y-121910213D01*
X126844951Y-122082179D01*
X126748444Y-122271585D01*
X126682753Y-122473760D01*
X126649500Y-122683713D01*
X126649500Y-122896286D01*
X126682753Y-123106239D01*
X126748444Y-123308414D01*
X126844951Y-123497820D01*
X126969890Y-123669786D01*
X127120213Y-123820109D01*
X127292182Y-123945050D01*
X127300946Y-123949516D01*
X127351742Y-123997491D01*
X127368536Y-124065312D01*
X127345998Y-124131447D01*
X127300946Y-124170484D01*
X127292182Y-124174949D01*
X127120213Y-124299890D01*
X126969890Y-124450213D01*
X126844951Y-124622179D01*
X126748444Y-124811585D01*
X126682753Y-125013760D01*
X126649500Y-125223713D01*
X126649500Y-125436286D01*
X126682753Y-125646239D01*
X126748444Y-125848414D01*
X126844951Y-126037820D01*
X126969890Y-126209786D01*
X127120213Y-126360109D01*
X127292182Y-126485050D01*
X127300946Y-126489516D01*
X127351742Y-126537491D01*
X127368536Y-126605312D01*
X127345998Y-126671447D01*
X127300946Y-126710484D01*
X127292182Y-126714949D01*
X127120213Y-126839890D01*
X126969890Y-126990213D01*
X126844951Y-127162179D01*
X126748444Y-127351585D01*
X126682753Y-127553760D01*
X126649500Y-127763713D01*
X126649500Y-127976286D01*
X126682753Y-128186239D01*
X126748444Y-128388414D01*
X126844951Y-128577820D01*
X126969890Y-128749786D01*
X127120213Y-128900109D01*
X127292179Y-129025048D01*
X127292181Y-129025049D01*
X127292184Y-129025051D01*
X127481588Y-129121557D01*
X127683757Y-129187246D01*
X127893713Y-129220500D01*
X127893714Y-129220500D01*
X128106286Y-129220500D01*
X128106287Y-129220500D01*
X128316243Y-129187246D01*
X128518412Y-129121557D01*
X128707816Y-129025051D01*
X128729789Y-129009086D01*
X128879786Y-128900109D01*
X128879788Y-128900106D01*
X128879792Y-128900104D01*
X129030104Y-128749792D01*
X129030106Y-128749788D01*
X129030109Y-128749786D01*
X129155048Y-128577820D01*
X129155047Y-128577820D01*
X129155051Y-128577816D01*
X129251557Y-128388412D01*
X129317246Y-128186243D01*
X129350500Y-127976287D01*
X129350500Y-127763713D01*
X129317246Y-127553757D01*
X129251557Y-127351588D01*
X129155051Y-127162184D01*
X129155049Y-127162181D01*
X129155048Y-127162179D01*
X129030109Y-126990213D01*
X128879786Y-126839890D01*
X128707820Y-126714951D01*
X128707115Y-126714591D01*
X128699054Y-126710485D01*
X128648259Y-126662512D01*
X128631463Y-126594692D01*
X128653999Y-126528556D01*
X128699054Y-126489515D01*
X128707816Y-126485051D01*
X128729789Y-126469086D01*
X128879786Y-126360109D01*
X128879788Y-126360106D01*
X128879792Y-126360104D01*
X129030104Y-126209792D01*
X129030106Y-126209788D01*
X129030109Y-126209786D01*
X129155048Y-126037820D01*
X129155047Y-126037820D01*
X129155051Y-126037816D01*
X129251557Y-125848412D01*
X129317246Y-125646243D01*
X129350500Y-125436287D01*
X129350500Y-125223713D01*
X129317246Y-125013757D01*
X129251557Y-124811588D01*
X129155051Y-124622184D01*
X129155049Y-124622181D01*
X129155048Y-124622179D01*
X129030109Y-124450213D01*
X128879786Y-124299890D01*
X128707820Y-124174951D01*
X128707115Y-124174591D01*
X128699054Y-124170485D01*
X128648259Y-124122512D01*
X128631463Y-124054692D01*
X128653999Y-123988556D01*
X128699054Y-123949515D01*
X128707816Y-123945051D01*
X128729789Y-123929086D01*
X128879786Y-123820109D01*
X128879788Y-123820106D01*
X128879792Y-123820104D01*
X129030104Y-123669792D01*
X129030106Y-123669788D01*
X129030109Y-123669786D01*
X129155048Y-123497820D01*
X129155047Y-123497820D01*
X129155051Y-123497816D01*
X129251557Y-123308412D01*
X129317246Y-123106243D01*
X129350500Y-122896287D01*
X129350500Y-122683713D01*
X129317246Y-122473757D01*
X129251557Y-122271588D01*
X129155051Y-122082184D01*
X129155049Y-122082181D01*
X129155048Y-122082179D01*
X129030109Y-121910213D01*
X128879792Y-121759896D01*
X128791856Y-121696007D01*
X128791850Y-121696002D01*
X128707816Y-121634949D01*
X128691654Y-121626714D01*
X128684820Y-121621988D01*
X128667863Y-121601027D01*
X128665014Y-121598336D01*
X130299500Y-121598336D01*
X130299500Y-121901663D01*
X130333457Y-122203048D01*
X130333460Y-122203062D01*
X130400953Y-122498771D01*
X130400957Y-122498783D01*
X130501133Y-122785068D01*
X130632733Y-123058338D01*
X130632735Y-123058341D01*
X130794108Y-123315164D01*
X130983221Y-123552304D01*
X131197696Y-123766779D01*
X131434836Y-123955892D01*
X131691659Y-124117265D01*
X131964935Y-124248868D01*
X132179951Y-124324105D01*
X132251216Y-124349042D01*
X132251228Y-124349046D01*
X132546937Y-124416540D01*
X132546946Y-124416541D01*
X132546951Y-124416542D01*
X132747874Y-124439180D01*
X132848337Y-124450499D01*
X132848340Y-124450500D01*
X132848343Y-124450500D01*
X133151660Y-124450500D01*
X133151661Y-124450499D01*
X133305694Y-124433144D01*
X133453048Y-124416542D01*
X133453051Y-124416541D01*
X133453063Y-124416540D01*
X133748772Y-124349046D01*
X134035065Y-124248868D01*
X134308341Y-124117265D01*
X134565164Y-123955892D01*
X134802304Y-123766779D01*
X135016779Y-123552304D01*
X135205892Y-123315164D01*
X135367265Y-123058341D01*
X135498868Y-122785065D01*
X135599046Y-122498772D01*
X135666540Y-122203063D01*
X135700500Y-121901657D01*
X135700500Y-121598343D01*
X135681220Y-121427223D01*
X135666542Y-121296951D01*
X135666541Y-121296946D01*
X135666540Y-121296937D01*
X135599046Y-121001228D01*
X135498868Y-120714935D01*
X135367265Y-120441659D01*
X135205892Y-120184836D01*
X135016779Y-119947696D01*
X134802304Y-119733221D01*
X134800256Y-119731588D01*
X134573179Y-119550500D01*
X134565164Y-119544108D01*
X134308341Y-119382735D01*
X134308338Y-119382733D01*
X134035068Y-119251133D01*
X133748783Y-119150957D01*
X133748771Y-119150953D01*
X133503399Y-119094949D01*
X133453063Y-119083460D01*
X133453060Y-119083459D01*
X133453048Y-119083457D01*
X133151663Y-119049500D01*
X133151657Y-119049500D01*
X132848343Y-119049500D01*
X132848336Y-119049500D01*
X132546951Y-119083457D01*
X132546937Y-119083460D01*
X132251228Y-119150953D01*
X132251216Y-119150957D01*
X131964931Y-119251133D01*
X131691661Y-119382733D01*
X131434837Y-119544107D01*
X131197696Y-119733220D01*
X130983220Y-119947696D01*
X130794107Y-120184837D01*
X130632733Y-120441661D01*
X130501133Y-120714931D01*
X130400957Y-121001216D01*
X130400953Y-121001228D01*
X130333460Y-121296937D01*
X130333457Y-121296951D01*
X130299500Y-121598336D01*
X128665014Y-121598336D01*
X128648259Y-121582512D01*
X128646217Y-121574268D01*
X128640877Y-121567667D01*
X128637944Y-121540863D01*
X128631463Y-121514692D01*
X128634201Y-121506654D01*
X128633278Y-121498212D01*
X128645302Y-121474077D01*
X128653999Y-121448556D01*
X128661070Y-121442428D01*
X128664436Y-121435674D01*
X128678618Y-121427223D01*
X128699054Y-121409515D01*
X128707816Y-121405051D01*
X128729789Y-121389086D01*
X128879786Y-121280109D01*
X128879788Y-121280106D01*
X128879792Y-121280104D01*
X129030104Y-121129792D01*
X129030106Y-121129788D01*
X129030109Y-121129786D01*
X129155048Y-120957820D01*
X129155047Y-120957820D01*
X129155051Y-120957816D01*
X129251557Y-120768412D01*
X129317246Y-120566243D01*
X129350500Y-120356287D01*
X129350500Y-120143713D01*
X129317246Y-119933757D01*
X129251557Y-119731588D01*
X129155051Y-119542184D01*
X129155049Y-119542181D01*
X129155048Y-119542179D01*
X129030109Y-119370213D01*
X128879786Y-119219890D01*
X128707820Y-119094951D01*
X128707115Y-119094591D01*
X128699054Y-119090485D01*
X128648259Y-119042512D01*
X128631463Y-118974692D01*
X128653999Y-118908556D01*
X128699054Y-118869515D01*
X128707816Y-118865051D01*
X128757654Y-118828842D01*
X128879786Y-118740109D01*
X128879788Y-118740106D01*
X128879792Y-118740104D01*
X128948743Y-118671153D01*
X150949500Y-118671153D01*
X150949500Y-118828846D01*
X150980261Y-118983489D01*
X150980264Y-118983501D01*
X151040602Y-119129172D01*
X151040609Y-119129185D01*
X151128210Y-119260288D01*
X151128213Y-119260292D01*
X151239707Y-119371786D01*
X151239711Y-119371789D01*
X151370814Y-119459390D01*
X151370827Y-119459397D01*
X151516498Y-119519735D01*
X151516503Y-119519737D01*
X151671153Y-119550499D01*
X151671156Y-119550500D01*
X151671158Y-119550500D01*
X152578844Y-119550500D01*
X152578845Y-119550499D01*
X152733497Y-119519737D01*
X152879179Y-119459394D01*
X153010289Y-119371789D01*
X157121789Y-115260289D01*
X157125139Y-115255276D01*
X157209394Y-115129179D01*
X157269737Y-114983497D01*
X157300500Y-114828842D01*
X157300500Y-114671158D01*
X157300500Y-114671155D01*
X157300499Y-114671153D01*
X157280734Y-114571789D01*
X157269737Y-114516503D01*
X157247238Y-114462184D01*
X157209397Y-114370827D01*
X157209390Y-114370814D01*
X157121789Y-114239711D01*
X157121786Y-114239707D01*
X157010292Y-114128213D01*
X157010288Y-114128210D01*
X156879185Y-114040609D01*
X156879172Y-114040602D01*
X156733501Y-113980264D01*
X156733489Y-113980261D01*
X156578845Y-113949500D01*
X156578842Y-113949500D01*
X156421157Y-113949500D01*
X156421155Y-113949500D01*
X156266508Y-113980261D01*
X156266498Y-113980264D01*
X156120827Y-114040602D01*
X156120815Y-114040609D01*
X156032680Y-114099500D01*
X156032679Y-114099501D01*
X155989708Y-114128212D01*
X155989707Y-114128213D01*
X152204741Y-117913181D01*
X152143418Y-117946666D01*
X152117060Y-117949500D01*
X151671155Y-117949500D01*
X151516510Y-117980261D01*
X151516498Y-117980264D01*
X151370827Y-118040602D01*
X151370814Y-118040609D01*
X151239711Y-118128210D01*
X151239707Y-118128213D01*
X151128213Y-118239707D01*
X151128210Y-118239711D01*
X151040609Y-118370814D01*
X151040602Y-118370827D01*
X150980264Y-118516498D01*
X150980261Y-118516510D01*
X150949500Y-118671153D01*
X128948743Y-118671153D01*
X129030104Y-118589792D01*
X129155051Y-118417816D01*
X129251557Y-118228412D01*
X129317246Y-118026243D01*
X129350500Y-117816287D01*
X129350500Y-117603713D01*
X129317246Y-117393757D01*
X129251557Y-117191588D01*
X129155051Y-117002184D01*
X129155049Y-117002181D01*
X129155048Y-117002179D01*
X129030109Y-116830213D01*
X128879786Y-116679890D01*
X128707820Y-116554951D01*
X128707115Y-116554591D01*
X128699054Y-116550485D01*
X128648259Y-116502512D01*
X128631463Y-116434692D01*
X128653999Y-116368556D01*
X128699054Y-116329515D01*
X128707816Y-116325051D01*
X128729789Y-116309086D01*
X128879786Y-116200109D01*
X128879788Y-116200106D01*
X128879792Y-116200104D01*
X129030104Y-116049792D01*
X129030106Y-116049788D01*
X129030109Y-116049786D01*
X129155048Y-115877820D01*
X129155047Y-115877820D01*
X129155051Y-115877816D01*
X129251557Y-115688412D01*
X129317246Y-115486243D01*
X129350500Y-115276287D01*
X129350500Y-115063713D01*
X129317246Y-114853757D01*
X129251557Y-114651588D01*
X129155051Y-114462184D01*
X129155049Y-114462181D01*
X129155048Y-114462179D01*
X129030109Y-114290213D01*
X128879786Y-114139890D01*
X128707820Y-114014951D01*
X128707115Y-114014591D01*
X128699054Y-114010485D01*
X128648259Y-113962512D01*
X128631463Y-113894692D01*
X128653999Y-113828556D01*
X128699054Y-113789515D01*
X128707816Y-113785051D01*
X128729789Y-113769086D01*
X128879786Y-113660109D01*
X128879788Y-113660106D01*
X128879792Y-113660104D01*
X129030104Y-113509792D01*
X129030106Y-113509788D01*
X129030109Y-113509786D01*
X129155048Y-113337820D01*
X129155047Y-113337820D01*
X129155051Y-113337816D01*
X129251557Y-113148412D01*
X129317246Y-112946243D01*
X129350500Y-112736287D01*
X129350500Y-112523713D01*
X129317246Y-112313757D01*
X129251557Y-112111588D01*
X129155051Y-111922184D01*
X129155049Y-111922181D01*
X129155048Y-111922179D01*
X129030109Y-111750213D01*
X128879790Y-111599894D01*
X128879785Y-111599890D01*
X128730265Y-111491258D01*
X128730252Y-111491250D01*
X128707816Y-111474949D01*
X128693544Y-111467677D01*
X128688346Y-111464339D01*
X128669345Y-111442427D01*
X128648259Y-111422512D01*
X128646732Y-111416347D01*
X128642573Y-111411551D01*
X128640002Y-111393713D01*
X131899500Y-111393713D01*
X131899500Y-111606287D01*
X131932754Y-111816243D01*
X131967176Y-111922184D01*
X131998444Y-112018414D01*
X132094951Y-112207820D01*
X132219890Y-112379786D01*
X132370213Y-112530109D01*
X132542182Y-112655050D01*
X132550946Y-112659516D01*
X132601742Y-112707491D01*
X132618536Y-112775312D01*
X132595998Y-112841447D01*
X132550946Y-112880484D01*
X132542182Y-112884949D01*
X132370213Y-113009890D01*
X132219890Y-113160213D01*
X132094951Y-113332179D01*
X131998444Y-113521585D01*
X131932753Y-113723760D01*
X131916155Y-113828556D01*
X131899500Y-113933713D01*
X131899500Y-114146287D01*
X131932754Y-114356243D01*
X131984824Y-114516498D01*
X131998444Y-114558414D01*
X132094951Y-114747820D01*
X132219890Y-114919786D01*
X132370213Y-115070109D01*
X132542179Y-115195048D01*
X132542181Y-115195049D01*
X132542184Y-115195051D01*
X132731588Y-115291557D01*
X132933757Y-115357246D01*
X133143713Y-115390500D01*
X133143714Y-115390500D01*
X133356286Y-115390500D01*
X133356287Y-115390500D01*
X133566243Y-115357246D01*
X133768412Y-115291557D01*
X133957816Y-115195051D01*
X134048493Y-115129171D01*
X134129786Y-115070109D01*
X134129788Y-115070106D01*
X134129792Y-115070104D01*
X134280104Y-114919792D01*
X134280106Y-114919788D01*
X134280109Y-114919786D01*
X134405048Y-114747820D01*
X134405047Y-114747820D01*
X134405051Y-114747816D01*
X134501557Y-114558412D01*
X134567246Y-114356243D01*
X134600500Y-114146287D01*
X134600500Y-113933713D01*
X134567246Y-113723757D01*
X134501557Y-113521588D01*
X134405051Y-113332184D01*
X134405049Y-113332181D01*
X134405048Y-113332179D01*
X134280109Y-113160213D01*
X134129786Y-113009890D01*
X133957820Y-112884951D01*
X133957115Y-112884591D01*
X133949054Y-112880485D01*
X133898259Y-112832512D01*
X133881463Y-112764692D01*
X133903999Y-112698556D01*
X133949054Y-112659515D01*
X133957816Y-112655051D01*
X133979789Y-112639086D01*
X134129786Y-112530109D01*
X134129788Y-112530106D01*
X134129792Y-112530104D01*
X134280104Y-112379792D01*
X134280106Y-112379788D01*
X134280109Y-112379786D01*
X134405048Y-112207820D01*
X134405047Y-112207820D01*
X134405051Y-112207816D01*
X134501557Y-112018412D01*
X134567246Y-111816243D01*
X134600500Y-111606287D01*
X134600500Y-111393713D01*
X141149500Y-111393713D01*
X141149500Y-111606287D01*
X141182754Y-111816243D01*
X141217176Y-111922184D01*
X141248444Y-112018414D01*
X141344951Y-112207820D01*
X141469890Y-112379786D01*
X141620213Y-112530109D01*
X141792182Y-112655050D01*
X141800946Y-112659516D01*
X141851742Y-112707491D01*
X141868536Y-112775312D01*
X141845998Y-112841447D01*
X141800946Y-112880484D01*
X141792182Y-112884949D01*
X141620213Y-113009890D01*
X141469890Y-113160213D01*
X141344951Y-113332179D01*
X141248444Y-113521585D01*
X141182753Y-113723760D01*
X141166155Y-113828556D01*
X141149500Y-113933713D01*
X141149500Y-114146287D01*
X141182754Y-114356243D01*
X141234824Y-114516498D01*
X141248444Y-114558414D01*
X141344951Y-114747820D01*
X141469890Y-114919786D01*
X141620213Y-115070109D01*
X141792179Y-115195048D01*
X141792181Y-115195049D01*
X141792184Y-115195051D01*
X141981588Y-115291557D01*
X142183757Y-115357246D01*
X142393713Y-115390500D01*
X142393714Y-115390500D01*
X142606286Y-115390500D01*
X142606287Y-115390500D01*
X142816243Y-115357246D01*
X143018412Y-115291557D01*
X143207816Y-115195051D01*
X143298493Y-115129171D01*
X143379786Y-115070109D01*
X143379788Y-115070106D01*
X143379792Y-115070104D01*
X143530104Y-114919792D01*
X143530106Y-114919788D01*
X143530109Y-114919786D01*
X143655048Y-114747820D01*
X143655047Y-114747820D01*
X143655051Y-114747816D01*
X143751557Y-114558412D01*
X143817246Y-114356243D01*
X143850500Y-114146287D01*
X143850500Y-113933713D01*
X143817246Y-113723757D01*
X143751557Y-113521588D01*
X143655051Y-113332184D01*
X143655049Y-113332181D01*
X143655048Y-113332179D01*
X143530109Y-113160213D01*
X143379786Y-113009890D01*
X143207820Y-112884951D01*
X143207115Y-112884591D01*
X143199054Y-112880485D01*
X143148259Y-112832512D01*
X143131463Y-112764692D01*
X143153999Y-112698556D01*
X143199054Y-112659515D01*
X143207816Y-112655051D01*
X143229789Y-112639086D01*
X143379786Y-112530109D01*
X143379788Y-112530106D01*
X143379792Y-112530104D01*
X143530104Y-112379792D01*
X143530106Y-112379788D01*
X143530109Y-112379786D01*
X143655048Y-112207820D01*
X143655047Y-112207820D01*
X143655051Y-112207816D01*
X143751557Y-112018412D01*
X143817246Y-111816243D01*
X143850500Y-111606287D01*
X143850500Y-111393713D01*
X143817246Y-111183757D01*
X143751557Y-110981588D01*
X143655051Y-110792184D01*
X143655049Y-110792181D01*
X143655048Y-110792179D01*
X143530109Y-110620213D01*
X143379786Y-110469890D01*
X143207820Y-110344951D01*
X143018414Y-110248444D01*
X143018413Y-110248443D01*
X143018412Y-110248443D01*
X142816243Y-110182754D01*
X142816241Y-110182753D01*
X142816240Y-110182753D01*
X142654957Y-110157208D01*
X142606287Y-110149500D01*
X142393713Y-110149500D01*
X142345042Y-110157208D01*
X142183760Y-110182753D01*
X141981585Y-110248444D01*
X141792179Y-110344951D01*
X141620213Y-110469890D01*
X141469890Y-110620213D01*
X141344951Y-110792179D01*
X141248444Y-110981585D01*
X141182753Y-111183760D01*
X141167696Y-111278830D01*
X141149500Y-111393713D01*
X134600500Y-111393713D01*
X134567246Y-111183757D01*
X134501557Y-110981588D01*
X134405051Y-110792184D01*
X134405049Y-110792181D01*
X134405048Y-110792179D01*
X134280109Y-110620213D01*
X134129786Y-110469890D01*
X133957820Y-110344951D01*
X133768414Y-110248444D01*
X133768413Y-110248443D01*
X133768412Y-110248443D01*
X133566243Y-110182754D01*
X133566241Y-110182753D01*
X133566240Y-110182753D01*
X133404957Y-110157208D01*
X133356287Y-110149500D01*
X133143713Y-110149500D01*
X133095042Y-110157208D01*
X132933760Y-110182753D01*
X132731585Y-110248444D01*
X132542179Y-110344951D01*
X132370213Y-110469890D01*
X132219890Y-110620213D01*
X132094951Y-110792179D01*
X131998444Y-110981585D01*
X131932753Y-111183760D01*
X131917696Y-111278830D01*
X131899500Y-111393713D01*
X128640002Y-111393713D01*
X128638435Y-111382845D01*
X128631463Y-111354692D01*
X128633511Y-111348681D01*
X128632605Y-111342396D01*
X128644643Y-111316010D01*
X128653999Y-111288556D01*
X128659243Y-111284011D01*
X128661608Y-111278830D01*
X128675634Y-111269808D01*
X128699054Y-111249515D01*
X128707816Y-111245051D01*
X128729789Y-111229086D01*
X128879786Y-111120109D01*
X128879788Y-111120106D01*
X128879792Y-111120104D01*
X129030104Y-110969792D01*
X129030106Y-110969788D01*
X129030109Y-110969786D01*
X129155048Y-110797820D01*
X129155047Y-110797820D01*
X129155051Y-110797816D01*
X129251557Y-110608412D01*
X129317246Y-110406243D01*
X129350500Y-110196287D01*
X129350500Y-109983713D01*
X129317246Y-109773757D01*
X129251557Y-109571588D01*
X129155051Y-109382184D01*
X129155049Y-109382181D01*
X129155048Y-109382179D01*
X129030109Y-109210213D01*
X128879786Y-109059890D01*
X128707820Y-108934951D01*
X128707115Y-108934591D01*
X128699054Y-108930485D01*
X128648259Y-108882512D01*
X128631463Y-108814692D01*
X128653999Y-108748556D01*
X128699054Y-108709515D01*
X128707816Y-108705051D01*
X128729789Y-108689086D01*
X128879786Y-108580109D01*
X128879788Y-108580106D01*
X128879792Y-108580104D01*
X129030104Y-108429792D01*
X129030106Y-108429788D01*
X129030109Y-108429786D01*
X129155048Y-108257820D01*
X129155047Y-108257820D01*
X129155051Y-108257816D01*
X129251557Y-108068412D01*
X129317246Y-107866243D01*
X129350500Y-107656287D01*
X129350500Y-107443713D01*
X129317246Y-107233757D01*
X129251557Y-107031588D01*
X129155051Y-106842184D01*
X129155049Y-106842181D01*
X129155048Y-106842179D01*
X129030109Y-106670213D01*
X128879786Y-106519890D01*
X128707820Y-106394951D01*
X128707115Y-106394591D01*
X128699054Y-106390485D01*
X128648259Y-106342512D01*
X128631463Y-106274692D01*
X128653999Y-106208556D01*
X128699054Y-106169515D01*
X128707816Y-106165051D01*
X128729789Y-106149086D01*
X128879786Y-106040109D01*
X128879788Y-106040106D01*
X128879792Y-106040104D01*
X129030104Y-105889792D01*
X129030106Y-105889788D01*
X129030109Y-105889786D01*
X129155048Y-105717820D01*
X129155047Y-105717820D01*
X129155051Y-105717816D01*
X129251557Y-105528412D01*
X129317246Y-105326243D01*
X129350500Y-105116287D01*
X129350500Y-104903713D01*
X129317246Y-104693757D01*
X129251557Y-104491588D01*
X129155051Y-104302184D01*
X129155049Y-104302181D01*
X129155048Y-104302179D01*
X129030109Y-104130213D01*
X128879786Y-103979890D01*
X128707820Y-103854951D01*
X128707115Y-103854591D01*
X128699054Y-103850485D01*
X128648259Y-103802512D01*
X128631463Y-103734692D01*
X128653999Y-103668556D01*
X128699054Y-103629515D01*
X128707816Y-103625051D01*
X128729789Y-103609086D01*
X128879786Y-103500109D01*
X128879788Y-103500106D01*
X128879792Y-103500104D01*
X129030104Y-103349792D01*
X129030106Y-103349788D01*
X129030109Y-103349786D01*
X129155048Y-103177820D01*
X129155047Y-103177820D01*
X129155051Y-103177816D01*
X129251557Y-102988412D01*
X129317246Y-102786243D01*
X129350500Y-102576287D01*
X129350500Y-102363713D01*
X129317246Y-102153757D01*
X129251557Y-101951588D01*
X129155051Y-101762184D01*
X129155049Y-101762181D01*
X129155048Y-101762179D01*
X129030109Y-101590213D01*
X128879786Y-101439890D01*
X128707820Y-101314951D01*
X128707115Y-101314591D01*
X128699054Y-101310485D01*
X128648259Y-101262512D01*
X128631463Y-101194692D01*
X128653999Y-101128556D01*
X128699054Y-101089515D01*
X128707816Y-101085051D01*
X128778769Y-101033501D01*
X128879786Y-100960109D01*
X128879788Y-100960106D01*
X128879792Y-100960104D01*
X129030104Y-100809792D01*
X129030106Y-100809788D01*
X129030109Y-100809786D01*
X129155048Y-100637820D01*
X129155047Y-100637820D01*
X129155051Y-100637816D01*
X129251557Y-100448412D01*
X129317246Y-100246243D01*
X129350500Y-100036287D01*
X129350500Y-99823713D01*
X129345051Y-99789312D01*
X129354005Y-99720020D01*
X129379840Y-99682236D01*
X129725259Y-99336819D01*
X129786582Y-99303334D01*
X129812940Y-99300500D01*
X130575500Y-99300500D01*
X130642539Y-99320185D01*
X130688294Y-99372989D01*
X130699500Y-99424500D01*
X130699500Y-99578846D01*
X130730261Y-99733489D01*
X130730264Y-99733501D01*
X130790602Y-99879172D01*
X130790609Y-99879185D01*
X130878210Y-100010288D01*
X130878213Y-100010292D01*
X139098707Y-108230786D01*
X139098711Y-108230789D01*
X139229814Y-108318390D01*
X139229818Y-108318392D01*
X139229821Y-108318394D01*
X139375503Y-108378738D01*
X139530153Y-108409499D01*
X139530157Y-108409500D01*
X139530158Y-108409500D01*
X139687843Y-108409500D01*
X143468060Y-108409500D01*
X143535099Y-108429185D01*
X143555741Y-108445819D01*
X148988181Y-113878259D01*
X149021666Y-113939582D01*
X149024500Y-113965940D01*
X149024500Y-114028846D01*
X149055261Y-114183489D01*
X149055264Y-114183501D01*
X149115602Y-114329172D01*
X149115609Y-114329185D01*
X149203210Y-114460288D01*
X149203213Y-114460292D01*
X149314707Y-114571786D01*
X149314711Y-114571789D01*
X149445814Y-114659390D01*
X149445827Y-114659397D01*
X149591498Y-114719735D01*
X149591503Y-114719737D01*
X149732665Y-114747816D01*
X149746153Y-114750499D01*
X149746156Y-114750500D01*
X149746158Y-114750500D01*
X149903844Y-114750500D01*
X149903845Y-114750499D01*
X150058497Y-114719737D01*
X150204179Y-114659394D01*
X150335289Y-114571789D01*
X150446789Y-114460289D01*
X150534394Y-114329179D01*
X150594737Y-114183497D01*
X150625500Y-114028842D01*
X150625500Y-113504158D01*
X150625500Y-113504155D01*
X150625499Y-113504153D01*
X150594738Y-113349510D01*
X150594737Y-113349503D01*
X150587561Y-113332179D01*
X150534397Y-113203827D01*
X150534390Y-113203814D01*
X150446790Y-113072712D01*
X150446789Y-113072711D01*
X150335289Y-112961211D01*
X147357791Y-109983713D01*
X144361292Y-106987213D01*
X144361288Y-106987210D01*
X144230185Y-106899609D01*
X144230172Y-106899602D01*
X144084501Y-106839264D01*
X144084489Y-106839261D01*
X143929845Y-106808500D01*
X143929842Y-106808500D01*
X139991940Y-106808500D01*
X139924901Y-106788815D01*
X139904259Y-106772181D01*
X134825791Y-101693713D01*
X136984500Y-101693713D01*
X136984500Y-101906286D01*
X137017753Y-102116239D01*
X137083444Y-102318414D01*
X137179951Y-102507820D01*
X137304890Y-102679786D01*
X137455213Y-102830109D01*
X137627179Y-102955048D01*
X137627181Y-102955049D01*
X137627184Y-102955051D01*
X137816588Y-103051557D01*
X138018757Y-103117246D01*
X138228713Y-103150500D01*
X138228714Y-103150500D01*
X138441286Y-103150500D01*
X138441287Y-103150500D01*
X138651243Y-103117246D01*
X138853412Y-103051557D01*
X139042816Y-102955051D01*
X139064789Y-102939086D01*
X139214786Y-102830109D01*
X139214788Y-102830106D01*
X139214792Y-102830104D01*
X139365104Y-102679792D01*
X139365106Y-102679788D01*
X139365109Y-102679786D01*
X139490048Y-102507820D01*
X139490047Y-102507820D01*
X139490051Y-102507816D01*
X139494514Y-102499054D01*
X139542488Y-102448259D01*
X139610308Y-102431463D01*
X139676444Y-102453999D01*
X139715486Y-102499056D01*
X139719951Y-102507820D01*
X139844890Y-102679786D01*
X139995213Y-102830109D01*
X140167179Y-102955048D01*
X140167181Y-102955049D01*
X140167184Y-102955051D01*
X140356588Y-103051557D01*
X140558757Y-103117246D01*
X140768713Y-103150500D01*
X140768714Y-103150500D01*
X140981286Y-103150500D01*
X140981287Y-103150500D01*
X141191243Y-103117246D01*
X141393412Y-103051557D01*
X141582816Y-102955051D01*
X141604789Y-102939086D01*
X141754786Y-102830109D01*
X141754788Y-102830106D01*
X141754792Y-102830104D01*
X141905104Y-102679792D01*
X141905106Y-102679788D01*
X141905109Y-102679786D01*
X142030048Y-102507820D01*
X142030047Y-102507820D01*
X142030051Y-102507816D01*
X142126557Y-102318412D01*
X142192246Y-102116243D01*
X142225500Y-101906287D01*
X142225500Y-101693713D01*
X148609500Y-101693713D01*
X148609500Y-101906286D01*
X148642753Y-102116239D01*
X148708444Y-102318414D01*
X148804951Y-102507820D01*
X148929890Y-102679786D01*
X149080213Y-102830109D01*
X149252179Y-102955048D01*
X149252181Y-102955049D01*
X149252184Y-102955051D01*
X149441588Y-103051557D01*
X149643757Y-103117246D01*
X149853713Y-103150500D01*
X149853714Y-103150500D01*
X150066286Y-103150500D01*
X150066287Y-103150500D01*
X150276243Y-103117246D01*
X150478412Y-103051557D01*
X150667816Y-102955051D01*
X150689789Y-102939086D01*
X150839786Y-102830109D01*
X150839788Y-102830106D01*
X150839792Y-102830104D01*
X150990104Y-102679792D01*
X150990106Y-102679788D01*
X150990109Y-102679786D01*
X151115048Y-102507820D01*
X151115047Y-102507820D01*
X151115051Y-102507816D01*
X151119514Y-102499054D01*
X151167488Y-102448259D01*
X151235308Y-102431463D01*
X151301444Y-102453999D01*
X151340486Y-102499056D01*
X151344951Y-102507820D01*
X151469890Y-102679786D01*
X151620213Y-102830109D01*
X151792179Y-102955048D01*
X151792181Y-102955049D01*
X151792184Y-102955051D01*
X151981588Y-103051557D01*
X152183757Y-103117246D01*
X152393713Y-103150500D01*
X152393714Y-103150500D01*
X152606286Y-103150500D01*
X152606287Y-103150500D01*
X152816243Y-103117246D01*
X153018412Y-103051557D01*
X153207816Y-102955051D01*
X153229789Y-102939086D01*
X153379786Y-102830109D01*
X153379788Y-102830106D01*
X153379792Y-102830104D01*
X153530104Y-102679792D01*
X153530106Y-102679788D01*
X153530109Y-102679786D01*
X153655048Y-102507820D01*
X153655047Y-102507820D01*
X153655051Y-102507816D01*
X153751557Y-102318412D01*
X153817246Y-102116243D01*
X153850500Y-101906287D01*
X153850500Y-101693713D01*
X153817246Y-101483757D01*
X153751557Y-101281588D01*
X153655051Y-101092184D01*
X153655049Y-101092181D01*
X153655048Y-101092179D01*
X153530109Y-100920213D01*
X153379786Y-100769890D01*
X153207820Y-100644951D01*
X153018414Y-100548444D01*
X153018413Y-100548443D01*
X153018412Y-100548443D01*
X152816243Y-100482754D01*
X152816241Y-100482753D01*
X152816240Y-100482753D01*
X152654957Y-100457208D01*
X152606287Y-100449500D01*
X152393713Y-100449500D01*
X152354202Y-100455757D01*
X152183759Y-100482753D01*
X152183760Y-100482753D01*
X151981585Y-100548444D01*
X151792179Y-100644951D01*
X151620213Y-100769890D01*
X151469890Y-100920213D01*
X151344949Y-101092182D01*
X151340484Y-101100946D01*
X151292509Y-101151742D01*
X151224688Y-101168536D01*
X151158553Y-101145998D01*
X151119516Y-101100946D01*
X151115050Y-101092182D01*
X150990109Y-100920213D01*
X150839786Y-100769890D01*
X150667820Y-100644951D01*
X150478414Y-100548444D01*
X150478413Y-100548443D01*
X150478412Y-100548443D01*
X150276243Y-100482754D01*
X150276241Y-100482753D01*
X150276240Y-100482753D01*
X150114957Y-100457208D01*
X150066287Y-100449500D01*
X149853713Y-100449500D01*
X149814202Y-100455757D01*
X149643759Y-100482753D01*
X149643760Y-100482753D01*
X149441585Y-100548444D01*
X149252179Y-100644951D01*
X149080213Y-100769890D01*
X148929890Y-100920213D01*
X148804951Y-101092179D01*
X148708444Y-101281585D01*
X148642753Y-101483760D01*
X148609500Y-101693713D01*
X142225500Y-101693713D01*
X142192246Y-101483757D01*
X142126557Y-101281588D01*
X142030051Y-101092184D01*
X142030049Y-101092181D01*
X142030048Y-101092179D01*
X141905109Y-100920213D01*
X141754786Y-100769890D01*
X141582820Y-100644951D01*
X141393414Y-100548444D01*
X141393413Y-100548443D01*
X141393412Y-100548443D01*
X141191243Y-100482754D01*
X141191241Y-100482753D01*
X141191240Y-100482753D01*
X141029957Y-100457208D01*
X140981287Y-100449500D01*
X140768713Y-100449500D01*
X140729202Y-100455757D01*
X140558759Y-100482753D01*
X140558760Y-100482753D01*
X140356585Y-100548444D01*
X140167179Y-100644951D01*
X139995213Y-100769890D01*
X139844890Y-100920213D01*
X139719949Y-101092182D01*
X139715484Y-101100946D01*
X139667509Y-101151742D01*
X139599688Y-101168536D01*
X139533553Y-101145998D01*
X139494516Y-101100946D01*
X139490050Y-101092182D01*
X139365109Y-100920213D01*
X139214786Y-100769890D01*
X139042820Y-100644951D01*
X138853414Y-100548444D01*
X138853413Y-100548443D01*
X138853412Y-100548443D01*
X138651243Y-100482754D01*
X138651241Y-100482753D01*
X138651240Y-100482753D01*
X138489957Y-100457208D01*
X138441287Y-100449500D01*
X138228713Y-100449500D01*
X138189202Y-100455757D01*
X138018759Y-100482753D01*
X138018760Y-100482753D01*
X137816585Y-100548444D01*
X137627179Y-100644951D01*
X137455213Y-100769890D01*
X137304890Y-100920213D01*
X137179951Y-101092179D01*
X137083444Y-101281585D01*
X137017753Y-101483760D01*
X136984500Y-101693713D01*
X134825791Y-101693713D01*
X132644259Y-99512181D01*
X132610774Y-99450858D01*
X132615758Y-99381166D01*
X132657630Y-99325233D01*
X132723094Y-99300816D01*
X132731940Y-99300500D01*
X157602060Y-99300500D01*
X157669099Y-99320185D01*
X157689741Y-99336819D01*
X159663211Y-101310289D01*
X159774708Y-101421786D01*
X159774712Y-101421790D01*
X159905814Y-101509390D01*
X159905827Y-101509397D01*
X160051498Y-101569735D01*
X160051503Y-101569737D01*
X160051507Y-101569737D01*
X160051508Y-101569738D01*
X160206154Y-101600500D01*
X160206157Y-101600500D01*
X160363844Y-101600500D01*
X160363845Y-101600499D01*
X160518497Y-101569737D01*
X160664179Y-101509394D01*
X160795289Y-101421789D01*
X160906789Y-101310289D01*
X160994394Y-101179179D01*
X160998803Y-101168536D01*
X161054735Y-101033501D01*
X161054737Y-101033497D01*
X161085500Y-100878842D01*
X161085500Y-100721158D01*
X161082711Y-100707139D01*
X161054737Y-100566503D01*
X161020047Y-100482754D01*
X161005822Y-100448412D01*
X160994397Y-100420828D01*
X160994396Y-100420827D01*
X160994394Y-100420821D01*
X160906789Y-100289711D01*
X160795289Y-100178211D01*
X159667286Y-99050208D01*
X158495292Y-97878213D01*
X158495288Y-97878210D01*
X158364185Y-97790609D01*
X158364172Y-97790602D01*
X158218501Y-97730264D01*
X158218489Y-97730261D01*
X158063845Y-97699500D01*
X158063842Y-97699500D01*
X132424500Y-97699500D01*
X132357461Y-97679815D01*
X132311706Y-97627011D01*
X132300500Y-97575500D01*
X132300500Y-95393713D01*
X137009500Y-95393713D01*
X137009500Y-95606287D01*
X137042754Y-95816243D01*
X137104101Y-96005050D01*
X137108444Y-96018414D01*
X137204951Y-96207820D01*
X137329890Y-96379786D01*
X137480213Y-96530109D01*
X137652179Y-96655048D01*
X137652181Y-96655049D01*
X137652184Y-96655051D01*
X137841588Y-96751557D01*
X138043757Y-96817246D01*
X138253713Y-96850500D01*
X138253714Y-96850500D01*
X138466286Y-96850500D01*
X138466287Y-96850500D01*
X138676243Y-96817246D01*
X138878412Y-96751557D01*
X139067816Y-96655051D01*
X139089789Y-96639086D01*
X139239786Y-96530109D01*
X139239788Y-96530106D01*
X139239792Y-96530104D01*
X139390104Y-96379792D01*
X139390106Y-96379788D01*
X139390109Y-96379786D01*
X139515048Y-96207820D01*
X139515047Y-96207820D01*
X139515051Y-96207816D01*
X139519514Y-96199054D01*
X139567488Y-96148259D01*
X139635308Y-96131463D01*
X139701444Y-96153999D01*
X139740486Y-96199056D01*
X139744951Y-96207820D01*
X139869890Y-96379786D01*
X140020213Y-96530109D01*
X140192179Y-96655048D01*
X140192181Y-96655049D01*
X140192184Y-96655051D01*
X140381588Y-96751557D01*
X140583757Y-96817246D01*
X140793713Y-96850500D01*
X140793714Y-96850500D01*
X141006286Y-96850500D01*
X141006287Y-96850500D01*
X141216243Y-96817246D01*
X141418412Y-96751557D01*
X141607816Y-96655051D01*
X141629789Y-96639086D01*
X141779786Y-96530109D01*
X141779788Y-96530106D01*
X141779792Y-96530104D01*
X141930104Y-96379792D01*
X141930106Y-96379788D01*
X141930109Y-96379786D01*
X142055048Y-96207820D01*
X142055047Y-96207820D01*
X142055051Y-96207816D01*
X142151557Y-96018412D01*
X142217246Y-95816243D01*
X142250500Y-95606287D01*
X142250500Y-95393713D01*
X148609500Y-95393713D01*
X148609500Y-95606287D01*
X148642754Y-95816243D01*
X148704101Y-96005050D01*
X148708444Y-96018414D01*
X148804951Y-96207820D01*
X148929890Y-96379786D01*
X149080213Y-96530109D01*
X149252179Y-96655048D01*
X149252181Y-96655049D01*
X149252184Y-96655051D01*
X149441588Y-96751557D01*
X149643757Y-96817246D01*
X149853713Y-96850500D01*
X149853714Y-96850500D01*
X150066286Y-96850500D01*
X150066287Y-96850500D01*
X150276243Y-96817246D01*
X150478412Y-96751557D01*
X150667816Y-96655051D01*
X150689789Y-96639086D01*
X150839786Y-96530109D01*
X150839788Y-96530106D01*
X150839792Y-96530104D01*
X150990104Y-96379792D01*
X150990106Y-96379788D01*
X150990109Y-96379786D01*
X151115048Y-96207820D01*
X151115047Y-96207820D01*
X151115051Y-96207816D01*
X151119514Y-96199054D01*
X151167488Y-96148259D01*
X151235308Y-96131463D01*
X151301444Y-96153999D01*
X151340486Y-96199056D01*
X151344951Y-96207820D01*
X151469890Y-96379786D01*
X151620213Y-96530109D01*
X151792179Y-96655048D01*
X151792181Y-96655049D01*
X151792184Y-96655051D01*
X151981588Y-96751557D01*
X152183757Y-96817246D01*
X152393713Y-96850500D01*
X152393714Y-96850500D01*
X152606286Y-96850500D01*
X152606287Y-96850500D01*
X152816243Y-96817246D01*
X153018412Y-96751557D01*
X153207816Y-96655051D01*
X153229789Y-96639086D01*
X153379786Y-96530109D01*
X153379788Y-96530106D01*
X153379792Y-96530104D01*
X153530104Y-96379792D01*
X153530106Y-96379788D01*
X153530109Y-96379786D01*
X153655048Y-96207820D01*
X153655047Y-96207820D01*
X153655051Y-96207816D01*
X153751557Y-96018412D01*
X153817246Y-95816243D01*
X153850500Y-95606287D01*
X153850500Y-95393713D01*
X153817246Y-95183757D01*
X153751557Y-94981588D01*
X153655051Y-94792184D01*
X153655049Y-94792181D01*
X153655048Y-94792179D01*
X153530109Y-94620213D01*
X153379786Y-94469890D01*
X153207820Y-94344951D01*
X153018414Y-94248444D01*
X153018413Y-94248443D01*
X153018412Y-94248443D01*
X152816243Y-94182754D01*
X152816241Y-94182753D01*
X152816240Y-94182753D01*
X152654957Y-94157208D01*
X152606287Y-94149500D01*
X152393713Y-94149500D01*
X152345042Y-94157208D01*
X152183760Y-94182753D01*
X151981585Y-94248444D01*
X151792179Y-94344951D01*
X151620213Y-94469890D01*
X151469890Y-94620213D01*
X151344949Y-94792182D01*
X151340484Y-94800946D01*
X151292509Y-94851742D01*
X151224688Y-94868536D01*
X151158553Y-94845998D01*
X151119516Y-94800946D01*
X151115050Y-94792182D01*
X150990109Y-94620213D01*
X150839786Y-94469890D01*
X150667820Y-94344951D01*
X150478414Y-94248444D01*
X150478413Y-94248443D01*
X150478412Y-94248443D01*
X150276243Y-94182754D01*
X150276241Y-94182753D01*
X150276240Y-94182753D01*
X150114957Y-94157208D01*
X150066287Y-94149500D01*
X149853713Y-94149500D01*
X149805042Y-94157208D01*
X149643760Y-94182753D01*
X149441585Y-94248444D01*
X149252179Y-94344951D01*
X149080213Y-94469890D01*
X148929890Y-94620213D01*
X148804951Y-94792179D01*
X148708444Y-94981585D01*
X148642753Y-95183760D01*
X148613507Y-95368412D01*
X148609500Y-95393713D01*
X142250500Y-95393713D01*
X142217246Y-95183757D01*
X142151557Y-94981588D01*
X142055051Y-94792184D01*
X142055049Y-94792181D01*
X142055048Y-94792179D01*
X141930109Y-94620213D01*
X141779786Y-94469890D01*
X141607820Y-94344951D01*
X141418414Y-94248444D01*
X141418413Y-94248443D01*
X141418412Y-94248443D01*
X141216243Y-94182754D01*
X141216241Y-94182753D01*
X141216240Y-94182753D01*
X141054957Y-94157208D01*
X141006287Y-94149500D01*
X140793713Y-94149500D01*
X140745042Y-94157208D01*
X140583760Y-94182753D01*
X140381585Y-94248444D01*
X140192179Y-94344951D01*
X140020213Y-94469890D01*
X139869890Y-94620213D01*
X139744949Y-94792182D01*
X139740484Y-94800946D01*
X139692509Y-94851742D01*
X139624688Y-94868536D01*
X139558553Y-94845998D01*
X139519516Y-94800946D01*
X139515050Y-94792182D01*
X139390109Y-94620213D01*
X139239786Y-94469890D01*
X139067820Y-94344951D01*
X138878414Y-94248444D01*
X138878413Y-94248443D01*
X138878412Y-94248443D01*
X138676243Y-94182754D01*
X138676241Y-94182753D01*
X138676240Y-94182753D01*
X138514957Y-94157208D01*
X138466287Y-94149500D01*
X138253713Y-94149500D01*
X138205042Y-94157208D01*
X138043760Y-94182753D01*
X137841585Y-94248444D01*
X137652179Y-94344951D01*
X137480213Y-94469890D01*
X137329890Y-94620213D01*
X137204951Y-94792179D01*
X137108444Y-94981585D01*
X137042753Y-95183760D01*
X137013507Y-95368412D01*
X137009500Y-95393713D01*
X132300500Y-95393713D01*
X132300500Y-89143713D01*
X137034500Y-89143713D01*
X137034500Y-89356286D01*
X137067753Y-89566239D01*
X137133444Y-89768414D01*
X137229951Y-89957820D01*
X137354890Y-90129786D01*
X137505213Y-90280109D01*
X137677179Y-90405048D01*
X137677181Y-90405049D01*
X137677184Y-90405051D01*
X137866588Y-90501557D01*
X138068757Y-90567246D01*
X138278713Y-90600500D01*
X138278714Y-90600500D01*
X138491286Y-90600500D01*
X138491287Y-90600500D01*
X138701243Y-90567246D01*
X138903412Y-90501557D01*
X139092816Y-90405051D01*
X139114789Y-90389086D01*
X139264786Y-90280109D01*
X139264788Y-90280106D01*
X139264792Y-90280104D01*
X139415104Y-90129792D01*
X139415106Y-90129788D01*
X139415109Y-90129786D01*
X139540048Y-89957820D01*
X139540047Y-89957820D01*
X139540051Y-89957816D01*
X139544514Y-89949054D01*
X139592488Y-89898259D01*
X139660308Y-89881463D01*
X139726444Y-89903999D01*
X139765486Y-89949056D01*
X139769951Y-89957820D01*
X139894890Y-90129786D01*
X140045213Y-90280109D01*
X140217179Y-90405048D01*
X140217181Y-90405049D01*
X140217184Y-90405051D01*
X140406588Y-90501557D01*
X140608757Y-90567246D01*
X140818713Y-90600500D01*
X140818714Y-90600500D01*
X141031286Y-90600500D01*
X141031287Y-90600500D01*
X141241243Y-90567246D01*
X141443412Y-90501557D01*
X141632816Y-90405051D01*
X141654789Y-90389086D01*
X141804786Y-90280109D01*
X141804788Y-90280106D01*
X141804792Y-90280104D01*
X141955104Y-90129792D01*
X141955106Y-90129788D01*
X141955109Y-90129786D01*
X142080048Y-89957820D01*
X142080047Y-89957820D01*
X142080051Y-89957816D01*
X142176557Y-89768412D01*
X142242246Y-89566243D01*
X142275500Y-89356287D01*
X142275500Y-89143713D01*
X148630403Y-89143713D01*
X148630403Y-89356286D01*
X148663656Y-89566239D01*
X148729347Y-89768414D01*
X148825854Y-89957820D01*
X148950793Y-90129786D01*
X149101116Y-90280109D01*
X149273082Y-90405048D01*
X149273084Y-90405049D01*
X149273087Y-90405051D01*
X149462491Y-90501557D01*
X149664660Y-90567246D01*
X149874616Y-90600500D01*
X149874617Y-90600500D01*
X150087189Y-90600500D01*
X150087190Y-90600500D01*
X150297146Y-90567246D01*
X150499315Y-90501557D01*
X150688719Y-90405051D01*
X150710692Y-90389086D01*
X150860689Y-90280109D01*
X150860691Y-90280106D01*
X150860695Y-90280104D01*
X151011007Y-90129792D01*
X151011009Y-90129788D01*
X151011012Y-90129786D01*
X151135951Y-89957820D01*
X151135950Y-89957820D01*
X151135954Y-89957816D01*
X151140417Y-89949054D01*
X151188391Y-89898259D01*
X151256211Y-89881463D01*
X151322347Y-89903999D01*
X151361389Y-89949056D01*
X151365854Y-89957820D01*
X151490793Y-90129786D01*
X151641116Y-90280109D01*
X151813082Y-90405048D01*
X151813084Y-90405049D01*
X151813087Y-90405051D01*
X152002491Y-90501557D01*
X152204660Y-90567246D01*
X152414616Y-90600500D01*
X152414617Y-90600500D01*
X152627189Y-90600500D01*
X152627190Y-90600500D01*
X152837146Y-90567246D01*
X153039315Y-90501557D01*
X153228719Y-90405051D01*
X153250692Y-90389086D01*
X153400689Y-90280109D01*
X153400691Y-90280106D01*
X153400695Y-90280104D01*
X153551007Y-90129792D01*
X153551009Y-90129788D01*
X153551012Y-90129786D01*
X153675951Y-89957820D01*
X153675950Y-89957820D01*
X153675954Y-89957816D01*
X153772460Y-89768412D01*
X153838149Y-89566243D01*
X153871403Y-89356287D01*
X153871403Y-89143713D01*
X153838149Y-88933757D01*
X153772460Y-88731588D01*
X153675954Y-88542184D01*
X153675952Y-88542181D01*
X153675951Y-88542179D01*
X153551012Y-88370213D01*
X153400689Y-88219890D01*
X153228723Y-88094951D01*
X153039317Y-87998444D01*
X153039316Y-87998443D01*
X153039315Y-87998443D01*
X152837146Y-87932754D01*
X152837144Y-87932753D01*
X152837143Y-87932753D01*
X152675860Y-87907208D01*
X152627190Y-87899500D01*
X152414616Y-87899500D01*
X152365945Y-87907208D01*
X152204663Y-87932753D01*
X152002488Y-87998444D01*
X151813082Y-88094951D01*
X151641116Y-88219890D01*
X151490793Y-88370213D01*
X151365852Y-88542182D01*
X151361387Y-88550946D01*
X151313412Y-88601742D01*
X151245591Y-88618536D01*
X151179456Y-88595998D01*
X151140419Y-88550946D01*
X151135953Y-88542182D01*
X151011012Y-88370213D01*
X150860689Y-88219890D01*
X150688723Y-88094951D01*
X150499317Y-87998444D01*
X150499316Y-87998443D01*
X150499315Y-87998443D01*
X150297146Y-87932754D01*
X150297144Y-87932753D01*
X150297143Y-87932753D01*
X150135860Y-87907208D01*
X150087190Y-87899500D01*
X149874616Y-87899500D01*
X149825945Y-87907208D01*
X149664663Y-87932753D01*
X149462488Y-87998444D01*
X149273082Y-88094951D01*
X149101116Y-88219890D01*
X148950793Y-88370213D01*
X148825854Y-88542179D01*
X148729347Y-88731585D01*
X148663656Y-88933760D01*
X148630403Y-89143713D01*
X142275500Y-89143713D01*
X142242246Y-88933757D01*
X142176557Y-88731588D01*
X142080051Y-88542184D01*
X142080049Y-88542181D01*
X142080048Y-88542179D01*
X141955109Y-88370213D01*
X141804786Y-88219890D01*
X141632820Y-88094951D01*
X141443414Y-87998444D01*
X141443413Y-87998443D01*
X141443412Y-87998443D01*
X141241243Y-87932754D01*
X141241241Y-87932753D01*
X141241240Y-87932753D01*
X141079957Y-87907208D01*
X141031287Y-87899500D01*
X140818713Y-87899500D01*
X140770042Y-87907208D01*
X140608760Y-87932753D01*
X140406585Y-87998444D01*
X140217179Y-88094951D01*
X140045213Y-88219890D01*
X139894890Y-88370213D01*
X139769949Y-88542182D01*
X139765484Y-88550946D01*
X139717509Y-88601742D01*
X139649688Y-88618536D01*
X139583553Y-88595998D01*
X139544516Y-88550946D01*
X139540050Y-88542182D01*
X139415109Y-88370213D01*
X139264786Y-88219890D01*
X139092820Y-88094951D01*
X138903414Y-87998444D01*
X138903413Y-87998443D01*
X138903412Y-87998443D01*
X138701243Y-87932754D01*
X138701241Y-87932753D01*
X138701240Y-87932753D01*
X138539957Y-87907208D01*
X138491287Y-87899500D01*
X138278713Y-87899500D01*
X138230042Y-87907208D01*
X138068760Y-87932753D01*
X137866585Y-87998444D01*
X137677179Y-88094951D01*
X137505213Y-88219890D01*
X137354890Y-88370213D01*
X137229951Y-88542179D01*
X137133444Y-88731585D01*
X137067753Y-88933760D01*
X137034500Y-89143713D01*
X132300500Y-89143713D01*
X132300500Y-82893713D01*
X137059500Y-82893713D01*
X137059500Y-83106286D01*
X137091688Y-83309516D01*
X137092754Y-83316243D01*
X137149681Y-83491447D01*
X137158444Y-83518414D01*
X137254951Y-83707820D01*
X137379890Y-83879786D01*
X137530213Y-84030109D01*
X137702179Y-84155048D01*
X137702181Y-84155049D01*
X137702184Y-84155051D01*
X137891588Y-84251557D01*
X138093757Y-84317246D01*
X138303713Y-84350500D01*
X138303714Y-84350500D01*
X138516286Y-84350500D01*
X138516287Y-84350500D01*
X138726243Y-84317246D01*
X138928412Y-84251557D01*
X139117816Y-84155051D01*
X139139789Y-84139086D01*
X139289786Y-84030109D01*
X139289788Y-84030106D01*
X139289792Y-84030104D01*
X139440104Y-83879792D01*
X139440106Y-83879788D01*
X139440109Y-83879786D01*
X139565048Y-83707820D01*
X139565047Y-83707820D01*
X139565051Y-83707816D01*
X139569514Y-83699054D01*
X139617488Y-83648259D01*
X139685308Y-83631463D01*
X139751444Y-83653999D01*
X139790486Y-83699056D01*
X139794951Y-83707820D01*
X139919890Y-83879786D01*
X140070213Y-84030109D01*
X140242179Y-84155048D01*
X140242181Y-84155049D01*
X140242184Y-84155051D01*
X140431588Y-84251557D01*
X140633757Y-84317246D01*
X140843713Y-84350500D01*
X140843714Y-84350500D01*
X141056286Y-84350500D01*
X141056287Y-84350500D01*
X141266243Y-84317246D01*
X141468412Y-84251557D01*
X141657816Y-84155051D01*
X141679789Y-84139086D01*
X141829786Y-84030109D01*
X141829788Y-84030106D01*
X141829792Y-84030104D01*
X141980104Y-83879792D01*
X141980106Y-83879788D01*
X141980109Y-83879786D01*
X142105048Y-83707820D01*
X142105047Y-83707820D01*
X142105051Y-83707816D01*
X142201557Y-83518412D01*
X142267246Y-83316243D01*
X142300500Y-83106287D01*
X142300500Y-82893713D01*
X148624500Y-82893713D01*
X148624500Y-83106286D01*
X148656688Y-83309516D01*
X148657754Y-83316243D01*
X148714681Y-83491447D01*
X148723444Y-83518414D01*
X148819951Y-83707820D01*
X148944890Y-83879786D01*
X149095213Y-84030109D01*
X149267179Y-84155048D01*
X149267181Y-84155049D01*
X149267184Y-84155051D01*
X149456588Y-84251557D01*
X149658757Y-84317246D01*
X149868713Y-84350500D01*
X149868714Y-84350500D01*
X150081286Y-84350500D01*
X150081287Y-84350500D01*
X150291243Y-84317246D01*
X150493412Y-84251557D01*
X150682816Y-84155051D01*
X150704789Y-84139086D01*
X150854786Y-84030109D01*
X150854788Y-84030106D01*
X150854792Y-84030104D01*
X151005104Y-83879792D01*
X151005106Y-83879788D01*
X151005109Y-83879786D01*
X151130048Y-83707820D01*
X151130047Y-83707820D01*
X151130051Y-83707816D01*
X151134514Y-83699054D01*
X151182488Y-83648259D01*
X151250308Y-83631463D01*
X151316444Y-83653999D01*
X151355486Y-83699056D01*
X151359951Y-83707820D01*
X151484890Y-83879786D01*
X151635213Y-84030109D01*
X151807179Y-84155048D01*
X151807181Y-84155049D01*
X151807184Y-84155051D01*
X151996588Y-84251557D01*
X152198757Y-84317246D01*
X152408713Y-84350500D01*
X152408714Y-84350500D01*
X152621286Y-84350500D01*
X152621287Y-84350500D01*
X152831243Y-84317246D01*
X153033412Y-84251557D01*
X153222816Y-84155051D01*
X153244789Y-84139086D01*
X153394786Y-84030109D01*
X153394788Y-84030106D01*
X153394792Y-84030104D01*
X153545104Y-83879792D01*
X153545106Y-83879788D01*
X153545109Y-83879786D01*
X153670048Y-83707820D01*
X153670047Y-83707820D01*
X153670051Y-83707816D01*
X153766557Y-83518412D01*
X153832246Y-83316243D01*
X153865500Y-83106287D01*
X153865500Y-82893713D01*
X153832246Y-82683757D01*
X153766557Y-82481588D01*
X153670051Y-82292184D01*
X153670049Y-82292181D01*
X153670048Y-82292179D01*
X153545109Y-82120213D01*
X153394786Y-81969890D01*
X153222820Y-81844951D01*
X153033414Y-81748444D01*
X153033413Y-81748443D01*
X153033412Y-81748443D01*
X152831243Y-81682754D01*
X152831241Y-81682753D01*
X152831240Y-81682753D01*
X152669957Y-81657208D01*
X152621287Y-81649500D01*
X152408713Y-81649500D01*
X152360042Y-81657208D01*
X152198760Y-81682753D01*
X151996585Y-81748444D01*
X151807179Y-81844951D01*
X151635213Y-81969890D01*
X151484890Y-82120213D01*
X151359949Y-82292182D01*
X151355484Y-82300946D01*
X151307509Y-82351742D01*
X151239688Y-82368536D01*
X151173553Y-82345998D01*
X151134516Y-82300946D01*
X151130050Y-82292182D01*
X151005109Y-82120213D01*
X150854786Y-81969890D01*
X150682820Y-81844951D01*
X150493414Y-81748444D01*
X150493413Y-81748443D01*
X150493412Y-81748443D01*
X150291243Y-81682754D01*
X150291241Y-81682753D01*
X150291240Y-81682753D01*
X150129957Y-81657208D01*
X150081287Y-81649500D01*
X149868713Y-81649500D01*
X149820042Y-81657208D01*
X149658760Y-81682753D01*
X149456585Y-81748444D01*
X149267179Y-81844951D01*
X149095213Y-81969890D01*
X148944890Y-82120213D01*
X148819951Y-82292179D01*
X148723444Y-82481585D01*
X148657753Y-82683760D01*
X148624500Y-82893713D01*
X142300500Y-82893713D01*
X142267246Y-82683757D01*
X142201557Y-82481588D01*
X142105051Y-82292184D01*
X142105049Y-82292181D01*
X142105048Y-82292179D01*
X141980109Y-82120213D01*
X141829786Y-81969890D01*
X141657820Y-81844951D01*
X141468414Y-81748444D01*
X141468413Y-81748443D01*
X141468412Y-81748443D01*
X141266243Y-81682754D01*
X141266241Y-81682753D01*
X141266240Y-81682753D01*
X141104957Y-81657208D01*
X141056287Y-81649500D01*
X140843713Y-81649500D01*
X140795042Y-81657208D01*
X140633760Y-81682753D01*
X140431585Y-81748444D01*
X140242179Y-81844951D01*
X140070213Y-81969890D01*
X139919890Y-82120213D01*
X139794949Y-82292182D01*
X139790484Y-82300946D01*
X139742509Y-82351742D01*
X139674688Y-82368536D01*
X139608553Y-82345998D01*
X139569516Y-82300946D01*
X139565050Y-82292182D01*
X139440109Y-82120213D01*
X139289786Y-81969890D01*
X139117820Y-81844951D01*
X138928414Y-81748444D01*
X138928413Y-81748443D01*
X138928412Y-81748443D01*
X138726243Y-81682754D01*
X138726241Y-81682753D01*
X138726240Y-81682753D01*
X138564957Y-81657208D01*
X138516287Y-81649500D01*
X138303713Y-81649500D01*
X138255042Y-81657208D01*
X138093760Y-81682753D01*
X137891585Y-81748444D01*
X137702179Y-81844951D01*
X137530213Y-81969890D01*
X137379890Y-82120213D01*
X137254951Y-82292179D01*
X137158444Y-82481585D01*
X137092753Y-82683760D01*
X137059500Y-82893713D01*
X132300500Y-82893713D01*
X132300500Y-77389091D01*
X132300500Y-77388373D01*
X132300382Y-77387782D01*
X132269737Y-77233718D01*
X132245948Y-77176287D01*
X132209394Y-77088036D01*
X132178125Y-77041239D01*
X132121789Y-76956925D01*
X132005970Y-76841106D01*
X132005947Y-76841085D01*
X131891384Y-76726522D01*
X131808575Y-76643713D01*
X137034500Y-76643713D01*
X137034500Y-76856286D01*
X137063793Y-77041239D01*
X137067754Y-77066243D01*
X137124117Y-77239711D01*
X137133444Y-77268414D01*
X137229951Y-77457820D01*
X137354890Y-77629786D01*
X137505213Y-77780109D01*
X137677179Y-77905048D01*
X137677181Y-77905049D01*
X137677184Y-77905051D01*
X137866588Y-78001557D01*
X138068757Y-78067246D01*
X138278713Y-78100500D01*
X138278714Y-78100500D01*
X138491286Y-78100500D01*
X138491287Y-78100500D01*
X138701243Y-78067246D01*
X138903412Y-78001557D01*
X139092816Y-77905051D01*
X139127230Y-77880048D01*
X139264786Y-77780109D01*
X139264788Y-77780106D01*
X139264792Y-77780104D01*
X139415104Y-77629792D01*
X139415106Y-77629788D01*
X139415109Y-77629786D01*
X139540048Y-77457820D01*
X139540047Y-77457820D01*
X139540051Y-77457816D01*
X139544514Y-77449054D01*
X139592488Y-77398259D01*
X139660308Y-77381463D01*
X139726444Y-77403999D01*
X139765486Y-77449056D01*
X139769951Y-77457820D01*
X139894890Y-77629786D01*
X140045213Y-77780109D01*
X140217179Y-77905048D01*
X140217181Y-77905049D01*
X140217184Y-77905051D01*
X140406588Y-78001557D01*
X140608757Y-78067246D01*
X140818713Y-78100500D01*
X140818714Y-78100500D01*
X141031286Y-78100500D01*
X141031287Y-78100500D01*
X141241243Y-78067246D01*
X141443412Y-78001557D01*
X141632816Y-77905051D01*
X141667230Y-77880048D01*
X141804786Y-77780109D01*
X141804788Y-77780106D01*
X141804792Y-77780104D01*
X141955104Y-77629792D01*
X141955106Y-77629788D01*
X141955109Y-77629786D01*
X142080048Y-77457820D01*
X142080047Y-77457820D01*
X142080051Y-77457816D01*
X142176557Y-77268412D01*
X142242246Y-77066243D01*
X142275500Y-76856287D01*
X142275500Y-76643713D01*
X142271540Y-76618713D01*
X148634500Y-76618713D01*
X148634500Y-76831287D01*
X148667754Y-77041243D01*
X148732240Y-77239711D01*
X148733444Y-77243414D01*
X148829951Y-77432820D01*
X148954890Y-77604786D01*
X149105213Y-77755109D01*
X149277179Y-77880048D01*
X149277181Y-77880049D01*
X149277184Y-77880051D01*
X149466588Y-77976557D01*
X149668757Y-78042246D01*
X149878713Y-78075500D01*
X149878714Y-78075500D01*
X150091286Y-78075500D01*
X150091287Y-78075500D01*
X150301243Y-78042246D01*
X150503412Y-77976557D01*
X150692816Y-77880051D01*
X150714789Y-77864086D01*
X150864786Y-77755109D01*
X150864788Y-77755106D01*
X150864792Y-77755104D01*
X151015104Y-77604792D01*
X151015106Y-77604788D01*
X151015109Y-77604786D01*
X151140048Y-77432820D01*
X151140047Y-77432820D01*
X151140051Y-77432816D01*
X151144514Y-77424054D01*
X151192488Y-77373259D01*
X151260308Y-77356463D01*
X151326444Y-77378999D01*
X151365486Y-77424056D01*
X151369951Y-77432820D01*
X151494890Y-77604786D01*
X151645213Y-77755109D01*
X151817179Y-77880048D01*
X151817181Y-77880049D01*
X151817184Y-77880051D01*
X152006588Y-77976557D01*
X152208757Y-78042246D01*
X152418713Y-78075500D01*
X152418714Y-78075500D01*
X152631286Y-78075500D01*
X152631287Y-78075500D01*
X152841243Y-78042246D01*
X153043412Y-77976557D01*
X153232816Y-77880051D01*
X153254789Y-77864086D01*
X153404786Y-77755109D01*
X153404788Y-77755106D01*
X153404792Y-77755104D01*
X153555104Y-77604792D01*
X153555106Y-77604788D01*
X153555109Y-77604786D01*
X153680048Y-77432820D01*
X153680047Y-77432820D01*
X153680051Y-77432816D01*
X153776557Y-77243412D01*
X153842246Y-77041243D01*
X153875500Y-76831287D01*
X153875500Y-76618713D01*
X153842246Y-76408757D01*
X153776557Y-76206588D01*
X153680051Y-76017184D01*
X153680049Y-76017181D01*
X153680048Y-76017179D01*
X153555109Y-75845213D01*
X153404786Y-75694890D01*
X153232820Y-75569951D01*
X153043414Y-75473444D01*
X153043413Y-75473443D01*
X153043412Y-75473443D01*
X152841243Y-75407754D01*
X152841241Y-75407753D01*
X152841240Y-75407753D01*
X152679957Y-75382208D01*
X152631287Y-75374500D01*
X152418713Y-75374500D01*
X152370042Y-75382208D01*
X152208760Y-75407753D01*
X152006585Y-75473444D01*
X151817179Y-75569951D01*
X151645213Y-75694890D01*
X151494890Y-75845213D01*
X151369949Y-76017182D01*
X151365484Y-76025946D01*
X151317509Y-76076742D01*
X151249688Y-76093536D01*
X151183553Y-76070998D01*
X151144516Y-76025946D01*
X151140050Y-76017182D01*
X151015109Y-75845213D01*
X150864786Y-75694890D01*
X150692820Y-75569951D01*
X150503414Y-75473444D01*
X150503413Y-75473443D01*
X150503412Y-75473443D01*
X150301243Y-75407754D01*
X150301241Y-75407753D01*
X150301240Y-75407753D01*
X150139957Y-75382208D01*
X150091287Y-75374500D01*
X149878713Y-75374500D01*
X149830042Y-75382208D01*
X149668760Y-75407753D01*
X149466585Y-75473444D01*
X149277179Y-75569951D01*
X149105213Y-75694890D01*
X148954890Y-75845213D01*
X148829951Y-76017179D01*
X148733444Y-76206585D01*
X148667753Y-76408760D01*
X148634500Y-76618713D01*
X142271540Y-76618713D01*
X142242246Y-76433757D01*
X142176557Y-76231588D01*
X142080051Y-76042184D01*
X142080049Y-76042181D01*
X142080048Y-76042179D01*
X141955109Y-75870213D01*
X141804786Y-75719890D01*
X141632820Y-75594951D01*
X141443414Y-75498444D01*
X141443413Y-75498443D01*
X141443412Y-75498443D01*
X141241243Y-75432754D01*
X141241241Y-75432753D01*
X141241240Y-75432753D01*
X141079957Y-75407208D01*
X141031287Y-75399500D01*
X140818713Y-75399500D01*
X140770042Y-75407208D01*
X140608760Y-75432753D01*
X140406585Y-75498444D01*
X140217179Y-75594951D01*
X140045213Y-75719890D01*
X139894890Y-75870213D01*
X139769949Y-76042182D01*
X139765484Y-76050946D01*
X139717509Y-76101742D01*
X139649688Y-76118536D01*
X139583553Y-76095998D01*
X139544516Y-76050946D01*
X139540050Y-76042182D01*
X139415109Y-75870213D01*
X139264786Y-75719890D01*
X139092820Y-75594951D01*
X138903414Y-75498444D01*
X138903413Y-75498443D01*
X138903412Y-75498443D01*
X138701243Y-75432754D01*
X138701241Y-75432753D01*
X138701240Y-75432753D01*
X138539957Y-75407208D01*
X138491287Y-75399500D01*
X138278713Y-75399500D01*
X138230042Y-75407208D01*
X138068760Y-75432753D01*
X137866585Y-75498444D01*
X137677179Y-75594951D01*
X137505213Y-75719890D01*
X137354890Y-75870213D01*
X137229951Y-76042179D01*
X137133444Y-76231585D01*
X137067753Y-76433760D01*
X137034500Y-76643713D01*
X131808575Y-76643713D01*
X130638306Y-75473444D01*
X129308756Y-74143893D01*
X129278507Y-74094531D01*
X129251557Y-74011588D01*
X129155051Y-73822184D01*
X129155049Y-73822181D01*
X129155048Y-73822179D01*
X129030109Y-73650213D01*
X128879786Y-73499890D01*
X128707820Y-73374951D01*
X128518414Y-73278444D01*
X128518413Y-73278443D01*
X128518412Y-73278443D01*
X128316243Y-73212754D01*
X128316241Y-73212753D01*
X128316240Y-73212753D01*
X128154957Y-73187208D01*
X128106287Y-73179500D01*
X127893713Y-73179500D01*
X127845042Y-73187208D01*
X127683760Y-73212753D01*
X127481585Y-73278444D01*
X127292179Y-73374951D01*
X127120213Y-73499890D01*
X126969890Y-73650213D01*
X126844951Y-73822179D01*
X126748444Y-74011585D01*
X126682753Y-74213760D01*
X126649500Y-74423713D01*
X126000500Y-74423713D01*
X126000500Y-68552135D01*
X126649500Y-68552135D01*
X126649500Y-70347870D01*
X126649501Y-70347876D01*
X126655908Y-70407483D01*
X126706202Y-70542328D01*
X126706206Y-70542335D01*
X126792452Y-70657544D01*
X126792455Y-70657547D01*
X126907664Y-70743793D01*
X126907671Y-70743797D01*
X127042517Y-70794091D01*
X127042516Y-70794091D01*
X127049444Y-70794835D01*
X127102127Y-70800500D01*
X128897872Y-70800499D01*
X128957483Y-70794091D01*
X129092331Y-70743796D01*
X129207546Y-70657546D01*
X129293796Y-70542331D01*
X129344091Y-70407483D01*
X129345571Y-70393713D01*
X137059500Y-70393713D01*
X137059500Y-70606286D01*
X137091721Y-70809725D01*
X137092754Y-70816243D01*
X137131454Y-70935350D01*
X137158444Y-71018414D01*
X137254951Y-71207820D01*
X137379890Y-71379786D01*
X137530213Y-71530109D01*
X137702179Y-71655048D01*
X137702181Y-71655049D01*
X137702184Y-71655051D01*
X137891588Y-71751557D01*
X138093757Y-71817246D01*
X138303713Y-71850500D01*
X138303714Y-71850500D01*
X138516286Y-71850500D01*
X138516287Y-71850500D01*
X138726243Y-71817246D01*
X138928412Y-71751557D01*
X139117816Y-71655051D01*
X139139789Y-71639086D01*
X139289786Y-71530109D01*
X139289788Y-71530106D01*
X139289792Y-71530104D01*
X139440104Y-71379792D01*
X139440106Y-71379788D01*
X139440109Y-71379786D01*
X139565048Y-71207820D01*
X139565047Y-71207820D01*
X139565051Y-71207816D01*
X139569514Y-71199054D01*
X139617488Y-71148259D01*
X139685308Y-71131463D01*
X139751444Y-71153999D01*
X139790486Y-71199056D01*
X139794951Y-71207820D01*
X139919890Y-71379786D01*
X140070213Y-71530109D01*
X140242179Y-71655048D01*
X140242181Y-71655049D01*
X140242184Y-71655051D01*
X140431588Y-71751557D01*
X140633757Y-71817246D01*
X140843713Y-71850500D01*
X140843714Y-71850500D01*
X141056286Y-71850500D01*
X141056287Y-71850500D01*
X141266243Y-71817246D01*
X141468412Y-71751557D01*
X141657816Y-71655051D01*
X141679789Y-71639086D01*
X141829786Y-71530109D01*
X141829788Y-71530106D01*
X141829792Y-71530104D01*
X141980104Y-71379792D01*
X141980106Y-71379788D01*
X141980109Y-71379786D01*
X142105048Y-71207820D01*
X142105047Y-71207820D01*
X142105051Y-71207816D01*
X142201557Y-71018412D01*
X142267246Y-70816243D01*
X142300500Y-70606287D01*
X142300500Y-70393713D01*
X148649500Y-70393713D01*
X148649500Y-70606286D01*
X148681721Y-70809725D01*
X148682754Y-70816243D01*
X148721454Y-70935350D01*
X148748444Y-71018414D01*
X148844951Y-71207820D01*
X148969890Y-71379786D01*
X149120213Y-71530109D01*
X149292179Y-71655048D01*
X149292181Y-71655049D01*
X149292184Y-71655051D01*
X149481588Y-71751557D01*
X149683757Y-71817246D01*
X149893713Y-71850500D01*
X149893714Y-71850500D01*
X150106286Y-71850500D01*
X150106287Y-71850500D01*
X150316243Y-71817246D01*
X150518412Y-71751557D01*
X150707816Y-71655051D01*
X150729789Y-71639086D01*
X150879786Y-71530109D01*
X150879788Y-71530106D01*
X150879792Y-71530104D01*
X151030104Y-71379792D01*
X151030106Y-71379788D01*
X151030109Y-71379786D01*
X151155048Y-71207820D01*
X151155047Y-71207820D01*
X151155051Y-71207816D01*
X151159514Y-71199054D01*
X151207488Y-71148259D01*
X151275308Y-71131463D01*
X151341444Y-71153999D01*
X151380486Y-71199056D01*
X151384951Y-71207820D01*
X151509890Y-71379786D01*
X151660213Y-71530109D01*
X151832179Y-71655048D01*
X151832181Y-71655049D01*
X151832184Y-71655051D01*
X152021588Y-71751557D01*
X152223757Y-71817246D01*
X152433713Y-71850500D01*
X152433714Y-71850500D01*
X152646286Y-71850500D01*
X152646287Y-71850500D01*
X152856243Y-71817246D01*
X153058412Y-71751557D01*
X153247816Y-71655051D01*
X153269789Y-71639086D01*
X153419786Y-71530109D01*
X153419788Y-71530106D01*
X153419792Y-71530104D01*
X153570104Y-71379792D01*
X153570106Y-71379788D01*
X153570109Y-71379786D01*
X153695048Y-71207820D01*
X153695047Y-71207820D01*
X153695051Y-71207816D01*
X153791557Y-71018412D01*
X153857246Y-70816243D01*
X153890500Y-70606287D01*
X153890500Y-70393713D01*
X153857246Y-70183757D01*
X153791557Y-69981588D01*
X153695051Y-69792184D01*
X153695049Y-69792181D01*
X153695048Y-69792179D01*
X153570109Y-69620213D01*
X153419786Y-69469890D01*
X153247820Y-69344951D01*
X153058414Y-69248444D01*
X153058413Y-69248443D01*
X153058412Y-69248443D01*
X152856243Y-69182754D01*
X152856241Y-69182753D01*
X152856240Y-69182753D01*
X152694957Y-69157208D01*
X152646287Y-69149500D01*
X152433713Y-69149500D01*
X152385042Y-69157208D01*
X152223760Y-69182753D01*
X152021585Y-69248444D01*
X151832179Y-69344951D01*
X151660213Y-69469890D01*
X151509890Y-69620213D01*
X151384949Y-69792182D01*
X151380484Y-69800946D01*
X151332509Y-69851742D01*
X151264688Y-69868536D01*
X151198553Y-69845998D01*
X151159516Y-69800946D01*
X151155050Y-69792182D01*
X151030109Y-69620213D01*
X150879786Y-69469890D01*
X150707820Y-69344951D01*
X150518414Y-69248444D01*
X150518413Y-69248443D01*
X150518412Y-69248443D01*
X150316243Y-69182754D01*
X150316241Y-69182753D01*
X150316240Y-69182753D01*
X150154957Y-69157208D01*
X150106287Y-69149500D01*
X149893713Y-69149500D01*
X149845042Y-69157208D01*
X149683760Y-69182753D01*
X149481585Y-69248444D01*
X149292179Y-69344951D01*
X149120213Y-69469890D01*
X148969890Y-69620213D01*
X148844951Y-69792179D01*
X148748444Y-69981585D01*
X148682753Y-70183760D01*
X148649500Y-70393713D01*
X142300500Y-70393713D01*
X142267246Y-70183757D01*
X142201557Y-69981588D01*
X142105051Y-69792184D01*
X142105049Y-69792181D01*
X142105048Y-69792179D01*
X141980109Y-69620213D01*
X141829786Y-69469890D01*
X141657820Y-69344951D01*
X141468414Y-69248444D01*
X141468413Y-69248443D01*
X141468412Y-69248443D01*
X141266243Y-69182754D01*
X141266241Y-69182753D01*
X141266240Y-69182753D01*
X141104957Y-69157208D01*
X141056287Y-69149500D01*
X140843713Y-69149500D01*
X140795042Y-69157208D01*
X140633760Y-69182753D01*
X140431585Y-69248444D01*
X140242179Y-69344951D01*
X140070213Y-69469890D01*
X139919890Y-69620213D01*
X139794949Y-69792182D01*
X139790484Y-69800946D01*
X139742509Y-69851742D01*
X139674688Y-69868536D01*
X139608553Y-69845998D01*
X139569516Y-69800946D01*
X139565050Y-69792182D01*
X139440109Y-69620213D01*
X139289786Y-69469890D01*
X139117820Y-69344951D01*
X138928414Y-69248444D01*
X138928413Y-69248443D01*
X138928412Y-69248443D01*
X138726243Y-69182754D01*
X138726241Y-69182753D01*
X138726240Y-69182753D01*
X138564957Y-69157208D01*
X138516287Y-69149500D01*
X138303713Y-69149500D01*
X138255042Y-69157208D01*
X138093760Y-69182753D01*
X137891585Y-69248444D01*
X137702179Y-69344951D01*
X137530213Y-69469890D01*
X137379890Y-69620213D01*
X137254951Y-69792179D01*
X137158444Y-69981585D01*
X137092753Y-70183760D01*
X137059500Y-70393713D01*
X129345571Y-70393713D01*
X129350500Y-70347873D01*
X129350499Y-68552135D01*
X161649500Y-68552135D01*
X161649500Y-70347870D01*
X161649501Y-70347876D01*
X161655908Y-70407483D01*
X161706202Y-70542328D01*
X161706206Y-70542335D01*
X161792452Y-70657544D01*
X161792455Y-70657547D01*
X161907664Y-70743793D01*
X161907671Y-70743797D01*
X162039082Y-70792810D01*
X162095016Y-70834681D01*
X162119433Y-70900145D01*
X162104582Y-70968418D01*
X162083431Y-70996673D01*
X161969889Y-71110215D01*
X161844951Y-71282179D01*
X161748444Y-71471585D01*
X161682753Y-71673760D01*
X161649500Y-71883713D01*
X161649500Y-72096286D01*
X161682753Y-72306239D01*
X161748444Y-72508414D01*
X161844951Y-72697820D01*
X161969890Y-72869786D01*
X162120213Y-73020109D01*
X162292182Y-73145050D01*
X162300946Y-73149516D01*
X162351742Y-73197491D01*
X162368536Y-73265312D01*
X162345998Y-73331447D01*
X162300946Y-73370484D01*
X162292182Y-73374949D01*
X162120213Y-73499890D01*
X161969890Y-73650213D01*
X161844951Y-73822179D01*
X161748444Y-74011585D01*
X161682753Y-74213760D01*
X161649500Y-74423713D01*
X161649500Y-74636286D01*
X161682753Y-74846239D01*
X161748444Y-75048414D01*
X161844951Y-75237820D01*
X161969890Y-75409786D01*
X162120213Y-75560109D01*
X162292182Y-75685050D01*
X162300946Y-75689516D01*
X162351742Y-75737491D01*
X162368536Y-75805312D01*
X162345998Y-75871447D01*
X162300946Y-75910484D01*
X162292182Y-75914949D01*
X162120213Y-76039890D01*
X161969890Y-76190213D01*
X161844951Y-76362179D01*
X161748444Y-76551585D01*
X161682753Y-76753760D01*
X161650575Y-76956925D01*
X161649500Y-76963713D01*
X161649500Y-77176287D01*
X161651141Y-77186650D01*
X161681606Y-77378999D01*
X161682754Y-77386243D01*
X161725078Y-77516503D01*
X161748444Y-77588414D01*
X161844951Y-77777820D01*
X161969890Y-77949786D01*
X162120213Y-78100109D01*
X162292182Y-78225050D01*
X162300946Y-78229516D01*
X162351742Y-78277491D01*
X162368536Y-78345312D01*
X162345998Y-78411447D01*
X162300946Y-78450484D01*
X162292182Y-78454949D01*
X162120213Y-78579890D01*
X161969890Y-78730213D01*
X161844951Y-78902179D01*
X161748444Y-79091585D01*
X161682753Y-79293760D01*
X161649500Y-79503713D01*
X161649500Y-79716286D01*
X161682753Y-79926239D01*
X161748444Y-80128414D01*
X161844951Y-80317820D01*
X161969890Y-80489786D01*
X162120213Y-80640109D01*
X162292182Y-80765050D01*
X162300946Y-80769516D01*
X162351742Y-80817491D01*
X162368536Y-80885312D01*
X162345998Y-80951447D01*
X162300946Y-80990484D01*
X162292182Y-80994949D01*
X162120213Y-81119890D01*
X161969890Y-81270213D01*
X161844951Y-81442179D01*
X161748444Y-81631585D01*
X161682753Y-81833760D01*
X161649500Y-82043713D01*
X161649500Y-82256286D01*
X161682753Y-82466239D01*
X161748444Y-82668414D01*
X161844951Y-82857820D01*
X161969890Y-83029786D01*
X162120213Y-83180109D01*
X162292182Y-83305050D01*
X162300946Y-83309516D01*
X162351742Y-83357491D01*
X162368536Y-83425312D01*
X162345998Y-83491447D01*
X162300946Y-83530484D01*
X162292182Y-83534949D01*
X162120213Y-83659890D01*
X161969890Y-83810213D01*
X161844951Y-83982179D01*
X161748444Y-84171585D01*
X161682753Y-84373760D01*
X161649500Y-84583713D01*
X161649500Y-84796286D01*
X161682753Y-85006239D01*
X161748444Y-85208414D01*
X161844951Y-85397820D01*
X161969890Y-85569786D01*
X162120213Y-85720109D01*
X162292182Y-85845050D01*
X162300946Y-85849516D01*
X162351742Y-85897491D01*
X162368536Y-85965312D01*
X162345998Y-86031447D01*
X162300946Y-86070484D01*
X162292182Y-86074949D01*
X162120213Y-86199890D01*
X161969890Y-86350213D01*
X161844951Y-86522179D01*
X161748444Y-86711585D01*
X161682753Y-86913760D01*
X161649500Y-87123713D01*
X161649500Y-87336286D01*
X161682753Y-87546239D01*
X161748444Y-87748414D01*
X161844951Y-87937820D01*
X161969890Y-88109786D01*
X162120213Y-88260109D01*
X162292182Y-88385050D01*
X162300946Y-88389516D01*
X162351742Y-88437491D01*
X162368536Y-88505312D01*
X162345998Y-88571447D01*
X162300946Y-88610484D01*
X162292182Y-88614949D01*
X162120213Y-88739890D01*
X161969890Y-88890213D01*
X161844951Y-89062179D01*
X161748444Y-89251585D01*
X161682753Y-89453760D01*
X161664938Y-89566239D01*
X161649500Y-89663713D01*
X161649500Y-89876287D01*
X161682754Y-90086243D01*
X161745745Y-90280109D01*
X161748444Y-90288414D01*
X161844951Y-90477820D01*
X161969890Y-90649786D01*
X162120213Y-90800109D01*
X162292182Y-90925050D01*
X162300946Y-90929516D01*
X162351742Y-90977491D01*
X162368536Y-91045312D01*
X162345998Y-91111447D01*
X162300946Y-91150484D01*
X162292182Y-91154949D01*
X162120213Y-91279890D01*
X161969890Y-91430213D01*
X161844951Y-91602179D01*
X161748444Y-91791585D01*
X161682753Y-91993760D01*
X161649500Y-92203713D01*
X161649500Y-92416286D01*
X161682753Y-92626239D01*
X161748444Y-92828414D01*
X161844951Y-93017820D01*
X161969890Y-93189786D01*
X162120213Y-93340109D01*
X162292182Y-93465050D01*
X162300946Y-93469516D01*
X162351742Y-93517491D01*
X162368536Y-93585312D01*
X162345998Y-93651447D01*
X162300946Y-93690484D01*
X162292182Y-93694949D01*
X162120213Y-93819890D01*
X161969890Y-93970213D01*
X161844951Y-94142179D01*
X161748444Y-94331585D01*
X161682753Y-94533760D01*
X161649500Y-94743713D01*
X161649500Y-94956286D01*
X161682753Y-95166239D01*
X161748444Y-95368414D01*
X161844951Y-95557820D01*
X161969890Y-95729786D01*
X162120213Y-95880109D01*
X162292182Y-96005050D01*
X162300946Y-96009516D01*
X162351742Y-96057491D01*
X162368536Y-96125312D01*
X162345998Y-96191447D01*
X162300946Y-96230484D01*
X162292182Y-96234949D01*
X162120213Y-96359890D01*
X161969890Y-96510213D01*
X161844951Y-96682179D01*
X161748444Y-96871585D01*
X161682753Y-97073760D01*
X161649500Y-97283713D01*
X161649500Y-97496286D01*
X161662575Y-97578842D01*
X161682754Y-97706243D01*
X161710166Y-97790609D01*
X161748444Y-97908414D01*
X161844951Y-98097820D01*
X161969890Y-98269786D01*
X162120213Y-98420109D01*
X162292182Y-98545050D01*
X162300946Y-98549516D01*
X162351742Y-98597491D01*
X162368536Y-98665312D01*
X162345998Y-98731447D01*
X162300946Y-98770484D01*
X162292182Y-98774949D01*
X162120213Y-98899890D01*
X161969890Y-99050213D01*
X161844951Y-99222179D01*
X161748444Y-99411585D01*
X161682753Y-99613760D01*
X161671908Y-99682233D01*
X161649500Y-99823713D01*
X161649500Y-100036287D01*
X161682754Y-100246243D01*
X161739480Y-100420828D01*
X161748444Y-100448414D01*
X161844951Y-100637820D01*
X161969890Y-100809786D01*
X162120213Y-100960109D01*
X162292182Y-101085050D01*
X162300946Y-101089516D01*
X162351742Y-101137491D01*
X162368536Y-101205312D01*
X162345998Y-101271447D01*
X162300946Y-101310484D01*
X162292182Y-101314949D01*
X162120213Y-101439890D01*
X161969890Y-101590213D01*
X161844951Y-101762179D01*
X161748444Y-101951585D01*
X161682753Y-102153760D01*
X161665665Y-102261650D01*
X161649500Y-102363713D01*
X161649500Y-102576287D01*
X161682754Y-102786243D01*
X161737603Y-102955051D01*
X161748444Y-102988414D01*
X161844951Y-103177820D01*
X161969890Y-103349786D01*
X162120213Y-103500109D01*
X162292182Y-103625050D01*
X162300946Y-103629516D01*
X162351742Y-103677491D01*
X162368536Y-103745312D01*
X162345998Y-103811447D01*
X162300946Y-103850484D01*
X162292182Y-103854949D01*
X162120213Y-103979890D01*
X161969890Y-104130213D01*
X161844951Y-104302179D01*
X161748444Y-104491585D01*
X161682753Y-104693760D01*
X161649500Y-104903713D01*
X161649500Y-105116286D01*
X161682753Y-105326239D01*
X161748444Y-105528414D01*
X161844951Y-105717820D01*
X161969890Y-105889786D01*
X162120213Y-106040109D01*
X162292182Y-106165050D01*
X162300946Y-106169516D01*
X162351742Y-106217491D01*
X162368536Y-106285312D01*
X162345998Y-106351447D01*
X162300946Y-106390484D01*
X162292182Y-106394949D01*
X162120213Y-106519890D01*
X161969890Y-106670213D01*
X161844951Y-106842179D01*
X161748444Y-107031585D01*
X161682753Y-107233760D01*
X161649500Y-107443713D01*
X161649500Y-107656286D01*
X161682753Y-107866239D01*
X161748444Y-108068414D01*
X161844951Y-108257820D01*
X161969890Y-108429786D01*
X162120213Y-108580109D01*
X162292182Y-108705050D01*
X162300946Y-108709516D01*
X162351742Y-108757491D01*
X162368536Y-108825312D01*
X162345998Y-108891447D01*
X162300946Y-108930484D01*
X162292182Y-108934949D01*
X162120213Y-109059890D01*
X161969890Y-109210213D01*
X161844951Y-109382179D01*
X161748444Y-109571585D01*
X161682753Y-109773760D01*
X161649500Y-109983713D01*
X161649500Y-110196287D01*
X161682754Y-110406243D01*
X161703436Y-110469896D01*
X161748444Y-110608414D01*
X161844951Y-110797820D01*
X161969890Y-110969786D01*
X162120213Y-111120109D01*
X162292182Y-111245050D01*
X162300946Y-111249516D01*
X162351742Y-111297491D01*
X162368536Y-111365312D01*
X162345998Y-111431447D01*
X162300946Y-111470484D01*
X162292182Y-111474949D01*
X162120213Y-111599890D01*
X161969890Y-111750213D01*
X161844951Y-111922179D01*
X161748444Y-112111585D01*
X161682753Y-112313760D01*
X161672296Y-112379786D01*
X161649500Y-112523713D01*
X161649500Y-112736287D01*
X161682754Y-112946243D01*
X161723846Y-113072712D01*
X161748444Y-113148414D01*
X161844951Y-113337820D01*
X161969890Y-113509786D01*
X162120213Y-113660109D01*
X162292182Y-113785050D01*
X162300946Y-113789516D01*
X162351742Y-113837491D01*
X162368536Y-113905312D01*
X162345998Y-113971447D01*
X162300946Y-114010484D01*
X162292182Y-114014949D01*
X162120213Y-114139890D01*
X161969890Y-114290213D01*
X161844951Y-114462179D01*
X161748444Y-114651585D01*
X161682753Y-114853760D01*
X161649500Y-115063713D01*
X161649500Y-115276286D01*
X161682753Y-115486239D01*
X161748444Y-115688414D01*
X161844951Y-115877820D01*
X161969890Y-116049786D01*
X162120213Y-116200109D01*
X162292182Y-116325050D01*
X162300946Y-116329516D01*
X162351742Y-116377491D01*
X162368536Y-116445312D01*
X162345998Y-116511447D01*
X162300946Y-116550484D01*
X162292182Y-116554949D01*
X162120213Y-116679890D01*
X161969890Y-116830213D01*
X161844951Y-117002179D01*
X161748444Y-117191585D01*
X161682753Y-117393760D01*
X161649500Y-117603713D01*
X161649500Y-117816286D01*
X161675471Y-117980264D01*
X161682754Y-118026243D01*
X161715886Y-118128213D01*
X161748444Y-118228414D01*
X161844951Y-118417820D01*
X161969890Y-118589786D01*
X162120213Y-118740109D01*
X162292182Y-118865050D01*
X162300946Y-118869516D01*
X162351742Y-118917491D01*
X162368536Y-118985312D01*
X162345998Y-119051447D01*
X162300946Y-119090484D01*
X162292182Y-119094949D01*
X162120213Y-119219890D01*
X161969890Y-119370213D01*
X161844951Y-119542179D01*
X161748444Y-119731585D01*
X161682753Y-119933760D01*
X161680546Y-119947696D01*
X161649500Y-120143713D01*
X161649500Y-120356287D01*
X161682754Y-120566243D01*
X161731067Y-120714935D01*
X161748444Y-120768414D01*
X161844951Y-120957820D01*
X161969890Y-121129786D01*
X162120213Y-121280109D01*
X162292182Y-121405050D01*
X162300946Y-121409516D01*
X162351742Y-121457491D01*
X162368536Y-121525312D01*
X162345998Y-121591447D01*
X162300946Y-121630484D01*
X162292182Y-121634949D01*
X162120213Y-121759890D01*
X161969890Y-121910213D01*
X161844951Y-122082179D01*
X161748444Y-122271585D01*
X161682753Y-122473760D01*
X161649500Y-122683713D01*
X161649500Y-122896286D01*
X161682753Y-123106239D01*
X161748444Y-123308414D01*
X161844951Y-123497820D01*
X161969890Y-123669786D01*
X162120213Y-123820109D01*
X162292182Y-123945050D01*
X162300946Y-123949516D01*
X162351742Y-123997491D01*
X162368536Y-124065312D01*
X162345998Y-124131447D01*
X162300946Y-124170484D01*
X162292182Y-124174949D01*
X162120213Y-124299890D01*
X161969890Y-124450213D01*
X161844951Y-124622179D01*
X161748444Y-124811585D01*
X161682753Y-125013760D01*
X161649500Y-125223713D01*
X161649500Y-125436286D01*
X161682753Y-125646239D01*
X161748444Y-125848414D01*
X161844951Y-126037820D01*
X161969890Y-126209786D01*
X162120213Y-126360109D01*
X162292182Y-126485050D01*
X162300946Y-126489516D01*
X162351742Y-126537491D01*
X162368536Y-126605312D01*
X162345998Y-126671447D01*
X162300946Y-126710484D01*
X162292182Y-126714949D01*
X162120213Y-126839890D01*
X161969890Y-126990213D01*
X161844951Y-127162179D01*
X161748444Y-127351585D01*
X161682753Y-127553760D01*
X161649500Y-127763713D01*
X161649500Y-127976286D01*
X161682753Y-128186239D01*
X161748444Y-128388414D01*
X161844951Y-128577820D01*
X161969890Y-128749786D01*
X162120213Y-128900109D01*
X162292179Y-129025048D01*
X162292181Y-129025049D01*
X162292184Y-129025051D01*
X162481588Y-129121557D01*
X162683757Y-129187246D01*
X162893713Y-129220500D01*
X162893714Y-129220500D01*
X163106286Y-129220500D01*
X163106287Y-129220500D01*
X163316243Y-129187246D01*
X163518412Y-129121557D01*
X163707816Y-129025051D01*
X163729789Y-129009086D01*
X163879786Y-128900109D01*
X163879788Y-128900106D01*
X163879792Y-128900104D01*
X164030104Y-128749792D01*
X164030106Y-128749788D01*
X164030109Y-128749786D01*
X164155048Y-128577820D01*
X164155047Y-128577820D01*
X164155051Y-128577816D01*
X164251557Y-128388412D01*
X164317246Y-128186243D01*
X164350500Y-127976287D01*
X164350500Y-127763713D01*
X164317246Y-127553757D01*
X164251557Y-127351588D01*
X164155051Y-127162184D01*
X164155049Y-127162181D01*
X164155048Y-127162179D01*
X164030109Y-126990213D01*
X163879786Y-126839890D01*
X163707820Y-126714951D01*
X163707115Y-126714591D01*
X163699054Y-126710485D01*
X163648259Y-126662512D01*
X163631463Y-126594692D01*
X163653999Y-126528556D01*
X163699054Y-126489515D01*
X163707816Y-126485051D01*
X163729789Y-126469086D01*
X163879786Y-126360109D01*
X163879788Y-126360106D01*
X163879792Y-126360104D01*
X164030104Y-126209792D01*
X164030106Y-126209788D01*
X164030109Y-126209786D01*
X164155048Y-126037820D01*
X164155047Y-126037820D01*
X164155051Y-126037816D01*
X164251557Y-125848412D01*
X164317246Y-125646243D01*
X164350500Y-125436287D01*
X164350500Y-125223713D01*
X164317246Y-125013757D01*
X164251557Y-124811588D01*
X164155051Y-124622184D01*
X164155049Y-124622181D01*
X164155048Y-124622179D01*
X164030109Y-124450213D01*
X163879786Y-124299890D01*
X163707820Y-124174951D01*
X163707115Y-124174591D01*
X163699054Y-124170485D01*
X163648259Y-124122512D01*
X163631463Y-124054692D01*
X163653999Y-123988556D01*
X163699054Y-123949515D01*
X163707816Y-123945051D01*
X163729789Y-123929086D01*
X163879786Y-123820109D01*
X163879788Y-123820106D01*
X163879792Y-123820104D01*
X164030104Y-123669792D01*
X164030106Y-123669788D01*
X164030109Y-123669786D01*
X164155048Y-123497820D01*
X164155047Y-123497820D01*
X164155051Y-123497816D01*
X164251557Y-123308412D01*
X164317246Y-123106243D01*
X164350500Y-122896287D01*
X164350500Y-122683713D01*
X164317246Y-122473757D01*
X164251557Y-122271588D01*
X164155051Y-122082184D01*
X164155049Y-122082181D01*
X164155048Y-122082179D01*
X164030109Y-121910213D01*
X163879786Y-121759890D01*
X163707820Y-121634951D01*
X163707115Y-121634591D01*
X163699054Y-121630485D01*
X163648259Y-121582512D01*
X163631463Y-121514692D01*
X163653999Y-121448556D01*
X163699054Y-121409515D01*
X163707816Y-121405051D01*
X163729789Y-121389086D01*
X163879786Y-121280109D01*
X163879788Y-121280106D01*
X163879792Y-121280104D01*
X164030104Y-121129792D01*
X164030106Y-121129788D01*
X164030109Y-121129786D01*
X164155048Y-120957820D01*
X164155047Y-120957820D01*
X164155051Y-120957816D01*
X164251557Y-120768412D01*
X164317246Y-120566243D01*
X164350500Y-120356287D01*
X164350500Y-120143713D01*
X164317246Y-119933757D01*
X164251557Y-119731588D01*
X164155051Y-119542184D01*
X164155049Y-119542181D01*
X164155048Y-119542179D01*
X164030109Y-119370213D01*
X163879786Y-119219890D01*
X163707820Y-119094951D01*
X163707115Y-119094591D01*
X163699054Y-119090485D01*
X163648259Y-119042512D01*
X163631463Y-118974692D01*
X163653999Y-118908556D01*
X163699054Y-118869515D01*
X163707816Y-118865051D01*
X163757654Y-118828842D01*
X163879786Y-118740109D01*
X163879788Y-118740106D01*
X163879792Y-118740104D01*
X164030104Y-118589792D01*
X164030106Y-118589788D01*
X164030109Y-118589786D01*
X164155048Y-118417820D01*
X164155049Y-118417819D01*
X164155051Y-118417816D01*
X164251557Y-118228412D01*
X164317246Y-118026243D01*
X164350500Y-117816287D01*
X164350500Y-117603713D01*
X164317246Y-117393757D01*
X164251557Y-117191588D01*
X164155051Y-117002184D01*
X164155049Y-117002181D01*
X164155048Y-117002179D01*
X164030109Y-116830213D01*
X163879786Y-116679890D01*
X163707820Y-116554951D01*
X163707115Y-116554591D01*
X163699054Y-116550485D01*
X163648259Y-116502512D01*
X163631463Y-116434692D01*
X163653999Y-116368556D01*
X163699054Y-116329515D01*
X163707816Y-116325051D01*
X163729789Y-116309086D01*
X163879786Y-116200109D01*
X163879788Y-116200106D01*
X163879792Y-116200104D01*
X164030104Y-116049792D01*
X164030106Y-116049788D01*
X164030109Y-116049786D01*
X164155048Y-115877820D01*
X164155047Y-115877820D01*
X164155051Y-115877816D01*
X164251557Y-115688412D01*
X164317246Y-115486243D01*
X164350500Y-115276287D01*
X164350500Y-115063713D01*
X164317246Y-114853757D01*
X164251557Y-114651588D01*
X164155051Y-114462184D01*
X164155049Y-114462181D01*
X164155048Y-114462179D01*
X164030109Y-114290213D01*
X163879786Y-114139890D01*
X163707820Y-114014951D01*
X163707115Y-114014591D01*
X163699054Y-114010485D01*
X163648259Y-113962512D01*
X163631463Y-113894692D01*
X163653999Y-113828556D01*
X163699054Y-113789515D01*
X163707816Y-113785051D01*
X163729789Y-113769086D01*
X163879786Y-113660109D01*
X163879788Y-113660106D01*
X163879792Y-113660104D01*
X164030104Y-113509792D01*
X164030106Y-113509788D01*
X164030109Y-113509786D01*
X164155048Y-113337820D01*
X164155047Y-113337820D01*
X164155051Y-113337816D01*
X164251557Y-113148412D01*
X164317246Y-112946243D01*
X164350500Y-112736287D01*
X164350500Y-112523713D01*
X164317246Y-112313757D01*
X164251557Y-112111588D01*
X164155051Y-111922184D01*
X164155049Y-111922181D01*
X164155048Y-111922179D01*
X164030109Y-111750213D01*
X163879786Y-111599890D01*
X163707820Y-111474951D01*
X163707115Y-111474591D01*
X163699054Y-111470485D01*
X163648259Y-111422512D01*
X163631463Y-111354692D01*
X163653999Y-111288556D01*
X163699054Y-111249515D01*
X163707816Y-111245051D01*
X163729789Y-111229086D01*
X163879786Y-111120109D01*
X163879788Y-111120106D01*
X163879792Y-111120104D01*
X164030104Y-110969792D01*
X164030106Y-110969788D01*
X164030109Y-110969786D01*
X164155048Y-110797820D01*
X164155047Y-110797820D01*
X164155051Y-110797816D01*
X164251557Y-110608412D01*
X164317246Y-110406243D01*
X164350500Y-110196287D01*
X164350500Y-109983713D01*
X164317246Y-109773757D01*
X164251557Y-109571588D01*
X164155051Y-109382184D01*
X164155049Y-109382181D01*
X164155048Y-109382179D01*
X164030109Y-109210213D01*
X163879786Y-109059890D01*
X163707820Y-108934951D01*
X163707115Y-108934591D01*
X163699054Y-108930485D01*
X163648259Y-108882512D01*
X163631463Y-108814692D01*
X163653999Y-108748556D01*
X163699054Y-108709515D01*
X163707816Y-108705051D01*
X163729789Y-108689086D01*
X163879786Y-108580109D01*
X163879788Y-108580106D01*
X163879792Y-108580104D01*
X164030104Y-108429792D01*
X164030106Y-108429788D01*
X164030109Y-108429786D01*
X164155048Y-108257820D01*
X164155047Y-108257820D01*
X164155051Y-108257816D01*
X164251557Y-108068412D01*
X164317246Y-107866243D01*
X164350500Y-107656287D01*
X164350500Y-107443713D01*
X164317246Y-107233757D01*
X164251557Y-107031588D01*
X164155051Y-106842184D01*
X164155049Y-106842181D01*
X164155048Y-106842179D01*
X164030109Y-106670213D01*
X163879786Y-106519890D01*
X163707820Y-106394951D01*
X163707115Y-106394591D01*
X163699054Y-106390485D01*
X163648259Y-106342512D01*
X163631463Y-106274692D01*
X163653999Y-106208556D01*
X163699054Y-106169515D01*
X163707816Y-106165051D01*
X163729789Y-106149086D01*
X163879786Y-106040109D01*
X163879788Y-106040106D01*
X163879792Y-106040104D01*
X164030104Y-105889792D01*
X164030106Y-105889788D01*
X164030109Y-105889786D01*
X164155048Y-105717820D01*
X164155047Y-105717820D01*
X164155051Y-105717816D01*
X164251557Y-105528412D01*
X164317246Y-105326243D01*
X164350500Y-105116287D01*
X164350500Y-104903713D01*
X164317246Y-104693757D01*
X164251557Y-104491588D01*
X164155051Y-104302184D01*
X164155049Y-104302181D01*
X164155048Y-104302179D01*
X164030109Y-104130213D01*
X163879786Y-103979890D01*
X163707820Y-103854951D01*
X163707115Y-103854591D01*
X163699054Y-103850485D01*
X163648259Y-103802512D01*
X163631463Y-103734692D01*
X163653999Y-103668556D01*
X163699054Y-103629515D01*
X163707816Y-103625051D01*
X163729789Y-103609086D01*
X163879786Y-103500109D01*
X163879788Y-103500106D01*
X163879792Y-103500104D01*
X164030104Y-103349792D01*
X164030106Y-103349788D01*
X164030109Y-103349786D01*
X164155048Y-103177820D01*
X164155047Y-103177820D01*
X164155051Y-103177816D01*
X164251557Y-102988412D01*
X164317246Y-102786243D01*
X164350500Y-102576287D01*
X164350500Y-102363713D01*
X164317246Y-102153757D01*
X164251557Y-101951588D01*
X164155051Y-101762184D01*
X164155049Y-101762181D01*
X164155048Y-101762179D01*
X164030109Y-101590213D01*
X163879786Y-101439890D01*
X163707820Y-101314951D01*
X163707115Y-101314591D01*
X163699054Y-101310485D01*
X163648259Y-101262512D01*
X163631463Y-101194692D01*
X163653999Y-101128556D01*
X163699054Y-101089515D01*
X163707816Y-101085051D01*
X163778769Y-101033501D01*
X163879786Y-100960109D01*
X163879788Y-100960106D01*
X163879792Y-100960104D01*
X164030104Y-100809792D01*
X164030106Y-100809788D01*
X164030109Y-100809786D01*
X164155048Y-100637820D01*
X164155047Y-100637820D01*
X164155051Y-100637816D01*
X164251557Y-100448412D01*
X164317246Y-100246243D01*
X164350500Y-100036287D01*
X164350500Y-99823713D01*
X164317246Y-99613757D01*
X164251557Y-99411588D01*
X164155051Y-99222184D01*
X164155049Y-99222181D01*
X164155048Y-99222179D01*
X164030109Y-99050213D01*
X163879786Y-98899890D01*
X163707820Y-98774951D01*
X163707115Y-98774591D01*
X163699054Y-98770485D01*
X163648259Y-98722512D01*
X163631463Y-98654692D01*
X163653999Y-98588556D01*
X163699054Y-98549515D01*
X163707816Y-98545051D01*
X163729789Y-98529086D01*
X163879786Y-98420109D01*
X163879788Y-98420106D01*
X163879792Y-98420104D01*
X164030104Y-98269792D01*
X164030106Y-98269788D01*
X164030109Y-98269786D01*
X164155048Y-98097820D01*
X164155047Y-98097820D01*
X164155051Y-98097816D01*
X164251557Y-97908412D01*
X164317246Y-97706243D01*
X164350500Y-97496287D01*
X164350500Y-97283713D01*
X164317246Y-97073757D01*
X164251557Y-96871588D01*
X164155051Y-96682184D01*
X164155049Y-96682181D01*
X164155048Y-96682179D01*
X164030109Y-96510213D01*
X163879786Y-96359890D01*
X163707820Y-96234951D01*
X163707115Y-96234591D01*
X163699054Y-96230485D01*
X163648259Y-96182512D01*
X163631463Y-96114692D01*
X163653999Y-96048556D01*
X163699054Y-96009515D01*
X163707816Y-96005051D01*
X163767553Y-95961650D01*
X163879786Y-95880109D01*
X163879788Y-95880106D01*
X163879792Y-95880104D01*
X164030104Y-95729792D01*
X164030106Y-95729788D01*
X164030109Y-95729786D01*
X164155048Y-95557820D01*
X164155047Y-95557820D01*
X164155051Y-95557816D01*
X164251557Y-95368412D01*
X164317246Y-95166243D01*
X164350500Y-94956287D01*
X164350500Y-94743713D01*
X164317246Y-94533757D01*
X164251557Y-94331588D01*
X164155051Y-94142184D01*
X164155049Y-94142181D01*
X164155048Y-94142179D01*
X164030109Y-93970213D01*
X163879786Y-93819890D01*
X163707820Y-93694951D01*
X163707115Y-93694591D01*
X163699054Y-93690485D01*
X163648259Y-93642512D01*
X163631463Y-93574692D01*
X163653999Y-93508556D01*
X163699054Y-93469515D01*
X163707816Y-93465051D01*
X163729789Y-93449086D01*
X163879786Y-93340109D01*
X163879788Y-93340106D01*
X163879792Y-93340104D01*
X164030104Y-93189792D01*
X164030106Y-93189788D01*
X164030109Y-93189786D01*
X164155048Y-93017820D01*
X164155047Y-93017820D01*
X164155051Y-93017816D01*
X164251557Y-92828412D01*
X164317246Y-92626243D01*
X164350500Y-92416287D01*
X164350500Y-92203713D01*
X164317246Y-91993757D01*
X164251557Y-91791588D01*
X164155051Y-91602184D01*
X164155049Y-91602181D01*
X164155048Y-91602179D01*
X164030109Y-91430213D01*
X163879786Y-91279890D01*
X163707820Y-91154951D01*
X163707115Y-91154591D01*
X163699054Y-91150485D01*
X163648259Y-91102512D01*
X163631463Y-91034692D01*
X163653999Y-90968556D01*
X163699054Y-90929515D01*
X163707816Y-90925051D01*
X163729789Y-90909086D01*
X163879786Y-90800109D01*
X163879788Y-90800106D01*
X163879792Y-90800104D01*
X164030104Y-90649792D01*
X164030106Y-90649788D01*
X164030109Y-90649786D01*
X164155048Y-90477820D01*
X164155047Y-90477820D01*
X164155051Y-90477816D01*
X164251557Y-90288412D01*
X164317246Y-90086243D01*
X164350500Y-89876287D01*
X164350500Y-89663713D01*
X164317246Y-89453757D01*
X164251557Y-89251588D01*
X164155051Y-89062184D01*
X164155049Y-89062181D01*
X164155048Y-89062179D01*
X164030109Y-88890213D01*
X163879786Y-88739890D01*
X163707820Y-88614951D01*
X163707115Y-88614591D01*
X163699054Y-88610485D01*
X163648259Y-88562512D01*
X163631463Y-88494692D01*
X163653999Y-88428556D01*
X163699054Y-88389515D01*
X163707816Y-88385051D01*
X163729789Y-88369086D01*
X163879786Y-88260109D01*
X163879788Y-88260106D01*
X163879792Y-88260104D01*
X164030104Y-88109792D01*
X164030106Y-88109788D01*
X164030109Y-88109786D01*
X164155048Y-87937820D01*
X164155047Y-87937820D01*
X164155051Y-87937816D01*
X164251557Y-87748412D01*
X164317246Y-87546243D01*
X164350500Y-87336287D01*
X164350500Y-87123713D01*
X164317246Y-86913757D01*
X164251557Y-86711588D01*
X164155051Y-86522184D01*
X164155049Y-86522181D01*
X164155048Y-86522179D01*
X164030109Y-86350213D01*
X163879786Y-86199890D01*
X163707820Y-86074951D01*
X163707115Y-86074591D01*
X163699054Y-86070485D01*
X163648259Y-86022512D01*
X163631463Y-85954692D01*
X163653999Y-85888556D01*
X163699054Y-85849515D01*
X163707816Y-85845051D01*
X163729789Y-85829086D01*
X163879786Y-85720109D01*
X163879788Y-85720106D01*
X163879792Y-85720104D01*
X164030104Y-85569792D01*
X164030106Y-85569788D01*
X164030109Y-85569786D01*
X164155048Y-85397820D01*
X164155047Y-85397820D01*
X164155051Y-85397816D01*
X164251557Y-85208412D01*
X164317246Y-85006243D01*
X164350500Y-84796287D01*
X164350500Y-84583713D01*
X164317246Y-84373757D01*
X164251557Y-84171588D01*
X164155051Y-83982184D01*
X164155049Y-83982181D01*
X164155048Y-83982179D01*
X164030109Y-83810213D01*
X163879786Y-83659890D01*
X163707820Y-83534951D01*
X163707115Y-83534591D01*
X163699054Y-83530485D01*
X163648259Y-83482512D01*
X163631463Y-83414692D01*
X163653999Y-83348556D01*
X163699054Y-83309515D01*
X163707816Y-83305051D01*
X163729789Y-83289086D01*
X163879786Y-83180109D01*
X163879788Y-83180106D01*
X163879792Y-83180104D01*
X164030104Y-83029792D01*
X164030106Y-83029788D01*
X164030109Y-83029786D01*
X164155048Y-82857820D01*
X164155047Y-82857820D01*
X164155051Y-82857816D01*
X164251557Y-82668412D01*
X164317246Y-82466243D01*
X164350500Y-82256287D01*
X164350500Y-82043713D01*
X164317246Y-81833757D01*
X164251557Y-81631588D01*
X164155051Y-81442184D01*
X164155049Y-81442181D01*
X164155048Y-81442179D01*
X164030109Y-81270213D01*
X163879786Y-81119890D01*
X163707820Y-80994951D01*
X163707115Y-80994591D01*
X163699054Y-80990485D01*
X163648259Y-80942512D01*
X163631463Y-80874692D01*
X163653999Y-80808556D01*
X163699054Y-80769515D01*
X163707816Y-80765051D01*
X163729789Y-80749086D01*
X163879786Y-80640109D01*
X163879788Y-80640106D01*
X163879792Y-80640104D01*
X164030104Y-80489792D01*
X164030106Y-80489788D01*
X164030109Y-80489786D01*
X164155048Y-80317820D01*
X164155047Y-80317820D01*
X164155051Y-80317816D01*
X164251557Y-80128412D01*
X164317246Y-79926243D01*
X164350500Y-79716287D01*
X164350500Y-79503713D01*
X164317246Y-79293757D01*
X164251557Y-79091588D01*
X164155051Y-78902184D01*
X164155049Y-78902181D01*
X164155048Y-78902179D01*
X164030109Y-78730213D01*
X163879786Y-78579890D01*
X163707820Y-78454951D01*
X163707115Y-78454591D01*
X163699054Y-78450485D01*
X163648259Y-78402512D01*
X163631463Y-78334692D01*
X163653999Y-78268556D01*
X163699054Y-78229515D01*
X163707816Y-78225051D01*
X163729789Y-78209086D01*
X163879786Y-78100109D01*
X163879788Y-78100106D01*
X163879792Y-78100104D01*
X164030104Y-77949792D01*
X164030106Y-77949788D01*
X164030109Y-77949786D01*
X164155048Y-77777820D01*
X164155047Y-77777820D01*
X164155051Y-77777816D01*
X164251557Y-77588412D01*
X164317246Y-77386243D01*
X164350500Y-77176287D01*
X164350500Y-76963713D01*
X164317246Y-76753757D01*
X164251557Y-76551588D01*
X164155051Y-76362184D01*
X164155049Y-76362181D01*
X164155048Y-76362179D01*
X164030109Y-76190213D01*
X163879786Y-76039890D01*
X163707820Y-75914951D01*
X163707115Y-75914591D01*
X163699054Y-75910485D01*
X163648259Y-75862512D01*
X163631463Y-75794692D01*
X163653999Y-75728556D01*
X163699054Y-75689515D01*
X163707816Y-75685051D01*
X163866239Y-75569951D01*
X163879786Y-75560109D01*
X163879788Y-75560106D01*
X163879792Y-75560104D01*
X164030104Y-75409792D01*
X164030106Y-75409788D01*
X164030109Y-75409786D01*
X164155048Y-75237820D01*
X164155047Y-75237820D01*
X164155051Y-75237816D01*
X164251557Y-75048412D01*
X164317246Y-74846243D01*
X164350500Y-74636287D01*
X164350500Y-74423713D01*
X164317246Y-74213757D01*
X164251557Y-74011588D01*
X164155051Y-73822184D01*
X164155049Y-73822181D01*
X164155048Y-73822179D01*
X164030109Y-73650213D01*
X163879786Y-73499890D01*
X163707820Y-73374951D01*
X163707115Y-73374591D01*
X163699054Y-73370485D01*
X163648259Y-73322512D01*
X163631463Y-73254692D01*
X163653999Y-73188556D01*
X163699054Y-73149515D01*
X163707816Y-73145051D01*
X163729789Y-73129086D01*
X163879786Y-73020109D01*
X163879788Y-73020106D01*
X163879792Y-73020104D01*
X164030104Y-72869792D01*
X164030106Y-72869788D01*
X164030109Y-72869786D01*
X164155048Y-72697820D01*
X164155047Y-72697820D01*
X164155051Y-72697816D01*
X164251557Y-72508412D01*
X164317246Y-72306243D01*
X164350500Y-72096287D01*
X164350500Y-71883713D01*
X164317246Y-71673757D01*
X164251557Y-71471588D01*
X164155051Y-71282184D01*
X164155049Y-71282181D01*
X164155048Y-71282179D01*
X164030109Y-71110213D01*
X163916569Y-70996673D01*
X163883084Y-70935350D01*
X163888068Y-70865658D01*
X163929940Y-70809725D01*
X163960915Y-70792810D01*
X164092331Y-70743796D01*
X164207546Y-70657546D01*
X164293796Y-70542331D01*
X164344091Y-70407483D01*
X164350500Y-70347873D01*
X164350499Y-68552128D01*
X164344091Y-68492517D01*
X164293796Y-68357669D01*
X164293795Y-68357668D01*
X164293793Y-68357664D01*
X164207547Y-68242455D01*
X164207544Y-68242452D01*
X164092335Y-68156206D01*
X164092328Y-68156202D01*
X163957482Y-68105908D01*
X163957483Y-68105908D01*
X163897883Y-68099501D01*
X163897881Y-68099500D01*
X163897873Y-68099500D01*
X163897864Y-68099500D01*
X162102129Y-68099500D01*
X162102123Y-68099501D01*
X162042516Y-68105908D01*
X161907671Y-68156202D01*
X161907664Y-68156206D01*
X161792455Y-68242452D01*
X161792452Y-68242455D01*
X161706206Y-68357664D01*
X161706202Y-68357671D01*
X161655908Y-68492517D01*
X161649501Y-68552116D01*
X161649501Y-68552123D01*
X161649500Y-68552135D01*
X129350499Y-68552135D01*
X129350499Y-68552128D01*
X129344091Y-68492517D01*
X129293796Y-68357669D01*
X129293795Y-68357668D01*
X129293793Y-68357664D01*
X129207547Y-68242455D01*
X129207544Y-68242452D01*
X129092335Y-68156206D01*
X129092328Y-68156202D01*
X128957482Y-68105908D01*
X128957483Y-68105908D01*
X128897883Y-68099501D01*
X128897881Y-68099500D01*
X128897873Y-68099500D01*
X128897864Y-68099500D01*
X127102129Y-68099500D01*
X127102123Y-68099501D01*
X127042516Y-68105908D01*
X126907671Y-68156202D01*
X126907664Y-68156206D01*
X126792455Y-68242452D01*
X126792452Y-68242455D01*
X126706206Y-68357664D01*
X126706202Y-68357671D01*
X126655908Y-68492517D01*
X126649501Y-68552116D01*
X126649501Y-68552123D01*
X126649500Y-68552135D01*
X126000500Y-68552135D01*
X126000500Y-66574500D01*
X126020185Y-66507461D01*
X126072989Y-66461706D01*
X126124500Y-66450500D01*
X164875500Y-66450500D01*
X164942539Y-66470185D01*
G37*
%TD.AperFunction*%
%TD*%
M02*
