%TF.GenerationSoftware,KiCad,Pcbnew,9.0.6*%
%TF.CreationDate,2026-04-16T11:51:10-04:00*%
%TF.ProjectId,OUTPUTs,4f555450-5554-4732-9e6b-696361645f70,rev?*%
%TF.SameCoordinates,Original*%
%TF.FileFunction,Legend,Bot*%
%TF.FilePolarity,Positive*%
%FSLAX46Y46*%
G04 Gerber Fmt 4.6, Leading zero omitted, Abs format (unit mm)*
G04 Created by KiCad (PCBNEW 9.0.6) date 2026-04-16 11:51:10*
%MOMM*%
%LPD*%
G01*
G04 APERTURE LIST*
%ADD10C,0.200000*%
G04 APERTURE END LIST*
D10*
X132956754Y-69095219D02*
X132337707Y-69095219D01*
X132337707Y-69095219D02*
X132671040Y-69476171D01*
X132671040Y-69476171D02*
X132528183Y-69476171D01*
X132528183Y-69476171D02*
X132432945Y-69523790D01*
X132432945Y-69523790D02*
X132385326Y-69571409D01*
X132385326Y-69571409D02*
X132337707Y-69666647D01*
X132337707Y-69666647D02*
X132337707Y-69904742D01*
X132337707Y-69904742D02*
X132385326Y-69999980D01*
X132385326Y-69999980D02*
X132432945Y-70047600D01*
X132432945Y-70047600D02*
X132528183Y-70095219D01*
X132528183Y-70095219D02*
X132813897Y-70095219D01*
X132813897Y-70095219D02*
X132909135Y-70047600D01*
X132909135Y-70047600D02*
X132956754Y-69999980D01*
X131909135Y-69999980D02*
X131861516Y-70047600D01*
X131861516Y-70047600D02*
X131909135Y-70095219D01*
X131909135Y-70095219D02*
X131956754Y-70047600D01*
X131956754Y-70047600D02*
X131909135Y-69999980D01*
X131909135Y-69999980D02*
X131909135Y-70095219D01*
X131528183Y-69095219D02*
X130909136Y-69095219D01*
X130909136Y-69095219D02*
X131242469Y-69476171D01*
X131242469Y-69476171D02*
X131099612Y-69476171D01*
X131099612Y-69476171D02*
X131004374Y-69523790D01*
X131004374Y-69523790D02*
X130956755Y-69571409D01*
X130956755Y-69571409D02*
X130909136Y-69666647D01*
X130909136Y-69666647D02*
X130909136Y-69904742D01*
X130909136Y-69904742D02*
X130956755Y-69999980D01*
X130956755Y-69999980D02*
X131004374Y-70047600D01*
X131004374Y-70047600D02*
X131099612Y-70095219D01*
X131099612Y-70095219D02*
X131385326Y-70095219D01*
X131385326Y-70095219D02*
X131480564Y-70047600D01*
X131480564Y-70047600D02*
X131528183Y-69999980D01*
X130623421Y-69095219D02*
X130290088Y-70095219D01*
X130290088Y-70095219D02*
X129956755Y-69095219D01*
X150689850Y-124847331D02*
X150499374Y-124847331D01*
X150499374Y-124847331D02*
X150404136Y-124894950D01*
X150404136Y-124894950D02*
X150308898Y-124990188D01*
X150308898Y-124990188D02*
X150261279Y-125180664D01*
X150261279Y-125180664D02*
X150261279Y-125513997D01*
X150261279Y-125513997D02*
X150308898Y-125704473D01*
X150308898Y-125704473D02*
X150404136Y-125799712D01*
X150404136Y-125799712D02*
X150499374Y-125847331D01*
X150499374Y-125847331D02*
X150689850Y-125847331D01*
X150689850Y-125847331D02*
X150785088Y-125799712D01*
X150785088Y-125799712D02*
X150880326Y-125704473D01*
X150880326Y-125704473D02*
X150927945Y-125513997D01*
X150927945Y-125513997D02*
X150927945Y-125180664D01*
X150927945Y-125180664D02*
X150880326Y-124990188D01*
X150880326Y-124990188D02*
X150785088Y-124894950D01*
X150785088Y-124894950D02*
X150689850Y-124847331D01*
X149832707Y-124847331D02*
X149832707Y-125656854D01*
X149832707Y-125656854D02*
X149785088Y-125752092D01*
X149785088Y-125752092D02*
X149737469Y-125799712D01*
X149737469Y-125799712D02*
X149642231Y-125847331D01*
X149642231Y-125847331D02*
X149451755Y-125847331D01*
X149451755Y-125847331D02*
X149356517Y-125799712D01*
X149356517Y-125799712D02*
X149308898Y-125752092D01*
X149308898Y-125752092D02*
X149261279Y-125656854D01*
X149261279Y-125656854D02*
X149261279Y-124847331D01*
X148927945Y-124847331D02*
X148356517Y-124847331D01*
X148642231Y-125847331D02*
X148642231Y-124847331D01*
X148023183Y-125847331D02*
X148023183Y-124847331D01*
X148023183Y-124847331D02*
X147642231Y-124847331D01*
X147642231Y-124847331D02*
X147546993Y-124894950D01*
X147546993Y-124894950D02*
X147499374Y-124942569D01*
X147499374Y-124942569D02*
X147451755Y-125037807D01*
X147451755Y-125037807D02*
X147451755Y-125180664D01*
X147451755Y-125180664D02*
X147499374Y-125275902D01*
X147499374Y-125275902D02*
X147546993Y-125323521D01*
X147546993Y-125323521D02*
X147642231Y-125371140D01*
X147642231Y-125371140D02*
X148023183Y-125371140D01*
X147023183Y-124847331D02*
X147023183Y-125656854D01*
X147023183Y-125656854D02*
X146975564Y-125752092D01*
X146975564Y-125752092D02*
X146927945Y-125799712D01*
X146927945Y-125799712D02*
X146832707Y-125847331D01*
X146832707Y-125847331D02*
X146642231Y-125847331D01*
X146642231Y-125847331D02*
X146546993Y-125799712D01*
X146546993Y-125799712D02*
X146499374Y-125752092D01*
X146499374Y-125752092D02*
X146451755Y-125656854D01*
X146451755Y-125656854D02*
X146451755Y-124847331D01*
X146118421Y-124847331D02*
X145546993Y-124847331D01*
X145832707Y-125847331D02*
X145832707Y-124847331D01*
X145261278Y-125799712D02*
X145166040Y-125847331D01*
X145166040Y-125847331D02*
X144975564Y-125847331D01*
X144975564Y-125847331D02*
X144880326Y-125799712D01*
X144880326Y-125799712D02*
X144832707Y-125704473D01*
X144832707Y-125704473D02*
X144832707Y-125656854D01*
X144832707Y-125656854D02*
X144880326Y-125561616D01*
X144880326Y-125561616D02*
X144975564Y-125513997D01*
X144975564Y-125513997D02*
X145118421Y-125513997D01*
X145118421Y-125513997D02*
X145213659Y-125466378D01*
X145213659Y-125466378D02*
X145261278Y-125371140D01*
X145261278Y-125371140D02*
X145261278Y-125323521D01*
X145261278Y-125323521D02*
X145213659Y-125228283D01*
X145213659Y-125228283D02*
X145118421Y-125180664D01*
X145118421Y-125180664D02*
X144975564Y-125180664D01*
X144975564Y-125180664D02*
X144880326Y-125228283D01*
X143308897Y-125323521D02*
X143166040Y-125371140D01*
X143166040Y-125371140D02*
X143118421Y-125418759D01*
X143118421Y-125418759D02*
X143070802Y-125513997D01*
X143070802Y-125513997D02*
X143070802Y-125656854D01*
X143070802Y-125656854D02*
X143118421Y-125752092D01*
X143118421Y-125752092D02*
X143166040Y-125799712D01*
X143166040Y-125799712D02*
X143261278Y-125847331D01*
X143261278Y-125847331D02*
X143642230Y-125847331D01*
X143642230Y-125847331D02*
X143642230Y-124847331D01*
X143642230Y-124847331D02*
X143308897Y-124847331D01*
X143308897Y-124847331D02*
X143213659Y-124894950D01*
X143213659Y-124894950D02*
X143166040Y-124942569D01*
X143166040Y-124942569D02*
X143118421Y-125037807D01*
X143118421Y-125037807D02*
X143118421Y-125133045D01*
X143118421Y-125133045D02*
X143166040Y-125228283D01*
X143166040Y-125228283D02*
X143213659Y-125275902D01*
X143213659Y-125275902D02*
X143308897Y-125323521D01*
X143308897Y-125323521D02*
X143642230Y-125323521D01*
X142451754Y-124847331D02*
X142261278Y-124847331D01*
X142261278Y-124847331D02*
X142166040Y-124894950D01*
X142166040Y-124894950D02*
X142070802Y-124990188D01*
X142070802Y-124990188D02*
X142023183Y-125180664D01*
X142023183Y-125180664D02*
X142023183Y-125513997D01*
X142023183Y-125513997D02*
X142070802Y-125704473D01*
X142070802Y-125704473D02*
X142166040Y-125799712D01*
X142166040Y-125799712D02*
X142261278Y-125847331D01*
X142261278Y-125847331D02*
X142451754Y-125847331D01*
X142451754Y-125847331D02*
X142546992Y-125799712D01*
X142546992Y-125799712D02*
X142642230Y-125704473D01*
X142642230Y-125704473D02*
X142689849Y-125513997D01*
X142689849Y-125513997D02*
X142689849Y-125180664D01*
X142689849Y-125180664D02*
X142642230Y-124990188D01*
X142642230Y-124990188D02*
X142546992Y-124894950D01*
X142546992Y-124894950D02*
X142451754Y-124847331D01*
X141642230Y-125561616D02*
X141166040Y-125561616D01*
X141737468Y-125847331D02*
X141404135Y-124847331D01*
X141404135Y-124847331D02*
X141070802Y-125847331D01*
X140166040Y-125847331D02*
X140499373Y-125371140D01*
X140737468Y-125847331D02*
X140737468Y-124847331D01*
X140737468Y-124847331D02*
X140356516Y-124847331D01*
X140356516Y-124847331D02*
X140261278Y-124894950D01*
X140261278Y-124894950D02*
X140213659Y-124942569D01*
X140213659Y-124942569D02*
X140166040Y-125037807D01*
X140166040Y-125037807D02*
X140166040Y-125180664D01*
X140166040Y-125180664D02*
X140213659Y-125275902D01*
X140213659Y-125275902D02*
X140261278Y-125323521D01*
X140261278Y-125323521D02*
X140356516Y-125371140D01*
X140356516Y-125371140D02*
X140737468Y-125371140D01*
X139737468Y-125847331D02*
X139737468Y-124847331D01*
X139737468Y-124847331D02*
X139499373Y-124847331D01*
X139499373Y-124847331D02*
X139356516Y-124894950D01*
X139356516Y-124894950D02*
X139261278Y-124990188D01*
X139261278Y-124990188D02*
X139213659Y-125085426D01*
X139213659Y-125085426D02*
X139166040Y-125275902D01*
X139166040Y-125275902D02*
X139166040Y-125418759D01*
X139166040Y-125418759D02*
X139213659Y-125609235D01*
X139213659Y-125609235D02*
X139261278Y-125704473D01*
X139261278Y-125704473D02*
X139356516Y-125799712D01*
X139356516Y-125799712D02*
X139499373Y-125847331D01*
X139499373Y-125847331D02*
X139737468Y-125847331D01*
X150308898Y-127457275D02*
X150642231Y-126981084D01*
X150880326Y-127457275D02*
X150880326Y-126457275D01*
X150880326Y-126457275D02*
X150499374Y-126457275D01*
X150499374Y-126457275D02*
X150404136Y-126504894D01*
X150404136Y-126504894D02*
X150356517Y-126552513D01*
X150356517Y-126552513D02*
X150308898Y-126647751D01*
X150308898Y-126647751D02*
X150308898Y-126790608D01*
X150308898Y-126790608D02*
X150356517Y-126885846D01*
X150356517Y-126885846D02*
X150404136Y-126933465D01*
X150404136Y-126933465D02*
X150499374Y-126981084D01*
X150499374Y-126981084D02*
X150880326Y-126981084D01*
X149880326Y-126933465D02*
X149546993Y-126933465D01*
X149404136Y-127457275D02*
X149880326Y-127457275D01*
X149880326Y-127457275D02*
X149880326Y-126457275D01*
X149880326Y-126457275D02*
X149404136Y-126457275D01*
X149118421Y-126457275D02*
X148785088Y-127457275D01*
X148785088Y-127457275D02*
X148451755Y-126457275D01*
X147594612Y-127457275D02*
X148166040Y-127457275D01*
X147880326Y-127457275D02*
X147880326Y-126457275D01*
X147880326Y-126457275D02*
X147975564Y-126600132D01*
X147975564Y-126600132D02*
X148070802Y-126695370D01*
X148070802Y-126695370D02*
X148166040Y-126742989D01*
X147166040Y-127362036D02*
X147118421Y-127409656D01*
X147118421Y-127409656D02*
X147166040Y-127457275D01*
X147166040Y-127457275D02*
X147213659Y-127409656D01*
X147213659Y-127409656D02*
X147166040Y-127362036D01*
X147166040Y-127362036D02*
X147166040Y-127457275D01*
X146166041Y-127457275D02*
X146737469Y-127457275D01*
X146451755Y-127457275D02*
X146451755Y-126457275D01*
X146451755Y-126457275D02*
X146546993Y-126600132D01*
X146546993Y-126600132D02*
X146642231Y-126695370D01*
X146642231Y-126695370D02*
X146737469Y-126742989D01*
X144785088Y-126457275D02*
X144689850Y-126457275D01*
X144689850Y-126457275D02*
X144594612Y-126504894D01*
X144594612Y-126504894D02*
X144546993Y-126552513D01*
X144546993Y-126552513D02*
X144499374Y-126647751D01*
X144499374Y-126647751D02*
X144451755Y-126838227D01*
X144451755Y-126838227D02*
X144451755Y-127076322D01*
X144451755Y-127076322D02*
X144499374Y-127266798D01*
X144499374Y-127266798D02*
X144546993Y-127362036D01*
X144546993Y-127362036D02*
X144594612Y-127409656D01*
X144594612Y-127409656D02*
X144689850Y-127457275D01*
X144689850Y-127457275D02*
X144785088Y-127457275D01*
X144785088Y-127457275D02*
X144880326Y-127409656D01*
X144880326Y-127409656D02*
X144927945Y-127362036D01*
X144927945Y-127362036D02*
X144975564Y-127266798D01*
X144975564Y-127266798D02*
X145023183Y-127076322D01*
X145023183Y-127076322D02*
X145023183Y-126838227D01*
X145023183Y-126838227D02*
X144975564Y-126647751D01*
X144975564Y-126647751D02*
X144927945Y-126552513D01*
X144927945Y-126552513D02*
X144880326Y-126504894D01*
X144880326Y-126504894D02*
X144785088Y-126457275D01*
X143594612Y-126790608D02*
X143594612Y-127457275D01*
X143832707Y-126409656D02*
X144070802Y-127123941D01*
X144070802Y-127123941D02*
X143451755Y-127123941D01*
X142356517Y-126409656D02*
X143213659Y-127695370D01*
X142070802Y-126552513D02*
X142023183Y-126504894D01*
X142023183Y-126504894D02*
X141927945Y-126457275D01*
X141927945Y-126457275D02*
X141689850Y-126457275D01*
X141689850Y-126457275D02*
X141594612Y-126504894D01*
X141594612Y-126504894D02*
X141546993Y-126552513D01*
X141546993Y-126552513D02*
X141499374Y-126647751D01*
X141499374Y-126647751D02*
X141499374Y-126742989D01*
X141499374Y-126742989D02*
X141546993Y-126885846D01*
X141546993Y-126885846D02*
X142118421Y-127457275D01*
X142118421Y-127457275D02*
X141499374Y-127457275D01*
X140880326Y-126457275D02*
X140785088Y-126457275D01*
X140785088Y-126457275D02*
X140689850Y-126504894D01*
X140689850Y-126504894D02*
X140642231Y-126552513D01*
X140642231Y-126552513D02*
X140594612Y-126647751D01*
X140594612Y-126647751D02*
X140546993Y-126838227D01*
X140546993Y-126838227D02*
X140546993Y-127076322D01*
X140546993Y-127076322D02*
X140594612Y-127266798D01*
X140594612Y-127266798D02*
X140642231Y-127362036D01*
X140642231Y-127362036D02*
X140689850Y-127409656D01*
X140689850Y-127409656D02*
X140785088Y-127457275D01*
X140785088Y-127457275D02*
X140880326Y-127457275D01*
X140880326Y-127457275D02*
X140975564Y-127409656D01*
X140975564Y-127409656D02*
X141023183Y-127362036D01*
X141023183Y-127362036D02*
X141070802Y-127266798D01*
X141070802Y-127266798D02*
X141118421Y-127076322D01*
X141118421Y-127076322D02*
X141118421Y-126838227D01*
X141118421Y-126838227D02*
X141070802Y-126647751D01*
X141070802Y-126647751D02*
X141023183Y-126552513D01*
X141023183Y-126552513D02*
X140975564Y-126504894D01*
X140975564Y-126504894D02*
X140880326Y-126457275D01*
X140166040Y-126552513D02*
X140118421Y-126504894D01*
X140118421Y-126504894D02*
X140023183Y-126457275D01*
X140023183Y-126457275D02*
X139785088Y-126457275D01*
X139785088Y-126457275D02*
X139689850Y-126504894D01*
X139689850Y-126504894D02*
X139642231Y-126552513D01*
X139642231Y-126552513D02*
X139594612Y-126647751D01*
X139594612Y-126647751D02*
X139594612Y-126742989D01*
X139594612Y-126742989D02*
X139642231Y-126885846D01*
X139642231Y-126885846D02*
X140213659Y-127457275D01*
X140213659Y-127457275D02*
X139594612Y-127457275D01*
X138737469Y-126457275D02*
X138927945Y-126457275D01*
X138927945Y-126457275D02*
X139023183Y-126504894D01*
X139023183Y-126504894D02*
X139070802Y-126552513D01*
X139070802Y-126552513D02*
X139166040Y-126695370D01*
X139166040Y-126695370D02*
X139213659Y-126885846D01*
X139213659Y-126885846D02*
X139213659Y-127266798D01*
X139213659Y-127266798D02*
X139166040Y-127362036D01*
X139166040Y-127362036D02*
X139118421Y-127409656D01*
X139118421Y-127409656D02*
X139023183Y-127457275D01*
X139023183Y-127457275D02*
X138832707Y-127457275D01*
X138832707Y-127457275D02*
X138737469Y-127409656D01*
X138737469Y-127409656D02*
X138689850Y-127362036D01*
X138689850Y-127362036D02*
X138642231Y-127266798D01*
X138642231Y-127266798D02*
X138642231Y-127028703D01*
X138642231Y-127028703D02*
X138689850Y-126933465D01*
X138689850Y-126933465D02*
X138737469Y-126885846D01*
X138737469Y-126885846D02*
X138832707Y-126838227D01*
X138832707Y-126838227D02*
X139023183Y-126838227D01*
X139023183Y-126838227D02*
X139118421Y-126885846D01*
X139118421Y-126885846D02*
X139166040Y-126933465D01*
X139166040Y-126933465D02*
X139213659Y-127028703D01*
X150546993Y-128543409D02*
X150404136Y-128591028D01*
X150404136Y-128591028D02*
X150356517Y-128638647D01*
X150356517Y-128638647D02*
X150308898Y-128733885D01*
X150308898Y-128733885D02*
X150308898Y-128876742D01*
X150308898Y-128876742D02*
X150356517Y-128971980D01*
X150356517Y-128971980D02*
X150404136Y-129019600D01*
X150404136Y-129019600D02*
X150499374Y-129067219D01*
X150499374Y-129067219D02*
X150880326Y-129067219D01*
X150880326Y-129067219D02*
X150880326Y-128067219D01*
X150880326Y-128067219D02*
X150546993Y-128067219D01*
X150546993Y-128067219D02*
X150451755Y-128114838D01*
X150451755Y-128114838D02*
X150404136Y-128162457D01*
X150404136Y-128162457D02*
X150356517Y-128257695D01*
X150356517Y-128257695D02*
X150356517Y-128352933D01*
X150356517Y-128352933D02*
X150404136Y-128448171D01*
X150404136Y-128448171D02*
X150451755Y-128495790D01*
X150451755Y-128495790D02*
X150546993Y-128543409D01*
X150546993Y-128543409D02*
X150880326Y-128543409D01*
X149975564Y-128400552D02*
X149737469Y-129067219D01*
X149499374Y-128400552D02*
X149737469Y-129067219D01*
X149737469Y-129067219D02*
X149832707Y-129305314D01*
X149832707Y-129305314D02*
X149880326Y-129352933D01*
X149880326Y-129352933D02*
X149975564Y-129400552D01*
X148404135Y-129019600D02*
X148261278Y-129067219D01*
X148261278Y-129067219D02*
X148023183Y-129067219D01*
X148023183Y-129067219D02*
X147927945Y-129019600D01*
X147927945Y-129019600D02*
X147880326Y-128971980D01*
X147880326Y-128971980D02*
X147832707Y-128876742D01*
X147832707Y-128876742D02*
X147832707Y-128781504D01*
X147832707Y-128781504D02*
X147880326Y-128686266D01*
X147880326Y-128686266D02*
X147927945Y-128638647D01*
X147927945Y-128638647D02*
X148023183Y-128591028D01*
X148023183Y-128591028D02*
X148213659Y-128543409D01*
X148213659Y-128543409D02*
X148308897Y-128495790D01*
X148308897Y-128495790D02*
X148356516Y-128448171D01*
X148356516Y-128448171D02*
X148404135Y-128352933D01*
X148404135Y-128352933D02*
X148404135Y-128257695D01*
X148404135Y-128257695D02*
X148356516Y-128162457D01*
X148356516Y-128162457D02*
X148308897Y-128114838D01*
X148308897Y-128114838D02*
X148213659Y-128067219D01*
X148213659Y-128067219D02*
X147975564Y-128067219D01*
X147975564Y-128067219D02*
X147832707Y-128114838D01*
X146975564Y-129067219D02*
X146975564Y-128543409D01*
X146975564Y-128543409D02*
X147023183Y-128448171D01*
X147023183Y-128448171D02*
X147118421Y-128400552D01*
X147118421Y-128400552D02*
X147308897Y-128400552D01*
X147308897Y-128400552D02*
X147404135Y-128448171D01*
X146975564Y-129019600D02*
X147070802Y-129067219D01*
X147070802Y-129067219D02*
X147308897Y-129067219D01*
X147308897Y-129067219D02*
X147404135Y-129019600D01*
X147404135Y-129019600D02*
X147451754Y-128924361D01*
X147451754Y-128924361D02*
X147451754Y-128829123D01*
X147451754Y-128829123D02*
X147404135Y-128733885D01*
X147404135Y-128733885D02*
X147308897Y-128686266D01*
X147308897Y-128686266D02*
X147070802Y-128686266D01*
X147070802Y-128686266D02*
X146975564Y-128638647D01*
X146499373Y-129067219D02*
X146499373Y-128400552D01*
X146499373Y-128495790D02*
X146451754Y-128448171D01*
X146451754Y-128448171D02*
X146356516Y-128400552D01*
X146356516Y-128400552D02*
X146213659Y-128400552D01*
X146213659Y-128400552D02*
X146118421Y-128448171D01*
X146118421Y-128448171D02*
X146070802Y-128543409D01*
X146070802Y-128543409D02*
X146070802Y-129067219D01*
X146070802Y-128543409D02*
X146023183Y-128448171D01*
X146023183Y-128448171D02*
X145927945Y-128400552D01*
X145927945Y-128400552D02*
X145785088Y-128400552D01*
X145785088Y-128400552D02*
X145689849Y-128448171D01*
X145689849Y-128448171D02*
X145642230Y-128543409D01*
X145642230Y-128543409D02*
X145642230Y-129067219D01*
X144737469Y-129067219D02*
X144737469Y-128543409D01*
X144737469Y-128543409D02*
X144785088Y-128448171D01*
X144785088Y-128448171D02*
X144880326Y-128400552D01*
X144880326Y-128400552D02*
X145070802Y-128400552D01*
X145070802Y-128400552D02*
X145166040Y-128448171D01*
X144737469Y-129019600D02*
X144832707Y-129067219D01*
X144832707Y-129067219D02*
X145070802Y-129067219D01*
X145070802Y-129067219D02*
X145166040Y-129019600D01*
X145166040Y-129019600D02*
X145213659Y-128924361D01*
X145213659Y-128924361D02*
X145213659Y-128829123D01*
X145213659Y-128829123D02*
X145166040Y-128733885D01*
X145166040Y-128733885D02*
X145070802Y-128686266D01*
X145070802Y-128686266D02*
X144832707Y-128686266D01*
X144832707Y-128686266D02*
X144737469Y-128638647D01*
X144261278Y-128400552D02*
X144261278Y-129067219D01*
X144261278Y-128495790D02*
X144213659Y-128448171D01*
X144213659Y-128448171D02*
X144118421Y-128400552D01*
X144118421Y-128400552D02*
X143975564Y-128400552D01*
X143975564Y-128400552D02*
X143880326Y-128448171D01*
X143880326Y-128448171D02*
X143832707Y-128543409D01*
X143832707Y-128543409D02*
X143832707Y-129067219D01*
X143499373Y-128400552D02*
X143118421Y-128400552D01*
X143356516Y-128067219D02*
X143356516Y-128924361D01*
X143356516Y-128924361D02*
X143308897Y-129019600D01*
X143308897Y-129019600D02*
X143213659Y-129067219D01*
X143213659Y-129067219D02*
X143118421Y-129067219D01*
X142785087Y-129067219D02*
X142785087Y-128067219D01*
X142356516Y-129067219D02*
X142356516Y-128543409D01*
X142356516Y-128543409D02*
X142404135Y-128448171D01*
X142404135Y-128448171D02*
X142499373Y-128400552D01*
X142499373Y-128400552D02*
X142642230Y-128400552D01*
X142642230Y-128400552D02*
X142737468Y-128448171D01*
X142737468Y-128448171D02*
X142785087Y-128495790D01*
X141451754Y-129067219D02*
X141451754Y-128543409D01*
X141451754Y-128543409D02*
X141499373Y-128448171D01*
X141499373Y-128448171D02*
X141594611Y-128400552D01*
X141594611Y-128400552D02*
X141785087Y-128400552D01*
X141785087Y-128400552D02*
X141880325Y-128448171D01*
X141451754Y-129019600D02*
X141546992Y-129067219D01*
X141546992Y-129067219D02*
X141785087Y-129067219D01*
X141785087Y-129067219D02*
X141880325Y-129019600D01*
X141880325Y-129019600D02*
X141927944Y-128924361D01*
X141927944Y-128924361D02*
X141927944Y-128829123D01*
X141927944Y-128829123D02*
X141880325Y-128733885D01*
X141880325Y-128733885D02*
X141785087Y-128686266D01*
X141785087Y-128686266D02*
X141546992Y-128686266D01*
X141546992Y-128686266D02*
X141451754Y-128638647D01*
X139642230Y-128971980D02*
X139689849Y-129019600D01*
X139689849Y-129019600D02*
X139832706Y-129067219D01*
X139832706Y-129067219D02*
X139927944Y-129067219D01*
X139927944Y-129067219D02*
X140070801Y-129019600D01*
X140070801Y-129019600D02*
X140166039Y-128924361D01*
X140166039Y-128924361D02*
X140213658Y-128829123D01*
X140213658Y-128829123D02*
X140261277Y-128638647D01*
X140261277Y-128638647D02*
X140261277Y-128495790D01*
X140261277Y-128495790D02*
X140213658Y-128305314D01*
X140213658Y-128305314D02*
X140166039Y-128210076D01*
X140166039Y-128210076D02*
X140070801Y-128114838D01*
X140070801Y-128114838D02*
X139927944Y-128067219D01*
X139927944Y-128067219D02*
X139832706Y-128067219D01*
X139832706Y-128067219D02*
X139689849Y-128114838D01*
X139689849Y-128114838D02*
X139642230Y-128162457D01*
X139213658Y-129067219D02*
X139213658Y-128067219D01*
X138785087Y-129067219D02*
X138785087Y-128543409D01*
X138785087Y-128543409D02*
X138832706Y-128448171D01*
X138832706Y-128448171D02*
X138927944Y-128400552D01*
X138927944Y-128400552D02*
X139070801Y-128400552D01*
X139070801Y-128400552D02*
X139166039Y-128448171D01*
X139166039Y-128448171D02*
X139213658Y-128495790D01*
X138166039Y-129067219D02*
X138261277Y-129019600D01*
X138261277Y-129019600D02*
X138308896Y-128971980D01*
X138308896Y-128971980D02*
X138356515Y-128876742D01*
X138356515Y-128876742D02*
X138356515Y-128591028D01*
X138356515Y-128591028D02*
X138308896Y-128495790D01*
X138308896Y-128495790D02*
X138261277Y-128448171D01*
X138261277Y-128448171D02*
X138166039Y-128400552D01*
X138166039Y-128400552D02*
X138023182Y-128400552D01*
X138023182Y-128400552D02*
X137927944Y-128448171D01*
X137927944Y-128448171D02*
X137880325Y-128495790D01*
X137880325Y-128495790D02*
X137832706Y-128591028D01*
X137832706Y-128591028D02*
X137832706Y-128876742D01*
X137832706Y-128876742D02*
X137880325Y-128971980D01*
X137880325Y-128971980D02*
X137927944Y-129019600D01*
X137927944Y-129019600D02*
X138023182Y-129067219D01*
X138023182Y-129067219D02*
X138166039Y-129067219D01*
X137404134Y-128400552D02*
X137404134Y-129067219D01*
X137404134Y-128495790D02*
X137356515Y-128448171D01*
X137356515Y-128448171D02*
X137261277Y-128400552D01*
X137261277Y-128400552D02*
X137118420Y-128400552D01*
X137118420Y-128400552D02*
X137023182Y-128448171D01*
X137023182Y-128448171D02*
X136975563Y-128543409D01*
X136975563Y-128543409D02*
X136975563Y-129067219D01*
X136070801Y-128400552D02*
X136070801Y-129210076D01*
X136070801Y-129210076D02*
X136118420Y-129305314D01*
X136118420Y-129305314D02*
X136166039Y-129352933D01*
X136166039Y-129352933D02*
X136261277Y-129400552D01*
X136261277Y-129400552D02*
X136404134Y-129400552D01*
X136404134Y-129400552D02*
X136499372Y-129352933D01*
X136070801Y-129019600D02*
X136166039Y-129067219D01*
X136166039Y-129067219D02*
X136356515Y-129067219D01*
X136356515Y-129067219D02*
X136451753Y-129019600D01*
X136451753Y-129019600D02*
X136499372Y-128971980D01*
X136499372Y-128971980D02*
X136546991Y-128876742D01*
X136546991Y-128876742D02*
X136546991Y-128591028D01*
X136546991Y-128591028D02*
X136499372Y-128495790D01*
X136499372Y-128495790D02*
X136451753Y-128448171D01*
X136451753Y-128448171D02*
X136356515Y-128400552D01*
X136356515Y-128400552D02*
X136166039Y-128400552D01*
X136166039Y-128400552D02*
X136070801Y-128448171D01*
X132337707Y-71642838D02*
X132432945Y-71595219D01*
X132432945Y-71595219D02*
X132575802Y-71595219D01*
X132575802Y-71595219D02*
X132718659Y-71642838D01*
X132718659Y-71642838D02*
X132813897Y-71738076D01*
X132813897Y-71738076D02*
X132861516Y-71833314D01*
X132861516Y-71833314D02*
X132909135Y-72023790D01*
X132909135Y-72023790D02*
X132909135Y-72166647D01*
X132909135Y-72166647D02*
X132861516Y-72357123D01*
X132861516Y-72357123D02*
X132813897Y-72452361D01*
X132813897Y-72452361D02*
X132718659Y-72547600D01*
X132718659Y-72547600D02*
X132575802Y-72595219D01*
X132575802Y-72595219D02*
X132480564Y-72595219D01*
X132480564Y-72595219D02*
X132337707Y-72547600D01*
X132337707Y-72547600D02*
X132290088Y-72499980D01*
X132290088Y-72499980D02*
X132290088Y-72166647D01*
X132290088Y-72166647D02*
X132480564Y-72166647D01*
X131861516Y-72595219D02*
X131861516Y-71595219D01*
X131861516Y-71595219D02*
X131290088Y-72595219D01*
X131290088Y-72595219D02*
X131290088Y-71595219D01*
X130813897Y-72595219D02*
X130813897Y-71595219D01*
X130813897Y-71595219D02*
X130575802Y-71595219D01*
X130575802Y-71595219D02*
X130432945Y-71642838D01*
X130432945Y-71642838D02*
X130337707Y-71738076D01*
X130337707Y-71738076D02*
X130290088Y-71833314D01*
X130290088Y-71833314D02*
X130242469Y-72023790D01*
X130242469Y-72023790D02*
X130242469Y-72166647D01*
X130242469Y-72166647D02*
X130290088Y-72357123D01*
X130290088Y-72357123D02*
X130337707Y-72452361D01*
X130337707Y-72452361D02*
X130432945Y-72547600D01*
X130432945Y-72547600D02*
X130575802Y-72595219D01*
X130575802Y-72595219D02*
X130813897Y-72595219D01*
M02*
