%TF.GenerationSoftware,KiCad,Pcbnew,9.0.6*%
%TF.CreationDate,2026-03-08T16:16:40-04:00*%
%TF.ProjectId,PWR,5057522e-6b69-4636-9164-5f7063625858,rev?*%
%TF.SameCoordinates,Original*%
%TF.FileFunction,Soldermask,Bot*%
%TF.FilePolarity,Negative*%
%FSLAX46Y46*%
G04 Gerber Fmt 4.6, Leading zero omitted, Abs format (unit mm)*
G04 Created by KiCad (PCBNEW 9.0.6) date 2026-03-08 16:16:40*
%MOMM*%
%LPD*%
G01*
G04 APERTURE LIST*
G04 Aperture macros list*
%AMRoundRect*
0 Rectangle with rounded corners*
0 $1 Rounding radius*
0 $2 $3 $4 $5 $6 $7 $8 $9 X,Y pos of 4 corners*
0 Add a 4 corners polygon primitive as box body*
4,1,4,$2,$3,$4,$5,$6,$7,$8,$9,$2,$3,0*
0 Add four circle primitives for the rounded corners*
1,1,$1+$1,$2,$3*
1,1,$1+$1,$4,$5*
1,1,$1+$1,$6,$7*
1,1,$1+$1,$8,$9*
0 Add four rect primitives between the rounded corners*
20,1,$1+$1,$2,$3,$4,$5,0*
20,1,$1+$1,$4,$5,$6,$7,0*
20,1,$1+$1,$6,$7,$8,$9,0*
20,1,$1+$1,$8,$9,$2,$3,0*%
G04 Aperture macros list end*
%ADD10C,2.010000*%
%ADD11R,1.700000X1.700000*%
%ADD12C,1.700000*%
%ADD13C,2.600000*%
%ADD14C,4.400000*%
%ADD15RoundRect,0.250000X-1.350000X-1.350000X1.350000X-1.350000X1.350000X1.350000X-1.350000X1.350000X0*%
%ADD16C,3.200000*%
G04 APERTURE END LIST*
D10*
%TO.C,F1*%
X165448690Y-125617500D03*
X160348690Y-124417500D03*
%TD*%
D11*
%TO.C,J2*%
X136398690Y-72017500D03*
D12*
X136398690Y-74557500D03*
X136398690Y-77097500D03*
X136398690Y-79637500D03*
X136398690Y-82177500D03*
X136398690Y-84717500D03*
X136398690Y-87257500D03*
X136398690Y-89797500D03*
X136398690Y-92337500D03*
X136398690Y-94877500D03*
X136398690Y-97417500D03*
X136398690Y-99957500D03*
X136398690Y-102497500D03*
X136398690Y-105037500D03*
X136398690Y-107577500D03*
X136398690Y-110117500D03*
X136398690Y-112657500D03*
X136398690Y-115197500D03*
X136398690Y-117737500D03*
X136398690Y-120277500D03*
X136398690Y-122817500D03*
X136398690Y-125357500D03*
X136398690Y-127897500D03*
X136398690Y-130437500D03*
%TD*%
D13*
%TO.C,H2*%
X159648690Y-129517500D03*
D14*
X159648690Y-129517500D03*
%TD*%
D13*
%TO.C,H1*%
X166648690Y-129517500D03*
D14*
X166648690Y-129517500D03*
%TD*%
D11*
%TO.C,J3*%
X171398690Y-72017500D03*
D12*
X171398690Y-74557500D03*
X171398690Y-77097500D03*
X171398690Y-79637500D03*
X171398690Y-82177500D03*
X171398690Y-84717500D03*
X171398690Y-87257500D03*
X171398690Y-89797500D03*
X171398690Y-92337500D03*
X171398690Y-94877500D03*
X171398690Y-97417500D03*
X171398690Y-99957500D03*
X171398690Y-102497500D03*
X171398690Y-105037500D03*
X171398690Y-107577500D03*
X171398690Y-110117500D03*
X171398690Y-112657500D03*
X171398690Y-115197500D03*
X171398690Y-117737500D03*
X171398690Y-120277500D03*
X171398690Y-122817500D03*
X171398690Y-125357500D03*
X171398690Y-127897500D03*
X171398690Y-130437500D03*
%TD*%
D15*
%TO.C,D4*%
X140548690Y-130267500D03*
D16*
X153248690Y-130267500D03*
%TD*%
M02*
