%TF.GenerationSoftware,KiCad,Pcbnew,9.0.6*%
%TF.CreationDate,2026-03-23T19:07:01-04:00*%
%TF.ProjectId,RX,52582e6b-6963-4616-945f-706362585858,rev?*%
%TF.SameCoordinates,Original*%
%TF.FileFunction,Legend,Bot*%
%TF.FilePolarity,Positive*%
%FSLAX46Y46*%
G04 Gerber Fmt 4.6, Leading zero omitted, Abs format (unit mm)*
G04 Created by KiCad (PCBNEW 9.0.6) date 2026-03-23 19:07:01*
%MOMM*%
%LPD*%
G01*
G04 APERTURE LIST*
%ADD10C,0.200000*%
G04 APERTURE END LIST*
D10*
X157673183Y-104447331D02*
X157101755Y-104447331D01*
X157387469Y-105447331D02*
X157387469Y-104447331D01*
X156863659Y-104447331D02*
X156196993Y-105447331D01*
X156196993Y-104447331D02*
X156863659Y-105447331D01*
X154720802Y-104923521D02*
X154577945Y-104971140D01*
X154577945Y-104971140D02*
X154530326Y-105018759D01*
X154530326Y-105018759D02*
X154482707Y-105113997D01*
X154482707Y-105113997D02*
X154482707Y-105256854D01*
X154482707Y-105256854D02*
X154530326Y-105352092D01*
X154530326Y-105352092D02*
X154577945Y-105399712D01*
X154577945Y-105399712D02*
X154673183Y-105447331D01*
X154673183Y-105447331D02*
X155054135Y-105447331D01*
X155054135Y-105447331D02*
X155054135Y-104447331D01*
X155054135Y-104447331D02*
X154720802Y-104447331D01*
X154720802Y-104447331D02*
X154625564Y-104494950D01*
X154625564Y-104494950D02*
X154577945Y-104542569D01*
X154577945Y-104542569D02*
X154530326Y-104637807D01*
X154530326Y-104637807D02*
X154530326Y-104733045D01*
X154530326Y-104733045D02*
X154577945Y-104828283D01*
X154577945Y-104828283D02*
X154625564Y-104875902D01*
X154625564Y-104875902D02*
X154720802Y-104923521D01*
X154720802Y-104923521D02*
X155054135Y-104923521D01*
X153863659Y-104447331D02*
X153673183Y-104447331D01*
X153673183Y-104447331D02*
X153577945Y-104494950D01*
X153577945Y-104494950D02*
X153482707Y-104590188D01*
X153482707Y-104590188D02*
X153435088Y-104780664D01*
X153435088Y-104780664D02*
X153435088Y-105113997D01*
X153435088Y-105113997D02*
X153482707Y-105304473D01*
X153482707Y-105304473D02*
X153577945Y-105399712D01*
X153577945Y-105399712D02*
X153673183Y-105447331D01*
X153673183Y-105447331D02*
X153863659Y-105447331D01*
X153863659Y-105447331D02*
X153958897Y-105399712D01*
X153958897Y-105399712D02*
X154054135Y-105304473D01*
X154054135Y-105304473D02*
X154101754Y-105113997D01*
X154101754Y-105113997D02*
X154101754Y-104780664D01*
X154101754Y-104780664D02*
X154054135Y-104590188D01*
X154054135Y-104590188D02*
X153958897Y-104494950D01*
X153958897Y-104494950D02*
X153863659Y-104447331D01*
X153054135Y-105161616D02*
X152577945Y-105161616D01*
X153149373Y-105447331D02*
X152816040Y-104447331D01*
X152816040Y-104447331D02*
X152482707Y-105447331D01*
X151577945Y-105447331D02*
X151911278Y-104971140D01*
X152149373Y-105447331D02*
X152149373Y-104447331D01*
X152149373Y-104447331D02*
X151768421Y-104447331D01*
X151768421Y-104447331D02*
X151673183Y-104494950D01*
X151673183Y-104494950D02*
X151625564Y-104542569D01*
X151625564Y-104542569D02*
X151577945Y-104637807D01*
X151577945Y-104637807D02*
X151577945Y-104780664D01*
X151577945Y-104780664D02*
X151625564Y-104875902D01*
X151625564Y-104875902D02*
X151673183Y-104923521D01*
X151673183Y-104923521D02*
X151768421Y-104971140D01*
X151768421Y-104971140D02*
X152149373Y-104971140D01*
X151149373Y-105447331D02*
X151149373Y-104447331D01*
X151149373Y-104447331D02*
X150911278Y-104447331D01*
X150911278Y-104447331D02*
X150768421Y-104494950D01*
X150768421Y-104494950D02*
X150673183Y-104590188D01*
X150673183Y-104590188D02*
X150625564Y-104685426D01*
X150625564Y-104685426D02*
X150577945Y-104875902D01*
X150577945Y-104875902D02*
X150577945Y-105018759D01*
X150577945Y-105018759D02*
X150625564Y-105209235D01*
X150625564Y-105209235D02*
X150673183Y-105304473D01*
X150673183Y-105304473D02*
X150768421Y-105399712D01*
X150768421Y-105399712D02*
X150911278Y-105447331D01*
X150911278Y-105447331D02*
X151149373Y-105447331D01*
X156958898Y-107057275D02*
X157292231Y-106581084D01*
X157530326Y-107057275D02*
X157530326Y-106057275D01*
X157530326Y-106057275D02*
X157149374Y-106057275D01*
X157149374Y-106057275D02*
X157054136Y-106104894D01*
X157054136Y-106104894D02*
X157006517Y-106152513D01*
X157006517Y-106152513D02*
X156958898Y-106247751D01*
X156958898Y-106247751D02*
X156958898Y-106390608D01*
X156958898Y-106390608D02*
X157006517Y-106485846D01*
X157006517Y-106485846D02*
X157054136Y-106533465D01*
X157054136Y-106533465D02*
X157149374Y-106581084D01*
X157149374Y-106581084D02*
X157530326Y-106581084D01*
X156530326Y-106533465D02*
X156196993Y-106533465D01*
X156054136Y-107057275D02*
X156530326Y-107057275D01*
X156530326Y-107057275D02*
X156530326Y-106057275D01*
X156530326Y-106057275D02*
X156054136Y-106057275D01*
X155768421Y-106057275D02*
X155435088Y-107057275D01*
X155435088Y-107057275D02*
X155101755Y-106057275D01*
X154816040Y-106152513D02*
X154768421Y-106104894D01*
X154768421Y-106104894D02*
X154673183Y-106057275D01*
X154673183Y-106057275D02*
X154435088Y-106057275D01*
X154435088Y-106057275D02*
X154339850Y-106104894D01*
X154339850Y-106104894D02*
X154292231Y-106152513D01*
X154292231Y-106152513D02*
X154244612Y-106247751D01*
X154244612Y-106247751D02*
X154244612Y-106342989D01*
X154244612Y-106342989D02*
X154292231Y-106485846D01*
X154292231Y-106485846D02*
X154863659Y-107057275D01*
X154863659Y-107057275D02*
X154244612Y-107057275D01*
X153816040Y-106962036D02*
X153768421Y-107009656D01*
X153768421Y-107009656D02*
X153816040Y-107057275D01*
X153816040Y-107057275D02*
X153863659Y-107009656D01*
X153863659Y-107009656D02*
X153816040Y-106962036D01*
X153816040Y-106962036D02*
X153816040Y-107057275D01*
X152816041Y-107057275D02*
X153387469Y-107057275D01*
X153101755Y-107057275D02*
X153101755Y-106057275D01*
X153101755Y-106057275D02*
X153196993Y-106200132D01*
X153196993Y-106200132D02*
X153292231Y-106295370D01*
X153292231Y-106295370D02*
X153387469Y-106342989D01*
X151435088Y-106057275D02*
X151339850Y-106057275D01*
X151339850Y-106057275D02*
X151244612Y-106104894D01*
X151244612Y-106104894D02*
X151196993Y-106152513D01*
X151196993Y-106152513D02*
X151149374Y-106247751D01*
X151149374Y-106247751D02*
X151101755Y-106438227D01*
X151101755Y-106438227D02*
X151101755Y-106676322D01*
X151101755Y-106676322D02*
X151149374Y-106866798D01*
X151149374Y-106866798D02*
X151196993Y-106962036D01*
X151196993Y-106962036D02*
X151244612Y-107009656D01*
X151244612Y-107009656D02*
X151339850Y-107057275D01*
X151339850Y-107057275D02*
X151435088Y-107057275D01*
X151435088Y-107057275D02*
X151530326Y-107009656D01*
X151530326Y-107009656D02*
X151577945Y-106962036D01*
X151577945Y-106962036D02*
X151625564Y-106866798D01*
X151625564Y-106866798D02*
X151673183Y-106676322D01*
X151673183Y-106676322D02*
X151673183Y-106438227D01*
X151673183Y-106438227D02*
X151625564Y-106247751D01*
X151625564Y-106247751D02*
X151577945Y-106152513D01*
X151577945Y-106152513D02*
X151530326Y-106104894D01*
X151530326Y-106104894D02*
X151435088Y-106057275D01*
X150768421Y-106057275D02*
X150149374Y-106057275D01*
X150149374Y-106057275D02*
X150482707Y-106438227D01*
X150482707Y-106438227D02*
X150339850Y-106438227D01*
X150339850Y-106438227D02*
X150244612Y-106485846D01*
X150244612Y-106485846D02*
X150196993Y-106533465D01*
X150196993Y-106533465D02*
X150149374Y-106628703D01*
X150149374Y-106628703D02*
X150149374Y-106866798D01*
X150149374Y-106866798D02*
X150196993Y-106962036D01*
X150196993Y-106962036D02*
X150244612Y-107009656D01*
X150244612Y-107009656D02*
X150339850Y-107057275D01*
X150339850Y-107057275D02*
X150625564Y-107057275D01*
X150625564Y-107057275D02*
X150720802Y-107009656D01*
X150720802Y-107009656D02*
X150768421Y-106962036D01*
X149006517Y-106009656D02*
X149863659Y-107295370D01*
X148720802Y-106152513D02*
X148673183Y-106104894D01*
X148673183Y-106104894D02*
X148577945Y-106057275D01*
X148577945Y-106057275D02*
X148339850Y-106057275D01*
X148339850Y-106057275D02*
X148244612Y-106104894D01*
X148244612Y-106104894D02*
X148196993Y-106152513D01*
X148196993Y-106152513D02*
X148149374Y-106247751D01*
X148149374Y-106247751D02*
X148149374Y-106342989D01*
X148149374Y-106342989D02*
X148196993Y-106485846D01*
X148196993Y-106485846D02*
X148768421Y-107057275D01*
X148768421Y-107057275D02*
X148149374Y-107057275D01*
X147530326Y-106057275D02*
X147435088Y-106057275D01*
X147435088Y-106057275D02*
X147339850Y-106104894D01*
X147339850Y-106104894D02*
X147292231Y-106152513D01*
X147292231Y-106152513D02*
X147244612Y-106247751D01*
X147244612Y-106247751D02*
X147196993Y-106438227D01*
X147196993Y-106438227D02*
X147196993Y-106676322D01*
X147196993Y-106676322D02*
X147244612Y-106866798D01*
X147244612Y-106866798D02*
X147292231Y-106962036D01*
X147292231Y-106962036D02*
X147339850Y-107009656D01*
X147339850Y-107009656D02*
X147435088Y-107057275D01*
X147435088Y-107057275D02*
X147530326Y-107057275D01*
X147530326Y-107057275D02*
X147625564Y-107009656D01*
X147625564Y-107009656D02*
X147673183Y-106962036D01*
X147673183Y-106962036D02*
X147720802Y-106866798D01*
X147720802Y-106866798D02*
X147768421Y-106676322D01*
X147768421Y-106676322D02*
X147768421Y-106438227D01*
X147768421Y-106438227D02*
X147720802Y-106247751D01*
X147720802Y-106247751D02*
X147673183Y-106152513D01*
X147673183Y-106152513D02*
X147625564Y-106104894D01*
X147625564Y-106104894D02*
X147530326Y-106057275D01*
X146816040Y-106152513D02*
X146768421Y-106104894D01*
X146768421Y-106104894D02*
X146673183Y-106057275D01*
X146673183Y-106057275D02*
X146435088Y-106057275D01*
X146435088Y-106057275D02*
X146339850Y-106104894D01*
X146339850Y-106104894D02*
X146292231Y-106152513D01*
X146292231Y-106152513D02*
X146244612Y-106247751D01*
X146244612Y-106247751D02*
X146244612Y-106342989D01*
X146244612Y-106342989D02*
X146292231Y-106485846D01*
X146292231Y-106485846D02*
X146863659Y-107057275D01*
X146863659Y-107057275D02*
X146244612Y-107057275D01*
X145387469Y-106057275D02*
X145577945Y-106057275D01*
X145577945Y-106057275D02*
X145673183Y-106104894D01*
X145673183Y-106104894D02*
X145720802Y-106152513D01*
X145720802Y-106152513D02*
X145816040Y-106295370D01*
X145816040Y-106295370D02*
X145863659Y-106485846D01*
X145863659Y-106485846D02*
X145863659Y-106866798D01*
X145863659Y-106866798D02*
X145816040Y-106962036D01*
X145816040Y-106962036D02*
X145768421Y-107009656D01*
X145768421Y-107009656D02*
X145673183Y-107057275D01*
X145673183Y-107057275D02*
X145482707Y-107057275D01*
X145482707Y-107057275D02*
X145387469Y-107009656D01*
X145387469Y-107009656D02*
X145339850Y-106962036D01*
X145339850Y-106962036D02*
X145292231Y-106866798D01*
X145292231Y-106866798D02*
X145292231Y-106628703D01*
X145292231Y-106628703D02*
X145339850Y-106533465D01*
X145339850Y-106533465D02*
X145387469Y-106485846D01*
X145387469Y-106485846D02*
X145482707Y-106438227D01*
X145482707Y-106438227D02*
X145673183Y-106438227D01*
X145673183Y-106438227D02*
X145768421Y-106485846D01*
X145768421Y-106485846D02*
X145816040Y-106533465D01*
X145816040Y-106533465D02*
X145863659Y-106628703D01*
X157196993Y-108143409D02*
X157054136Y-108191028D01*
X157054136Y-108191028D02*
X157006517Y-108238647D01*
X157006517Y-108238647D02*
X156958898Y-108333885D01*
X156958898Y-108333885D02*
X156958898Y-108476742D01*
X156958898Y-108476742D02*
X157006517Y-108571980D01*
X157006517Y-108571980D02*
X157054136Y-108619600D01*
X157054136Y-108619600D02*
X157149374Y-108667219D01*
X157149374Y-108667219D02*
X157530326Y-108667219D01*
X157530326Y-108667219D02*
X157530326Y-107667219D01*
X157530326Y-107667219D02*
X157196993Y-107667219D01*
X157196993Y-107667219D02*
X157101755Y-107714838D01*
X157101755Y-107714838D02*
X157054136Y-107762457D01*
X157054136Y-107762457D02*
X157006517Y-107857695D01*
X157006517Y-107857695D02*
X157006517Y-107952933D01*
X157006517Y-107952933D02*
X157054136Y-108048171D01*
X157054136Y-108048171D02*
X157101755Y-108095790D01*
X157101755Y-108095790D02*
X157196993Y-108143409D01*
X157196993Y-108143409D02*
X157530326Y-108143409D01*
X156625564Y-108000552D02*
X156387469Y-108667219D01*
X156149374Y-108000552D02*
X156387469Y-108667219D01*
X156387469Y-108667219D02*
X156482707Y-108905314D01*
X156482707Y-108905314D02*
X156530326Y-108952933D01*
X156530326Y-108952933D02*
X156625564Y-109000552D01*
X155054135Y-108619600D02*
X154911278Y-108667219D01*
X154911278Y-108667219D02*
X154673183Y-108667219D01*
X154673183Y-108667219D02*
X154577945Y-108619600D01*
X154577945Y-108619600D02*
X154530326Y-108571980D01*
X154530326Y-108571980D02*
X154482707Y-108476742D01*
X154482707Y-108476742D02*
X154482707Y-108381504D01*
X154482707Y-108381504D02*
X154530326Y-108286266D01*
X154530326Y-108286266D02*
X154577945Y-108238647D01*
X154577945Y-108238647D02*
X154673183Y-108191028D01*
X154673183Y-108191028D02*
X154863659Y-108143409D01*
X154863659Y-108143409D02*
X154958897Y-108095790D01*
X154958897Y-108095790D02*
X155006516Y-108048171D01*
X155006516Y-108048171D02*
X155054135Y-107952933D01*
X155054135Y-107952933D02*
X155054135Y-107857695D01*
X155054135Y-107857695D02*
X155006516Y-107762457D01*
X155006516Y-107762457D02*
X154958897Y-107714838D01*
X154958897Y-107714838D02*
X154863659Y-107667219D01*
X154863659Y-107667219D02*
X154625564Y-107667219D01*
X154625564Y-107667219D02*
X154482707Y-107714838D01*
X153625564Y-108667219D02*
X153625564Y-108143409D01*
X153625564Y-108143409D02*
X153673183Y-108048171D01*
X153673183Y-108048171D02*
X153768421Y-108000552D01*
X153768421Y-108000552D02*
X153958897Y-108000552D01*
X153958897Y-108000552D02*
X154054135Y-108048171D01*
X153625564Y-108619600D02*
X153720802Y-108667219D01*
X153720802Y-108667219D02*
X153958897Y-108667219D01*
X153958897Y-108667219D02*
X154054135Y-108619600D01*
X154054135Y-108619600D02*
X154101754Y-108524361D01*
X154101754Y-108524361D02*
X154101754Y-108429123D01*
X154101754Y-108429123D02*
X154054135Y-108333885D01*
X154054135Y-108333885D02*
X153958897Y-108286266D01*
X153958897Y-108286266D02*
X153720802Y-108286266D01*
X153720802Y-108286266D02*
X153625564Y-108238647D01*
X153149373Y-108667219D02*
X153149373Y-108000552D01*
X153149373Y-108095790D02*
X153101754Y-108048171D01*
X153101754Y-108048171D02*
X153006516Y-108000552D01*
X153006516Y-108000552D02*
X152863659Y-108000552D01*
X152863659Y-108000552D02*
X152768421Y-108048171D01*
X152768421Y-108048171D02*
X152720802Y-108143409D01*
X152720802Y-108143409D02*
X152720802Y-108667219D01*
X152720802Y-108143409D02*
X152673183Y-108048171D01*
X152673183Y-108048171D02*
X152577945Y-108000552D01*
X152577945Y-108000552D02*
X152435088Y-108000552D01*
X152435088Y-108000552D02*
X152339849Y-108048171D01*
X152339849Y-108048171D02*
X152292230Y-108143409D01*
X152292230Y-108143409D02*
X152292230Y-108667219D01*
X151387469Y-108667219D02*
X151387469Y-108143409D01*
X151387469Y-108143409D02*
X151435088Y-108048171D01*
X151435088Y-108048171D02*
X151530326Y-108000552D01*
X151530326Y-108000552D02*
X151720802Y-108000552D01*
X151720802Y-108000552D02*
X151816040Y-108048171D01*
X151387469Y-108619600D02*
X151482707Y-108667219D01*
X151482707Y-108667219D02*
X151720802Y-108667219D01*
X151720802Y-108667219D02*
X151816040Y-108619600D01*
X151816040Y-108619600D02*
X151863659Y-108524361D01*
X151863659Y-108524361D02*
X151863659Y-108429123D01*
X151863659Y-108429123D02*
X151816040Y-108333885D01*
X151816040Y-108333885D02*
X151720802Y-108286266D01*
X151720802Y-108286266D02*
X151482707Y-108286266D01*
X151482707Y-108286266D02*
X151387469Y-108238647D01*
X150911278Y-108000552D02*
X150911278Y-108667219D01*
X150911278Y-108095790D02*
X150863659Y-108048171D01*
X150863659Y-108048171D02*
X150768421Y-108000552D01*
X150768421Y-108000552D02*
X150625564Y-108000552D01*
X150625564Y-108000552D02*
X150530326Y-108048171D01*
X150530326Y-108048171D02*
X150482707Y-108143409D01*
X150482707Y-108143409D02*
X150482707Y-108667219D01*
X150149373Y-108000552D02*
X149768421Y-108000552D01*
X150006516Y-107667219D02*
X150006516Y-108524361D01*
X150006516Y-108524361D02*
X149958897Y-108619600D01*
X149958897Y-108619600D02*
X149863659Y-108667219D01*
X149863659Y-108667219D02*
X149768421Y-108667219D01*
X149435087Y-108667219D02*
X149435087Y-107667219D01*
X149006516Y-108667219D02*
X149006516Y-108143409D01*
X149006516Y-108143409D02*
X149054135Y-108048171D01*
X149054135Y-108048171D02*
X149149373Y-108000552D01*
X149149373Y-108000552D02*
X149292230Y-108000552D01*
X149292230Y-108000552D02*
X149387468Y-108048171D01*
X149387468Y-108048171D02*
X149435087Y-108095790D01*
X148101754Y-108667219D02*
X148101754Y-108143409D01*
X148101754Y-108143409D02*
X148149373Y-108048171D01*
X148149373Y-108048171D02*
X148244611Y-108000552D01*
X148244611Y-108000552D02*
X148435087Y-108000552D01*
X148435087Y-108000552D02*
X148530325Y-108048171D01*
X148101754Y-108619600D02*
X148196992Y-108667219D01*
X148196992Y-108667219D02*
X148435087Y-108667219D01*
X148435087Y-108667219D02*
X148530325Y-108619600D01*
X148530325Y-108619600D02*
X148577944Y-108524361D01*
X148577944Y-108524361D02*
X148577944Y-108429123D01*
X148577944Y-108429123D02*
X148530325Y-108333885D01*
X148530325Y-108333885D02*
X148435087Y-108286266D01*
X148435087Y-108286266D02*
X148196992Y-108286266D01*
X148196992Y-108286266D02*
X148101754Y-108238647D01*
X146292230Y-108571980D02*
X146339849Y-108619600D01*
X146339849Y-108619600D02*
X146482706Y-108667219D01*
X146482706Y-108667219D02*
X146577944Y-108667219D01*
X146577944Y-108667219D02*
X146720801Y-108619600D01*
X146720801Y-108619600D02*
X146816039Y-108524361D01*
X146816039Y-108524361D02*
X146863658Y-108429123D01*
X146863658Y-108429123D02*
X146911277Y-108238647D01*
X146911277Y-108238647D02*
X146911277Y-108095790D01*
X146911277Y-108095790D02*
X146863658Y-107905314D01*
X146863658Y-107905314D02*
X146816039Y-107810076D01*
X146816039Y-107810076D02*
X146720801Y-107714838D01*
X146720801Y-107714838D02*
X146577944Y-107667219D01*
X146577944Y-107667219D02*
X146482706Y-107667219D01*
X146482706Y-107667219D02*
X146339849Y-107714838D01*
X146339849Y-107714838D02*
X146292230Y-107762457D01*
X145863658Y-108667219D02*
X145863658Y-107667219D01*
X145435087Y-108667219D02*
X145435087Y-108143409D01*
X145435087Y-108143409D02*
X145482706Y-108048171D01*
X145482706Y-108048171D02*
X145577944Y-108000552D01*
X145577944Y-108000552D02*
X145720801Y-108000552D01*
X145720801Y-108000552D02*
X145816039Y-108048171D01*
X145816039Y-108048171D02*
X145863658Y-108095790D01*
X144816039Y-108667219D02*
X144911277Y-108619600D01*
X144911277Y-108619600D02*
X144958896Y-108571980D01*
X144958896Y-108571980D02*
X145006515Y-108476742D01*
X145006515Y-108476742D02*
X145006515Y-108191028D01*
X145006515Y-108191028D02*
X144958896Y-108095790D01*
X144958896Y-108095790D02*
X144911277Y-108048171D01*
X144911277Y-108048171D02*
X144816039Y-108000552D01*
X144816039Y-108000552D02*
X144673182Y-108000552D01*
X144673182Y-108000552D02*
X144577944Y-108048171D01*
X144577944Y-108048171D02*
X144530325Y-108095790D01*
X144530325Y-108095790D02*
X144482706Y-108191028D01*
X144482706Y-108191028D02*
X144482706Y-108476742D01*
X144482706Y-108476742D02*
X144530325Y-108571980D01*
X144530325Y-108571980D02*
X144577944Y-108619600D01*
X144577944Y-108619600D02*
X144673182Y-108667219D01*
X144673182Y-108667219D02*
X144816039Y-108667219D01*
X144054134Y-108000552D02*
X144054134Y-108667219D01*
X144054134Y-108095790D02*
X144006515Y-108048171D01*
X144006515Y-108048171D02*
X143911277Y-108000552D01*
X143911277Y-108000552D02*
X143768420Y-108000552D01*
X143768420Y-108000552D02*
X143673182Y-108048171D01*
X143673182Y-108048171D02*
X143625563Y-108143409D01*
X143625563Y-108143409D02*
X143625563Y-108667219D01*
X142720801Y-108000552D02*
X142720801Y-108810076D01*
X142720801Y-108810076D02*
X142768420Y-108905314D01*
X142768420Y-108905314D02*
X142816039Y-108952933D01*
X142816039Y-108952933D02*
X142911277Y-109000552D01*
X142911277Y-109000552D02*
X143054134Y-109000552D01*
X143054134Y-109000552D02*
X143149372Y-108952933D01*
X142720801Y-108619600D02*
X142816039Y-108667219D01*
X142816039Y-108667219D02*
X143006515Y-108667219D01*
X143006515Y-108667219D02*
X143101753Y-108619600D01*
X143101753Y-108619600D02*
X143149372Y-108571980D01*
X143149372Y-108571980D02*
X143196991Y-108476742D01*
X143196991Y-108476742D02*
X143196991Y-108191028D01*
X143196991Y-108191028D02*
X143149372Y-108095790D01*
X143149372Y-108095790D02*
X143101753Y-108048171D01*
X143101753Y-108048171D02*
X143006515Y-108000552D01*
X143006515Y-108000552D02*
X142816039Y-108000552D01*
X142816039Y-108000552D02*
X142720801Y-108048171D01*
M02*
