%TF.GenerationSoftware,KiCad,Pcbnew,9.0.6*%
%TF.CreationDate,2026-03-23T19:07:00-04:00*%
%TF.ProjectId,RX,52582e6b-6963-4616-945f-706362585858,rev?*%
%TF.SameCoordinates,Original*%
%TF.FileFunction,Paste,Top*%
%TF.FilePolarity,Positive*%
%FSLAX46Y46*%
G04 Gerber Fmt 4.6, Leading zero omitted, Abs format (unit mm)*
G04 Created by KiCad (PCBNEW 9.0.6) date 2026-03-23 19:07:00*
%MOMM*%
%LPD*%
G01*
G04 APERTURE LIST*
G04 Aperture macros list*
%AMRoundRect*
0 Rectangle with rounded corners*
0 $1 Rounding radius*
0 $2 $3 $4 $5 $6 $7 $8 $9 X,Y pos of 4 corners*
0 Add a 4 corners polygon primitive as box body*
4,1,4,$2,$3,$4,$5,$6,$7,$8,$9,$2,$3,0*
0 Add four circle primitives for the rounded corners*
1,1,$1+$1,$2,$3*
1,1,$1+$1,$4,$5*
1,1,$1+$1,$6,$7*
1,1,$1+$1,$8,$9*
0 Add four rect primitives between the rounded corners*
20,1,$1+$1,$2,$3,$4,$5,0*
20,1,$1+$1,$4,$5,$6,$7,0*
20,1,$1+$1,$6,$7,$8,$9,0*
20,1,$1+$1,$8,$9,$2,$3,0*%
G04 Aperture macros list end*
%ADD10RoundRect,0.200000X-0.200000X-0.275000X0.200000X-0.275000X0.200000X0.275000X-0.200000X0.275000X0*%
%ADD11RoundRect,0.225000X-0.250000X0.225000X-0.250000X-0.225000X0.250000X-0.225000X0.250000X0.225000X0*%
%ADD12RoundRect,0.225000X-0.225000X-0.250000X0.225000X-0.250000X0.225000X0.250000X-0.225000X0.250000X0*%
%ADD13R,0.431800X1.422400*%
%ADD14RoundRect,0.200000X-0.275000X0.200000X-0.275000X-0.200000X0.275000X-0.200000X0.275000X0.200000X0*%
%ADD15RoundRect,0.200000X0.200000X0.275000X-0.200000X0.275000X-0.200000X-0.275000X0.200000X-0.275000X0*%
%ADD16R,0.304800X0.850900*%
%ADD17RoundRect,0.225000X0.250000X-0.225000X0.250000X0.225000X-0.250000X0.225000X-0.250000X-0.225000X0*%
%ADD18O,0.549999X1.250000*%
%ADD19RoundRect,0.200000X0.275000X-0.200000X0.275000X0.200000X-0.275000X0.200000X-0.275000X-0.200000X0*%
%ADD20RoundRect,0.250000X-0.650000X0.325000X-0.650000X-0.325000X0.650000X-0.325000X0.650000X0.325000X0*%
%ADD21R,0.355600X1.168400*%
%ADD22R,0.355600X1.460500*%
G04 APERTURE END LIST*
D10*
%TO.C,R1*%
X145675000Y-57250000D03*
X147325000Y-57250000D03*
%TD*%
D11*
%TO.C,C3*%
X163000000Y-97975000D03*
X163000000Y-99525000D03*
%TD*%
D12*
%TO.C,C5*%
X164650000Y-82000000D03*
X166200000Y-82000000D03*
%TD*%
%TO.C,C10*%
X156725000Y-94624999D03*
X158275000Y-94624999D03*
%TD*%
D13*
%TO.C,U4*%
X154974999Y-89953299D03*
X154325001Y-89953299D03*
X153674999Y-89953299D03*
X153025001Y-89953299D03*
X153025001Y-94296699D03*
X153674999Y-94296699D03*
X154325001Y-94296699D03*
X154974999Y-94296699D03*
%TD*%
D11*
%TO.C,C7*%
X155250000Y-82099999D03*
X155250000Y-83649999D03*
%TD*%
D12*
%TO.C,C6*%
X153725000Y-55874999D03*
X155275000Y-55874999D03*
%TD*%
D14*
%TO.C,R8*%
X156250000Y-70049999D03*
X156250000Y-71699999D03*
%TD*%
D15*
%TO.C,R20*%
X146325000Y-91750000D03*
X144675000Y-91750000D03*
%TD*%
D14*
%TO.C,R15*%
X152000000Y-86299999D03*
X152000000Y-87949999D03*
%TD*%
D10*
%TO.C,R13*%
X153675000Y-57624999D03*
X155325000Y-57624999D03*
%TD*%
D15*
%TO.C,R10*%
X151575000Y-60824999D03*
X149925000Y-60824999D03*
%TD*%
%TO.C,R23*%
X157075000Y-73374999D03*
X155425000Y-73374999D03*
%TD*%
D11*
%TO.C,C2*%
X143000000Y-48975000D03*
X143000000Y-50525000D03*
%TD*%
D14*
%TO.C,R14*%
X158000000Y-76799999D03*
X158000000Y-78449999D03*
%TD*%
%TO.C,R17*%
X153000000Y-99549999D03*
X153000000Y-101199999D03*
%TD*%
%TO.C,R4*%
X162675000Y-87675000D03*
X162675000Y-89325000D03*
%TD*%
%TO.C,R16*%
X153000000Y-96299999D03*
X153000000Y-97949999D03*
%TD*%
%TO.C,R7*%
X157250000Y-66549999D03*
X157250000Y-68199999D03*
%TD*%
D16*
%TO.C,U1*%
X164224998Y-83750000D03*
X163574999Y-83750000D03*
X162925000Y-83750000D03*
X162925000Y-85997900D03*
X164224998Y-85997900D03*
%TD*%
D17*
%TO.C,C14*%
X144750000Y-90025000D03*
X144750000Y-88475000D03*
%TD*%
D10*
%TO.C,R3*%
X165850000Y-84250000D03*
X167500000Y-84250000D03*
%TD*%
D14*
%TO.C,R5*%
X151750000Y-66549999D03*
X151750000Y-68199999D03*
%TD*%
D12*
%TO.C,C9*%
X156725000Y-92874999D03*
X158275000Y-92874999D03*
%TD*%
D11*
%TO.C,C12*%
X153750000Y-86349999D03*
X153750000Y-87899999D03*
%TD*%
D10*
%TO.C,R19*%
X154675000Y-96374999D03*
X156325000Y-96374999D03*
%TD*%
D15*
%TO.C,R18*%
X157075000Y-87874999D03*
X155425000Y-87874999D03*
%TD*%
D18*
%TO.C,U3*%
X156405000Y-75124999D03*
X155135000Y-75124999D03*
X153865000Y-75124999D03*
X152595000Y-75124999D03*
X152595000Y-80374999D03*
X153865000Y-80374999D03*
X155135000Y-80374999D03*
X156405000Y-80374999D03*
%TD*%
D19*
%TO.C,R11*%
X155500000Y-60949999D03*
X155500000Y-59299999D03*
%TD*%
D15*
%TO.C,R21*%
X146325000Y-93500000D03*
X144675000Y-93500000D03*
%TD*%
D11*
%TO.C,C11*%
X153750000Y-82099999D03*
X153750000Y-83649999D03*
%TD*%
D10*
%TO.C,R2*%
X165850000Y-86000000D03*
X167500000Y-86000000D03*
%TD*%
D20*
%TO.C,C1*%
X145250000Y-48275000D03*
X145250000Y-51225000D03*
%TD*%
D15*
%TO.C,R22*%
X153575000Y-73374999D03*
X151925000Y-73374999D03*
%TD*%
D19*
%TO.C,R9*%
X153500000Y-60949999D03*
X153500000Y-59299999D03*
%TD*%
D11*
%TO.C,C8*%
X157000000Y-82099999D03*
X157000000Y-83649999D03*
%TD*%
D14*
%TO.C,R6*%
X152750000Y-70049999D03*
X152750000Y-71699999D03*
%TD*%
D10*
%TO.C,R12*%
X157425000Y-60824999D03*
X159075000Y-60824999D03*
%TD*%
D12*
%TO.C,C4*%
X164400000Y-87750000D03*
X165950000Y-87750000D03*
%TD*%
D21*
%TO.C,U2*%
X153850001Y-68340199D03*
X155149999Y-68340199D03*
D22*
X154500000Y-66555849D03*
%TD*%
D12*
%TO.C,C13*%
X154725000Y-99624999D03*
X156275000Y-99624999D03*
%TD*%
M02*
