M48
; DRILL file {KiCad 9.0.6} date 2026-03-23T19:06:55-0400
; FORMAT={-:-/ absolute / inch / decimal}
; #@! TF.CreationDate,2026-03-23T19:06:55-04:00
; #@! TF.GenerationSoftware,Kicad,Pcbnew,9.0.6
; #@! TF.FileFunction,Plated,1,2,PTH
FMAT,2
INCH
; #@! TA.AperFunction,Plated,PTH,ViaDrill
T1C0.0118
; #@! TA.AperFunction,Plated,PTH,ComponentDrill
T2C0.0394
; #@! TA.AperFunction,Plated,PTH,ComponentDrill
T3C0.0669
%
G90
G05
T1
X5.3913Y-1.8274
X5.4913Y-1.8274
X5.4913Y-2.0274
X5.4913Y-2.1274
X5.4913Y-2.2274
X5.4913Y-2.3274
X5.4913Y-2.5274
X5.4913Y-2.6274
X5.4913Y-2.7274
X5.4913Y-2.8274
X5.4913Y-2.9274
X5.4913Y-3.0274
X5.4913Y-3.1274
X5.4913Y-3.2274
X5.4913Y-3.3274
X5.4913Y-3.6274
X5.4913Y-3.7274
X5.4913Y-3.8274
X5.4913Y-3.9274
X5.4913Y-4.0274
X5.4913Y-4.1274
X5.4913Y-4.2274
X5.5913Y-1.8274
X5.5913Y-2.1274
X5.5913Y-2.2274
X5.5913Y-2.3274
X5.5913Y-2.5274
X5.5913Y-2.6274
X5.5913Y-2.7274
X5.5913Y-2.8274
X5.5913Y-2.9274
X5.5913Y-3.0274
X5.5913Y-3.1274
X5.5913Y-3.2274
X5.5913Y-3.3274
X5.5913Y-3.4274
X5.5913Y-3.6274
X5.5913Y-3.7274
X5.5913Y-3.8274
X5.5913Y-3.9274
X5.5913Y-4.0274
X5.5913Y-4.1274
X5.5913Y-4.2274
X5.6913Y-1.8274
X5.6913Y-2.1274
X5.6913Y-2.3274
X5.6913Y-2.5274
X5.6913Y-2.6274
X5.6913Y-2.7274
X5.6913Y-2.8274
X5.6913Y-2.9274
X5.6913Y-3.0274
X5.6913Y-3.1274
X5.6913Y-3.2274
X5.6913Y-3.3274
X5.6913Y-3.4274
X5.6913Y-3.8274
X5.6913Y-3.9274
X5.6913Y-4.0274
X5.6913Y-4.1274
X5.6913Y-4.2274
X5.7579Y-3.6811
X5.7913Y-2.9274
X5.7913Y-3.0274
X5.7913Y-3.1274
X5.7913Y-3.2274
X5.7913Y-3.3274
X5.7913Y-3.4274
X5.7913Y-3.8274
X5.7913Y-3.9274
X5.7913Y-4.0274
X5.7913Y-4.1274
X5.7913Y-4.2274
X5.8913Y-1.8274
X5.8913Y-1.9274
X5.8913Y-2.7274
X5.8913Y-3.0274
X5.8913Y-3.2274
X5.8913Y-3.3274
X5.8913Y-3.4274
X5.8913Y-3.5274
X5.8913Y-3.7274
X5.8913Y-3.8274
X5.8913Y-3.9274
X5.8913Y-4.0274
X5.8913Y-4.1274
X5.8913Y-4.2274
X5.9913Y-1.8274
X5.9913Y-2.1274
X5.9913Y-2.2274
X5.9913Y-3.3274
X5.9913Y-4.1274
X5.9913Y-4.2274
X6.0077Y-3.1644
X6.0913Y-1.8274
X6.0913Y-3.0274
X6.0913Y-4.1274
X6.0913Y-4.2274
X6.1545Y-3.7943
X6.1703Y-3.6565
X6.1811Y-3.2323
X6.1913Y-1.8274
X6.1913Y-2.1274
X6.1913Y-2.2274
X6.1913Y-4.1274
X6.1913Y-4.2274
X6.2402Y-3.4596
X6.2913Y-1.8274
X6.2913Y-1.9274
X6.2913Y-2.0274
X6.2913Y-2.1274
X6.2913Y-2.2274
X6.2913Y-2.3274
X6.2913Y-2.7274
X6.2913Y-2.9274
X6.2913Y-3.0274
X6.2913Y-3.1274
X6.2913Y-3.2274
X6.2913Y-3.7274
X6.2913Y-4.0274
X6.2913Y-4.1274
X6.2913Y-4.2274
X6.3913Y-1.8274
X6.3913Y-1.9274
X6.3913Y-2.0274
X6.3913Y-2.1274
X6.3913Y-2.2274
X6.3913Y-2.3274
X6.3913Y-2.4274
X6.3913Y-2.5274
X6.3913Y-2.8274
X6.3913Y-2.9274
X6.3913Y-3.0274
X6.3913Y-3.1274
X6.3913Y-3.2274
X6.3913Y-4.0274
X6.3913Y-4.1274
X6.3913Y-4.2274
X6.4724Y-3.4547
X6.4913Y-1.8274
X6.4913Y-1.9274
X6.4913Y-2.0274
X6.4913Y-2.1274
X6.4913Y-2.2274
X6.4913Y-2.3274
X6.4913Y-2.4274
X6.4913Y-2.5274
X6.4913Y-2.6274
X6.4913Y-2.9274
X6.4913Y-3.0274
X6.4913Y-3.1274
X6.4913Y-3.5274
X6.4913Y-3.6274
X6.4913Y-4.0274
X6.4913Y-4.1274
X6.4913Y-4.2274
X6.5913Y-1.8274
X6.5913Y-1.9274
X6.5913Y-2.0274
X6.5913Y-2.1274
X6.5913Y-2.2274
X6.5913Y-2.3274
X6.5913Y-2.4274
X6.5913Y-2.5274
X6.5913Y-2.6274
X6.5913Y-2.7274
X6.5913Y-2.8274
X6.5913Y-2.9274
X6.5913Y-3.0274
X6.5913Y-3.1274
X6.5913Y-3.5274
X6.5913Y-3.6274
X6.5913Y-4.0274
X6.5913Y-4.1274
X6.5913Y-4.2274
X6.6913Y-1.8274
X6.6913Y-1.9274
X6.6913Y-2.0274
X6.6913Y-2.1274
X6.6913Y-2.2274
X6.6913Y-2.3274
X6.6913Y-2.4274
X6.6913Y-2.5274
X6.6913Y-2.6274
X6.6913Y-2.7274
X6.6913Y-2.8274
X6.6913Y-2.9274
X6.6913Y-3.0274
X6.6913Y-3.1274
X6.6913Y-3.2274
X6.6913Y-3.3274
X6.6913Y-3.4274
X6.6913Y-3.5274
X6.6913Y-3.6274
X6.6913Y-3.7274
X6.6913Y-3.8274
X6.6913Y-3.9274
X6.6913Y-4.0274
X6.6913Y-4.1274
X6.6913Y-4.2274
X6.7913Y-1.8274
T2
X5.3937Y-1.9094
X5.3937Y-2.0094
X5.3937Y-2.1094
X5.3937Y-2.2094
X5.3937Y-2.3094
X5.3937Y-2.4094
X5.3937Y-2.5094
X5.3937Y-2.6094
X5.3937Y-2.7094
X5.3937Y-2.8094
X5.3937Y-2.9094
X5.3937Y-3.0094
X5.3937Y-3.1094
X5.3937Y-3.2094
X5.3937Y-3.3094
X5.3937Y-3.4094
X5.3937Y-3.5094
X5.3937Y-3.6094
X5.3937Y-3.7094
X5.3937Y-3.8094
X5.3937Y-3.9094
X5.3937Y-4.0094
X5.3937Y-4.1094
X5.3937Y-4.2094
X5.9327Y-2.5049
X6.0327Y-2.5049
X6.1327Y-2.5049
X6.2327Y-2.5049
X6.5354Y-3.7287
X6.5354Y-3.8287
X6.5354Y-3.9287
X6.7717Y-1.9094
X6.7717Y-2.0094
X6.7717Y-2.1094
X6.7717Y-2.2094
X6.7717Y-2.3094
X6.7717Y-2.4094
X6.7717Y-2.5094
X6.7717Y-2.6094
X6.7717Y-2.7094
X6.7717Y-2.8094
X6.7717Y-2.9094
X6.7717Y-3.0094
X6.7717Y-3.1094
X6.7717Y-3.2094
X6.7717Y-3.3094
X6.7717Y-3.4094
X6.7717Y-3.5094
X6.7717Y-3.6094
X6.7717Y-3.7094
X6.7717Y-3.8094
X6.7717Y-3.9094
X6.7717Y-4.0094
X6.7717Y-4.1094
X6.7717Y-4.2094
T3
X6.0039Y-1.9537
X6.1598Y-1.9537
M30
