%TF.GenerationSoftware,KiCad,Pcbnew,9.0.6*%
%TF.CreationDate,2026-03-23T19:00:04-04:00*%
%TF.ProjectId,TX,54582e6b-6963-4616-945f-706362585858,rev?*%
%TF.SameCoordinates,Original*%
%TF.FileFunction,Paste,Bot*%
%TF.FilePolarity,Positive*%
%FSLAX46Y46*%
G04 Gerber Fmt 4.6, Leading zero omitted, Abs format (unit mm)*
G04 Created by KiCad (PCBNEW 9.0.6) date 2026-03-23 19:00:04*
%MOMM*%
%LPD*%
G01*
G04 APERTURE LIST*
G04 Aperture macros list*
%AMRoundRect*
0 Rectangle with rounded corners*
0 $1 Rounding radius*
0 $2 $3 $4 $5 $6 $7 $8 $9 X,Y pos of 4 corners*
0 Add a 4 corners polygon primitive as box body*
4,1,4,$2,$3,$4,$5,$6,$7,$8,$9,$2,$3,0*
0 Add four circle primitives for the rounded corners*
1,1,$1+$1,$2,$3*
1,1,$1+$1,$4,$5*
1,1,$1+$1,$6,$7*
1,1,$1+$1,$8,$9*
0 Add four rect primitives between the rounded corners*
20,1,$1+$1,$2,$3,$4,$5,0*
20,1,$1+$1,$4,$5,$6,$7,0*
20,1,$1+$1,$6,$7,$8,$9,0*
20,1,$1+$1,$8,$9,$2,$3,0*%
G04 Aperture macros list end*
%ADD10RoundRect,0.200000X0.200000X0.275000X-0.200000X0.275000X-0.200000X-0.275000X0.200000X-0.275000X0*%
%ADD11RoundRect,0.225000X0.250000X-0.225000X0.250000X0.225000X-0.250000X0.225000X-0.250000X-0.225000X0*%
%ADD12RoundRect,0.225000X-0.250000X0.225000X-0.250000X-0.225000X0.250000X-0.225000X0.250000X0.225000X0*%
%ADD13RoundRect,0.250000X-0.650000X0.325000X-0.650000X-0.325000X0.650000X-0.325000X0.650000X0.325000X0*%
%ADD14RoundRect,0.200000X-0.200000X-0.275000X0.200000X-0.275000X0.200000X0.275000X-0.200000X0.275000X0*%
%ADD15RoundRect,0.250000X-0.325000X-0.650000X0.325000X-0.650000X0.325000X0.650000X-0.325000X0.650000X0*%
%ADD16RoundRect,0.225000X-0.225000X-0.250000X0.225000X-0.250000X0.225000X0.250000X-0.225000X0.250000X0*%
G04 APERTURE END LIST*
D10*
%TO.C,R7*%
X76795000Y-111750000D03*
X75145000Y-111750000D03*
%TD*%
D11*
%TO.C,C11*%
X55810085Y-111664999D03*
X55810085Y-110114999D03*
%TD*%
D12*
%TO.C,C13*%
X66470000Y-108975000D03*
X66470000Y-110525000D03*
%TD*%
D13*
%TO.C,C1*%
X48520000Y-81775000D03*
X48520000Y-84725000D03*
%TD*%
%TO.C,C2*%
X51040000Y-81775000D03*
X51040000Y-84725000D03*
%TD*%
D11*
%TO.C,C4*%
X48750000Y-80025000D03*
X48750000Y-78475000D03*
%TD*%
%TO.C,C22*%
X60500000Y-125025000D03*
X60500000Y-123475000D03*
%TD*%
D12*
%TO.C,C12*%
X68220000Y-111380000D03*
X68220000Y-112930000D03*
%TD*%
D14*
%TO.C,R9*%
X75145000Y-113500000D03*
X76795000Y-113500000D03*
%TD*%
D11*
%TO.C,C3*%
X50750000Y-80025000D03*
X50750000Y-78475000D03*
%TD*%
%TO.C,C8*%
X48000000Y-69775000D03*
X48000000Y-68225000D03*
%TD*%
D12*
%TO.C,C6*%
X48653250Y-74880000D03*
X48653250Y-76430000D03*
%TD*%
D11*
%TO.C,C21*%
X62500000Y-125025000D03*
X62500000Y-123475000D03*
%TD*%
D14*
%TO.C,R1*%
X48770000Y-109350000D03*
X50420000Y-109350000D03*
%TD*%
D15*
%TO.C,C7*%
X49800000Y-68525000D03*
X52750000Y-68525000D03*
%TD*%
D14*
%TO.C,R2*%
X50425000Y-107850000D03*
X52075000Y-107850000D03*
%TD*%
D10*
%TO.C,R4*%
X50420000Y-112600000D03*
X48770000Y-112600000D03*
%TD*%
D15*
%TO.C,C5*%
X50300000Y-76000000D03*
X53250000Y-76000000D03*
%TD*%
D16*
%TO.C,C14*%
X68319999Y-109750000D03*
X69869999Y-109750000D03*
%TD*%
D14*
%TO.C,R3*%
X48770000Y-111100000D03*
X50420000Y-111100000D03*
%TD*%
M02*
