M48
; DRILL file {KiCad 9.0.6} date 2026-03-23T18:59:55-0400
; FORMAT={-:-/ absolute / inch / decimal}
; #@! TF.CreationDate,2026-03-23T18:59:55-04:00
; #@! TF.GenerationSoftware,Kicad,Pcbnew,9.0.6
; #@! TF.FileFunction,Plated,1,2,PTH
FMAT,2
INCH
; #@! TA.AperFunction,Plated,PTH,ComponentDrill
T1C0.0080
; #@! TA.AperFunction,Plated,PTH,ViaDrill
T2C0.0118
; #@! TA.AperFunction,Plated,PTH,ComponentDrill
T3C0.0394
%
G90
G05
T1
X2.0722Y-4.314
X2.0722Y-4.3652
X2.0722Y-4.4163
X2.0722Y-4.4675
X2.1156Y-4.314
X2.1156Y-4.3652
X2.1156Y-4.4163
X2.1156Y-4.4675
X2.7724Y-4.313
X2.7724Y-4.3642
X2.7724Y-4.4154
X2.7724Y-4.4665
X2.8157Y-4.313
X2.8157Y-4.3642
X2.8157Y-4.4154
X2.8157Y-4.4665
T2
X1.8791Y-2.8339
X1.8791Y-3.5339
X1.8791Y-3.6339
X1.8898Y-2.686
X1.9102Y-3.3356
X1.9193Y-5.0492
X1.9791Y-2.8339
X1.9791Y-3.5339
X1.9791Y-3.6339
X1.9791Y-4.5339
X1.9791Y-4.6339
X1.9791Y-4.7339
X1.9791Y-4.8339
X1.9906Y-4.3157
X1.9906Y-4.3657
X2.0094Y-3.3356
X2.0236Y-3.8525
X2.0254Y-4.1388
X2.0791Y-2.8339
X2.0791Y-3.1339
X2.0791Y-3.5339
X2.0791Y-3.6339
X2.0791Y-4.5339
X2.0791Y-4.6339
X2.0791Y-4.7339
X2.0791Y-4.8339
X2.0791Y-4.9339
X2.1791Y-2.7339
X2.1791Y-2.8339
X2.1791Y-2.9339
X2.1791Y-3.1339
X2.1791Y-3.2339
X2.1791Y-4.6339
X2.1791Y-4.7339
X2.1791Y-4.8339
X2.1791Y-5.1339
X2.1972Y-4.3157
X2.1972Y-4.4157
X2.2661Y-4.4738
X2.2717Y-3.7627
X2.2717Y-3.8525
X2.2734Y-4.1388
X2.2791Y-2.7339
X2.2791Y-2.8339
X2.2791Y-2.9339
X2.2791Y-3.1339
X2.2791Y-3.2339
X2.2791Y-5.1339
X2.3238Y-4.8667
X2.3238Y-4.9167
X2.3311Y-4.3657
X2.3791Y-2.7339
X2.3791Y-2.8339
X2.3791Y-2.9339
X2.3791Y-3.1339
X2.3791Y-3.2339
X2.3791Y-4.6339
X2.3791Y-4.7339
X2.3791Y-5.1339
X2.4669Y-3.7957
X2.4705Y-3.9764
X2.4705Y-4.3209
X2.4705Y-4.3996
X2.4791Y-2.7339
X2.4791Y-2.8339
X2.4791Y-2.9339
X2.4791Y-3.2339
X2.4791Y-4.7339
X2.5187Y-4.9167
X2.5197Y-4.1142
X2.5295Y-3.878
X2.5379Y-4.685
X2.5549Y-4.4156
X2.5679Y-4.2904
X2.5791Y-2.7339
X2.5791Y-2.8339
X2.5791Y-2.9339
X2.5791Y-3.0339
X2.5791Y-4.5339
X2.6701Y-3.8454
X2.6701Y-3.9351
X2.6711Y-4.1341
X2.6791Y-2.7339
X2.6791Y-2.8339
X2.6791Y-2.9339
X2.6791Y-3.0339
X2.6791Y-3.1339
X2.6791Y-4.5339
X2.6791Y-4.6339
X2.6791Y-4.7339
X2.6791Y-4.9339
X2.6835Y-4.3146
X2.6907Y-4.3648
X2.6907Y-4.4648
X2.7791Y-2.7339
X2.7791Y-2.8339
X2.7791Y-2.9339
X2.7791Y-3.0339
X2.7791Y-3.1339
X2.7791Y-3.2339
X2.7791Y-3.3339
X2.7791Y-3.5339
X2.7791Y-4.5339
X2.7791Y-4.6339
X2.7791Y-5.1339
X2.8791Y-2.7339
X2.8791Y-2.8339
X2.8791Y-2.9339
X2.8791Y-3.0339
X2.8791Y-3.1339
X2.8791Y-3.2339
X2.8791Y-3.3339
X2.8791Y-3.5339
X2.8791Y-3.6339
X2.8791Y-5.0339
X2.8791Y-5.1339
X2.8974Y-4.4648
X2.9181Y-3.8454
X2.9191Y-4.1341
X2.9791Y-2.7339
X2.9791Y-2.8339
X2.9791Y-2.9339
X2.9791Y-3.0339
X2.9791Y-3.1339
X2.9791Y-3.2339
X2.9791Y-3.3339
X2.9791Y-3.5339
X2.9791Y-3.6339
X2.9791Y-5.1339
X3.0791Y-2.7339
X3.0791Y-2.8339
X3.0791Y-2.9339
X3.0791Y-3.0339
X3.0791Y-3.1339
X3.0791Y-3.2339
X3.0791Y-3.3339
X3.0791Y-3.5339
X3.0791Y-3.6339
T3
X1.7815Y-2.7756
X1.7815Y-2.8756
X1.7815Y-2.9756
X1.7815Y-3.0756
X1.7815Y-3.1756
X1.7815Y-3.2756
X1.7815Y-3.3756
X1.7815Y-3.4756
X1.7815Y-3.5756
X1.7815Y-3.6756
X1.7815Y-3.7756
X1.7815Y-3.8756
X1.7815Y-3.9756
X1.7815Y-4.0756
X1.7815Y-4.1756
X1.7815Y-4.2756
X1.7815Y-4.3756
X1.7815Y-4.4756
X1.7815Y-4.5756
X1.7815Y-4.6756
X1.7815Y-4.7756
X1.7815Y-4.8756
X1.7815Y-4.9756
X1.7815Y-5.0756
X2.3205Y-3.3711
X2.4205Y-3.3711
X2.5205Y-3.3711
X2.6205Y-3.3711
X2.9232Y-4.5949
X2.9232Y-4.6949
X2.9232Y-4.7949
X3.1594Y-2.7756
X3.1594Y-2.8756
X3.1594Y-2.9756
X3.1594Y-3.0756
X3.1594Y-3.1756
X3.1594Y-3.2756
X3.1594Y-3.3756
X3.1594Y-3.4756
X3.1594Y-3.5756
X3.1594Y-3.6756
X3.1594Y-3.7756
X3.1594Y-3.8756
X3.1594Y-3.9756
X3.1594Y-4.0756
X3.1594Y-4.1756
X3.1594Y-4.2756
X3.1594Y-4.3756
X3.1594Y-4.4756
X3.1594Y-4.5756
X3.1594Y-4.6756
X3.1594Y-4.7756
X3.1594Y-4.8756
X3.1594Y-4.9756
X3.1594Y-5.0756
M30
