%TF.GenerationSoftware,KiCad,Pcbnew,9.0.6*%
%TF.CreationDate,2026-04-15T16:40:28-04:00*%
%TF.ProjectId,PWR,5057522e-6b69-4636-9164-5f7063625858,rev?*%
%TF.SameCoordinates,Original*%
%TF.FileFunction,Legend,Top*%
%TF.FilePolarity,Positive*%
%FSLAX46Y46*%
G04 Gerber Fmt 4.6, Leading zero omitted, Abs format (unit mm)*
G04 Created by KiCad (PCBNEW 9.0.6) date 2026-04-15 16:40:28*
%MOMM*%
%LPD*%
G01*
G04 APERTURE LIST*
%ADD10C,0.150000*%
%ADD11C,0.120000*%
%ADD12C,0.127000*%
%ADD13C,0.200000*%
%ADD14C,0.152400*%
G04 APERTURE END LIST*
D10*
X162107142Y-105919580D02*
X162059523Y-105967200D01*
X162059523Y-105967200D02*
X161916666Y-106014819D01*
X161916666Y-106014819D02*
X161821428Y-106014819D01*
X161821428Y-106014819D02*
X161678571Y-105967200D01*
X161678571Y-105967200D02*
X161583333Y-105871961D01*
X161583333Y-105871961D02*
X161535714Y-105776723D01*
X161535714Y-105776723D02*
X161488095Y-105586247D01*
X161488095Y-105586247D02*
X161488095Y-105443390D01*
X161488095Y-105443390D02*
X161535714Y-105252914D01*
X161535714Y-105252914D02*
X161583333Y-105157676D01*
X161583333Y-105157676D02*
X161678571Y-105062438D01*
X161678571Y-105062438D02*
X161821428Y-105014819D01*
X161821428Y-105014819D02*
X161916666Y-105014819D01*
X161916666Y-105014819D02*
X162059523Y-105062438D01*
X162059523Y-105062438D02*
X162107142Y-105110057D01*
X163059523Y-106014819D02*
X162488095Y-106014819D01*
X162773809Y-106014819D02*
X162773809Y-105014819D01*
X162773809Y-105014819D02*
X162678571Y-105157676D01*
X162678571Y-105157676D02*
X162583333Y-105252914D01*
X162583333Y-105252914D02*
X162488095Y-105300533D01*
X163535714Y-106014819D02*
X163726190Y-106014819D01*
X163726190Y-106014819D02*
X163821428Y-105967200D01*
X163821428Y-105967200D02*
X163869047Y-105919580D01*
X163869047Y-105919580D02*
X163964285Y-105776723D01*
X163964285Y-105776723D02*
X164011904Y-105586247D01*
X164011904Y-105586247D02*
X164011904Y-105205295D01*
X164011904Y-105205295D02*
X163964285Y-105110057D01*
X163964285Y-105110057D02*
X163916666Y-105062438D01*
X163916666Y-105062438D02*
X163821428Y-105014819D01*
X163821428Y-105014819D02*
X163630952Y-105014819D01*
X163630952Y-105014819D02*
X163535714Y-105062438D01*
X163535714Y-105062438D02*
X163488095Y-105110057D01*
X163488095Y-105110057D02*
X163440476Y-105205295D01*
X163440476Y-105205295D02*
X163440476Y-105443390D01*
X163440476Y-105443390D02*
X163488095Y-105538628D01*
X163488095Y-105538628D02*
X163535714Y-105586247D01*
X163535714Y-105586247D02*
X163630952Y-105633866D01*
X163630952Y-105633866D02*
X163821428Y-105633866D01*
X163821428Y-105633866D02*
X163916666Y-105586247D01*
X163916666Y-105586247D02*
X163964285Y-105538628D01*
X163964285Y-105538628D02*
X164011904Y-105443390D01*
X165357142Y-109169580D02*
X165309523Y-109217200D01*
X165309523Y-109217200D02*
X165166666Y-109264819D01*
X165166666Y-109264819D02*
X165071428Y-109264819D01*
X165071428Y-109264819D02*
X164928571Y-109217200D01*
X164928571Y-109217200D02*
X164833333Y-109121961D01*
X164833333Y-109121961D02*
X164785714Y-109026723D01*
X164785714Y-109026723D02*
X164738095Y-108836247D01*
X164738095Y-108836247D02*
X164738095Y-108693390D01*
X164738095Y-108693390D02*
X164785714Y-108502914D01*
X164785714Y-108502914D02*
X164833333Y-108407676D01*
X164833333Y-108407676D02*
X164928571Y-108312438D01*
X164928571Y-108312438D02*
X165071428Y-108264819D01*
X165071428Y-108264819D02*
X165166666Y-108264819D01*
X165166666Y-108264819D02*
X165309523Y-108312438D01*
X165309523Y-108312438D02*
X165357142Y-108360057D01*
X165738095Y-108360057D02*
X165785714Y-108312438D01*
X165785714Y-108312438D02*
X165880952Y-108264819D01*
X165880952Y-108264819D02*
X166119047Y-108264819D01*
X166119047Y-108264819D02*
X166214285Y-108312438D01*
X166214285Y-108312438D02*
X166261904Y-108360057D01*
X166261904Y-108360057D02*
X166309523Y-108455295D01*
X166309523Y-108455295D02*
X166309523Y-108550533D01*
X166309523Y-108550533D02*
X166261904Y-108693390D01*
X166261904Y-108693390D02*
X165690476Y-109264819D01*
X165690476Y-109264819D02*
X166309523Y-109264819D01*
X166928571Y-108264819D02*
X167023809Y-108264819D01*
X167023809Y-108264819D02*
X167119047Y-108312438D01*
X167119047Y-108312438D02*
X167166666Y-108360057D01*
X167166666Y-108360057D02*
X167214285Y-108455295D01*
X167214285Y-108455295D02*
X167261904Y-108645771D01*
X167261904Y-108645771D02*
X167261904Y-108883866D01*
X167261904Y-108883866D02*
X167214285Y-109074342D01*
X167214285Y-109074342D02*
X167166666Y-109169580D01*
X167166666Y-109169580D02*
X167119047Y-109217200D01*
X167119047Y-109217200D02*
X167023809Y-109264819D01*
X167023809Y-109264819D02*
X166928571Y-109264819D01*
X166928571Y-109264819D02*
X166833333Y-109217200D01*
X166833333Y-109217200D02*
X166785714Y-109169580D01*
X166785714Y-109169580D02*
X166738095Y-109074342D01*
X166738095Y-109074342D02*
X166690476Y-108883866D01*
X166690476Y-108883866D02*
X166690476Y-108645771D01*
X166690476Y-108645771D02*
X166738095Y-108455295D01*
X166738095Y-108455295D02*
X166785714Y-108360057D01*
X166785714Y-108360057D02*
X166833333Y-108312438D01*
X166833333Y-108312438D02*
X166928571Y-108264819D01*
X166857142Y-111169580D02*
X166809523Y-111217200D01*
X166809523Y-111217200D02*
X166666666Y-111264819D01*
X166666666Y-111264819D02*
X166571428Y-111264819D01*
X166571428Y-111264819D02*
X166428571Y-111217200D01*
X166428571Y-111217200D02*
X166333333Y-111121961D01*
X166333333Y-111121961D02*
X166285714Y-111026723D01*
X166285714Y-111026723D02*
X166238095Y-110836247D01*
X166238095Y-110836247D02*
X166238095Y-110693390D01*
X166238095Y-110693390D02*
X166285714Y-110502914D01*
X166285714Y-110502914D02*
X166333333Y-110407676D01*
X166333333Y-110407676D02*
X166428571Y-110312438D01*
X166428571Y-110312438D02*
X166571428Y-110264819D01*
X166571428Y-110264819D02*
X166666666Y-110264819D01*
X166666666Y-110264819D02*
X166809523Y-110312438D01*
X166809523Y-110312438D02*
X166857142Y-110360057D01*
X167238095Y-110360057D02*
X167285714Y-110312438D01*
X167285714Y-110312438D02*
X167380952Y-110264819D01*
X167380952Y-110264819D02*
X167619047Y-110264819D01*
X167619047Y-110264819D02*
X167714285Y-110312438D01*
X167714285Y-110312438D02*
X167761904Y-110360057D01*
X167761904Y-110360057D02*
X167809523Y-110455295D01*
X167809523Y-110455295D02*
X167809523Y-110550533D01*
X167809523Y-110550533D02*
X167761904Y-110693390D01*
X167761904Y-110693390D02*
X167190476Y-111264819D01*
X167190476Y-111264819D02*
X167809523Y-111264819D01*
X168761904Y-111264819D02*
X168190476Y-111264819D01*
X168476190Y-111264819D02*
X168476190Y-110264819D01*
X168476190Y-110264819D02*
X168380952Y-110407676D01*
X168380952Y-110407676D02*
X168285714Y-110502914D01*
X168285714Y-110502914D02*
X168190476Y-110550533D01*
X163355180Y-116583333D02*
X163355180Y-116107143D01*
X163355180Y-116107143D02*
X164355180Y-116107143D01*
X164355180Y-116821429D02*
X164355180Y-117440476D01*
X164355180Y-117440476D02*
X163974228Y-117107143D01*
X163974228Y-117107143D02*
X163974228Y-117250000D01*
X163974228Y-117250000D02*
X163926609Y-117345238D01*
X163926609Y-117345238D02*
X163878990Y-117392857D01*
X163878990Y-117392857D02*
X163783752Y-117440476D01*
X163783752Y-117440476D02*
X163545657Y-117440476D01*
X163545657Y-117440476D02*
X163450419Y-117392857D01*
X163450419Y-117392857D02*
X163402800Y-117345238D01*
X163402800Y-117345238D02*
X163355180Y-117250000D01*
X163355180Y-117250000D02*
X163355180Y-116964286D01*
X163355180Y-116964286D02*
X163402800Y-116869048D01*
X163402800Y-116869048D02*
X163450419Y-116821429D01*
X146761905Y-116204819D02*
X146761905Y-115204819D01*
X146761905Y-115204819D02*
X147000000Y-115204819D01*
X147000000Y-115204819D02*
X147142857Y-115252438D01*
X147142857Y-115252438D02*
X147238095Y-115347676D01*
X147238095Y-115347676D02*
X147285714Y-115442914D01*
X147285714Y-115442914D02*
X147333333Y-115633390D01*
X147333333Y-115633390D02*
X147333333Y-115776247D01*
X147333333Y-115776247D02*
X147285714Y-115966723D01*
X147285714Y-115966723D02*
X147238095Y-116061961D01*
X147238095Y-116061961D02*
X147142857Y-116157200D01*
X147142857Y-116157200D02*
X147000000Y-116204819D01*
X147000000Y-116204819D02*
X146761905Y-116204819D01*
X148190476Y-115204819D02*
X148000000Y-115204819D01*
X148000000Y-115204819D02*
X147904762Y-115252438D01*
X147904762Y-115252438D02*
X147857143Y-115300057D01*
X147857143Y-115300057D02*
X147761905Y-115442914D01*
X147761905Y-115442914D02*
X147714286Y-115633390D01*
X147714286Y-115633390D02*
X147714286Y-116014342D01*
X147714286Y-116014342D02*
X147761905Y-116109580D01*
X147761905Y-116109580D02*
X147809524Y-116157200D01*
X147809524Y-116157200D02*
X147904762Y-116204819D01*
X147904762Y-116204819D02*
X148095238Y-116204819D01*
X148095238Y-116204819D02*
X148190476Y-116157200D01*
X148190476Y-116157200D02*
X148238095Y-116109580D01*
X148238095Y-116109580D02*
X148285714Y-116014342D01*
X148285714Y-116014342D02*
X148285714Y-115776247D01*
X148285714Y-115776247D02*
X148238095Y-115681009D01*
X148238095Y-115681009D02*
X148190476Y-115633390D01*
X148190476Y-115633390D02*
X148095238Y-115585771D01*
X148095238Y-115585771D02*
X147904762Y-115585771D01*
X147904762Y-115585771D02*
X147809524Y-115633390D01*
X147809524Y-115633390D02*
X147761905Y-115681009D01*
X147761905Y-115681009D02*
X147714286Y-115776247D01*
X154738095Y-111264819D02*
X154738095Y-112074342D01*
X154738095Y-112074342D02*
X154785714Y-112169580D01*
X154785714Y-112169580D02*
X154833333Y-112217200D01*
X154833333Y-112217200D02*
X154928571Y-112264819D01*
X154928571Y-112264819D02*
X155119047Y-112264819D01*
X155119047Y-112264819D02*
X155214285Y-112217200D01*
X155214285Y-112217200D02*
X155261904Y-112169580D01*
X155261904Y-112169580D02*
X155309523Y-112074342D01*
X155309523Y-112074342D02*
X155309523Y-111264819D01*
X155690476Y-111264819D02*
X156309523Y-111264819D01*
X156309523Y-111264819D02*
X155976190Y-111645771D01*
X155976190Y-111645771D02*
X156119047Y-111645771D01*
X156119047Y-111645771D02*
X156214285Y-111693390D01*
X156214285Y-111693390D02*
X156261904Y-111741009D01*
X156261904Y-111741009D02*
X156309523Y-111836247D01*
X156309523Y-111836247D02*
X156309523Y-112074342D01*
X156309523Y-112074342D02*
X156261904Y-112169580D01*
X156261904Y-112169580D02*
X156214285Y-112217200D01*
X156214285Y-112217200D02*
X156119047Y-112264819D01*
X156119047Y-112264819D02*
X155833333Y-112264819D01*
X155833333Y-112264819D02*
X155738095Y-112217200D01*
X155738095Y-112217200D02*
X155690476Y-112169580D01*
X153583333Y-107014819D02*
X153250000Y-106538628D01*
X153011905Y-107014819D02*
X153011905Y-106014819D01*
X153011905Y-106014819D02*
X153392857Y-106014819D01*
X153392857Y-106014819D02*
X153488095Y-106062438D01*
X153488095Y-106062438D02*
X153535714Y-106110057D01*
X153535714Y-106110057D02*
X153583333Y-106205295D01*
X153583333Y-106205295D02*
X153583333Y-106348152D01*
X153583333Y-106348152D02*
X153535714Y-106443390D01*
X153535714Y-106443390D02*
X153488095Y-106491009D01*
X153488095Y-106491009D02*
X153392857Y-106538628D01*
X153392857Y-106538628D02*
X153011905Y-106538628D01*
X154059524Y-107014819D02*
X154250000Y-107014819D01*
X154250000Y-107014819D02*
X154345238Y-106967200D01*
X154345238Y-106967200D02*
X154392857Y-106919580D01*
X154392857Y-106919580D02*
X154488095Y-106776723D01*
X154488095Y-106776723D02*
X154535714Y-106586247D01*
X154535714Y-106586247D02*
X154535714Y-106205295D01*
X154535714Y-106205295D02*
X154488095Y-106110057D01*
X154488095Y-106110057D02*
X154440476Y-106062438D01*
X154440476Y-106062438D02*
X154345238Y-106014819D01*
X154345238Y-106014819D02*
X154154762Y-106014819D01*
X154154762Y-106014819D02*
X154059524Y-106062438D01*
X154059524Y-106062438D02*
X154011905Y-106110057D01*
X154011905Y-106110057D02*
X153964286Y-106205295D01*
X153964286Y-106205295D02*
X153964286Y-106443390D01*
X153964286Y-106443390D02*
X154011905Y-106538628D01*
X154011905Y-106538628D02*
X154059524Y-106586247D01*
X154059524Y-106586247D02*
X154154762Y-106633866D01*
X154154762Y-106633866D02*
X154345238Y-106633866D01*
X154345238Y-106633866D02*
X154440476Y-106586247D01*
X154440476Y-106586247D02*
X154488095Y-106538628D01*
X154488095Y-106538628D02*
X154535714Y-106443390D01*
X152083333Y-110514819D02*
X151750000Y-110038628D01*
X151511905Y-110514819D02*
X151511905Y-109514819D01*
X151511905Y-109514819D02*
X151892857Y-109514819D01*
X151892857Y-109514819D02*
X151988095Y-109562438D01*
X151988095Y-109562438D02*
X152035714Y-109610057D01*
X152035714Y-109610057D02*
X152083333Y-109705295D01*
X152083333Y-109705295D02*
X152083333Y-109848152D01*
X152083333Y-109848152D02*
X152035714Y-109943390D01*
X152035714Y-109943390D02*
X151988095Y-109991009D01*
X151988095Y-109991009D02*
X151892857Y-110038628D01*
X151892857Y-110038628D02*
X151511905Y-110038628D01*
X152654762Y-109943390D02*
X152559524Y-109895771D01*
X152559524Y-109895771D02*
X152511905Y-109848152D01*
X152511905Y-109848152D02*
X152464286Y-109752914D01*
X152464286Y-109752914D02*
X152464286Y-109705295D01*
X152464286Y-109705295D02*
X152511905Y-109610057D01*
X152511905Y-109610057D02*
X152559524Y-109562438D01*
X152559524Y-109562438D02*
X152654762Y-109514819D01*
X152654762Y-109514819D02*
X152845238Y-109514819D01*
X152845238Y-109514819D02*
X152940476Y-109562438D01*
X152940476Y-109562438D02*
X152988095Y-109610057D01*
X152988095Y-109610057D02*
X153035714Y-109705295D01*
X153035714Y-109705295D02*
X153035714Y-109752914D01*
X153035714Y-109752914D02*
X152988095Y-109848152D01*
X152988095Y-109848152D02*
X152940476Y-109895771D01*
X152940476Y-109895771D02*
X152845238Y-109943390D01*
X152845238Y-109943390D02*
X152654762Y-109943390D01*
X152654762Y-109943390D02*
X152559524Y-109991009D01*
X152559524Y-109991009D02*
X152511905Y-110038628D01*
X152511905Y-110038628D02*
X152464286Y-110133866D01*
X152464286Y-110133866D02*
X152464286Y-110324342D01*
X152464286Y-110324342D02*
X152511905Y-110419580D01*
X152511905Y-110419580D02*
X152559524Y-110467200D01*
X152559524Y-110467200D02*
X152654762Y-110514819D01*
X152654762Y-110514819D02*
X152845238Y-110514819D01*
X152845238Y-110514819D02*
X152940476Y-110467200D01*
X152940476Y-110467200D02*
X152988095Y-110419580D01*
X152988095Y-110419580D02*
X153035714Y-110324342D01*
X153035714Y-110324342D02*
X153035714Y-110133866D01*
X153035714Y-110133866D02*
X152988095Y-110038628D01*
X152988095Y-110038628D02*
X152940476Y-109991009D01*
X152940476Y-109991009D02*
X152845238Y-109943390D01*
X159333333Y-106014819D02*
X159000000Y-105538628D01*
X158761905Y-106014819D02*
X158761905Y-105014819D01*
X158761905Y-105014819D02*
X159142857Y-105014819D01*
X159142857Y-105014819D02*
X159238095Y-105062438D01*
X159238095Y-105062438D02*
X159285714Y-105110057D01*
X159285714Y-105110057D02*
X159333333Y-105205295D01*
X159333333Y-105205295D02*
X159333333Y-105348152D01*
X159333333Y-105348152D02*
X159285714Y-105443390D01*
X159285714Y-105443390D02*
X159238095Y-105491009D01*
X159238095Y-105491009D02*
X159142857Y-105538628D01*
X159142857Y-105538628D02*
X158761905Y-105538628D01*
X159666667Y-105014819D02*
X160333333Y-105014819D01*
X160333333Y-105014819D02*
X159904762Y-106014819D01*
X143582142Y-112419580D02*
X143534523Y-112467200D01*
X143534523Y-112467200D02*
X143391666Y-112514819D01*
X143391666Y-112514819D02*
X143296428Y-112514819D01*
X143296428Y-112514819D02*
X143153571Y-112467200D01*
X143153571Y-112467200D02*
X143058333Y-112371961D01*
X143058333Y-112371961D02*
X143010714Y-112276723D01*
X143010714Y-112276723D02*
X142963095Y-112086247D01*
X142963095Y-112086247D02*
X142963095Y-111943390D01*
X142963095Y-111943390D02*
X143010714Y-111752914D01*
X143010714Y-111752914D02*
X143058333Y-111657676D01*
X143058333Y-111657676D02*
X143153571Y-111562438D01*
X143153571Y-111562438D02*
X143296428Y-111514819D01*
X143296428Y-111514819D02*
X143391666Y-111514819D01*
X143391666Y-111514819D02*
X143534523Y-111562438D01*
X143534523Y-111562438D02*
X143582142Y-111610057D01*
X143963095Y-111610057D02*
X144010714Y-111562438D01*
X144010714Y-111562438D02*
X144105952Y-111514819D01*
X144105952Y-111514819D02*
X144344047Y-111514819D01*
X144344047Y-111514819D02*
X144439285Y-111562438D01*
X144439285Y-111562438D02*
X144486904Y-111610057D01*
X144486904Y-111610057D02*
X144534523Y-111705295D01*
X144534523Y-111705295D02*
X144534523Y-111800533D01*
X144534523Y-111800533D02*
X144486904Y-111943390D01*
X144486904Y-111943390D02*
X143915476Y-112514819D01*
X143915476Y-112514819D02*
X144534523Y-112514819D01*
X145391666Y-111848152D02*
X145391666Y-112514819D01*
X145153571Y-111467200D02*
X144915476Y-112181485D01*
X144915476Y-112181485D02*
X145534523Y-112181485D01*
X143582142Y-108919580D02*
X143534523Y-108967200D01*
X143534523Y-108967200D02*
X143391666Y-109014819D01*
X143391666Y-109014819D02*
X143296428Y-109014819D01*
X143296428Y-109014819D02*
X143153571Y-108967200D01*
X143153571Y-108967200D02*
X143058333Y-108871961D01*
X143058333Y-108871961D02*
X143010714Y-108776723D01*
X143010714Y-108776723D02*
X142963095Y-108586247D01*
X142963095Y-108586247D02*
X142963095Y-108443390D01*
X142963095Y-108443390D02*
X143010714Y-108252914D01*
X143010714Y-108252914D02*
X143058333Y-108157676D01*
X143058333Y-108157676D02*
X143153571Y-108062438D01*
X143153571Y-108062438D02*
X143296428Y-108014819D01*
X143296428Y-108014819D02*
X143391666Y-108014819D01*
X143391666Y-108014819D02*
X143534523Y-108062438D01*
X143534523Y-108062438D02*
X143582142Y-108110057D01*
X143963095Y-108110057D02*
X144010714Y-108062438D01*
X144010714Y-108062438D02*
X144105952Y-108014819D01*
X144105952Y-108014819D02*
X144344047Y-108014819D01*
X144344047Y-108014819D02*
X144439285Y-108062438D01*
X144439285Y-108062438D02*
X144486904Y-108110057D01*
X144486904Y-108110057D02*
X144534523Y-108205295D01*
X144534523Y-108205295D02*
X144534523Y-108300533D01*
X144534523Y-108300533D02*
X144486904Y-108443390D01*
X144486904Y-108443390D02*
X143915476Y-109014819D01*
X143915476Y-109014819D02*
X144534523Y-109014819D01*
X144867857Y-108014819D02*
X145486904Y-108014819D01*
X145486904Y-108014819D02*
X145153571Y-108395771D01*
X145153571Y-108395771D02*
X145296428Y-108395771D01*
X145296428Y-108395771D02*
X145391666Y-108443390D01*
X145391666Y-108443390D02*
X145439285Y-108491009D01*
X145439285Y-108491009D02*
X145486904Y-108586247D01*
X145486904Y-108586247D02*
X145486904Y-108824342D01*
X145486904Y-108824342D02*
X145439285Y-108919580D01*
X145439285Y-108919580D02*
X145391666Y-108967200D01*
X145391666Y-108967200D02*
X145296428Y-109014819D01*
X145296428Y-109014819D02*
X145010714Y-109014819D01*
X145010714Y-109014819D02*
X144915476Y-108967200D01*
X144915476Y-108967200D02*
X144867857Y-108919580D01*
X146755832Y-119627080D02*
X146708213Y-119674700D01*
X146708213Y-119674700D02*
X146565356Y-119722319D01*
X146565356Y-119722319D02*
X146470118Y-119722319D01*
X146470118Y-119722319D02*
X146327261Y-119674700D01*
X146327261Y-119674700D02*
X146232023Y-119579461D01*
X146232023Y-119579461D02*
X146184404Y-119484223D01*
X146184404Y-119484223D02*
X146136785Y-119293747D01*
X146136785Y-119293747D02*
X146136785Y-119150890D01*
X146136785Y-119150890D02*
X146184404Y-118960414D01*
X146184404Y-118960414D02*
X146232023Y-118865176D01*
X146232023Y-118865176D02*
X146327261Y-118769938D01*
X146327261Y-118769938D02*
X146470118Y-118722319D01*
X146470118Y-118722319D02*
X146565356Y-118722319D01*
X146565356Y-118722319D02*
X146708213Y-118769938D01*
X146708213Y-118769938D02*
X146755832Y-118817557D01*
X147136785Y-118817557D02*
X147184404Y-118769938D01*
X147184404Y-118769938D02*
X147279642Y-118722319D01*
X147279642Y-118722319D02*
X147517737Y-118722319D01*
X147517737Y-118722319D02*
X147612975Y-118769938D01*
X147612975Y-118769938D02*
X147660594Y-118817557D01*
X147660594Y-118817557D02*
X147708213Y-118912795D01*
X147708213Y-118912795D02*
X147708213Y-119008033D01*
X147708213Y-119008033D02*
X147660594Y-119150890D01*
X147660594Y-119150890D02*
X147089166Y-119722319D01*
X147089166Y-119722319D02*
X147708213Y-119722319D01*
X148184404Y-119722319D02*
X148374880Y-119722319D01*
X148374880Y-119722319D02*
X148470118Y-119674700D01*
X148470118Y-119674700D02*
X148517737Y-119627080D01*
X148517737Y-119627080D02*
X148612975Y-119484223D01*
X148612975Y-119484223D02*
X148660594Y-119293747D01*
X148660594Y-119293747D02*
X148660594Y-118912795D01*
X148660594Y-118912795D02*
X148612975Y-118817557D01*
X148612975Y-118817557D02*
X148565356Y-118769938D01*
X148565356Y-118769938D02*
X148470118Y-118722319D01*
X148470118Y-118722319D02*
X148279642Y-118722319D01*
X148279642Y-118722319D02*
X148184404Y-118769938D01*
X148184404Y-118769938D02*
X148136785Y-118817557D01*
X148136785Y-118817557D02*
X148089166Y-118912795D01*
X148089166Y-118912795D02*
X148089166Y-119150890D01*
X148089166Y-119150890D02*
X148136785Y-119246128D01*
X148136785Y-119246128D02*
X148184404Y-119293747D01*
X148184404Y-119293747D02*
X148279642Y-119341366D01*
X148279642Y-119341366D02*
X148470118Y-119341366D01*
X148470118Y-119341366D02*
X148565356Y-119293747D01*
X148565356Y-119293747D02*
X148612975Y-119246128D01*
X148612975Y-119246128D02*
X148660594Y-119150890D01*
X158738095Y-81954819D02*
X158738095Y-82764342D01*
X158738095Y-82764342D02*
X158785714Y-82859580D01*
X158785714Y-82859580D02*
X158833333Y-82907200D01*
X158833333Y-82907200D02*
X158928571Y-82954819D01*
X158928571Y-82954819D02*
X159119047Y-82954819D01*
X159119047Y-82954819D02*
X159214285Y-82907200D01*
X159214285Y-82907200D02*
X159261904Y-82859580D01*
X159261904Y-82859580D02*
X159309523Y-82764342D01*
X159309523Y-82764342D02*
X159309523Y-81954819D01*
X160309523Y-82954819D02*
X159738095Y-82954819D01*
X160023809Y-82954819D02*
X160023809Y-81954819D01*
X160023809Y-81954819D02*
X159928571Y-82097676D01*
X159928571Y-82097676D02*
X159833333Y-82192914D01*
X159833333Y-82192914D02*
X159738095Y-82240533D01*
X158933095Y-99954819D02*
X158933095Y-100764342D01*
X158933095Y-100764342D02*
X158980714Y-100859580D01*
X158980714Y-100859580D02*
X159028333Y-100907200D01*
X159028333Y-100907200D02*
X159123571Y-100954819D01*
X159123571Y-100954819D02*
X159314047Y-100954819D01*
X159314047Y-100954819D02*
X159409285Y-100907200D01*
X159409285Y-100907200D02*
X159456904Y-100859580D01*
X159456904Y-100859580D02*
X159504523Y-100764342D01*
X159504523Y-100764342D02*
X159504523Y-99954819D01*
X159933095Y-100050057D02*
X159980714Y-100002438D01*
X159980714Y-100002438D02*
X160075952Y-99954819D01*
X160075952Y-99954819D02*
X160314047Y-99954819D01*
X160314047Y-99954819D02*
X160409285Y-100002438D01*
X160409285Y-100002438D02*
X160456904Y-100050057D01*
X160456904Y-100050057D02*
X160504523Y-100145295D01*
X160504523Y-100145295D02*
X160504523Y-100240533D01*
X160504523Y-100240533D02*
X160456904Y-100383390D01*
X160456904Y-100383390D02*
X159885476Y-100954819D01*
X159885476Y-100954819D02*
X160504523Y-100954819D01*
X151107142Y-108764819D02*
X150773809Y-108288628D01*
X150535714Y-108764819D02*
X150535714Y-107764819D01*
X150535714Y-107764819D02*
X150916666Y-107764819D01*
X150916666Y-107764819D02*
X151011904Y-107812438D01*
X151011904Y-107812438D02*
X151059523Y-107860057D01*
X151059523Y-107860057D02*
X151107142Y-107955295D01*
X151107142Y-107955295D02*
X151107142Y-108098152D01*
X151107142Y-108098152D02*
X151059523Y-108193390D01*
X151059523Y-108193390D02*
X151011904Y-108241009D01*
X151011904Y-108241009D02*
X150916666Y-108288628D01*
X150916666Y-108288628D02*
X150535714Y-108288628D01*
X152059523Y-108764819D02*
X151488095Y-108764819D01*
X151773809Y-108764819D02*
X151773809Y-107764819D01*
X151773809Y-107764819D02*
X151678571Y-107907676D01*
X151678571Y-107907676D02*
X151583333Y-108002914D01*
X151583333Y-108002914D02*
X151488095Y-108050533D01*
X152392857Y-107764819D02*
X153059523Y-107764819D01*
X153059523Y-107764819D02*
X152630952Y-108764819D01*
X160807023Y-85559580D02*
X160759404Y-85607200D01*
X160759404Y-85607200D02*
X160616547Y-85654819D01*
X160616547Y-85654819D02*
X160521309Y-85654819D01*
X160521309Y-85654819D02*
X160378452Y-85607200D01*
X160378452Y-85607200D02*
X160283214Y-85511961D01*
X160283214Y-85511961D02*
X160235595Y-85416723D01*
X160235595Y-85416723D02*
X160187976Y-85226247D01*
X160187976Y-85226247D02*
X160187976Y-85083390D01*
X160187976Y-85083390D02*
X160235595Y-84892914D01*
X160235595Y-84892914D02*
X160283214Y-84797676D01*
X160283214Y-84797676D02*
X160378452Y-84702438D01*
X160378452Y-84702438D02*
X160521309Y-84654819D01*
X160521309Y-84654819D02*
X160616547Y-84654819D01*
X160616547Y-84654819D02*
X160759404Y-84702438D01*
X160759404Y-84702438D02*
X160807023Y-84750057D01*
X161283214Y-85654819D02*
X161473690Y-85654819D01*
X161473690Y-85654819D02*
X161568928Y-85607200D01*
X161568928Y-85607200D02*
X161616547Y-85559580D01*
X161616547Y-85559580D02*
X161711785Y-85416723D01*
X161711785Y-85416723D02*
X161759404Y-85226247D01*
X161759404Y-85226247D02*
X161759404Y-84845295D01*
X161759404Y-84845295D02*
X161711785Y-84750057D01*
X161711785Y-84750057D02*
X161664166Y-84702438D01*
X161664166Y-84702438D02*
X161568928Y-84654819D01*
X161568928Y-84654819D02*
X161378452Y-84654819D01*
X161378452Y-84654819D02*
X161283214Y-84702438D01*
X161283214Y-84702438D02*
X161235595Y-84750057D01*
X161235595Y-84750057D02*
X161187976Y-84845295D01*
X161187976Y-84845295D02*
X161187976Y-85083390D01*
X161187976Y-85083390D02*
X161235595Y-85178628D01*
X161235595Y-85178628D02*
X161283214Y-85226247D01*
X161283214Y-85226247D02*
X161378452Y-85273866D01*
X161378452Y-85273866D02*
X161568928Y-85273866D01*
X161568928Y-85273866D02*
X161664166Y-85226247D01*
X161664166Y-85226247D02*
X161711785Y-85178628D01*
X161711785Y-85178628D02*
X161759404Y-85083390D01*
X165878333Y-101154819D02*
X165545000Y-100678628D01*
X165306905Y-101154819D02*
X165306905Y-100154819D01*
X165306905Y-100154819D02*
X165687857Y-100154819D01*
X165687857Y-100154819D02*
X165783095Y-100202438D01*
X165783095Y-100202438D02*
X165830714Y-100250057D01*
X165830714Y-100250057D02*
X165878333Y-100345295D01*
X165878333Y-100345295D02*
X165878333Y-100488152D01*
X165878333Y-100488152D02*
X165830714Y-100583390D01*
X165830714Y-100583390D02*
X165783095Y-100631009D01*
X165783095Y-100631009D02*
X165687857Y-100678628D01*
X165687857Y-100678628D02*
X165306905Y-100678628D01*
X166735476Y-100154819D02*
X166545000Y-100154819D01*
X166545000Y-100154819D02*
X166449762Y-100202438D01*
X166449762Y-100202438D02*
X166402143Y-100250057D01*
X166402143Y-100250057D02*
X166306905Y-100392914D01*
X166306905Y-100392914D02*
X166259286Y-100583390D01*
X166259286Y-100583390D02*
X166259286Y-100964342D01*
X166259286Y-100964342D02*
X166306905Y-101059580D01*
X166306905Y-101059580D02*
X166354524Y-101107200D01*
X166354524Y-101107200D02*
X166449762Y-101154819D01*
X166449762Y-101154819D02*
X166640238Y-101154819D01*
X166640238Y-101154819D02*
X166735476Y-101107200D01*
X166735476Y-101107200D02*
X166783095Y-101059580D01*
X166783095Y-101059580D02*
X166830714Y-100964342D01*
X166830714Y-100964342D02*
X166830714Y-100726247D01*
X166830714Y-100726247D02*
X166783095Y-100631009D01*
X166783095Y-100631009D02*
X166735476Y-100583390D01*
X166735476Y-100583390D02*
X166640238Y-100535771D01*
X166640238Y-100535771D02*
X166449762Y-100535771D01*
X166449762Y-100535771D02*
X166354524Y-100583390D01*
X166354524Y-100583390D02*
X166306905Y-100631009D01*
X166306905Y-100631009D02*
X166259286Y-100726247D01*
X165702142Y-97129579D02*
X165654523Y-97177199D01*
X165654523Y-97177199D02*
X165511666Y-97224818D01*
X165511666Y-97224818D02*
X165416428Y-97224818D01*
X165416428Y-97224818D02*
X165273571Y-97177199D01*
X165273571Y-97177199D02*
X165178333Y-97081960D01*
X165178333Y-97081960D02*
X165130714Y-96986722D01*
X165130714Y-96986722D02*
X165083095Y-96796246D01*
X165083095Y-96796246D02*
X165083095Y-96653389D01*
X165083095Y-96653389D02*
X165130714Y-96462913D01*
X165130714Y-96462913D02*
X165178333Y-96367675D01*
X165178333Y-96367675D02*
X165273571Y-96272437D01*
X165273571Y-96272437D02*
X165416428Y-96224818D01*
X165416428Y-96224818D02*
X165511666Y-96224818D01*
X165511666Y-96224818D02*
X165654523Y-96272437D01*
X165654523Y-96272437D02*
X165702142Y-96320056D01*
X166654523Y-97224818D02*
X166083095Y-97224818D01*
X166368809Y-97224818D02*
X166368809Y-96224818D01*
X166368809Y-96224818D02*
X166273571Y-96367675D01*
X166273571Y-96367675D02*
X166178333Y-96462913D01*
X166178333Y-96462913D02*
X166083095Y-96510532D01*
X167225952Y-96653389D02*
X167130714Y-96605770D01*
X167130714Y-96605770D02*
X167083095Y-96558151D01*
X167083095Y-96558151D02*
X167035476Y-96462913D01*
X167035476Y-96462913D02*
X167035476Y-96415294D01*
X167035476Y-96415294D02*
X167083095Y-96320056D01*
X167083095Y-96320056D02*
X167130714Y-96272437D01*
X167130714Y-96272437D02*
X167225952Y-96224818D01*
X167225952Y-96224818D02*
X167416428Y-96224818D01*
X167416428Y-96224818D02*
X167511666Y-96272437D01*
X167511666Y-96272437D02*
X167559285Y-96320056D01*
X167559285Y-96320056D02*
X167606904Y-96415294D01*
X167606904Y-96415294D02*
X167606904Y-96462913D01*
X167606904Y-96462913D02*
X167559285Y-96558151D01*
X167559285Y-96558151D02*
X167511666Y-96605770D01*
X167511666Y-96605770D02*
X167416428Y-96653389D01*
X167416428Y-96653389D02*
X167225952Y-96653389D01*
X167225952Y-96653389D02*
X167130714Y-96701008D01*
X167130714Y-96701008D02*
X167083095Y-96748627D01*
X167083095Y-96748627D02*
X167035476Y-96843865D01*
X167035476Y-96843865D02*
X167035476Y-97034341D01*
X167035476Y-97034341D02*
X167083095Y-97129579D01*
X167083095Y-97129579D02*
X167130714Y-97177199D01*
X167130714Y-97177199D02*
X167225952Y-97224818D01*
X167225952Y-97224818D02*
X167416428Y-97224818D01*
X167416428Y-97224818D02*
X167511666Y-97177199D01*
X167511666Y-97177199D02*
X167559285Y-97129579D01*
X167559285Y-97129579D02*
X167606904Y-97034341D01*
X167606904Y-97034341D02*
X167606904Y-96843865D01*
X167606904Y-96843865D02*
X167559285Y-96748627D01*
X167559285Y-96748627D02*
X167511666Y-96701008D01*
X167511666Y-96701008D02*
X167416428Y-96653389D01*
X151557023Y-83659580D02*
X151509404Y-83707200D01*
X151509404Y-83707200D02*
X151366547Y-83754819D01*
X151366547Y-83754819D02*
X151271309Y-83754819D01*
X151271309Y-83754819D02*
X151128452Y-83707200D01*
X151128452Y-83707200D02*
X151033214Y-83611961D01*
X151033214Y-83611961D02*
X150985595Y-83516723D01*
X150985595Y-83516723D02*
X150937976Y-83326247D01*
X150937976Y-83326247D02*
X150937976Y-83183390D01*
X150937976Y-83183390D02*
X150985595Y-82992914D01*
X150985595Y-82992914D02*
X151033214Y-82897676D01*
X151033214Y-82897676D02*
X151128452Y-82802438D01*
X151128452Y-82802438D02*
X151271309Y-82754819D01*
X151271309Y-82754819D02*
X151366547Y-82754819D01*
X151366547Y-82754819D02*
X151509404Y-82802438D01*
X151509404Y-82802438D02*
X151557023Y-82850057D01*
X152461785Y-82754819D02*
X151985595Y-82754819D01*
X151985595Y-82754819D02*
X151937976Y-83231009D01*
X151937976Y-83231009D02*
X151985595Y-83183390D01*
X151985595Y-83183390D02*
X152080833Y-83135771D01*
X152080833Y-83135771D02*
X152318928Y-83135771D01*
X152318928Y-83135771D02*
X152414166Y-83183390D01*
X152414166Y-83183390D02*
X152461785Y-83231009D01*
X152461785Y-83231009D02*
X152509404Y-83326247D01*
X152509404Y-83326247D02*
X152509404Y-83564342D01*
X152509404Y-83564342D02*
X152461785Y-83659580D01*
X152461785Y-83659580D02*
X152414166Y-83707200D01*
X152414166Y-83707200D02*
X152318928Y-83754819D01*
X152318928Y-83754819D02*
X152080833Y-83754819D01*
X152080833Y-83754819D02*
X151985595Y-83707200D01*
X151985595Y-83707200D02*
X151937976Y-83659580D01*
X162565356Y-127448509D02*
X162232023Y-127448509D01*
X162232023Y-127972319D02*
X162232023Y-126972319D01*
X162232023Y-126972319D02*
X162708213Y-126972319D01*
X163612975Y-127972319D02*
X163041547Y-127972319D01*
X163327261Y-127972319D02*
X163327261Y-126972319D01*
X163327261Y-126972319D02*
X163232023Y-127115176D01*
X163232023Y-127115176D02*
X163136785Y-127210414D01*
X163136785Y-127210414D02*
X163041547Y-127258033D01*
X144557023Y-72559580D02*
X144509404Y-72607200D01*
X144509404Y-72607200D02*
X144366547Y-72654819D01*
X144366547Y-72654819D02*
X144271309Y-72654819D01*
X144271309Y-72654819D02*
X144128452Y-72607200D01*
X144128452Y-72607200D02*
X144033214Y-72511961D01*
X144033214Y-72511961D02*
X143985595Y-72416723D01*
X143985595Y-72416723D02*
X143937976Y-72226247D01*
X143937976Y-72226247D02*
X143937976Y-72083390D01*
X143937976Y-72083390D02*
X143985595Y-71892914D01*
X143985595Y-71892914D02*
X144033214Y-71797676D01*
X144033214Y-71797676D02*
X144128452Y-71702438D01*
X144128452Y-71702438D02*
X144271309Y-71654819D01*
X144271309Y-71654819D02*
X144366547Y-71654819D01*
X144366547Y-71654819D02*
X144509404Y-71702438D01*
X144509404Y-71702438D02*
X144557023Y-71750057D01*
X144890357Y-71654819D02*
X145509404Y-71654819D01*
X145509404Y-71654819D02*
X145176071Y-72035771D01*
X145176071Y-72035771D02*
X145318928Y-72035771D01*
X145318928Y-72035771D02*
X145414166Y-72083390D01*
X145414166Y-72083390D02*
X145461785Y-72131009D01*
X145461785Y-72131009D02*
X145509404Y-72226247D01*
X145509404Y-72226247D02*
X145509404Y-72464342D01*
X145509404Y-72464342D02*
X145461785Y-72559580D01*
X145461785Y-72559580D02*
X145414166Y-72607200D01*
X145414166Y-72607200D02*
X145318928Y-72654819D01*
X145318928Y-72654819D02*
X145033214Y-72654819D01*
X145033214Y-72654819D02*
X144937976Y-72607200D01*
X144937976Y-72607200D02*
X144890357Y-72559580D01*
X149557142Y-88222319D02*
X149223809Y-87746128D01*
X148985714Y-88222319D02*
X148985714Y-87222319D01*
X148985714Y-87222319D02*
X149366666Y-87222319D01*
X149366666Y-87222319D02*
X149461904Y-87269938D01*
X149461904Y-87269938D02*
X149509523Y-87317557D01*
X149509523Y-87317557D02*
X149557142Y-87412795D01*
X149557142Y-87412795D02*
X149557142Y-87555652D01*
X149557142Y-87555652D02*
X149509523Y-87650890D01*
X149509523Y-87650890D02*
X149461904Y-87698509D01*
X149461904Y-87698509D02*
X149366666Y-87746128D01*
X149366666Y-87746128D02*
X148985714Y-87746128D01*
X150509523Y-88222319D02*
X149938095Y-88222319D01*
X150223809Y-88222319D02*
X150223809Y-87222319D01*
X150223809Y-87222319D02*
X150128571Y-87365176D01*
X150128571Y-87365176D02*
X150033333Y-87460414D01*
X150033333Y-87460414D02*
X149938095Y-87508033D01*
X151461904Y-88222319D02*
X150890476Y-88222319D01*
X151176190Y-88222319D02*
X151176190Y-87222319D01*
X151176190Y-87222319D02*
X151080952Y-87365176D01*
X151080952Y-87365176D02*
X150985714Y-87460414D01*
X150985714Y-87460414D02*
X150890476Y-87508033D01*
X136065356Y-69072319D02*
X136065356Y-69786604D01*
X136065356Y-69786604D02*
X136017737Y-69929461D01*
X136017737Y-69929461D02*
X135922499Y-70024700D01*
X135922499Y-70024700D02*
X135779642Y-70072319D01*
X135779642Y-70072319D02*
X135684404Y-70072319D01*
X137065356Y-70072319D02*
X136493928Y-70072319D01*
X136779642Y-70072319D02*
X136779642Y-69072319D01*
X136779642Y-69072319D02*
X136684404Y-69215176D01*
X136684404Y-69215176D02*
X136589166Y-69310414D01*
X136589166Y-69310414D02*
X136493928Y-69358033D01*
X163652142Y-93659580D02*
X163604523Y-93707200D01*
X163604523Y-93707200D02*
X163461666Y-93754819D01*
X163461666Y-93754819D02*
X163366428Y-93754819D01*
X163366428Y-93754819D02*
X163223571Y-93707200D01*
X163223571Y-93707200D02*
X163128333Y-93611961D01*
X163128333Y-93611961D02*
X163080714Y-93516723D01*
X163080714Y-93516723D02*
X163033095Y-93326247D01*
X163033095Y-93326247D02*
X163033095Y-93183390D01*
X163033095Y-93183390D02*
X163080714Y-92992914D01*
X163080714Y-92992914D02*
X163128333Y-92897676D01*
X163128333Y-92897676D02*
X163223571Y-92802438D01*
X163223571Y-92802438D02*
X163366428Y-92754819D01*
X163366428Y-92754819D02*
X163461666Y-92754819D01*
X163461666Y-92754819D02*
X163604523Y-92802438D01*
X163604523Y-92802438D02*
X163652142Y-92850057D01*
X164604523Y-93754819D02*
X164033095Y-93754819D01*
X164318809Y-93754819D02*
X164318809Y-92754819D01*
X164318809Y-92754819D02*
X164223571Y-92897676D01*
X164223571Y-92897676D02*
X164128333Y-92992914D01*
X164128333Y-92992914D02*
X164033095Y-93040533D01*
X164985476Y-92850057D02*
X165033095Y-92802438D01*
X165033095Y-92802438D02*
X165128333Y-92754819D01*
X165128333Y-92754819D02*
X165366428Y-92754819D01*
X165366428Y-92754819D02*
X165461666Y-92802438D01*
X165461666Y-92802438D02*
X165509285Y-92850057D01*
X165509285Y-92850057D02*
X165556904Y-92945295D01*
X165556904Y-92945295D02*
X165556904Y-93040533D01*
X165556904Y-93040533D02*
X165509285Y-93183390D01*
X165509285Y-93183390D02*
X164937857Y-93754819D01*
X164937857Y-93754819D02*
X165556904Y-93754819D01*
X154807023Y-83754819D02*
X154473690Y-83278628D01*
X154235595Y-83754819D02*
X154235595Y-82754819D01*
X154235595Y-82754819D02*
X154616547Y-82754819D01*
X154616547Y-82754819D02*
X154711785Y-82802438D01*
X154711785Y-82802438D02*
X154759404Y-82850057D01*
X154759404Y-82850057D02*
X154807023Y-82945295D01*
X154807023Y-82945295D02*
X154807023Y-83088152D01*
X154807023Y-83088152D02*
X154759404Y-83183390D01*
X154759404Y-83183390D02*
X154711785Y-83231009D01*
X154711785Y-83231009D02*
X154616547Y-83278628D01*
X154616547Y-83278628D02*
X154235595Y-83278628D01*
X155759404Y-83754819D02*
X155187976Y-83754819D01*
X155473690Y-83754819D02*
X155473690Y-82754819D01*
X155473690Y-82754819D02*
X155378452Y-82897676D01*
X155378452Y-82897676D02*
X155283214Y-82992914D01*
X155283214Y-82992914D02*
X155187976Y-83040533D01*
X155333333Y-88454819D02*
X154857143Y-88454819D01*
X154857143Y-88454819D02*
X154857143Y-87454819D01*
X155619048Y-87550057D02*
X155666667Y-87502438D01*
X155666667Y-87502438D02*
X155761905Y-87454819D01*
X155761905Y-87454819D02*
X156000000Y-87454819D01*
X156000000Y-87454819D02*
X156095238Y-87502438D01*
X156095238Y-87502438D02*
X156142857Y-87550057D01*
X156142857Y-87550057D02*
X156190476Y-87645295D01*
X156190476Y-87645295D02*
X156190476Y-87740533D01*
X156190476Y-87740533D02*
X156142857Y-87883390D01*
X156142857Y-87883390D02*
X155571429Y-88454819D01*
X155571429Y-88454819D02*
X156190476Y-88454819D01*
X154557023Y-75559580D02*
X154509404Y-75607200D01*
X154509404Y-75607200D02*
X154366547Y-75654819D01*
X154366547Y-75654819D02*
X154271309Y-75654819D01*
X154271309Y-75654819D02*
X154128452Y-75607200D01*
X154128452Y-75607200D02*
X154033214Y-75511961D01*
X154033214Y-75511961D02*
X153985595Y-75416723D01*
X153985595Y-75416723D02*
X153937976Y-75226247D01*
X153937976Y-75226247D02*
X153937976Y-75083390D01*
X153937976Y-75083390D02*
X153985595Y-74892914D01*
X153985595Y-74892914D02*
X154033214Y-74797676D01*
X154033214Y-74797676D02*
X154128452Y-74702438D01*
X154128452Y-74702438D02*
X154271309Y-74654819D01*
X154271309Y-74654819D02*
X154366547Y-74654819D01*
X154366547Y-74654819D02*
X154509404Y-74702438D01*
X154509404Y-74702438D02*
X154557023Y-74750057D01*
X155414166Y-74654819D02*
X155223690Y-74654819D01*
X155223690Y-74654819D02*
X155128452Y-74702438D01*
X155128452Y-74702438D02*
X155080833Y-74750057D01*
X155080833Y-74750057D02*
X154985595Y-74892914D01*
X154985595Y-74892914D02*
X154937976Y-75083390D01*
X154937976Y-75083390D02*
X154937976Y-75464342D01*
X154937976Y-75464342D02*
X154985595Y-75559580D01*
X154985595Y-75559580D02*
X155033214Y-75607200D01*
X155033214Y-75607200D02*
X155128452Y-75654819D01*
X155128452Y-75654819D02*
X155318928Y-75654819D01*
X155318928Y-75654819D02*
X155414166Y-75607200D01*
X155414166Y-75607200D02*
X155461785Y-75559580D01*
X155461785Y-75559580D02*
X155509404Y-75464342D01*
X155509404Y-75464342D02*
X155509404Y-75226247D01*
X155509404Y-75226247D02*
X155461785Y-75131009D01*
X155461785Y-75131009D02*
X155414166Y-75083390D01*
X155414166Y-75083390D02*
X155318928Y-75035771D01*
X155318928Y-75035771D02*
X155128452Y-75035771D01*
X155128452Y-75035771D02*
X155033214Y-75083390D01*
X155033214Y-75083390D02*
X154985595Y-75131009D01*
X154985595Y-75131009D02*
X154937976Y-75226247D01*
X144155832Y-83222319D02*
X143822499Y-82746128D01*
X143584404Y-83222319D02*
X143584404Y-82222319D01*
X143584404Y-82222319D02*
X143965356Y-82222319D01*
X143965356Y-82222319D02*
X144060594Y-82269938D01*
X144060594Y-82269938D02*
X144108213Y-82317557D01*
X144108213Y-82317557D02*
X144155832Y-82412795D01*
X144155832Y-82412795D02*
X144155832Y-82555652D01*
X144155832Y-82555652D02*
X144108213Y-82650890D01*
X144108213Y-82650890D02*
X144060594Y-82698509D01*
X144060594Y-82698509D02*
X143965356Y-82746128D01*
X143965356Y-82746128D02*
X143584404Y-82746128D01*
X145108213Y-83222319D02*
X144536785Y-83222319D01*
X144822499Y-83222319D02*
X144822499Y-82222319D01*
X144822499Y-82222319D02*
X144727261Y-82365176D01*
X144727261Y-82365176D02*
X144632023Y-82460414D01*
X144632023Y-82460414D02*
X144536785Y-82508033D01*
X145727261Y-82222319D02*
X145822499Y-82222319D01*
X145822499Y-82222319D02*
X145917737Y-82269938D01*
X145917737Y-82269938D02*
X145965356Y-82317557D01*
X145965356Y-82317557D02*
X146012975Y-82412795D01*
X146012975Y-82412795D02*
X146060594Y-82603271D01*
X146060594Y-82603271D02*
X146060594Y-82841366D01*
X146060594Y-82841366D02*
X146012975Y-83031842D01*
X146012975Y-83031842D02*
X145965356Y-83127080D01*
X145965356Y-83127080D02*
X145917737Y-83174700D01*
X145917737Y-83174700D02*
X145822499Y-83222319D01*
X145822499Y-83222319D02*
X145727261Y-83222319D01*
X145727261Y-83222319D02*
X145632023Y-83174700D01*
X145632023Y-83174700D02*
X145584404Y-83127080D01*
X145584404Y-83127080D02*
X145536785Y-83031842D01*
X145536785Y-83031842D02*
X145489166Y-82841366D01*
X145489166Y-82841366D02*
X145489166Y-82603271D01*
X145489166Y-82603271D02*
X145536785Y-82412795D01*
X145536785Y-82412795D02*
X145584404Y-82317557D01*
X145584404Y-82317557D02*
X145632023Y-82269938D01*
X145632023Y-82269938D02*
X145727261Y-82222319D01*
X158886785Y-133122319D02*
X158886785Y-132122319D01*
X158886785Y-132598509D02*
X159458213Y-132598509D01*
X159458213Y-133122319D02*
X159458213Y-132122319D01*
X159886785Y-132217557D02*
X159934404Y-132169938D01*
X159934404Y-132169938D02*
X160029642Y-132122319D01*
X160029642Y-132122319D02*
X160267737Y-132122319D01*
X160267737Y-132122319D02*
X160362975Y-132169938D01*
X160362975Y-132169938D02*
X160410594Y-132217557D01*
X160410594Y-132217557D02*
X160458213Y-132312795D01*
X160458213Y-132312795D02*
X160458213Y-132408033D01*
X160458213Y-132408033D02*
X160410594Y-132550890D01*
X160410594Y-132550890D02*
X159839166Y-133122319D01*
X159839166Y-133122319D02*
X160458213Y-133122319D01*
X147902143Y-90559580D02*
X147854524Y-90607200D01*
X147854524Y-90607200D02*
X147711667Y-90654819D01*
X147711667Y-90654819D02*
X147616429Y-90654819D01*
X147616429Y-90654819D02*
X147473572Y-90607200D01*
X147473572Y-90607200D02*
X147378334Y-90511961D01*
X147378334Y-90511961D02*
X147330715Y-90416723D01*
X147330715Y-90416723D02*
X147283096Y-90226247D01*
X147283096Y-90226247D02*
X147283096Y-90083390D01*
X147283096Y-90083390D02*
X147330715Y-89892914D01*
X147330715Y-89892914D02*
X147378334Y-89797676D01*
X147378334Y-89797676D02*
X147473572Y-89702438D01*
X147473572Y-89702438D02*
X147616429Y-89654819D01*
X147616429Y-89654819D02*
X147711667Y-89654819D01*
X147711667Y-89654819D02*
X147854524Y-89702438D01*
X147854524Y-89702438D02*
X147902143Y-89750057D01*
X148854524Y-90654819D02*
X148283096Y-90654819D01*
X148568810Y-90654819D02*
X148568810Y-89654819D01*
X148568810Y-89654819D02*
X148473572Y-89797676D01*
X148473572Y-89797676D02*
X148378334Y-89892914D01*
X148378334Y-89892914D02*
X148283096Y-89940533D01*
X149759286Y-89654819D02*
X149283096Y-89654819D01*
X149283096Y-89654819D02*
X149235477Y-90131009D01*
X149235477Y-90131009D02*
X149283096Y-90083390D01*
X149283096Y-90083390D02*
X149378334Y-90035771D01*
X149378334Y-90035771D02*
X149616429Y-90035771D01*
X149616429Y-90035771D02*
X149711667Y-90083390D01*
X149711667Y-90083390D02*
X149759286Y-90131009D01*
X149759286Y-90131009D02*
X149806905Y-90226247D01*
X149806905Y-90226247D02*
X149806905Y-90464342D01*
X149806905Y-90464342D02*
X149759286Y-90559580D01*
X149759286Y-90559580D02*
X149711667Y-90607200D01*
X149711667Y-90607200D02*
X149616429Y-90654819D01*
X149616429Y-90654819D02*
X149378334Y-90654819D01*
X149378334Y-90654819D02*
X149283096Y-90607200D01*
X149283096Y-90607200D02*
X149235477Y-90559580D01*
X165886785Y-133122319D02*
X165886785Y-132122319D01*
X165886785Y-132598509D02*
X166458213Y-132598509D01*
X166458213Y-133122319D02*
X166458213Y-132122319D01*
X167458213Y-133122319D02*
X166886785Y-133122319D01*
X167172499Y-133122319D02*
X167172499Y-132122319D01*
X167172499Y-132122319D02*
X167077261Y-132265176D01*
X167077261Y-132265176D02*
X166982023Y-132360414D01*
X166982023Y-132360414D02*
X166886785Y-132408033D01*
X163833333Y-75659580D02*
X163785714Y-75707200D01*
X163785714Y-75707200D02*
X163642857Y-75754819D01*
X163642857Y-75754819D02*
X163547619Y-75754819D01*
X163547619Y-75754819D02*
X163404762Y-75707200D01*
X163404762Y-75707200D02*
X163309524Y-75611961D01*
X163309524Y-75611961D02*
X163261905Y-75516723D01*
X163261905Y-75516723D02*
X163214286Y-75326247D01*
X163214286Y-75326247D02*
X163214286Y-75183390D01*
X163214286Y-75183390D02*
X163261905Y-74992914D01*
X163261905Y-74992914D02*
X163309524Y-74897676D01*
X163309524Y-74897676D02*
X163404762Y-74802438D01*
X163404762Y-74802438D02*
X163547619Y-74754819D01*
X163547619Y-74754819D02*
X163642857Y-74754819D01*
X163642857Y-74754819D02*
X163785714Y-74802438D01*
X163785714Y-74802438D02*
X163833333Y-74850057D01*
X164404762Y-75183390D02*
X164309524Y-75135771D01*
X164309524Y-75135771D02*
X164261905Y-75088152D01*
X164261905Y-75088152D02*
X164214286Y-74992914D01*
X164214286Y-74992914D02*
X164214286Y-74945295D01*
X164214286Y-74945295D02*
X164261905Y-74850057D01*
X164261905Y-74850057D02*
X164309524Y-74802438D01*
X164309524Y-74802438D02*
X164404762Y-74754819D01*
X164404762Y-74754819D02*
X164595238Y-74754819D01*
X164595238Y-74754819D02*
X164690476Y-74802438D01*
X164690476Y-74802438D02*
X164738095Y-74850057D01*
X164738095Y-74850057D02*
X164785714Y-74945295D01*
X164785714Y-74945295D02*
X164785714Y-74992914D01*
X164785714Y-74992914D02*
X164738095Y-75088152D01*
X164738095Y-75088152D02*
X164690476Y-75135771D01*
X164690476Y-75135771D02*
X164595238Y-75183390D01*
X164595238Y-75183390D02*
X164404762Y-75183390D01*
X164404762Y-75183390D02*
X164309524Y-75231009D01*
X164309524Y-75231009D02*
X164261905Y-75278628D01*
X164261905Y-75278628D02*
X164214286Y-75373866D01*
X164214286Y-75373866D02*
X164214286Y-75564342D01*
X164214286Y-75564342D02*
X164261905Y-75659580D01*
X164261905Y-75659580D02*
X164309524Y-75707200D01*
X164309524Y-75707200D02*
X164404762Y-75754819D01*
X164404762Y-75754819D02*
X164595238Y-75754819D01*
X164595238Y-75754819D02*
X164690476Y-75707200D01*
X164690476Y-75707200D02*
X164738095Y-75659580D01*
X164738095Y-75659580D02*
X164785714Y-75564342D01*
X164785714Y-75564342D02*
X164785714Y-75373866D01*
X164785714Y-75373866D02*
X164738095Y-75278628D01*
X164738095Y-75278628D02*
X164690476Y-75231009D01*
X164690476Y-75231009D02*
X164595238Y-75183390D01*
X141660595Y-106222319D02*
X141660595Y-105222319D01*
X141660595Y-105222319D02*
X141898690Y-105222319D01*
X141898690Y-105222319D02*
X142041547Y-105269938D01*
X142041547Y-105269938D02*
X142136785Y-105365176D01*
X142136785Y-105365176D02*
X142184404Y-105460414D01*
X142184404Y-105460414D02*
X142232023Y-105650890D01*
X142232023Y-105650890D02*
X142232023Y-105793747D01*
X142232023Y-105793747D02*
X142184404Y-105984223D01*
X142184404Y-105984223D02*
X142136785Y-106079461D01*
X142136785Y-106079461D02*
X142041547Y-106174700D01*
X142041547Y-106174700D02*
X141898690Y-106222319D01*
X141898690Y-106222319D02*
X141660595Y-106222319D01*
X142565357Y-105222319D02*
X143184404Y-105222319D01*
X143184404Y-105222319D02*
X142851071Y-105603271D01*
X142851071Y-105603271D02*
X142993928Y-105603271D01*
X142993928Y-105603271D02*
X143089166Y-105650890D01*
X143089166Y-105650890D02*
X143136785Y-105698509D01*
X143136785Y-105698509D02*
X143184404Y-105793747D01*
X143184404Y-105793747D02*
X143184404Y-106031842D01*
X143184404Y-106031842D02*
X143136785Y-106127080D01*
X143136785Y-106127080D02*
X143089166Y-106174700D01*
X143089166Y-106174700D02*
X142993928Y-106222319D01*
X142993928Y-106222319D02*
X142708214Y-106222319D01*
X142708214Y-106222319D02*
X142612976Y-106174700D01*
X142612976Y-106174700D02*
X142565357Y-106127080D01*
X139658690Y-102692319D02*
X139658690Y-102930414D01*
X139420595Y-102835176D02*
X139658690Y-102930414D01*
X139658690Y-102930414D02*
X139896785Y-102835176D01*
X139515833Y-103120890D02*
X139658690Y-102930414D01*
X139658690Y-102930414D02*
X139801547Y-103120890D01*
X139648690Y-102722319D02*
X139648690Y-102960414D01*
X139410595Y-102865176D02*
X139648690Y-102960414D01*
X139648690Y-102960414D02*
X139886785Y-102865176D01*
X139505833Y-103150890D02*
X139648690Y-102960414D01*
X139648690Y-102960414D02*
X139791547Y-103150890D01*
X140801695Y-83222319D02*
X140801695Y-82222319D01*
X140801695Y-82222319D02*
X141039790Y-82222319D01*
X141039790Y-82222319D02*
X141182647Y-82269938D01*
X141182647Y-82269938D02*
X141277885Y-82365176D01*
X141277885Y-82365176D02*
X141325504Y-82460414D01*
X141325504Y-82460414D02*
X141373123Y-82650890D01*
X141373123Y-82650890D02*
X141373123Y-82793747D01*
X141373123Y-82793747D02*
X141325504Y-82984223D01*
X141325504Y-82984223D02*
X141277885Y-83079461D01*
X141277885Y-83079461D02*
X141182647Y-83174700D01*
X141182647Y-83174700D02*
X141039790Y-83222319D01*
X141039790Y-83222319D02*
X140801695Y-83222319D01*
X142325504Y-83222319D02*
X141754076Y-83222319D01*
X142039790Y-83222319D02*
X142039790Y-82222319D01*
X142039790Y-82222319D02*
X141944552Y-82365176D01*
X141944552Y-82365176D02*
X141849314Y-82460414D01*
X141849314Y-82460414D02*
X141754076Y-82508033D01*
X138898690Y-79722319D02*
X138898690Y-79960414D01*
X138660595Y-79865176D02*
X138898690Y-79960414D01*
X138898690Y-79960414D02*
X139136785Y-79865176D01*
X138755833Y-80150890D02*
X138898690Y-79960414D01*
X138898690Y-79960414D02*
X139041547Y-80150890D01*
X138799790Y-79692319D02*
X138799790Y-79930414D01*
X138561695Y-79835176D02*
X138799790Y-79930414D01*
X138799790Y-79930414D02*
X139037885Y-79835176D01*
X138656933Y-80120890D02*
X138799790Y-79930414D01*
X138799790Y-79930414D02*
X138942647Y-80120890D01*
X160157142Y-103559580D02*
X160109523Y-103607200D01*
X160109523Y-103607200D02*
X159966666Y-103654819D01*
X159966666Y-103654819D02*
X159871428Y-103654819D01*
X159871428Y-103654819D02*
X159728571Y-103607200D01*
X159728571Y-103607200D02*
X159633333Y-103511961D01*
X159633333Y-103511961D02*
X159585714Y-103416723D01*
X159585714Y-103416723D02*
X159538095Y-103226247D01*
X159538095Y-103226247D02*
X159538095Y-103083390D01*
X159538095Y-103083390D02*
X159585714Y-102892914D01*
X159585714Y-102892914D02*
X159633333Y-102797676D01*
X159633333Y-102797676D02*
X159728571Y-102702438D01*
X159728571Y-102702438D02*
X159871428Y-102654819D01*
X159871428Y-102654819D02*
X159966666Y-102654819D01*
X159966666Y-102654819D02*
X160109523Y-102702438D01*
X160109523Y-102702438D02*
X160157142Y-102750057D01*
X161109523Y-103654819D02*
X160538095Y-103654819D01*
X160823809Y-103654819D02*
X160823809Y-102654819D01*
X160823809Y-102654819D02*
X160728571Y-102797676D01*
X160728571Y-102797676D02*
X160633333Y-102892914D01*
X160633333Y-102892914D02*
X160538095Y-102940533D01*
X161442857Y-102654819D02*
X162061904Y-102654819D01*
X162061904Y-102654819D02*
X161728571Y-103035771D01*
X161728571Y-103035771D02*
X161871428Y-103035771D01*
X161871428Y-103035771D02*
X161966666Y-103083390D01*
X161966666Y-103083390D02*
X162014285Y-103131009D01*
X162014285Y-103131009D02*
X162061904Y-103226247D01*
X162061904Y-103226247D02*
X162061904Y-103464342D01*
X162061904Y-103464342D02*
X162014285Y-103559580D01*
X162014285Y-103559580D02*
X161966666Y-103607200D01*
X161966666Y-103607200D02*
X161871428Y-103654819D01*
X161871428Y-103654819D02*
X161585714Y-103654819D01*
X161585714Y-103654819D02*
X161490476Y-103607200D01*
X161490476Y-103607200D02*
X161442857Y-103559580D01*
X140857142Y-90559580D02*
X140809523Y-90607200D01*
X140809523Y-90607200D02*
X140666666Y-90654819D01*
X140666666Y-90654819D02*
X140571428Y-90654819D01*
X140571428Y-90654819D02*
X140428571Y-90607200D01*
X140428571Y-90607200D02*
X140333333Y-90511961D01*
X140333333Y-90511961D02*
X140285714Y-90416723D01*
X140285714Y-90416723D02*
X140238095Y-90226247D01*
X140238095Y-90226247D02*
X140238095Y-90083390D01*
X140238095Y-90083390D02*
X140285714Y-89892914D01*
X140285714Y-89892914D02*
X140333333Y-89797676D01*
X140333333Y-89797676D02*
X140428571Y-89702438D01*
X140428571Y-89702438D02*
X140571428Y-89654819D01*
X140571428Y-89654819D02*
X140666666Y-89654819D01*
X140666666Y-89654819D02*
X140809523Y-89702438D01*
X140809523Y-89702438D02*
X140857142Y-89750057D01*
X141809523Y-90654819D02*
X141238095Y-90654819D01*
X141523809Y-90654819D02*
X141523809Y-89654819D01*
X141523809Y-89654819D02*
X141428571Y-89797676D01*
X141428571Y-89797676D02*
X141333333Y-89892914D01*
X141333333Y-89892914D02*
X141238095Y-89940533D01*
X142142857Y-89654819D02*
X142809523Y-89654819D01*
X142809523Y-89654819D02*
X142380952Y-90654819D01*
X141755832Y-116877080D02*
X141708213Y-116924700D01*
X141708213Y-116924700D02*
X141565356Y-116972319D01*
X141565356Y-116972319D02*
X141470118Y-116972319D01*
X141470118Y-116972319D02*
X141327261Y-116924700D01*
X141327261Y-116924700D02*
X141232023Y-116829461D01*
X141232023Y-116829461D02*
X141184404Y-116734223D01*
X141184404Y-116734223D02*
X141136785Y-116543747D01*
X141136785Y-116543747D02*
X141136785Y-116400890D01*
X141136785Y-116400890D02*
X141184404Y-116210414D01*
X141184404Y-116210414D02*
X141232023Y-116115176D01*
X141232023Y-116115176D02*
X141327261Y-116019938D01*
X141327261Y-116019938D02*
X141470118Y-115972319D01*
X141470118Y-115972319D02*
X141565356Y-115972319D01*
X141565356Y-115972319D02*
X141708213Y-116019938D01*
X141708213Y-116019938D02*
X141755832Y-116067557D01*
X142136785Y-116067557D02*
X142184404Y-116019938D01*
X142184404Y-116019938D02*
X142279642Y-115972319D01*
X142279642Y-115972319D02*
X142517737Y-115972319D01*
X142517737Y-115972319D02*
X142612975Y-116019938D01*
X142612975Y-116019938D02*
X142660594Y-116067557D01*
X142660594Y-116067557D02*
X142708213Y-116162795D01*
X142708213Y-116162795D02*
X142708213Y-116258033D01*
X142708213Y-116258033D02*
X142660594Y-116400890D01*
X142660594Y-116400890D02*
X142089166Y-116972319D01*
X142089166Y-116972319D02*
X142708213Y-116972319D01*
X143279642Y-116400890D02*
X143184404Y-116353271D01*
X143184404Y-116353271D02*
X143136785Y-116305652D01*
X143136785Y-116305652D02*
X143089166Y-116210414D01*
X143089166Y-116210414D02*
X143089166Y-116162795D01*
X143089166Y-116162795D02*
X143136785Y-116067557D01*
X143136785Y-116067557D02*
X143184404Y-116019938D01*
X143184404Y-116019938D02*
X143279642Y-115972319D01*
X143279642Y-115972319D02*
X143470118Y-115972319D01*
X143470118Y-115972319D02*
X143565356Y-116019938D01*
X143565356Y-116019938D02*
X143612975Y-116067557D01*
X143612975Y-116067557D02*
X143660594Y-116162795D01*
X143660594Y-116162795D02*
X143660594Y-116210414D01*
X143660594Y-116210414D02*
X143612975Y-116305652D01*
X143612975Y-116305652D02*
X143565356Y-116353271D01*
X143565356Y-116353271D02*
X143470118Y-116400890D01*
X143470118Y-116400890D02*
X143279642Y-116400890D01*
X143279642Y-116400890D02*
X143184404Y-116448509D01*
X143184404Y-116448509D02*
X143136785Y-116496128D01*
X143136785Y-116496128D02*
X143089166Y-116591366D01*
X143089166Y-116591366D02*
X143089166Y-116781842D01*
X143089166Y-116781842D02*
X143136785Y-116877080D01*
X143136785Y-116877080D02*
X143184404Y-116924700D01*
X143184404Y-116924700D02*
X143279642Y-116972319D01*
X143279642Y-116972319D02*
X143470118Y-116972319D01*
X143470118Y-116972319D02*
X143565356Y-116924700D01*
X143565356Y-116924700D02*
X143612975Y-116877080D01*
X143612975Y-116877080D02*
X143660594Y-116781842D01*
X143660594Y-116781842D02*
X143660594Y-116591366D01*
X143660594Y-116591366D02*
X143612975Y-116496128D01*
X143612975Y-116496128D02*
X143565356Y-116448509D01*
X143565356Y-116448509D02*
X143470118Y-116400890D01*
X171065356Y-68972319D02*
X171065356Y-69686604D01*
X171065356Y-69686604D02*
X171017737Y-69829461D01*
X171017737Y-69829461D02*
X170922499Y-69924700D01*
X170922499Y-69924700D02*
X170779642Y-69972319D01*
X170779642Y-69972319D02*
X170684404Y-69972319D01*
X171493928Y-69067557D02*
X171541547Y-69019938D01*
X171541547Y-69019938D02*
X171636785Y-68972319D01*
X171636785Y-68972319D02*
X171874880Y-68972319D01*
X171874880Y-68972319D02*
X171970118Y-69019938D01*
X171970118Y-69019938D02*
X172017737Y-69067557D01*
X172017737Y-69067557D02*
X172065356Y-69162795D01*
X172065356Y-69162795D02*
X172065356Y-69258033D01*
X172065356Y-69258033D02*
X172017737Y-69400890D01*
X172017737Y-69400890D02*
X171446309Y-69972319D01*
X171446309Y-69972319D02*
X172065356Y-69972319D01*
X151402142Y-101569580D02*
X151354523Y-101617200D01*
X151354523Y-101617200D02*
X151211666Y-101664819D01*
X151211666Y-101664819D02*
X151116428Y-101664819D01*
X151116428Y-101664819D02*
X150973571Y-101617200D01*
X150973571Y-101617200D02*
X150878333Y-101521961D01*
X150878333Y-101521961D02*
X150830714Y-101426723D01*
X150830714Y-101426723D02*
X150783095Y-101236247D01*
X150783095Y-101236247D02*
X150783095Y-101093390D01*
X150783095Y-101093390D02*
X150830714Y-100902914D01*
X150830714Y-100902914D02*
X150878333Y-100807676D01*
X150878333Y-100807676D02*
X150973571Y-100712438D01*
X150973571Y-100712438D02*
X151116428Y-100664819D01*
X151116428Y-100664819D02*
X151211666Y-100664819D01*
X151211666Y-100664819D02*
X151354523Y-100712438D01*
X151354523Y-100712438D02*
X151402142Y-100760057D01*
X152354523Y-101664819D02*
X151783095Y-101664819D01*
X152068809Y-101664819D02*
X152068809Y-100664819D01*
X152068809Y-100664819D02*
X151973571Y-100807676D01*
X151973571Y-100807676D02*
X151878333Y-100902914D01*
X151878333Y-100902914D02*
X151783095Y-100950533D01*
X152973571Y-100664819D02*
X153068809Y-100664819D01*
X153068809Y-100664819D02*
X153164047Y-100712438D01*
X153164047Y-100712438D02*
X153211666Y-100760057D01*
X153211666Y-100760057D02*
X153259285Y-100855295D01*
X153259285Y-100855295D02*
X153306904Y-101045771D01*
X153306904Y-101045771D02*
X153306904Y-101283866D01*
X153306904Y-101283866D02*
X153259285Y-101474342D01*
X153259285Y-101474342D02*
X153211666Y-101569580D01*
X153211666Y-101569580D02*
X153164047Y-101617200D01*
X153164047Y-101617200D02*
X153068809Y-101664819D01*
X153068809Y-101664819D02*
X152973571Y-101664819D01*
X152973571Y-101664819D02*
X152878333Y-101617200D01*
X152878333Y-101617200D02*
X152830714Y-101569580D01*
X152830714Y-101569580D02*
X152783095Y-101474342D01*
X152783095Y-101474342D02*
X152735476Y-101283866D01*
X152735476Y-101283866D02*
X152735476Y-101045771D01*
X152735476Y-101045771D02*
X152783095Y-100855295D01*
X152783095Y-100855295D02*
X152830714Y-100760057D01*
X152830714Y-100760057D02*
X152878333Y-100712438D01*
X152878333Y-100712438D02*
X152973571Y-100664819D01*
X165857023Y-79129580D02*
X165809404Y-79177200D01*
X165809404Y-79177200D02*
X165666547Y-79224819D01*
X165666547Y-79224819D02*
X165571309Y-79224819D01*
X165571309Y-79224819D02*
X165428452Y-79177200D01*
X165428452Y-79177200D02*
X165333214Y-79081961D01*
X165333214Y-79081961D02*
X165285595Y-78986723D01*
X165285595Y-78986723D02*
X165237976Y-78796247D01*
X165237976Y-78796247D02*
X165237976Y-78653390D01*
X165237976Y-78653390D02*
X165285595Y-78462914D01*
X165285595Y-78462914D02*
X165333214Y-78367676D01*
X165333214Y-78367676D02*
X165428452Y-78272438D01*
X165428452Y-78272438D02*
X165571309Y-78224819D01*
X165571309Y-78224819D02*
X165666547Y-78224819D01*
X165666547Y-78224819D02*
X165809404Y-78272438D01*
X165809404Y-78272438D02*
X165857023Y-78320057D01*
X166190357Y-78224819D02*
X166857023Y-78224819D01*
X166857023Y-78224819D02*
X166428452Y-79224819D01*
X151407142Y-90559580D02*
X151359523Y-90607200D01*
X151359523Y-90607200D02*
X151216666Y-90654819D01*
X151216666Y-90654819D02*
X151121428Y-90654819D01*
X151121428Y-90654819D02*
X150978571Y-90607200D01*
X150978571Y-90607200D02*
X150883333Y-90511961D01*
X150883333Y-90511961D02*
X150835714Y-90416723D01*
X150835714Y-90416723D02*
X150788095Y-90226247D01*
X150788095Y-90226247D02*
X150788095Y-90083390D01*
X150788095Y-90083390D02*
X150835714Y-89892914D01*
X150835714Y-89892914D02*
X150883333Y-89797676D01*
X150883333Y-89797676D02*
X150978571Y-89702438D01*
X150978571Y-89702438D02*
X151121428Y-89654819D01*
X151121428Y-89654819D02*
X151216666Y-89654819D01*
X151216666Y-89654819D02*
X151359523Y-89702438D01*
X151359523Y-89702438D02*
X151407142Y-89750057D01*
X152359523Y-90654819D02*
X151788095Y-90654819D01*
X152073809Y-90654819D02*
X152073809Y-89654819D01*
X152073809Y-89654819D02*
X151978571Y-89797676D01*
X151978571Y-89797676D02*
X151883333Y-89892914D01*
X151883333Y-89892914D02*
X151788095Y-89940533D01*
X153216666Y-89988152D02*
X153216666Y-90654819D01*
X152978571Y-89607200D02*
X152740476Y-90321485D01*
X152740476Y-90321485D02*
X153359523Y-90321485D01*
X166307023Y-85654819D02*
X165973690Y-85178628D01*
X165735595Y-85654819D02*
X165735595Y-84654819D01*
X165735595Y-84654819D02*
X166116547Y-84654819D01*
X166116547Y-84654819D02*
X166211785Y-84702438D01*
X166211785Y-84702438D02*
X166259404Y-84750057D01*
X166259404Y-84750057D02*
X166307023Y-84845295D01*
X166307023Y-84845295D02*
X166307023Y-84988152D01*
X166307023Y-84988152D02*
X166259404Y-85083390D01*
X166259404Y-85083390D02*
X166211785Y-85131009D01*
X166211785Y-85131009D02*
X166116547Y-85178628D01*
X166116547Y-85178628D02*
X165735595Y-85178628D01*
X166687976Y-84750057D02*
X166735595Y-84702438D01*
X166735595Y-84702438D02*
X166830833Y-84654819D01*
X166830833Y-84654819D02*
X167068928Y-84654819D01*
X167068928Y-84654819D02*
X167164166Y-84702438D01*
X167164166Y-84702438D02*
X167211785Y-84750057D01*
X167211785Y-84750057D02*
X167259404Y-84845295D01*
X167259404Y-84845295D02*
X167259404Y-84940533D01*
X167259404Y-84940533D02*
X167211785Y-85083390D01*
X167211785Y-85083390D02*
X166640357Y-85654819D01*
X166640357Y-85654819D02*
X167259404Y-85654819D01*
X165557023Y-83154819D02*
X165223690Y-82678628D01*
X164985595Y-83154819D02*
X164985595Y-82154819D01*
X164985595Y-82154819D02*
X165366547Y-82154819D01*
X165366547Y-82154819D02*
X165461785Y-82202438D01*
X165461785Y-82202438D02*
X165509404Y-82250057D01*
X165509404Y-82250057D02*
X165557023Y-82345295D01*
X165557023Y-82345295D02*
X165557023Y-82488152D01*
X165557023Y-82488152D02*
X165509404Y-82583390D01*
X165509404Y-82583390D02*
X165461785Y-82631009D01*
X165461785Y-82631009D02*
X165366547Y-82678628D01*
X165366547Y-82678628D02*
X164985595Y-82678628D01*
X165890357Y-82154819D02*
X166509404Y-82154819D01*
X166509404Y-82154819D02*
X166176071Y-82535771D01*
X166176071Y-82535771D02*
X166318928Y-82535771D01*
X166318928Y-82535771D02*
X166414166Y-82583390D01*
X166414166Y-82583390D02*
X166461785Y-82631009D01*
X166461785Y-82631009D02*
X166509404Y-82726247D01*
X166509404Y-82726247D02*
X166509404Y-82964342D01*
X166509404Y-82964342D02*
X166461785Y-83059580D01*
X166461785Y-83059580D02*
X166414166Y-83107200D01*
X166414166Y-83107200D02*
X166318928Y-83154819D01*
X166318928Y-83154819D02*
X166033214Y-83154819D01*
X166033214Y-83154819D02*
X165937976Y-83107200D01*
X165937976Y-83107200D02*
X165890357Y-83059580D01*
X144402142Y-90559580D02*
X144354523Y-90607200D01*
X144354523Y-90607200D02*
X144211666Y-90654819D01*
X144211666Y-90654819D02*
X144116428Y-90654819D01*
X144116428Y-90654819D02*
X143973571Y-90607200D01*
X143973571Y-90607200D02*
X143878333Y-90511961D01*
X143878333Y-90511961D02*
X143830714Y-90416723D01*
X143830714Y-90416723D02*
X143783095Y-90226247D01*
X143783095Y-90226247D02*
X143783095Y-90083390D01*
X143783095Y-90083390D02*
X143830714Y-89892914D01*
X143830714Y-89892914D02*
X143878333Y-89797676D01*
X143878333Y-89797676D02*
X143973571Y-89702438D01*
X143973571Y-89702438D02*
X144116428Y-89654819D01*
X144116428Y-89654819D02*
X144211666Y-89654819D01*
X144211666Y-89654819D02*
X144354523Y-89702438D01*
X144354523Y-89702438D02*
X144402142Y-89750057D01*
X145354523Y-90654819D02*
X144783095Y-90654819D01*
X145068809Y-90654819D02*
X145068809Y-89654819D01*
X145068809Y-89654819D02*
X144973571Y-89797676D01*
X144973571Y-89797676D02*
X144878333Y-89892914D01*
X144878333Y-89892914D02*
X144783095Y-89940533D01*
X146211666Y-89654819D02*
X146021190Y-89654819D01*
X146021190Y-89654819D02*
X145925952Y-89702438D01*
X145925952Y-89702438D02*
X145878333Y-89750057D01*
X145878333Y-89750057D02*
X145783095Y-89892914D01*
X145783095Y-89892914D02*
X145735476Y-90083390D01*
X145735476Y-90083390D02*
X145735476Y-90464342D01*
X145735476Y-90464342D02*
X145783095Y-90559580D01*
X145783095Y-90559580D02*
X145830714Y-90607200D01*
X145830714Y-90607200D02*
X145925952Y-90654819D01*
X145925952Y-90654819D02*
X146116428Y-90654819D01*
X146116428Y-90654819D02*
X146211666Y-90607200D01*
X146211666Y-90607200D02*
X146259285Y-90559580D01*
X146259285Y-90559580D02*
X146306904Y-90464342D01*
X146306904Y-90464342D02*
X146306904Y-90226247D01*
X146306904Y-90226247D02*
X146259285Y-90131009D01*
X146259285Y-90131009D02*
X146211666Y-90083390D01*
X146211666Y-90083390D02*
X146116428Y-90035771D01*
X146116428Y-90035771D02*
X145925952Y-90035771D01*
X145925952Y-90035771D02*
X145830714Y-90083390D01*
X145830714Y-90083390D02*
X145783095Y-90131009D01*
X145783095Y-90131009D02*
X145735476Y-90226247D01*
X146160595Y-127002319D02*
X146160595Y-126002319D01*
X146160595Y-126002319D02*
X146398690Y-126002319D01*
X146398690Y-126002319D02*
X146541547Y-126049938D01*
X146541547Y-126049938D02*
X146636785Y-126145176D01*
X146636785Y-126145176D02*
X146684404Y-126240414D01*
X146684404Y-126240414D02*
X146732023Y-126430890D01*
X146732023Y-126430890D02*
X146732023Y-126573747D01*
X146732023Y-126573747D02*
X146684404Y-126764223D01*
X146684404Y-126764223D02*
X146636785Y-126859461D01*
X146636785Y-126859461D02*
X146541547Y-126954700D01*
X146541547Y-126954700D02*
X146398690Y-127002319D01*
X146398690Y-127002319D02*
X146160595Y-127002319D01*
X147589166Y-126335652D02*
X147589166Y-127002319D01*
X147351071Y-125954700D02*
X147112976Y-126668985D01*
X147112976Y-126668985D02*
X147732023Y-126668985D01*
X140286785Y-128122319D02*
X140286785Y-127122319D01*
X140858213Y-128122319D02*
X140429642Y-127550890D01*
X140858213Y-127122319D02*
X140286785Y-127693747D01*
X146211905Y-88222319D02*
X146211905Y-87222319D01*
X146211905Y-87222319D02*
X146450000Y-87222319D01*
X146450000Y-87222319D02*
X146592857Y-87269938D01*
X146592857Y-87269938D02*
X146688095Y-87365176D01*
X146688095Y-87365176D02*
X146735714Y-87460414D01*
X146735714Y-87460414D02*
X146783333Y-87650890D01*
X146783333Y-87650890D02*
X146783333Y-87793747D01*
X146783333Y-87793747D02*
X146735714Y-87984223D01*
X146735714Y-87984223D02*
X146688095Y-88079461D01*
X146688095Y-88079461D02*
X146592857Y-88174700D01*
X146592857Y-88174700D02*
X146450000Y-88222319D01*
X146450000Y-88222319D02*
X146211905Y-88222319D01*
X147164286Y-87317557D02*
X147211905Y-87269938D01*
X147211905Y-87269938D02*
X147307143Y-87222319D01*
X147307143Y-87222319D02*
X147545238Y-87222319D01*
X147545238Y-87222319D02*
X147640476Y-87269938D01*
X147640476Y-87269938D02*
X147688095Y-87317557D01*
X147688095Y-87317557D02*
X147735714Y-87412795D01*
X147735714Y-87412795D02*
X147735714Y-87508033D01*
X147735714Y-87508033D02*
X147688095Y-87650890D01*
X147688095Y-87650890D02*
X147116667Y-88222319D01*
X147116667Y-88222319D02*
X147735714Y-88222319D01*
X144210000Y-84692319D02*
X144210000Y-84930414D01*
X143971905Y-84835176D02*
X144210000Y-84930414D01*
X144210000Y-84930414D02*
X144448095Y-84835176D01*
X144067143Y-85120890D02*
X144210000Y-84930414D01*
X144210000Y-84930414D02*
X144352857Y-85120890D01*
X144200000Y-84722319D02*
X144200000Y-84960414D01*
X143961905Y-84865176D02*
X144200000Y-84960414D01*
X144200000Y-84960414D02*
X144438095Y-84865176D01*
X144057143Y-85150890D02*
X144200000Y-84960414D01*
X144200000Y-84960414D02*
X144342857Y-85150890D01*
X151562023Y-72559580D02*
X151514404Y-72607200D01*
X151514404Y-72607200D02*
X151371547Y-72654819D01*
X151371547Y-72654819D02*
X151276309Y-72654819D01*
X151276309Y-72654819D02*
X151133452Y-72607200D01*
X151133452Y-72607200D02*
X151038214Y-72511961D01*
X151038214Y-72511961D02*
X150990595Y-72416723D01*
X150990595Y-72416723D02*
X150942976Y-72226247D01*
X150942976Y-72226247D02*
X150942976Y-72083390D01*
X150942976Y-72083390D02*
X150990595Y-71892914D01*
X150990595Y-71892914D02*
X151038214Y-71797676D01*
X151038214Y-71797676D02*
X151133452Y-71702438D01*
X151133452Y-71702438D02*
X151276309Y-71654819D01*
X151276309Y-71654819D02*
X151371547Y-71654819D01*
X151371547Y-71654819D02*
X151514404Y-71702438D01*
X151514404Y-71702438D02*
X151562023Y-71750057D01*
X152514404Y-72654819D02*
X151942976Y-72654819D01*
X152228690Y-72654819D02*
X152228690Y-71654819D01*
X152228690Y-71654819D02*
X152133452Y-71797676D01*
X152133452Y-71797676D02*
X152038214Y-71892914D01*
X152038214Y-71892914D02*
X151942976Y-71940533D01*
X154402143Y-93559580D02*
X154354524Y-93607200D01*
X154354524Y-93607200D02*
X154211667Y-93654819D01*
X154211667Y-93654819D02*
X154116429Y-93654819D01*
X154116429Y-93654819D02*
X153973572Y-93607200D01*
X153973572Y-93607200D02*
X153878334Y-93511961D01*
X153878334Y-93511961D02*
X153830715Y-93416723D01*
X153830715Y-93416723D02*
X153783096Y-93226247D01*
X153783096Y-93226247D02*
X153783096Y-93083390D01*
X153783096Y-93083390D02*
X153830715Y-92892914D01*
X153830715Y-92892914D02*
X153878334Y-92797676D01*
X153878334Y-92797676D02*
X153973572Y-92702438D01*
X153973572Y-92702438D02*
X154116429Y-92654819D01*
X154116429Y-92654819D02*
X154211667Y-92654819D01*
X154211667Y-92654819D02*
X154354524Y-92702438D01*
X154354524Y-92702438D02*
X154402143Y-92750057D01*
X155354524Y-93654819D02*
X154783096Y-93654819D01*
X155068810Y-93654819D02*
X155068810Y-92654819D01*
X155068810Y-92654819D02*
X154973572Y-92797676D01*
X154973572Y-92797676D02*
X154878334Y-92892914D01*
X154878334Y-92892914D02*
X154783096Y-92940533D01*
X156306905Y-93654819D02*
X155735477Y-93654819D01*
X156021191Y-93654819D02*
X156021191Y-92654819D01*
X156021191Y-92654819D02*
X155925953Y-92797676D01*
X155925953Y-92797676D02*
X155830715Y-92892914D01*
X155830715Y-92892914D02*
X155735477Y-92940533D01*
X141012023Y-72559580D02*
X140964404Y-72607200D01*
X140964404Y-72607200D02*
X140821547Y-72654819D01*
X140821547Y-72654819D02*
X140726309Y-72654819D01*
X140726309Y-72654819D02*
X140583452Y-72607200D01*
X140583452Y-72607200D02*
X140488214Y-72511961D01*
X140488214Y-72511961D02*
X140440595Y-72416723D01*
X140440595Y-72416723D02*
X140392976Y-72226247D01*
X140392976Y-72226247D02*
X140392976Y-72083390D01*
X140392976Y-72083390D02*
X140440595Y-71892914D01*
X140440595Y-71892914D02*
X140488214Y-71797676D01*
X140488214Y-71797676D02*
X140583452Y-71702438D01*
X140583452Y-71702438D02*
X140726309Y-71654819D01*
X140726309Y-71654819D02*
X140821547Y-71654819D01*
X140821547Y-71654819D02*
X140964404Y-71702438D01*
X140964404Y-71702438D02*
X141012023Y-71750057D01*
X141869166Y-71988152D02*
X141869166Y-72654819D01*
X141631071Y-71607200D02*
X141392976Y-72321485D01*
X141392976Y-72321485D02*
X142012023Y-72321485D01*
X148057023Y-72559580D02*
X148009404Y-72607200D01*
X148009404Y-72607200D02*
X147866547Y-72654819D01*
X147866547Y-72654819D02*
X147771309Y-72654819D01*
X147771309Y-72654819D02*
X147628452Y-72607200D01*
X147628452Y-72607200D02*
X147533214Y-72511961D01*
X147533214Y-72511961D02*
X147485595Y-72416723D01*
X147485595Y-72416723D02*
X147437976Y-72226247D01*
X147437976Y-72226247D02*
X147437976Y-72083390D01*
X147437976Y-72083390D02*
X147485595Y-71892914D01*
X147485595Y-71892914D02*
X147533214Y-71797676D01*
X147533214Y-71797676D02*
X147628452Y-71702438D01*
X147628452Y-71702438D02*
X147771309Y-71654819D01*
X147771309Y-71654819D02*
X147866547Y-71654819D01*
X147866547Y-71654819D02*
X148009404Y-71702438D01*
X148009404Y-71702438D02*
X148057023Y-71750057D01*
X148437976Y-71750057D02*
X148485595Y-71702438D01*
X148485595Y-71702438D02*
X148580833Y-71654819D01*
X148580833Y-71654819D02*
X148818928Y-71654819D01*
X148818928Y-71654819D02*
X148914166Y-71702438D01*
X148914166Y-71702438D02*
X148961785Y-71750057D01*
X148961785Y-71750057D02*
X149009404Y-71845295D01*
X149009404Y-71845295D02*
X149009404Y-71940533D01*
X149009404Y-71940533D02*
X148961785Y-72083390D01*
X148961785Y-72083390D02*
X148390357Y-72654819D01*
X148390357Y-72654819D02*
X149009404Y-72654819D01*
X145005832Y-106222319D02*
X144672499Y-105746128D01*
X144434404Y-106222319D02*
X144434404Y-105222319D01*
X144434404Y-105222319D02*
X144815356Y-105222319D01*
X144815356Y-105222319D02*
X144910594Y-105269938D01*
X144910594Y-105269938D02*
X144958213Y-105317557D01*
X144958213Y-105317557D02*
X145005832Y-105412795D01*
X145005832Y-105412795D02*
X145005832Y-105555652D01*
X145005832Y-105555652D02*
X144958213Y-105650890D01*
X144958213Y-105650890D02*
X144910594Y-105698509D01*
X144910594Y-105698509D02*
X144815356Y-105746128D01*
X144815356Y-105746128D02*
X144434404Y-105746128D01*
X145958213Y-106222319D02*
X145386785Y-106222319D01*
X145672499Y-106222319D02*
X145672499Y-105222319D01*
X145672499Y-105222319D02*
X145577261Y-105365176D01*
X145577261Y-105365176D02*
X145482023Y-105460414D01*
X145482023Y-105460414D02*
X145386785Y-105508033D01*
X146339166Y-105317557D02*
X146386785Y-105269938D01*
X146386785Y-105269938D02*
X146482023Y-105222319D01*
X146482023Y-105222319D02*
X146720118Y-105222319D01*
X146720118Y-105222319D02*
X146815356Y-105269938D01*
X146815356Y-105269938D02*
X146862975Y-105317557D01*
X146862975Y-105317557D02*
X146910594Y-105412795D01*
X146910594Y-105412795D02*
X146910594Y-105508033D01*
X146910594Y-105508033D02*
X146862975Y-105650890D01*
X146862975Y-105650890D02*
X146291547Y-106222319D01*
X146291547Y-106222319D02*
X146910594Y-106222319D01*
X155128334Y-101754819D02*
X154795001Y-101278628D01*
X154556906Y-101754819D02*
X154556906Y-100754819D01*
X154556906Y-100754819D02*
X154937858Y-100754819D01*
X154937858Y-100754819D02*
X155033096Y-100802438D01*
X155033096Y-100802438D02*
X155080715Y-100850057D01*
X155080715Y-100850057D02*
X155128334Y-100945295D01*
X155128334Y-100945295D02*
X155128334Y-101088152D01*
X155128334Y-101088152D02*
X155080715Y-101183390D01*
X155080715Y-101183390D02*
X155033096Y-101231009D01*
X155033096Y-101231009D02*
X154937858Y-101278628D01*
X154937858Y-101278628D02*
X154556906Y-101278628D01*
X156033096Y-100754819D02*
X155556906Y-100754819D01*
X155556906Y-100754819D02*
X155509287Y-101231009D01*
X155509287Y-101231009D02*
X155556906Y-101183390D01*
X155556906Y-101183390D02*
X155652144Y-101135771D01*
X155652144Y-101135771D02*
X155890239Y-101135771D01*
X155890239Y-101135771D02*
X155985477Y-101183390D01*
X155985477Y-101183390D02*
X156033096Y-101231009D01*
X156033096Y-101231009D02*
X156080715Y-101326247D01*
X156080715Y-101326247D02*
X156080715Y-101564342D01*
X156080715Y-101564342D02*
X156033096Y-101659580D01*
X156033096Y-101659580D02*
X155985477Y-101707200D01*
X155985477Y-101707200D02*
X155890239Y-101754819D01*
X155890239Y-101754819D02*
X155652144Y-101754819D01*
X155652144Y-101754819D02*
X155556906Y-101707200D01*
X155556906Y-101707200D02*
X155509287Y-101659580D01*
X166628333Y-103654819D02*
X166295000Y-103178628D01*
X166056905Y-103654819D02*
X166056905Y-102654819D01*
X166056905Y-102654819D02*
X166437857Y-102654819D01*
X166437857Y-102654819D02*
X166533095Y-102702438D01*
X166533095Y-102702438D02*
X166580714Y-102750057D01*
X166580714Y-102750057D02*
X166628333Y-102845295D01*
X166628333Y-102845295D02*
X166628333Y-102988152D01*
X166628333Y-102988152D02*
X166580714Y-103083390D01*
X166580714Y-103083390D02*
X166533095Y-103131009D01*
X166533095Y-103131009D02*
X166437857Y-103178628D01*
X166437857Y-103178628D02*
X166056905Y-103178628D01*
X167485476Y-102988152D02*
X167485476Y-103654819D01*
X167247381Y-102607200D02*
X167009286Y-103321485D01*
X167009286Y-103321485D02*
X167628333Y-103321485D01*
X154833333Y-70454819D02*
X154357143Y-70454819D01*
X154357143Y-70454819D02*
X154357143Y-69454819D01*
X155690476Y-70454819D02*
X155119048Y-70454819D01*
X155404762Y-70454819D02*
X155404762Y-69454819D01*
X155404762Y-69454819D02*
X155309524Y-69597676D01*
X155309524Y-69597676D02*
X155214286Y-69692914D01*
X155214286Y-69692914D02*
X155119048Y-69740533D01*
X152260595Y-127972319D02*
X152260595Y-126972319D01*
X152260595Y-126972319D02*
X152498690Y-126972319D01*
X152498690Y-126972319D02*
X152641547Y-127019938D01*
X152641547Y-127019938D02*
X152736785Y-127115176D01*
X152736785Y-127115176D02*
X152784404Y-127210414D01*
X152784404Y-127210414D02*
X152832023Y-127400890D01*
X152832023Y-127400890D02*
X152832023Y-127543747D01*
X152832023Y-127543747D02*
X152784404Y-127734223D01*
X152784404Y-127734223D02*
X152736785Y-127829461D01*
X152736785Y-127829461D02*
X152641547Y-127924700D01*
X152641547Y-127924700D02*
X152498690Y-127972319D01*
X152498690Y-127972319D02*
X152260595Y-127972319D01*
X153736785Y-126972319D02*
X153260595Y-126972319D01*
X153260595Y-126972319D02*
X153212976Y-127448509D01*
X153212976Y-127448509D02*
X153260595Y-127400890D01*
X153260595Y-127400890D02*
X153355833Y-127353271D01*
X153355833Y-127353271D02*
X153593928Y-127353271D01*
X153593928Y-127353271D02*
X153689166Y-127400890D01*
X153689166Y-127400890D02*
X153736785Y-127448509D01*
X153736785Y-127448509D02*
X153784404Y-127543747D01*
X153784404Y-127543747D02*
X153784404Y-127781842D01*
X153784404Y-127781842D02*
X153736785Y-127877080D01*
X153736785Y-127877080D02*
X153689166Y-127924700D01*
X153689166Y-127924700D02*
X153593928Y-127972319D01*
X153593928Y-127972319D02*
X153355833Y-127972319D01*
X153355833Y-127972319D02*
X153260595Y-127924700D01*
X153260595Y-127924700D02*
X153212976Y-127877080D01*
D11*
%TO.C,C19*%
X162609420Y-106550000D02*
X162890580Y-106550000D01*
X162609420Y-107570000D02*
X162890580Y-107570000D01*
%TO.C,C20*%
X162859420Y-108300000D02*
X163140580Y-108300000D01*
X162859420Y-109320000D02*
X163140580Y-109320000D01*
%TO.C,C21*%
X163038748Y-109900000D02*
X164461252Y-109900000D01*
X163038748Y-111720000D02*
X164461252Y-111720000D01*
%TO.C,L3*%
X160000000Y-113850000D02*
G75*
G02*
X160623099Y-113917731I9J-2899915D01*
G01*
X159375312Y-113918081D02*
G75*
G02*
X160000000Y-113850000I624680J-2831847D01*
G01*
X160621781Y-119582559D02*
G75*
G02*
X160000000Y-119650003I-621781J2832459D01*
G01*
X160000000Y-119650000D02*
G75*
G02*
X159370520Y-119581472I-9J2925297D01*
G01*
%TO.C,D6*%
X148740000Y-114100000D02*
X148740000Y-117400000D01*
X148740000Y-114100000D02*
X154250000Y-114100000D01*
X148740000Y-117400000D02*
X154250000Y-117400000D01*
D12*
%TO.C,U3*%
X160325000Y-111885000D02*
X160325000Y-111510000D01*
X160325000Y-111885000D02*
X159950000Y-111885000D01*
X160325000Y-108735000D02*
X160325000Y-109110000D01*
X160325000Y-108735000D02*
X159950000Y-108735000D01*
X157175000Y-111885000D02*
X157550000Y-111885000D01*
X157175000Y-111885000D02*
X157175000Y-111510000D01*
X157175000Y-108735000D02*
X157550000Y-108735000D01*
X157175000Y-108735000D02*
X157175000Y-109110000D01*
D13*
X161380000Y-111060000D02*
G75*
G02*
X161180000Y-111060000I-100000J0D01*
G01*
X161180000Y-111060000D02*
G75*
G02*
X161380000Y-111060000I100000J0D01*
G01*
D11*
%TO.C,R9*%
X156487258Y-107082500D02*
X156012742Y-107082500D01*
X156487258Y-106037500D02*
X156012742Y-106037500D01*
%TO.C,R8*%
X154512742Y-109537500D02*
X154987258Y-109537500D01*
X154512742Y-110582500D02*
X154987258Y-110582500D01*
%TO.C,R7*%
X159737258Y-107582500D02*
X159262742Y-107582500D01*
X159737258Y-106537500D02*
X159262742Y-106537500D01*
%TO.C,C24*%
X147263748Y-110700000D02*
X148686252Y-110700000D01*
X147263748Y-113420000D02*
X148686252Y-113420000D01*
%TO.C,C23*%
X147263748Y-107200000D02*
X148686252Y-107200000D01*
X147263748Y-109920000D02*
X148686252Y-109920000D01*
%TO.C,C29*%
X147658690Y-121658080D02*
X147658690Y-121376920D01*
X146638690Y-121658080D02*
X146638690Y-121376920D01*
%TO.C,U1*%
X156698690Y-76375000D02*
X156458690Y-76045000D01*
X156938690Y-76045000D01*
X156698690Y-76375000D01*
G36*
X156698690Y-76375000D02*
G01*
X156458690Y-76045000D01*
X156938690Y-76045000D01*
X156698690Y-76375000D01*
G37*
D10*
X157298690Y-81425000D02*
X161448690Y-81425000D01*
X157298690Y-76275000D02*
X161448690Y-76275000D01*
D11*
%TO.C,U2*%
X157020000Y-94375000D02*
X156780000Y-94045000D01*
X157260000Y-94045000D01*
X157020000Y-94375000D01*
G36*
X157020000Y-94375000D02*
G01*
X156780000Y-94045000D01*
X157260000Y-94045000D01*
X157020000Y-94375000D01*
G37*
D10*
X157620000Y-99425000D02*
X161770000Y-99425000D01*
X157620000Y-94275000D02*
X161770000Y-94275000D01*
D11*
%TO.C,R17*%
X154512742Y-107787500D02*
X154987258Y-107787500D01*
X154512742Y-108832500D02*
X154987258Y-108832500D01*
%TO.C,C9*%
X162213690Y-85340580D02*
X162213690Y-85059420D01*
X163233690Y-85340580D02*
X163233690Y-85059420D01*
%TO.C,R6*%
X163307742Y-100177500D02*
X163782258Y-100177500D01*
X163307742Y-101222500D02*
X163782258Y-101222500D01*
%TO.C,C18*%
X166204420Y-97689999D02*
X166485580Y-97689999D01*
X166204420Y-98709999D02*
X166485580Y-98709999D01*
%TO.C,C5*%
X150368690Y-80911252D02*
X150368690Y-79488748D01*
X153088690Y-80911252D02*
X153088690Y-79488748D01*
%TO.C,F1*%
X158398690Y-123417500D02*
X159510690Y-123417500D01*
X158398690Y-126617500D02*
X158398690Y-123417500D01*
X161186690Y-123417500D02*
X167398690Y-123417500D01*
X164610690Y-126617500D02*
X158398690Y-126617500D01*
X167398690Y-123417500D02*
X167398690Y-126617500D01*
X167398690Y-126617500D02*
X166286690Y-126617500D01*
%TO.C,C3*%
X143363690Y-74488748D02*
X143363690Y-75911252D01*
X146083690Y-74488748D02*
X146083690Y-75911252D01*
%TO.C,R11*%
X149677500Y-85030242D02*
X149677500Y-85504758D01*
X150722500Y-85030242D02*
X150722500Y-85504758D01*
%TO.C,J1*%
X135018690Y-70637500D02*
X136398690Y-70637500D01*
X135018690Y-72017500D02*
X135018690Y-70637500D01*
X135018690Y-73287500D02*
X135018690Y-131817500D01*
X135018690Y-73287500D02*
X137778690Y-73287500D01*
X135018690Y-131817500D02*
X137778690Y-131817500D01*
X137778690Y-73287500D02*
X137778690Y-131817500D01*
%TO.C,C12*%
X163785000Y-95334419D02*
X163785000Y-95615579D01*
X164805000Y-95334419D02*
X164805000Y-95615579D01*
%TO.C,R1*%
X156151190Y-83062742D02*
X156151190Y-83537258D01*
X157196190Y-83062742D02*
X157196190Y-83537258D01*
%TO.C,L2*%
X156735000Y-87390000D02*
X162355000Y-87390000D01*
X162355000Y-93510000D02*
X156735000Y-93510000D01*
%TO.C,C6*%
X154213690Y-77590580D02*
X154213690Y-77309420D01*
X155233690Y-77590580D02*
X155233690Y-77309420D01*
%TO.C,R10*%
X144276190Y-80504758D02*
X144276190Y-80030242D01*
X145321190Y-80504758D02*
X145321190Y-80030242D01*
%TO.C,C15*%
X147190000Y-92488748D02*
X147190000Y-93911252D01*
X149910000Y-92488748D02*
X149910000Y-93911252D01*
%TO.C,C8*%
X163463690Y-77334420D02*
X163463690Y-77615580D01*
X164483690Y-77334420D02*
X164483690Y-77615580D01*
D14*
%TO.C,D3*%
X140519090Y-104791500D02*
X144278290Y-104791500D01*
X144278290Y-101743500D02*
X140519090Y-101743500D01*
%TO.C,D1*%
X139660190Y-81791500D02*
X143419390Y-81791500D01*
X143419390Y-78743500D02*
X139660190Y-78743500D01*
D11*
%TO.C,C13*%
X162535000Y-103340580D02*
X162535000Y-103059420D01*
X163555000Y-103340580D02*
X163555000Y-103059420D01*
%TO.C,C17*%
X140140000Y-92488748D02*
X140140000Y-93911252D01*
X142860000Y-92488748D02*
X142860000Y-93911252D01*
%TO.C,C28*%
X138988690Y-118357500D02*
X141338690Y-118357500D01*
X138988690Y-124113063D02*
X138988690Y-118357500D01*
X140053127Y-125177500D02*
X138988690Y-124113063D01*
X140053127Y-125177500D02*
X141338690Y-125177500D01*
X144744253Y-125177500D02*
X143458690Y-125177500D01*
X144744253Y-125177500D02*
X145808690Y-124113063D01*
X145808690Y-118357500D02*
X143458690Y-118357500D01*
X145808690Y-124113063D02*
X145808690Y-118357500D01*
%TO.C,J2*%
X170018690Y-70637500D02*
X171398690Y-70637500D01*
X170018690Y-72017500D02*
X170018690Y-70637500D01*
X170018690Y-73287500D02*
X170018690Y-131817500D01*
X170018690Y-73287500D02*
X172778690Y-73287500D01*
X170018690Y-131817500D02*
X172778690Y-131817500D01*
X172778690Y-73287500D02*
X172778690Y-131817500D01*
%TO.C,C10*%
X150690001Y-98911252D02*
X150690001Y-97488748D01*
X153410001Y-98911252D02*
X153410001Y-97488748D01*
%TO.C,C7*%
X165883110Y-79690000D02*
X166164270Y-79690000D01*
X165883110Y-80710000D02*
X166164270Y-80710000D01*
%TO.C,C14*%
X150685000Y-92488748D02*
X150685000Y-93911252D01*
X153405000Y-92488748D02*
X153405000Y-93911252D01*
%TO.C,R2*%
X164201190Y-84962742D02*
X164201190Y-85437258D01*
X165246190Y-84962742D02*
X165246190Y-85437258D01*
%TO.C,R3*%
X162986432Y-82177500D02*
X163460948Y-82177500D01*
X162986432Y-83222500D02*
X163460948Y-83222500D01*
%TO.C,C16*%
X143685000Y-92488748D02*
X143685000Y-93911252D01*
X146405000Y-92488748D02*
X146405000Y-93911252D01*
%TO.C,D4*%
X142028690Y-127547500D02*
X151768690Y-127547500D01*
X142028690Y-128427500D02*
X142028690Y-127547500D01*
X142028690Y-132107500D02*
X142028690Y-132987500D01*
X142028690Y-132987500D02*
X151768690Y-132987500D01*
X143453690Y-127547500D02*
X143453690Y-132987500D01*
X143573690Y-127547500D02*
X143573690Y-132987500D01*
X143693690Y-127547500D02*
X143693690Y-132987500D01*
X151768690Y-127547500D02*
X151768690Y-128427500D01*
X151768690Y-132987500D02*
X151768690Y-132107500D01*
D14*
%TO.C,D2*%
X145070400Y-86791500D02*
X148829600Y-86791500D01*
X148829600Y-83743500D02*
X145070400Y-83743500D01*
D11*
%TO.C,C1*%
X150363690Y-74488748D02*
X150363690Y-75911252D01*
X153083690Y-74488748D02*
X153083690Y-75911252D01*
%TO.C,C11*%
X154535001Y-95590580D02*
X154535001Y-95309420D01*
X155555001Y-95590580D02*
X155555001Y-95309420D01*
%TO.C,C4*%
X139818690Y-74488748D02*
X139818690Y-75911252D01*
X142538690Y-74488748D02*
X142538690Y-75911252D01*
%TO.C,C2*%
X146868690Y-74488748D02*
X146868690Y-75911252D01*
X149588690Y-74488748D02*
X149588690Y-75911252D01*
%TO.C,R12*%
X145126190Y-103030242D02*
X145126190Y-103504758D01*
X146171190Y-103030242D02*
X146171190Y-103504758D01*
%TO.C,R5*%
X156472501Y-101062742D02*
X156472501Y-101537258D01*
X157517501Y-101062742D02*
X157517501Y-101537258D01*
%TO.C,R4*%
X164522500Y-102962742D02*
X164522500Y-103437258D01*
X165567500Y-102962742D02*
X165567500Y-103437258D01*
%TO.C,L1*%
X156413690Y-69390000D02*
X162033690Y-69390000D01*
X162033690Y-75510000D02*
X156413690Y-75510000D01*
%TO.C,D5*%
X156658690Y-122367500D02*
X150848690Y-122367500D01*
X156658690Y-126667500D02*
X150848690Y-126667500D01*
X156658690Y-126667500D02*
X156658690Y-122367500D01*
%TD*%
M02*
