%TF.GenerationSoftware,KiCad,Pcbnew,9.0.6*%
%TF.CreationDate,2026-04-15T16:40:28-04:00*%
%TF.ProjectId,PWR,5057522e-6b69-4636-9164-5f7063625858,rev?*%
%TF.SameCoordinates,Original*%
%TF.FileFunction,Paste,Top*%
%TF.FilePolarity,Positive*%
%FSLAX46Y46*%
G04 Gerber Fmt 4.6, Leading zero omitted, Abs format (unit mm)*
G04 Created by KiCad (PCBNEW 9.0.6) date 2026-04-15 16:40:28*
%MOMM*%
%LPD*%
G01*
G04 APERTURE LIST*
G04 Aperture macros list*
%AMRoundRect*
0 Rectangle with rounded corners*
0 $1 Rounding radius*
0 $2 $3 $4 $5 $6 $7 $8 $9 X,Y pos of 4 corners*
0 Add a 4 corners polygon primitive as box body*
4,1,4,$2,$3,$4,$5,$6,$7,$8,$9,$2,$3,0*
0 Add four circle primitives for the rounded corners*
1,1,$1+$1,$2,$3*
1,1,$1+$1,$4,$5*
1,1,$1+$1,$6,$7*
1,1,$1+$1,$8,$9*
0 Add four rect primitives between the rounded corners*
20,1,$1+$1,$2,$3,$4,$5,0*
20,1,$1+$1,$4,$5,$6,$7,0*
20,1,$1+$1,$6,$7,$8,$9,0*
20,1,$1+$1,$8,$9,$2,$3,0*%
%AMOutline5P*
0 Free polygon, 5 corners , with rotation*
0 The origin of the aperture is its center*
0 number of corners: always 5*
0 $1 to $10 corner X, Y*
0 $11 Rotation angle, in degrees counterclockwise*
0 create outline with 5 corners*
4,1,5,$1,$2,$3,$4,$5,$6,$7,$8,$9,$10,$1,$2,$11*%
%AMOutline6P*
0 Free polygon, 6 corners , with rotation*
0 The origin of the aperture is its center*
0 number of corners: always 6*
0 $1 to $12 corner X, Y*
0 $13 Rotation angle, in degrees counterclockwise*
0 create outline with 6 corners*
4,1,6,$1,$2,$3,$4,$5,$6,$7,$8,$9,$10,$11,$12,$1,$2,$13*%
%AMOutline7P*
0 Free polygon, 7 corners , with rotation*
0 The origin of the aperture is its center*
0 number of corners: always 7*
0 $1 to $14 corner X, Y*
0 $15 Rotation angle, in degrees counterclockwise*
0 create outline with 7 corners*
4,1,7,$1,$2,$3,$4,$5,$6,$7,$8,$9,$10,$11,$12,$13,$14,$1,$2,$15*%
%AMOutline8P*
0 Free polygon, 8 corners , with rotation*
0 The origin of the aperture is its center*
0 number of corners: always 8*
0 $1 to $16 corner X, Y*
0 $17 Rotation angle, in degrees counterclockwise*
0 create outline with 8 corners*
4,1,8,$1,$2,$3,$4,$5,$6,$7,$8,$9,$10,$11,$12,$13,$14,$15,$16,$1,$2,$17*%
G04 Aperture macros list end*
%ADD10C,0.010000*%
%ADD11RoundRect,0.225000X-0.225000X-0.250000X0.225000X-0.250000X0.225000X0.250000X-0.225000X0.250000X0*%
%ADD12RoundRect,0.250000X-0.325000X-0.650000X0.325000X-0.650000X0.325000X0.650000X-0.325000X0.650000X0*%
%ADD13Outline6P,-2.900000X0.630000X-2.480000X1.050000X2.480000X1.050000X2.900000X0.630000X2.900000X-1.050000X-2.900000X-1.050000X270.000000*%
%ADD14Outline6P,-2.900000X0.630000X-2.480000X1.050000X2.480000X1.050000X2.900000X0.630000X2.900000X-1.050000X-2.900000X-1.050000X90.000000*%
%ADD15RoundRect,0.250000X-1.000000X-0.650000X1.000000X-0.650000X1.000000X0.650000X-1.000000X0.650000X0*%
%ADD16RoundRect,0.032500X0.412500X0.097500X-0.412500X0.097500X-0.412500X-0.097500X0.412500X-0.097500X0*%
%ADD17RoundRect,0.032500X0.097500X0.412500X-0.097500X0.412500X-0.097500X-0.412500X0.097500X-0.412500X0*%
%ADD18RoundRect,0.200000X0.200000X0.275000X-0.200000X0.275000X-0.200000X-0.275000X0.200000X-0.275000X0*%
%ADD19RoundRect,0.200000X-0.200000X-0.275000X0.200000X-0.275000X0.200000X0.275000X-0.200000X0.275000X0*%
%ADD20RoundRect,0.250000X-0.325000X-1.100000X0.325000X-1.100000X0.325000X1.100000X-0.325000X1.100000X0*%
%ADD21RoundRect,0.225000X0.250000X-0.225000X0.250000X0.225000X-0.250000X0.225000X-0.250000X-0.225000X0*%
%ADD22R,1.550000X0.600000*%
%ADD23R,2.600000X3.100000*%
%ADD24RoundRect,0.250000X1.100000X-0.325000X1.100000X0.325000X-1.100000X0.325000X-1.100000X-0.325000X0*%
%ADD25RoundRect,0.250000X-1.100000X0.325000X-1.100000X-0.325000X1.100000X-0.325000X1.100000X0.325000X0*%
%ADD26RoundRect,0.200000X-0.275000X0.200000X-0.275000X-0.200000X0.275000X-0.200000X0.275000X0.200000X0*%
%ADD27RoundRect,0.225000X-0.250000X0.225000X-0.250000X-0.225000X0.250000X-0.225000X0.250000X0.225000X0*%
%ADD28RoundRect,0.250000X0.600000X2.550000X-0.600000X2.550000X-0.600000X-2.550000X0.600000X-2.550000X0*%
%ADD29RoundRect,0.200000X0.275000X-0.200000X0.275000X0.200000X-0.275000X0.200000X-0.275000X-0.200000X0*%
%ADD30R,2.260600X2.108200*%
%ADD31R,1.193800X2.108200*%
%ADD32RoundRect,0.250000X0.550000X-1.412500X0.550000X1.412500X-0.550000X1.412500X-0.550000X-1.412500X0*%
%ADD33RoundRect,0.250000X1.000000X0.900000X-1.000000X0.900000X-1.000000X-0.900000X1.000000X-0.900000X0*%
G04 APERTURE END LIST*
D10*
%TO.C,U3*%
X159270000Y-110830000D02*
X158230000Y-110830000D01*
X158230000Y-109790000D01*
X159270000Y-109790000D01*
X159270000Y-110830000D01*
G36*
X159270000Y-110830000D02*
G01*
X158230000Y-110830000D01*
X158230000Y-109790000D01*
X159270000Y-109790000D01*
X159270000Y-110830000D01*
G37*
%TD*%
D11*
%TO.C,C19*%
X161975000Y-107060000D03*
X163525000Y-107060000D03*
%TD*%
%TO.C,C20*%
X162225000Y-108810000D03*
X163775000Y-108810000D03*
%TD*%
D12*
%TO.C,C21*%
X162275000Y-110810000D03*
X165225000Y-110810000D03*
%TD*%
D13*
%TO.C,L3*%
X161950000Y-116750000D03*
D14*
X158050000Y-116750000D03*
%TD*%
D15*
%TO.C,D6*%
X150250000Y-115750000D03*
X154250000Y-115750000D03*
%TD*%
D16*
%TO.C,U3*%
X160190000Y-111060000D03*
X160190000Y-110560000D03*
X160190000Y-110060000D03*
X160190000Y-109560000D03*
D17*
X159500000Y-108870000D03*
X159000000Y-108870000D03*
X158500000Y-108870000D03*
X158000000Y-108870000D03*
D16*
X157310000Y-109560000D03*
X157310000Y-110060000D03*
X157310000Y-110560000D03*
X157310000Y-111060000D03*
D17*
X158000000Y-111750000D03*
X158500000Y-111750000D03*
X159000000Y-111750000D03*
X159500000Y-111750000D03*
%TD*%
D18*
%TO.C,R9*%
X157075000Y-106560000D03*
X155425000Y-106560000D03*
%TD*%
D19*
%TO.C,R8*%
X153925000Y-110060000D03*
X155575000Y-110060000D03*
%TD*%
D18*
%TO.C,R7*%
X160325000Y-107060000D03*
X158675000Y-107060000D03*
%TD*%
D20*
%TO.C,C24*%
X146500000Y-112060000D03*
X149450000Y-112060000D03*
%TD*%
%TO.C,C23*%
X146500000Y-108560000D03*
X149450000Y-108560000D03*
%TD*%
D21*
%TO.C,C29*%
X147148690Y-120742500D03*
X147148690Y-122292500D03*
%TD*%
D22*
%TO.C,U1*%
X162073690Y-76945000D03*
X162073690Y-78215000D03*
X162073690Y-79485000D03*
X162073690Y-80755000D03*
X156673690Y-80755000D03*
X156673690Y-79485000D03*
X156673690Y-78215000D03*
X156673690Y-76945000D03*
D23*
X159373690Y-78850000D03*
%TD*%
D22*
%TO.C,U2*%
X162395000Y-94945000D03*
X162395000Y-96215000D03*
X162395000Y-97485000D03*
X162395000Y-98755000D03*
X156995000Y-98755000D03*
X156995000Y-97485000D03*
X156995000Y-96215000D03*
X156995000Y-94945000D03*
D23*
X159695000Y-96850000D03*
%TD*%
D19*
%TO.C,R17*%
X153925000Y-108310000D03*
X155575000Y-108310000D03*
%TD*%
D21*
%TO.C,C9*%
X162723690Y-85975000D03*
X162723690Y-84425000D03*
%TD*%
D19*
%TO.C,R6*%
X162720000Y-100700000D03*
X164370000Y-100700000D03*
%TD*%
D11*
%TO.C,C18*%
X165570000Y-98199999D03*
X167120000Y-98199999D03*
%TD*%
D24*
%TO.C,C5*%
X151728690Y-81675000D03*
X151728690Y-78725000D03*
%TD*%
D25*
%TO.C,C3*%
X144723690Y-73725000D03*
X144723690Y-76675000D03*
%TD*%
D26*
%TO.C,R11*%
X150200000Y-84442500D03*
X150200000Y-86092500D03*
%TD*%
D27*
%TO.C,C12*%
X164295000Y-94699999D03*
X164295000Y-96249999D03*
%TD*%
D26*
%TO.C,R1*%
X156673690Y-82475000D03*
X156673690Y-84125000D03*
%TD*%
D28*
%TO.C,L2*%
X161495000Y-90450000D03*
X157595000Y-90450000D03*
%TD*%
D21*
%TO.C,C6*%
X154723690Y-78225000D03*
X154723690Y-76675000D03*
%TD*%
D29*
%TO.C,R10*%
X144798690Y-81092500D03*
X144798690Y-79442500D03*
%TD*%
D25*
%TO.C,C15*%
X148550000Y-91725000D03*
X148550000Y-94675000D03*
%TD*%
D27*
%TO.C,C8*%
X163973690Y-76700000D03*
X163973690Y-78250000D03*
%TD*%
D30*
%TO.C,D3*%
X141573190Y-103267500D03*
D31*
X143757590Y-103267500D03*
%TD*%
D30*
%TO.C,D1*%
X140714290Y-80267500D03*
D31*
X142898690Y-80267500D03*
%TD*%
D21*
%TO.C,C13*%
X163045000Y-103975000D03*
X163045000Y-102425000D03*
%TD*%
D25*
%TO.C,C17*%
X141500000Y-91725000D03*
X141500000Y-94675000D03*
%TD*%
D32*
%TO.C,C28*%
X142398690Y-124305000D03*
X142398690Y-119230000D03*
%TD*%
D24*
%TO.C,C10*%
X152050001Y-99675000D03*
X152050001Y-96725000D03*
%TD*%
D11*
%TO.C,C7*%
X165248690Y-80200000D03*
X166798690Y-80200000D03*
%TD*%
D25*
%TO.C,C14*%
X152045000Y-91725000D03*
X152045000Y-94675000D03*
%TD*%
D26*
%TO.C,R2*%
X164723690Y-84375000D03*
X164723690Y-86025000D03*
%TD*%
D19*
%TO.C,R3*%
X162398690Y-82700000D03*
X164048690Y-82700000D03*
%TD*%
D25*
%TO.C,C16*%
X145045000Y-91725000D03*
X145045000Y-94675000D03*
%TD*%
D30*
%TO.C,D2*%
X146124500Y-85267500D03*
D31*
X148308900Y-85267500D03*
%TD*%
D25*
%TO.C,C1*%
X151723690Y-73725000D03*
X151723690Y-76675000D03*
%TD*%
D21*
%TO.C,C11*%
X155045001Y-96225000D03*
X155045001Y-94675000D03*
%TD*%
D25*
%TO.C,C4*%
X141178690Y-73725000D03*
X141178690Y-76675000D03*
%TD*%
%TO.C,C2*%
X148228690Y-73725000D03*
X148228690Y-76675000D03*
%TD*%
D26*
%TO.C,R12*%
X145648690Y-102442500D03*
X145648690Y-104092500D03*
%TD*%
%TO.C,R5*%
X156995001Y-100475000D03*
X156995001Y-102125000D03*
%TD*%
%TO.C,R4*%
X165045000Y-102375000D03*
X165045000Y-104025000D03*
%TD*%
D28*
%TO.C,L1*%
X161173690Y-72450000D03*
X157273690Y-72450000D03*
%TD*%
D33*
%TO.C,D5*%
X155148690Y-124517500D03*
X150848690Y-124517500D03*
%TD*%
M02*
