%TF.GenerationSoftware,KiCad,Pcbnew,8.0.6*%
%TF.CreationDate,2025-10-30T00:20:48-04:00*%
%TF.ProjectId,COMMs,434f4d4d-732e-46b6-9963-61645f706362,rev?*%
%TF.SameCoordinates,Original*%
%TF.FileFunction,Legend,Bot*%
%TF.FilePolarity,Positive*%
%FSLAX46Y46*%
G04 Gerber Fmt 4.6, Leading zero omitted, Abs format (unit mm)*
G04 Created by KiCad (PCBNEW 8.0.6) date 2025-10-30 00:20:48*
%MOMM*%
%LPD*%
G01*
G04 APERTURE LIST*
%ADD10C,0.200000*%
G04 APERTURE END LIST*
D10*
X155858898Y-102552092D02*
X155906517Y-102599712D01*
X155906517Y-102599712D02*
X156049374Y-102647331D01*
X156049374Y-102647331D02*
X156144612Y-102647331D01*
X156144612Y-102647331D02*
X156287469Y-102599712D01*
X156287469Y-102599712D02*
X156382707Y-102504473D01*
X156382707Y-102504473D02*
X156430326Y-102409235D01*
X156430326Y-102409235D02*
X156477945Y-102218759D01*
X156477945Y-102218759D02*
X156477945Y-102075902D01*
X156477945Y-102075902D02*
X156430326Y-101885426D01*
X156430326Y-101885426D02*
X156382707Y-101790188D01*
X156382707Y-101790188D02*
X156287469Y-101694950D01*
X156287469Y-101694950D02*
X156144612Y-101647331D01*
X156144612Y-101647331D02*
X156049374Y-101647331D01*
X156049374Y-101647331D02*
X155906517Y-101694950D01*
X155906517Y-101694950D02*
X155858898Y-101742569D01*
X155239850Y-101647331D02*
X155049374Y-101647331D01*
X155049374Y-101647331D02*
X154954136Y-101694950D01*
X154954136Y-101694950D02*
X154858898Y-101790188D01*
X154858898Y-101790188D02*
X154811279Y-101980664D01*
X154811279Y-101980664D02*
X154811279Y-102313997D01*
X154811279Y-102313997D02*
X154858898Y-102504473D01*
X154858898Y-102504473D02*
X154954136Y-102599712D01*
X154954136Y-102599712D02*
X155049374Y-102647331D01*
X155049374Y-102647331D02*
X155239850Y-102647331D01*
X155239850Y-102647331D02*
X155335088Y-102599712D01*
X155335088Y-102599712D02*
X155430326Y-102504473D01*
X155430326Y-102504473D02*
X155477945Y-102313997D01*
X155477945Y-102313997D02*
X155477945Y-101980664D01*
X155477945Y-101980664D02*
X155430326Y-101790188D01*
X155430326Y-101790188D02*
X155335088Y-101694950D01*
X155335088Y-101694950D02*
X155239850Y-101647331D01*
X154382707Y-102647331D02*
X154382707Y-101647331D01*
X154382707Y-101647331D02*
X154049374Y-102361616D01*
X154049374Y-102361616D02*
X153716041Y-101647331D01*
X153716041Y-101647331D02*
X153716041Y-102647331D01*
X153239850Y-102647331D02*
X153239850Y-101647331D01*
X153239850Y-101647331D02*
X152906517Y-102361616D01*
X152906517Y-102361616D02*
X152573184Y-101647331D01*
X152573184Y-101647331D02*
X152573184Y-102647331D01*
X152144612Y-102599712D02*
X152049374Y-102647331D01*
X152049374Y-102647331D02*
X151858898Y-102647331D01*
X151858898Y-102647331D02*
X151763660Y-102599712D01*
X151763660Y-102599712D02*
X151716041Y-102504473D01*
X151716041Y-102504473D02*
X151716041Y-102456854D01*
X151716041Y-102456854D02*
X151763660Y-102361616D01*
X151763660Y-102361616D02*
X151858898Y-102313997D01*
X151858898Y-102313997D02*
X152001755Y-102313997D01*
X152001755Y-102313997D02*
X152096993Y-102266378D01*
X152096993Y-102266378D02*
X152144612Y-102171140D01*
X152144612Y-102171140D02*
X152144612Y-102123521D01*
X152144612Y-102123521D02*
X152096993Y-102028283D01*
X152096993Y-102028283D02*
X152001755Y-101980664D01*
X152001755Y-101980664D02*
X151858898Y-101980664D01*
X151858898Y-101980664D02*
X151763660Y-102028283D01*
X150239850Y-103028283D02*
X150287469Y-102980664D01*
X150287469Y-102980664D02*
X150382707Y-102837807D01*
X150382707Y-102837807D02*
X150430326Y-102742569D01*
X150430326Y-102742569D02*
X150477945Y-102599712D01*
X150477945Y-102599712D02*
X150525564Y-102361616D01*
X150525564Y-102361616D02*
X150525564Y-102171140D01*
X150525564Y-102171140D02*
X150477945Y-101933045D01*
X150477945Y-101933045D02*
X150430326Y-101790188D01*
X150430326Y-101790188D02*
X150382707Y-101694950D01*
X150382707Y-101694950D02*
X150287469Y-101552092D01*
X150287469Y-101552092D02*
X150239850Y-101504473D01*
X149287469Y-102647331D02*
X149620802Y-102171140D01*
X149858897Y-102647331D02*
X149858897Y-101647331D01*
X149858897Y-101647331D02*
X149477945Y-101647331D01*
X149477945Y-101647331D02*
X149382707Y-101694950D01*
X149382707Y-101694950D02*
X149335088Y-101742569D01*
X149335088Y-101742569D02*
X149287469Y-101837807D01*
X149287469Y-101837807D02*
X149287469Y-101980664D01*
X149287469Y-101980664D02*
X149335088Y-102075902D01*
X149335088Y-102075902D02*
X149382707Y-102123521D01*
X149382707Y-102123521D02*
X149477945Y-102171140D01*
X149477945Y-102171140D02*
X149858897Y-102171140D01*
X148954135Y-101647331D02*
X148287469Y-102647331D01*
X148287469Y-101647331D02*
X148954135Y-102647331D01*
X147192231Y-101599712D02*
X148049373Y-102885426D01*
X147001754Y-101647331D02*
X146430326Y-101647331D01*
X146716040Y-102647331D02*
X146716040Y-101647331D01*
X146192230Y-101647331D02*
X145525564Y-102647331D01*
X145525564Y-101647331D02*
X146192230Y-102647331D01*
X144049373Y-102123521D02*
X143906516Y-102171140D01*
X143906516Y-102171140D02*
X143858897Y-102218759D01*
X143858897Y-102218759D02*
X143811278Y-102313997D01*
X143811278Y-102313997D02*
X143811278Y-102456854D01*
X143811278Y-102456854D02*
X143858897Y-102552092D01*
X143858897Y-102552092D02*
X143906516Y-102599712D01*
X143906516Y-102599712D02*
X144001754Y-102647331D01*
X144001754Y-102647331D02*
X144382706Y-102647331D01*
X144382706Y-102647331D02*
X144382706Y-101647331D01*
X144382706Y-101647331D02*
X144049373Y-101647331D01*
X144049373Y-101647331D02*
X143954135Y-101694950D01*
X143954135Y-101694950D02*
X143906516Y-101742569D01*
X143906516Y-101742569D02*
X143858897Y-101837807D01*
X143858897Y-101837807D02*
X143858897Y-101933045D01*
X143858897Y-101933045D02*
X143906516Y-102028283D01*
X143906516Y-102028283D02*
X143954135Y-102075902D01*
X143954135Y-102075902D02*
X144049373Y-102123521D01*
X144049373Y-102123521D02*
X144382706Y-102123521D01*
X143192230Y-101647331D02*
X143001754Y-101647331D01*
X143001754Y-101647331D02*
X142906516Y-101694950D01*
X142906516Y-101694950D02*
X142811278Y-101790188D01*
X142811278Y-101790188D02*
X142763659Y-101980664D01*
X142763659Y-101980664D02*
X142763659Y-102313997D01*
X142763659Y-102313997D02*
X142811278Y-102504473D01*
X142811278Y-102504473D02*
X142906516Y-102599712D01*
X142906516Y-102599712D02*
X143001754Y-102647331D01*
X143001754Y-102647331D02*
X143192230Y-102647331D01*
X143192230Y-102647331D02*
X143287468Y-102599712D01*
X143287468Y-102599712D02*
X143382706Y-102504473D01*
X143382706Y-102504473D02*
X143430325Y-102313997D01*
X143430325Y-102313997D02*
X143430325Y-101980664D01*
X143430325Y-101980664D02*
X143382706Y-101790188D01*
X143382706Y-101790188D02*
X143287468Y-101694950D01*
X143287468Y-101694950D02*
X143192230Y-101647331D01*
X142382706Y-102361616D02*
X141906516Y-102361616D01*
X142477944Y-102647331D02*
X142144611Y-101647331D01*
X142144611Y-101647331D02*
X141811278Y-102647331D01*
X140906516Y-102647331D02*
X141239849Y-102171140D01*
X141477944Y-102647331D02*
X141477944Y-101647331D01*
X141477944Y-101647331D02*
X141096992Y-101647331D01*
X141096992Y-101647331D02*
X141001754Y-101694950D01*
X141001754Y-101694950D02*
X140954135Y-101742569D01*
X140954135Y-101742569D02*
X140906516Y-101837807D01*
X140906516Y-101837807D02*
X140906516Y-101980664D01*
X140906516Y-101980664D02*
X140954135Y-102075902D01*
X140954135Y-102075902D02*
X141001754Y-102123521D01*
X141001754Y-102123521D02*
X141096992Y-102171140D01*
X141096992Y-102171140D02*
X141477944Y-102171140D01*
X140477944Y-102647331D02*
X140477944Y-101647331D01*
X140477944Y-101647331D02*
X140239849Y-101647331D01*
X140239849Y-101647331D02*
X140096992Y-101694950D01*
X140096992Y-101694950D02*
X140001754Y-101790188D01*
X140001754Y-101790188D02*
X139954135Y-101885426D01*
X139954135Y-101885426D02*
X139906516Y-102075902D01*
X139906516Y-102075902D02*
X139906516Y-102218759D01*
X139906516Y-102218759D02*
X139954135Y-102409235D01*
X139954135Y-102409235D02*
X140001754Y-102504473D01*
X140001754Y-102504473D02*
X140096992Y-102599712D01*
X140096992Y-102599712D02*
X140239849Y-102647331D01*
X140239849Y-102647331D02*
X140477944Y-102647331D01*
X139573182Y-103028283D02*
X139525563Y-102980664D01*
X139525563Y-102980664D02*
X139430325Y-102837807D01*
X139430325Y-102837807D02*
X139382706Y-102742569D01*
X139382706Y-102742569D02*
X139335087Y-102599712D01*
X139335087Y-102599712D02*
X139287468Y-102361616D01*
X139287468Y-102361616D02*
X139287468Y-102171140D01*
X139287468Y-102171140D02*
X139335087Y-101933045D01*
X139335087Y-101933045D02*
X139382706Y-101790188D01*
X139382706Y-101790188D02*
X139430325Y-101694950D01*
X139430325Y-101694950D02*
X139525563Y-101552092D01*
X139525563Y-101552092D02*
X139573182Y-101504473D01*
X155858898Y-104257275D02*
X156192231Y-103781084D01*
X156430326Y-104257275D02*
X156430326Y-103257275D01*
X156430326Y-103257275D02*
X156049374Y-103257275D01*
X156049374Y-103257275D02*
X155954136Y-103304894D01*
X155954136Y-103304894D02*
X155906517Y-103352513D01*
X155906517Y-103352513D02*
X155858898Y-103447751D01*
X155858898Y-103447751D02*
X155858898Y-103590608D01*
X155858898Y-103590608D02*
X155906517Y-103685846D01*
X155906517Y-103685846D02*
X155954136Y-103733465D01*
X155954136Y-103733465D02*
X156049374Y-103781084D01*
X156049374Y-103781084D02*
X156430326Y-103781084D01*
X155430326Y-103733465D02*
X155096993Y-103733465D01*
X154954136Y-104257275D02*
X155430326Y-104257275D01*
X155430326Y-104257275D02*
X155430326Y-103257275D01*
X155430326Y-103257275D02*
X154954136Y-103257275D01*
X154668421Y-103257275D02*
X154335088Y-104257275D01*
X154335088Y-104257275D02*
X154001755Y-103257275D01*
X152382707Y-104257275D02*
X152954135Y-104257275D01*
X152668421Y-104257275D02*
X152668421Y-103257275D01*
X152668421Y-103257275D02*
X152763659Y-103400132D01*
X152763659Y-103400132D02*
X152858897Y-103495370D01*
X152858897Y-103495370D02*
X152954135Y-103542989D01*
X151954135Y-104162036D02*
X151906516Y-104209656D01*
X151906516Y-104209656D02*
X151954135Y-104257275D01*
X151954135Y-104257275D02*
X152001754Y-104209656D01*
X152001754Y-104209656D02*
X151954135Y-104162036D01*
X151954135Y-104162036D02*
X151954135Y-104257275D01*
X151287469Y-103257275D02*
X151192231Y-103257275D01*
X151192231Y-103257275D02*
X151096993Y-103304894D01*
X151096993Y-103304894D02*
X151049374Y-103352513D01*
X151049374Y-103352513D02*
X151001755Y-103447751D01*
X151001755Y-103447751D02*
X150954136Y-103638227D01*
X150954136Y-103638227D02*
X150954136Y-103876322D01*
X150954136Y-103876322D02*
X151001755Y-104066798D01*
X151001755Y-104066798D02*
X151049374Y-104162036D01*
X151049374Y-104162036D02*
X151096993Y-104209656D01*
X151096993Y-104209656D02*
X151192231Y-104257275D01*
X151192231Y-104257275D02*
X151287469Y-104257275D01*
X151287469Y-104257275D02*
X151382707Y-104209656D01*
X151382707Y-104209656D02*
X151430326Y-104162036D01*
X151430326Y-104162036D02*
X151477945Y-104066798D01*
X151477945Y-104066798D02*
X151525564Y-103876322D01*
X151525564Y-103876322D02*
X151525564Y-103638227D01*
X151525564Y-103638227D02*
X151477945Y-103447751D01*
X151477945Y-103447751D02*
X151430326Y-103352513D01*
X151430326Y-103352513D02*
X151382707Y-103304894D01*
X151382707Y-103304894D02*
X151287469Y-103257275D01*
X149239850Y-104257275D02*
X149811278Y-104257275D01*
X149525564Y-104257275D02*
X149525564Y-103257275D01*
X149525564Y-103257275D02*
X149620802Y-103400132D01*
X149620802Y-103400132D02*
X149716040Y-103495370D01*
X149716040Y-103495370D02*
X149811278Y-103542989D01*
X148620802Y-103257275D02*
X148525564Y-103257275D01*
X148525564Y-103257275D02*
X148430326Y-103304894D01*
X148430326Y-103304894D02*
X148382707Y-103352513D01*
X148382707Y-103352513D02*
X148335088Y-103447751D01*
X148335088Y-103447751D02*
X148287469Y-103638227D01*
X148287469Y-103638227D02*
X148287469Y-103876322D01*
X148287469Y-103876322D02*
X148335088Y-104066798D01*
X148335088Y-104066798D02*
X148382707Y-104162036D01*
X148382707Y-104162036D02*
X148430326Y-104209656D01*
X148430326Y-104209656D02*
X148525564Y-104257275D01*
X148525564Y-104257275D02*
X148620802Y-104257275D01*
X148620802Y-104257275D02*
X148716040Y-104209656D01*
X148716040Y-104209656D02*
X148763659Y-104162036D01*
X148763659Y-104162036D02*
X148811278Y-104066798D01*
X148811278Y-104066798D02*
X148858897Y-103876322D01*
X148858897Y-103876322D02*
X148858897Y-103638227D01*
X148858897Y-103638227D02*
X148811278Y-103447751D01*
X148811278Y-103447751D02*
X148763659Y-103352513D01*
X148763659Y-103352513D02*
X148716040Y-103304894D01*
X148716040Y-103304894D02*
X148620802Y-103257275D01*
X147144612Y-103209656D02*
X148001754Y-104495370D01*
X146858897Y-103352513D02*
X146811278Y-103304894D01*
X146811278Y-103304894D02*
X146716040Y-103257275D01*
X146716040Y-103257275D02*
X146477945Y-103257275D01*
X146477945Y-103257275D02*
X146382707Y-103304894D01*
X146382707Y-103304894D02*
X146335088Y-103352513D01*
X146335088Y-103352513D02*
X146287469Y-103447751D01*
X146287469Y-103447751D02*
X146287469Y-103542989D01*
X146287469Y-103542989D02*
X146335088Y-103685846D01*
X146335088Y-103685846D02*
X146906516Y-104257275D01*
X146906516Y-104257275D02*
X146287469Y-104257275D01*
X145668421Y-103257275D02*
X145573183Y-103257275D01*
X145573183Y-103257275D02*
X145477945Y-103304894D01*
X145477945Y-103304894D02*
X145430326Y-103352513D01*
X145430326Y-103352513D02*
X145382707Y-103447751D01*
X145382707Y-103447751D02*
X145335088Y-103638227D01*
X145335088Y-103638227D02*
X145335088Y-103876322D01*
X145335088Y-103876322D02*
X145382707Y-104066798D01*
X145382707Y-104066798D02*
X145430326Y-104162036D01*
X145430326Y-104162036D02*
X145477945Y-104209656D01*
X145477945Y-104209656D02*
X145573183Y-104257275D01*
X145573183Y-104257275D02*
X145668421Y-104257275D01*
X145668421Y-104257275D02*
X145763659Y-104209656D01*
X145763659Y-104209656D02*
X145811278Y-104162036D01*
X145811278Y-104162036D02*
X145858897Y-104066798D01*
X145858897Y-104066798D02*
X145906516Y-103876322D01*
X145906516Y-103876322D02*
X145906516Y-103638227D01*
X145906516Y-103638227D02*
X145858897Y-103447751D01*
X145858897Y-103447751D02*
X145811278Y-103352513D01*
X145811278Y-103352513D02*
X145763659Y-103304894D01*
X145763659Y-103304894D02*
X145668421Y-103257275D01*
X144954135Y-103352513D02*
X144906516Y-103304894D01*
X144906516Y-103304894D02*
X144811278Y-103257275D01*
X144811278Y-103257275D02*
X144573183Y-103257275D01*
X144573183Y-103257275D02*
X144477945Y-103304894D01*
X144477945Y-103304894D02*
X144430326Y-103352513D01*
X144430326Y-103352513D02*
X144382707Y-103447751D01*
X144382707Y-103447751D02*
X144382707Y-103542989D01*
X144382707Y-103542989D02*
X144430326Y-103685846D01*
X144430326Y-103685846D02*
X145001754Y-104257275D01*
X145001754Y-104257275D02*
X144382707Y-104257275D01*
X143477945Y-103257275D02*
X143954135Y-103257275D01*
X143954135Y-103257275D02*
X144001754Y-103733465D01*
X144001754Y-103733465D02*
X143954135Y-103685846D01*
X143954135Y-103685846D02*
X143858897Y-103638227D01*
X143858897Y-103638227D02*
X143620802Y-103638227D01*
X143620802Y-103638227D02*
X143525564Y-103685846D01*
X143525564Y-103685846D02*
X143477945Y-103733465D01*
X143477945Y-103733465D02*
X143430326Y-103828703D01*
X143430326Y-103828703D02*
X143430326Y-104066798D01*
X143430326Y-104066798D02*
X143477945Y-104162036D01*
X143477945Y-104162036D02*
X143525564Y-104209656D01*
X143525564Y-104209656D02*
X143620802Y-104257275D01*
X143620802Y-104257275D02*
X143858897Y-104257275D01*
X143858897Y-104257275D02*
X143954135Y-104209656D01*
X143954135Y-104209656D02*
X144001754Y-104162036D01*
X156430326Y-105867219D02*
X156430326Y-104867219D01*
X156430326Y-105248171D02*
X156335088Y-105200552D01*
X156335088Y-105200552D02*
X156144612Y-105200552D01*
X156144612Y-105200552D02*
X156049374Y-105248171D01*
X156049374Y-105248171D02*
X156001755Y-105295790D01*
X156001755Y-105295790D02*
X155954136Y-105391028D01*
X155954136Y-105391028D02*
X155954136Y-105676742D01*
X155954136Y-105676742D02*
X156001755Y-105771980D01*
X156001755Y-105771980D02*
X156049374Y-105819600D01*
X156049374Y-105819600D02*
X156144612Y-105867219D01*
X156144612Y-105867219D02*
X156335088Y-105867219D01*
X156335088Y-105867219D02*
X156430326Y-105819600D01*
X155620802Y-105200552D02*
X155382707Y-105867219D01*
X155144612Y-105200552D02*
X155382707Y-105867219D01*
X155382707Y-105867219D02*
X155477945Y-106105314D01*
X155477945Y-106105314D02*
X155525564Y-106152933D01*
X155525564Y-106152933D02*
X155620802Y-106200552D01*
X154049373Y-105819600D02*
X153906516Y-105867219D01*
X153906516Y-105867219D02*
X153668421Y-105867219D01*
X153668421Y-105867219D02*
X153573183Y-105819600D01*
X153573183Y-105819600D02*
X153525564Y-105771980D01*
X153525564Y-105771980D02*
X153477945Y-105676742D01*
X153477945Y-105676742D02*
X153477945Y-105581504D01*
X153477945Y-105581504D02*
X153525564Y-105486266D01*
X153525564Y-105486266D02*
X153573183Y-105438647D01*
X153573183Y-105438647D02*
X153668421Y-105391028D01*
X153668421Y-105391028D02*
X153858897Y-105343409D01*
X153858897Y-105343409D02*
X153954135Y-105295790D01*
X153954135Y-105295790D02*
X154001754Y-105248171D01*
X154001754Y-105248171D02*
X154049373Y-105152933D01*
X154049373Y-105152933D02*
X154049373Y-105057695D01*
X154049373Y-105057695D02*
X154001754Y-104962457D01*
X154001754Y-104962457D02*
X153954135Y-104914838D01*
X153954135Y-104914838D02*
X153858897Y-104867219D01*
X153858897Y-104867219D02*
X153620802Y-104867219D01*
X153620802Y-104867219D02*
X153477945Y-104914838D01*
X152620802Y-105867219D02*
X152620802Y-105343409D01*
X152620802Y-105343409D02*
X152668421Y-105248171D01*
X152668421Y-105248171D02*
X152763659Y-105200552D01*
X152763659Y-105200552D02*
X152954135Y-105200552D01*
X152954135Y-105200552D02*
X153049373Y-105248171D01*
X152620802Y-105819600D02*
X152716040Y-105867219D01*
X152716040Y-105867219D02*
X152954135Y-105867219D01*
X152954135Y-105867219D02*
X153049373Y-105819600D01*
X153049373Y-105819600D02*
X153096992Y-105724361D01*
X153096992Y-105724361D02*
X153096992Y-105629123D01*
X153096992Y-105629123D02*
X153049373Y-105533885D01*
X153049373Y-105533885D02*
X152954135Y-105486266D01*
X152954135Y-105486266D02*
X152716040Y-105486266D01*
X152716040Y-105486266D02*
X152620802Y-105438647D01*
X152144611Y-105867219D02*
X152144611Y-105200552D01*
X152144611Y-105295790D02*
X152096992Y-105248171D01*
X152096992Y-105248171D02*
X152001754Y-105200552D01*
X152001754Y-105200552D02*
X151858897Y-105200552D01*
X151858897Y-105200552D02*
X151763659Y-105248171D01*
X151763659Y-105248171D02*
X151716040Y-105343409D01*
X151716040Y-105343409D02*
X151716040Y-105867219D01*
X151716040Y-105343409D02*
X151668421Y-105248171D01*
X151668421Y-105248171D02*
X151573183Y-105200552D01*
X151573183Y-105200552D02*
X151430326Y-105200552D01*
X151430326Y-105200552D02*
X151335087Y-105248171D01*
X151335087Y-105248171D02*
X151287468Y-105343409D01*
X151287468Y-105343409D02*
X151287468Y-105867219D01*
X150382707Y-105867219D02*
X150382707Y-105343409D01*
X150382707Y-105343409D02*
X150430326Y-105248171D01*
X150430326Y-105248171D02*
X150525564Y-105200552D01*
X150525564Y-105200552D02*
X150716040Y-105200552D01*
X150716040Y-105200552D02*
X150811278Y-105248171D01*
X150382707Y-105819600D02*
X150477945Y-105867219D01*
X150477945Y-105867219D02*
X150716040Y-105867219D01*
X150716040Y-105867219D02*
X150811278Y-105819600D01*
X150811278Y-105819600D02*
X150858897Y-105724361D01*
X150858897Y-105724361D02*
X150858897Y-105629123D01*
X150858897Y-105629123D02*
X150811278Y-105533885D01*
X150811278Y-105533885D02*
X150716040Y-105486266D01*
X150716040Y-105486266D02*
X150477945Y-105486266D01*
X150477945Y-105486266D02*
X150382707Y-105438647D01*
X149906516Y-105200552D02*
X149906516Y-105867219D01*
X149906516Y-105295790D02*
X149858897Y-105248171D01*
X149858897Y-105248171D02*
X149763659Y-105200552D01*
X149763659Y-105200552D02*
X149620802Y-105200552D01*
X149620802Y-105200552D02*
X149525564Y-105248171D01*
X149525564Y-105248171D02*
X149477945Y-105343409D01*
X149477945Y-105343409D02*
X149477945Y-105867219D01*
X149144611Y-105200552D02*
X148763659Y-105200552D01*
X149001754Y-104867219D02*
X149001754Y-105724361D01*
X149001754Y-105724361D02*
X148954135Y-105819600D01*
X148954135Y-105819600D02*
X148858897Y-105867219D01*
X148858897Y-105867219D02*
X148763659Y-105867219D01*
X148430325Y-105867219D02*
X148430325Y-104867219D01*
X148001754Y-105867219D02*
X148001754Y-105343409D01*
X148001754Y-105343409D02*
X148049373Y-105248171D01*
X148049373Y-105248171D02*
X148144611Y-105200552D01*
X148144611Y-105200552D02*
X148287468Y-105200552D01*
X148287468Y-105200552D02*
X148382706Y-105248171D01*
X148382706Y-105248171D02*
X148430325Y-105295790D01*
X147096992Y-105867219D02*
X147096992Y-105343409D01*
X147096992Y-105343409D02*
X147144611Y-105248171D01*
X147144611Y-105248171D02*
X147239849Y-105200552D01*
X147239849Y-105200552D02*
X147430325Y-105200552D01*
X147430325Y-105200552D02*
X147525563Y-105248171D01*
X147096992Y-105819600D02*
X147192230Y-105867219D01*
X147192230Y-105867219D02*
X147430325Y-105867219D01*
X147430325Y-105867219D02*
X147525563Y-105819600D01*
X147525563Y-105819600D02*
X147573182Y-105724361D01*
X147573182Y-105724361D02*
X147573182Y-105629123D01*
X147573182Y-105629123D02*
X147525563Y-105533885D01*
X147525563Y-105533885D02*
X147430325Y-105486266D01*
X147430325Y-105486266D02*
X147192230Y-105486266D01*
X147192230Y-105486266D02*
X147096992Y-105438647D01*
X145287468Y-105771980D02*
X145335087Y-105819600D01*
X145335087Y-105819600D02*
X145477944Y-105867219D01*
X145477944Y-105867219D02*
X145573182Y-105867219D01*
X145573182Y-105867219D02*
X145716039Y-105819600D01*
X145716039Y-105819600D02*
X145811277Y-105724361D01*
X145811277Y-105724361D02*
X145858896Y-105629123D01*
X145858896Y-105629123D02*
X145906515Y-105438647D01*
X145906515Y-105438647D02*
X145906515Y-105295790D01*
X145906515Y-105295790D02*
X145858896Y-105105314D01*
X145858896Y-105105314D02*
X145811277Y-105010076D01*
X145811277Y-105010076D02*
X145716039Y-104914838D01*
X145716039Y-104914838D02*
X145573182Y-104867219D01*
X145573182Y-104867219D02*
X145477944Y-104867219D01*
X145477944Y-104867219D02*
X145335087Y-104914838D01*
X145335087Y-104914838D02*
X145287468Y-104962457D01*
X144858896Y-105867219D02*
X144858896Y-104867219D01*
X144430325Y-105867219D02*
X144430325Y-105343409D01*
X144430325Y-105343409D02*
X144477944Y-105248171D01*
X144477944Y-105248171D02*
X144573182Y-105200552D01*
X144573182Y-105200552D02*
X144716039Y-105200552D01*
X144716039Y-105200552D02*
X144811277Y-105248171D01*
X144811277Y-105248171D02*
X144858896Y-105295790D01*
X143811277Y-105867219D02*
X143906515Y-105819600D01*
X143906515Y-105819600D02*
X143954134Y-105771980D01*
X143954134Y-105771980D02*
X144001753Y-105676742D01*
X144001753Y-105676742D02*
X144001753Y-105391028D01*
X144001753Y-105391028D02*
X143954134Y-105295790D01*
X143954134Y-105295790D02*
X143906515Y-105248171D01*
X143906515Y-105248171D02*
X143811277Y-105200552D01*
X143811277Y-105200552D02*
X143668420Y-105200552D01*
X143668420Y-105200552D02*
X143573182Y-105248171D01*
X143573182Y-105248171D02*
X143525563Y-105295790D01*
X143525563Y-105295790D02*
X143477944Y-105391028D01*
X143477944Y-105391028D02*
X143477944Y-105676742D01*
X143477944Y-105676742D02*
X143525563Y-105771980D01*
X143525563Y-105771980D02*
X143573182Y-105819600D01*
X143573182Y-105819600D02*
X143668420Y-105867219D01*
X143668420Y-105867219D02*
X143811277Y-105867219D01*
X143049372Y-105200552D02*
X143049372Y-105867219D01*
X143049372Y-105295790D02*
X143001753Y-105248171D01*
X143001753Y-105248171D02*
X142906515Y-105200552D01*
X142906515Y-105200552D02*
X142763658Y-105200552D01*
X142763658Y-105200552D02*
X142668420Y-105248171D01*
X142668420Y-105248171D02*
X142620801Y-105343409D01*
X142620801Y-105343409D02*
X142620801Y-105867219D01*
X141716039Y-105200552D02*
X141716039Y-106010076D01*
X141716039Y-106010076D02*
X141763658Y-106105314D01*
X141763658Y-106105314D02*
X141811277Y-106152933D01*
X141811277Y-106152933D02*
X141906515Y-106200552D01*
X141906515Y-106200552D02*
X142049372Y-106200552D01*
X142049372Y-106200552D02*
X142144610Y-106152933D01*
X141716039Y-105819600D02*
X141811277Y-105867219D01*
X141811277Y-105867219D02*
X142001753Y-105867219D01*
X142001753Y-105867219D02*
X142096991Y-105819600D01*
X142096991Y-105819600D02*
X142144610Y-105771980D01*
X142144610Y-105771980D02*
X142192229Y-105676742D01*
X142192229Y-105676742D02*
X142192229Y-105391028D01*
X142192229Y-105391028D02*
X142144610Y-105295790D01*
X142144610Y-105295790D02*
X142096991Y-105248171D01*
X142096991Y-105248171D02*
X142001753Y-105200552D01*
X142001753Y-105200552D02*
X141811277Y-105200552D01*
X141811277Y-105200552D02*
X141716039Y-105248171D01*
X194630326Y-124867219D02*
X194630326Y-123867219D01*
X194630326Y-124343409D02*
X194058898Y-124343409D01*
X194058898Y-124867219D02*
X194058898Y-123867219D01*
X193582707Y-124867219D02*
X193582707Y-123867219D01*
X193344613Y-124962457D02*
X192582708Y-124962457D01*
X192011279Y-124343409D02*
X191868422Y-124391028D01*
X191868422Y-124391028D02*
X191820803Y-124438647D01*
X191820803Y-124438647D02*
X191773184Y-124533885D01*
X191773184Y-124533885D02*
X191773184Y-124676742D01*
X191773184Y-124676742D02*
X191820803Y-124771980D01*
X191820803Y-124771980D02*
X191868422Y-124819600D01*
X191868422Y-124819600D02*
X191963660Y-124867219D01*
X191963660Y-124867219D02*
X192344612Y-124867219D01*
X192344612Y-124867219D02*
X192344612Y-123867219D01*
X192344612Y-123867219D02*
X192011279Y-123867219D01*
X192011279Y-123867219D02*
X191916041Y-123914838D01*
X191916041Y-123914838D02*
X191868422Y-123962457D01*
X191868422Y-123962457D02*
X191820803Y-124057695D01*
X191820803Y-124057695D02*
X191820803Y-124152933D01*
X191820803Y-124152933D02*
X191868422Y-124248171D01*
X191868422Y-124248171D02*
X191916041Y-124295790D01*
X191916041Y-124295790D02*
X192011279Y-124343409D01*
X192011279Y-124343409D02*
X192344612Y-124343409D01*
X194154136Y-122067219D02*
X194630326Y-122067219D01*
X194630326Y-122067219D02*
X194630326Y-121067219D01*
X193820802Y-122067219D02*
X193820802Y-121067219D01*
X193582708Y-122162457D02*
X192820803Y-122162457D01*
X192249374Y-121543409D02*
X192106517Y-121591028D01*
X192106517Y-121591028D02*
X192058898Y-121638647D01*
X192058898Y-121638647D02*
X192011279Y-121733885D01*
X192011279Y-121733885D02*
X192011279Y-121876742D01*
X192011279Y-121876742D02*
X192058898Y-121971980D01*
X192058898Y-121971980D02*
X192106517Y-122019600D01*
X192106517Y-122019600D02*
X192201755Y-122067219D01*
X192201755Y-122067219D02*
X192582707Y-122067219D01*
X192582707Y-122067219D02*
X192582707Y-121067219D01*
X192582707Y-121067219D02*
X192249374Y-121067219D01*
X192249374Y-121067219D02*
X192154136Y-121114838D01*
X192154136Y-121114838D02*
X192106517Y-121162457D01*
X192106517Y-121162457D02*
X192058898Y-121257695D01*
X192058898Y-121257695D02*
X192058898Y-121352933D01*
X192058898Y-121352933D02*
X192106517Y-121448171D01*
X192106517Y-121448171D02*
X192154136Y-121495790D01*
X192154136Y-121495790D02*
X192249374Y-121543409D01*
X192249374Y-121543409D02*
X192582707Y-121543409D01*
X194154136Y-119667219D02*
X194630326Y-119667219D01*
X194630326Y-119667219D02*
X194630326Y-118667219D01*
X193820802Y-119667219D02*
X193820802Y-118667219D01*
X193582708Y-119762457D02*
X192820803Y-119762457D01*
X192630326Y-119381504D02*
X192154136Y-119381504D01*
X192725564Y-119667219D02*
X192392231Y-118667219D01*
X192392231Y-118667219D02*
X192058898Y-119667219D01*
X194630326Y-117067219D02*
X194630326Y-116067219D01*
X194630326Y-116543409D02*
X194058898Y-116543409D01*
X194058898Y-117067219D02*
X194058898Y-116067219D01*
X193582707Y-117067219D02*
X193582707Y-116067219D01*
X193344613Y-117162457D02*
X192582708Y-117162457D01*
X192392231Y-116781504D02*
X191916041Y-116781504D01*
X192487469Y-117067219D02*
X192154136Y-116067219D01*
X192154136Y-116067219D02*
X191820803Y-117067219D01*
X194058898Y-114571980D02*
X194106517Y-114619600D01*
X194106517Y-114619600D02*
X194249374Y-114667219D01*
X194249374Y-114667219D02*
X194344612Y-114667219D01*
X194344612Y-114667219D02*
X194487469Y-114619600D01*
X194487469Y-114619600D02*
X194582707Y-114524361D01*
X194582707Y-114524361D02*
X194630326Y-114429123D01*
X194630326Y-114429123D02*
X194677945Y-114238647D01*
X194677945Y-114238647D02*
X194677945Y-114095790D01*
X194677945Y-114095790D02*
X194630326Y-113905314D01*
X194630326Y-113905314D02*
X194582707Y-113810076D01*
X194582707Y-113810076D02*
X194487469Y-113714838D01*
X194487469Y-113714838D02*
X194344612Y-113667219D01*
X194344612Y-113667219D02*
X194249374Y-113667219D01*
X194249374Y-113667219D02*
X194106517Y-113714838D01*
X194106517Y-113714838D02*
X194058898Y-113762457D01*
X193630326Y-113667219D02*
X193630326Y-114476742D01*
X193630326Y-114476742D02*
X193582707Y-114571980D01*
X193582707Y-114571980D02*
X193535088Y-114619600D01*
X193535088Y-114619600D02*
X193439850Y-114667219D01*
X193439850Y-114667219D02*
X193249374Y-114667219D01*
X193249374Y-114667219D02*
X193154136Y-114619600D01*
X193154136Y-114619600D02*
X193106517Y-114571980D01*
X193106517Y-114571980D02*
X193058898Y-114476742D01*
X193058898Y-114476742D02*
X193058898Y-113667219D01*
X192011279Y-114667219D02*
X192344612Y-114191028D01*
X192582707Y-114667219D02*
X192582707Y-113667219D01*
X192582707Y-113667219D02*
X192201755Y-113667219D01*
X192201755Y-113667219D02*
X192106517Y-113714838D01*
X192106517Y-113714838D02*
X192058898Y-113762457D01*
X192058898Y-113762457D02*
X192011279Y-113857695D01*
X192011279Y-113857695D02*
X192011279Y-114000552D01*
X192011279Y-114000552D02*
X192058898Y-114095790D01*
X192058898Y-114095790D02*
X192106517Y-114143409D01*
X192106517Y-114143409D02*
X192201755Y-114191028D01*
X192201755Y-114191028D02*
X192582707Y-114191028D01*
X191011279Y-114667219D02*
X191344612Y-114191028D01*
X191582707Y-114667219D02*
X191582707Y-113667219D01*
X191582707Y-113667219D02*
X191201755Y-113667219D01*
X191201755Y-113667219D02*
X191106517Y-113714838D01*
X191106517Y-113714838D02*
X191058898Y-113762457D01*
X191058898Y-113762457D02*
X191011279Y-113857695D01*
X191011279Y-113857695D02*
X191011279Y-114000552D01*
X191011279Y-114000552D02*
X191058898Y-114095790D01*
X191058898Y-114095790D02*
X191106517Y-114143409D01*
X191106517Y-114143409D02*
X191201755Y-114191028D01*
X191201755Y-114191028D02*
X191582707Y-114191028D01*
X190582707Y-114143409D02*
X190249374Y-114143409D01*
X190106517Y-114667219D02*
X190582707Y-114667219D01*
X190582707Y-114667219D02*
X190582707Y-113667219D01*
X190582707Y-113667219D02*
X190106517Y-113667219D01*
X189677945Y-114667219D02*
X189677945Y-113667219D01*
X189677945Y-113667219D02*
X189106517Y-114667219D01*
X189106517Y-114667219D02*
X189106517Y-113667219D01*
X188773183Y-113667219D02*
X188201755Y-113667219D01*
X188487469Y-114667219D02*
X188487469Y-113667219D01*
X188106517Y-114762457D02*
X187344612Y-114762457D01*
X187154135Y-114381504D02*
X186677945Y-114381504D01*
X187249373Y-114667219D02*
X186916040Y-113667219D01*
X186916040Y-113667219D02*
X186582707Y-114667219D01*
X186249373Y-114667219D02*
X186249373Y-113667219D01*
X186249373Y-113667219D02*
X186011278Y-113667219D01*
X186011278Y-113667219D02*
X185868421Y-113714838D01*
X185868421Y-113714838D02*
X185773183Y-113810076D01*
X185773183Y-113810076D02*
X185725564Y-113905314D01*
X185725564Y-113905314D02*
X185677945Y-114095790D01*
X185677945Y-114095790D02*
X185677945Y-114238647D01*
X185677945Y-114238647D02*
X185725564Y-114429123D01*
X185725564Y-114429123D02*
X185773183Y-114524361D01*
X185773183Y-114524361D02*
X185868421Y-114619600D01*
X185868421Y-114619600D02*
X186011278Y-114667219D01*
X186011278Y-114667219D02*
X186249373Y-114667219D01*
X184677945Y-114571980D02*
X184725564Y-114619600D01*
X184725564Y-114619600D02*
X184868421Y-114667219D01*
X184868421Y-114667219D02*
X184963659Y-114667219D01*
X184963659Y-114667219D02*
X185106516Y-114619600D01*
X185106516Y-114619600D02*
X185201754Y-114524361D01*
X185201754Y-114524361D02*
X185249373Y-114429123D01*
X185249373Y-114429123D02*
X185296992Y-114238647D01*
X185296992Y-114238647D02*
X185296992Y-114095790D01*
X185296992Y-114095790D02*
X185249373Y-113905314D01*
X185249373Y-113905314D02*
X185201754Y-113810076D01*
X185201754Y-113810076D02*
X185106516Y-113714838D01*
X185106516Y-113714838D02*
X184963659Y-113667219D01*
X184963659Y-113667219D02*
X184868421Y-113667219D01*
X184868421Y-113667219D02*
X184725564Y-113714838D01*
X184725564Y-113714838D02*
X184677945Y-113762457D01*
X194154136Y-112067219D02*
X194630326Y-112067219D01*
X194630326Y-112067219D02*
X194630326Y-111067219D01*
X193820802Y-112067219D02*
X193820802Y-111067219D01*
X193392231Y-112019600D02*
X193249374Y-112067219D01*
X193249374Y-112067219D02*
X193011279Y-112067219D01*
X193011279Y-112067219D02*
X192916041Y-112019600D01*
X192916041Y-112019600D02*
X192868422Y-111971980D01*
X192868422Y-111971980D02*
X192820803Y-111876742D01*
X192820803Y-111876742D02*
X192820803Y-111781504D01*
X192820803Y-111781504D02*
X192868422Y-111686266D01*
X192868422Y-111686266D02*
X192916041Y-111638647D01*
X192916041Y-111638647D02*
X193011279Y-111591028D01*
X193011279Y-111591028D02*
X193201755Y-111543409D01*
X193201755Y-111543409D02*
X193296993Y-111495790D01*
X193296993Y-111495790D02*
X193344612Y-111448171D01*
X193344612Y-111448171D02*
X193392231Y-111352933D01*
X193392231Y-111352933D02*
X193392231Y-111257695D01*
X193392231Y-111257695D02*
X193344612Y-111162457D01*
X193344612Y-111162457D02*
X193296993Y-111114838D01*
X193296993Y-111114838D02*
X193201755Y-111067219D01*
X193201755Y-111067219D02*
X192963660Y-111067219D01*
X192963660Y-111067219D02*
X192820803Y-111114838D01*
X192535088Y-111067219D02*
X191963660Y-111067219D01*
X192249374Y-112067219D02*
X192249374Y-111067219D01*
X191630326Y-111543409D02*
X191296993Y-111543409D01*
X191154136Y-112067219D02*
X191630326Y-112067219D01*
X191630326Y-112067219D02*
X191630326Y-111067219D01*
X191630326Y-111067219D02*
X191154136Y-111067219D01*
X190725564Y-112067219D02*
X190725564Y-111067219D01*
X190725564Y-111067219D02*
X190154136Y-112067219D01*
X190154136Y-112067219D02*
X190154136Y-111067219D01*
X189916041Y-112162457D02*
X189154136Y-112162457D01*
X188916040Y-111543409D02*
X188582707Y-111543409D01*
X188439850Y-112067219D02*
X188916040Y-112067219D01*
X188916040Y-112067219D02*
X188916040Y-111067219D01*
X188916040Y-111067219D02*
X188439850Y-111067219D01*
X188011278Y-112067219D02*
X188011278Y-111067219D01*
X188011278Y-111067219D02*
X187439850Y-112067219D01*
X187439850Y-112067219D02*
X187439850Y-111067219D01*
X194677945Y-109419600D02*
X194535088Y-109467219D01*
X194535088Y-109467219D02*
X194296993Y-109467219D01*
X194296993Y-109467219D02*
X194201755Y-109419600D01*
X194201755Y-109419600D02*
X194154136Y-109371980D01*
X194154136Y-109371980D02*
X194106517Y-109276742D01*
X194106517Y-109276742D02*
X194106517Y-109181504D01*
X194106517Y-109181504D02*
X194154136Y-109086266D01*
X194154136Y-109086266D02*
X194201755Y-109038647D01*
X194201755Y-109038647D02*
X194296993Y-108991028D01*
X194296993Y-108991028D02*
X194487469Y-108943409D01*
X194487469Y-108943409D02*
X194582707Y-108895790D01*
X194582707Y-108895790D02*
X194630326Y-108848171D01*
X194630326Y-108848171D02*
X194677945Y-108752933D01*
X194677945Y-108752933D02*
X194677945Y-108657695D01*
X194677945Y-108657695D02*
X194630326Y-108562457D01*
X194630326Y-108562457D02*
X194582707Y-108514838D01*
X194582707Y-108514838D02*
X194487469Y-108467219D01*
X194487469Y-108467219D02*
X194249374Y-108467219D01*
X194249374Y-108467219D02*
X194106517Y-108514838D01*
X193106517Y-109371980D02*
X193154136Y-109419600D01*
X193154136Y-109419600D02*
X193296993Y-109467219D01*
X193296993Y-109467219D02*
X193392231Y-109467219D01*
X193392231Y-109467219D02*
X193535088Y-109419600D01*
X193535088Y-109419600D02*
X193630326Y-109324361D01*
X193630326Y-109324361D02*
X193677945Y-109229123D01*
X193677945Y-109229123D02*
X193725564Y-109038647D01*
X193725564Y-109038647D02*
X193725564Y-108895790D01*
X193725564Y-108895790D02*
X193677945Y-108705314D01*
X193677945Y-108705314D02*
X193630326Y-108610076D01*
X193630326Y-108610076D02*
X193535088Y-108514838D01*
X193535088Y-108514838D02*
X193392231Y-108467219D01*
X193392231Y-108467219D02*
X193296993Y-108467219D01*
X193296993Y-108467219D02*
X193154136Y-108514838D01*
X193154136Y-108514838D02*
X193106517Y-108562457D01*
X192201755Y-109467219D02*
X192677945Y-109467219D01*
X192677945Y-109467219D02*
X192677945Y-108467219D01*
X194677945Y-106819600D02*
X194535088Y-106867219D01*
X194535088Y-106867219D02*
X194296993Y-106867219D01*
X194296993Y-106867219D02*
X194201755Y-106819600D01*
X194201755Y-106819600D02*
X194154136Y-106771980D01*
X194154136Y-106771980D02*
X194106517Y-106676742D01*
X194106517Y-106676742D02*
X194106517Y-106581504D01*
X194106517Y-106581504D02*
X194154136Y-106486266D01*
X194154136Y-106486266D02*
X194201755Y-106438647D01*
X194201755Y-106438647D02*
X194296993Y-106391028D01*
X194296993Y-106391028D02*
X194487469Y-106343409D01*
X194487469Y-106343409D02*
X194582707Y-106295790D01*
X194582707Y-106295790D02*
X194630326Y-106248171D01*
X194630326Y-106248171D02*
X194677945Y-106152933D01*
X194677945Y-106152933D02*
X194677945Y-106057695D01*
X194677945Y-106057695D02*
X194630326Y-105962457D01*
X194630326Y-105962457D02*
X194582707Y-105914838D01*
X194582707Y-105914838D02*
X194487469Y-105867219D01*
X194487469Y-105867219D02*
X194249374Y-105867219D01*
X194249374Y-105867219D02*
X194106517Y-105914838D01*
X193677945Y-106867219D02*
X193677945Y-105867219D01*
X193677945Y-105867219D02*
X193439850Y-105867219D01*
X193439850Y-105867219D02*
X193296993Y-105914838D01*
X193296993Y-105914838D02*
X193201755Y-106010076D01*
X193201755Y-106010076D02*
X193154136Y-106105314D01*
X193154136Y-106105314D02*
X193106517Y-106295790D01*
X193106517Y-106295790D02*
X193106517Y-106438647D01*
X193106517Y-106438647D02*
X193154136Y-106629123D01*
X193154136Y-106629123D02*
X193201755Y-106724361D01*
X193201755Y-106724361D02*
X193296993Y-106819600D01*
X193296993Y-106819600D02*
X193439850Y-106867219D01*
X193439850Y-106867219D02*
X193677945Y-106867219D01*
X192725564Y-106581504D02*
X192249374Y-106581504D01*
X192820802Y-106867219D02*
X192487469Y-105867219D01*
X192487469Y-105867219D02*
X192154136Y-106867219D01*
X194677945Y-104181504D02*
X194201755Y-104181504D01*
X194773183Y-104467219D02*
X194439850Y-103467219D01*
X194439850Y-103467219D02*
X194106517Y-104467219D01*
X193773183Y-104467219D02*
X193773183Y-103467219D01*
X193773183Y-103467219D02*
X193535088Y-103467219D01*
X193535088Y-103467219D02*
X193392231Y-103514838D01*
X193392231Y-103514838D02*
X193296993Y-103610076D01*
X193296993Y-103610076D02*
X193249374Y-103705314D01*
X193249374Y-103705314D02*
X193201755Y-103895790D01*
X193201755Y-103895790D02*
X193201755Y-104038647D01*
X193201755Y-104038647D02*
X193249374Y-104229123D01*
X193249374Y-104229123D02*
X193296993Y-104324361D01*
X193296993Y-104324361D02*
X193392231Y-104419600D01*
X193392231Y-104419600D02*
X193535088Y-104467219D01*
X193535088Y-104467219D02*
X193773183Y-104467219D01*
X192201755Y-104371980D02*
X192249374Y-104419600D01*
X192249374Y-104419600D02*
X192392231Y-104467219D01*
X192392231Y-104467219D02*
X192487469Y-104467219D01*
X192487469Y-104467219D02*
X192630326Y-104419600D01*
X192630326Y-104419600D02*
X192725564Y-104324361D01*
X192725564Y-104324361D02*
X192773183Y-104229123D01*
X192773183Y-104229123D02*
X192820802Y-104038647D01*
X192820802Y-104038647D02*
X192820802Y-103895790D01*
X192820802Y-103895790D02*
X192773183Y-103705314D01*
X192773183Y-103705314D02*
X192725564Y-103610076D01*
X192725564Y-103610076D02*
X192630326Y-103514838D01*
X192630326Y-103514838D02*
X192487469Y-103467219D01*
X192487469Y-103467219D02*
X192392231Y-103467219D01*
X192392231Y-103467219D02*
X192249374Y-103514838D01*
X192249374Y-103514838D02*
X192201755Y-103562457D01*
X192011279Y-104562457D02*
X191249374Y-104562457D01*
X190820802Y-103467219D02*
X190630326Y-103467219D01*
X190630326Y-103467219D02*
X190535088Y-103514838D01*
X190535088Y-103514838D02*
X190439850Y-103610076D01*
X190439850Y-103610076D02*
X190392231Y-103800552D01*
X190392231Y-103800552D02*
X190392231Y-104133885D01*
X190392231Y-104133885D02*
X190439850Y-104324361D01*
X190439850Y-104324361D02*
X190535088Y-104419600D01*
X190535088Y-104419600D02*
X190630326Y-104467219D01*
X190630326Y-104467219D02*
X190820802Y-104467219D01*
X190820802Y-104467219D02*
X190916040Y-104419600D01*
X190916040Y-104419600D02*
X191011278Y-104324361D01*
X191011278Y-104324361D02*
X191058897Y-104133885D01*
X191058897Y-104133885D02*
X191058897Y-103800552D01*
X191058897Y-103800552D02*
X191011278Y-103610076D01*
X191011278Y-103610076D02*
X190916040Y-103514838D01*
X190916040Y-103514838D02*
X190820802Y-103467219D01*
X189963659Y-103467219D02*
X189963659Y-104276742D01*
X189963659Y-104276742D02*
X189916040Y-104371980D01*
X189916040Y-104371980D02*
X189868421Y-104419600D01*
X189868421Y-104419600D02*
X189773183Y-104467219D01*
X189773183Y-104467219D02*
X189582707Y-104467219D01*
X189582707Y-104467219D02*
X189487469Y-104419600D01*
X189487469Y-104419600D02*
X189439850Y-104371980D01*
X189439850Y-104371980D02*
X189392231Y-104276742D01*
X189392231Y-104276742D02*
X189392231Y-103467219D01*
X189058897Y-103467219D02*
X188487469Y-103467219D01*
X188773183Y-104467219D02*
X188773183Y-103467219D01*
X144725564Y-135067219D02*
X144106517Y-135067219D01*
X144106517Y-135067219D02*
X144439850Y-135448171D01*
X144439850Y-135448171D02*
X144296993Y-135448171D01*
X144296993Y-135448171D02*
X144201755Y-135495790D01*
X144201755Y-135495790D02*
X144154136Y-135543409D01*
X144154136Y-135543409D02*
X144106517Y-135638647D01*
X144106517Y-135638647D02*
X144106517Y-135876742D01*
X144106517Y-135876742D02*
X144154136Y-135971980D01*
X144154136Y-135971980D02*
X144201755Y-136019600D01*
X144201755Y-136019600D02*
X144296993Y-136067219D01*
X144296993Y-136067219D02*
X144582707Y-136067219D01*
X144582707Y-136067219D02*
X144677945Y-136019600D01*
X144677945Y-136019600D02*
X144725564Y-135971980D01*
X143677945Y-135971980D02*
X143630326Y-136019600D01*
X143630326Y-136019600D02*
X143677945Y-136067219D01*
X143677945Y-136067219D02*
X143725564Y-136019600D01*
X143725564Y-136019600D02*
X143677945Y-135971980D01*
X143677945Y-135971980D02*
X143677945Y-136067219D01*
X143296993Y-135067219D02*
X142677946Y-135067219D01*
X142677946Y-135067219D02*
X143011279Y-135448171D01*
X143011279Y-135448171D02*
X142868422Y-135448171D01*
X142868422Y-135448171D02*
X142773184Y-135495790D01*
X142773184Y-135495790D02*
X142725565Y-135543409D01*
X142725565Y-135543409D02*
X142677946Y-135638647D01*
X142677946Y-135638647D02*
X142677946Y-135876742D01*
X142677946Y-135876742D02*
X142725565Y-135971980D01*
X142725565Y-135971980D02*
X142773184Y-136019600D01*
X142773184Y-136019600D02*
X142868422Y-136067219D01*
X142868422Y-136067219D02*
X143154136Y-136067219D01*
X143154136Y-136067219D02*
X143249374Y-136019600D01*
X143249374Y-136019600D02*
X143296993Y-135971980D01*
X142392231Y-135067219D02*
X142058898Y-136067219D01*
X142058898Y-136067219D02*
X141725565Y-135067219D01*
X147373183Y-130067219D02*
X147039850Y-131067219D01*
X147039850Y-131067219D02*
X146706517Y-130067219D01*
X146611279Y-131162457D02*
X145849374Y-131162457D01*
X145611278Y-131067219D02*
X145611278Y-130067219D01*
X145611278Y-130067219D02*
X145230326Y-130067219D01*
X145230326Y-130067219D02*
X145135088Y-130114838D01*
X145135088Y-130114838D02*
X145087469Y-130162457D01*
X145087469Y-130162457D02*
X145039850Y-130257695D01*
X145039850Y-130257695D02*
X145039850Y-130400552D01*
X145039850Y-130400552D02*
X145087469Y-130495790D01*
X145087469Y-130495790D02*
X145135088Y-130543409D01*
X145135088Y-130543409D02*
X145230326Y-130591028D01*
X145230326Y-130591028D02*
X145611278Y-130591028D01*
X144611278Y-131067219D02*
X144611278Y-130067219D01*
X144135088Y-130543409D02*
X143801755Y-130543409D01*
X143658898Y-131067219D02*
X144135088Y-131067219D01*
X144135088Y-131067219D02*
X144135088Y-130067219D01*
X144135088Y-130067219D02*
X143658898Y-130067219D01*
X143325564Y-130067219D02*
X142658898Y-130067219D01*
X142658898Y-130067219D02*
X143325564Y-131067219D01*
X143325564Y-131067219D02*
X142658898Y-131067219D01*
X142087469Y-130067219D02*
X141896993Y-130067219D01*
X141896993Y-130067219D02*
X141801755Y-130114838D01*
X141801755Y-130114838D02*
X141706517Y-130210076D01*
X141706517Y-130210076D02*
X141658898Y-130400552D01*
X141658898Y-130400552D02*
X141658898Y-130733885D01*
X141658898Y-130733885D02*
X141706517Y-130924361D01*
X141706517Y-130924361D02*
X141801755Y-131019600D01*
X141801755Y-131019600D02*
X141896993Y-131067219D01*
X141896993Y-131067219D02*
X142087469Y-131067219D01*
X142087469Y-131067219D02*
X142182707Y-131019600D01*
X142182707Y-131019600D02*
X142277945Y-130924361D01*
X142277945Y-130924361D02*
X142325564Y-130733885D01*
X142325564Y-130733885D02*
X142325564Y-130400552D01*
X142325564Y-130400552D02*
X142277945Y-130210076D01*
X142277945Y-130210076D02*
X142182707Y-130114838D01*
X142182707Y-130114838D02*
X142087469Y-130067219D01*
X143706517Y-137714838D02*
X143801755Y-137667219D01*
X143801755Y-137667219D02*
X143944612Y-137667219D01*
X143944612Y-137667219D02*
X144087469Y-137714838D01*
X144087469Y-137714838D02*
X144182707Y-137810076D01*
X144182707Y-137810076D02*
X144230326Y-137905314D01*
X144230326Y-137905314D02*
X144277945Y-138095790D01*
X144277945Y-138095790D02*
X144277945Y-138238647D01*
X144277945Y-138238647D02*
X144230326Y-138429123D01*
X144230326Y-138429123D02*
X144182707Y-138524361D01*
X144182707Y-138524361D02*
X144087469Y-138619600D01*
X144087469Y-138619600D02*
X143944612Y-138667219D01*
X143944612Y-138667219D02*
X143849374Y-138667219D01*
X143849374Y-138667219D02*
X143706517Y-138619600D01*
X143706517Y-138619600D02*
X143658898Y-138571980D01*
X143658898Y-138571980D02*
X143658898Y-138238647D01*
X143658898Y-138238647D02*
X143849374Y-138238647D01*
X143230326Y-138667219D02*
X143230326Y-137667219D01*
X143230326Y-137667219D02*
X142658898Y-138667219D01*
X142658898Y-138667219D02*
X142658898Y-137667219D01*
X142182707Y-138667219D02*
X142182707Y-137667219D01*
X142182707Y-137667219D02*
X141944612Y-137667219D01*
X141944612Y-137667219D02*
X141801755Y-137714838D01*
X141801755Y-137714838D02*
X141706517Y-137810076D01*
X141706517Y-137810076D02*
X141658898Y-137905314D01*
X141658898Y-137905314D02*
X141611279Y-138095790D01*
X141611279Y-138095790D02*
X141611279Y-138238647D01*
X141611279Y-138238647D02*
X141658898Y-138429123D01*
X141658898Y-138429123D02*
X141706517Y-138524361D01*
X141706517Y-138524361D02*
X141801755Y-138619600D01*
X141801755Y-138619600D02*
X141944612Y-138667219D01*
X141944612Y-138667219D02*
X142182707Y-138667219D01*
X143706517Y-132514838D02*
X143801755Y-132467219D01*
X143801755Y-132467219D02*
X143944612Y-132467219D01*
X143944612Y-132467219D02*
X144087469Y-132514838D01*
X144087469Y-132514838D02*
X144182707Y-132610076D01*
X144182707Y-132610076D02*
X144230326Y-132705314D01*
X144230326Y-132705314D02*
X144277945Y-132895790D01*
X144277945Y-132895790D02*
X144277945Y-133038647D01*
X144277945Y-133038647D02*
X144230326Y-133229123D01*
X144230326Y-133229123D02*
X144182707Y-133324361D01*
X144182707Y-133324361D02*
X144087469Y-133419600D01*
X144087469Y-133419600D02*
X143944612Y-133467219D01*
X143944612Y-133467219D02*
X143849374Y-133467219D01*
X143849374Y-133467219D02*
X143706517Y-133419600D01*
X143706517Y-133419600D02*
X143658898Y-133371980D01*
X143658898Y-133371980D02*
X143658898Y-133038647D01*
X143658898Y-133038647D02*
X143849374Y-133038647D01*
X143230326Y-133467219D02*
X143230326Y-132467219D01*
X143230326Y-132467219D02*
X142658898Y-133467219D01*
X142658898Y-133467219D02*
X142658898Y-132467219D01*
X142182707Y-133467219D02*
X142182707Y-132467219D01*
X142182707Y-132467219D02*
X141944612Y-132467219D01*
X141944612Y-132467219D02*
X141801755Y-132514838D01*
X141801755Y-132514838D02*
X141706517Y-132610076D01*
X141706517Y-132610076D02*
X141658898Y-132705314D01*
X141658898Y-132705314D02*
X141611279Y-132895790D01*
X141611279Y-132895790D02*
X141611279Y-133038647D01*
X141611279Y-133038647D02*
X141658898Y-133229123D01*
X141658898Y-133229123D02*
X141706517Y-133324361D01*
X141706517Y-133324361D02*
X141801755Y-133419600D01*
X141801755Y-133419600D02*
X141944612Y-133467219D01*
X141944612Y-133467219D02*
X142182707Y-133467219D01*
X143706517Y-127414838D02*
X143801755Y-127367219D01*
X143801755Y-127367219D02*
X143944612Y-127367219D01*
X143944612Y-127367219D02*
X144087469Y-127414838D01*
X144087469Y-127414838D02*
X144182707Y-127510076D01*
X144182707Y-127510076D02*
X144230326Y-127605314D01*
X144230326Y-127605314D02*
X144277945Y-127795790D01*
X144277945Y-127795790D02*
X144277945Y-127938647D01*
X144277945Y-127938647D02*
X144230326Y-128129123D01*
X144230326Y-128129123D02*
X144182707Y-128224361D01*
X144182707Y-128224361D02*
X144087469Y-128319600D01*
X144087469Y-128319600D02*
X143944612Y-128367219D01*
X143944612Y-128367219D02*
X143849374Y-128367219D01*
X143849374Y-128367219D02*
X143706517Y-128319600D01*
X143706517Y-128319600D02*
X143658898Y-128271980D01*
X143658898Y-128271980D02*
X143658898Y-127938647D01*
X143658898Y-127938647D02*
X143849374Y-127938647D01*
X143230326Y-128367219D02*
X143230326Y-127367219D01*
X143230326Y-127367219D02*
X142658898Y-128367219D01*
X142658898Y-128367219D02*
X142658898Y-127367219D01*
X142182707Y-128367219D02*
X142182707Y-127367219D01*
X142182707Y-127367219D02*
X141944612Y-127367219D01*
X141944612Y-127367219D02*
X141801755Y-127414838D01*
X141801755Y-127414838D02*
X141706517Y-127510076D01*
X141706517Y-127510076D02*
X141658898Y-127605314D01*
X141658898Y-127605314D02*
X141611279Y-127795790D01*
X141611279Y-127795790D02*
X141611279Y-127938647D01*
X141611279Y-127938647D02*
X141658898Y-128129123D01*
X141658898Y-128129123D02*
X141706517Y-128224361D01*
X141706517Y-128224361D02*
X141801755Y-128319600D01*
X141801755Y-128319600D02*
X141944612Y-128367219D01*
X141944612Y-128367219D02*
X142182707Y-128367219D01*
X143506517Y-125867219D02*
X144077945Y-125867219D01*
X143792231Y-125867219D02*
X143792231Y-124867219D01*
X143792231Y-124867219D02*
X143887469Y-125010076D01*
X143887469Y-125010076D02*
X143982707Y-125105314D01*
X143982707Y-125105314D02*
X144077945Y-125152933D01*
X143125564Y-124962457D02*
X143077945Y-124914838D01*
X143077945Y-124914838D02*
X142982707Y-124867219D01*
X142982707Y-124867219D02*
X142744612Y-124867219D01*
X142744612Y-124867219D02*
X142649374Y-124914838D01*
X142649374Y-124914838D02*
X142601755Y-124962457D01*
X142601755Y-124962457D02*
X142554136Y-125057695D01*
X142554136Y-125057695D02*
X142554136Y-125152933D01*
X142554136Y-125152933D02*
X142601755Y-125295790D01*
X142601755Y-125295790D02*
X143173183Y-125867219D01*
X143173183Y-125867219D02*
X142554136Y-125867219D01*
X142268421Y-124867219D02*
X141935088Y-125867219D01*
X141935088Y-125867219D02*
X141601755Y-124867219D01*
M02*
