M48
; DRILL file KiCad 10.0.1 date 2026-04-20T11:37:20
; FORMAT={-:-/ absolute / metric / decimal}
; #@! TF.CreationDate,2026-04-20T11:37:20-04:00
; #@! TF.GenerationSoftware,Kicad,Pcbnew,10.0.1
; #@! TF.FileFunction,Plated,1,2,PTH
FMAT,2
METRIC
; #@! TA.AperFunction,Plated,PTH,ViaDrill
T1C0.300
; #@! TA.AperFunction,Plated,PTH,ComponentDrill
T2C1.000
; #@! TA.AperFunction,Plated,PTH,ComponentDrill
T3C1.700
%
G90
G05
T1
X136.94Y-46.417
X139.48Y-46.417
X139.48Y-51.497
X139.48Y-54.037
X139.48Y-56.577
X139.48Y-59.117
X139.48Y-64.197
X139.48Y-66.737
X139.48Y-69.277
X139.48Y-71.817
X139.48Y-74.357
X139.48Y-76.897
X139.48Y-79.437
X139.48Y-81.977
X139.48Y-84.517
X139.48Y-92.137
X139.48Y-94.677
X139.48Y-97.217
X139.48Y-99.757
X139.48Y-102.297
X139.48Y-104.837
X139.48Y-107.377
X142.02Y-46.417
X142.02Y-54.037
X142.02Y-56.577
X142.02Y-59.117
X142.02Y-64.197
X142.02Y-66.737
X142.02Y-69.277
X142.02Y-71.817
X142.02Y-74.357
X142.02Y-76.897
X142.02Y-79.437
X142.02Y-81.977
X142.02Y-84.517
X142.02Y-87.057
X142.02Y-92.137
X142.02Y-94.677
X142.02Y-97.217
X142.02Y-99.757
X142.02Y-102.297
X142.02Y-104.837
X142.02Y-107.377
X144.56Y-46.417
X144.56Y-54.037
X144.56Y-59.117
X144.56Y-64.197
X144.56Y-66.737
X144.56Y-69.277
X144.56Y-71.817
X144.56Y-74.357
X144.56Y-76.897
X144.56Y-79.437
X144.56Y-81.977
X144.56Y-84.517
X144.56Y-87.057
X144.56Y-97.217
X144.56Y-99.757
X144.56Y-102.297
X144.56Y-104.837
X144.56Y-107.377
X146.25Y-93.5
X147.1Y-74.357
X147.1Y-76.897
X147.1Y-79.437
X147.1Y-81.977
X147.1Y-84.517
X147.1Y-87.057
X147.1Y-97.217
X147.1Y-99.757
X147.1Y-102.297
X147.1Y-104.837
X147.1Y-107.377
X149.64Y-46.417
X149.64Y-48.957
X149.64Y-69.277
X149.64Y-76.897
X149.64Y-81.977
X149.64Y-84.517
X149.64Y-87.057
X149.64Y-89.597
X149.64Y-94.677
X149.64Y-97.217
X149.64Y-99.757
X149.64Y-102.297
X149.64Y-104.837
X149.64Y-107.377
X152.18Y-46.417
X152.18Y-54.037
X152.18Y-56.577
X152.18Y-84.517
X152.18Y-104.837
X152.18Y-107.377
X152.595Y-80.375
X154.72Y-46.417
X154.72Y-76.897
X154.72Y-104.837
X154.72Y-107.377
X156.325Y-96.375
X156.725Y-92.875
X157.0Y-82.1
X157.26Y-46.417
X157.26Y-54.037
X157.26Y-56.577
X157.26Y-104.837
X157.26Y-107.377
X158.5Y-87.875
X159.8Y-46.417
X159.8Y-48.957
X159.8Y-51.497
X159.8Y-54.037
X159.8Y-56.577
X159.8Y-59.117
X159.8Y-69.277
X159.8Y-74.357
X159.8Y-76.897
X159.8Y-79.437
X159.8Y-81.977
X159.8Y-94.677
X159.8Y-102.297
X159.8Y-104.837
X159.8Y-107.377
X162.34Y-46.417
X162.34Y-48.957
X162.34Y-51.497
X162.34Y-54.037
X162.34Y-56.577
X162.34Y-59.117
X162.34Y-61.657
X162.34Y-64.197
X162.34Y-71.817
X162.34Y-74.357
X162.34Y-76.897
X162.34Y-79.437
X162.34Y-81.977
X162.34Y-102.297
X162.34Y-104.837
X162.34Y-107.377
X164.4Y-87.75
X164.88Y-46.417
X164.88Y-48.957
X164.88Y-51.497
X164.88Y-54.037
X164.88Y-56.577
X164.88Y-59.117
X164.88Y-61.657
X164.88Y-64.197
X164.88Y-66.737
X164.88Y-74.357
X164.88Y-76.897
X164.88Y-79.437
X164.88Y-89.597
X164.88Y-92.137
X164.88Y-102.297
X164.88Y-104.837
X164.88Y-107.377
X167.42Y-46.417
X167.42Y-48.957
X167.42Y-51.497
X167.42Y-54.037
X167.42Y-56.577
X167.42Y-59.117
X167.42Y-61.657
X167.42Y-64.197
X167.42Y-66.737
X167.42Y-69.277
X167.42Y-71.817
X167.42Y-74.357
X167.42Y-76.897
X167.42Y-79.437
X167.42Y-89.597
X167.42Y-92.137
X167.42Y-102.297
X167.42Y-104.837
X167.42Y-107.377
X169.96Y-46.417
X169.96Y-48.957
X169.96Y-51.497
X169.96Y-54.037
X169.96Y-56.577
X169.96Y-59.117
X169.96Y-61.657
X169.96Y-64.197
X169.96Y-66.737
X169.96Y-69.277
X169.96Y-71.817
X169.96Y-74.357
X169.96Y-76.897
X169.96Y-79.437
X169.96Y-81.977
X169.96Y-84.517
X169.96Y-87.057
X169.96Y-89.597
X169.96Y-92.137
X169.96Y-94.677
X169.96Y-97.217
X169.96Y-99.757
X169.96Y-102.297
X169.96Y-104.837
X169.96Y-107.377
X172.5Y-46.417
T2
X137.0Y-48.5
X137.0Y-51.04
X137.0Y-53.58
X137.0Y-56.12
X137.0Y-58.66
X137.0Y-61.2
X137.0Y-63.74
X137.0Y-66.28
X137.0Y-68.82
X137.0Y-71.36
X137.0Y-73.9
X137.0Y-76.44
X137.0Y-78.98
X137.0Y-81.52
X137.0Y-84.06
X137.0Y-86.6
X137.0Y-89.14
X137.0Y-91.68
X137.0Y-94.22
X137.0Y-96.76
X137.0Y-99.3
X137.0Y-101.84
X137.0Y-104.38
X137.0Y-106.92
X150.69Y-63.625
X153.23Y-63.625
X155.77Y-63.625
X158.31Y-63.625
X166.0Y-94.71
X166.0Y-97.25
X166.0Y-99.79
X172.0Y-48.5
X172.0Y-51.04
X172.0Y-53.58
X172.0Y-56.12
X172.0Y-58.66
X172.0Y-61.2
X172.0Y-63.74
X172.0Y-66.28
X172.0Y-68.82
X172.0Y-71.36
X172.0Y-73.9
X172.0Y-76.44
X172.0Y-78.98
X172.0Y-81.52
X172.0Y-84.06
X172.0Y-86.6
X172.0Y-89.14
X172.0Y-91.68
X172.0Y-94.22
X172.0Y-96.76
X172.0Y-99.3
X172.0Y-101.84
X172.0Y-104.38
X172.0Y-106.92
T3
X152.5Y-49.625
X156.46Y-49.625
M30
