M48
; DRILL file {KiCad 9.0.6} date 2026-03-22T14:34:48-0400
; FORMAT={-:-/ absolute / inch / decimal}
; #@! TF.CreationDate,2026-03-22T14:34:48-04:00
; #@! TF.GenerationSoftware,Kicad,Pcbnew,9.0.6
; #@! TF.FileFunction,Plated,1,2,PTH
FMAT,2
INCH
; #@! TA.AperFunction,Plated,PTH,ViaDrill
T1C0.0118
; #@! TA.AperFunction,Plated,PTH,ComponentDrill
T2C0.0394
%
G90
G05
T1
X5.4126Y-2.765
X5.4126Y-2.865
X5.4126Y-2.965
X5.4126Y-3.065
X5.4126Y-3.165
X5.4126Y-3.265
X5.4126Y-3.365
X5.4126Y-3.465
X5.4126Y-3.565
X5.4126Y-3.665
X5.4126Y-3.765
X5.4126Y-3.865
X5.4126Y-3.965
X5.4126Y-4.065
X5.4126Y-4.165
X5.4126Y-4.265
X5.4126Y-4.365
X5.4126Y-4.465
X5.4126Y-4.565
X5.4126Y-4.665
X5.4126Y-4.765
X5.4126Y-4.865
X5.4126Y-4.965
X5.4126Y-5.065
X5.5126Y-2.765
X5.5126Y-2.865
X5.5126Y-2.965
X5.5126Y-3.065
X5.5126Y-3.165
X5.5126Y-3.265
X5.5126Y-3.365
X5.5126Y-3.465
X5.5126Y-3.565
X5.5126Y-3.665
X5.5126Y-3.765
X5.5126Y-3.865
X5.5126Y-3.965
X5.5126Y-4.065
X5.5126Y-4.165
X5.5126Y-4.265
X5.5126Y-4.365
X5.5126Y-4.465
X5.5126Y-4.565
X5.5126Y-4.665
X5.5126Y-4.765
X5.5126Y-4.865
X5.5126Y-4.965
X5.5126Y-5.065
X5.6126Y-3.965
X5.6126Y-4.065
X5.6126Y-4.165
X5.6126Y-4.265
X5.6126Y-4.365
X5.6126Y-4.465
X5.6126Y-4.565
X5.6126Y-4.665
X5.6126Y-4.765
X5.6126Y-4.865
X5.6126Y-4.965
X5.6126Y-5.065
X5.7126Y-2.765
X5.7126Y-2.865
X5.7126Y-2.965
X5.7126Y-3.065
X5.7126Y-3.165
X5.7126Y-3.3701
X5.7126Y-3.4685
X5.7126Y-3.565
X5.7126Y-3.665
X5.7126Y-3.765
X5.7126Y-3.865
X5.7126Y-4.065
X5.7126Y-4.165
X5.7126Y-4.865
X5.7126Y-4.965
X5.7126Y-5.065
X5.8126Y-2.965
X5.8126Y-3.065
X5.8126Y-3.165
X5.8126Y-3.565
X5.8126Y-3.665
X5.8126Y-3.765
X5.8126Y-3.865
X5.8126Y-3.965
X5.8126Y-4.365
X5.8126Y-4.465
X5.8126Y-4.565
X5.8126Y-4.665
X5.8126Y-4.765
X5.8126Y-4.965
X5.8126Y-5.065
X5.815Y-3.4646
X5.8976Y-3.3632
X5.9006Y-3.4882
X5.9126Y-3.165
X5.9126Y-4.665
X5.9126Y-4.765
X5.9126Y-4.965
X5.9126Y-5.065
X5.9213Y-4.0443
X5.9291Y-2.8346
X5.937Y-4.4961
X5.9625Y-3.3622
X5.9843Y-3.3248
X6.0Y-3.5039
X6.0Y-4.6693
X6.0126Y-2.665
X6.0126Y-2.965
X6.0126Y-3.065
X6.0126Y-3.265
X6.0126Y-4.165
X6.0126Y-4.365
X6.0126Y-4.965
X6.0126Y-5.065
X6.0597Y-4.6779
X6.0612Y-3.3878
X6.1126Y-2.665
X6.1126Y-2.765
X6.1126Y-2.865
X6.1126Y-3.065
X6.1126Y-3.165
X6.1126Y-3.465
X6.1126Y-3.565
X6.1126Y-3.665
X6.1126Y-3.765
X6.1126Y-3.865
X6.1126Y-4.965
X6.1126Y-5.065
X6.1178Y-4.5666
X6.1314Y-4.6604
X6.1654Y-3.2884
X6.2126Y-2.665
X6.2126Y-2.765
X6.2126Y-2.865
X6.2126Y-2.965
X6.2126Y-3.465
X6.2126Y-3.565
X6.2126Y-3.665
X6.2126Y-3.765
X6.2126Y-3.865
X6.2126Y-3.965
X6.2126Y-4.065
X6.2126Y-4.165
X6.2126Y-4.265
X6.2126Y-4.365
X6.2126Y-4.465
X6.2126Y-4.565
X6.2126Y-4.665
X6.2126Y-4.965
X6.2126Y-5.065
X6.3126Y-2.665
X6.3126Y-2.765
X6.3126Y-2.865
X6.3126Y-2.965
X6.3126Y-3.065
X6.3126Y-3.165
X6.3126Y-3.265
X6.3126Y-3.365
X6.3126Y-3.465
X6.3126Y-3.565
X6.3126Y-3.665
X6.3126Y-3.765
X6.3126Y-3.865
X6.3126Y-3.965
X6.3126Y-4.065
X6.3126Y-4.165
X6.3126Y-4.265
X6.3126Y-4.365
X6.3126Y-4.465
X6.3126Y-4.565
X6.3126Y-4.665
X6.3126Y-4.765
X6.3126Y-4.965
X6.3126Y-5.065
X6.4126Y-2.665
X6.4126Y-2.765
X6.4126Y-2.865
X6.4126Y-2.965
X6.4126Y-3.065
X6.4126Y-3.165
X6.4126Y-3.265
X6.4126Y-3.365
X6.4126Y-3.465
X6.4126Y-3.565
X6.4126Y-3.665
X6.4126Y-3.765
X6.4126Y-3.865
X6.4126Y-3.965
X6.4126Y-4.065
X6.4126Y-4.165
X6.4126Y-4.265
X6.4126Y-4.365
X6.4126Y-4.465
X6.4126Y-4.565
X6.4126Y-4.665
X6.4126Y-4.765
X6.4126Y-4.965
X6.4126Y-5.065
X6.4857Y-4.7805
X6.5126Y-2.665
X6.5126Y-2.765
X6.5126Y-2.865
X6.5126Y-2.965
X6.5126Y-3.065
X6.5126Y-3.165
X6.5126Y-3.265
X6.5126Y-3.365
X6.5126Y-3.465
X6.5126Y-3.565
X6.5126Y-3.665
X6.5126Y-3.765
X6.5126Y-3.865
X6.5126Y-3.965
X6.5126Y-4.065
X6.5126Y-4.165
X6.5126Y-4.265
X6.5126Y-4.365
X6.5126Y-4.465
X6.5126Y-4.565
X6.5126Y-4.665
X6.5126Y-4.865
X6.5126Y-4.965
X6.5126Y-5.065
X6.6126Y-2.665
X6.6126Y-2.765
X6.6126Y-2.865
X6.6126Y-2.965
X6.6126Y-3.065
X6.6126Y-3.165
X6.6126Y-3.265
X6.6126Y-3.365
X6.6126Y-3.465
X6.6126Y-3.565
X6.6126Y-3.665
X6.6126Y-3.765
X6.6126Y-3.865
X6.6126Y-3.965
X6.6126Y-4.065
X6.6126Y-4.165
X6.6126Y-4.265
X6.6126Y-4.365
X6.6126Y-4.465
X6.6126Y-4.565
X6.6126Y-4.765
X6.6126Y-4.865
X6.6126Y-4.965
X6.6126Y-5.065
T2
X5.315Y-2.7067
X5.315Y-2.8067
X5.315Y-2.9067
X5.315Y-3.0067
X5.315Y-3.1067
X5.315Y-3.2067
X5.315Y-3.3067
X5.315Y-3.4067
X5.315Y-3.5067
X5.315Y-3.6067
X5.315Y-3.7067
X5.315Y-3.8067
X5.315Y-3.9067
X5.315Y-4.0067
X5.315Y-4.1067
X5.315Y-4.2067
X5.315Y-4.3067
X5.315Y-4.4067
X5.315Y-4.5067
X5.315Y-4.6067
X5.315Y-4.7067
X5.315Y-4.8067
X5.315Y-4.9067
X5.315Y-5.0067
X6.6929Y-2.7067
X6.6929Y-2.8067
X6.6929Y-2.9067
X6.6929Y-3.0067
X6.6929Y-3.1067
X6.6929Y-3.2067
X6.6929Y-3.3067
X6.6929Y-3.4067
X6.6929Y-3.5067
X6.6929Y-3.6067
X6.6929Y-3.7067
X6.6929Y-3.8067
X6.6929Y-3.9067
X6.6929Y-4.0067
X6.6929Y-4.1067
X6.6929Y-4.2067
X6.6929Y-4.3067
X6.6929Y-4.4067
X6.6929Y-4.5067
X6.6929Y-4.6067
X6.6929Y-4.7067
X6.6929Y-4.8067
X6.6929Y-4.9067
X6.6929Y-5.0067
M30
